<svg width="91" height="76" viewBox="0 0 91 76" fill="none" xmlns="http://www.w3.org/2000/svg">
  <g id="adiction_free">
    <path d="M90.32 56.69L75.19 38.5C75.0032 38.3033 74.7783 38.1467 74.529 38.0397C74.2797 37.9327 74.0113 37.8775 73.74 37.8775C73.4687 37.8775 73.2003 37.9327 72.951 38.0397C72.7017 38.1467 72.4768 38.3033 72.29 38.5L60.62 52.5L37.82 27.63V15.13H41.6V17.02C41.6026 18.523 42.2009 19.9636 43.2636 21.0264C44.3264 22.0891 45.767 22.6874 47.27 22.69H62.4C62.7421 22.6897 63.0778 22.5966 63.3711 22.4205C63.6645 22.2445 63.9045 21.9921 64.0657 21.6903C64.2268 21.3885 64.3031 21.0486 64.2862 20.7069C64.2694 20.3652 64.1601 20.0345 63.97 19.75L60.89 15.13L63.97 10.5C64.1601 10.2155 64.2694 9.8848 64.2862 9.54308C64.3031 9.20137 64.2268 8.8615 64.0657 8.55971C63.9045 8.25792 63.6645 8.00553 63.3711 7.82947C63.0778 7.65341 62.7421 7.56027 62.4 7.56H52.94V5.67C52.9374 4.16703 52.3391 2.72639 51.2764 1.66363C50.2136 0.600869 48.773 0.00264374 47.27 0H35.93C35.4287 0 34.948 0.199122 34.5936 0.553566C34.2391 0.90801 34.04 1.38874 34.04 1.89V27.63L0.5 64.27C0.178631 64.6188 0.000156832 65.0757 0 65.55V73.79C0 74.2913 0.199115 74.772 0.553558 75.1264C0.908002 75.4809 1.38874 75.68 1.89 75.68H88.89C89.3913 75.68 89.872 75.4809 90.2264 75.1264C90.5809 74.772 90.78 74.2913 90.78 73.79V57.91C90.772 57.4624 90.6095 57.0314 90.32 56.69V56.69ZM57.04 16.22L58.86 18.96H47.27C46.7687 18.96 46.288 18.7609 45.9336 18.4064C45.5791 18.052 45.38 17.5713 45.38 17.07V15.18H47.27C48.4391 15.1739 49.578 14.8077 50.5317 14.1314C51.4854 13.455 52.2075 12.5013 52.6 11.4H58.87L57.05 14.13C56.8404 14.4378 56.7275 14.8011 56.7258 15.1735C56.724 15.5458 56.8334 15.9102 57.04 16.22V16.22ZM37.82 3.83H47.27C47.5182 3.83 47.764 3.87889 47.9933 3.97387C48.2226 4.06885 48.4309 4.20807 48.6064 4.38357C48.7819 4.55907 48.9211 4.76742 49.0161 4.99673C49.1111 5.22603 49.16 5.4718 49.16 5.72V9.5C49.16 10.0022 48.9612 10.4839 48.607 10.84C48.2529 11.196 47.7722 11.3974 47.27 11.4H37.82V3.83ZM86.98 67.76L79.98 50.13L86.98 58.59V67.76ZM3.78999 66.28L34.94 32.28L44.85 71.9H3.78999V66.28ZM48.79 71.9L39.61 35.18L73.27 71.9H48.79ZM63.24 55.36L73.24 43.36L84.63 71.86H78.43L63.24 55.36Z" fill="currentColor"/>
  </g>
</svg>
