<svg width="33" height="51" viewBox="0 0 33 51" fill="none" xmlns="http://www.w3.org/2000/svg">
  <g id="adictions">
    <path d="M30.7961 42.9767C30.7961 44.5412 30.1685 45.942 29.1407 46.9698C28.1129 47.9886 26.7121 48.6253 25.1567 48.6253H7.42884C5.87344 48.6253 4.46358 47.9976 3.44484 46.9698C2.4261 45.9511 1.78944 44.5412 1.78944 42.9767V23.6298C1.78944 21.7288 2.7445 19.9551 4.33628 18.9091L9.7938 15.3253C10.9308 14.5794 11.613 13.3151 11.613 11.9598V9.91323H20.9726V11.9598C20.9726 13.3151 21.6548 14.5885 22.7918 15.3253L28.2493 18.9091C29.8411 19.9551 30.7961 21.7288 30.7961 23.6298V42.9767V42.9767ZM8.90237 5.87466V4.2647C8.90237 3.5916 9.17527 2.99127 9.61187 2.55467C10.0485 2.11806 10.6488 1.84519 11.3219 1.84519H20.9908C21.6639 1.84519 22.2642 2.11806 22.7008 2.55467C23.1375 2.99127 23.4103 3.5916 23.4103 4.2647V5.87466C23.4103 6.54775 23.1375 7.14808 22.7008 7.58468C22.2642 8.02129 21.6639 8.29416 20.9908 8.29416H11.3219C10.6488 8.29416 10.0485 8.02129 9.61187 7.58468C9.16617 7.14808 8.90237 6.54775 8.90237 5.87466ZM29.1316 17.5629L23.6741 13.9791C22.9919 13.5334 22.5826 12.7693 22.5826 11.9598V9.57668C24.0107 8.95816 25.0112 7.5392 25.0112 5.87466V4.2647C25.0112 2.03621 23.2102 0.235229 20.9817 0.235229H11.3128C9.08431 0.235229 7.28333 2.03621 7.28333 4.2647V5.87466C7.28333 7.63926 8.4203 9.13098 9.99388 9.68583V11.9598C9.99388 12.7784 9.58456 13.5334 8.90237 13.9791L3.44484 17.5629C1.40737 18.9 0.170349 21.183 0.170349 23.6298V42.9767C0.170349 46.988 3.41761 50.2352 7.41979 50.2352H25.1476C29.1498 50.2352 32.397 46.988 32.397 42.9767V23.6298C32.4061 21.183 31.1782 18.9 29.1316 17.5629Z" fill="currentColor"/>
    <path d="M13.4503 21.4377C14.1871 20.71 15.1876 20.2552 16.3064 20.2552C17.4161 20.2552 18.4166 20.7009 19.1443 21.4377C19.872 22.1654 20.3268 23.1659 20.3268 24.2756C20.3268 25.5581 19.7447 26.6678 18.8351 27.4228C18.6532 27.5774 18.544 27.8048 18.544 28.0413V29.0873C18.544 29.7149 18.2893 30.2789 17.8891 30.6791C17.4798 31.0884 16.934 31.334 16.3155 31.334C15.0694 31.334 14.0689 30.3335 14.0598 29.0782V28.0322C14.0598 27.7957 13.9506 27.5592 13.7687 27.4137C12.8591 26.6587 12.2769 25.549 12.2769 24.2665C12.2678 23.175 12.7135 22.1745 13.4503 21.4377ZM12.4407 28.3961V29.0873C12.4407 30.1515 12.8773 31.1248 13.5685 31.8252C14.2689 32.5256 15.2331 32.9531 16.3064 32.9531C18.4257 32.9531 20.1449 31.2248 20.1449 29.0873V28.3869C21.2273 27.3591 21.9367 25.9038 21.9277 24.2665C21.9277 21.1557 19.4081 18.6362 16.2973 18.6362C13.1774 18.6362 10.6488 21.1557 10.6488 24.2665C10.6488 25.9129 11.3583 27.3682 12.4407 28.3961Z" fill="currentColor"/>
    <path d="M22.8464 34.6176C22.6463 34.2174 22.1642 34.0537 21.764 34.2538L16.2974 36.9644L10.8308 34.2538C10.4306 34.0537 9.94849 34.2174 9.74838 34.6176C9.54827 35.0179 9.71196 35.4999 10.1122 35.7L14.4873 37.8649L10.1122 40.0297C9.71196 40.2298 9.54827 40.7119 9.74838 41.1121C9.94849 41.5123 10.4306 41.676 10.8308 41.4759L16.2974 38.7654L21.764 41.4759C22.1642 41.676 22.6463 41.5123 22.8464 41.1121C23.0465 40.7119 22.8828 40.2298 22.4826 40.0297L18.1075 37.8649L22.4826 35.7C22.8737 35.4999 23.0374 35.0179 22.8464 34.6176Z" fill="currentColor"/>
  </g>
</svg>
