<svg width="55" height="51" viewBox="0 0 55 51" fill="none" xmlns="http://www.w3.org/2000/svg">
  <g id="anexiety">
    <path d="M54.5235 47.0662L54.8276 45.7669C55.1962 44.1635 54.7078 42.4864 53.5467 41.3254L45.8616 34.1009L45.7787 34.0364L45.7049 33.9812C44.894 33.2348 43.8251 32.8109 42.7193 32.8201H39.4664C39.1255 32.8201 38.8491 33.0965 38.8491 33.4375C38.8491 33.7784 39.1255 34.0549 39.4664 34.0549H42.7193C43.7237 34.0549 44.1107 34.3405 44.9953 34.9856L52.5608 42.0902L52.6345 42.1731C53.5099 43.0485 53.8693 44.311 53.5928 45.5181L53.3071 46.8174C52.8832 48.8078 50.9205 50.0794 48.9393 49.6556C48.9209 49.6556 48.9117 49.6464 48.8933 49.6464L38.4528 47.3611C38.5818 46.9188 38.6464 46.4672 38.6464 46.0065V44.6888C38.6464 41.9704 36.444 39.7681 33.7348 39.7681H20.3366V39.6298L20.6129 38.3398C21.0368 36.3493 22.9996 35.0777 24.99 35.5016C25.0084 35.5016 25.0177 35.5108 25.0361 35.5108L46.2762 40.1551C46.6079 40.2288 46.9305 40.0169 47.0042 39.6851C47.0779 39.3534 46.866 39.0217 46.5343 38.9572L25.3494 34.2852C22.6863 33.7139 20.0601 35.4002 19.4703 38.0633L19.1938 39.3626C19.1201 39.6943 19.0833 40.0353 19.0833 40.367C19.0833 40.708 19.3597 40.9844 19.7007 40.9844H33.7164C35.7529 40.9844 37.4023 42.6339 37.4023 44.6703V45.9881C37.4023 46.3843 37.3379 46.7805 37.2089 47.1583C37.1628 47.2874 37.1167 47.4164 37.0522 47.5454C36.9784 47.7112 36.9784 47.8955 37.0522 48.0614C37.1351 48.2273 37.2826 48.347 37.4577 48.3839L48.626 50.8443C48.967 50.918 49.3264 50.9548 49.6765 50.9548C52.0079 50.9825 54.0444 49.3699 54.542 47.0846H54.5235V47.0662ZM38.158 48.1351C38.1764 48.1075 38.1948 48.0798 38.204 48.0522C38.2685 47.8955 38.3423 47.7297 38.3884 47.5638C38.5635 47.0662 38.6464 46.5317 38.6464 46.0065V44.6888C38.6464 41.9704 36.444 39.7681 33.7348 39.7681H9.47226C9.13131 39.7681 8.85482 40.0445 8.85482 40.3854C8.85482 40.7264 9.13131 41.0029 9.47226 41.0029H33.7072C35.7437 41.0029 37.3931 42.6523 37.3931 44.6888V46.0065C37.3931 46.4027 37.3286 46.799 37.1996 47.1768C37.1628 47.2873 37.1167 47.3887 37.0798 47.4901V47.5546C36.4809 48.8723 35.1631 49.7201 33.7164 49.7201H5.27024C3.23376 49.7201 1.58431 48.0706 1.58431 46.0341V44.6888C1.5751 43.7581 1.91607 42.8642 2.53346 42.1823L10.6978 34.9395L10.8637 34.8197C11.4166 34.3221 12.1353 34.0549 12.8817 34.0641H15.7015C15.9411 34.3037 16.3373 34.2944 16.5676 34.0549C16.6782 33.9351 16.7428 33.7876 16.7428 33.6218V33.5204C16.7612 33.3453 16.7059 33.1702 16.5861 33.0412C16.4663 32.9122 16.3004 32.8385 16.1346 32.8385H12.8817C11.8957 32.8293 10.9374 33.1703 10.1818 33.8061L10.0528 33.889C10.0344 33.8982 10.0159 33.9074 10.0067 33.9259L1.92525 41.0858L1.67655 41.3162C0.810356 42.2284 0.340332 43.4355 0.340332 44.698V46.0157C0.340332 48.7341 2.54275 50.9364 5.25191 50.9364H33.7072C35.6054 50.9272 37.3287 49.8399 38.158 48.1351ZM16.7428 33.6125V33.4467C16.7612 27.3373 21.7188 22.3981 27.8282 22.4165C33.9377 22.435 38.8676 27.4018 38.8491 33.5112V33.6125C38.8491 34.8013 38.6556 35.99 38.287 37.1142L25.3402 34.276C22.6771 33.7047 20.0508 35.391 19.4611 38.0541L19.1847 39.3534C19.1847 39.4916 19.1386 39.6206 19.1201 39.7496H18.5857C17.3786 37.9251 16.7336 35.7872 16.7428 33.6125ZM20.2812 40.3486C20.2812 40.0906 20.3088 39.8418 20.3641 39.593L20.6406 38.3029C21.0645 36.3125 23.0272 35.0408 25.0084 35.4647C25.0269 35.4647 25.0361 35.474 25.0546 35.474L38.5634 38.4227C38.8583 38.4872 39.1532 38.3213 39.2637 38.0449C39.8074 36.6258 40.0839 35.1238 40.0839 33.6033C40.0839 33.5481 40.0839 33.4836 40.0839 33.4283C40.1023 26.6369 34.6196 21.1265 27.8282 21.108C21.0461 21.0896 15.5356 26.5817 15.5171 33.373C15.5079 33.4559 15.5079 33.5296 15.5171 33.6125C15.5079 36.1558 16.3004 38.6346 17.7748 40.708C17.8946 40.8738 18.0788 40.966 18.2816 40.966H19.673C20.0048 40.966 20.2812 40.6895 20.2812 40.3486ZM30.0766 26.3513V1.60025C30.0766 1.2593 29.8001 0.982872 29.4592 0.982872C29.1182 0.982872 28.8418 1.2593 28.8418 1.60025V26.3421C28.8418 26.683 29.1182 26.9594 29.4592 26.9594C29.7909 26.9502 30.0489 26.683 30.0581 26.3513H30.0766ZM29.4592 1.60025V26.3513V1.60025ZM42.8483 26.3605V1.58183C42.8483 1.24088 42.5718 0.964424 42.2309 0.964424C41.8899 0.964424 41.6136 1.24088 41.6136 1.58183V26.3605C41.6136 26.7014 41.8899 26.9779 42.2309 26.9779C42.5718 26.9779 42.8483 26.6922 42.8483 26.3605ZM42.2401 1.57261V26.3513V1.57261ZM39.6416 30.1293V1.57261C39.6416 1.23166 39.3651 0.9552 39.0241 0.9552C38.6832 0.9552 38.4068 1.23166 38.4068 1.57261V30.1293C38.4068 30.4703 38.6832 30.7467 39.0241 30.7467C39.3651 30.7467 39.6416 30.4795 39.6416 30.1293ZM39.0241 1.57261V30.1293V1.57261ZM36.4993 33.3545V1.58183C36.4993 1.24088 36.2229 0.964424 35.882 0.964424C35.541 0.964424 35.2645 1.24088 35.2645 1.58183V33.3545C35.2645 33.6955 35.541 33.9719 35.882 33.9719C36.2229 33.9719 36.4993 33.6863 36.4993 33.3545ZM35.8912 1.57261V33.3453V1.57261ZM33.2557 30.1201V1.60025C33.2557 1.2593 32.9793 0.982872 32.6383 0.982872C32.2974 0.982872 32.0209 1.2593 32.0209 1.60025V30.1201C32.0209 30.4611 32.2974 30.7375 32.6383 30.7375C32.9793 30.7375 33.2557 30.4611 33.2557 30.1201ZM32.6476 1.60025V30.1201Z" fill="currentColor"/>
  </g>

</svg>
