<svg width="74" height="100" viewBox="0 0 74 100" fill="none" xmlns="http://www.w3.org/2000/svg">
<path d="M0 65.8824L33.277 98.8235C34.1216 99.6639 35.1351 100 36.1486 100C37.1622 100 38.3446 99.6639 39.0203 98.8235L72.4662 65.7143C74.1554 64.0336 74.1554 61.5126 72.4662 59.8319C70.777 58.1513 68.2432 58.1513 66.5541 59.8319L40.2027 86.0504V45.2101C40.2027 42.8571 38.3446 41.0084 35.9797 41.0084C33.6149 41.0084 31.7568 42.8571 31.7568 45.2101V86.0504L5.74324 59.8319" fill="currentColor"/>
<path d="M40.3715 31.4286C40.3715 33.7479 38.4796 35.6303 36.1485 35.6303C33.8174 35.6303 31.9255 33.7479 31.9255 31.4286C31.9255 29.1092 33.8174 27.2269 36.1485 27.2269C38.4796 27.2269 40.3715 29.1092 40.3715 31.4286Z" fill="currentColor"/>
<path d="M40.3715 17.8151C40.3715 20.1345 38.4796 22.0168 36.1485 22.0168C33.8174 22.0168 31.9255 20.1345 31.9255 17.8151C31.9255 15.4958 33.8174 13.6134 36.1485 13.6134C38.4796 13.6134 40.3715 15.4958 40.3715 17.8151Z" fill="currentColor"/>
<path d="M40.3715 4.20168C40.3715 6.52101 38.4796 8.40336 36.1485 8.40336C33.8174 8.40336 31.9255 6.52101 31.9255 4.20168C31.9255 1.88235 33.8174 0 36.1485 0C38.4796 0 40.3715 1.88235 40.3715 4.20168Z" fill="currentColor"/>
</svg>
