<svg width="67" height="66" viewBox="0 0 67 66" fill="none" xmlns="http://www.w3.org/2000/svg">
  <g id="building">
    <path d="M1.82023 65.68H65.8202C66.3702 65.68 66.8202 65.23 66.8202 64.68V59.5C66.8202 58.95 66.3702 58.5 65.8202 58.5H63.6802V37.22H65.8302C66.3802 37.22 66.8302 36.77 66.8302 36.22V30.74C66.8302 30.19 66.3802 29.74 65.8302 29.74H63.6802V8.45004H65.8302C66.3802 8.45004 66.8302 8.00004 66.8302 7.45004V1.67004C66.8302 1.12004 66.3802 0.670044 65.8302 0.670044H1.83024C1.28024 0.670044 0.830242 1.12004 0.830242 1.67004V7.45004C0.830242 8.00004 1.28024 8.45004 1.83024 8.45004H3.98021V29.73H1.83024C1.28024 29.73 0.830242 30.18 0.830242 30.73V36.21C0.830242 36.76 1.28024 37.21 1.83024 37.21H3.98021V58.49H1.83024C1.28024 58.49 0.830242 58.94 0.830242 59.49V64.67C0.820242 65.23 1.27023 65.68 1.82023 65.68ZM2.82023 6.45004V2.67004H64.8202V6.45004C32.0702 6.45004 35.3302 6.45004 2.82023 6.45004ZM61.6802 8.45004V29.73H5.9702V8.45004H61.6802ZM2.82023 35.21V31.73C23.4202 31.73 44.1302 31.73 64.8202 31.73V35.21C32.0702 35.21 35.3302 35.21 2.82023 35.21ZM25.6302 41.7C24.0802 40.51 21.1802 39.8 17.8602 39.8C14.5402 39.8 11.6402 40.51 10.1002 41.7C9.6302 42.06 9.36021 42.62 9.36021 43.25V58.5H5.96025V37.22H61.6802V58.5H26.3702V43.25C26.3702 42.62 26.1002 42.06 25.6302 41.7ZM24.3702 43.25V58.5H18.8702V41.83C21.2702 41.95 23.3802 42.49 24.3702 43.25ZM16.8702 41.83V58.5H11.3702L11.3302 43.29C12.3502 42.49 14.4602 41.95 16.8702 41.83ZM2.82023 60.49C13.0102 60.49 56.9602 60.49 64.8202 60.49V63.67H2.82023V60.49Z" fill="currentColor"/>
    <path d="M9.37012 24.8701C8.82012 24.8701 8.37012 25.3201 8.37012 25.8701C8.37012 26.4201 8.82012 26.8701 9.37012 26.8701C13.8901 26.8701 19.5601 26.8701 22.3701 26.8701C22.9201 26.8701 23.3701 26.4201 23.3701 25.8701C23.3701 25.3201 22.9201 24.8701 22.3701 24.8701H22.0701V13.3101H22.3701C22.9201 13.3101 23.3701 12.8601 23.3701 12.3101C23.3701 11.7601 22.9201 11.3101 22.3701 11.3101C17.8501 11.3101 12.1801 11.3101 9.37012 11.3101C8.82012 11.3101 8.37012 11.7601 8.37012 12.3101C8.37012 12.8601 8.82012 13.3101 9.37012 13.3101H9.6701V24.8701H9.37012ZM11.6601 13.3101H20.0701V18.0901H11.6601V13.3101ZM11.6601 20.0901H20.0701V24.8701H11.6601V20.0901Z" fill="currentColor"/>
    <path d="M27.3203 24.8701C26.7703 24.8701 26.3203 25.3201 26.3203 25.8701C26.3203 26.4201 26.7703 26.8701 27.3203 26.8701C30.1203 26.8701 35.8103 26.8701 40.3203 26.8701C40.8703 26.8701 41.3203 26.4201 41.3203 25.8701C41.3203 25.3201 40.8703 24.8701 40.3203 24.8701H40.0203V13.3101H40.3203C40.8703 13.3101 41.3203 12.8601 41.3203 12.3101C41.3203 11.7601 40.8703 11.3101 40.3203 11.3101C35.8003 11.3101 30.1303 11.3101 27.3203 11.3101C26.7703 11.3101 26.3203 11.7601 26.3203 12.3101C26.3203 12.8601 26.7703 13.3101 27.3203 13.3101H27.6203V24.8701H27.3203ZM29.6203 13.3101H38.0303V18.0901H29.6203V13.3101ZM29.6203 20.0901H38.0303V24.8701H29.6203V20.0901Z" fill="currentColor"/>
    <path d="M45.2803 24.8701C44.7303 24.8701 44.2803 25.3201 44.2803 25.8701C44.2803 26.4201 44.7303 26.8701 45.2803 26.8701C48.0803 26.8701 53.7703 26.8701 58.2803 26.8701C58.8303 26.8701 59.2803 26.4201 59.2803 25.8701C59.2803 25.3201 58.8303 24.8701 58.2803 24.8701H57.9803V13.3101H58.2803C58.8303 13.3101 59.2803 12.8601 59.2803 12.3101C59.2803 11.7601 58.8303 11.3101 58.2803 11.3101C53.7603 11.3101 48.0903 11.3101 45.2803 11.3101C44.7303 11.3101 44.2803 11.7601 44.2803 12.3101C44.2803 12.8601 44.7303 13.3101 45.2803 13.3101H45.5803V24.8701H45.2803ZM47.5803 13.3101H55.9903V18.0901H47.5803V13.3101ZM47.5803 20.0901H55.9903V24.8701H47.5803V20.0901Z" fill="currentColor"/>
    <path d="M34.0203 56.1301H54.0203C54.5703 56.1301 55.0203 55.6801 55.0203 55.1301V41.5801C55.0203 41.0301 54.5703 40.5801 54.0203 40.5801H34.0203C33.4703 40.5801 33.0203 41.0301 33.0203 41.5801V55.1301C33.0203 55.6801 33.4703 56.1301 34.0203 56.1301ZM45.0203 42.5801H53.0203V47.3601H45.0203V42.5801ZM45.0203 49.3501H53.0203V54.1201H45.0203V49.3501ZM35.0203 42.5801H43.0203V47.3601H35.0203V42.5801ZM35.0203 49.3501H43.0203V54.1201H35.0203V49.3501Z" fill="currentColor"/>
  </g>
</svg>
