<svg width="58" height="66" viewBox="0 0 58 66" fill="none" xmlns="http://www.w3.org/2000/svg">
  <g id="calendar">
    <path d="M52.77 7.36H49.7V4.91C49.7 2.2 47.5 0 44.79 0C42.08 0 39.88 2.2 39.88 4.91V7.36H17.8V4.91C17.8 2.2 15.6 0 12.89 0C10.18 0 7.97998 2.2 7.97998 4.91V7.36H4.91003C2.20003 7.36 0 9.56 0 12.27V60.11C0 62.82 2.20003 65.02 4.91003 65.02H52.75C55.46 65.02 57.66 62.82 57.66 60.11V12.27C57.68 9.56 55.48 7.36 52.77 7.36ZM42.35 4.91C42.35 3.56 43.45 2.45999 44.8 2.45999C46.15 2.45999 47.25 3.56 47.25 4.91V12.27C47.25 13.62 46.15 14.72 44.8 14.72C43.45 14.72 42.35 13.62 42.35 12.27V4.91ZM10.45 4.91C10.45 3.56 11.55 2.45999 12.9 2.45999C14.25 2.45999 15.35 3.56 15.35 4.91V8.59V12.27C15.35 13.62 14.25 14.72 12.9 14.72C11.55 14.72 10.45 13.62 10.45 12.27V4.91ZM4.93005 9.81999H8V12.27C8 14.98 10.2 17.18 12.91 17.18C15.62 17.18 17.8201 14.98 17.8201 12.27V9.81999H39.9V12.27C39.9 14.98 42.1001 17.18 44.8101 17.18C47.5201 17.18 49.72 14.98 49.72 12.27V9.81999H52.79C54.14 9.81999 55.24 10.92 55.24 12.27V20.86H2.48999V12.27C2.47999 10.92 3.58005 9.81999 4.93005 9.81999ZM52.77 62.57H4.93005C3.58005 62.57 2.47998 61.47 2.47998 60.12V23.32H55.23V60.12C55.23 61.47 54.13 62.57 52.77 62.57Z" fill="currentColor"/>
    <path d="M14.7399 28.83H9.82983C7.79983 28.83 6.1499 30.48 6.1499 32.51V37.42C6.1499 39.45 7.79983 41.1 9.82983 41.1H14.7399C16.7699 41.1 18.4199 39.45 18.4199 37.42V32.51C18.4199 30.48 16.7699 28.83 14.7399 28.83ZM15.9698 37.42C15.9698 38.1 15.4199 38.65 14.7399 38.65H9.82983C9.14983 38.65 8.59985 38.1 8.59985 37.42V32.51C8.59985 31.83 9.14983 31.28 9.82983 31.28H14.7399C15.4199 31.28 15.9698 31.83 15.9698 32.51V37.42Z" fill="currentColor"/>
    <path d="M31.9202 28.83H27.0101C24.9801 28.83 23.3301 30.48 23.3301 32.51V37.42C23.3301 39.45 24.9801 41.1 27.0101 41.1H31.9202C33.9502 41.1 35.6001 39.45 35.6001 37.42V32.51C35.6001 30.48 33.9502 28.83 31.9202 28.83ZM33.1501 37.42C33.1501 38.1 32.6002 38.65 31.9202 38.65H27.0101C26.3301 38.65 25.7802 38.1 25.7802 37.42V32.51C25.7802 31.83 26.3301 31.28 27.0101 31.28H31.9202C32.6002 31.28 33.1501 31.83 33.1501 32.51V37.42Z" fill="currentColor"/>
    <path d="M47.8702 28.83H42.9602C40.9302 28.83 39.2803 30.48 39.2803 32.51V37.42C39.2803 39.45 40.9302 41.1 42.9602 41.1H47.8702C49.9002 41.1 51.5503 39.45 51.5503 37.42V32.51C51.5503 30.48 49.9002 28.83 47.8702 28.83ZM49.0902 37.42C49.0902 38.1 48.5402 38.65 47.8602 38.65H42.9502C42.2702 38.65 41.7202 38.1 41.7202 37.42V32.51C41.7202 31.83 42.2702 31.28 42.9502 31.28H47.8602C48.5402 31.28 49.0902 31.83 49.0902 32.51V37.42Z" fill="currentColor"/>
    <path d="M14.7399 44.78H9.82983C7.79983 44.78 6.1499 46.43 6.1499 48.46V53.37C6.1499 55.4 7.79983 57.05 9.82983 57.05H14.7399C16.7699 57.05 18.4199 55.4 18.4199 53.37V48.46C18.4199 46.43 16.7699 44.78 14.7399 44.78ZM15.9698 53.37C15.9698 54.05 15.4199 54.6 14.7399 54.6H9.82983C9.14983 54.6 8.59985 54.05 8.59985 53.37V48.46C8.59985 47.78 9.14983 47.23 9.82983 47.23H14.7399C15.4199 47.23 15.9698 47.78 15.9698 48.46V53.37Z" fill="currentColor"/>
    <path d="M31.9202 44.78H27.0101C24.9801 44.78 23.3301 46.43 23.3301 48.46V53.37C23.3301 55.4 24.9801 57.05 27.0101 57.05H31.9202C33.9502 57.05 35.6001 55.4 35.6001 53.37V48.46C35.6001 46.43 33.9502 44.78 31.9202 44.78ZM33.1501 53.37C33.1501 54.05 32.6002 54.6 31.9202 54.6H27.0101C26.3301 54.6 25.7802 54.05 25.7802 53.37V48.46C25.7802 47.78 26.3301 47.23 27.0101 47.23H31.9202C32.6002 47.23 33.1501 47.78 33.1501 48.46V53.37Z" fill="currentColor"/>
    <path d="M47.8702 44.78H42.9602C40.9302 44.78 39.2803 46.43 39.2803 48.46V53.37C39.2803 55.4 40.9302 57.05 42.9602 57.05H47.8702C49.9002 57.05 51.5503 55.4 51.5503 53.37V48.46C51.5503 46.43 49.9002 44.78 47.8702 44.78ZM49.0902 53.37C49.0902 54.05 48.5402 54.6 47.8602 54.6H42.9502C42.2702 54.6 41.7202 54.05 41.7202 53.37V48.46C41.7202 47.78 42.2702 47.23 42.9502 47.23H47.8602C48.5402 47.23 49.0902 47.78 49.0902 48.46V53.37Z" fill="currentColor"/>
  </g>
</svg>
