<svg width="83" height="67" viewBox="0 0 83 67" fill="none" xmlns="http://www.w3.org/2000/svg">
<g clip-path="url(#clip0)">
<path d="M81.4 29.5V12.1C81.4 10.4 80 9 78.3 9H65.5V1.7C65.5 1.3 65.2 1 64.8 1C64.4 1 64.1 1.3 64.1 1.7V9H45.7V1.7C45.7 1.3 45.4 1 45 1C44.6 1 44.3 1.3 44.3 1.7V9H25.8V1.7C25.8 1.3 25.5 1 25.1 1C24.7 1 24.4 1.3 24.4 1.7V9H11.6C9.9 9 8.5 10.4 8.5 12.1V50.9C8.5 51.3 8.8 51.6 9.2 51.6C9.6 51.6 9.9 51.3 9.9 50.9V30.2H80.1V63C80.1 63.9 79.3 64.7 78.4 64.7H23.4C23 64.7 22.7 65 22.7 65.4C22.7 65.8 23 66.1 23.4 66.1H78.4C80.1 66.1 81.5 64.7 81.5 63L81.4 29.5ZM9.9 28.8V12.1C9.9 11.2 10.7 10.4 11.6 10.4H24.4V17.7C24.4 18.1 24.7 18.4 25.1 18.4C25.5 18.4 25.8 18.1 25.8 17.7V10.4H44.3V17.7C44.3 18.1 44.6 18.4 45 18.4C45.4 18.4 45.7 18.1 45.7 17.7V10.4H64.2V17.7C64.2 18.1 64.5 18.4 64.9 18.4C65.3 18.4 65.6 18.1 65.6 17.7V10.4H78.4C79.3 10.4 80.1 11.2 80.1 12.1V28.8H9.9V28.8Z" fill="currentColor" stroke="currentColor" stroke-width="2" stroke-miterlimit="10"/>
<path d="M29.1 42.0999C29.5 42.0999 29.8 41.8 29.8 41.4C29.8 41 29.5 40.7 29.1 40.7H21.3C20.9 40.7 20.6 41 20.6 41.4C20.6 41.8 20.9 42.0999 21.3 42.0999H29.1Z" fill="currentColor" stroke="currentColor" stroke-width="2" stroke-miterlimit="10"/>
<path d="M41.1 54.0999H48.9C49.3 54.0999 49.6 53.8 49.6 53.4C49.6 53 49.3 52.7 48.9 52.7H41.1C40.7 52.7 40.4 53 40.4 53.4C40.4 53.8 40.7 54.0999 41.1 54.0999Z" fill="currentColor" stroke="currentColor" stroke-width="2" stroke-miterlimit="10"/>
<path d="M41.1 42.0999H48.9C49.3 42.0999 49.6 41.8 49.6 41.4C49.6 41 49.3 40.7 48.9 40.7H41.1C40.7 40.7 40.4 41 40.4 41.4C40.4 41.8 40.7 42.0999 41.1 42.0999Z" fill="currentColor" stroke="currentColor" stroke-width="2" stroke-miterlimit="10"/>
<path d="M60.9 54.0999H68.6999C69.0999 54.0999 69.4 53.8 69.4 53.4C69.4 53 69.0999 52.7 68.6999 52.7H60.9C60.5 52.7 60.2 53 60.2 53.4C60.3 53.8 60.6 54.0999 60.9 54.0999Z" fill="currentColor" stroke="currentColor" stroke-width="2" stroke-miterlimit="10"/>
<path d="M60.9 42.0999H68.6999C69.0999 42.0999 69.4 41.8 69.4 41.4C69.4 41 69.0999 40.7 68.6999 40.7H60.9C60.5 40.7 60.2 41 60.2 41.4C60.2 41.8 60.6 42.0999 60.9 42.0999Z" fill="currentColor" stroke="currentColor" stroke-width="2" stroke-miterlimit="10"/>
<path d="M24 50.5C23.7 50.2 23.3 50.2 23 50.5L9.2 64.3L2.1 57.2C1.8 56.9 1.4 56.9 1.1 57.2C0.8 57.5 0.8 57.9 1.1 58.2L8.6 65.7C8.9 65.9 9 66 9.2 66C9.4 66 9.5 65.9 9.7 65.8L24 51.4C24.3 51.2 24.3 50.7 24 50.5Z" fill="currentColor" stroke="currentColor" stroke-width="2" stroke-miterlimit="10"/>
</g>
<defs>
<clipPath id="clip0">
<rect width="82.4" height="67" fill="white"/>
</clipPath>
</defs>
</svg>
