<svg viewBox="0 0 76 65" fill="none" xmlns="http://www.w3.org/2000/svg">
  <g id="classroom">
    <path d="M52.9091 53.0398C55.2191 49.5798 53.6791 44.8398 49.5791 43.2998C48.0391 42.7898 46.3791 42.7898 44.9691 43.4298C42.4091 44.5798 40.9991 46.8898 40.9991 49.4498C40.9991 50.7298 41.3791 52.0098 42.0291 53.0398C40.1091 54.3198 38.8291 56.4998 38.8291 58.9298V63.2898C38.8291 64.0598 39.3391 64.5698 40.1091 64.5698C40.8791 64.5698 41.389 64.0598 41.389 63.2898V58.9298C41.389 57.2598 42.2891 55.7298 43.8191 54.8298L43.9491 54.9598C44.0791 55.0898 44.2091 55.0898 44.3291 55.2198L44.8391 55.4798C44.9691 55.6098 45.2191 55.6098 45.4791 55.7398H45.7391C46.8891 56.1198 48.0491 56.1198 49.1991 55.7398H49.4591C49.7191 55.7398 49.8391 55.6098 50.0991 55.4798C50.2291 55.4798 50.4791 55.3498 50.6091 55.2198L50.9891 54.9598L51.1191 54.8298C52.6591 55.5998 53.5491 57.1398 53.5491 58.9298V63.2898C53.5491 64.0598 54.0591 64.5698 54.8291 64.5698C55.5991 64.5698 56.1091 64.0598 56.1091 63.2898V58.9298C56.1091 56.6298 54.9591 54.4498 52.9091 53.0398ZM47.5291 45.6098C49.7091 45.6098 51.4991 47.2798 51.4991 49.4498C51.4991 50.5998 50.9891 51.7598 50.0891 52.5298C49.0591 53.4298 47.5291 53.6798 46.2491 53.1698C45.9891 53.0398 45.8691 53.0398 45.6091 52.9098C45.3491 52.7798 45.2291 52.6498 44.9691 52.5298C44.0691 51.7598 43.5591 50.7398 43.5591 49.4498C43.5491 47.3998 45.3491 45.6098 47.5291 45.6098Z" fill="currentColor"/>
    <path d="M72.3799 53.0398C74.6899 49.5798 73.1498 44.8398 69.0498 43.2998C67.5098 42.7898 65.8498 42.7898 64.4398 43.4298C61.8798 44.5798 60.4698 46.8898 60.4698 49.4498C60.4698 50.7298 60.8499 52.0098 61.4999 53.0398C59.5799 54.3198 58.2998 56.4998 58.2998 58.9298V63.2898C58.2998 64.0598 58.8098 64.5698 59.5798 64.5698C60.3498 64.5698 60.8599 64.0598 60.8599 63.2898V58.9298C60.8599 57.2598 61.7598 55.7298 63.2898 54.8298L63.4198 54.9598C63.5498 55.0898 63.6798 55.0898 63.7998 55.2198L64.3098 55.4798C64.4398 55.6098 64.6898 55.6098 64.9498 55.7398H65.2098C66.3598 56.1198 67.5198 56.1198 68.6698 55.7398H68.9298C69.1898 55.7398 69.3098 55.6098 69.5698 55.4798C69.6998 55.4798 69.9498 55.3498 70.0798 55.2198L70.4598 54.9598L70.5898 54.8298C72.1298 55.5998 73.0198 57.1398 73.0198 58.9298V63.2898C73.0198 64.0598 73.5298 64.5698 74.2998 64.5698C75.0698 64.5698 75.5798 64.0598 75.5798 63.2898V58.9298C75.4598 56.6298 74.3099 54.4498 72.3799 53.0398ZM66.8699 45.6098C69.0499 45.6098 70.8398 47.2798 70.8398 49.4498C70.8398 50.5998 70.3298 51.7598 69.4298 52.5298C68.3998 53.4298 66.8698 53.6798 65.5898 53.1698C65.3298 53.0398 65.2098 53.0398 64.9498 52.9098C64.6898 52.7798 64.5698 52.6498 64.3098 52.5298C63.4098 51.7598 62.8998 50.7398 62.8998 49.4498C63.0298 47.3998 64.8199 45.6098 66.8699 45.6098Z" fill="currentColor"/>
    <path d="M33.5594 53.0398C35.8694 49.5798 34.3295 44.8398 30.2295 43.2998C28.6895 42.7898 27.0295 42.7898 25.6195 43.4298C23.0595 44.5798 21.6494 46.8898 21.6494 49.4498C21.6494 50.7298 22.0294 52.0098 22.6794 53.0398C20.7594 54.3198 19.4795 56.4998 19.4795 58.9298V63.2898C19.4795 64.0598 19.9894 64.5698 20.7594 64.5698C21.5294 64.5698 22.0394 64.0598 22.0394 63.2898V58.9298C22.0394 57.2598 22.9395 55.7298 24.4695 54.8298L24.5995 54.9598C24.7295 55.0898 24.8595 55.0898 24.9795 55.2198L25.4895 55.4798C25.6195 55.6098 25.8695 55.6098 26.1295 55.7398H26.3894C27.5394 56.1198 28.6995 56.1198 29.8495 55.7398H30.1095C30.3695 55.7398 30.4895 55.6098 30.7495 55.4798C30.8795 55.4798 31.1294 55.3498 31.2594 55.2198L31.6394 54.9598L31.7694 54.8298C33.3094 55.5998 34.1995 57.1398 34.1995 58.9298V63.2898C34.1995 64.0598 34.7095 64.5698 35.4795 64.5698C36.2495 64.5698 36.7594 64.0598 36.7594 63.2898V58.9298C36.6394 56.6298 35.4794 54.4498 33.5594 53.0398ZM28.0494 45.6098C30.2294 45.6098 32.0194 47.2798 32.0194 49.4498C32.0194 50.5998 31.5095 51.7598 30.6095 52.5298C29.5795 53.4298 28.0494 53.6798 26.7694 53.1698C26.5094 53.0398 26.3895 53.0398 26.1295 52.9098C25.8695 52.7798 25.7495 52.6498 25.4895 52.5298C24.5895 51.7598 24.0795 50.7398 24.0795 49.4498C24.2095 47.3998 25.8694 45.6098 28.0494 45.6098Z" fill="currentColor"/>
    <path d="M14.08 53.0398C16.39 49.5798 14.85 44.8398 10.75 43.2998C9.21 42.7898 7.54989 42.7898 6.13989 43.4298C3.57989 44.5798 2.16992 46.8898 2.16992 49.4498C2.16992 50.7298 2.54995 52.0098 3.19995 53.0398C1.27995 54.3198 0 56.4998 0 58.9298V63.2898C0 64.0598 0.509907 64.5698 1.27991 64.5698C2.04991 64.5698 2.55994 64.0598 2.55994 63.2898V58.9298C2.55994 57.2598 3.45999 55.7298 4.98999 54.8298L5.12 54.9598C5.25 55.0898 5.38 55.0898 5.5 55.2198L6.00989 55.4798C6.13989 55.6098 6.3899 55.6098 6.6499 55.7398H6.90991C8.05991 56.1198 9.22 56.1198 10.37 55.7398H10.63C10.89 55.7398 11.0099 55.6098 11.2699 55.4798C11.3999 55.4798 11.6499 55.3498 11.7799 55.2198L12.1599 54.9598L12.2899 54.8298C13.8299 55.5998 14.72 57.1398 14.72 58.9298V63.2898C14.72 64.0598 15.23 64.5698 16 64.5698C16.77 64.5698 17.2799 64.0598 17.2799 63.2898V58.9298C17.2899 56.6298 16.01 54.4498 14.08 53.0398ZM8.69995 45.6098C10.88 45.6098 12.6699 47.2798 12.6699 49.4498C12.6699 50.5998 12.1599 51.7598 11.2599 52.5298C10.2299 53.4298 8.69992 53.6798 7.41992 53.1698C7.15992 53.0398 7.03991 53.0398 6.77991 52.9098C6.51991 52.7798 6.39989 52.6498 6.13989 52.5298C5.23989 51.7598 4.72998 50.7398 4.72998 49.4498C4.72998 47.3998 6.51995 45.6098 8.69995 45.6098Z" fill="currentColor"/>
    <path d="M43.1698 29.2099C45.4798 25.7499 43.9398 21.0099 39.8398 19.4699C38.2998 18.9599 36.6399 18.9599 35.2299 19.5999C32.6699 20.7499 31.2598 23.0599 31.2598 25.6199C31.2598 26.8999 31.6398 28.1799 32.2898 29.2099C30.3698 30.4899 29.0898 32.6699 29.0898 35.0999V39.4599C29.0898 40.2299 29.5999 40.7399 30.3699 40.7399C31.1399 40.7399 31.6498 40.2299 31.6498 39.4599V35.0999C31.6498 33.4299 32.5498 31.8999 34.0798 30.9999L34.2098 31.1299C34.3398 31.2599 34.4698 31.2599 34.5898 31.3899L35.2299 31.5199C35.3599 31.6499 35.6099 31.6499 35.8699 31.7799H36.1299C37.2799 32.1599 38.4398 32.1599 39.5898 31.7799H39.8499C40.1099 31.7799 40.2299 31.6499 40.4899 31.5199C40.6199 31.5199 40.8699 31.3899 40.9999 31.2599L41.3799 30.9999L41.5098 30.8699C43.0498 31.6399 43.9398 33.1799 43.9398 34.9699V39.3299C43.9398 40.0999 44.4498 40.6099 45.2198 40.6099C45.9898 40.6099 46.4999 40.0999 46.4999 39.3299V34.9699C46.3699 32.6699 45.2198 30.4899 43.1698 29.2099ZM37.7898 21.6499C39.9698 21.6499 41.7598 23.3199 41.7598 25.4899C41.7598 26.6399 41.2499 27.7999 40.3499 28.5699C39.3199 29.4699 37.7898 29.7199 36.5098 29.2099C36.2498 29.0799 36.1299 29.0799 35.8699 28.9499C35.6099 28.8199 35.4899 28.6899 35.2299 28.5699C34.3299 27.7999 33.8198 26.7799 33.8198 25.4899C33.8198 23.4399 35.6098 21.6499 37.7898 21.6499Z" fill="currentColor"/>
    <path d="M68.9196 38.82H51.8796C51.1096 38.82 50.5996 38.31 50.5996 37.54C50.5996 36.77 51.1096 36.26 51.8796 36.26H68.9196C69.6896 36.26 70.1996 35.75 70.1996 34.98V3.84C70.1996 3.07 69.6896 2.56 68.9196 2.56H6.64954C5.87954 2.56 5.36963 3.07 5.36963 3.84V34.98C5.36963 35.75 5.87954 36.26 6.64954 36.26H23.6896C24.4596 36.26 24.9696 36.77 24.9696 37.54C24.9696 38.31 24.4596 38.82 23.6896 38.82H6.64954C4.46954 38.82 2.80957 37.15 2.80957 34.98V3.84C2.80957 1.66 4.47954 0 6.64954 0H69.0496C71.2296 0 72.8895 1.67 72.8895 3.84V34.98C72.7695 37.15 71.0996 38.82 68.9196 38.82Z" fill="currentColor"/>
    <path d="M30.9999 9.72992H13.8298C13.0598 9.72992 12.5498 9.21992 12.5498 8.44992C12.5498 7.67992 13.0598 7.16992 13.8298 7.16992H30.8699C31.6399 7.16992 32.1498 7.67992 32.1498 8.44992C32.1498 9.21992 31.6399 9.72992 30.9999 9.72992Z" fill="currentColor"/>
    <path d="M26.6396 18.1899H13.9597C13.1897 18.1899 12.6797 17.6799 12.6797 16.9099C12.6797 16.1399 13.1897 15.6299 13.9597 15.6299H26.6396C27.4096 15.6299 27.9197 16.1399 27.9197 16.9099C27.9197 17.6699 27.2796 18.1899 26.6396 18.1899Z" fill="currentColor"/>
    <path d="M23.6891 26.5097H13.8191C13.0491 26.5097 12.5391 25.9997 12.5391 25.2297C12.5391 24.4597 13.0491 23.9497 13.8191 23.9497H23.6891C24.4591 23.9497 24.9691 24.4597 24.9691 25.2297C24.9791 25.9997 24.3291 26.5097 23.6891 26.5097Z" fill="currentColor"/>
    <path d="M61.7499 9.72992H44.5798C43.8098 9.72992 43.2998 9.21992 43.2998 8.44992C43.2998 7.67992 43.8098 7.16992 44.5798 7.16992H61.6199C62.3899 7.16992 62.8998 7.67992 62.8998 8.44992C62.8998 9.21992 62.3899 9.72992 61.7499 9.72992Z" fill="currentColor"/>
    <path d="M61.7491 18.1899H49.0691C48.2991 18.1899 47.7891 17.6799 47.7891 16.9099C47.7891 16.1399 48.2991 15.6299 49.0691 15.6299H61.7491C62.5191 15.6299 63.0291 16.1399 63.0291 16.9099C63.0291 17.6699 62.3891 18.1899 61.7491 18.1899Z" fill="currentColor"/>
    <path d="M61.7496 26.5097H51.8796C51.1096 26.5097 50.5996 25.9997 50.5996 25.2297C50.5996 24.4597 51.1096 23.9497 51.8796 23.9497H61.7496C62.5196 23.9497 63.0295 24.4597 63.0295 25.2297C63.0295 25.9997 62.3896 26.5097 61.7496 26.5097Z" fill="currentColor"/>
  </g>
</svg>
