<svg viewBox="0 0 62 62" fill="none" xmlns="http://www.w3.org/2000/svg">
  <g id="clock">
    <path d="M31.6502 32.62C31.6502 32.62 31.5802 32.62 31.6502 32.62C31.5102 32.69 31.3702 32.76 31.3002 32.76C31.2302 32.76 31.2302 32.76 31.1602 32.76C31.0202 32.76 30.8802 32.83 30.7302 32.83C30.5902 32.83 30.4502 32.83 30.3002 32.76C30.2302 32.76 30.2302 32.76 30.2302 32.76C30.1602 32.76 30.0202 32.69 29.9502 32.62C29.8802 32.62 29.8802 32.55 29.8802 32.55C29.7402 32.48 29.6702 32.41 29.6002 32.34C29.6002 32.34 29.6002 32.34 29.5302 32.34C29.4602 32.27 29.3202 32.13 29.2502 31.99C29.2502 31.99 29.2502 31.99 29.2502 31.92C29.2502 31.92 29.2502 31.85 29.1802 31.85C29.1802 31.78 29.1102 31.71 29.1102 31.71C29.1102 31.64 29.0402 31.57 29.0402 31.57C29.0402 31.5 29.0402 31.43 28.9702 31.43C28.9702 31.36 28.9702 31.29 28.9702 31.22V31.15V2.73996C28.9702 1.74996 29.7502 0.969971 30.7402 0.969971C36.0502 0.969971 41.2202 2.38998 45.7602 5.00998C50.2902 7.62998 54.1202 11.46 56.8102 16.06C57.3102 16.91 57.0202 17.97 56.1702 18.47C55.8902 18.61 55.6002 18.68 55.3202 18.68C54.6802 18.68 54.1202 18.4 53.7602 17.83C51.4202 13.79 48.0902 10.46 44.0602 8.12997C40.5202 6.07997 36.6202 4.86997 32.5802 4.65997V28.11L45.2602 20.81C46.1102 20.31 47.1702 20.6 47.6702 21.45C48.1702 22.3 47.8802 23.36 47.0302 23.86L31.6502 32.62Z" fill="currentColor"/>
    <path d="M15.5703 4.70993C15.9203 4.49993 16.2803 4.42993 16.6303 4.42993C17.4103 4.42993 18.1203 4.85993 18.4703 5.48993C18.7503 5.98993 18.8203 6.54993 18.6803 7.11993C18.5403 7.68993 18.1803 8.10993 17.6903 8.39993C17.3403 8.60993 16.9803 8.67993 16.6303 8.67993C15.8503 8.67993 15.1402 8.24993 14.7902 7.61993C14.5102 7.11993 14.4403 6.55993 14.5803 5.98993C14.7203 5.40993 15.0703 4.98993 15.5703 4.70993Z" fill="currentColor"/>
    <path d="M6.22025 19.02C5.87025 19.02 5.51025 18.95 5.16025 18.74C4.17025 18.17 3.81025 16.83 4.38025 15.84C4.73025 15.2 5.44025 14.78 6.22025 14.78C6.57025 14.78 6.93024 14.85 7.28024 15.06C8.27024 15.63 8.63024 16.97 8.06024 17.96C7.70024 18.59 6.99025 19.02 6.22025 19.02Z" fill="currentColor"/>
    <path d="M30.7303 61.52C31.9067 61.52 32.8603 60.5664 32.8603 59.39C32.8603 58.2136 31.9067 57.26 30.7303 57.26C29.5539 57.26 28.6003 58.2136 28.6003 59.39C28.6003 60.5664 29.5539 61.52 30.7303 61.52Z" fill="currentColor"/>
    <path d="M2.39026 33.1899C3.56663 33.1899 4.52026 32.2363 4.52026 31.0599C4.52026 29.8836 3.56663 28.9299 2.39026 28.9299C1.21389 28.9299 0.260254 29.8836 0.260254 31.0599C0.260254 32.2363 1.21389 33.1899 2.39026 33.1899Z" fill="currentColor"/>
    <path d="M59.0602 33.1899C60.2365 33.1899 61.1902 32.2363 61.1902 31.0599C61.1902 29.8836 60.2365 28.9299 59.0602 28.9299C57.8838 28.9299 56.9302 29.8836 56.9302 31.0599C56.9302 32.2363 57.8838 33.1899 59.0602 33.1899Z" fill="currentColor"/>
    <path d="M43.9003 53.7299C44.2503 53.5199 44.6103 53.45 44.9603 53.45C45.7403 53.45 46.4503 53.8799 46.8003 54.5099C47.0803 55.0099 47.1503 55.57 47.0103 56.14C46.8703 56.71 46.5103 57.13 46.0203 57.42C45.6703 57.63 45.3103 57.7 44.9603 57.7C44.1803 57.7 43.4703 57.27 43.1203 56.64C42.8403 56.14 42.7703 55.5799 42.9103 55.0099C43.0503 54.5099 43.4103 54.0099 43.9003 53.7299Z" fill="currentColor"/>
    <path d="M5.15019 43.38C5.50019 43.17 5.86019 43.1 6.21019 43.1C6.99019 43.1 7.70018 43.53 8.05018 44.16C8.62018 45.15 8.26019 46.5 7.27019 47.06C6.92019 47.27 6.56019 47.34 6.21019 47.34C5.43019 47.34 4.72019 46.91 4.37019 46.28C3.81019 45.3 4.16019 43.95 5.15019 43.38Z" fill="currentColor"/>
    <path d="M55.3103 43.1C55.6603 43.1 56.0203 43.17 56.3703 43.38C57.3603 43.95 57.7203 45.29 57.1503 46.28C56.8003 46.92 56.0903 47.34 55.3103 47.34C54.9603 47.34 54.6003 47.27 54.2503 47.06C53.2603 46.49 52.9003 45.15 53.4703 44.16C53.8203 43.53 54.5303 43.1 55.3103 43.1Z" fill="currentColor"/>
    <path d="M16.6303 53.4399C16.9803 53.4399 17.3403 53.5099 17.6903 53.7199C18.1903 53.9999 18.5403 54.4299 18.6803 54.9999C18.8203 55.5699 18.7503 56.1299 18.4703 56.6299C18.1203 57.2699 17.4103 57.6899 16.6303 57.6899C16.2803 57.6899 15.9203 57.6199 15.5703 57.4099C15.0703 57.1299 14.7203 56.6999 14.5803 56.1299C14.4403 55.5599 14.5102 54.9999 14.7902 54.4999C15.1402 53.8699 15.8503 53.4399 16.6303 53.4399Z" fill="currentColor"/>
  </g>
</svg>
