<svg viewBox="0 0 50 52" fill="none" xmlns="http://www.w3.org/2000/svg">
  <g id="couple_problems">
    <path d="M25.6929 43.0539L19.564 37.1951L19.3032 35.1086L16.3226 35.919V40.0732L22.9638 46.4164C23.8207 47.2361 25.1248 47.1429 25.8792 46.2115C26.6337 45.2894 26.5499 43.8736 25.6929 43.0539ZM26.8479 0.915283C26.019 0.915283 25.2831 1.37168 24.8453 2.07027L24.1095 3.80277L25.2179 5.4421L25.2738 5.52592L25.2459 5.60045L24.4448 7.4354L24.9571 5.59113L23.5506 4.05425L23.4388 3.93316L23.4947 3.72824L24.0536 1.60454C23.6251 1.17608 23.0476 0.915283 22.4236 0.915283C21.0823 0.915283 20.0018 2.08891 20.0018 3.54197C20.0018 6.39219 23.3643 9.26104 24.361 10.0528C24.5286 10.1832 24.7522 10.1832 24.9199 10.0528C25.9165 9.26104 29.279 6.39219 29.279 3.54197C29.2697 2.09823 28.1799 0.915283 26.8479 0.915283Z" stroke="currentColor" stroke-width="1.5" stroke-miterlimit="10"/>
    <path d="M13.1836 37.6515L10.1285 38.6016V48.8288C10.1285 49.9838 10.883 50.9153 11.8051 50.9153C12.7365 50.9153 13.4817 49.9838 13.4817 48.8288V37.5583L13.1836 37.6515Z" stroke="currentColor" stroke-width="1.5" stroke-miterlimit="10"/>
    <path d="M44.8714 3.67236C47.0883 3.67236 48.8859 5.47005 48.8859 7.68689C48.8859 9.90373 47.0883 11.7014 44.8714 11.7014C42.6546 11.7014 40.8569 9.90373 40.8569 7.68689C40.8569 5.47005 42.6639 3.67236 44.8714 3.67236ZM47.7403 48.2607L46.9765 36.5897C46.9579 36.3661 46.9113 36.1426 46.8368 35.9377L45.3837 31.979C43.6512 31.9697 42.8688 30.9451 41.984 30.0416L37.6714 25.6172C37.1963 25.1236 36.4977 24.5647 36.6654 23.4749L37.6527 17.0572L38.3234 23.2979C38.3699 23.7357 38.5655 24.1362 38.8636 24.4529L43.9959 29.7156C44.7503 30.4887 45.9799 30.498 46.753 29.7528C47.5261 28.9984 47.5354 27.7689 46.7902 26.9958L42.1237 22.2081L41.5182 16.6381L43.1483 20.8668L45.2906 23.0651L45.9333 15.2502C45.9985 14.4771 45.7563 13.7413 45.2999 13.1824C43.8468 13.2942 42.4869 12.8471 41.4158 11.9995C37.8111 12.1578 34.8025 14.9708 34.5044 18.6593L33.7034 28.8028L34.9422 36.8598L31.943 47.7949C31.5983 49.0431 32.3342 50.3285 33.5823 50.6731C34.8304 51.0177 36.1158 50.2819 36.4605 49.0338L39.5901 37.6143C39.674 37.2976 39.6926 36.9622 39.646 36.6455L38.5935 29.7715L39.6181 29.8553L42.3286 37.2417L43.0644 48.5774C43.1482 49.8162 44.1728 50.7663 45.393 50.7663C46.7622 50.7569 47.8334 49.6113 47.7403 48.2607ZM10.3893 7.16528C9.8677 5.08816 7.76263 3.83072 5.6855 4.35233C4.44668 4.65971 3.50592 5.53527 3.04951 6.62506C4.80994 6.77409 6.21642 8.22712 6.263 10.0341L6.30957 11.9715C6.73804 12.0088 7.15719 11.9715 7.56703 11.8691C9.64415 11.3475 10.9109 9.24241 10.3893 7.16528ZM22.0137 31.4201L14.0778 13.9462C13.6121 12.9216 12.5223 12.3069 11.4512 12.577C9.95153 12.9496 9.01076 13.1917 7.66016 13.527C7.11993 13.6668 6.67284 14.0021 6.37478 14.4585L6.3934 15.213L8.27492 14.5889L4.67954 16.8151L4.51189 10.0714C4.48394 9.10269 3.68289 8.32959 2.71419 8.35753C1.74549 8.38548 0.981705 9.18651 1.00033 10.1552L1.25183 19.9633C1.27046 20.5967 1.61508 21.1649 2.17395 21.463C2.7235 21.761 3.40346 21.7424 3.93438 21.4071L10.1378 17.5602L6.35615 21.3885L7.24102 35.1087C7.28759 35.77 7.8744 36.2264 8.46121 36.0867C11.2928 35.3788 18.586 33.5438 21.4176 32.8359C21.9858 32.7055 22.2839 32.0163 22.0137 31.4201Z" stroke="currentColor" stroke-width="1.5" stroke-miterlimit="10"/>
  </g>
</svg>
