<svg width="121" height="78" viewBox="0 0 121 78" fill="none" xmlns="http://www.w3.org/2000/svg">
<g>
<path d="M20.8 69.9H23.8C24.2 69.9 24.5 69.6 24.5 69.1C24.5 68.6 24.2 68.3 23.8 68.3H20.8C20.4 68.3 20.1 68.6 20.1 69.1C20.1 69.6 20.4 69.9 20.8 69.9Z" fill="currentColor" stroke="currentColor" stroke-miterlimit="10"/>
<path d="M20.8 60H23.8C24.2 60 24.5 59.7 24.5 59.2C24.5 58.7 24.2 58.4 23.8 58.4H20.8C20.4 58.4 20.1 58.7 20.1 59.2C20.1 59.7 20.4 60 20.8 60Z" fill="currentColor" stroke="currentColor" stroke-miterlimit="10"/>
<path d="M23.8 48.6H20.8C20.4 48.6 20.1 48.9 20.1 49.4C20.1 49.9 20.4 50.2 20.8 50.2H23.8C24.2 50.2 24.5 49.9 24.5 49.4C24.5 48.9 24.2 48.6 23.8 48.6Z" fill="currentColor" stroke="currentColor" stroke-miterlimit="10"/>
<path d="M95.5 32H90.2V34.9H87.5V29.2H82.2V45.7H73.9L72.3 34.2C71.8 30.9 69.2 28.3 66 28.3H58.6C55.5 28.3 52.9 30.7 52.3 34.2L50.7 45.7H39.2L38.7 43H47.2C48.2 43 48.8 42.2 48.8 41.2V26.2C48.8 25.1 48.1 24.4 47.2 24.4H23.8C22.8 24.4 22.2 25.2 22.2 26.2V41.2C22.2 42.3 22.9 43 23.8 43H32.3L31.8 45.6H26.3H3.5V55.6V57.1V65.6V67.1V77.1H27.5V67.1V65.6V57.1V55.6V54.1H49.5V54.3C49.5 57.3 51.7 59.7 54.4 59.7H61.8V68.6L53.5 72.4C53.2 72.6 53 73 53.1 73.3C53.2 73.6 53.5 73.8 53.6 73.8C53.7 73.8 53.7 73.8 53.9 73.8L61.7 70.3V73.3C61.7 73.8 62 74.1 62.4 74.1C62.8 74.1 63.1 73.8 63.1 73.3V70.3L70.9 73.8C71 73.8 71 73.8 71.2 73.8C71.5 73.8 71.7 73.6 71.7 73.3C71.8 73 71.7 72.5 71.3 72.4L63 68.6V59.7H70.5C73.2 59.7 75.4 57.3 75.4 54.3V54.1H94V76.5H95.4V54.1H98.8V45.8H95.5V32V32ZM94.3 33.5V45.8H91.7V33.5H94.3ZM90.2 36.2V45.6H87.6V36.2H90.2ZM83.7 30.6H86.3V45.7H83.7V30.6ZM23.8 41.7C23.7 41.7 23.4 41.5 23.4 41.2V26.2C23.4 26 23.5 25.7 23.8 25.7H47.3C47.4 25.7 47.7 25.9 47.7 26.2V41.2C47.7 41.4 47.6 41.7 47.3 41.7H38.6H32.6H23.8ZM33.6 43H37.4L37.9 45.6H32.9L33.6 43ZM26.3 75.4H4.7V66.9H26.1V75.4H26.3ZM26.3 65.6H4.7V57.1H26.1V65.6H26.3ZM26.3 55.6H4.7V47.1H26.1V54.1V55.6H26.3ZM27.5 47.1H50.5L49.7 52.5H27.5V47.1ZM70.3 58.1H54.3C52.4 58.1 50.8 56.3 50.8 54.2L53.7 34.5C54.1 31.8 56.2 29.8 58.6 29.8H66C68.5 29.8 70.5 31.8 70.9 34.5L73.8 54.2C73.9 56.3 72.4 58.1 70.3 58.1ZM97.6 47.1V52.5H75.1L74.3 47.1H82.5H86.5H87.7H90.4H91.6H95.6H97.6Z" fill="currentColor" stroke="currentColor" stroke-miterlimit="10"/>
<path d="M84.9 44.3C85.1209 44.3 85.3 44.0762 85.3 43.8C85.3 43.5239 85.1209 43.3 84.9 43.3C84.6791 43.3 84.5 43.5239 84.5 43.8C84.5 44.0762 84.6791 44.3 84.9 44.3Z" fill="currentColor" stroke="currentColor" stroke-miterlimit="10"/>
<path d="M89 44.3C89.2209 44.3 89.4 44.0762 89.4 43.8C89.4 43.5239 89.2209 43.3 89 43.3C88.7791 43.3 88.6 43.5239 88.6 43.8C88.6 44.0762 88.7791 44.3 89 44.3Z" fill="currentColor" stroke="currentColor" stroke-miterlimit="10"/>
<path d="M93 44.3C93.2209 44.3 93.4 44.0762 93.4 43.8C93.4 43.5239 93.2209 43.3 93 43.3C92.7791 43.3 92.6 43.5239 92.6 43.8C92.6 44.0762 92.7791 44.3 93 44.3Z" fill="currentColor" stroke="currentColor" stroke-miterlimit="10"/>
<path d="M20.4 11.5C20.4 5.4 15.9 0.5 10.4 0.5C4.90002 0.5 0.400024 5.5 0.400024 11.5C0.400024 17.5 4.90002 22.5 10.4 22.5C15.9 22.5 20.4 17.6 20.4 11.5ZM1.90002 11.5C1.90002 6.2 5.70002 2 10.5 2C15.3 2 19 6.2 19 11.5C19 16.8 15.2 21 10.4 21C5.60002 21 1.90002 16.8 1.90002 11.5Z" fill="currentColor" stroke="currentColor" stroke-miterlimit="10"/>
<path d="M12.4 18.5C12.5 18.8 12.8 19 12.9 19C13 19 13 19 13.2 19C13.5 18.8 13.7 18.4 13.6 18.1L11.4 12C11.4 11.8 11.5 11.7 11.5 11.5C11.5 10.9 11.1 10.4 10.5 10.4C9.9 10.4 9.5 10.9 9.5 11.5C9.5 12 9.8 12.3 10 12.4L12.4 18.5Z" fill="currentColor" stroke="currentColor" stroke-miterlimit="10"/>
<path d="M112.9 69.9V25.2C112.9 15.2 106.2 11.9 104.4 11.3C104.3 9.80002 103.7 8.30002 102.8 7.10002C101.6 5.60002 100.1 4.70002 98.3 4.70002C96.5 4.50002 94.8 5.20002 93.5 6.50002L88.5 11.2L97.2 22.2L102.2 17.4C103.4 16.2 104.2 14.5 104.4 12.7C106.4 13.6 111.6 16.6 111.6 25.1V69.9C109.3 69.9 104.5 70.5 104.5 76.1H105.9C105.9 72.8 107.9 71.3 112.4 71.3C116.9 71.3 118.9 72.8 118.9 76.1H120.3C120.1 70.5 115.2 69.9 112.9 69.9ZM103 12.3C102.9 13.8 102.3 15.3 101.2 16.4L97.2 20.2L90.2 11.3L94.2 7.40002C95.3 6.30002 96.7 5.90002 98 6.00002C99.4 6.20002 100.7 6.80002 101.7 8.00002C102.8 9.10002 103.2 10.6 103 12.3Z" fill="currentColor" stroke="currentColor" stroke-miterlimit="10"/>
</g>
</svg>
