<svg width="35" height="51" viewBox="0 0 35 51" fill="none" xmlns="http://www.w3.org/2000/svg">
  <g id="destructive_guy">
    <path d="M29.7798 30.8466L28.5001 17.9647C28.4486 17.458 27.6757 17.5353 27.7272 18.042L28.9811 30.6834L22.6775 34.591H12.9302L6.62668 30.6834L7.88052 18.042C7.93205 17.5267 7.15914 17.4494 7.10761 17.9647L5.82801 30.8466C5.81083 30.9926 5.88813 31.1386 6.00836 31.2159L12.6812 35.3467L22.9094 35.3553L29.5908 31.2159C29.7282 31.1386 29.7969 31.0012 29.7798 30.8466ZM33.3352 18.0162C33.3266 17.0458 32.5966 15.208 30.5355 15.208C30.0116 15.208 30.0202 15.9895 30.5355 15.9895C32.5021 15.9895 32.5622 18.0506 32.5622 18.0678L33.8332 32.2121C33.8247 32.8734 33.4897 33.4917 32.9401 33.861L24.1461 39.7867C24.0344 39.8554 23.9743 39.9842 23.9743 40.113V45.8841C23.9743 46.3994 24.7558 46.3994 24.7558 45.8841V40.3191L33.3781 34.5137C34.151 33.9984 34.6147 33.131 34.6147 32.2035C34.6062 32.1863 33.3352 18.0162 33.3352 18.0162ZM11.4789 39.7867L2.68482 33.861C2.13519 33.4917 1.80027 32.8734 1.79168 32.2121L3.06269 18.0678C3.28598 15.8864 5.08945 15.9895 5.08945 15.9895C5.60472 15.9895 5.60472 15.208 5.08945 15.208C5.08945 15.208 2.44436 15.1822 2.28119 18.0162L1.01018 32.1606C1.01018 32.1692 0.80407 33.4316 2.24684 34.5051L10.8691 40.3105V49.9032C10.8691 50.4271 11.6506 50.4271 11.6506 49.9032V40.1044C11.6506 39.9756 11.5905 39.8554 11.4789 39.7867ZM15.3005 8.74128L16.7862 8.10578L16.3568 12.4427C16.3225 12.7862 16.8549 13.1211 17.0954 12.6574L21.5869 3.87192C21.8273 3.39959 21.1317 3.04748 20.8912 3.51981L17.3358 10.4675L17.6278 7.52179C17.6622 7.16969 17.3273 7.0237 17.0868 7.12676L15.6182 7.75367L16.2881 2.19728L18.2891 1.33848L17.7137 4.97977C17.6364 5.47787 18.4093 5.5981 18.4866 5.1L19.1737 0.754499C19.2166 0.496861 18.9675 0.187703 18.6326 0.333698L15.7728 1.56177C15.644 1.61329 15.5581 1.73353 15.541 1.87093L14.7681 8.32048C14.7165 8.70693 15.0944 8.83574 15.3005 8.74128ZM7.72595 13.645L15.3263 19.9314C15.7299 20.2663 16.082 19.7424 15.9188 19.4418L13.8062 15.6288H15.4207C15.644 15.6288 15.9446 15.3626 15.7557 15.0448L12.4922 9.42832C12.4235 9.30808 12.2947 9.2308 12.1573 9.2308L9.04848 9.23938C8.6792 9.23938 8.57614 9.61725 8.72214 9.84053L11.0667 13.5591C11.3329 13.9885 11.9941 13.5677 11.7279 13.1383L9.76128 10.0209L11.9426 10.0123L14.7509 14.8473H13.1535C12.8873 14.8473 12.6468 15.1221 12.81 15.4227L14.2442 18.0162L8.23263 13.0438C7.81182 12.7003 7.32231 13.3101 7.72595 13.645ZM20.2987 13.6622H21.9132L19.8092 17.4838C19.646 17.7844 19.9981 18.3082 20.4017 17.9733L27.9849 11.6698C28.3885 11.3348 27.8904 10.7337 27.4868 11.0686L21.4838 16.0582L22.9094 13.4646C23.0812 13.1555 22.8321 12.8893 22.5659 12.8893H20.9685L23.7682 8.04566H25.9495L23.9915 11.1717C23.7253 11.6011 24.3865 12.0133 24.6528 11.5839L26.9887 7.8653C27.1261 7.64202 27.023 7.26415 26.6623 7.26415H23.5535C23.4161 7.26415 23.2873 7.34145 23.2186 7.46168L19.9638 13.0868C19.7748 13.3959 20.0754 13.6622 20.2987 13.6622ZM18.0143 33.6892C17.0782 33.6892 14.7079 33.4402 12.9818 31.13C12.6812 30.7264 12.0629 31.1987 12.3548 31.5938C14.2871 34.1873 16.958 34.4707 18.0143 34.4707C21.8789 34.4707 25.0134 31.3275 25.0134 27.463C25.0134 23.5984 21.8703 20.4552 18.0143 20.4552C14.1497 20.4552 11.0151 23.5984 11.0151 27.463C11.0151 27.9611 11.7966 27.9611 11.7966 27.463C11.7966 24.0278 14.5877 21.2367 18.0229 21.2367C21.458 21.2367 24.2491 24.0278 24.2491 27.463C24.2405 30.8981 21.4409 33.6892 18.0143 33.6892ZM12.08 29.2578C12.123 29.3781 12.1659 29.5069 12.2088 29.6271C12.4149 30.1424 11.6678 30.3829 11.4789 29.9105C11.4273 29.7731 11.3758 29.6357 11.3329 29.4897C11.1869 29.0088 11.9254 28.7769 12.08 29.2578ZM7.56277 32.8991L5.99118 35.424C5.71637 35.862 6.37764 36.2828 6.65246 35.8362L8.22404 33.3114C8.49885 32.8734 7.83759 32.4612 7.56277 32.8991ZM27.4868 33.3114L29.0584 35.8362C29.3332 36.2828 29.9945 35.862 29.7196 35.424L28.148 32.8991C27.8732 32.4612 27.212 32.8734 27.4868 33.3114Z" fill="currentColor" stroke="currentColor" stroke-width="0.5"/>
  </g>
</svg>
