<svg viewBox="0 0 72 86" fill="none" xmlns="http://www.w3.org/2000/svg">
  <g id="develop_thoughts">
    <path d="M34.7697 52.68L31.9597 63.92C31.8681 64.2793 31.9217 64.6602 32.1089 64.9802C32.296 65.3003 32.6017 65.5337 32.9597 65.63C33.0762 65.6398 33.1933 65.6398 33.3097 65.63C33.4229 65.6397 33.5366 65.6397 33.6497 65.63L39.2697 64.22C39.6318 64.1325 39.9442 63.9047 40.1383 63.5869C40.3324 63.269 40.3923 62.887 40.3047 62.525C40.2172 62.163 39.9895 61.8505 39.6716 61.6564C39.3537 61.4623 38.9718 61.4025 38.6097 61.49V61.49L35.2597 62.33L37.4997 53.33C37.5457 53.1514 37.556 52.9655 37.5302 52.7829C37.5043 52.6003 37.4427 52.4246 37.3489 52.2658C37.2551 52.107 37.131 51.9683 36.9835 51.8575C36.8361 51.7467 36.6683 51.666 36.4897 51.62C36.3111 51.574 36.1252 51.5637 35.9427 51.5896C35.7601 51.6155 35.5844 51.6771 35.4256 51.7709C35.2668 51.8646 35.128 51.9888 35.0172 52.1362C34.9064 52.2836 34.8257 52.4514 34.7797 52.63L34.7697 52.68Z" fill="currentColor" stroke="currentColor" stroke-miterlimit="10"/>
    <path d="M29.4401 48.85C29.0821 48.7586 28.7026 48.8125 28.3841 48.9998C28.0657 49.1871 27.8342 49.4927 27.7401 49.85C27.7401 49.9 26.5401 54.41 23.4801 54.41C20.4201 54.41 19.2301 49.9 19.2201 49.85C19.1129 49.5056 18.8778 49.2154 18.5631 49.0391C18.2484 48.8627 17.8781 48.8137 17.5284 48.9021C17.1787 48.9905 16.8761 49.2096 16.683 49.5142C16.4899 49.8189 16.4208 50.186 16.4901 50.54V50.54C16.5601 50.81 18.2201 57.22 23.4901 57.22C28.7601 57.22 30.4001 50.81 30.4901 50.54C30.5331 50.36 30.54 50.1733 30.5103 49.9907C30.4807 49.8081 30.4152 49.6332 30.3176 49.476C30.2199 49.3189 30.0921 49.1826 29.9415 49.0752C29.7909 48.9677 29.6205 48.8912 29.4401 48.85V48.85Z" fill="currentColor" stroke="currentColor" stroke-miterlimit="10"/>
    <path d="M48.7701 57.23C54.0201 57.23 55.6801 50.82 55.7701 50.55C55.8154 50.3714 55.8251 50.1856 55.7986 50.0033C55.7721 49.8209 55.7099 49.6456 55.6157 49.4873C55.5214 49.3289 55.3969 49.1907 55.2493 49.0805C55.1016 48.9703 54.9337 48.8903 54.7551 48.845C54.5765 48.7997 54.3907 48.79 54.2084 48.8165C54.026 48.843 53.8507 48.9051 53.6924 48.9993C53.534 49.0936 53.3958 49.2181 53.2856 49.3658C53.1754 49.5135 53.0954 49.6814 53.0501 49.86C53.0501 49.91 51.8501 54.42 48.7901 54.42C45.7301 54.42 44.5401 49.91 44.5301 49.86C44.4933 49.6719 44.4185 49.4934 44.3104 49.3352C44.2023 49.177 44.0631 49.0425 43.9012 48.9399C43.7394 48.8373 43.5584 48.7688 43.3692 48.7385C43.18 48.7083 42.9866 48.7169 42.8008 48.7638C42.6151 48.8108 42.4408 48.8951 42.2887 49.0116C42.1366 49.1282 42.0099 49.2745 41.9162 49.4416C41.8226 49.6088 41.764 49.7933 41.744 49.9838C41.724 50.1744 41.7431 50.367 41.8001 50.55C41.8601 50.82 43.5201 57.23 48.7701 57.23Z" fill="currentColor" stroke="currentColor" stroke-miterlimit="10"/>
    <path d="M34.7201 17.8801C35.4988 17.8801 36.1301 17.2488 36.1301 16.4701C36.1301 15.6913 35.4988 15.0601 34.7201 15.0601C33.9413 15.0601 33.3101 15.6913 33.3101 16.4701C33.3101 17.2488 33.9413 17.8801 34.7201 17.8801Z" fill="currentColor" stroke="currentColor" stroke-miterlimit="10"/>
    <path d="M40.3402 17.8801C41.1189 17.8801 41.7502 17.2488 41.7502 16.4701C41.7502 15.6913 41.1189 15.0601 40.3402 15.0601C39.5615 15.0601 38.9302 15.6913 38.9302 16.4701C38.9302 17.2488 39.5615 17.8801 40.3402 17.8801Z" fill="currentColor" stroke="currentColor" stroke-miterlimit="10"/>
    <path d="M29.1004 17.8801C29.8792 17.8801 30.5104 17.2488 30.5104 16.4701C30.5104 15.6913 29.8792 15.0601 29.1004 15.0601C28.3217 15.0601 27.6904 15.6913 27.6904 16.4701C27.6904 17.2488 28.3217 17.8801 29.1004 17.8801Z" fill="currentColor" stroke="currentColor" stroke-miterlimit="10"/>
    <path d="M65.64 41.94V33.34C65.64 32.34 65.64 29.53 54.4 27.65V16.46C54.4 7.93999 45.57 1 34.72 1C23.87 1 15.04 7.93999 15.04 16.46C15.0987 18.5582 15.6311 20.6159 16.5974 22.4792C17.5637 24.3425 18.9389 25.9632 20.62 27.22C13.51 28.13 6.62001 29.9 6.62001 33.33V41.93C3.42001 42.72 1 46.12 1 50.2C1 54.28 3.49001 57.76 6.76001 58.49C7.41043 65.8346 10.7877 72.6695 16.2266 77.648C21.6655 82.6265 28.7716 85.3877 36.145 85.3877C43.5184 85.3877 50.6245 82.6265 56.0634 77.648C61.5023 72.6695 64.8796 65.8346 65.53 58.49C68.79 57.76 71.28 54.33 71.28 50.2C71.28 46.07 68.85 42.73 65.64 41.94ZM6.64 55.48C5.77583 54.8979 5.06791 54.1125 4.57846 53.1927C4.08901 52.2729 3.83302 51.2469 3.83302 50.205C3.83302 49.1631 4.08901 48.1371 4.57846 47.2173C5.06791 46.2975 5.77583 45.5121 6.64 44.93V55.48ZM17.88 16.48C17.88 9.47998 25.45 3.82999 34.75 3.82999C44.05 3.82999 51.59 9.45999 51.59 16.46V30.46L46.84 26.67C46.6319 26.5018 46.3797 26.3972 46.1136 26.3688C45.8475 26.3404 45.5789 26.3894 45.34 26.51C42.025 28.0734 38.4317 28.9607 34.77 29.12C25.42 29.12 17.85 23.46 17.85 16.46L17.88 16.48ZM62.88 55.84C62.7447 62.8331 59.8716 69.4941 54.8782 74.3918C49.8848 79.2896 43.1694 82.0332 36.175 82.0332C29.1806 82.0332 22.4652 79.2896 17.4718 74.3918C12.4784 69.4941 9.60533 62.8331 9.47 55.84V36.66C16.65 40.31 35.21 40.37 36.18 40.37C37.15 40.37 55.7 40.31 62.88 36.66V55.84ZM36.18 37.57C19.59 37.57 10.18 34.84 9.47 33.43C9.85 32.61 13.98 30.65 24.47 29.68C27.6887 31.2001 31.2106 31.9694 34.77 31.93C38.5681 31.7909 42.3034 30.9182 45.77 29.36L52.12 34.44C52.3275 34.6027 52.5763 34.7039 52.8384 34.7322C53.1005 34.7606 53.3653 34.7149 53.6027 34.6003C53.8401 34.4858 54.0407 34.307 54.1816 34.0842C54.3226 33.8614 54.3982 33.6036 54.4 33.34V30.46C60.72 31.57 62.67 32.93 62.84 33.23C62.22 34.81 52.77 37.56 36.13 37.56L36.18 37.57ZM65.64 55.46V44.93C66.5084 45.509 67.2204 46.2934 67.7128 47.2136C68.2053 48.1338 68.4629 49.1613 68.4629 50.205C68.4629 51.2487 68.2053 52.2762 67.7128 53.1964C67.2204 54.1166 66.5084 54.901 65.64 55.48V55.46Z" fill="currentColor" stroke="currentColor" stroke-miterlimit="10"/>
  </g>
</svg>
