<svg viewBox="0 0 90 71" fill="none" xmlns="http://www.w3.org/2000/svg">
  <g id="distance_training">
    <path d="M83.78 0H5.95C2.7 0 0 2.7 0 5.95V55.68C0 58.92 2.7 61.63 5.95 61.63H37.73C37.41 64.12 36.43 67.04 32.97 67.04H28.65C27.79 67.04 27.03 67.8 27.03 68.66C27.03 69.52 27.79 70.28 28.65 70.28H61.08C61.94 70.28 62.7 69.52 62.7 68.66C62.7 67.8 61.94 67.04 61.08 67.04H56.76C53.3 67.04 52.22 64.12 52 61.63H83.78C87.02 61.63 89.73 58.93 89.73 55.68V5.95C89.73 2.7 87.02 0 83.78 0ZM5.95 3.24H83.79C85.3 3.24 86.49 4.43 86.49 5.94V50.8H3.24V5.95C3.24 4.43 4.43 3.24 5.95 3.24ZM50.48 67.02H39.24C40.21 65.61 40.75 63.78 40.97 61.61H48.75C48.97 63.78 49.51 65.62 50.48 67.02ZM83.78 58.38H5.95C4.44 58.38 3.25 57.19 3.25 55.68V54.06H86.49V55.68C86.48 57.19 85.29 58.38 83.78 58.38Z" fill="currentColor"/>
    <path d="M15.13 37.3H36.75C37.61 37.3 38.37 36.54 38.37 35.68V18.38C38.37 17.52 37.61 16.76 36.75 16.76H15.13C14.27 16.76 13.51 17.52 13.51 18.38V35.68C13.51 36.54 14.27 37.3 15.13 37.3ZM16.76 20H35.14V34.05H16.76V20Z" fill="currentColor"/>
    <path d="M44.86 20H74.59C75.45 20 76.21 19.24 76.21 18.38C76.21 17.52 75.45 16.76 74.59 16.76H44.86C44 16.76 43.24 17.52 43.24 18.38C43.24 19.24 44 20 44.86 20Z" fill="currentColor"/>
    <path d="M44.86 28.65H63.78C64.64 28.65 65.4 27.89 65.4 27.03C65.4 26.17 64.64 25.41 63.78 25.41H44.86C44 25.41 43.24 26.17 43.24 27.03C43.24 27.89 44 28.65 44.86 28.65Z" fill="currentColor"/>
    <path d="M44.86 37.3H69.18C70.04 37.3 70.8 36.54 70.8 35.68C70.8 34.82 70.04 34.06 69.18 34.06H44.86C44 34.06 43.24 34.82 43.24 35.68C43.24 36.54 44 37.3 44.86 37.3Z" fill="currentColor"/>
  </g>
</svg>
