<svg viewBox="0 0 88 88" fill="none" xmlns="http://www.w3.org/2000/svg">
  <g id="dream_drugs">
    <path d="M87.1131 38.6784C87.1231 32.4084 83.1631 26.8184 77.2531 24.7384C77.5431 23.5784 77.6931 22.3785 77.6931 21.1885C77.7031 13.0285 71.1031 6.39847 62.9431 6.38847C60.7231 6.38847 58.5331 6.87845 56.5231 7.83845C52.1331 0.958453 42.9931 -1.07154 36.1131 3.31846C34.2931 4.47846 32.7531 6.01845 31.5931 7.83845C24.2431 4.30845 15.4131 7.39847 11.8831 14.7585C10.3931 17.8685 10.0331 21.3984 10.8631 24.7384C3.16311 27.4584 -0.876901 35.9085 1.8531 43.6085C3.2931 47.6785 6.43315 50.9185 10.4631 52.4685C10.4331 52.8185 10.4231 53.1385 10.4231 53.4685C10.4231 61.6385 17.0431 68.2685 25.2231 68.2685C27.2031 68.2685 29.1531 67.8685 30.9831 67.1085C34.8031 74.3385 43.7531 77.0985 50.9831 73.2785C53.6131 71.8885 55.7631 69.7385 57.1531 67.1085C64.6831 70.2885 73.3631 66.7485 76.5431 59.2185C77.3131 57.3985 77.7031 55.4385 77.7031 53.4685C77.7031 53.1485 77.6931 52.8185 77.6631 52.4685C83.3331 50.2385 87.0831 44.7784 87.1131 38.6784ZM75.8131 50.2685C75.1731 50.4585 74.7731 51.0885 74.8731 51.7485C75.8331 58.3585 71.2531 64.4985 64.6431 65.4585C62.0731 65.8285 59.4431 65.3685 57.1531 64.1285C56.5031 63.7785 55.6831 64.0185 55.3331 64.6685C55.3131 64.7085 55.2931 64.7485 55.2731 64.7985C52.7331 70.9785 45.6531 73.9285 39.4731 71.3885C36.4831 70.1585 34.1131 67.7885 32.8831 64.7985C32.6031 64.1085 31.8131 63.7785 31.1231 64.0685C31.0831 64.0885 31.0331 64.1085 30.9931 64.1285C25.1731 67.3485 17.8431 65.2385 14.6231 59.4185C13.3331 57.0785 12.8531 54.3784 13.2631 51.7384C13.3631 51.0784 12.9531 50.4485 12.3231 50.2585C5.92313 48.3285 2.29309 41.5885 4.22309 35.1885C5.45309 31.1085 8.74313 27.9685 12.8831 26.9385C13.6031 26.7585 14.0431 26.0285 13.8631 25.3085C13.8531 25.2685 13.8431 25.2285 13.8331 25.1885C11.6131 18.8985 14.9131 11.9885 21.2031 9.76848C24.5931 8.56848 28.3531 8.94848 31.4331 10.7985C32.0731 11.1785 32.8931 10.9685 33.2731 10.3285C33.2831 10.3085 33.3031 10.2785 33.3131 10.2585C36.3631 4.31847 43.6532 1.97846 49.5932 5.02846C51.8432 6.17846 53.6631 8.00847 54.8231 10.2585C55.1631 10.9185 55.9731 11.1785 56.6331 10.8385C56.6531 10.8285 56.6831 10.8085 56.7031 10.7985C62.4231 7.36848 69.8431 9.21846 73.2831 14.9385C75.1431 18.0285 75.5131 21.7885 74.3131 25.1985C74.0631 25.8985 74.4331 26.6685 75.1431 26.9085C75.1831 26.9185 75.2231 26.9285 75.2631 26.9385C81.7431 28.5485 85.6931 35.1185 84.0831 41.5985C83.0331 45.7385 79.9031 49.0385 75.8131 50.2685Z" fill="currentColor" stroke="currentColor" stroke-width="0.5" stroke-miterlimit="10"/>
    <path d="M6.39319 76.3384C3.42319 76.3384 1.01318 78.7484 1.01318 81.7184C1.01318 84.6884 3.42319 87.0984 6.39319 87.0984C9.36319 87.0984 11.7732 84.6884 11.7732 81.7184C11.7732 78.7484 9.36319 76.3384 6.39319 76.3384ZM6.39319 84.4184C4.90319 84.4184 3.70319 83.2184 3.70319 81.7284C3.70319 80.2384 4.90319 79.0384 6.39319 79.0384C7.88319 79.0384 9.08319 80.2384 9.08319 81.7284C9.08319 83.2084 7.88319 84.4184 6.39319 84.4184Z" fill="currentColor" stroke="currentColor" stroke-width="0.5" stroke-miterlimit="10"/>
    <path d="M19.8431 70.9585C16.8731 70.9585 14.4631 73.3685 14.4631 76.3385C14.4631 79.3085 16.8731 81.7185 19.8431 81.7185C22.8131 81.7185 25.2231 79.3085 25.2231 76.3385C25.2231 73.3685 22.8131 70.9585 19.8431 70.9585ZM19.8431 79.0385C18.3531 79.0385 17.1531 77.8385 17.1531 76.3485C17.1531 74.8585 18.3531 73.6585 19.8431 73.6585C21.3331 73.6585 22.5331 74.8585 22.5331 76.3485C22.5331 77.8385 21.3331 79.0385 19.8431 79.0385Z" fill="currentColor" stroke="currentColor" stroke-width="0.5" stroke-miterlimit="10"/>
    <path d="M68.9331 50.3885C69.4131 48.9385 68.6331 47.3785 67.1931 46.8885C66.9131 46.7985 66.6131 46.7484 66.3131 46.7484H42.7231V26.5685C42.7231 25.8285 42.1231 25.2184 41.3731 25.2184H40.0231V19.8384C40.0231 19.0984 39.4231 18.4884 38.6731 18.4884H35.9831V17.1385C35.9831 16.3985 35.3831 15.7885 34.6331 15.7885H30.5931C29.8531 15.7885 29.2431 16.3885 29.2431 17.1385V19.8285H22.5131C21.7731 19.8285 21.1631 20.4284 21.1631 21.1784V25.2184H19.8131C19.0731 25.2184 18.4631 25.8185 18.4631 26.5685V50.7885H21.1531V38.6784H39.9831V46.7484H26.5331C25.7931 46.7484 25.1831 47.3484 25.1831 48.0984V56.1685C25.1831 56.9085 25.7831 57.5185 26.5331 57.5185H66.0131C67.0631 57.5185 68.0231 56.9284 68.4931 55.9884L68.9831 55.0085C69.5131 53.9185 69.3031 52.5984 68.4431 51.7384L68.9331 50.3885ZM37.3331 21.1884V25.2285C36.7531 25.2285 36.2431 25.5984 36.0531 26.1484L35.9831 26.3585V21.1985H37.3331V21.1884ZM31.9531 29.2585V26.5685H33.3031V29.2585H31.9531ZM31.9531 18.4884H33.3031V23.8784H31.9531V18.4884ZM29.2631 25.2184V29.2585H27.9131V22.5284H29.2631V25.2184ZM23.8831 22.5284H25.2331V26.3484L25.1631 26.1385C24.9831 25.5885 24.4631 25.2184 23.8831 25.2184V22.5284ZM21.1931 35.9785V27.9084H22.9131L23.9531 31.0284C24.1331 31.5784 24.6531 31.9485 25.2331 31.9485H35.9931C36.5731 31.9485 37.0831 31.5784 37.2731 31.0284L38.3131 27.9084H40.0331V35.9785H21.1931ZM27.9131 49.4384H35.9831V54.8185H27.9131V49.4384ZM38.6831 49.4384H60.2131V54.8185H38.6831V49.4384ZM66.0531 54.8185H62.8931V49.4684L66.3731 49.5385L65.9231 50.8684C65.5931 51.8884 65.8631 53.0185 66.6031 53.7885L66.0531 54.8185Z" fill="currentColor" stroke="currentColor" stroke-width="0.5" stroke-miterlimit="10"/>
    <path d="M66.3532 33.5985C65.1032 32.6485 63.6132 32.0885 62.0432 31.9885C60.8432 31.9885 59.6732 31.6785 58.6332 31.0785C58.1932 30.7885 57.8032 30.4285 57.4632 30.0285C57.2932 29.8285 57.1432 29.6085 57.0032 29.3885L56.9132 29.2385C56.8632 29.1685 56.7932 29.0585 56.7332 28.9685C56.5832 28.2385 55.8632 27.7785 55.1432 27.9285C54.7232 28.0185 54.3632 28.3085 54.1932 28.6985C53.1032 31.1285 53.2932 33.9385 54.6832 36.2085C55.1232 36.9185 55.6732 37.5585 56.3032 38.1085C57.2132 38.8785 58.2732 39.4485 59.4232 39.7585C60.0532 39.9185 60.6932 40.0285 61.3432 40.0985H61.3732C61.8532 40.1485 62.3232 40.2285 62.7932 40.3285C63.5632 40.5085 64.2832 40.8485 64.8932 41.3385C65.5532 41.9285 66.0932 42.6285 66.4932 43.4185C66.7332 43.8285 67.1632 44.0885 67.6332 44.0885H67.6532C68.1232 44.0885 68.5532 43.8485 68.7932 43.4485C69.3332 42.4285 69.6032 41.2785 69.5732 40.1185C69.5832 37.5585 68.3932 35.1385 66.3532 33.5985ZM66.5832 39.2285C65.6532 38.4885 64.5832 37.9685 63.4332 37.6985C62.8632 37.5685 62.2832 37.4785 61.7032 37.4085L61.5032 38.7385L61.6732 37.4085C61.1532 37.3585 60.6432 37.2685 60.1332 37.1385C59.3632 36.9285 58.6532 36.5585 58.0432 36.0385C57.6232 35.6785 57.2532 35.2585 56.9632 34.7785C56.5532 34.1185 56.2932 33.3685 56.2032 32.5885C56.4932 32.8585 56.8132 33.0985 57.1432 33.3185C58.5632 34.1685 60.1932 34.6385 61.8532 34.6685C64.4532 34.8485 66.5432 36.8585 66.8332 39.4485C66.7632 39.3785 66.6732 39.2985 66.5832 39.2285Z" fill="currentColor" stroke="currentColor" stroke-width="0.5" stroke-miterlimit="10"/>
  </g>
</svg>
