<svg viewBox="0 0 81 82" fill="none" xmlns="http://www.w3.org/2000/svg">
<g>
<path d="M49.5699 46.96C52.4499 46.96 54.7899 44.62 54.7899 41.74H52.1799C52.1799 43.18 51.0099 44.35 49.5699 44.35V46.96Z" fill="currentColor"/>
<path d="M26.09 41.74H28.7C28.7 40.3 29.87 39.13 31.31 39.13V36.52C28.43 36.53 26.09 38.87 26.09 41.74Z" fill="currentColor"/>
<path d="M24.79 14.35V16.96C26.23 16.96 27.4 18.13 27.4 19.57H30C30 16.69 27.66 14.35 24.79 14.35Z" fill="currentColor"/>
<path d="M46.96 23.48H49.57C49.57 20.6 47.23 18.26 44.35 18.26V20.87C45.79 20.87 46.96 22.04 46.96 23.48Z" fill="currentColor"/>
<path d="M44.35 37.83V35.22C42.91 35.22 41.74 34.05 41.74 32.61H39.13C39.14 35.49 41.48 37.83 44.35 37.83Z" fill="currentColor"/>
<path d="M77.3 70.87L70.44 77.73L63.58 70.87C62.96 70.25 62.61 69.41 62.61 68.53C62.61 66.71 64.09 65.22 65.92 65.22C66.8 65.22 67.63 65.56 68.26 66.19L70.44 68.37L72.62 66.19C73.25 65.57 74.08 65.22 74.96 65.22C76.78 65.22 78.27 66.71 78.27 68.53C78.27 69.42 77.93 70.25 77.3 70.87ZM44.96 65.23C46.78 65.23 48.27 66.72 48.27 68.54C48.27 69.42 47.92 70.25 47.3 70.88L40.44 77.74L33.58 70.88C32.96 70.26 32.61 69.42 32.61 68.54C32.61 66.72 34.09 65.23 35.92 65.23C36.8 65.23 37.63 65.57 38.26 66.2L40.44 68.38L42.62 66.2C43.24 65.57 44.08 65.23 44.96 65.23ZM14.95 65.23C16.77 65.23 18.26 66.72 18.26 68.54C18.26 69.42 17.92 70.25 17.29 70.88L10.43 77.74L3.57 70.88C2.94 70.26 2.6 69.42 2.6 68.54C2.6 66.72 4.09 65.23 5.91 65.23C6.8 65.23 7.63 65.57 8.25 66.2L10.43 68.38L12.61 66.2C13.24 65.57 14.07 65.23 14.95 65.23ZM31.31 49.57C26.99 49.57 23.48 46.06 23.48 41.74C23.48 38.73 25.16 36.04 27.85 34.71L26.7 32.37C24.02 33.69 22.1 36.02 21.29 38.77C19.41 37.31 18.25 35.04 18.25 32.61C18.25 28.29 21.76 24.78 26.08 24.78C30.4 24.78 33.91 28.29 33.91 32.61H36.52C36.52 26.85 31.84 22.17 26.08 22.17C23.38 22.17 20.92 23.21 19.07 24.9C17.72 23.46 16.95 21.57 16.95 19.56C16.95 15.24 20.46 11.73 24.78 11.73C26.88 11.73 28.85 12.55 30.33 14.04L32.18 12.2C30.21 10.21 27.58 9.12 24.78 9.12C24.37 9.12 23.97 9.15 23.58 9.19C24.17 5.46 27.41 2.59 31.3 2.59C35.62 2.59 39.13 6.1 39.13 10.42H41.74C41.74 6.1 45.25 2.59 49.57 2.59C53.47 2.59 56.7 5.45 57.29 9.19C56.9 9.14 56.5 9.12 56.09 9.12C53.29 9.12 50.66 10.21 48.69 12.2L50.54 14.04C52.02 12.55 53.99 11.73 56.09 11.73C60.41 11.73 63.92 15.24 63.92 19.56C63.92 21.57 63.15 23.46 61.8 24.9C59.94 23.21 57.49 22.17 54.79 22.17V24.78C59.11 24.78 62.62 28.29 62.62 32.61C62.62 35.04 61.46 37.31 59.58 38.77C58.77 36.01 56.85 33.69 54.18 32.37L53.03 34.71C55.73 36.04 57.41 38.73 57.41 41.74C57.41 46.06 53.9 49.57 49.58 49.57C45.26 49.57 41.75 46.06 41.75 41.74H39.14C39.14 46.06 35.63 49.57 31.31 49.57ZM3.91 28.7C3.19 28.7 2.61 28.12 2.61 27.4C2.61 26.68 3.2 26.1 3.91 26.1C4.62 26.1 5.21 26.69 5.21 27.4C5.22 28.12 4.63 28.7 3.91 28.7ZM76.97 26.09C77.69 26.09 78.27 26.68 78.27 27.39C78.27 28.11 77.68 28.69 76.97 28.69C76.25 28.69 75.67 28.11 75.67 27.39C75.66 26.68 76.25 26.09 76.97 26.09ZM6.52 39.14C5.8 39.14 5.22 38.56 5.22 37.84C5.22 37.12 5.81 36.54 6.52 36.54C7.24 36.54 7.83 37.12 7.83 37.84C7.83 38.55 7.24 39.14 6.52 39.14ZM6.52 18.26C5.8 18.26 5.22 17.67 5.22 16.95C5.22 16.23 5.81 15.65 6.52 15.65C7.24 15.65 7.83 16.24 7.83 16.95C7.83 17.68 7.24 18.26 6.52 18.26ZM74.36 15.65C75.08 15.65 75.66 16.24 75.66 16.95C75.66 17.67 75.07 18.26 74.36 18.26C73.64 18.26 73.06 17.67 73.06 16.95C73.05 16.24 73.64 15.65 74.36 15.65ZM74.36 36.53C75.08 36.53 75.66 37.11 75.66 37.83C75.66 38.55 75.07 39.13 74.36 39.13C73.64 39.13 73.06 38.55 73.06 37.83C73.05 37.11 73.64 36.53 74.36 36.53ZM74.96 62.62C73.8 62.62 72.7 62.96 71.75 63.58V61.32C71.75 57.72 68.82 54.8 65.23 54.8H41.74V48.62C43.65 50.8 46.45 52.19 49.57 52.19C55.32 52.19 60.01 47.51 60.01 41.75C60.01 41.71 60 41.67 60 41.63C61.13 40.98 62.11 40.13 62.91 39.14H70.69C71.23 40.65 72.66 41.75 74.36 41.75C76.52 41.75 78.27 39.99 78.27 37.84C78.27 35.68 76.51 33.93 74.36 33.93C72.66 33.93 71.23 35.02 70.69 36.54H64.44C64.94 35.31 65.23 33.99 65.23 32.63C65.23 31.25 64.95 29.93 64.46 28.72H73.3C73.84 30.23 75.27 31.33 76.97 31.33C79.13 31.33 80.88 29.57 80.88 27.42C80.88 25.26 79.12 23.51 76.97 23.51C75.27 23.51 73.84 24.6 73.3 26.12H64.25C65.72 24.29 66.54 22.01 66.54 19.6C66.54 19.16 66.5 18.72 66.45 18.3H70.69C71.23 19.81 72.67 20.91 74.36 20.91C76.52 20.91 78.27 19.15 78.27 17C78.27 14.84 76.51 13.09 74.36 13.09C72.66 13.09 71.23 14.18 70.69 15.7H65.77C64.71 13.08 62.61 10.99 59.99 9.94C59.69 4.39 55.14 0 49.57 0C45.65 0 42.22 2.18 40.44 5.39C38.66 2.18 35.23 0 31.31 0C25.74 0 21.19 4.39 20.9 9.89C18.28 10.95 16.18 13.04 15.12 15.65H10.2C9.66 14.14 8.22 13.04 6.52 13.04C4.36 13.04 2.61 14.8 2.61 16.95C2.61 19.11 4.37 20.86 6.52 20.86C8.22 20.86 9.65 19.76 10.2 18.25H14.44C14.38 18.68 14.35 19.11 14.35 19.55C14.35 21.96 15.17 24.24 16.64 26.07H7.59C7.05 24.56 5.62 23.46 3.92 23.46C1.76 23.48 0 25.24 0 27.39C0 29.55 1.76 31.3 3.91 31.3C5.61 31.3 7.04 30.2 7.58 28.69H16.42C15.93 29.9 15.65 31.22 15.65 32.6C15.65 33.96 15.94 35.29 16.44 36.51H10.2C9.66 35 8.22 33.9 6.52 33.9C4.36 33.9 2.61 35.66 2.61 37.81C2.61 39.97 4.37 41.72 6.52 41.72C8.22 41.72 9.65 40.63 10.2 39.11H17.98C18.78 40.11 19.76 40.95 20.89 41.6C20.89 41.64 20.88 41.68 20.88 41.72C20.88 47.48 25.56 52.16 31.31 52.16C34.43 52.16 37.22 50.77 39.14 48.59V54.77H15.65C12.05 54.77 9.13 57.7 9.13 61.29V63.55C8.18 62.93 7.07 62.59 5.91 62.59C2.65 62.62 0 65.27 0 68.53C0 70.11 0.62 71.6 1.73 72.71L10.43 81.41L19.13 72.71C20.25 71.59 20.86 70.11 20.86 68.53C20.86 65.27 18.2 62.61 14.94 62.61C13.78 62.61 12.68 62.95 11.73 63.57V61.31C11.73 59.15 13.49 57.4 15.64 57.4H39.12V63.57C38.17 62.95 37.07 62.61 35.91 62.61C32.65 62.61 29.99 65.26 29.99 68.53C29.99 70.11 30.61 71.6 31.72 72.71L40.42 81.41L49.12 72.71C50.24 71.59 50.85 70.11 50.85 68.53C50.85 65.27 48.2 62.61 44.93 62.61C43.77 62.61 42.67 62.95 41.71 63.57V57.4H65.19C67.35 57.4 69.1 59.16 69.1 61.31V63.57C68.15 62.95 67.05 62.61 65.89 62.61C62.63 62.61 59.97 65.26 59.97 68.53C59.97 70.11 60.58 71.6 61.7 72.71L70.4 81.41L79.1 72.71C80.22 71.59 80.83 70.11 80.83 68.53C80.88 65.27 78.23 62.62 74.96 62.62Z" fill="currentColor"/>
</g>
<defs>
<clipPath id="clip0">
<rect width="80.88" height="81.42" fill="white"/>
</clipPath>
</defs>
</svg>
