<svg width="52" height="72" viewBox="0 0 52 72" fill="none" xmlns="http://www.w3.org/2000/svg">
  <g id="empower_yourself">
    <path d="M50.15 30.16V11.81C50.1527 10.8121 49.9583 9.82341 49.5779 8.9008C49.1975 7.97819 48.6387 7.13977 47.9335 6.43365C47.2283 5.72754 46.3906 5.16762 45.4685 4.78603C44.5464 4.40443 43.558 4.20868 42.5601 4.21C40.9998 4.17279 39.4732 4.6664 38.2301 5.61C37.7754 4.02537 36.8272 2.62701 35.5234 1.61813C34.2196 0.609253 32.6281 0.0424205 30.9801 0C29.2928 0.00826496 27.6555 0.574898 26.3241 1.61147C24.9927 2.64803 24.0418 4.09621 23.62 5.73C22.3424 4.8777 20.8356 4.43471 19.3 4.46C17.6131 4.46996 15.9768 5.03723 14.6458 6.07353C13.3147 7.10984 12.3634 8.55706 11.9401 10.19C10.7927 9.42087 9.45883 8.97588 8.07947 8.90202C6.70011 8.82817 5.32636 9.12819 4.10339 9.7704C2.88042 10.4126 1.85361 11.3732 1.13135 12.5506C0.40909 13.7281 0.0181992 15.0788 0 16.46V35.99C0 51.3 2.58007 57.85 4.45007 62.64C5.45007 65.44 6.32007 67.43 6.32007 70.24C6.32007 70.7041 6.50445 71.1493 6.83264 71.4774C7.16083 71.8056 7.60594 71.99 8.07007 71.99C8.5342 71.99 8.97931 71.8056 9.3075 71.4774C9.63568 71.1493 9.82007 70.7041 9.82007 70.24C9.74711 67.1627 9.03184 64.1347 7.72009 61.35C6.20009 57.35 4.1 52.12 3.63 41.01C4.83796 41.7295 6.22443 42.0934 7.63 42.06C9.3173 42.0528 10.9549 41.488 12.2878 40.4535C13.6208 39.4189 14.5743 37.9727 15 36.34C16.2781 37.1924 17.784 37.6386 19.3201 37.62C20.7046 37.6379 22.0659 37.2632 23.2463 36.5394C24.4268 35.8155 25.378 34.7721 25.99 33.53C28.09 34.7 30.78 35.28 34.52 35.4V38.91C26.22 40.31 22.8301 51.91 22.7101 52.35C22.6411 52.5726 22.6167 52.8066 22.6382 53.0386C22.6597 53.2706 22.7267 53.4962 22.8353 53.7023C22.944 53.9085 23.0921 54.0912 23.2714 54.2401C23.4506 54.3889 23.6574 54.5011 23.88 54.57C24.1026 54.6389 24.3366 54.6634 24.5686 54.6419C24.8006 54.6204 25.0263 54.5534 25.2324 54.4448C25.4386 54.3361 25.6213 54.188 25.7701 54.0087C25.919 53.8294 26.0312 53.6226 26.1001 53.4C26.1001 53.29 29.38 42.3 36.39 42.3C36.8526 42.2897 37.2934 42.1007 37.6196 41.7725C37.9459 41.4444 38.1324 41.0027 38.14 40.54V33.65C38.1108 33.1853 37.9514 32.7383 37.6801 32.36C37.5223 32.179 37.3212 32.0409 37.0956 31.9587C36.87 31.8765 36.6272 31.8529 36.39 31.89C31.39 31.89 28.3201 31.19 26.4501 29.44C26.4515 29.4247 26.4496 29.4094 26.4447 29.3948C26.4398 29.3803 26.432 29.367 26.4216 29.3557C26.4113 29.3444 26.3987 29.3354 26.3846 29.3292C26.3706 29.3231 26.3554 29.3199 26.3401 29.32C25.0534 28.04 24.3501 26.04 24.2301 23.32H40.01C40.6448 23.3043 41.2723 23.4582 41.8278 23.7658C42.3832 24.0735 42.8465 24.5236 43.17 25.07L43.29 25.19C44.69 26.94 48.4301 32.09 48.4301 35.83C48.4301 50.44 45.9801 56.64 44.2201 61.2C42.9072 63.9807 42.1917 67.0058 42.12 70.08C42.1534 70.5226 42.3529 70.9362 42.6783 71.238C43.0038 71.5397 43.4312 71.7074 43.875 71.7074C44.3188 71.7074 44.7463 71.5397 45.0718 71.238C45.3972 70.9362 45.5966 70.5226 45.63 70.08C45.63 67.28 46.44 65.29 47.5 62.48C49.37 57.69 51.9401 51.14 51.9401 35.83C51.7004 33.8453 51.0933 31.9226 50.15 30.16V30.16ZM27.01 7.72C27.01 6.63527 27.441 5.59496 28.208 4.82793C28.975 4.06091 30.0154 3.63 31.1001 3.63C32.1848 3.63 33.225 4.06091 33.9921 4.82793C34.7591 5.59496 35.1901 6.63527 35.1901 7.72V20.11H27.01V7.72V7.72ZM11.8101 34.6C11.7971 35.6807 11.362 36.7135 10.5978 37.4777C9.83355 38.2419 8.8008 38.677 7.72009 38.69C6.70277 38.6921 5.72284 38.3066 4.97974 37.6118C4.23664 36.917 3.78622 35.9652 3.72009 34.95V16.46C3.77205 15.4089 4.22614 14.4181 4.9884 13.6926C5.75067 12.9671 6.76272 12.5624 7.81506 12.5624C8.86741 12.5624 9.87946 12.9671 10.6417 13.6926C11.404 14.4181 11.8581 15.4089 11.91 16.46V34.58L11.8101 34.6ZM19.41 34.25C18.3293 34.237 17.2966 33.8019 16.5323 33.0377C15.7681 32.2735 15.333 31.2407 15.3201 30.16V12.04C15.3201 10.9553 15.7509 9.91496 16.5179 9.14793C17.285 8.38091 18.3253 7.95 19.41 7.95C20.4948 7.95 21.5351 8.38091 22.3021 9.14793C23.0691 9.91496 23.5 10.9553 23.5 12.04V20.04H22.3C21.8366 20.0679 21.3914 20.2313 21.02 20.51C20.8605 20.6814 20.7367 20.8828 20.656 21.1026C20.5753 21.3224 20.5393 21.5561 20.55 21.79C20.55 26 21.48 29.16 23.24 31.38C22.9963 32.2074 22.4918 32.9338 21.8016 33.451C21.1114 33.9682 20.2725 34.2485 19.41 34.25V34.25ZM39.75 20.11H38.5801V11.92C38.5801 10.8353 39.0109 9.79496 39.778 9.02793C40.545 8.26091 41.5853 7.83 42.67 7.83C43.7548 7.83 44.7951 8.26091 45.5621 9.02793C46.3292 9.79496 46.76 10.8353 46.76 11.92V24.46C46.3 23.88 46.0601 23.53 45.8301 23.29C45.1499 22.3072 44.2412 21.5044 43.1821 20.9504C42.1231 20.3965 40.9452 20.1081 39.75 20.11V20.11Z" fill="currentColor"/>
  </g>
</svg>
