<svg width="84" height="87" viewBox="0 0 84 87" fill="none" xmlns="http://www.w3.org/2000/svg">
  <g id="explore"></g>
<path d="M11.3855 17.4699C17.0355 11.8199 24.4455 8.98987 31.8555 8.98987C39.2655 8.98987 46.6755 11.8199 52.3255 17.4699C57.9755 23.1199 60.8055 30.5299 60.8055 37.9399C60.8055 45.3499 57.9755 52.7599 52.3255 58.4099C46.6755 64.0599 39.2655 66.8899 31.8555 66.8899C24.4455 66.8899 17.0355 64.0599 11.3855 58.4099C5.7355 52.7599 2.90552 45.3499 2.90552 37.9399C2.90552 30.5299 5.7355 23.1199 11.3855 17.4699ZM31.8555 10.4399C24.8155 10.4399 17.7855 13.1199 12.4155 18.4899C7.04553 23.8599 4.36554 30.8999 4.36554 37.9299C4.36554 44.9699 7.04553 51.9999 12.4155 57.3699C17.7855 62.7399 24.8255 65.4199 31.8555 65.4199C38.8855 65.4199 45.9255 62.7399 51.2955 57.3699C56.6655 51.9999 59.3455 44.9599 59.3455 37.9299C59.3455 30.8899 56.6655 23.8599 51.2955 18.4899C45.9355 13.1199 38.8955 10.4399 31.8555 10.4399Z" fill="currentColor" stroke="currentColor" stroke-width="2" stroke-miterlimit="10"/>
<path d="M18.5156 24.5898C22.1956 20.9098 27.0256 19.0599 31.8556 19.0599C36.6856 19.0599 41.5156 20.8998 45.1956 24.5898C48.8756 28.2698 50.7256 33.0999 50.7256 37.9299C50.7256 42.7599 48.8856 47.5898 45.1956 51.2698C41.5156 54.9498 36.6856 56.7999 31.8556 56.7999C27.0256 56.7999 22.1956 54.9598 18.5156 51.2698C14.8356 47.5898 12.9856 42.7599 12.9856 37.9299C12.9856 33.1099 14.8356 28.2798 18.5156 24.5898ZM31.8556 20.5199C27.3956 20.5199 22.9356 22.2199 19.5356 25.6199C16.1356 29.0199 14.4355 33.4799 14.4355 37.9399C14.4355 42.3999 16.1356 46.8599 19.5356 50.2599C22.9356 53.6599 27.3956 55.3599 31.8556 55.3599C36.3156 55.3599 40.7756 53.6599 44.1756 50.2599C47.5756 46.8599 49.2756 42.3999 49.2756 37.9399C49.2756 33.4799 47.5756 29.0199 44.1756 25.6199C40.7756 22.2199 36.3156 20.5199 31.8556 20.5199Z" fill="currentColor" stroke="currentColor" stroke-width="2" stroke-miterlimit="10"/>
<path d="M58.1555 48.9499L76.5655 67.3599C78.6655 69.4599 79.7155 72.2299 79.7155 74.9999C79.7155 77.7699 78.6655 80.5399 76.5655 82.6399L76.5555 82.6499C74.4555 84.7399 71.6955 85.7899 68.9255 85.7899C66.1555 85.7899 63.3855 84.7399 61.2855 82.6399L42.8655 64.2199C42.5855 63.9399 42.5855 63.4799 42.8655 63.1899C42.9455 63.1099 43.0355 63.0498 43.1355 63.0198C44.6255 62.3498 46.0655 61.5399 47.4455 60.5899C48.7955 59.6599 50.0855 58.5899 51.3055 57.3699C52.5155 56.1599 53.5955 54.8599 54.5255 53.5099C55.4855 52.1199 56.3055 50.6599 56.9755 49.1499L57.6355 49.4499L56.9755 49.1499C57.1355 48.7799 57.5655 48.6199 57.9355 48.7799C58.0155 48.8299 58.0955 48.8899 58.1555 48.9499ZM75.5355 68.3899L57.8455 50.6999C57.2255 51.9499 56.5155 53.1699 55.7055 54.3499C54.7155 55.7899 53.5855 57.1499 52.3255 58.4099C51.0655 59.6699 49.6955 60.7999 48.2655 61.7899C47.0955 62.5999 45.8755 63.3099 44.6155 63.9299L62.3055 81.6199C64.1255 83.4399 66.5255 84.3499 68.9155 84.3499C71.3055 84.3499 73.7055 83.4399 75.5155 81.6299C75.5255 81.6199 75.5255 81.6199 75.5355 81.6099C77.3455 79.7899 78.2555 77.3999 78.2555 75.0099C78.2655 72.5999 77.3555 70.1999 75.5355 68.3899Z" fill="currentColor" stroke="currentColor" stroke-width="2" stroke-miterlimit="10"/>
<path d="M65.5555 71.6399C66.4855 70.7099 67.7055 70.2499 68.9155 70.2499C70.1255 70.2499 71.3555 70.7099 72.2755 71.6399C73.2055 72.5699 73.6655 73.7899 73.6655 74.9999C73.6655 76.2099 73.2055 77.4399 72.2755 78.3599C71.3455 79.2899 70.1255 79.7499 68.9155 79.7499C67.6955 79.7499 66.4755 79.2899 65.5555 78.3599C64.6255 77.4299 64.1655 76.2099 64.1655 74.9999C64.1655 73.7799 64.6255 72.5699 65.5555 71.6399ZM68.9255 71.6999C68.0755 71.6999 67.2355 72.0199 66.5855 72.6699C65.9355 73.3199 65.6155 74.1599 65.6155 75.0099C65.6155 75.8599 65.9355 76.6999 66.5855 77.3499C67.2355 77.9999 68.0755 78.3199 68.9255 78.3199C69.7755 78.3199 70.6155 77.9999 71.2655 77.3499C71.9155 76.6999 72.2355 75.8599 72.2355 75.0099C72.2355 74.1599 71.9155 73.3199 71.2655 72.6699C70.6155 72.0199 69.7655 71.6999 68.9255 71.6999Z" fill="currentColor" stroke="currentColor" stroke-width="2" stroke-miterlimit="10"/>
<path d="M82.0856 2.43987C82.7456 2.32987 82.9256 1.45985 82.3556 1.10985C82.2056 1.01985 82.0356 0.979849 81.8556 1.00985H81.8456H81.8356H81.8156H81.7956H81.7656L81.7356 1.01986L81.7056 1.02987L81.6656 1.03985L81.6255 1.04986H81.5856L81.5356 1.05987L81.4756 1.06985L81.4156 1.07986L81.3556 1.08987L81.2856 1.09984L81.2156 1.10985L81.1356 1.11986L81.0555 1.12984L80.9756 1.14986L80.8856 1.16985L80.7956 1.18987L80.7056 1.20986L80.6056 1.22985L80.5056 1.24987L80.4156 1.26986C80.1256 1.32986 79.9056 1.53986 79.8456 1.82986C79.7356 2.33986 80.1755 2.79985 80.6855 2.69985L80.7756 2.67986L80.8755 2.65984L80.9756 2.63985L81.0656 2.61986L81.1556 2.59984L81.2455 2.57986L81.3256 2.56985L81.4056 2.55987L81.4756 2.54986L81.5456 2.53985L81.6156 2.52987L81.6756 2.51986L81.7356 2.50985L81.7856 2.49987L81.8356 2.48986L81.8856 2.47985L81.9256 2.46987L81.9656 2.45986L81.9955 2.44985H82.0256H82.0456H82.0656H82.0856V2.43987ZM2.27557 84.1299C1.70557 84.5899 2.08555 85.4999 2.81555 85.4199C2.94555 85.3999 3.0656 85.3498 3.1756 85.2698L3.23559 85.2198L3.39557 85.0898L3.55554 84.9598L3.71557 84.8299L3.87555 84.6999L4.03558 84.5699L4.20557 84.4399L4.31555 84.3498C4.61555 84.1098 4.67555 83.6598 4.43555 83.3498C4.18555 83.0198 3.71557 82.9598 3.39557 83.2198L3.28558 83.3099L3.12555 83.4399L2.96557 83.5699L2.80554 83.6999L2.64557 83.8299L2.48559 83.9598L2.32556 84.0799L2.27557 84.1299ZM8.85559 78.4999C8.32559 78.9899 8.75557 79.8599 9.46557 79.7499C9.60557 79.7199 9.73557 79.6699 9.83557 79.5699L9.89557 79.5099L10.0956 79.3299L10.2956 79.1498L10.4955 78.9598L10.6956 78.7698L10.8956 78.5799L10.9056 78.5699C11.1256 78.3599 11.1856 78.0498 11.0756 77.7698C10.8756 77.2898 10.2756 77.1698 9.90558 77.5198L9.89557 77.5298L9.69556 77.7198L9.49554 77.9098L9.29559 78.0898L9.09558 78.2698L8.89557 78.4499L8.85559 78.4999ZM14.9656 72.3699C14.4856 72.8999 14.9756 73.7199 15.6656 73.5699C15.8156 73.5299 15.9356 73.4598 16.0356 73.3498L16.2056 73.1699L16.4156 72.9399L16.6156 72.7098L16.8156 72.4799L17.0156 72.2599C17.4356 71.7899 17.0956 71.0499 16.4656 71.0499C16.2556 71.0499 16.0656 71.1398 15.9256 71.2898L15.7356 71.5099L15.5356 71.7299L15.3356 71.9499L15.1356 72.1699L14.9656 72.3699ZM20.4856 65.7198C20.1156 66.2098 20.4956 66.9199 21.1156 66.8799C21.3356 66.8599 21.5256 66.7598 21.6556 66.5898L21.8055 66.3799L21.9955 66.1199L22.1855 65.8599L22.3755 65.5998L22.5156 65.3998C22.8856 64.8798 22.4455 64.1599 21.8055 64.2599C21.6155 64.2899 21.4456 64.3899 21.3256 64.5599L21.1855 64.7499L20.9955 65.0099L20.8055 65.2698L20.6156 65.5198C20.6356 65.5198 20.4856 65.7198 20.4856 65.7198ZM25.2056 58.5099C24.8756 59.1099 25.4856 59.7898 26.1156 59.5398C26.2656 59.4798 26.3956 59.3698 26.4756 59.2198L26.5956 59.0099L26.7556 58.7198L26.9156 58.4299L27.0756 58.1399L27.1956 57.9199C27.3056 57.7199 27.3056 57.4798 27.2156 57.2698C26.9556 56.7298 26.1956 56.7099 25.9156 57.2399L25.8055 57.4499L25.6556 57.7299L25.5056 58.0099L25.3456 58.2898L25.2056 58.5099ZM28.7956 50.7198C28.6956 50.9898 28.7756 51.2999 28.9856 51.4899C29.3756 51.8499 29.9856 51.6899 30.1656 51.1999L30.2556 50.9399L30.3656 50.6299L30.4756 50.3199L30.5756 50.0099L30.6356 49.8099C30.8256 49.2199 30.2156 48.6699 29.6456 48.9299C29.4556 49.0199 29.3156 49.1699 29.2556 49.3699L29.1956 49.5599L29.0956 49.8599L28.9955 50.1598L28.8956 50.4598L28.7956 50.7198ZM30.8356 42.4199C30.7556 43.1099 31.5856 43.5098 32.0756 43.0198C32.1856 42.8998 32.2656 42.7598 32.2756 42.5998L32.3155 42.2798L32.3556 41.9499L32.3956 41.6199L32.4256 41.2898L32.4355 41.1299C32.4955 40.4999 31.7556 40.0999 31.2556 40.4999C31.0956 40.6199 31.0056 40.8099 30.9856 41.0099L30.9756 41.1598L30.9456 41.4799L30.9156 41.7999L30.8755 42.1199L30.8356 42.4199ZM31.5156 33.6999C31.3956 34.3799 32.1856 34.8299 32.7156 34.3699C32.8356 34.2599 32.9156 34.1198 32.9456 33.9598L32.9556 33.9299L33.0156 33.6299L33.0756 33.3398L33.1356 33.0499L33.2056 32.7599L33.2455 32.5998C33.4055 31.9698 32.7256 31.4599 32.1656 31.7999C32.0056 31.8999 31.8856 32.0599 31.8356 32.2399L31.7856 32.4199L31.7156 32.7298L31.6456 33.0398L31.5856 33.3498L31.5256 33.6699L31.5156 33.6999ZM34.7656 25.3699C34.6456 25.5699 34.6156 25.7998 34.7056 26.0198C34.9356 26.5698 35.6755 26.6399 35.9955 26.1399L36.0756 26.0099L36.2356 25.7599L36.3956 25.5099L36.5555 25.2599L36.7256 25.0198L36.7656 24.9598C37.1456 24.4198 36.6756 23.6999 36.0256 23.8299C35.8456 23.8699 35.6856 23.9699 35.5756 24.1199L35.5256 24.1999L35.3456 24.4598L35.1756 24.7198L35.0056 24.9798L34.8356 25.2399L34.7656 25.3699ZM40.5056 18.5799C40.0356 18.9999 40.3055 19.7899 40.9355 19.8399C41.1355 19.8599 41.3356 19.7899 41.4856 19.6499L41.5456 19.5998L41.7756 19.3899L42.0056 19.1799L42.2356 18.9798L42.4756 18.7799L42.5555 18.7099C43.0955 18.2599 42.7356 17.3799 42.0356 17.4299C41.8756 17.4399 41.7456 17.4998 41.6156 17.5998L41.5256 17.6799L41.2856 17.8899L41.0456 18.0998L40.8055 18.3099L40.5656 18.5199L40.5056 18.5799ZM47.5856 13.2999C47.0556 13.6299 47.1656 14.4399 47.7656 14.6099C47.9656 14.6699 48.1756 14.6399 48.3556 14.5299L48.3755 14.5199L48.6456 14.3498L48.9156 14.1799L49.1956 14.0098L49.4756 13.8498L49.5756 13.7898C49.8356 13.6398 49.9656 13.3499 49.9256 13.0599C49.8456 12.5499 49.2856 12.2798 48.8356 12.5398L48.7256 12.6099L48.4456 12.7799L48.1656 12.9499L47.8856 13.1199L47.6056 13.2898L47.5856 13.2999ZM55.3556 9.14986C54.7756 9.41986 54.7956 10.2499 55.4056 10.4899C55.5956 10.5599 55.7856 10.5499 55.9656 10.4699L56.0555 10.4299L56.3456 10.2999L56.6356 10.1699L56.9256 10.0398L57.2156 9.90984L57.2756 9.87984C57.8856 9.60984 57.8456 8.74987 57.2256 8.52987C57.0456 8.46987 56.8656 8.47986 56.6956 8.54986L56.6255 8.57986L56.3256 8.70986L56.0256 8.83987L55.7256 8.96987L55.4256 9.10985L55.3556 9.14986ZM63.4955 5.85985C63.0855 6.00985 62.8956 6.45985 63.0756 6.85985C63.2356 7.19985 63.6256 7.35986 63.9756 7.23986L64.1255 7.18987L64.4056 7.08987L64.6855 6.98986L64.9656 6.88985L65.2455 6.78985L65.3456 6.75985C65.6256 6.65985 65.8256 6.39984 65.8356 6.09984C65.8556 5.58984 65.3555 5.21984 64.8755 5.37984L64.7756 5.41985L64.4955 5.51986L64.2156 5.61986L63.9355 5.71987L63.6556 5.81985L63.4955 5.85985ZM71.8656 3.25985C71.5856 3.33985 71.3756 3.56985 71.3356 3.85985C71.2656 4.37985 71.7455 4.79984 72.2455 4.65984H72.2656L72.5056 4.59984L72.7455 4.53985L72.9756 4.47985L73.2056 4.41985L73.4355 4.35985L73.6556 4.29986C74.2856 4.13986 74.3956 3.27986 73.8256 2.95986C73.6656 2.86986 73.4656 2.84985 73.2856 2.88985L73.0656 2.94985L72.8356 3.00985L72.6056 3.06985L72.3656 3.12984L72.1255 3.18987L71.8856 3.24987L71.8656 3.25985Z" fill="currentColor" stroke="currentColor" stroke-width="2" stroke-miterlimit="10"/>
</svg>
