<svg viewBox="0 0 69 48" fill="none" xmlns="http://www.w3.org/2000/svg">
  <g id="eye">
    <path d="M34.0501 0.967827C33.2501 1.05783 32.6501 1.73791 32.6701 2.54791V8.75787C32.6601 9.61787 33.3401 10.3178 34.2001 10.3278C35.0601 10.3378 35.7601 9.65791 35.7701 8.79791C35.7701 8.78791 35.7701 8.76787 35.7701 8.75787V2.54791C35.7901 1.68791 35.1101 0.977827 34.2501 0.967827C34.1901 0.957827 34.1201 0.957827 34.0501 0.967827ZM16.9201 4.06792C16.0701 4.17792 15.4701 4.95792 15.5801 5.80792C15.6101 6.01792 15.6801 6.21788 15.7801 6.39788L18.8901 11.8278C19.3101 12.5778 20.2601 12.8479 21.0101 12.4179C21.7601 11.9879 22.0301 11.0479 21.6001 10.2979L18.4901 4.86785C18.1901 4.29785 17.5601 3.98792 16.9201 4.06792ZM51.1601 4.06792C50.6501 4.11792 50.1901 4.41785 49.9501 4.86785L46.8401 10.2979C46.4201 11.0479 46.6801 11.9979 47.4301 12.4179C48.1801 12.8379 49.1301 12.5778 49.5501 11.8278L52.6601 6.39788C53.0901 5.65788 52.8501 4.70789 52.1001 4.27789C51.8201 4.10789 51.4901 4.03792 51.1601 4.06792ZM34.2201 13.4079C21.0801 13.4079 9.18012 19.5678 0.440117 29.4578C-0.0698828 30.0378 -0.0698828 30.9079 0.440117 31.4979C2.17012 33.4579 4.0201 35.4078 6.0501 37.0978C6.7101 37.6478 7.70011 37.5579 8.25011 36.8979C8.80011 36.2379 8.7101 35.2578 8.0501 34.7078C8.0501 34.7078 8.04009 34.7079 8.04009 34.6979C6.55009 33.4579 5.15013 31.9678 3.77013 30.4578C9.40013 24.4378 16.2501 20.0878 23.8101 17.9678C20.2201 20.9578 17.9401 25.4779 17.9401 30.4979C17.9401 35.5479 20.2401 40.0479 23.8601 43.0279C20.1601 42.0179 16.6101 40.4878 13.3001 38.4678C12.5801 37.9978 11.6201 38.1879 11.1501 38.9079C10.6801 39.6279 10.8701 40.5879 11.5901 41.0579C11.6201 41.0779 11.6501 41.0978 11.6801 41.1078C18.4201 45.2178 26.1001 47.5279 34.2201 47.5279C47.3501 47.5279 59.2601 41.3578 68.0001 31.4778C68.5101 30.8978 68.5101 30.0279 68.0001 29.4379C59.2701 19.5679 47.3601 13.4079 34.2201 13.4079ZM34.2201 17.2579C41.5301 17.2579 47.4001 23.1879 47.4001 30.4979C47.4001 37.8079 41.5301 43.6579 34.2201 43.6579C26.9101 43.6579 21.0201 37.7979 21.0201 30.4979C21.0201 23.1979 26.9101 17.2579 34.2201 17.2579ZM44.6301 17.9578C52.1901 20.0778 59.0401 24.4378 64.6701 30.4678C59.0301 36.4978 52.1801 40.8779 44.6001 42.9979C48.2101 40.0079 50.5201 35.5278 50.5201 30.4878C50.5301 25.4678 48.2301 20.9578 44.6301 17.9578ZM34.2201 24.2679C30.8101 24.2679 28.0101 27.0678 28.0101 30.4778C28.0101 33.8878 30.8101 36.6879 34.2201 36.6879C37.6301 36.6879 40.4301 33.8878 40.4301 30.4778C40.4301 27.0578 37.6301 24.2679 34.2201 24.2679ZM34.2201 27.3679C35.9501 27.3679 37.3301 28.7378 37.3301 30.4678C37.3301 32.1978 35.9601 33.5679 34.2201 33.5679C32.4901 33.5679 31.1101 32.1978 31.1101 30.4678C31.1201 28.7378 32.4901 27.3679 34.2201 27.3679Z" fill="currentColor"/>
  </g>
</svg>
