<svg viewBox="0 0 83 77" fill="none" xmlns="http://www.w3.org/2000/svg">
  <g id="farm">
    <path d="M55.9102 76.0301C55.5802 76.0301 55.2602 75.8701 55.1002 75.5401C37.2702 40.5301 1.69015 40.0401 1.37015 40.0401C0.800148 40.0401 0.390137 39.5501 0.390137 39.0601C0.390137 38.5701 0.800148 38.0801 1.37015 38.0801C1.78015 38.0801 10.7302 38.1601 22.1302 42.7201C32.6302 46.8701 47.2101 55.8301 56.7301 74.6301C56.9701 75.1201 56.8102 75.6901 56.3202 75.9301C56.1602 75.9501 56.0802 76.0301 55.9102 76.0301Z" fill="currentColor" stroke="currentColor" stroke-width="0.75" stroke-miterlimit="10"/>
    <path d="M36.7002 76.0301C36.4602 76.0301 36.1302 75.8701 35.9702 75.7001C24.0802 60.3101 7.72017 56.7301 1.21017 55.9201C0.720168 55.8401 0.31017 55.3501 0.40017 54.8601C0.48017 54.3701 0.970168 53.9601 1.46017 54.0501C8.22017 54.8601 25.1502 58.6101 37.5302 74.4801C37.8602 74.8901 37.7702 75.4601 37.3702 75.7801C37.1102 75.9501 36.9402 76.0301 36.7002 76.0301Z" fill="currentColor" stroke="currentColor" stroke-width="0.75" stroke-miterlimit="10"/>
    <path d="M46.8802 76.03C46.5502 76.03 46.2302 75.87 46.0702 75.54C31.3302 50.79 6.18013 47.94 1.29013 47.62C0.800131 47.62 0.390137 47.13 0.390137 46.64C0.390137 46.15 0.880148 45.74 1.37015 45.74C6.42015 46.07 32.4701 49 47.6101 74.56C47.8501 74.97 47.6902 75.62 47.2802 75.86C47.2002 75.95 47.0402 76.03 46.8802 76.03Z" fill="currentColor" stroke="currentColor" stroke-width="0.75" stroke-miterlimit="10"/>
    <path d="M41.75 57.1401C41.26 57.1401 40.77 56.73 40.77 56.16V21.8C40.77 21.31 41.18 20.8201 41.75 20.8201C42.24 20.8201 42.73 21.23 42.73 21.8V56.16C42.72 56.66 42.32 57.1401 41.75 57.1401Z" fill="currentColor" stroke="currentColor" stroke-width="0.75" stroke-miterlimit="10"/>
    <path d="M5.60013 40.0501C5.11013 40.0501 4.62012 39.6401 4.62012 39.0701V21.8101C4.62012 21.3201 5.03013 20.8301 5.60013 20.8301C6.09013 20.8301 6.58011 21.2401 6.58011 21.8101V39.0701C6.50011 39.5601 6.09013 40.0501 5.60013 40.0501Z" fill="currentColor" stroke="currentColor" stroke-width="0.75" stroke-miterlimit="10"/>
    <path d="M45.9801 25.47C45.8201 25.47 45.5702 25.39 45.4102 25.31L23.6701 9.19003L1.85015 25.31C1.44015 25.64 0.870135 25.55 0.550135 25.15C0.220135 24.74 0.390125 24.09 0.790125 23.85L23.6701 6.92004L46.5501 23.85C46.9601 24.18 47.0401 24.75 46.7101 25.15C46.5501 25.39 46.3101 25.47 45.9801 25.47Z" fill="currentColor" stroke="currentColor" stroke-width="0.75" stroke-miterlimit="10"/>
    <path d="M30.8402 19.94C30.6802 19.94 30.4302 19.86 30.2702 19.78L23.5902 14.9L16.9102 19.78C16.5002 20.11 15.9302 20.02 15.6102 19.62C15.2802 19.21 15.3702 18.64 15.7702 18.32L23.5002 12.62L31.2302 18.32C31.6402 18.65 31.7202 19.22 31.3902 19.62C31.4102 19.78 31.1602 19.94 30.8402 19.94Z" fill="currentColor" stroke="currentColor" stroke-width="0.75" stroke-miterlimit="10"/>
    <path d="M30.8401 49C30.3501 49 29.8601 48.5901 29.8601 48.0201V34.91C29.8601 31.49 27.0101 28.64 23.5901 28.64C20.1701 28.64 17.3201 31.49 17.3201 34.91V41.75C17.3201 42.24 16.9101 42.73 16.3401 42.73C15.7701 42.73 15.3601 42.32 15.3601 41.75V34.91C15.3601 30.43 19.0201 26.77 23.5001 26.77C27.9801 26.77 31.6401 30.43 31.6401 34.91V48.0201C31.8201 48.6001 31.4101 49 30.8401 49Z" fill="currentColor" stroke="currentColor" stroke-width="0.75" stroke-miterlimit="10"/>
    <path d="M47.4501 63.0901C47.2901 63.0901 47.1201 63.0101 46.9601 62.9301C46.4701 62.6901 46.3901 62.1201 46.6301 61.6301C46.9601 61.0601 55.1001 47.55 80.9001 47.55C81.3901 47.55 81.8801 47.9601 81.8801 48.5301C81.8801 49.0201 81.4701 49.5101 80.9001 49.5101C56.2301 49.5101 48.3301 62.5401 48.2501 62.6201C48.1001 62.9201 47.7701 63.0901 47.4501 63.0901Z" fill="currentColor" stroke="currentColor" stroke-width="0.75" stroke-miterlimit="10"/>
    <path d="M52.0902 69.36C51.9302 69.36 51.7603 69.28 51.6003 69.2C51.1103 68.96 51.0302 68.39 51.2702 67.9C51.5102 67.41 58.4303 56.01 80.8203 56.01C81.3103 56.01 81.8002 56.42 81.8002 56.99C81.8002 57.56 81.3903 57.97 80.8203 57.97C59.4103 57.97 52.9002 68.8 52.9002 68.88C52.7402 69.19 52.4102 69.36 52.0902 69.36Z" fill="currentColor" stroke="currentColor" stroke-width="0.75" stroke-miterlimit="10"/>
    <path d="M41.7501 57.14C41.5901 57.14 41.3401 57.06 41.1801 56.98C40.7701 56.65 40.6901 56.08 40.9401 55.68C41.1801 55.27 47.7801 46.07 63.6501 41.68C64.4601 41.44 65.1201 40.7 65.1201 39.81V35.98H55.5901L61.7801 25.23H57.7901L63.0801 16.19H60.2301L68.7001 1.54004L77.1701 16.19H74.3201L79.5301 25.23H75.5401L81.7301 35.98H72.2001V39.16C72.2001 39.4 72.2801 39.57 72.4401 39.73C72.6001 39.89 72.7701 39.97 73.0101 39.89C75.5301 39.56 78.2201 39.48 80.8301 39.48C81.3201 39.48 81.8101 39.8901 81.8101 40.4601C81.8101 40.9501 81.4001 41.44 80.8301 41.44C78.2201 41.44 75.6201 41.6 73.1801 41.85C72.4501 41.93 71.7101 41.69 71.1401 41.2C70.5701 40.71 70.2401 39.98 70.2401 39.25V34.2H78.3801L72.1901 23.29H76.1801L70.9701 14.25H73.8201L68.6101 5.21002L63.4001 14.25H66.2501L61.0401 23.29H65.0301L58.8401 34.04H66.9801V39.74C66.9801 41.45 65.8401 42.9201 64.1301 43.4001C49.0701 47.6301 42.5601 56.67 42.5601 56.75C42.3201 56.98 42.0701 57.14 41.7501 57.14Z" fill="currentColor" stroke="currentColor" stroke-width="0.75" stroke-miterlimit="10"/>
  </g>
</svg>
