<svg width="65" height="51" viewBox="0 0 65 51" fill="none" xmlns="http://www.w3.org/2000/svg">
  <g id="food">
    <path d="M10.1201 13H12.0301C11.9701 13.27 11.9401 13.54 11.9401 13.82C11.9401 14.88 12.3601 15.9 13.1101 16.65C13.9801 17.52 19.8301 22 22.3901 22C22.8601 22.02 23.3101 21.85 23.6501 21.53C24.5801 20.6 24.1601 18.87 22.2301 15.74C21.2201 14.06 20.0601 12.47 18.7701 11C17.8201 10.04 16.4401 9.63 15.1201 9.91V8C15.1201 7.45 14.6701 7 14.1201 7C13.5701 7 13.1201 7.45 13.1201 8V9.59L11.8301 8.29999C11.4301 7.91999 10.8001 7.93001 10.4201 8.32001C10.0501 8.71001 10.0501 9.31999 10.4201 9.70999L11.7101 11H10.1201C9.57012 11 9.12012 11.45 9.12012 12C9.12012 12.55 9.57012 13 10.1201 13ZM17.3601 12.4C18.6001 13.64 21.7601 18.34 22.1001 19.96C20.3101 19.58 15.6501 16.35 14.5301 15.23C13.7401 14.46 13.7101 13.2 14.4801 12.4C15.2501 11.61 16.5101 11.58 17.3101 12.35C17.3201 12.37 17.3401 12.39 17.3601 12.4Z" fill="currentColor"/>
    <path d="M50.1201 29C52.8801 29 55.1201 26.76 55.1201 24C55.1201 21.24 52.8801 19 50.1201 19C47.3601 19 45.1201 21.24 45.1201 24C45.1301 26.76 47.3601 28.99 50.1201 29ZM50.1201 21C51.7801 21 53.1201 22.34 53.1201 24C53.1201 25.66 51.7801 27 50.1201 27C48.4601 27 47.1201 25.66 47.1201 24C47.1201 22.34 48.4701 21 50.1201 21Z" fill="currentColor"/>
    <path d="M50.1202 25C50.6702 25 51.1202 24.55 51.1102 23.99C51.1102 23.44 50.6602 22.99 50.1002 23C49.8402 23 49.5902 23.11 49.4002 23.29C49.0102 23.68 49.0102 24.32 49.4002 24.71C49.6102 24.89 49.8602 24.99 50.1202 25Z" fill="currentColor"/>
    <path d="M41.1201 19C43.8801 19 46.1201 16.76 46.1201 14C46.1201 11.24 43.8801 9 41.1201 9C38.3601 9 36.1201 11.24 36.1201 14C36.1301 16.76 38.3601 18.99 41.1201 19ZM41.1201 11C42.7801 11 44.1201 12.34 44.1201 14C44.1201 15.66 42.7801 17 41.1201 17C39.4601 17 38.1201 15.66 38.1201 14C38.1201 12.34 39.4701 11 41.1201 11Z" fill="currentColor"/>
    <path d="M41.1202 15C41.6702 15.01 42.1102 14.57 42.1202 14.02C42.1202 14.01 42.1202 14.01 42.1202 14C42.1202 13.73 42.0101 13.4801 41.8301 13.2901C41.4401 12.9001 40.8002 12.9 40.4202 13.3C40.0302 13.69 40.0302 14.33 40.4302 14.71C40.6102 14.89 40.8602 15 41.1202 15Z" fill="currentColor"/>
    <path d="M25.1201 22V23.5C25.1201 24.88 26.2401 26 27.6201 26H28.3401L29.1501 29.24C29.2601 29.69 29.6601 30 30.1201 30H32.1201C32.5801 30 32.9801 29.69 33.0901 29.24L33.9001 26H34.6201C36.0001 26 37.1201 24.88 37.1201 23.5V22C37.1201 18.69 34.4301 16 31.1201 16C27.8101 16 25.1201 18.68 25.1201 22ZM35.1201 23.5C35.1201 23.78 34.9001 24 34.6201 24H33.1201C32.6601 24 32.2601 24.31 32.1501 24.76L31.3401 28H30.9001L30.0901 24.76C29.9801 24.32 29.5801 24 29.1201 24H27.6201C27.3401 24 27.1201 23.78 27.1201 23.5V23H35.1201V23.5ZM35.0001 21H27.2501C27.8001 18.86 29.9801 17.57 32.1201 18.13C33.5301 18.49 34.6301 19.59 35.0001 21Z" fill="currentColor"/>
    <path d="M14.1201 21C14.1201 20.45 13.6701 20 13.1201 20C12.5701 20 12.1201 20.45 12.1201 21V24C12.1201 24.55 12.5701 25 13.1201 25C13.6701 25 14.1201 24.55 14.1201 24V21Z" fill="currentColor"/>
    <path d="M12.4101 27.29C12.2301 27.48 12.1201 27.73 12.1201 28C12.1201 28.55 12.5701 29 13.1201 29C13.6701 29 14.1201 28.55 14.1101 27.99C14.1101 27.44 13.6601 26.99 13.1001 27C12.8501 27 12.6001 27.1001 12.4101 27.29Z" fill="currentColor"/>
    <path d="M54.1201 18C54.6701 18 55.1201 17.55 55.1201 17V15C55.1201 14.45 54.6701 14 54.1201 14C53.5701 14 53.1201 14.45 53.1201 15V17C53.1201 17.55 53.5701 18 54.1201 18Z" fill="currentColor"/>
    <path d="M34.1201 13V11C34.1201 10.45 33.6701 10 33.1201 10C32.5701 10 32.1201 10.45 32.1201 11V13C32.1201 13.55 32.5701 14 33.1201 14C33.6801 14 34.1201 13.55 34.1201 13Z" fill="currentColor"/>
    <path d="M49.1201 15C49.6701 15 50.1201 14.55 50.1201 14V10C50.1201 9.45 49.6701 9 49.1201 9C48.5701 9 48.1201 9.45 48.1201 10V14C48.1201 14.55 48.5701 15 49.1201 15Z" fill="currentColor"/>
    <path d="M40.4102 26.29C40.0202 26.68 40.0202 27.32 40.4102 27.71C40.8002 28.1 41.4402 28.1 41.8302 27.71C42.0102 27.52 42.1202 27.27 42.1202 27C42.1202 26.45 41.6802 26 41.1302 25.99C40.8602 25.99 40.6002 26.1 40.4102 26.29Z" fill="currentColor"/>
    <path d="M17.4102 27.29C17.0202 27.68 17.0202 28.32 17.4202 28.7C17.8102 29.09 18.4501 29.09 18.8301 28.69C19.2201 28.3 19.2201 27.67 18.8301 27.28C18.4301 26.92 17.8102 26.92 17.4102 27.29Z" fill="currentColor"/>
    <path d="M37.12 5.00006C37.39 5.00006 37.64 4.89005 37.83 4.71005C38.22 4.32005 38.2201 3.68005 37.8201 3.30005C37.4301 2.91005 36.79 2.91006 36.41 3.31006C36.23 3.50006 36.12 3.75007 36.12 4.01007C36.11 4.56007 36.55 5.00007 37.1 5.01007C37.11 5.00007 37.12 5.00006 37.12 5.00006Z" fill="currentColor"/>
    <path d="M25.8301 14.71C26.2201 14.32 26.2201 13.68 25.8201 13.3C25.4301 12.91 24.7901 12.9101 24.4101 13.3101C24.2301 13.5001 24.1201 13.7501 24.1201 14.0101C24.1201 14.5601 24.5601 15.01 25.1101 15.02C25.3901 15.01 25.6401 14.9 25.8301 14.71Z" fill="currentColor"/>
    <path d="M49.12 7.00004C49.67 7.00004 50.12 6.55003 50.11 5.99003C50.11 5.44003 49.66 4.99004 49.1 5.00004C48.84 5.00004 48.59 5.11005 48.4 5.29005C48.22 5.48005 48.11 5.73004 48.11 6.00004C48.1 6.55004 48.54 6.99004 49.09 7.00004C49.11 7.00004 49.12 7.00004 49.12 7.00004Z" fill="currentColor"/>
    <path d="M18.83 23.29C18.44 22.89 17.8 22.88 17.4 23.28C17 23.67 16.99 24.31 17.39 24.71C17.78 25.11 18.4201 25.12 18.8201 24.72C19.0101 24.53 19.1201 24.27 19.1201 24C19.1201 23.73 19.02 23.48 18.83 23.29Z" fill="currentColor"/>
    <path d="M10.9501 36.66C16.3301 42.68 24.0502 46.08 32.1202 45.99C32.6702 45.99 33.1202 45.54 33.1202 44.99C33.1202 44.44 32.6702 43.99 32.1202 43.99C24.6202 44.07 17.4402 40.91 12.4402 35.32C12.0702 34.91 11.4402 34.88 11.0302 35.26C10.6302 35.63 10.5901 36.26 10.9501 36.66Z" fill="currentColor"/>
    <path d="M63.1201 28H60.1201C59.5701 28 59.1201 28.45 59.1201 29V31H5.12012V29C5.12012 28.45 4.67012 28 4.12012 28H1.12012C0.570117 28 0.120117 28.45 0.120117 29C0.120117 29.55 0.570117 30 1.12012 30H3.12012V32C3.12012 32.01 3.12013 32.02 3.13013 32.03C3.13013 32.14 3.15012 32.24 3.19012 32.34C3.20012 32.36 3.21009 32.39 3.22009 32.41C3.22009 32.43 3.23011 32.44 3.24011 32.46C8.75011 43.32 19.9501 50.12 32.1301 50C44.3101 50.12 55.5101 43.32 61.0201 32.46C61.0301 32.44 61.0301 32.43 61.0401 32.41C61.0501 32.39 61.0601 32.36 61.0701 32.34C61.1101 32.24 61.1301 32.14 61.1301 32.03C61.1301 32.02 61.1401 32.01 61.1401 32V30H63.1401C63.6901 30 64.1401 29.55 64.1401 29C64.1201 28.45 63.6801 28 63.1201 28ZM32.1201 48C21.2901 48.11 11.2401 42.38 5.82013 33H58.4301C53.0101 42.38 42.9601 48.11 32.1201 48Z" fill="currentColor"/>
    <path d="M26.6801 11.9C26.9601 12.04 27.2901 12.04 27.5701 11.9C28.2401 11.56 34.1201 8.5 34.1201 4.5C34.1201 2.02 32.1001 0 29.6201 0C28.7301 0 27.8601 0.26001 27.1201 0.76001C26.3801 0.26001 25.5101 0 24.6201 0C22.1401 0 20.1201 2.02 20.1201 4.5C20.1201 8.5 26.0101 11.56 26.6801 11.9ZM24.6201 2C25.2901 2 25.9401 2.27 26.4001 2.75C26.8001 3.14 27.4301 3.14 27.8301 2.75C28.3001 2.27 28.9401 1.99 29.6101 2C30.9901 2 32.1101 3.12 32.1101 4.5C32.1101 6.65 28.8301 8.91 27.1101 9.87C25.3901 8.91 22.1101 6.65 22.1101 4.5C22.1201 3.12 23.2401 2 24.6201 2Z" fill="currentColor"/>
    <path d="M52.1201 37C52.6701 37.01 53.1101 36.57 53.1201 36.02C53.1201 36.01 53.1201 36.01 53.1201 36C53.1201 35.73 53.0101 35.48 52.8301 35.29C52.4401 34.9 51.8101 34.9 51.4201 35.28C51.2301 35.47 51.1201 35.73 51.1201 36C51.1301 36.55 51.5701 36.99 52.1201 37Z" fill="currentColor"/>
    <path d="M37.12 44.9999C37.67 44.9999 38.12 44.56 38.13 44.01C38.13 43.74 38.02 43.48 37.83 43.29C37.43 42.92 36.81 42.92 36.41 43.29C36.02 43.68 36.02 44.3099 36.4 44.6999C36.6 44.8899 36.85 44.9999 37.12 44.9999Z" fill="currentColor"/>
  </g>
</svg>
