<svg width="71" height="71" viewBox="0 0 71 71" fill="none" xmlns="http://www.w3.org/2000/svg">
<g>
<path d="M22.5 46.9L19.3 50.4L17.9 48.9C17.5 48.4 16.6 48.4 16.1 48.8C15.6 49.2 15.6 50.1 16 50.6L18.3 53.1C18.5 53.3 18.9 53.5 19.2 53.5C19.6 53.5 19.9 53.4 20.1 53.1L24.3 48.7C24.7 48.2 24.7 47.4 24.2 46.9C23.8 46.4 23 46.4 22.5 46.9Z" fill="currentColor"/>
<path d="M38.5 45.8L37.5 45.6C36.5 45.4 35.7 44.6 35.4 43.7C35 42.7 35.1 41.7 35.6 40.8L36.1 39.9C36.7 38.9 36.5 37.6 35.7 36.7L33.5 34.5C32.7 33.7 31.4 33.5 30.3 34.1L29.4 34.6C28.5 35.1 27.5 35.2 26.5 34.7C25.5 34.3 24.9 33.5 24.7 32.6L24.5 31.6C24.2 30.4 23.2 29.6 22 29.6H18.8C17.6 29.6 16.6 30.4 16.3 31.6L15.9 32.6C15.7 33.6 14.9 34.4 14 34.7C13 35.1 12 35 11.1 34.5L10.2 34C9.2 33.4 7.9 33.6 7 34.4L4.8 36.6C4 37.4 3.8 38.7 4.4 39.8L4.9 40.7C5.4 41.6 5.5 42.6 5 43.6C4.6 44.6 3.8 45.2 2.9 45.4L1.9 45.6C0.8 46.1 0 47.2 0 48.4V51.6C0 52.8 0.8 53.8 2 54.1L3 54.3C4 54.5 4.8 55.3 5.1 56.2C5.5 57.2 5.4 58.2 4.9 59.1L4.4 60C3.8 61 4 62.3 4.8 63.2L7 65.3C7.8 66.1 9.1 66.3 10.2 65.7L11.1 65.2C12 64.7 13 64.6 14 65C15 65.4 15.6 66.2 15.8 67.1L16 68.1C16.3 69.3 17.3 70.1 18.5 70.1H21.7C22.9 70.1 23.9 69.3 24.2 68.1L24.4 67.1C24.6 66.1 25.4 65.3 26.3 65C27.3 64.6 28.3 64.7 29.2 65.2L30.1 65.7C31.1 66.3 32.4 66.1 33.3 65.3L35.5 63.1C36.3 62.3 36.5 61 35.9 59.9L35.4 59C34.9 58.1 34.8 57.1 35.3 56.1C35.7 55.1 36.5 54.5 37.4 54.3L38.4 54.1C39.6 53.8 40.4 52.8 40.4 51.6V48.3C40.4 47.2 39.6 46.1 38.5 45.8ZM37.9 51.5L36.8 51.9C35.1 52.3 33.6 53.6 33 55.3C32.3 57 32.4 58.8 33.4 60.4L33.9 61.4L31.5 63.7L30.6 63.2C29 62.3 27.2 62.2 25.5 62.8C23.9 63.5 22.6 64.9 22.2 66.6L21.8 67.6L18.6 67.5L18.4 66.5C18 64.8 16.7 63.3 15 62.7C14.3 62.4 13.5 62.3 12.8 62.3C11.8 62.3 10.8 62.6 9.9 63.1L8.9 63.6L6.6 61.2L7 60.3C8 58.7 8 56.9 7.4 55.2C6.7 53.5 5.3 52.3 3.6 51.9L2.5 51.5L2.6 48.3L3.6 48.1C5.3 47.7 6.8 46.4 7.4 44.7C8.1 43 8 41.1 7.1 39.6L6.6 38.6L9 36.3L9.9 36.8C11.5 37.7 13.3 37.8 15 37.2C16.6 36.5 17.9 35.1 18.3 33.4L18.7 32.3L21.9 32.4L22.1 33.4C22.5 35.1 23.8 36.6 25.5 37.2C27.2 37.9 29 37.8 30.6 36.8L31.6 36.3L33.9 38.7L33.4 39.6C32.4 41.2 32.4 43 33 44.7C33.7 46.4 35.1 47.6 36.8 48L37.9 48.4V51.5V51.5Z" fill="currentColor"/>
<path d="M20.2 39.6C14.5 39.6 9.90002 44.3 9.90002 49.9C9.90002 55.5 14.6 60.2 20.2 60.2C25.8 60.2 30.6 55.7 30.6 50C30.6 44.3 25.9 39.6 20.2 39.6ZM20.2 57.7C15.9 57.7 12.4 54.2 12.4 49.9C12.4 45.6 15.9 42.1 20.2 42.1C24.5 42.1 28 45.6 28 49.9C28.1 54.3 24.5 57.7 20.2 57.7Z" fill="currentColor"/>
<path d="M11.1 27.4C11.8 27.4 12.4 26.8 12.4 26.1V16.9C12.4 15.4 13.6 14.2 15.1 14.2H23.5L20.9 16.8C20.4 17.3 20.4 18.1 20.9 18.6C21.1 18.8 21.5 19 21.8 19C22.1 19 22.5 18.9 22.7 18.6L27.4 13.9C27.9 13.4 27.9 12.6 27.4 12.1L22.7 7.40002C22.2 6.90002 21.4 6.90002 20.9 7.40002C20.4 7.90002 20.4 8.70002 20.9 9.20002L23.5 11.8H15.1C12.3 11.8 9.90002 14.1 9.90002 17V26.2C9.90002 26.8 10.5 27.4 11.1 27.4Z" fill="currentColor"/>
<path d="M60.6 41.2C59.9 41.2 59.3 41.8 59.3 42.5V51.7C59.3 53.2 58.1 54.4 56.6 54.4H48.2L50.8 51.8C51.3 51.3 51.3 50.5 50.8 50C50.3 49.5 49.5 49.5 49 50L44.3 54.7C44.1 54.9 43.9 55.2 43.9 55.6C43.9 56 44 56.3 44.3 56.5L49 61.2C49.2 61.4 49.6 61.6 49.9 61.6C50.2 61.6 50.6 61.5 50.8 61.2C51.3 60.7 51.3 59.9 50.8 59.4L48.2 56.8H56.6C59.4 56.8 61.8 54.5 61.8 51.6V42.5C61.8 41.7 61.3 41.2 60.6 41.2Z" fill="currentColor"/>
<path d="M51.5 0C41.3 0 32.9 8.3 32.9 18.6C32.9 28.9 41.2 37.2 51.5 37.2C61.8 37.2 70.1 28.9 70.1 18.6C70.1 8.3 61.8 0 51.5 0ZM64.9 19.9H67.6C67.3 23.4 65.9 26.6 63.8 29.1L61.9 27.2C61.4 26.7 60.6 26.7 60.1 27.2C59.6 27.7 59.6 28.5 60.1 29L62 30.9C59.5 33 56.2 34.4 52.8 34.7V32C52.8 31.3 52.2 30.7 51.5 30.7C50.8 30.7 50.2 31.3 50.2 32V34.7C46.7 34.4 43.5 33 41 30.9L42.9 29C43.4 28.5 43.4 27.7 42.9 27.2C42.4 26.7 41.6 26.7 41.1 27.2L39.2 29.1C37.1 26.6 35.7 23.3 35.4 19.9H38C38.7 19.9 39.3 19.3 39.3 18.6C39.3 17.9 38.9 17.3 38.2 17.3H35.5C35.8 13.8 37.2 10.6 39.3 8.1L41.2 10C41.4 10.2 41.8 10.4 42.1 10.4C42.4 10.4 42.8 10.3 43 10C43.5 9.5 43.5 8.7 43 8.2L41.1 6.3C43.6 4.2 46.9 2.8 50.3 2.5V5.2C50.3 5.9 50.9 6.5 51.6 6.5C52.3 6.5 52.9 5.9 52.9 5.2V2.5C56.4 2.8 59.6 4.2 62.1 6.3L60.2 8.2C59.7 8.7 59.7 9.5 60.2 10C60.4 10.2 60.8 10.4 61.1 10.4C61.4 10.4 61.8 10.3 62 10L63.9 8.1C66 10.6 67.4 13.9 67.7 17.3H65C64.3 17.3 63.7 17.9 63.7 18.6C63.7 19.3 64.2 19.9 64.9 19.9Z" fill="currentColor"/>
<path d="M58.2 17.3H52.7999V10.7C52.7999 10 52.2 9.40002 51.5 9.40002C50.8 9.40002 50.2 10 50.2 10.7V18.5C50.2 19.2 50.8 19.8 51.5 19.8H58.0999C58.7999 19.8 59.4 19.2 59.4 18.5C59.4 17.8 58.9 17.3 58.2 17.3Z" fill="currentColor"/>
</g>
</svg>
