<svg width="76" height="64" viewBox="0 0 76 64" fill="none" xmlns="http://www.w3.org/2000/svg">
<g>
<path d="M74.5999 44.1C73.1999 41.8 70.1999 42.3001 68.5999 42.9001L55.7999 47.3C55.7999 47.1 55.7999 47 55.7999 46.8C55.7999 44.2 53.6999 42.2001 51.1999 42.2001H40.2999C36.4999 38.5001 31.0999 36.2 24.5999 35.6C21.0999 35.2 18.1999 35.4 16.6999 35.6V35.5C16.6999 34 15.4999 32.8 13.9999 32.8H2.19993C1.79993 32.8 1.39993 33.1 1.29993 33.5C-0.600068 41 0.799932 47.7 2.29993 52C3.89993 56.7 5.89993 59.6001 5.99993 59.7001C6.19993 59.9001 6.49993 60.1 6.79993 60.1H13.7999C14.9999 60.1 15.5999 59.6 15.9999 59.3C16.6999 58.5 16.6999 57.6 16.6999 57.3V56C20.7999 57.4 33.7999 61.8 38.4999 63C39.5999 63.3 40.6999 63.4001 41.6999 63.4001C46.3999 63.4001 50.7999 61.2 50.9999 61.1C52.9999 60 70.9999 50.5001 71.8999 49.9001L71.9999 49.8C72.4999 49.5 73.4999 48.9 74.1999 48C75.1999 46.7 75.2999 45.4 74.5999 44.1ZM2.89993 34.6H9.79993V58.3H7.29993C5.99993 56.2 0.299932 46.3 2.89993 34.6ZM14.5999 58.1C14.3999 58.3 14.1999 58.3 13.7999 58.3H11.5999V34.6H13.9999C14.4999 34.6 14.7999 35.0001 14.7999 35.4001V36.5V54.6V57.3C14.7999 57.3 14.7999 57.3001 14.7999 57.4001C14.7999 57.4001 14.8999 57.8 14.5999 58.1ZM70.8999 48.3C70.1999 48.7 58.0999 55.2001 50.0999 59.4001C49.9999 59.4001 43.9999 62.5001 38.8999 61.2001C34.0999 60.0001 19.7999 55.1 16.6999 54.1V37.4001C19.7999 37.1001 31.7999 36.4 39.2999 43.8C39.4999 44 39.6999 44.1 39.9999 44.1H51.2999C52.7999 44.1 54.0999 45.4001 54.0999 46.9001C54.0999 48.4001 52.7999 49.7001 51.2999 49.7001H34.2999C33.7999 49.7001 33.3999 50.1 33.3999 50.6C33.3999 51.1 33.7999 51.5 34.2999 51.5H51.2999C52.7999 51.5 54.1999 50.8 54.9999 49.6L69.3999 44.6C69.3999 44.6 72.1999 43.5 73.0999 45C73.2999 45.6 73.4999 46.6 70.8999 48.3Z" fill="currentColor" stroke="currentColor" stroke-width="0.75" stroke-miterlimit="10"/>
<path d="M53.9 0.400024C51.1 0.400024 48.4 1.50002 46.4 3.40002C44.4 1.50002 41.7 0.400024 38.9 0.400024C32.9 0.400024 28 5.30002 28 11.3C28 12.6 28.2 13.9 28.7 15.1C28.7 15.1 28.7 15.1 28.7 15.2C29 15.9 29.3 16.6 29.7 17.2C31.6 20.5 36.3 27 45.7 33.4C45.7 33.4 45.8 33.4 45.8 33.5H45.9C45.9 33.5 45.9 33.5 46 33.5H46.1H46.2H46.3H46.4H46.5C46.5 33.5 46.6 33.5 46.6 33.4C56.4 27 61 20.5 63 17.2C63.4 16.6 63.8 15.9 64 15.2C64 15.2 64 15.2 64 15.1C64.5 13.9 64.7 12.6 64.7 11.3C64.8 5.20003 59.9 0.400024 53.9 0.400024ZM46.4 31.5C37.6 25.5 33.3 19.4 31.5 16.3C31 15.5 30.7 14.9 30.6 14.6C30.2 13.6 30 12.5 30 11.4C30 6.50002 34 2.50002 38.9 2.50002C41.5 2.50002 44 3.60002 45.7 5.60002C45.7 5.60002 45.7 5.60002 45.8 5.60002C45.8 5.60002 45.8 5.60002 45.9 5.60002C47.6 3.60002 50.1 2.50002 52.7 2.50002C57.6 2.50002 61.6 6.50002 61.6 11.4C61.6 12.5 61.4 13.6 61 14.6C60.9 14.9 60.6 15.5 60.1 16.3C59.5 19.3 55.2 25.4 46.4 31.5Z" fill="currentColor" stroke="currentColor" stroke-width="0.75" stroke-miterlimit="10"/>
</g>
</svg>
