<svg width="79" height="79" viewBox="0 0 79 79" fill="none" xmlns="http://www.w3.org/2000/svg">
<g clip-path="url(#clip0)">
<path d="M23.76 21.42C24.91 22.44 26.39 23.02 27.93 23.05C28.14 23.05 28.36 23.04 28.57 23.02C30.65 22.72 32.5 21.54 33.63 19.77L31.41 18.22C30.72 19.34 29.57 20.11 28.27 20.33C27.55 20.4 26.82 20.23 26.2 19.86C26.12 16.51 28.72 13.72 32.07 13.57C35.45 13.72 38.07 16.58 37.94 19.96V23.83H40.65V19.96C40.52 16.58 43.14 13.72 46.52 13.57C49.86 13.72 52.47 16.52 52.38 19.86C51.76 20.23 51.03 20.39 50.31 20.33C49.01 20.11 47.87 19.34 47.17 18.22L44.95 19.77C46.08 21.54 47.93 22.73 50.02 23.02C50.23 23.04 50.44 23.05 50.66 23.05C52.2 23.02 53.68 22.44 54.83 21.42C57.71 22.12 59.71 24.74 59.62 27.7C59.61 28.41 59.49 29.12 59.26 29.79C58.16 31.59 56.89 32.58 55.72 32.54C54.2 32.49 52.61 30.81 51.37 27.93L48.91 29C50.61 32.94 53.01 35.15 55.66 35.23H55.81C57.97 35.08 59.92 33.87 61.03 32.01C65.05 34.53 66.27 39.84 63.74 43.86C63.05 44.96 62.12 45.89 61.03 46.57C59.9 44.66 57.88 43.46 55.66 43.36C53.01 43.44 50.61 45.66 48.91 49.59L51.4 50.67C52.64 47.79 54.23 46.11 55.75 46.06C56.91 46.03 58.19 47.02 59.29 48.81C59.52 49.48 59.64 50.19 59.65 50.9C59.74 53.85 57.75 56.47 54.88 57.18C53.56 56.01 51.81 55.43 50.05 55.59C47.97 55.89 46.12 57.07 44.98 58.84L47.2 60.39C47.89 59.27 49.03 58.5 50.34 58.28C51.06 58.21 51.79 58.38 52.41 58.75C52.49 62.09 49.89 64.89 46.55 65.04C43.17 64.89 40.54 62.03 40.68 58.65V54.8H37.97V58.67C38.1 62.05 35.48 64.91 32.1 65.06C28.76 64.91 26.15 62.11 26.23 58.77C26.85 58.4 27.58 58.24 28.3 58.3C29.6 58.52 30.74 59.29 31.44 60.41L33.66 58.86C32.53 57.09 30.68 55.9 28.6 55.61C26.84 55.45 25.09 56.03 23.77 57.2C20.9 56.49 18.91 53.88 19 50.92C19.01 50.21 19.13 49.51 19.36 48.84C20.47 47.04 21.76 46.05 22.9 46.08C24.42 46.13 26.01 47.81 27.25 50.69L29.74 49.61C28.04 45.67 25.64 43.46 22.99 43.38C20.77 43.48 18.76 44.69 17.62 46.6C13.6 44.08 12.38 38.77 14.9 34.75C15.59 33.65 16.52 32.72 17.62 32.03C18.73 33.89 20.68 35.09 22.83 35.24H22.98C25.63 35.16 28.03 32.93 29.73 29.01L27.24 27.93C26 30.81 24.41 32.49 22.89 32.54C21.75 32.57 20.46 31.58 19.35 29.78C19.12 29.11 19 28.41 18.99 27.7C18.89 24.73 20.89 22.12 23.76 21.42ZM16.46 29.53C11.06 32.68 9.23997 39.6 12.38 45C13.36 46.69 14.77 48.09 16.46 49.08C16.33 49.68 16.27 50.3 16.26 50.92C16.17 55.31 19.26 59.11 23.57 59.92C24.04 64.3 27.67 67.65 32.07 67.77C35.05 67.74 37.8 66.14 39.3 63.56C40.8 66.14 43.55 67.74 46.53 67.77C50.93 67.66 54.56 64.3 55.03 59.92C59.34 59.11 62.43 55.3 62.34 50.92C62.34 50.3 62.27 49.68 62.14 49.08C67.54 45.93 69.36 39.01 66.22 33.61C65.24 31.92 63.83 30.52 62.14 29.53C62.27 28.92 62.34 28.31 62.34 27.69C62.43 23.31 59.34 19.5 55.03 18.69C54.56 14.31 50.93 10.96 46.53 10.85C43.55 10.88 40.8 12.48 39.3 15.06C37.8 12.48 35.05 10.88 32.07 10.85C27.67 10.96 24.03 14.32 23.57 18.69C19.26 19.5 16.16 23.31 16.26 27.69C16.27 28.31 16.33 28.93 16.46 29.53Z" fill="currentColor"/>
<path d="M40.66 0H37.95V8.13H40.66V0Z" fill="currentColor"/>
<path d="M40.66 70.48H37.95V78.61H40.66V70.48Z" fill="currentColor"/>
<path d="M78.61 37.95H70.48V40.66H78.61V37.95Z" fill="currentColor"/>
<path d="M8.13 37.95H0V40.66H8.13V37.95Z" fill="currentColor"/>
<path d="M66.138 10.5552L60.3901 16.3047L62.3066 18.2207L68.0546 12.4712L66.138 10.5552Z" fill="currentColor"/>
<path d="M16.2995 60.3961L10.5508 66.1448L12.467 68.061L18.2157 62.3123L16.2995 60.3961Z" fill="currentColor"/>
<path d="M62.3074 60.3966L60.3911 62.3129L66.1398 68.0616L68.0561 66.1453L62.3074 60.3966Z" fill="currentColor"/>
<path d="M12.4667 10.5565L10.5504 12.4727L16.2991 18.2215L18.2154 16.3052L12.4667 10.5565Z" fill="currentColor"/>
<path d="M33.8901 36.6C34.6401 36.6 35.2401 37.21 35.2401 37.95H37.9501C37.9501 35.7 36.1301 33.88 33.8801 33.88C31.6301 33.88 29.8101 35.7 29.8101 37.95H32.5201C32.5301 37.2 33.1401 36.6 33.8901 36.6Z" fill="currentColor"/>
<path d="M44.73 36.6C45.48 36.6 46.08 37.21 46.08 37.95H48.79C48.79 35.7 46.97 33.88 44.72 33.88C42.47 33.88 40.65 35.7 40.65 37.95H43.36C43.37 37.2 43.98 36.6 44.73 36.6Z" fill="currentColor"/>
<path d="M33.8901 40.66H31.1801C31.1801 45.89 34.8301 50.15 39.3101 50.15C43.8001 50.15 47.4401 45.89 47.4401 40.66H44.7301C44.7301 44.4 42.3001 47.44 39.3101 47.44C36.3201 47.44 33.8901 44.4 33.8901 40.66Z" fill="currentColor"/>
</g>
<defs>
<clipPath id="clip0">
<rect width="78.62" height="78.62" fill="white"/>
</clipPath>
</defs>
</svg>
