<svg width="54" height="51" viewBox="0 0 54 51" fill="none" xmlns="http://www.w3.org/2000/svg">
  <g id="hard_emotions">
    <path d="M51.0569 48.3767C50.7194 48.6861 50.41 48.8455 50.2506 48.9017C49.1912 48.1798 43.9127 44.6733 39.7125 43.7077C40.7156 43.3701 41.7844 43.1264 42.8814 43.0701C43.3408 43.0514 43.6971 42.6576 43.669 42.1982C43.6502 41.7388 43.2377 41.3825 42.797 41.4106C37.481 41.6732 32.9151 45.6203 32.6714 45.8359C31.6401 46.8954 29.3618 47.786 27.2336 47.936C25.1522 48.0861 23.6896 47.9079 22.7426 47.3923C22.1332 47.0547 21.2988 46.3797 21.1488 44.3921C21.13 44.1577 21.0269 43.9608 20.8581 43.8202C20.8488 43.7452 20.8394 43.6795 20.8113 43.6139C20.7738 41.195 18.2236 38.9824 14.689 38.4292C14.239 38.3636 13.8077 38.6636 13.7327 39.123C13.6577 39.573 13.9765 40.0043 14.4265 40.0793C17.2298 40.52 19.3862 42.2919 19.1236 43.9514C19.1143 44.0358 19.1237 44.1202 19.133 44.2046C18.6174 46.0984 16.0391 47.3266 13.1514 46.9797C11.6138 46.7922 10.2262 46.1922 9.2418 45.2828C8.33237 44.439 7.90109 43.4451 8.0136 42.4701C8.0511 42.1607 7.90108 41.8794 7.67606 41.7107C7.90108 41.5231 8.03233 41.2231 7.96671 40.9137C7.61981 39.1886 9.06365 37.4354 11.1919 37.0135C11.6419 36.9197 11.9326 36.4791 11.8482 36.0291C11.7545 35.579 11.3232 35.2884 10.8638 35.3728C7.83544 35.9822 5.80095 38.6167 6.33536 41.2419C6.37287 41.4481 6.49474 41.6263 6.65413 41.7388C6.50412 41.8607 6.401 42.0388 6.37287 42.2451C6.33537 42.2357 6.30723 42.2263 6.26973 42.2263C5.06965 42.2169 3.93521 41.6263 3.08203 40.5668C2.19135 39.4605 1.70381 37.9792 1.72256 36.4134C1.74131 34.8383 2.2476 33.3758 3.16641 32.2788C4.03834 31.2288 5.21966 30.6756 6.38223 30.6756C6.86038 30.6756 7.21665 30.3099 7.22603 29.8505C7.22603 29.6818 7.16978 29.5318 7.0854 29.4005C7.07602 29.2974 7.05728 29.1943 7.01041 29.1005C5.89471 26.7847 7.83546 23.5314 11.3232 21.8438C13.067 21 14.914 20.6812 16.536 20.9437C17.4548 21.0937 18.2236 21.4125 18.8049 21.8907C17.933 21.9938 17.1079 22.2657 16.3953 22.7157C15.3453 23.3908 14.6327 24.3846 14.3796 25.5284C14.2765 25.9784 14.5671 26.4191 15.0172 26.5222C15.0828 26.541 15.139 26.541 15.1953 26.541C15.5797 26.541 15.9266 26.2784 16.011 25.8847C16.1704 25.1627 16.611 24.5533 17.2954 24.1221C18.1955 23.5501 19.3768 23.372 20.5394 23.6251C20.98 23.7283 21.4019 23.4564 21.5144 23.0251C21.6176 22.9126 21.7113 22.7907 21.7488 22.6313C22.0488 21.3 23.3989 20.2593 25.5459 19.6874C27.8804 19.0592 30.7963 19.0967 33.7683 19.7812C36.7404 20.4656 39.3843 21.7032 41.2125 23.2783C42.8908 24.7315 43.6596 26.2597 43.3502 27.591C43.2939 27.8348 43.3595 28.0598 43.4814 28.2473C43.0126 28.2192 42.5439 28.2286 42.0563 28.2567C41.5969 28.2942 41.25 28.688 41.2875 29.1474C41.325 29.6068 41.7188 29.9443 42.1782 29.9162C45.319 29.6818 48.0942 31.0412 48.2255 32.8695C48.3099 34.0602 47.7754 34.9134 46.5847 35.4759C46.4347 35.5415 46.3316 35.6634 46.2566 35.7853C46.0035 35.879 45.7972 36.0759 45.7316 36.3666C45.6284 36.8166 45.9097 37.2666 46.3597 37.3698C47.5879 37.651 48.413 38.6917 48.1786 39.6762C48.038 40.2762 47.7754 40.5575 47.5504 40.6887L46.9973 40.0699C46.6879 39.7324 46.1628 39.6949 45.8253 40.0043C45.4878 40.3137 45.4597 40.8387 45.7597 41.1856L51.6194 47.7017C51.5444 47.8423 51.3663 48.1048 51.0569 48.3767ZM53.0633 46.7828L48.6849 41.9075C49.238 41.4763 49.6318 40.8387 49.8193 40.0231C50.1381 38.6448 49.4724 37.2385 48.2536 36.3947C49.4255 35.5134 50.0068 34.2477 49.9037 32.7382C49.7443 30.5443 47.6254 28.8661 44.7284 28.3692C44.8503 28.2567 44.944 28.1161 44.9909 27.9379C45.4409 25.9784 44.4846 23.8689 42.3095 21.9938C40.275 20.2406 37.3779 18.8717 34.1527 18.1311C30.9181 17.3904 27.7117 17.3623 25.124 18.056C22.8552 18.6655 21.2801 19.7718 20.5206 21.225C19.6675 20.2218 18.383 19.5374 16.8079 19.2843C14.8484 18.9749 12.6545 19.3405 10.6106 20.325C6.60725 22.2657 4.35712 26.0628 5.25718 29.1099C3.99147 29.3724 2.82889 30.0849 1.91009 31.1913C0.747513 32.5788 0.100586 34.4258 0.0818349 36.376C0.0630837 38.3354 0.681878 40.1918 1.81632 41.5981C2.98827 43.0514 4.58211 43.867 6.28847 43.8764H6.29785C6.37286 43.8764 6.43849 43.8577 6.50412 43.8389C6.73851 44.7952 7.29167 45.7047 8.14484 46.4922C9.38242 47.636 11.0982 48.3954 12.992 48.6205C13.3764 48.6673 13.7608 48.6861 14.1359 48.6861C16.536 48.6861 18.6643 47.7673 19.8737 46.3141C20.2675 47.4485 20.9613 48.2923 21.9644 48.8455C22.9489 49.3893 24.224 49.6424 25.9116 49.6424C26.371 49.6424 26.8585 49.6236 27.3742 49.5861C29.4462 49.4361 32.362 48.5642 33.8433 47.036C33.8621 47.0172 34.8559 46.1641 36.4029 45.2452C36.5623 45.2921 36.731 45.3015 36.8904 45.2359C39.3468 44.3546 45.8159 47.861 49.3599 50.2893C49.5568 50.4581 49.8099 50.5612 50.0912 50.58C50.1193 50.58 50.1381 50.58 50.1662 50.58C50.7569 50.58 51.4976 50.2237 52.182 49.6049C52.8945 48.9674 53.3445 48.2267 53.3727 47.6267C53.3727 47.3079 53.2695 47.0079 53.0633 46.7828Z" fill="currentColor"/>
    <path d="M30.7025 31.66C28.1992 32.1663 26.3897 34.0508 26.1272 36.1697C24.8521 35.8228 23.3989 35.7665 21.9363 36.0665C21.4863 36.1603 21.1956 36.6009 21.2894 37.051C21.3832 37.501 21.8238 37.7916 22.2739 37.7073C23.7083 37.4166 25.124 37.501 26.2397 37.9417C27.2429 38.3354 27.8711 38.9636 28.0211 39.7043C28.1055 40.098 28.4524 40.3793 28.8368 40.3793C28.893 40.3793 28.9493 40.3699 28.9961 40.3606C29.4462 40.2668 29.7368 39.8355 29.6524 39.3761C29.4462 38.3542 28.7899 37.4823 27.7867 36.8635C27.6836 35.2509 29.0524 33.7039 31.04 33.3007C31.4901 33.207 31.7807 32.7663 31.687 32.3163C31.5838 31.8663 31.1525 31.5756 30.7025 31.66Z" fill="currentColor"/>
    <path d="M33.9839 23.3251C32.5682 22.7626 30.8244 22.6501 29.0805 23.0064C28.6305 23.1001 28.3398 23.5408 28.4242 23.9908C28.518 24.4408 28.9493 24.7315 29.4087 24.6471C30.8431 24.3564 32.2495 24.4408 33.3745 24.8909C34.3777 25.2846 35.0059 25.9128 35.1559 26.6535C35.2403 27.0472 35.5872 27.3191 35.9716 27.3191C36.0278 27.3191 36.0841 27.3097 36.1403 27.3004C36.5904 27.2066 36.881 26.766 36.7966 26.3159C36.5247 24.994 35.5309 23.9345 33.9839 23.3251Z" fill="currentColor"/>
    <path d="M35.1278 13.0589C35.2496 13.1245 35.3903 13.162 35.5215 13.162C35.8216 13.162 36.1028 13.0026 36.2528 12.7214L40.2656 5.2584C40.4812 4.85525 40.3312 4.34897 39.9281 4.13333C39.5249 3.91769 39.0186 4.0677 38.803 4.47085L34.7903 11.9338C34.5746 12.337 34.7246 12.8433 35.1278 13.0589Z" fill="currentColor"/>
    <path d="M14.4452 13.9121C14.6046 14.1464 14.8671 14.2683 15.1297 14.2683C15.2984 14.2683 15.4578 14.2214 15.6078 14.1183C15.9828 13.8558 16.0766 13.3402 15.8141 12.9558L10.9669 5.99905C10.7044 5.62403 10.1887 5.53029 9.8043 5.7928C9.42928 6.05532 9.33552 6.57097 9.59804 6.95537L14.4452 13.9121Z" fill="currentColor"/>
    <path d="M24.0458 11.8682C24.5052 11.8682 24.8802 11.4931 24.8802 11.0337V1.41438C24.8802 0.954979 24.5052 0.579956 24.0458 0.579956C23.5864 0.579956 23.2114 0.954979 23.2114 1.41438V11.0337C23.2114 11.4931 23.5864 11.8682 24.0458 11.8682Z" fill="currentColor"/>
  </g>
</svg>
