<svg width="284" height="195" viewBox="0 0 284 195" fill="none" xmlns="http://www.w3.org/2000/svg">
  <g id="healthy_hands">
    <path fill-rule="evenodd" clip-rule="evenodd" d="M276.102 1.83876C269.998 -1.51424 260.702 -0.838238 254.711 8.57776C254.694 8.60623 254.677 8.63424 254.659 8.66176L232.396 45.1148C229.707 43.5599 226.603 42.8769 223.51 43.1598C219.588 43.5118 216.06 45.3538 213.575 48.3468C211.985 50.2608 206.732 56.8258 201.168 63.7778C195.895 70.3698 190.441 77.1848 188.918 79.0168C183.633 85.3798 176.894 90.2718 169.759 95.4518C159.637 102.799 148.569 110.835 142 123.943C135.431 110.835 124.36 102.799 114.238 95.4528C107.103 90.2718 100.364 85.3798 95.0808 79.0168C93.5558 77.1848 88.0998 70.3618 82.8198 63.7638C77.2628 56.8198 72.0118 50.2608 70.4218 48.3468C67.9378 45.3538 64.4088 43.5118 60.4868 43.1598C57.3568 42.8798 54.2828 43.5678 51.6008 45.1148L29.3408 8.66476L29.2858 8.57776C23.2998 -0.838238 13.9998 -1.51724 7.89582 1.84176C0.665823 5.81676 -2.03018 14.6918 1.62182 22.4828L1.64782 22.5358C3.20582 25.7738 6.99982 34.8298 11.3918 45.3138C17.5418 59.9908 25.1968 78.2598 31.6818 92.5328C40.1288 111.122 43.9168 116.349 58.7098 129.797L78.6638 147.944V149.639H75.4198C73.9482 149.639 72.5371 150.224 71.4967 151.265C70.4563 152.306 69.8718 153.717 69.8718 155.189V188.494C69.8718 189.965 70.4563 191.377 71.4967 192.417C72.5371 193.458 73.9482 194.043 75.4198 194.044H208.582C210.053 194.043 211.465 193.458 212.505 192.417C213.545 191.377 214.13 189.965 214.13 188.494V155.189C214.13 153.717 213.545 152.306 212.505 151.265C211.465 150.224 210.053 149.639 208.582 149.639H205.337V147.944L225.291 129.797C240.084 116.349 243.872 111.125 252.319 92.5328C258.804 78.2628 266.456 59.9968 272.606 45.3228C277.001 34.8328 280.796 25.7728 282.353 22.5358L282.379 22.4828C286.031 14.6928 283.336 5.81676 276.103 1.83876H276.102ZM87.9438 141.379L66.1738 121.581C52.5458 109.191 49.5838 105.102 41.7838 87.9388C35.3658 73.8158 27.7478 55.6338 21.6278 41.0228C17.0048 29.9888 13.3488 21.2658 11.6578 17.7478C10.1068 14.4148 11.9238 12.2958 13.2448 11.5698C15.4578 10.3528 17.9438 11.4448 19.8998 14.4978L44.6478 55.0158C44.1948 57.9878 44.5678 61.6758 46.3698 66.2358C51.5488 79.3288 57.9668 92.4078 63.9808 102.116C64.3648 102.735 64.867 103.273 65.4588 103.698C66.0505 104.123 66.7202 104.428 67.4297 104.594C68.1391 104.76 68.8744 104.786 69.5935 104.668C70.3126 104.55 71.0015 104.292 71.6208 103.908C72.2401 103.524 72.7778 103.022 73.203 102.43C73.6282 101.838 73.9327 101.168 74.0991 100.459C74.2655 99.7495 74.2906 99.0142 74.1728 98.2951C74.0551 97.576 73.7968 96.8871 73.4128 96.2678C67.7318 87.0938 61.6348 74.6598 56.6878 62.1498C54.5718 56.8038 55.9768 55.6248 56.5058 55.1798C56.9165 54.8297 57.3924 54.5645 57.9061 54.3992C58.4198 54.2339 58.9611 54.1719 59.4988 54.2168C60.4588 54.3038 61.3048 54.7368 61.8888 55.4398C63.4138 57.2758 68.8758 64.1018 74.1558 70.7018C79.7108 77.6438 84.9598 84.1998 86.5448 86.1118C92.7198 93.5468 100.346 99.0828 107.721 104.438C122.014 114.81 134.365 123.778 136.451 144.602V149.639H89.7608V145.487C89.7608 143.923 89.1018 142.434 87.9438 141.379ZM80.9668 182.943H136.452V160.74H80.9668V182.943V182.943ZM147.548 182.943H203.033V160.74H147.548V182.943V182.943ZM272.342 17.7478C270.651 21.2638 266.996 29.9908 262.369 41.0288C256.252 55.6368 248.634 73.8188 242.216 87.9388C234.416 105.105 231.454 109.191 217.826 121.584L196.056 141.379C195.484 141.899 195.026 142.533 194.713 143.241C194.401 143.948 194.239 144.713 194.239 145.487V149.639H147.549V144.605C149.635 123.779 161.986 114.813 176.279 104.438C183.654 99.0828 191.279 93.5478 197.455 86.1148C199.041 84.2008 204.284 77.6488 209.832 70.7138C215.118 64.1078 220.586 57.2768 222.112 55.4408C222.695 54.7378 223.545 54.3048 224.502 54.2178C225.04 54.1726 225.581 54.2345 226.095 54.3998C226.608 54.5651 227.084 54.8305 227.495 55.1808C228.023 55.6258 229.428 56.8048 227.313 62.1508C222.366 74.6608 216.268 87.0938 210.587 96.2678C209.811 97.5185 209.564 99.0261 209.901 100.459C210.237 101.892 211.128 103.132 212.379 103.908C213.63 104.683 215.137 104.93 216.57 104.594C218.003 104.258 219.243 103.367 220.019 102.116C226.033 92.4078 232.451 79.3288 237.633 66.2358C239.435 61.6758 239.808 57.9878 239.355 55.0158L264.1 14.4978C266.056 11.4448 268.542 10.3498 270.755 11.5698C272.075 12.2958 273.893 14.4118 272.342 17.7478Z" fill="currentColor"/>
  </g>
</svg>
