<svg viewBox="0 0 84 89" fill="none" xmlns="http://www.w3.org/2000/svg">
  <g id="healthy_feelings">
    <path d="M41.9708 1.00723C41.7269 1.03671 41.5023 1.15495 41.34 1.33938C41.1777 1.52382 41.089 1.76155 41.0908 2.00723V10.0072C41.1051 10.2678 41.2151 10.5139 41.3996 10.6984C41.5841 10.8829 41.8302 10.9929 42.0908 11.0072C42.356 11.0072 42.6103 10.9019 42.7979 10.7143C42.9854 10.5268 43.0908 10.2724 43.0908 10.0072V2.00723C43.0918 1.86517 43.0625 1.72456 43.005 1.59469C42.9474 1.46483 42.8628 1.34867 42.7568 1.25406C42.6509 1.15944 42.5259 1.08849 42.3904 1.04593C42.2549 1.00337 42.1118 0.99018 41.9708 1.00723ZM11.9708 11.0072C11.7917 11.0453 11.6255 11.1292 11.4884 11.2506C11.3513 11.3721 11.248 11.5269 11.1886 11.7001C11.1292 11.8733 11.1156 12.059 11.1493 12.239C11.183 12.419 11.2627 12.5872 11.3808 12.7273L18.3808 19.7273C18.4733 19.8212 18.5835 19.8959 18.705 19.9472C18.8265 19.9985 18.9568 20.0254 19.0887 20.0263C19.2206 20.0273 19.3513 20.0022 19.4735 19.9526C19.5957 19.903 19.7069 19.8299 19.8008 19.7373C19.8947 19.6447 19.9694 19.5345 20.0207 19.4131C20.072 19.2916 20.0989 19.1612 20.0999 19.0293C20.1008 18.8975 20.0757 18.7667 20.0261 18.6445C19.9765 18.5223 19.9034 18.4111 19.8108 18.3172L12.8108 11.3172C12.7045 11.2038 12.5732 11.1168 12.4274 11.063C12.2816 11.0091 12.1253 10.9901 11.9708 11.0072V11.0072ZM71.9708 11.0072C71.7103 11.0212 71.4643 11.1318 71.2808 11.3172L64.2808 18.3172C64.0938 18.5082 63.9903 18.7656 63.9931 19.0329C63.996 19.3001 64.1048 19.5552 64.2958 19.7422C64.4867 19.9292 64.7441 20.0327 65.0114 20.0299C65.2786 20.0271 65.5338 19.9182 65.7208 19.7273L72.7208 12.7273C72.8416 12.5765 72.9189 12.3956 72.9443 12.2041C72.9698 12.0126 72.9424 11.8178 72.8652 11.6408C72.788 11.4637 72.6639 11.3111 72.5062 11.1994C72.3486 11.0878 72.1634 11.0213 71.9708 11.0072ZM42.0408 18.0072C36.4712 18.0072 31.1298 20.2197 27.1915 24.158C23.2533 28.0963 21.0408 33.4377 21.0408 39.0072C20.9488 41.7655 21.4707 44.5097 22.5689 47.0415C23.6671 49.5734 25.3141 51.8297 27.3908 53.6472V53.6472C29.0208 55.4072 30.1408 57.4273 30.1408 58.9873V59.9873C30.2121 60.9191 30.5267 61.8158 31.0531 62.5879C31.5796 63.36 32.2994 63.9805 33.1408 64.3872C34.9628 65.4449 37.034 65.9972 39.1408 65.9873H45.1408C47.2478 65.9992 49.3195 65.4467 51.1408 64.3872C51.9827 63.9813 52.7031 63.3611 53.2297 62.5888C53.7562 61.8165 54.0704 60.9193 54.1408 59.9873V58.9873C54.1408 57.4273 55.2608 55.4072 56.8808 53.6472C58.9425 51.8261 60.5743 49.57 61.6586 47.0418C62.7428 44.5136 63.2525 41.7763 63.1508 39.0273C63.1508 33.4577 60.9383 28.1163 57 24.178C53.0618 20.2397 47.7203 18.0273 42.1508 18.0273L42.0408 18.0072ZM42.0408 20.0072C47.0799 20.0072 51.9126 22.009 55.4758 25.5722C59.039 29.1354 61.0408 33.9681 61.0408 39.0072C61.0408 44.6872 59.2808 48.7772 55.3908 52.2472L55.2908 52.3172C53.4908 54.3172 52.0508 56.5772 52.0508 58.9972V59.9972C52.0508 60.9472 51.3508 61.8972 50.0508 62.6872C48.5277 63.5545 46.8034 64.0063 45.0508 63.9972H39.0508C37.2987 64.0012 35.5758 63.5498 34.0508 62.6872C32.7508 61.8972 32.0508 60.9472 32.0508 59.9972V58.9972C32.0508 56.5772 30.6108 54.2772 28.8008 52.3172L28.7108 52.2472C24.8108 48.7772 23.0608 44.6872 23.0608 39.0072C23.0634 36.5113 23.5578 34.0403 24.5157 31.7354C25.4736 29.4306 26.8762 27.3371 28.6434 25.5746C30.4106 23.812 32.5079 22.4148 34.8152 21.463C37.1225 20.5112 39.5948 20.0233 42.0908 20.0273L42.0408 20.0072ZM42.0408 27.0072C39.6674 27.0072 37.3473 27.7111 35.3739 29.0296C33.4005 30.3482 31.8625 32.2224 30.9542 34.4151C30.046 36.6078 29.8083 39.0206 30.2713 41.3484C30.7344 43.6761 31.8773 45.8143 33.5555 47.4925C35.2337 49.1708 37.3719 50.3136 39.6997 50.7766C42.0275 51.2397 44.4403 51.002 46.633 50.0938C48.8257 49.1855 50.6998 47.6475 52.0184 45.6741C53.337 43.7007 54.0408 41.3806 54.0408 39.0072C54.0355 35.8367 52.7758 32.7972 50.5367 30.5525C48.2976 28.3078 45.2612 27.0405 42.0908 27.0273L42.0408 27.0072ZM42.0408 29.0072C44.0186 29.0072 45.952 29.5937 47.5965 30.6925C49.241 31.7913 50.5227 33.3531 51.2796 35.1804C52.0364 37.0077 52.2345 39.0184 51.8486 40.9582C51.4628 42.898 50.5104 44.6798 49.1118 46.0783C47.7133 47.4769 45.9315 48.4292 43.9917 48.8151C42.0519 49.2009 40.0412 49.0029 38.2139 48.2461C36.3867 47.4892 34.8249 46.2074 33.7261 44.563C32.6273 42.9185 32.0408 40.985 32.0408 39.0072C32.0421 37.6906 32.3034 36.3873 32.8096 35.1719C33.3159 33.9565 34.0571 32.8531 34.9909 31.9249C35.9247 30.9967 37.0325 30.2621 38.2509 29.7631C39.4693 29.2641 40.7742 29.0107 42.0908 29.0172L42.0408 29.0072ZM45.9108 36.0072C45.6544 36.0418 45.4214 36.1745 45.2608 36.3772L40.8608 41.6872L38.6208 40.1773C38.513 40.0915 38.3887 40.0289 38.2556 39.9934C38.1226 39.9579 37.9836 39.9503 37.8475 39.971C37.7113 39.9917 37.5809 40.0403 37.4644 40.1137C37.3479 40.1872 37.2479 40.284 37.1705 40.3979C37.0932 40.5119 37.0402 40.6406 37.0149 40.776C36.9896 40.9114 36.9926 41.0505 37.0236 41.1847C37.0546 41.3189 37.113 41.4452 37.1951 41.5558C37.2772 41.6664 37.3813 41.7588 37.5008 41.8272L40.5008 43.8272C40.7073 43.9693 40.9596 44.0286 41.2078 43.9934C41.456 43.9582 41.6819 43.8311 41.8408 43.6372L46.8408 37.6372C46.952 37.4755 47.0161 37.2861 47.026 37.0901C47.0359 36.8941 46.9912 36.6992 46.8969 36.5271C46.8025 36.355 46.6622 36.2125 46.4917 36.1154C46.3211 36.0183 46.1269 35.9705 45.9308 35.9773L45.9108 36.0072ZM1.91077 39.0072C1.65111 39.0442 1.41437 39.176 1.24629 39.3773C1.07821 39.5787 0.990742 39.8352 1.00078 40.0973C1.01202 40.2297 1.04957 40.3586 1.1112 40.4763C1.17284 40.5941 1.25733 40.6984 1.35976 40.7831C1.46218 40.8678 1.58047 40.9313 1.7077 40.9698C1.83493 41.0083 1.96856 41.021 2.10077 41.0072H10.1008C10.366 41.0072 10.6203 40.9019 10.8079 40.7143C10.9954 40.5268 11.1008 40.2724 11.1008 40.0072C11.1008 39.742 10.9954 39.4877 10.8079 39.3001C10.6203 39.1126 10.366 39.0072 10.1008 39.0072H1.91077ZM73.8108 39.0072C73.6795 39.0197 73.5519 39.0579 73.4353 39.1197C73.3188 39.1815 73.2155 39.2657 73.1315 39.3673C72.9618 39.5727 72.8806 39.837 72.9058 40.1023C72.931 40.3675 73.0605 40.6118 73.2659 40.7815C73.4712 40.9512 73.7356 41.0324 74.0008 41.0072H82.0008C82.266 41.0072 82.5203 40.9019 82.7079 40.7143C82.8954 40.5268 83.0008 40.2724 83.0008 40.0072C83.0008 39.742 82.8954 39.4877 82.7079 39.3001C82.5203 39.1126 82.266 39.0072 82.0008 39.0072H73.8108ZM19.0408 61.0072C18.7826 61.0188 18.5389 61.1299 18.3608 61.3172L11.3608 68.3172C11.1751 68.5069 11.0724 68.7625 11.0752 69.0279C11.078 69.2932 11.1861 69.5466 11.3758 69.7323C11.5654 69.9179 11.821 70.0206 12.0864 70.0178C12.3517 70.015 12.6051 69.9069 12.7908 69.7173L19.7908 62.7173C19.9156 62.57 19.9979 62.3916 20.0287 62.201C20.0595 62.0105 20.0377 61.8151 19.9657 61.6361C19.8937 61.457 19.7741 61.301 19.6199 61.1849C19.4657 61.0688 19.2828 60.997 19.0908 60.9773L19.0408 61.0072ZM64.8908 61.0072C64.7108 61.044 64.5435 61.1268 64.4052 61.2477C64.2669 61.3686 64.1624 61.5233 64.1019 61.6967C64.0414 61.8701 64.027 62.0563 64.0601 62.237C64.0932 62.4176 64.1727 62.5866 64.2908 62.7273L71.2908 69.7273C71.4764 69.9182 71.7303 70.0276 71.9966 70.0313C72.2629 70.0351 72.5198 69.9329 72.7108 69.7472C72.9017 69.5616 73.0111 69.3077 73.0149 69.0414C73.0186 68.7751 72.9164 68.5182 72.7308 68.3272L65.7308 61.3272C65.6245 61.2138 65.4932 61.1268 65.3474 61.073C65.2016 61.0192 65.0453 61.0001 64.8908 61.0172V61.0072ZM32.8908 71.0072C32.6256 71.0311 32.3807 71.1594 32.21 71.3638C32.0394 71.5682 31.9569 71.832 31.9808 72.0973C32.0046 72.3625 32.1329 72.6073 32.3373 72.778C32.5417 72.9486 32.8056 73.0311 33.0708 73.0072H51.0708C51.336 73.0072 51.5903 72.9019 51.7779 72.7143C51.9654 72.5268 52.0708 72.2724 52.0708 72.0072C52.0708 71.742 51.9654 71.4877 51.7779 71.3001C51.5903 71.1126 51.336 71.0072 51.0708 71.0072H32.8908ZM32.8908 78.0072C32.6256 78.0311 32.3807 78.1594 32.21 78.3638C32.0394 78.5682 31.9569 78.832 31.9808 79.0973C32.0046 79.3625 32.1329 79.6073 32.3373 79.778C32.5417 79.9486 32.8056 80.0311 33.0708 80.0072H51.0708C51.336 80.0072 51.5903 79.9019 51.7779 79.7143C51.9654 79.5268 52.0708 79.2724 52.0708 79.0072C52.0708 78.742 51.9654 78.4877 51.7779 78.3001C51.5903 78.1126 51.336 78.0072 51.0708 78.0072H32.8908ZM39.8908 85.0072C39.7595 85.0197 39.6319 85.0579 39.5153 85.1197C39.3988 85.1815 39.2955 85.2657 39.2115 85.3673C39.1274 85.469 39.0643 85.5862 39.0255 85.7123C38.9868 85.8384 38.9733 85.9709 38.9858 86.1023C38.9983 86.2336 39.0365 86.3611 39.0983 86.4777C39.16 86.5942 39.2442 86.6975 39.3458 86.7815C39.4475 86.8656 39.5648 86.9288 39.6909 86.9675C39.817 87.0062 39.9495 87.0197 40.0808 87.0072H44.0808C44.346 87.0072 44.6004 86.9019 44.7879 86.7143C44.9754 86.5268 45.0808 86.2724 45.0808 86.0072C45.0808 85.742 44.9754 85.4877 44.7879 85.3001C44.6004 85.1126 44.346 85.0072 44.0808 85.0072H39.8908Z" fill="currentColor" stroke="currentColor" stroke-width="2" stroke-miterlimit="10"/>
  </g>
</svg>
