<svg width="69" height="73" viewBox="0 0 69 73" fill="none" xmlns="http://www.w3.org/2000/svg">
<g clip-path="url(#clip0)">
<path d="M55.7 46V70.2H52.1V53.3C52.1 52.6 51.6 52.1 50.9 52.1H43.6C42.9 52.1 42.4 52.6 42.4 53.3V70.2H38.8V61.7001C38.8 61.0001 38.3 60.5 37.6 60.5H30.3C29.6 60.5 29.1 61.0001 29.1 61.7001V70.2H23V72.6H69V70.2H65.4V46C65.4 45.3 64.9 44.8 64.2 44.8H56.9C56.2 44.8 55.7 45.3 55.7 46ZM31.5 70.2V62.9001H36.3V70.2H31.5ZM44.8 70.2V54.5H49.6V70.2H44.8ZM58.1 47.2001H62.9V70.2H58.1V47.2001Z" fill="#706862"/>
<path d="M4.8 67.8H26.6V65.4H4.8C3.5 65.4 2.4 64.3 2.4 63V59.4C2.4 58.7 2.9 58.2 3.6 58.2H39.9V55.8H8.5V3.6C8.5 3 9 2.4 9.7 2.4H55.7C56.4 2.4 56.9 2.9 56.9 3.6V42.3H59.3V3.6C59.3 1.6 57.7 0 55.7 0H9.7C7.7 0 6.1 1.6 6.1 3.6V55.7H3.6C1.6 55.7 0 57.3 0 59.3V62.9C0 65.6 2.2 67.8 4.8 67.8Z" fill="#706862"/>
<path d="M42.4 23H30.3C29.6 23 29.1 23.5 29.1 24.2V36.3C29.1 37 29.6 37.5 30.3 37.5C33.4 37.5 36.4 36.4 38.8 34.4L41.5 37.1C41.7 37.3 42 37.5 42.4 37.5H47.2V35.1H42.9L40.5 32.7C42.5 30.3 43.6 27.3 43.6 24.2C43.6 23.5 43 23 42.4 23ZM38.8 31L36 28.2L34.3 29.9L37.1 32.7C35.5 34 33.6 34.8 31.5 35V25.4H41.1C40.9 27.5 40.1 29.4 38.8 31Z" fill="#706862"/>
<path d="M25.4 6.09998C18.1 6.09998 12.1 12.1 12.1 19.4C12.1 23.9 14.4 28.1 18.2 30.6V35.2H20.6V31.9C22.1 32.5 23.8 32.8 25.4 32.8C26.1 32.8 26.6 32.3 26.6 31.6V20.6H37.5C38.2 20.6 38.7 20.1 38.7 19.4C38.7 17.7 38.4 16.1 37.8 14.6H47.2V12.2H36.6C34.1 8.29998 29.9 6.09998 25.4 6.09998ZM20.6 29.1V21.8H18.2V27.5C13.9 23.7 13.3 17.1 17 12.6L24.3 19.9V30.2C22.9 30.1 21.7 29.7 20.6 29.1ZM36.2 18.2H25.9L18.6 10.9C23.1 7.29998 29.7 7.79998 33.5 12.1H27.8V14.5H35.1C35.7 15.7 36.1 16.9 36.2 18.2Z" fill="#706862"/>
<path d="M52 35.1H49.6V37.5H52V35.1Z" fill="#706862"/>
<path d="M52 12.1H49.6V14.5H52V12.1Z" fill="#706862"/>
<path d="M16.9 42.4H14.5V44.8H16.9V42.4Z" fill="#706862"/>
<path d="M53.3 42.4H19.4V44.8H53.3V42.4Z" fill="#706862"/>
<path d="M49.6 47.2H12.1V49.5999H49.6V47.2Z" fill="#706862"/>
<path d="M20.6 37.5H18.2V39.9H20.6V37.5Z" fill="#706862"/>
</g>
<defs>
<clipPath id="clip0">
<rect width="69" height="72.6" fill="white"/>
</clipPath>
</defs>
</svg>
