<svg viewBox="0 0 71 71" fill="none" xmlns="http://www.w3.org/2000/svg">
  <g id="incorporate_perceptions">
    <path d="M53.9 44.35H66.01C67.161 44.35 68.2649 43.8928 69.0789 43.0788C69.8928 42.2649 70.35 41.161 70.35 40.01V31.34C70.35 30.189 69.8928 29.0851 69.0789 28.2712C68.2649 27.4572 67.161 27 66.01 27H63.62C63.0508 26.9928 62.4964 26.8175 62.0264 26.4964C61.5564 26.1752 61.1917 25.7224 60.978 25.1948C60.7644 24.6671 60.7114 24.0881 60.8256 23.5304C60.9398 22.9727 61.2161 22.4612 61.62 22.06L63.33 20.34C64.1416 19.5264 64.5973 18.4242 64.5973 17.275C64.5973 16.1258 64.1416 15.0236 63.33 14.21L57.18 8.06001C56.7778 7.65696 56.3 7.33719 55.7741 7.11902C55.2482 6.90084 54.6844 6.78854 54.115 6.78854C53.5456 6.78854 52.9818 6.90084 52.4559 7.11902C51.9299 7.33719 51.4522 7.65696 51.05 8.06001L49.33 9.77C48.9288 10.1739 48.4172 10.4502 47.8596 10.5644C47.3019 10.6786 46.7229 10.6256 46.1953 10.412C45.6676 10.1983 45.2148 9.83364 44.8936 9.36362C44.5725 8.89361 44.3973 8.33922 44.39 7.77V5.34C44.3874 4.18978 43.9292 3.08741 43.1159 2.27408C42.3026 1.46074 41.2002 1.00264 40.05 1H31.37C30.2198 1.00264 29.1174 1.46074 28.3041 2.27408C27.4907 3.08741 27.0326 4.18978 27.03 5.34V7.77C27.0208 8.33716 26.8449 8.88908 26.5243 9.35699C26.2036 9.82489 25.7524 10.1881 25.2268 10.4013C24.7012 10.6146 24.1244 10.6684 23.5684 10.5561C23.0124 10.4439 22.5017 10.1705 22.1 9.77L20.38 8.06001C19.977 7.65665 19.4984 7.33667 18.9716 7.11836C18.4449 6.90005 17.8802 6.78769 17.31 6.78769C16.7398 6.78769 16.1751 6.90005 15.6484 7.11836C15.1216 7.33667 14.643 7.65665 14.24 8.06001L8.08997 14.21C7.27841 15.0236 6.82269 16.1258 6.82269 17.275C6.82269 18.4242 7.27841 19.5264 8.08997 20.34L9.81 22.06C10.2168 22.4642 10.4942 22.9803 10.6068 23.5426C10.7193 24.105 10.6621 24.6881 10.4423 25.2177C10.2225 25.7474 9.85002 26.1997 9.37238 26.5171C8.89473 26.8345 8.33348 27.0026 7.76001 27H5.33997C4.18893 27 3.08509 27.4572 2.27118 28.2712C1.45727 29.0851 1 30.189 1 31.34V40.01C1 41.161 1.45727 42.2649 2.27118 43.0788C3.08509 43.8928 4.18893 44.35 5.33997 44.35H7.76001C8.33348 44.3474 8.89473 44.5155 9.37238 44.8329C9.85002 45.1503 10.2225 45.6026 10.4423 46.1323C10.6621 46.6619 10.7193 47.2451 10.6068 47.8074C10.4942 48.3697 10.2168 48.8858 9.81 49.29L8.08997 51.01C7.27841 51.8236 6.82269 52.9258 6.82269 54.075C6.82269 55.2242 7.27841 56.3264 8.08997 57.14L14.24 63.29C15.0553 64.1022 16.1592 64.5582 17.31 64.5582C18.4608 64.5582 19.5647 64.1022 20.38 63.29L22.02 61.62C22.4217 61.2195 22.9324 60.9461 23.4884 60.8339C24.0444 60.7216 24.6212 60.7754 25.1468 60.9887C25.6724 61.2019 26.1237 61.5651 26.4443 62.033C26.765 62.5009 26.9408 63.0528 26.95 63.62V66.05C26.9527 67.2002 27.4107 68.3026 28.2241 69.1159C29.0374 69.9293 30.1398 70.3874 31.29 70.39H39.97C41.1202 70.3874 42.2226 69.9293 43.0359 69.1159C43.8493 68.3026 44.3074 67.2002 44.31 66.05V53.94C45.9591 53.1516 47.4932 52.1423 48.87 50.94L50.87 52.94L50.32 53.48C49.5078 54.2953 49.0518 55.3992 49.0518 56.55C49.0518 57.7008 49.5078 58.8047 50.32 59.62L59.13 68.42C60.3593 69.6493 62.0266 70.3399 63.765 70.3399C65.5035 70.3399 67.1707 69.6493 68.4 68.42C69.6293 67.1907 70.3199 65.5235 70.3199 63.785C70.3199 62.0465 69.6293 60.3793 68.4 59.15L59.6 50.34C58.7847 49.5278 57.6808 49.0718 56.53 49.0718C55.3792 49.0718 54.2753 49.5278 53.46 50.34L52.91 50.89L50.91 48.89C52.1066 47.5183 53.1125 45.9911 53.9 44.35ZM66.39 66.43C65.6895 67.0947 64.7606 67.4652 63.795 67.4652C62.8293 67.4652 61.9005 67.0947 61.2 66.43L60.76 65.99L65.95 60.81L66.39 61.24C67.0758 61.9295 67.4607 62.8625 67.4607 63.835C67.4607 64.8075 67.0758 65.7405 66.39 66.43V66.43ZM56.56 52.01C56.9353 52.0143 57.2941 52.165 57.56 52.43L63.89 58.76L58.7 63.95L52.4 57.62C52.1386 57.3528 51.9922 56.9938 51.9922 56.62C51.9922 56.2462 52.1386 55.8872 52.4 55.62L55.54 52.47C55.6707 52.3292 55.8283 52.2159 56.0035 52.1369C56.1787 52.0579 56.3679 52.0147 56.56 52.01V52.01ZM41.42 66.01C41.42 66.3946 41.2672 66.7634 40.9953 67.0353C40.7234 67.3072 40.3545 67.46 39.97 67.46H31.29C30.9071 67.4574 30.5409 67.3034 30.2711 67.0318C30.0013 66.7601 29.85 66.3928 29.85 66.01V63.62C29.8483 62.4761 29.5079 61.3582 28.8716 60.4076C28.2353 59.4569 27.3316 58.7161 26.2746 58.2786C25.2176 57.841 24.0547 57.7264 22.9327 57.9491C21.8106 58.1718 20.7797 58.7219 19.97 59.53L18.26 61.25C17.9893 61.5045 17.6316 61.6462 17.26 61.6462C16.8884 61.6462 16.5308 61.5045 16.26 61.25L10.11 55.1C9.85546 54.8292 9.71375 54.4716 9.71375 54.1C9.71375 53.7284 9.85546 53.3708 10.11 53.1L11.82 51.39C12.633 50.5822 13.1874 49.5509 13.4129 48.4272C13.6384 47.3035 13.5247 46.1381 13.0864 45.0792C12.648 44.0202 11.9047 43.1155 10.951 42.48C9.99724 41.8445 8.87607 41.5068 7.72998 41.51H5.31C4.92543 41.51 4.5566 41.3572 4.28467 41.0853C4.01274 40.8134 3.85999 40.4446 3.85999 40.06V31.39C3.85999 31.0054 4.01274 30.6366 4.28467 30.3647C4.5566 30.0928 4.92543 29.94 5.31 29.94H7.72998C8.87607 29.9432 9.99724 29.6055 10.951 28.97C11.9047 28.3345 12.648 27.4298 13.0864 26.3708C13.5247 25.3119 13.6384 24.1465 13.4129 23.0228C13.1874 21.8991 12.633 20.8678 11.82 20.06L10.11 18.35C9.84067 18.0768 9.6897 17.7086 9.6897 17.325C9.6897 16.9414 9.84067 16.5732 10.11 16.3L16.26 10.15C16.5308 9.89547 16.8884 9.75377 17.26 9.75377C17.6316 9.75377 17.9893 9.89547 18.26 10.15L19.97 11.87C20.7797 12.6781 21.8106 13.2282 22.9327 13.4509C24.0547 13.6736 25.2176 13.559 26.2746 13.1214C27.3316 12.6839 28.2353 11.9431 28.8716 10.9924C29.5079 10.0418 29.8483 8.92395 29.85 7.78001V5.35001C29.85 4.96717 30.0013 4.59986 30.2711 4.32822C30.5409 4.05657 30.9071 3.90264 31.29 3.9H39.97C40.3545 3.9 40.7234 4.05277 40.9953 4.3247C41.2672 4.59663 41.42 4.96544 41.42 5.35001V7.78001C41.4216 8.92395 41.7621 10.0418 42.3984 10.9924C43.0348 11.9431 43.9384 12.6839 44.9954 13.1214C46.0523 13.559 47.2152 13.6736 48.3373 13.4509C49.4593 13.2282 50.4903 12.6781 51.3 11.87L53.01 10.15C53.2832 9.88068 53.6514 9.72971 54.035 9.72971C54.4186 9.72971 54.7868 9.88068 55.06 10.15L61.21 16.3C61.4793 16.5732 61.6303 16.9414 61.6303 17.325C61.6303 17.7086 61.4793 18.0768 61.21 18.35L59.49 20.06C58.6819 20.8697 58.1318 21.9007 57.9091 23.0227C57.6863 24.1448 57.801 25.3077 58.2385 26.3646C58.6761 27.4216 59.4169 28.3252 60.3676 28.9616C61.3182 29.5979 62.4361 29.9384 63.58 29.94H66.01C66.3938 29.9426 66.761 30.0962 67.0324 30.3676C67.3038 30.639 67.4574 31.0063 67.46 31.39V40.06C67.4574 40.4438 67.3038 40.811 67.0324 41.0824C66.761 41.3538 66.3938 41.5074 66.01 41.51H55.01C55.574 39.6352 55.8604 37.6878 55.86 35.73C55.8725 31.4575 54.5373 27.2899 52.0443 23.8201C49.5514 20.3503 46.0276 17.755 41.9745 16.4036C37.9214 15.0521 33.5452 15.0132 29.4688 16.2925C25.3923 17.5718 21.8231 20.1041 19.2689 23.5291C16.7148 26.9541 15.3057 31.0973 15.2423 35.3694C15.1789 39.6414 16.4644 43.8246 18.9158 47.3239C21.3673 50.8232 24.8598 53.4602 28.8965 54.8599C32.9332 56.2596 37.3086 56.3506 41.4 55.12L41.42 66.01ZM35.63 53.01C32.1961 53.01 28.8393 51.9916 25.9843 50.0836C23.1292 48.1756 20.9042 45.4638 19.5905 42.2911C18.2769 39.1184 17.9337 35.6273 18.6043 32.2596C19.275 28.8918 20.9293 25.7985 23.3582 23.3711C25.787 20.9436 28.8812 19.2911 32.2494 18.6224C35.6176 17.9536 39.1084 18.2989 42.2803 19.6143C45.4523 20.9298 48.1628 23.1564 50.0692 26.0126C51.9755 28.8687 52.992 32.2261 52.99 35.66C52.99 40.2668 51.16 44.6849 47.9025 47.9425C44.645 51.2 40.2268 53.03 35.62 53.03L35.63 53.01Z" fill="currentColor" stroke="currentColor" stroke-miterlimit="10"/>
    <path d="M24.8897 40C24.1898 38.2518 23.926 36.3595 24.1211 34.4866C24.3163 32.6137 24.9645 30.8164 26.0097 29.25C26.133 29.0939 26.2228 28.914 26.2736 28.7217C26.3244 28.5293 26.3352 28.3286 26.305 28.1319C26.2749 27.9353 26.2047 27.7469 26.0986 27.5786C25.9926 27.4103 25.8531 27.2655 25.6887 27.1534C25.5244 27.0413 25.3387 26.9643 25.1432 26.927C24.9478 26.8898 24.7469 26.8931 24.5528 26.9369C24.3587 26.9807 24.1757 27.0639 24.0152 27.1814C23.8547 27.2989 23.72 27.4482 23.6197 27.62C22.3104 29.5752 21.4976 31.8202 21.2519 34.1604C21.0062 36.5007 21.335 38.8655 22.2097 41.05C22.3149 41.3194 22.4992 41.5506 22.7384 41.713C22.9776 41.8755 23.2605 41.9616 23.5497 41.96C23.7344 41.9609 23.9175 41.927 24.0897 41.86C24.4376 41.7136 24.7153 41.438 24.8645 41.0912C25.0137 40.7444 25.0227 40.3533 24.8897 40V40Z" fill="currentColor" stroke="currentColor" stroke-miterlimit="10"/>
    <path d="M26.43 46.32C27.2308 46.32 27.88 45.6709 27.88 44.87C27.88 44.0692 27.2308 43.42 26.43 43.42C25.6292 43.42 24.98 44.0692 24.98 44.87C24.98 45.6709 25.6292 46.32 26.43 46.32Z" fill="currentColor" stroke="currentColor" stroke-miterlimit="10"/>
  </g>
</svg>
