<svg width="81" height="81" viewBox="0 0 81 81" fill="none" xmlns="http://www.w3.org/2000/svg">
<g clip-path="url(#clip0)">
<path d="M61.3001 21.3C50.8001 21.3 42.2001 29.9001 42.2001 40.4001C42.2001 50.9001 50.8001 59.5 61.3001 59.5C71.8001 59.5 80.4001 50.9001 80.4001 40.4001C80.4001 29.9001 71.8001 21.3 61.3001 21.3ZM61.3001 57.5C51.9001 57.5 44.2001 49.8001 44.2001 40.4001C44.2001 31.0001 51.9001 23.3 61.3001 23.3C70.7001 23.3 78.4001 31.0001 78.4001 40.4001C78.4001 49.8001 70.7001 57.5 61.3001 57.5Z" fill="currentColor"/>
<path d="M61.3 59.9C50.6 59.9 41.8 51.2 41.8 40.4C41.8 29.6 50.5 20.9 61.3 20.9C72 20.9 80.8001 29.6 80.8001 40.4C80.8001 51.2 72 59.9 61.3 59.9ZM61.3 21.6C51 21.6 42.6 30 42.6 40.4C42.6 50.8 51 59.1 61.3 59.1C71.6 59.1 80 50.7 80 40.4C80 30.1 71.6 21.6 61.3 21.6ZM61.3 57.9C51.7 57.9 43.8 50.1 43.8 40.4C43.8 30.7 51.6 22.9 61.3 22.9C71 22.9 78.8001 30.7 78.8001 40.4C78.8001 50.1 70.9 57.9 61.3 57.9ZM61.3 23.6C52.1 23.6 44.6 31.1 44.6 40.3C44.6 49.5 52.1 57 61.3 57C70.5 57 78 49.5 78 40.3C78 31.1 70.5 23.6 61.3 23.6Z" fill="currentColor"/>
<path d="M54.3 32.8C55.6 32.8 56.6 33.9 56.6 35.1C56.6 35.7 57 36.1 57.6 36.1C58.2 36.1 58.6 35.7 58.6 35.1C58.6 32.7 56.7 30.8 54.3 30.8C51.9 30.8 50 32.8001 50 35.2001C50 35.8001 50.4 36.2001 51 36.2001C51.6 36.2001 52 35.8001 52 35.2001C52 33.9001 53 32.8 54.3 32.8Z" fill="currentColor"/>
<path d="M57.7 36.6C56.9 36.6 56.3 36 56.3 35.2C56.3 34.1 55.4 33.2 54.3 33.2C53.2 33.2 52.3 34.1 52.3 35.2C52.3 36 51.7 36.6 50.9 36.6C50.1 36.6 49.5 36 49.5 35.2C49.5 32.6 51.6 30.5 54.2 30.5C56.8 30.5 58.9 32.6 58.9 35.2C59 35.9 58.4 36.6 57.7 36.6ZM54.3 32.5C55.8 32.5 57 33.7 57 35.2C57 35.5 57.3 35.8 57.6 35.8C57.9 35.8 58.2 35.5 58.2 35.2C58.2 33 56.4 31.2 54.2 31.2C52 31.2 50.2 33 50.2 35.2C50.2 35.5 50.5 35.8 50.8 35.8C51.1 35.8 51.4 35.5 51.4 35.2C51.6 33.7 52.8 32.5 54.3 32.5Z" fill="currentColor"/>
<path d="M68.2 30.8C65.8 30.8 63.9 32.7 63.9 35.1C63.9 35.7 64.3 36.1 64.9 36.1C65.5 36.1 65.9 35.7 65.9 35.1C65.9 33.8 67 32.8 68.2 32.8C69.4 32.8 70.5 33.9 70.5 35.1C70.5 35.7 70.9 36.1 71.5 36.1C72.1 36.1 72.5 35.7 72.5 35.1C72.6 32.8 70.6 30.8 68.2 30.8Z" fill="currentColor"/>
<path d="M71.6 36.6C70.8 36.6 70.2 36 70.2 35.2C70.2 34.1 69.3 33.2 68.2 33.2C67.1 33.2 66.2 34.1 66.2 35.2C66.2 36 65.6 36.6 64.8 36.6C64 36.6 63.4 36 63.4 35.2C63.4 32.6 65.5 30.5 68.1 30.5C70.7 30.5 72.8 32.6 72.8 35.2C73 35.9 72.3 36.6 71.6 36.6ZM68.2 32.5C69.7 32.5 70.9 33.7 70.9 35.2C70.9 35.5 71.2 35.8 71.5 35.8C71.8 35.8 72.1 35.5 72.1 35.2C72.1 33 70.3 31.2 68.1 31.2C65.9 31.2 64.1 33 64.1 35.2C64.1 35.5 64.4 35.8 64.7 35.8C65 35.8 65.3 35.5 65.3 35.2C65.5 33.7 66.7 32.5 68.2 32.5Z" fill="currentColor"/>
<path d="M69.5 44.8C69 44.5 68.4 44.7 68.1 45.2C66.7 47.6 64 49.2 61.2 49.2C58.4 49.2 55.7 47.7 54.3 45.2C54 44.7 53.4 44.6 52.9 44.8C52.4 45.1 52.3 45.7 52.5 46.2C54.3 49.3 57.6 51.2 61.1 51.2C64.6 51.2 67.9 49.3 69.7 46.2C70.2 45.7 70 45.1 69.5 44.8Z" fill="currentColor"/>
<path d="M61.3001 51.5C57.6001 51.5 54.2001 49.5 52.4001 46.4C52.2001 46.1 52.2001 45.7 52.3001 45.4C52.4001 45 52.6001 44.7 52.9001 44.6C53.6001 44.2 54.4001 44.4 54.8001 45.1C56.2001 47.4 58.7001 48.9 61.4001 48.9C64.1001 48.9 66.6001 47.5 68.0001 45.1C68.2001 44.8 68.5001 44.6 68.8001 44.5C69.2001 44.4 69.5001 44.5 69.8001 44.6C70.1001 44.8 70.3001 45.1 70.4001 45.4C70.5001 45.8 70.4001 46.1 70.3001 46.4C68.4001 49.6 64.9001 51.5 61.3001 51.5ZM53.5001 45.1C53.4001 45.1 53.3001 45.1 53.2001 45.2C53.1001 45.3 53.0001 45.4 52.9001 45.6C52.9001 45.8 52.9001 45.9 53.0001 46.1C54.7001 49 57.9001 50.9 61.3001 50.9C64.7001 50.9 67.9001 49.1 69.6001 46.1C69.7001 46 69.7001 45.8 69.7001 45.6C69.7001 45.4 69.6001 45.3 69.4001 45.2C69.1001 45 68.7001 45.1 68.5001 45.4C67.0001 48 64.2001 49.5 61.3001 49.5C58.3001 49.5 55.6001 47.9 54.1001 45.4C54.0001 45.2 53.8001 45.1 53.5001 45.1Z" fill="currentColor"/>
<path d="M41.4 1.40002C41.4 0.800024 41 0.400024 40.4 0.400024C39.8 0.400024 39.4 0.800024 39.4 1.40002V9.00002C39.4 9.60002 39.8 10 40.4 10C41 10 41.4 9.60002 41.4 9.00002V1.40002Z" fill="currentColor"/>
<path d="M40.4 10.3C39.6 10.3 39 9.7 39 8.9V1.4C39 0.6 39.6 0 40.4 0C41.2 0 41.8 0.6 41.8 1.4V9C41.8 9.7 41.1 10.3 40.4 10.3ZM40.4 0.8C40.1 0.8 39.8 1.1 39.8 1.4V9C39.8 9.3 40.1 9.6 40.4 9.6C40.7 9.6 41 9.3 41 8.9V1.4C41 1 40.7 0.8 40.4 0.8Z" fill="currentColor"/>
<path d="M55.9999 12.2999C56.3999 12.2999 56.6999 12.0999 56.8999 11.7999L60.2999 4.99991C60.5999 4.49991 60.3999 3.89991 59.8999 3.69991C59.3999 3.39991 58.7999 3.59991 58.5999 4.09991L55.0999 10.7999C54.7999 11.2999 54.9999 11.8999 55.4999 12.0999C55.5999 12.1999 55.7999 12.2999 55.9999 12.2999Z" fill="currentColor"/>
<path d="M56 12.6C55.8 12.6 55.6 12.5 55.4 12.4C55.1 12.2 54.8 11.9 54.7 11.6C54.6 11.3 54.6 10.9 54.8 10.6L58.3 3.89996C58.5 3.59996 58.8 3.29996 59.1 3.19996C59.4 3.09996 59.8 3.09996 60.1 3.29996C60.4 3.49996 60.7 3.79996 60.8 4.09996C60.9 4.39996 60.9 4.79996 60.7 5.09996L57.2 11.8C56.9 12.3 56.5 12.6 56 12.6ZM59.4 3.89996C59.3 3.89996 59.3 3.89996 59.2 3.89996C59 3.99996 58.9 4.09996 58.8 4.19996L55.4 11C55.3 11.1 55.3 11.3 55.4 11.5C55.5 11.7 55.6 11.8 55.7 11.9C56 12.1 56.4 11.9 56.5 11.6L60 4.79996C60.1 4.69996 60.1 4.49996 60 4.29996C59.9 4.19996 59.8 3.99996 59.7 3.99996C59.6 3.89996 59.5 3.89996 59.4 3.89996Z" fill="currentColor"/>
<path d="M20.9 3.60007C20.4 3.90007 20.2 4.50007 20.5 4.90007L24 11.6001C24.2 11.9001 24.5 12.1001 24.9 12.1001C25.1 12.1001 25.2 12.1001 25.4 12.0001C25.9 11.7001 26.1 11.1001 25.8 10.7001L22.3 4.00007C22 3.60007 21.4 3.40007 20.9 3.60007Z" fill="currentColor"/>
<path d="M24.8 12.6001C24.3 12.6001 23.8 12.3001 23.6 11.9001L20.1 5.20006C19.9 4.90006 19.9 4.50006 20 4.20006C20.1 3.90006 20.4 3.60006 20.7 3.40006C21 3.20006 21.4 3.20006 21.7 3.30006C22.1 3.40006 22.3 3.70006 22.5 4.00006L26 10.7001C26.2 11.0001 26.2 11.4001 26.1 11.7001C26 12.0001 25.7 12.3001 25.4 12.5001C25.2 12.6001 25 12.6001 24.8 12.6001ZM21.4 3.90006C21.3 3.90006 21.2 3.90006 21.1 4.00006C21 4.10006 20.8 4.20006 20.8 4.40006C20.7 4.60006 20.8 4.70006 20.8 4.90006L24.3 11.6001C24.5 11.9001 24.8 12.0001 25.1 11.9001C25.2 11.8001 25.4 11.7001 25.4 11.5001C25.5 11.3001 25.4 11.2001 25.4 11.0001L21.9 4.30006C21.8 4.20006 21.7 4.00006 21.5 4.00006C21.5 3.90006 21.4 3.90006 21.4 3.90006Z" fill="currentColor"/>
<path d="M40.4 70.8C39.8 70.8 39.4 71.2 39.4 71.8V79.4C39.4 80 39.8 80.4 40.4 80.4C41 80.4 41.4 80 41.4 79.4V71.8C41.4 71.3 40.9 70.8 40.4 70.8Z" fill="currentColor"/>
<path d="M40.4 80.8C39.6 80.8 39 80.2 39 79.4V71.8C39 71 39.6 70.4 40.4 70.4C41.2 70.4 41.8 71 41.8 71.8V79.4C41.8 80.1 41.1 80.8 40.4 80.8ZM40.4 71.2C40.1 71.2 39.8 71.5 39.8 71.8V79.4C39.8 79.7 40.1 80 40.4 80C40.7 80 41 79.7 41 79.4V71.8C41 71.5 40.7 71.2 40.4 71.2Z" fill="currentColor"/>
<path d="M23.9 68.9999L20.4 75.6999C20.1 76.1999 20.3 76.7999 20.8 76.9999C20.9 77.0999 21.1 77.0999 21.3 77.0999C21.7 77.0999 22 76.8999 22.2 76.5999L25.7 69.8999C26 69.3999 25.8 68.7999 25.3 68.5999C24.8 68.3999 24.2 68.5999 23.9 68.9999Z" fill="currentColor"/>
<path d="M21.4 77.6C21.2 77.6 21 77.5 20.8 77.4C20.5 77.2 20.2 76.9 20.1 76.6C20 76.3 20 75.9 20.2 75.6L23.7 68.9C23.9 68.6 24.2 68.3 24.5 68.2C24.8 68.1 25.2 68.1 25.5 68.3C25.8 68.5 26.1 68.8 26.2 69.1C26.3 69.4 26.3 69.8 26.1 70.1L22.6 76.8C22.3 77.3 21.9 77.6 21.4 77.6ZM23.9 69L24.2 69.2L20.7 75.9C20.6 76 20.6 76.2 20.7 76.4C20.8 76.6 20.9 76.7 21 76.8C21.3 77 21.7 76.8 21.8 76.5L25.3 69.8C25.4 69.7 25.4 69.5 25.3 69.3C25.2 69.1 25.1 69 25 68.9C24.9 68.8 24.7 68.8 24.5 68.9C24.3 69 24.2 69.1 24.1 69.2L23.9 69Z" fill="currentColor"/>
<path d="M59.3999 77.2001C59.5999 77.2001 59.6999 77.2001 59.8999 77.1001C60.3999 76.8001 60.5999 76.2001 60.2999 75.8001L56.7999 69.0001C56.4999 68.5001 55.8999 68.3001 55.4999 68.6001C54.9999 68.9001 54.7999 69.5001 55.0999 69.9001L58.5999 76.6001C58.6999 77.0001 58.9999 77.2001 59.3999 77.2001Z" fill="currentColor"/>
<path d="M59.4 77.6001C58.9 77.6001 58.4 77.3001 58.2 76.9001L54.7 70.2001C54.5 69.9001 54.5 69.5001 54.6 69.2001C54.7 68.9001 55 68.6001 55.3 68.4001C55.6 68.2001 56 68.2001 56.3 68.3001C56.7 68.4001 56.9 68.7001 57.1 69.0001L60.6 75.7001C60.8 76.0001 60.8 76.4001 60.7 76.7001C60.6 77.0001 60.3 77.3001 60 77.5001C59.8 77.5001 59.6 77.6001 59.4 77.6001ZM56 68.9001C55.9 68.9001 55.8 68.9001 55.7 69.0001C55.5 69.1001 55.4 69.2001 55.4 69.4001C55.3 69.6001 55.4 69.7001 55.4 69.9001L58.9 76.6001C59.1 76.9001 59.4 77.0001 59.7 76.9001C59.8 76.8001 60 76.7001 60 76.5001C60.1 76.3001 60 76.2001 60 76.0001L56.5 69.3001C56.4 69.2001 56.3 69.0001 56.1 69.0001C56.1 68.9001 56 68.9001 56 68.9001Z" fill="currentColor"/>
<path d="M29 57.6C30.4 58.3 34.3 59.7 39 56.1C39.3 55.9 39.5 55.5 39.4 55.1C39.3 54.7 39 54.4 38.6 54.3C38 54.2 36.4 53.6 35.9 52.7C35.8 52.5 35.6 52.1 36.1 51.2C36.2 51.1 36.3 50.9 36.4 50.8C42.1 41.9 39.7 30.3 30.8 24.4C21.9 18.5 9.70004 20.8 3.70004 29.7C0.800044 34 -0.299956 39.2 0.700044 44.2C1.70004 49.3 4.60004 53.7 8.90004 56.5C12.2 58.7 16 59.8 19.7 59.8C23 59.9 26.1 59.1 29 57.6ZM2.70004 43.9C1.80004 39.4 2.80004 34.7 5.40004 30.9C8.80004 25.9 14.4 23.2 20 23.2C23.4 23.2 26.7 24.1 29.7 26.1C37.6 31.4 39.8 41.7 34.7 49.7C34.6 49.8 34.5 50 34.4 50.1C34.4 50.1 34.4 50.2 34.3 50.2C33.5 51.7 33.7 52.8 34.1 53.5C34.5 54.4 35.4 55.1 36.2 55.5C32.4 57.5 29.7 55.7 29.6 55.6C29.3 55.4 28.9 55.4 28.5 55.5C22.7 58.8 15.6 58.5 10.1 54.8C6.20004 52.4 3.60004 48.4 2.70004 43.9Z" fill="currentColor"/>
<path d="M19.8 60.3C15.9 60.3 12 59.1 8.7 56.9C4.39999 54 1.4 49.5 0.399995 44.4C-0.600005 39.2 0.499995 34 3.4 29.6C9.5 20.6 21.9 18.1 31 24.2C40 30.2 42.5 42 36.7 51.1C36.6 51.2 36.5 51.4 36.4 51.5C36.1 52.2 36.2 52.5 36.3 52.6C36.6 53.4 38.1 53.9 38.7 54C39.2 54.1 39.6 54.5 39.8 55C39.9 55.5 39.7 56.1 39.3 56.4C34.5 60 30.6 58.8 29 58C26.2 59.5 23 60.3 19.8 60.3ZM20 21.5C13.8 21.5 7.7 24.5 4 29.9C1.1 34.1 0.0999954 39.2 1.1 44.2C2.1 49.2 4.89999 53.5 9.2 56.3C12.4 58.4 16.1 59.5 19.8 59.5C22.9 59.5 26 58.7 28.8 57.3L29 57.2L29.2 57.3C30.6 58 34.3 59.3 38.9 55.8C39.1 55.7 39.2 55.4 39.1 55.2C39 55 38.9 54.8 38.6 54.7C38 54.6 36.2 54 35.7 52.9C35.6 52.7 35.3 52.1 35.9 51.1C36 50.9 36.1 50.8 36.2 50.6C41.8 41.8 39.4 30.5 30.7 24.7C27.4 22.6 23.7 21.5 20 21.5ZM19.8 58.3C16.3 58.3 12.9 57.3 9.89999 55.3C5.89999 52.7 3.3 48.7 2.3 44C1.4 39.4 2.4 34.6 5 30.7C8.3 25.8 13.9 22.8 19.9 22.8C23.4 22.8 26.9 23.8 29.8 25.8C37.9 31.2 40.1 41.8 34.9 50C34.8 50.1 34.7 50.3 34.6 50.4C33.9 51.8 34 52.8 34.3 53.4C34.6 54.1 35.3 54.7 36.2 55.2L36.8 55.5L36.2 55.8C32.2 57.9 29.3 56 29.2 55.9C29 55.8 28.7 55.7 28.5 55.9C25.9 57.5 22.9 58.3 19.8 58.3ZM3.1 43.8C4 48.2 6.5 52.1 10.3 54.6C15.7 58.2 22.6 58.5 28.3 55.3C28.8 55 29.3 55.1 29.8 55.4C29.9 55.5 32.1 57 35.4 55.6C34.7 55.1 34.1 54.5 33.8 53.8C33.4 53 33.2 51.8 34 50.2C34 50.2 34 50.1 34.1 50.1C34.2 50 34.3 49.8 34.4 49.7C39.4 41.9 37.3 31.7 29.5 26.6C26.7 24.7 23.4 23.7 20 23.7C14.2 23.7 8.9 26.5 5.7 31.2C3.1 34.8 2.2 39.4 3.1 43.8Z" fill="currentColor"/>
</g>
<defs>
<clipPath id="clip0">
<rect width="80.8" height="80.8" fill="white"/>
</clipPath>
</defs>
</svg>
