<svg viewBox="0 0 51 51" fill="none" xmlns="http://www.w3.org/2000/svg">
  <g id="insomnio">
    <path d="M33.9797 49.1964C30.3153 49.0726 26.9365 46.8265 24.3953 42.8766C25.7659 41.0112 27.3078 39.574 28.9543 38.6032C28.5927 39.317 28.3737 40.1165 28.3452 40.9731C28.231 44.152 30.7246 46.8265 33.9035 46.9407C37.0824 47.0549 39.7569 44.5517 39.8616 41.3728C39.8997 40.3544 39.6618 39.3931 39.2335 38.5556C41.0323 39.6311 42.6788 41.2777 44.0684 43.4382C41.2512 47.2833 37.6725 49.3201 33.9797 49.1964ZM38.1865 41.3252C38.1103 43.5905 36.2068 45.3607 33.9511 45.2751C31.6954 45.1989 29.9251 43.2954 30.0013 41.0397C30.0679 39.0886 31.505 37.4896 33.361 37.1565C33.7322 37.1279 34.1034 37.1089 34.4841 37.1184C34.5032 37.1184 34.5222 37.1184 34.5317 37.1184C36.6446 37.3468 38.2626 39.1647 38.1865 41.3252ZM34.979 35.4814C34.7506 35.4528 34.5317 35.4243 34.2938 35.4147C33.8845 35.4052 33.4943 35.4338 33.0945 35.5004C29.2398 35.8621 25.6326 38.2034 22.7868 42.2294L22.3776 42.81L22.6631 43.2764C25.5279 48.0162 29.5254 50.7097 33.9035 50.862C38.2817 51.0143 42.4504 48.6063 45.6389 44.0759L46.0481 43.4953L45.7626 43.0289C43.0025 38.4604 39.1858 35.7955 34.979 35.4814Z" fill="currentColor"/>
    <path d="M27.3173 25.8779C27.2887 26.7916 26.5083 27.5245 25.5946 27.4864C24.6809 27.4579 23.9575 26.6774 23.9861 25.7637C24.0146 24.85 24.7951 24.1172 25.7088 24.1552C26.6225 24.1838 27.3458 24.9642 27.3173 25.8779ZM24.9283 22.5658C23.7196 22.8323 22.7392 23.7555 22.4252 24.9642L16.5052 24.7549C16.0483 24.7358 15.6581 25.0975 15.639 25.5639C15.62 26.0207 15.9817 26.4109 16.4481 26.43L22.4347 26.6394C22.7964 28.0385 24.0242 29.1044 25.5375 29.152C27.3839 29.2187 28.9258 27.772 28.9924 25.935C29.0495 24.3837 28.0216 23.0512 26.6034 22.6229L26.8985 14.1616C26.9175 13.7048 26.5559 13.3146 26.0895 13.2955C25.6327 13.2765 25.2424 13.6382 25.2234 14.1045L24.9283 22.5658Z" fill="currentColor"/>
    <path d="M26.2322 9.12681C26.6891 9.14585 27.0793 8.78417 27.0983 8.3178L27.1269 7.48024C27.1459 7.02339 26.7843 6.63316 26.3179 6.61412C25.861 6.59509 25.4708 6.95677 25.4517 7.42313L25.4232 8.2607C25.4137 8.72707 25.7754 9.1173 26.2322 9.12681Z" fill="currentColor"/>
    <path d="M43.9637 27.2961C44.4206 27.3152 44.8108 26.9535 44.8299 26.4871C44.8489 26.0208 44.4872 25.64 44.0208 25.621L43.1833 25.5925C42.7264 25.5734 42.3362 25.9351 42.3172 26.4015C42.2982 26.8583 42.6598 27.2485 43.1262 27.2676L43.9637 27.2961Z" fill="currentColor"/>
    <path d="M7.33958 24.3456C6.88273 24.3266 6.49247 24.6883 6.47344 25.1546C6.4544 25.621 6.81611 26.0017 7.28248 26.0208L8.12004 26.0493C8.57689 26.0683 8.96709 25.7067 8.98613 25.2403C9.00516 24.7834 8.64351 24.3932 8.17714 24.3742L7.33958 24.3456Z" fill="currentColor"/>
    <path d="M39.0335 14.4758L39.6427 13.9047C39.9758 13.5906 39.9948 13.0671 39.6807 12.7245C39.3667 12.3914 38.8432 12.3723 38.5006 12.6864L37.8914 13.2575C37.5583 13.5716 37.5393 14.095 37.8534 14.4377C38.0152 14.609 38.2245 14.6946 38.4339 14.7042C38.6624 14.7042 38.8622 14.628 39.0335 14.4758Z" fill="currentColor"/>
    <path d="M12.2697 37.166L11.6606 37.7371C11.3275 38.0511 11.3084 38.5746 11.6225 38.9172C11.7843 39.0886 11.9937 39.1742 12.2031 39.1837C12.422 39.1933 12.6314 39.1171 12.8027 38.9648L13.4119 38.3938C13.745 38.0797 13.764 37.5562 13.4499 37.2136C13.1358 36.8709 12.6028 36.8519 12.2697 37.166Z" fill="currentColor"/>
    <path d="M14.3161 12.4199L13.745 11.8108C13.4309 11.4777 12.9075 11.4586 12.5648 11.7727C12.2222 12.0868 12.2127 12.6103 12.5268 12.9529L13.0978 13.562C13.2596 13.7334 13.469 13.819 13.6784 13.8286C13.8973 13.8381 14.1067 13.7619 14.278 13.6096C14.6111 13.2956 14.6302 12.7626 14.3161 12.4199Z" fill="currentColor"/>
    <path d="M26.5177 0.88446C12.7266 0.399057 1.11499 11.2397 0.629591 25.0404C0.229847 36.5854 7.6822 46.8455 18.7608 50.0054C18.8274 50.0244 18.8941 50.0339 18.9607 50.0339C19.3319 50.0434 19.6841 49.8055 19.7888 49.4248C19.9125 48.9775 19.665 48.5206 19.2177 48.3969C8.88142 45.4464 1.924 35.8621 2.29519 25.0975C2.74252 12.2105 13.5832 2.10273 26.4512 2.55006C39.3286 2.99739 49.4269 13.8476 48.9796 26.725C48.8749 29.6184 48.2562 32.4262 47.1141 35.0911C46.9332 35.5099 47.1331 36.0048 47.5519 36.1857C47.9802 36.3665 48.4656 36.1666 48.6464 35.7478C49.8647 32.9021 50.5405 29.8849 50.6452 26.7822C51.1401 12.991 40.3089 1.36986 26.5177 0.88446Z" fill="currentColor"/>

  </g>
</svg>
