<svg width="37" height="37" viewBox="0 0 37 37" fill="none" xmlns="http://www.w3.org/2000/svg">
<path d="M28.8039 6.68989C27.8716 6.68989 27.1066 7.45492 27.1066 8.3873C27.1066 9.31967 27.8716 10.0847 28.8039 10.0847C29.7363 10.0847 30.5015 9.31967 30.5015 8.3873C30.5015 7.43101 29.7363 6.68989 28.8039 6.68989ZM28.8039 11.3279C27.1783 11.3279 25.8395 9.98907 25.8395 8.36339C25.8395 6.73771 27.1783 5.39891 28.8039 5.39891C30.4296 5.39891 31.7684 6.73771 31.7684 8.36339C31.7684 10.013 30.4535 11.3279 28.8039 11.3279ZM18.5001 10.8736C14.2925 10.8736 10.8736 14.2924 10.8736 18.5C10.8736 22.7077 14.2925 26.1264 18.5001 26.1264C22.7078 26.1264 26.1264 22.7077 26.1264 18.5C26.1264 14.2924 22.7078 10.8736 18.5001 10.8736ZM18.5001 27.3934C13.5753 27.3934 9.60649 23.401 9.60649 18.5C9.60649 13.599 13.5992 9.60656 18.5001 9.60656C23.4011 9.60656 27.3935 13.599 27.3935 18.5C27.3935 23.401 23.425 27.3934 18.5001 27.3934ZM9.27205 2.29098C5.42301 2.29098 2.29108 5.42281 2.29108 9.27186V27.7281C2.29108 31.5772 5.42301 34.709 9.27205 34.709H27.7282C31.5773 34.709 34.7089 31.5772 34.7089 27.7281V9.27186C34.7089 5.42281 31.5773 2.29098 27.7282 2.29098H9.27205ZM27.7282 36H9.27205C4.7058 36 1.02391 32.2944 1 27.7281V9.27186C1 4.7056 4.7058 1.02391 9.27205 1H27.7282C32.2945 1 35.9761 4.7056 36 9.27186V27.7281C36 32.2944 32.2945 36 27.7282 36Z" stroke="white" stroke-miterlimit="10"/>
</svg>
