<svg viewBox="0 0 99 49" fill="none" xmlns="http://www.w3.org/2000/svg">
  <g id="key_attitude">
    <path d="M74.7863 48.41C70.6465 48.4049 66.5767 47.341 62.9641 45.3194C59.3514 43.2978 56.316 40.3857 54.1463 36.86H45.5963L39.3262 30.5L33.9562 35.95L28.5662 30.5L23.1962 35.95L17.7263 30.41L12.5963 35.6L11.1862 35.14L10.7563 34.79L1.34625 25.25C-0.453747 23.46 -0.443747 21.36 1.34625 19.51L9.43622 11.32H54.2663C56.5084 7.75549 59.6414 4.8374 63.356 2.8539C67.0707 0.870406 71.2384 -0.109922 75.4477 0.0097857C79.657 0.129493 83.7623 1.34506 87.3582 3.53646C90.9541 5.72786 93.9162 8.81932 95.9521 12.5055C97.9879 16.1917 99.0271 20.3451 98.967 24.5557C98.9068 28.7663 97.7495 32.8885 95.6092 36.515C93.4689 40.1416 90.4197 43.1471 86.7626 45.2349C83.1056 47.3227 78.9673 48.4206 74.7563 48.42L74.7863 48.41ZM47.0463 33.41H56.1563L56.6463 34.3C58.872 38.3102 62.3638 41.47 66.5756 43.2855C70.7875 45.101 75.4821 45.4699 79.9258 44.3346C84.3696 43.1992 88.312 40.6234 91.1368 37.01C93.9615 33.3966 95.5095 28.9492 95.5388 24.3628C95.568 19.7764 94.0769 15.3095 91.2985 11.6604C88.5201 8.01121 84.6109 5.38546 80.1821 4.19344C75.7532 3.00142 71.0541 3.31033 66.8194 5.07192C62.5847 6.83351 59.0531 9.94852 56.7763 13.93L56.2763 14.8H10.8663L3.79633 21.96C3.64434 22.0972 3.52175 22.264 3.43622 22.45C3.52845 22.5941 3.6395 22.7252 3.7663 22.84L12.0363 31.23L17.6862 25.51L23.1563 31.05L28.5363 25.6L33.9163 31.05L39.2863 25.6L47.0063 33.41H47.0463Z" fill="currentColor"/>
    <path d="M70.4667 15.1C70.9912 15.098 71.5045 15.2518 71.9417 15.5418C72.3788 15.8317 72.72 16.2449 72.9221 16.729C73.1242 17.213 73.1781 17.7461 73.077 18.2608C72.9759 18.7755 72.7243 19.2486 72.3541 19.6203C71.9839 19.9919 71.5118 20.2453 70.9974 20.3483C70.4831 20.4514 69.9498 20.3995 69.465 20.1992C68.9802 19.999 68.5657 19.6593 68.274 19.2233C67.9824 18.7873 67.8267 18.2746 67.8267 17.75C67.8293 17.0497 68.1079 16.3787 68.6022 15.8826C69.0964 15.3865 69.7664 15.1053 70.4667 15.1Z" fill="currentColor"/>
    <path d="M80.1466 15.1C80.6707 15.1 81.1831 15.2554 81.6189 15.5466C82.0547 15.8378 82.3943 16.2517 82.5948 16.7359C82.7954 17.2201 82.8479 17.7529 82.7456 18.267C82.6434 18.781 82.391 19.2532 82.0204 19.6238C81.6498 19.9944 81.1776 20.2468 80.6636 20.3491C80.1495 20.4513 79.6167 20.3988 79.1324 20.1982C78.6482 19.9977 78.2344 19.658 77.9432 19.2222C77.6521 18.7864 77.4966 18.2741 77.4966 17.75C77.4992 17.048 77.7792 16.3755 78.2756 15.8791C78.772 15.3827 79.4446 15.1026 80.1466 15.1Z" fill="currentColor"/>
    <path d="M75.3066 37.38C72.0842 37.3747 68.9954 36.0915 66.7177 33.812C64.4399 31.5324 63.1594 28.4425 63.1567 25.22H66.6167C66.5771 26.3866 66.7727 27.5493 67.1919 28.6388C67.611 29.7283 68.2452 30.7223 69.0565 31.5616C69.8678 32.4009 70.8397 33.0683 71.9143 33.5242C72.9889 33.98 74.1443 34.2149 75.3116 34.2149C76.479 34.2149 77.6345 33.98 78.7091 33.5242C79.7837 33.0683 80.7556 32.4009 81.5669 31.5616C82.3782 30.7223 83.0124 29.7283 83.4315 28.6388C83.8507 27.5493 84.0463 26.3866 84.0067 25.22H87.4667C87.464 28.4442 86.1821 31.5356 83.9022 33.8155C81.6224 36.0954 78.5309 37.3774 75.3066 37.38V37.38Z" fill="currentColor"/>
    <path d="M53.6366 22.3699H17.7866V18.9099H53.6366V22.3699Z" fill="currentColor"/>
  </g>
</svg>
