<svg viewBox="0 0 50 52" fill="none" xmlns="http://www.w3.org/2000/svg">
  <g id="learn_forgiveness">
    <path d="M46.3035 29.0014C45.7926 28.9549 45.2724 29.0478 44.7987 29.2615C44.7243 27.3386 44.5943 26.2052 44.5014 25.3599C44.3713 24.4867 44.3435 23.5949 44.4178 22.7124C44.5572 21.1518 44.9101 20.6502 45.0773 20.5944C45.1424 20.5666 45.3096 20.6409 45.5233 20.9103C46.062 21.5698 46.8423 25.3506 47.3625 29.3915C47.0467 29.1686 46.6844 29.0385 46.3035 29.0014ZM43.0708 30.5062C43.0987 29.6423 43.1173 28.4811 43.108 28.0074C43.0894 27.5336 43.0337 26.8648 42.9687 26.196C42.8851 25.2299 42.7829 24.1337 42.7829 23.1212C42.7736 21.8764 43.3309 20.6966 44.2878 19.9349C44.3992 19.8606 44.4642 19.8792 44.4921 19.8885C44.5385 19.907 44.585 19.9442 44.6315 19.9813C44.1391 20.3343 43.8233 21.2261 43.6932 22.6381C43.6096 23.5763 43.6375 24.5239 43.7768 25.4528C43.879 26.3353 44.009 27.5429 44.0834 29.6702C43.7118 29.921 43.3774 30.1997 43.0708 30.5062ZM41.6588 32.1876C41.6588 31.8996 41.6403 31.5559 41.6217 31.1472C41.5567 29.7073 41.4638 27.5336 41.7239 26.9856C41.8818 26.6511 42.0211 26.5489 42.0676 26.5397C42.114 26.5304 42.114 26.5397 42.1233 26.5675C42.1605 26.6047 42.2162 26.6418 42.2627 26.6604C42.3091 27.1713 42.3463 27.6451 42.3648 28.0352C42.3834 28.6855 42.3277 30.8221 42.2998 31.3702L42.1419 31.5652C41.9654 31.7789 41.8075 31.9925 41.6588 32.1876ZM48.3565 31.2122C48.403 30.9614 48.3751 30.7013 48.2822 30.4691C47.762 25.8708 46.8237 21.2726 46.1177 20.4179C45.9505 20.2043 45.7462 20.0278 45.5047 19.907C45.3375 19.5633 45.068 19.2939 44.7243 19.1546C44.4456 19.0617 44.1391 19.1081 43.8976 19.2846C42.7179 20.1857 42.0304 21.6163 42.0397 23.1304C42.0397 24.0037 42.114 24.9233 42.1883 25.7779C42.114 25.7686 42.0397 25.7686 41.9747 25.7779C41.6217 25.8244 41.3152 26.1216 41.0551 26.6511C40.7299 27.3293 40.7764 28.9642 40.8786 31.2029C40.9343 31.9089 40.9436 32.6149 40.9157 33.3209C40.6928 33.6739 40.4791 34.0269 40.2468 34.4078C39.9031 34.9837 39.5223 35.634 38.9649 36.4793C38.7048 36.7487 38.4076 36.9902 38.0824 37.1853C35.9552 38.6159 34.1158 40.4552 32.6574 42.5918C30.5394 45.6015 30.3165 47.4315 30.2886 47.7752L29.4712 50.7943C29.4154 50.9986 29.5362 51.2123 29.7313 51.2773C29.7684 51.2773 29.7963 51.2773 29.8335 51.2773C30.0099 51.2866 30.1585 51.1659 30.205 50.9894L31.0132 47.9424C31.0132 47.9053 31.0132 47.8774 31.0132 47.8403C31.0132 47.8403 31.0875 46.1031 33.2426 43.0469C34.6546 40.9754 36.4289 39.2011 38.4819 37.8263C38.8906 37.5848 39.2622 37.2782 39.5687 36.9066C40.1261 36.0427 40.5163 35.3925 40.8693 34.8072C41.4173 33.8411 42.0397 32.9215 42.7178 32.0483C43.944 30.4877 45.1981 29.6795 46.2292 29.7817C46.7866 29.8281 47.2882 30.1625 47.5669 30.6734C47.5948 30.8685 47.6133 31.0636 47.6319 31.2494C47.4183 32.0669 46.285 33.3581 45.4861 34.2684C44.9844 34.7979 44.5293 35.3739 44.1299 35.9963C43.1173 37.9378 42.3091 39.9814 41.7332 42.1087C41.6867 42.3224 41.8075 42.5267 42.0118 42.5732C42.2069 42.6196 42.402 42.4988 42.4577 42.3038C43.0244 40.2415 43.8047 38.2536 44.7894 36.3678C45.1609 35.8105 45.5882 35.2903 46.0527 34.8072C46.6751 34.1291 47.2511 33.4138 47.7806 32.6614C48.0593 35.8662 48.0778 38.7459 47.5669 39.7956C46.9445 41.1054 43.173 44.589 37.4879 49.1036C37.1349 49.3916 37.107 50.2555 37.1442 50.9243C37.1535 51.1287 37.3207 51.2959 37.525 51.2959H37.5436C37.748 51.2773 37.9059 51.0915 37.8966 50.8779C37.8595 50.4877 37.8874 50.0883 37.971 49.7074C41.4173 46.9763 47.3068 42.1087 48.245 40.1486C48.8303 38.7924 48.756 35.0766 48.3565 31.2122Z" fill="currentColor" stroke="currentColor" stroke-miterlimit="10"/>
    <path d="M43.8697 4.68169C43.9347 4.60737 43.9904 4.51449 44.0183 4.4123C44.0462 4.51449 44.0927 4.59808 44.167 4.68169C44.232 4.74671 44.3156 4.80245 44.4085 4.83032C44.3156 4.86748 44.232 4.91393 44.167 4.97896C44.1019 5.05327 44.0462 5.14616 44.0183 5.24834C43.9904 5.14616 43.944 5.06256 43.8697 4.97896C43.7954 4.91393 43.7211 4.85819 43.6282 4.83032C43.7118 4.81174 43.7954 4.756 43.8697 4.68169ZM42.1419 5.22048C42.5413 5.30408 42.9314 5.41556 43.3216 5.54561C43.4609 6.03795 43.5632 6.53028 43.6468 7.03191C43.6468 7.24556 43.8139 7.42207 44.0276 7.42207C44.2413 7.42207 44.4085 7.24556 44.4085 7.03191C44.4828 6.53028 44.5943 6.03795 44.7336 5.54561C45.1145 5.40627 45.5139 5.29479 45.9134 5.22048C46.1177 5.22048 46.2942 5.04398 46.2942 4.83032C46.2942 4.61667 46.127 4.44017 45.9134 4.44017C45.5139 4.35656 45.1238 4.24509 44.7336 4.11503C44.5943 3.6227 44.4921 3.13037 44.4085 2.62874C44.4085 2.41508 44.2413 2.23859 44.0276 2.23859C43.8139 2.23859 43.6468 2.41508 43.6468 2.62874C43.5724 3.13037 43.4609 3.63199 43.3216 4.11503C42.9407 4.25438 42.5413 4.35656 42.1419 4.44017C41.9375 4.44017 41.761 4.61667 41.761 4.83032C41.7703 5.04398 41.9375 5.22048 42.1419 5.22048Z" fill="currentColor" stroke="currentColor" stroke-miterlimit="10"/>
    <path d="M6.08047 9.12201C6.11763 9.08485 6.14548 9.03841 6.17335 8.99196C6.19192 9.03841 6.22912 9.08485 6.26627 9.12201C6.30343 9.15917 6.34059 9.19633 6.38704 9.21491C6.34059 9.23349 6.29414 9.27065 6.26627 9.30781C6.22912 9.34497 6.20121 9.39141 6.17335 9.43786C6.15477 9.39141 6.11763 9.34497 6.08047 9.30781C6.04332 9.27065 6.00615 9.23349 5.95971 9.21491C6.00615 9.19633 6.04332 9.15917 6.08047 9.12201ZM4.34336 9.59578C4.7428 9.67009 5.13298 9.75369 5.52313 9.86516C5.59745 10.1346 5.7182 10.8684 5.8018 11.4908C5.8018 11.7045 5.96898 11.881 6.17335 11.881C6.37771 11.881 6.55424 11.7045 6.55424 11.4908C6.62856 10.8777 6.74931 10.1438 6.83291 9.86516C7.22307 9.75369 7.62253 9.6608 8.01269 9.59578C8.21705 9.59578 8.39353 9.41928 8.39353 9.20562C8.39353 8.99197 8.22634 8.81547 8.01269 8.81547C7.61324 8.74116 7.22307 8.65754 6.83291 8.54607C6.7586 8.27668 6.63785 7.54282 6.55424 6.92043C6.55424 6.70677 6.387 6.53027 6.17335 6.53027C5.96898 6.53027 5.8018 6.70677 5.8018 6.92043C5.7182 7.53353 5.59745 8.26739 5.52313 8.54607C5.13298 8.65754 4.73352 8.75045 4.34336 8.81547C4.13899 8.81547 3.96246 8.99197 3.96246 9.20562C3.96246 9.41928 4.1297 9.59578 4.34336 9.59578Z" fill="currentColor" stroke="currentColor" stroke-miterlimit="10"/>
    <path d="M27.2231 41.0775C27.1767 41.124 27.0838 41.2169 26.9444 41.7185C26.8051 41.2169 26.7122 41.124 26.6657 41.0775C26.4985 40.9475 26.3127 40.8453 26.1084 40.7896C26.3127 40.7338 26.4985 40.6409 26.6657 40.5016C26.7122 40.4551 26.8051 40.3622 26.9444 39.8606C27.0838 40.3622 27.1767 40.4551 27.2231 40.5016C27.3903 40.6316 27.5761 40.7338 27.7804 40.7896C27.5854 40.8453 27.3996 40.9475 27.2416 41.0775H27.2231ZM29.6662 40.7988C29.6662 40.613 29.5455 40.4458 29.369 40.4087C28.8302 40.2972 28.2914 40.1486 27.7711 39.9628C27.5761 39.3032 27.4182 38.6251 27.3253 37.9377C27.3253 37.724 27.1581 37.5475 26.9444 37.5475C26.7308 37.5475 26.5635 37.724 26.5635 37.9377C26.4706 38.6251 26.322 39.294 26.127 39.9628C25.6068 40.1579 25.0679 40.3065 24.5292 40.418C24.3248 40.418 24.1483 40.5945 24.1483 40.8081C24.1483 41.0218 24.3155 41.1983 24.5292 41.1983C25.0679 41.3005 25.5882 41.4491 26.1084 41.6256C26.3034 42.2851 26.4614 42.9633 26.5635 43.6507C26.5635 43.8643 26.7308 44.0408 26.9444 44.0408C27.1488 44.0408 27.316 43.8643 27.316 43.6507C27.4182 42.9726 27.5668 42.2944 27.7618 41.6349C28.2821 41.4398 28.8209 41.2912 29.3597 41.1797C29.5454 41.1425 29.6662 40.9846 29.6662 40.7988Z" fill="currentColor" stroke="currentColor" stroke-miterlimit="10"/>
    <path d="M6.94433 31.3702C6.94433 30.8221 6.86073 28.6855 6.8886 28.0352C6.8886 27.6451 6.94432 27.162 6.99077 26.6604C7.0465 26.6418 7.10227 26.6047 7.13943 26.5582C7.15801 26.5582 7.16728 26.5582 7.18586 26.5582C7.18586 26.5582 7.3252 26.5861 7.52957 27.0041C7.78967 27.5522 7.69676 29.7352 7.63174 31.1658C7.63174 31.5559 7.5946 31.9182 7.5946 32.2062C7.44597 32.0111 7.29733 31.816 7.12083 31.5745L6.94433 31.3702ZM5.15148 29.6795C5.21651 27.5522 5.35586 26.3446 5.45805 25.4621C5.59739 24.5332 5.62523 23.5856 5.54162 22.6474C5.41157 21.2261 5.09572 20.3436 4.60338 19.9906C4.64054 19.9535 4.68701 19.9163 4.74275 19.8977C4.77061 19.8977 4.82632 19.8699 4.94709 19.9442C5.90389 20.6966 6.46131 21.8857 6.45202 23.1304C6.45202 24.143 6.34983 25.2391 6.26622 26.2052C6.21049 26.8648 6.14544 27.4965 6.12686 28.0167C6.10828 28.5276 6.12684 29.6516 6.16399 30.5155C5.84816 30.1997 5.51377 29.921 5.15148 29.6795ZM2.922 29.0014C2.54114 29.0385 2.1696 29.1779 1.85376 29.3915C2.37396 25.3506 3.15425 21.5884 3.69304 20.9103C3.91598 20.6409 4.07389 20.5666 4.13891 20.5944C4.30612 20.6502 4.65914 21.1611 4.79848 22.7124C4.8728 23.5949 4.8449 24.4867 4.71485 25.3599C4.62196 26.2052 4.49195 27.3386 4.41764 29.2615C3.94388 29.0478 3.43292 28.9642 2.922 29.0014ZM18.9462 47.7659C18.9276 47.4222 18.6954 45.5922 16.5774 42.5825C15.119 40.4366 13.2704 38.6066 11.1525 37.176C10.8273 36.9717 10.5301 36.7301 10.27 36.4515C9.72188 35.5968 9.33172 34.9559 8.98801 34.3799C8.76506 33.9898 8.55139 33.6553 8.32844 33.3024C8.29128 32.5964 8.3006 31.8811 8.35634 31.1751C8.45852 28.9456 8.50496 27.3107 8.17984 26.6233C7.92902 26.0938 7.62248 25.7965 7.26019 25.7501C7.18588 25.7408 7.11153 25.7408 7.0465 25.7501C7.12081 24.8954 7.19516 23.9851 7.19516 23.1119C7.20445 21.5977 6.50775 20.1764 5.33728 19.2846C5.09576 19.1081 4.78919 19.0617 4.51051 19.1546C4.1668 19.3032 3.8881 19.5726 3.73018 19.9163C3.48865 20.0371 3.27502 20.2136 3.1171 20.4272C2.43897 21.2819 1.48215 25.8801 0.952655 30.4784C0.859761 30.7106 0.831933 30.9707 0.87838 31.2215C0.478936 35.0859 0.404614 38.8017 1.04558 40.1393C1.98381 42.0901 7.87329 46.9578 11.3197 49.6981C11.4033 50.079 11.4311 50.4784 11.3939 50.8686C11.3846 51.0823 11.5333 51.268 11.7469 51.2866H11.7655C11.9606 51.2866 12.1278 51.1287 12.1371 50.9243C12.1743 50.2462 12.1371 49.3823 11.7934 49.1036C6.10831 44.589 2.34607 41.1147 1.71439 39.8049C1.21276 38.7459 1.22207 35.8662 1.50075 32.6707C2.03025 33.4231 2.60618 34.1384 3.22857 34.8165C3.69304 35.2996 4.11105 35.8198 4.49191 36.3771C5.47659 38.2629 6.25691 40.2508 6.82356 42.3131C6.88859 42.5174 7.09296 42.6382 7.29733 42.5732C7.48312 42.5081 7.59456 42.3131 7.55741 42.1087C6.98146 39.9814 6.17333 37.9378 5.16078 35.9963C4.76134 35.3739 4.30614 34.7979 3.80451 34.2684C3.00562 33.3581 1.87231 32.0669 1.65866 31.2494C1.68653 31.0729 1.70509 30.8871 1.70509 30.692C1.97449 30.1904 2.45756 29.856 3.00563 29.8002C4.04605 29.6981 5.2908 30.497 6.517 32.0669C7.19512 32.9401 7.80827 33.8597 8.36563 34.8258C8.70934 35.4018 9.11804 36.0613 9.66612 36.9252C9.97267 37.2968 10.3442 37.6033 10.753 37.8449C12.8059 39.2197 14.5802 40.994 15.9922 43.0655C18.1473 46.1217 18.2217 47.8496 18.2217 47.8588C18.2217 47.896 18.2217 47.9239 18.2217 47.961L19.0484 51.0172C19.0949 51.1937 19.2528 51.3052 19.4293 51.3052C19.4664 51.3052 19.4943 51.3052 19.5315 51.3052C19.7265 51.2495 19.8473 51.0358 19.7916 50.8221L18.9462 47.7659Z" fill="currentColor" stroke="currentColor" stroke-miterlimit="10"/>
    <path d="M36.0481 20.1764C36.0481 19.4147 35.9088 18.4486 35.2399 18.0863C35.0541 17.9841 34.8311 18.0584 34.729 18.2535C34.6361 18.4486 34.7011 18.6808 34.8869 18.783C35.1284 18.913 35.2585 19.4239 35.2864 20.1207C35.0448 20.7523 33.3541 25.2577 32.8804 26.5025C32.6389 27.1156 32.3045 27.6915 31.9143 28.221C31.6263 28.6205 31.3662 29.0385 31.134 29.4751C30.3815 30.9335 29.2947 32.457 28.598 32.5684C28.4679 32.587 28.3472 32.5406 28.2636 32.4477C27.6505 31.816 28.4772 30.4319 29.0811 29.4193C29.2854 29.1035 29.4712 28.7691 29.6291 28.4161C29.7591 28.1095 29.8799 27.8866 30.01 27.6636C30.1772 27.3571 30.3165 27.0413 30.4466 26.7068C30.5209 26.5025 30.4187 26.2795 30.2329 26.2052C30.0378 26.1309 29.8242 26.2331 29.7499 26.4282C29.6477 26.7254 29.5176 27.0134 29.369 27.2921C29.2575 27.515 29.1275 27.7658 28.9881 28.091C28.8395 28.4068 28.6723 28.7041 28.4865 29.0013C27.957 29.8931 27.2789 31.0264 27.3439 31.9832C27.1674 32.3083 26.898 32.7914 26.5543 32.8471C26.2756 32.8657 25.9969 32.7542 25.8019 32.5406C25.3653 32.169 25.644 31.1843 25.9598 30.4226C26.0434 30.2275 25.9691 29.9953 25.7833 29.9024C25.5975 29.8095 25.3746 29.8931 25.2817 30.0882C25.2817 30.0975 25.2724 30.1068 25.2724 30.116C25.0494 30.6641 24.362 32.3362 25.3374 33.1537C25.6439 33.4509 26.0434 33.6182 26.4614 33.646C26.5357 33.646 26.6101 33.6367 26.6844 33.6182C27.0931 33.516 27.4461 33.2466 27.669 32.875C27.6969 32.9122 27.7248 32.9493 27.7619 32.9865C27.9756 33.2094 28.2636 33.3395 28.5608 33.3488C28.6166 33.3488 28.6816 33.3488 28.7373 33.3488C30.1029 33.1351 31.552 30.3854 31.8214 29.8374C32.0351 29.4286 32.2766 29.0385 32.546 28.6669C32.9733 28.091 33.3356 27.4593 33.605 26.7812C33.9301 25.9358 34.8126 23.6042 35.4164 21.9878C35.4536 22.3129 35.5093 22.6938 35.5743 23.1583C35.7415 24.2358 36.3268 25.685 37.3765 26.2609C37.6459 26.4096 37.9431 26.4839 38.2404 26.4839C38.5655 26.4839 38.8814 26.4003 39.1693 26.2424C39.7546 25.9451 39.6338 25.0069 39.4852 23.9014C39.4295 23.5206 39.3922 23.1397 39.3737 22.7588V15.8847C39.3737 15.0765 38.5748 13.9339 36.624 11.8995C35.3049 10.534 35.3793 9.59575 35.6301 8.86189C35.8437 8.20234 36.5776 6.35376 37.2186 4.71883C37.6923 3.52978 38.1289 2.39648 38.3426 1.84841C38.4169 1.63475 38.3054 1.4025 38.101 1.32819C37.8967 1.25387 37.6737 1.36535 37.5994 1.57901C37.395 2.1085 36.9584 3.24181 36.494 4.44943C35.8158 6.17726 35.1099 7.96083 34.8869 8.63896C34.6082 9.475 34.4317 10.7848 36.0666 12.4848C36.6983 13.135 38.5934 15.1137 38.5934 15.9218V22.796C38.6027 23.214 38.6491 23.632 38.7142 24.0408C38.7699 24.5053 38.8907 25.3692 38.7885 25.5735C38.4448 25.7593 38.036 25.7593 37.6923 25.5735C36.9398 25.1834 36.4383 23.9757 36.2896 23.0468C36.1131 22.1086 36.0295 21.1611 36.0388 20.2043L36.0481 20.1764Z" fill="currentColor" stroke="currentColor" stroke-miterlimit="10"/>
    <path d="M24.1855 30.1346C24.1112 29.9396 23.8883 29.8374 23.6932 29.921C23.4981 30.0046 23.4145 30.2275 23.4888 30.4319C23.9068 31.4723 23.9254 32.1504 23.5631 32.457C23.3588 32.6707 23.0707 32.7821 22.7735 32.7635C22.4019 32.6892 22.0861 32.2062 21.9189 31.9182C21.9467 30.9707 21.2872 29.8653 20.767 29.0013C20.5812 28.7134 20.414 28.4068 20.2654 28.091C20.1261 27.7751 20.0053 27.5243 19.8845 27.2828C19.7452 27.0134 19.6151 26.7254 19.5037 26.4375C19.4293 26.2331 19.2064 26.1402 19.0113 26.2238C18.8162 26.3074 18.7233 26.5304 18.7977 26.7347C18.9184 27.0506 19.0671 27.3571 19.2157 27.6544C19.3272 27.8866 19.4572 28.1281 19.5872 28.4347C19.7451 28.7784 19.9124 29.1128 20.1074 29.4379C20.7112 30.4412 21.538 31.8253 20.9249 32.4663C20.8413 32.5685 20.7113 32.6149 20.5905 32.587C19.9031 32.4756 18.7884 30.9521 18.0545 29.4937C17.8223 29.0571 17.5621 28.639 17.2742 28.2396C16.884 27.7101 16.5589 27.1249 16.3081 26.5118C15.8343 25.267 14.1344 20.7616 13.9021 20.13C13.9021 19.3032 14.0879 18.8945 14.2365 18.7923C14.413 18.6715 14.4688 18.43 14.3573 18.2349C14.2458 18.0491 14.0043 17.9934 13.8278 18.1142C13.2704 18.5043 13.1497 19.4332 13.1497 20.1671C13.1497 21.1239 13.0661 22.0714 12.8896 23.0097C12.741 23.9386 12.2393 25.137 11.4869 25.5364C11.1432 25.7222 10.7345 25.7222 10.3908 25.5364C10.2886 25.332 10.3907 24.4681 10.465 24.0036C10.5301 23.5856 10.5672 23.1769 10.5858 22.7589V15.894C10.5858 15.0858 12.4902 13.1072 13.1125 12.4569C14.7475 10.757 14.5709 9.45644 14.2923 8.61111C14.2179 8.38816 12.453 3.04674 11.9142 1.58831C11.8399 1.38394 11.6262 1.28177 11.4312 1.36537C11.2361 1.43969 11.1432 1.67192 11.2175 1.86699C11.747 3.31614 13.512 8.63896 13.5863 8.86191C13.8278 9.60506 13.9021 10.534 12.5923 11.8995C10.6323 13.9339 9.84266 15.0858 9.84266 15.8847V22.7774C9.82408 23.1583 9.79621 23.5392 9.73119 23.92C9.59185 25.0069 9.46182 25.9451 10.0471 26.261C10.335 26.4096 10.6509 26.4932 10.976 26.5025C11.2733 26.5025 11.5705 26.4282 11.8399 26.2795C12.8989 25.7129 13.4748 24.2545 13.642 23.1769C13.7164 22.7124 13.7628 22.3408 13.8 22.0064C14.4131 23.6228 15.3048 25.9637 15.6114 26.7998C15.8808 27.4779 16.2338 28.1096 16.6704 28.6855C16.9398 29.0571 17.1813 29.4472 17.3949 29.856C17.6736 30.404 19.1135 33.1444 20.479 33.3674C20.5348 33.3674 20.5998 33.3674 20.6555 33.3674C20.9621 33.3674 21.25 33.2373 21.4544 33.0051C21.5009 32.9493 21.5473 32.9029 21.5938 32.8379C21.8446 33.1909 22.2068 33.4417 22.6156 33.5439C22.6992 33.5624 22.7828 33.5717 22.8571 33.5717C23.2844 33.5531 23.6932 33.3766 24.009 33.0794C25.0215 32.234 24.3899 30.6549 24.1855 30.1346Z" fill="currentColor" stroke="currentColor" stroke-miterlimit="10"/>
    <path d="M22.9128 5.08111L23.0986 5.47127C23.9068 7.23625 24.2226 7.97011 24.2226 9.26134V13.1072C24.2226 13.3208 24.3899 13.4973 24.6035 13.4973C24.8079 13.4973 24.9751 13.3208 24.9751 13.1072V9.27992C24.9751 7.9887 25.3095 7.25483 26.0991 5.49913L26.2849 5.10898C26.7958 4.04999 27.2417 2.96313 27.6226 1.8484C27.6876 1.64404 27.5761 1.42108 27.3717 1.35605C27.1674 1.29103 26.963 1.4118 26.898 1.61617C26.545 2.69374 26.1177 3.74344 25.6346 4.76528L25.4488 5.15543C25.0773 5.93574 24.8172 6.55812 24.6128 7.10619C24.4177 6.53954 24.139 5.93574 23.7675 5.12756L23.5817 4.73741C23.0986 3.71557 22.6806 2.67516 22.3276 1.59759C22.2626 1.39322 22.0489 1.27246 21.8538 1.33749C21.6495 1.40251 21.538 1.62546 21.6031 1.82982C21.9746 2.93526 22.4112 4.02212 22.9128 5.08111Z" fill="currentColor" stroke="currentColor" stroke-miterlimit="10"/>
    <path d="M19.9588 12.4941C22.3183 12.4941 24.2319 14.482 24.2412 16.9344C24.2412 17.1481 24.4084 17.3246 24.6128 17.3246C24.8172 17.3246 24.9936 17.1481 24.9936 16.9344C24.9193 14.482 26.7772 12.4383 29.146 12.364C31.5055 12.2897 33.4749 14.2219 33.5492 16.6743C33.5492 16.7579 33.5492 16.8508 33.5492 16.9344C33.5492 22.2572 28.0684 26.456 25.1237 28.7134L24.6499 29.0757L24.2412 28.7784C21.2314 26.5118 15.6764 22.3037 15.6764 16.9344C15.6671 14.482 17.59 12.4941 19.9588 12.4941ZM23.8046 29.4194L24.4177 29.8838C24.5477 29.986 24.7335 29.986 24.8636 29.8838L25.551 29.3543C28.6072 27.0134 34.283 22.6567 34.283 16.9437C34.283 14.064 32.035 11.7138 29.2575 11.7138C27.2138 11.7138 25.3745 12.9864 24.6035 14.9465C23.5445 12.2804 20.609 11.0078 18.0359 12.1039C16.1594 12.9121 14.924 14.8071 14.924 16.9251C14.9332 22.6938 20.7112 27.0784 23.8046 29.4194Z" fill="currentColor" stroke="currentColor" stroke-miterlimit="10"/>
  </g>
</svg>
