<svg width="35" height="35" viewBox="0 0 35 35" fill="none" xmlns="http://www.w3.org/2000/svg">
<path d="M35 21.6976V34.9803H27.3972V22.5845C27.3972 19.4707 26.3083 17.3423 23.5472 17.3423C21.4472 17.3423 20.2027 18.781 19.6583 20.1605C19.4639 20.6532 19.4055 21.3429 19.4055 22.0327V34.9803H11.8027C11.8027 34.9803 11.8999 13.9921 11.8027 11.8046H19.4055V15.0957C19.3861 15.1154 19.3666 15.1548 19.3471 15.1745H19.4055V15.1154C20.4166 13.5389 22.225 11.2922 26.25 11.2922C31.2472 11.2725 35 14.5833 35 21.6976ZM0 35H7.60261V11.8243H0V35ZM7.83593 3.96115C7.83593 6.14865 6.08615 7.9223 3.92782 7.9223C1.76948 7.9223 0.0194634 6.14865 0.0194634 3.96115C0.0194634 1.77365 1.76948 0 3.92782 0C6.08615 0 7.83593 1.77365 7.83593 3.96115Z" fill="currentColor"/>
</svg>
