<svg viewBox="0 0 95 79" fill="none" xmlns="http://www.w3.org/2000/svg">
<g clip-path="url(#clip0)">
<path d="M48.0799 77.16C41.9199 77.16 36.9099 71.74 36.9099 65.07C36.9099 64.47 36.9499 63.86 37.0399 63.26C31.2599 59.73 27.6899 53.43 27.6899 46.62C27.6899 35.88 36.4199 27.15 47.1599 27.15C57.8999 27.15 66.6299 35.89 66.6299 46.62C66.6299 47.19 66.1699 47.64 65.5999 47.64C65.0299 47.64 64.5799 47.18 64.5799 46.62C64.5799 37.01 56.7599 29.2 47.1599 29.2C37.5599 29.2 29.7399 37.02 29.7399 46.62C29.7399 52.92 33.1599 58.75 38.6699 61.83C39.0599 62.05 39.2599 62.49 39.1699 62.92C39.0299 63.63 38.9599 64.35 38.9599 65.06C38.9599 70.6 43.0499 75.1 48.0799 75.1C53.1099 75.1 57.1999 70.6 57.1999 65.06C57.1999 64.49 57.6599 64.03 58.2299 64.03C58.7999 64.03 59.2499 64.49 59.2499 65.06C59.2499 71.73 54.2399 77.16 48.0799 77.16Z" fill="currentColor" stroke="currentColor" stroke-miterlimit="10"/>
<path d="M48.9999 66.09H45.3099C44.7399 66.09 44.2899 65.63 44.2899 65.06C44.2899 64.49 44.7499 64.04 45.3099 64.04H48.9999C50.4699 64.04 51.6599 62.84 51.6599 61.38C51.6599 59.92 50.4599 58.71 48.9999 58.71H47.1599C43.8199 58.71 40.7199 57.38 38.4099 54.97C36.1099 52.56 34.9199 49.39 35.0799 46.05C35.3599 39.88 40.4199 34.82 46.5899 34.54C49.9299 34.39 53.0999 35.57 55.5099 37.87C57.9199 40.18 59.2499 43.28 59.2499 46.62C59.2499 47.19 58.7899 47.65 58.2199 47.65C57.6499 47.65 57.1999 47.19 57.1999 46.62C57.1999 43.85 56.0999 41.27 54.0899 39.36C52.0899 37.45 49.4499 36.46 46.6799 36.59C41.5599 36.83 37.3599 41.02 37.1199 46.15C36.9899 48.93 37.9799 51.56 39.8899 53.56C41.7999 55.56 44.3899 56.67 47.1599 56.67H48.9999C51.5999 56.67 53.7199 58.78 53.7199 61.39C53.7099 63.97 51.5999 66.09 48.9999 66.09Z" fill="currentColor" stroke="currentColor" stroke-miterlimit="10"/>
<path d="M47.9699 2.55C47.6999 2.55 47.4399 2.44 47.2399 2.25C47.0499 2.06 46.9399 1.8 46.9399 1.52C46.9399 1.25 47.0499 0.99 47.2399 0.8C47.4299 0.61 47.6899 0.5 47.9699 0.5C48.2399 0.5 48.4999 0.61 48.6999 0.8C48.8899 0.99 48.9999 1.26 48.9999 1.52C48.9999 1.79 48.8899 2.06 48.6999 2.25C48.5099 2.44 48.2399 2.55 47.9699 2.55Z" fill="currentColor" stroke="currentColor" stroke-miterlimit="10"/>
<path d="M47.9699 8.69999C47.6999 8.69999 47.4399 8.58999 47.2399 8.39999C47.0499 8.20999 46.9399 7.94999 46.9399 7.66999C46.9399 7.39999 47.0499 7.13999 47.2399 6.94999C47.4299 6.75999 47.6899 6.64999 47.9699 6.64999C48.2399 6.64999 48.4999 6.75999 48.6999 6.94999C48.8899 7.13999 48.9999 7.40999 48.9999 7.66999C48.9999 7.93999 48.8899 8.20999 48.6999 8.39999C48.5099 8.58999 48.2399 8.69999 47.9699 8.69999Z" fill="currentColor" stroke="currentColor" stroke-miterlimit="10"/>
<path d="M47.9699 14.85C47.6999 14.85 47.4399 14.74 47.2399 14.55C47.0499 14.36 46.9399 14.1 46.9399 13.82C46.9399 13.55 47.0499 13.29 47.2399 13.1C47.4299 12.91 47.6899 12.8 47.9699 12.8C48.2399 12.8 48.4999 12.91 48.6999 13.1C48.8999 13.29 48.9999 13.55 48.9999 13.82C48.9999 14.09 48.8899 14.36 48.6999 14.55C48.5099 14.74 48.2399 14.85 47.9699 14.85Z" fill="currentColor" stroke="currentColor" stroke-miterlimit="10"/>
<path d="M47.9699 21C47.6999 21 47.4399 20.89 47.2399 20.7C47.0499 20.51 46.9399 20.25 46.9399 19.97C46.9399 19.7 47.0499 19.44 47.2399 19.25C47.4299 19.06 47.6899 18.95 47.9699 18.95C48.2399 18.95 48.4999 19.06 48.6999 19.25C48.8899 19.44 48.9999 19.7 48.9999 19.97C48.9999 20.24 48.8899 20.5 48.6999 20.7C48.5099 20.89 48.2399 21 47.9699 21Z" fill="currentColor" stroke="currentColor" stroke-miterlimit="10"/>
<path d="M80.16 15.46C79.89 15.46 79.63 15.35 79.43 15.16C79.24 14.97 79.13 14.71 79.13 14.43C79.13 14.16 79.24 13.9 79.43 13.71C79.62 13.52 79.88 13.41 80.16 13.41C80.43 13.41 80.69 13.52 80.88 13.71C81.07 13.9 81.18 14.16 81.18 14.43C81.18 14.7 81.07 14.97 80.88 15.16C80.69 15.35 80.43 15.46 80.16 15.46Z" fill="currentColor" stroke="currentColor" stroke-miterlimit="10"/>
<path d="M75.81 19.81C75.54 19.81 75.28 19.7 75.09 19.51C74.9 19.32 74.79 19.06 74.79 18.79C74.79 18.52 74.9 18.26 75.09 18.06C75.28 17.87 75.54 17.76 75.81 17.76C76.08 17.76 76.34 17.87 76.54 18.06C76.73 18.25 76.84 18.52 76.84 18.79C76.84 19.06 76.73 19.32 76.54 19.51C76.34 19.69 76.08 19.81 75.81 19.81Z" fill="currentColor" stroke="currentColor" stroke-miterlimit="10"/>
<path d="M71.4601 24.15C71.1901 24.15 70.9301 24.04 70.7301 23.85C70.5401 23.66 70.4301 23.4 70.4301 23.12C70.4301 22.85 70.5401 22.59 70.7301 22.39C70.9201 22.2 71.1801 22.09 71.4601 22.09C71.7301 22.09 71.9901 22.2 72.1901 22.39C72.3801 22.58 72.4901 22.85 72.4901 23.12C72.4901 23.39 72.3801 23.66 72.1901 23.85C72.0001 24.04 71.7301 24.15 71.4601 24.15Z" fill="currentColor" stroke="currentColor" stroke-miterlimit="10"/>
<path d="M67.12 28.5C66.85 28.5 66.59 28.39 66.39 28.2C66.2 28.01 66.09 27.75 66.09 27.47C66.09 27.2 66.2 26.94 66.39 26.75C66.58 26.56 66.84 26.45 67.12 26.45C67.39 26.45 67.65 26.56 67.84 26.75C68.03 26.94 68.14 27.2 68.14 27.47C68.14 27.74 68.03 28.01 67.84 28.2C67.65 28.39 67.39 28.5 67.12 28.5Z" fill="currentColor" stroke="currentColor" stroke-miterlimit="10"/>
<path d="M27.4799 64.73C27.2099 64.73 26.95 64.62 26.75 64.43C26.56 64.24 26.45 63.98 26.45 63.7C26.45 63.43 26.56 63.17 26.75 62.97C26.94 62.78 27.1999 62.67 27.4799 62.67C27.7499 62.67 28.0099 62.78 28.2099 62.97C28.3999 63.16 28.51 63.43 28.51 63.7C28.51 63.97 28.3999 64.23 28.2099 64.43C28.0099 64.63 27.7499 64.73 27.4799 64.73Z" fill="currentColor" stroke="currentColor" stroke-miterlimit="10"/>
<path d="M23.13 69.08C22.86 69.08 22.6 68.97 22.4 68.78C22.21 68.59 22.1 68.32 22.1 68.05C22.1 67.78 22.21 67.52 22.4 67.33C22.59 67.14 22.85 67.03 23.13 67.03C23.4 67.03 23.66 67.14 23.85 67.33C24.04 67.52 24.15 67.78 24.15 68.05C24.15 68.32 24.04 68.59 23.85 68.78C23.66 68.97 23.4 69.08 23.13 69.08Z" fill="currentColor" stroke="currentColor" stroke-miterlimit="10"/>
<path d="M18.78 73.43C18.51 73.43 18.25 73.32 18.06 73.13C17.87 72.94 17.76 72.68 17.76 72.41C17.76 72.14 17.87 71.88 18.06 71.69C18.25 71.5 18.51 71.39 18.78 71.39C19.05 71.39 19.31 71.5 19.51 71.69C19.7 71.88 19.81 72.14 19.81 72.41C19.81 72.68 19.7 72.94 19.51 73.13C19.31 73.32 19.05 73.43 18.78 73.43Z" fill="currentColor" stroke="currentColor" stroke-miterlimit="10"/>
<path d="M14.43 77.78C14.16 77.78 13.9 77.67 13.71 77.48C13.52 77.29 13.41 77.03 13.41 76.76C13.41 76.49 13.52 76.23 13.71 76.03C13.9 75.84 14.16 75.73 14.43 75.73C14.7 75.73 14.96 75.84 15.16 76.03C15.35 76.22 15.46 76.49 15.46 76.76C15.46 77.03 15.35 77.29 15.16 77.48C14.97 77.67 14.7 77.78 14.43 77.78Z" fill="currentColor" stroke="currentColor" stroke-miterlimit="10"/>
<path d="M93.07 46.62C92.8 46.62 92.54 46.51 92.34 46.32C92.15 46.13 92.04 45.86 92.04 45.59C92.04 45.32 92.15 45.06 92.34 44.87C92.53 44.68 92.79 44.57 93.07 44.57C93.34 44.57 93.6 44.68 93.79 44.87C93.98 45.06 94.09 45.32 94.09 45.59C94.09 45.86 93.98 46.13 93.79 46.32C93.6 46.51 93.33 46.62 93.07 46.62Z" fill="currentColor" stroke="currentColor" stroke-miterlimit="10"/>
<path d="M86.92 46.62C86.65 46.62 86.39 46.51 86.19 46.32C86 46.13 85.89 45.86 85.89 45.59C85.89 45.32 86 45.06 86.19 44.87C86.38 44.68 86.64 44.57 86.92 44.57C87.19 44.57 87.45 44.68 87.65 44.87C87.84 45.06 87.95 45.32 87.95 45.59C87.95 45.86 87.84 46.13 87.65 46.32C87.45 46.51 87.19 46.62 86.92 46.62Z" fill="currentColor" stroke="currentColor" stroke-miterlimit="10"/>
<path d="M74.62 46.62C74.35 46.62 74.09 46.51 73.89 46.32C73.7 46.13 73.59 45.86 73.59 45.59C73.59 45.32 73.7 45.06 73.89 44.87C74.08 44.68 74.34 44.57 74.62 44.57C74.89 44.57 75.15 44.68 75.35 44.87C75.54 45.06 75.65 45.32 75.65 45.59C75.65 45.86 75.54 46.13 75.35 46.32C75.15 46.51 74.89 46.62 74.62 46.62Z" fill="currentColor" stroke="currentColor" stroke-miterlimit="10"/>
<path d="M19.9699 46.62C19.6999 46.62 19.4399 46.51 19.2399 46.32C19.0499 46.13 18.9399 45.86 18.9399 45.59C18.9399 45.32 19.0499 45.06 19.2399 44.87C19.4299 44.68 19.6899 44.57 19.9699 44.57C20.2399 44.57 20.4999 44.68 20.6899 44.87C20.8799 45.06 20.9899 45.32 20.9899 45.59C20.9899 45.86 20.8799 46.12 20.6899 46.32C20.5099 46.51 20.2399 46.62 19.9699 46.62Z" fill="currentColor" stroke="currentColor" stroke-miterlimit="10"/>
<path d="M13.82 46.62C13.55 46.62 13.29 46.51 13.09 46.32C12.9 46.13 12.79 45.86 12.79 45.59C12.79 45.32 12.9 45.06 13.09 44.87C13.28 44.68 13.54 44.57 13.82 44.57C14.09 44.57 14.35 44.68 14.54 44.87C14.73 45.06 14.84 45.32 14.84 45.59C14.84 45.86 14.73 46.13 14.54 46.32C14.36 46.51 14.09 46.62 13.82 46.62Z" fill="currentColor" stroke="currentColor" stroke-miterlimit="10"/>
<path d="M7.67001 46.62C7.40001 46.62 7.14001 46.51 6.94001 46.32C6.75001 46.13 6.64001 45.86 6.64001 45.59C6.64001 45.32 6.75001 45.06 6.94001 44.87C7.13001 44.68 7.39001 44.57 7.67001 44.57C7.94001 44.57 8.20002 44.68 8.39002 44.87C8.58002 45.06 8.69001 45.32 8.69001 45.59C8.69001 45.86 8.58002 46.13 8.39002 46.32C8.21002 46.51 7.94001 46.62 7.67001 46.62Z" fill="currentColor" stroke="currentColor" stroke-miterlimit="10"/>
<path d="M1.53 46.62C1.26 46.62 1 46.51 0.8 46.32C0.61 46.13 0.5 45.86 0.5 45.59C0.5 45.32 0.61 45.06 0.8 44.87C0.99 44.68 1.25 44.57 1.53 44.57C1.8 44.57 2.06 44.68 2.25 44.87C2.44 45.06 2.55 45.32 2.55 45.59C2.55 45.86 2.44 46.12 2.25 46.32C2.06 46.51 1.79 46.62 1.53 46.62Z" fill="currentColor" stroke="currentColor" stroke-miterlimit="10"/>
<path d="M14.43 15.46C14.16 15.46 13.9 15.35 13.71 15.16C13.52 14.97 13.41 14.71 13.41 14.43C13.41 14.16 13.52 13.9 13.71 13.71C13.9 13.52 14.16 13.41 14.43 13.41C14.7 13.41 14.96 13.52 15.16 13.71C15.35 13.9 15.46 14.17 15.46 14.43C15.46 14.7 15.35 14.96 15.16 15.16C14.97 15.35 14.7 15.46 14.43 15.46Z" fill="currentColor" stroke="currentColor" stroke-miterlimit="10"/>
<path d="M18.78 19.81C18.51 19.81 18.25 19.7 18.06 19.51C17.87 19.32 17.76 19.06 17.76 18.79C17.76 18.52 17.87 18.26 18.06 18.06C18.25 17.87 18.51 17.76 18.78 17.76C19.05 17.76 19.31 17.87 19.51 18.06C19.7 18.25 19.81 18.52 19.81 18.79C19.81 19.06 19.7 19.32 19.51 19.51C19.31 19.69 19.05 19.81 18.78 19.81Z" fill="currentColor" stroke="currentColor" stroke-miterlimit="10"/>
<path d="M23.13 24.15C22.86 24.15 22.6 24.04 22.4 23.85C22.21 23.66 22.1 23.4 22.1 23.12C22.1 22.85 22.21 22.59 22.4 22.39C22.59 22.2 22.85 22.09 23.13 22.09C23.4 22.09 23.66 22.2 23.85 22.39C24.04 22.58 24.15 22.85 24.15 23.12C24.15 23.39 24.04 23.66 23.85 23.85C23.66 24.04 23.4 24.15 23.13 24.15Z" fill="currentColor" stroke="currentColor" stroke-miterlimit="10"/>
<path d="M27.4799 28.5C27.2099 28.5 26.95 28.39 26.75 28.2C26.56 28.01 26.45 27.75 26.45 27.47C26.45 27.2 26.56 26.94 26.75 26.75C26.94 26.56 27.1999 26.45 27.4799 26.45C27.7499 26.45 28.01 26.56 28.2 26.75C28.39 26.94 28.5 27.2 28.5 27.47C28.5 27.74 28.39 28.01 28.2 28.2C28.01 28.39 27.7499 28.5 27.4799 28.5Z" fill="currentColor" stroke="currentColor" stroke-miterlimit="10"/>
<path d="M67.12 64.73C66.85 64.73 66.59 64.62 66.39 64.43C66.2 64.24 66.09 63.98 66.09 63.7C66.09 63.43 66.2 63.17 66.39 62.97C66.58 62.78 66.84 62.67 67.12 62.67C67.39 62.67 67.65 62.78 67.84 62.97C68.03 63.16 68.14 63.43 68.14 63.7C68.14 63.97 68.03 64.23 67.84 64.43C67.65 64.63 67.38 64.73 67.12 64.73Z" fill="currentColor" stroke="currentColor" stroke-miterlimit="10"/>
<path d="M71.4601 69.08C71.1901 69.08 70.9301 68.97 70.7301 68.78C70.5401 68.59 70.4301 68.32 70.4301 68.05C70.4301 67.78 70.5401 67.52 70.7301 67.33C70.9201 67.14 71.1801 67.03 71.4501 67.03C71.7201 67.03 71.9901 67.14 72.1801 67.33C72.3701 67.52 72.4801 67.78 72.4801 68.05C72.4801 68.32 72.3701 68.59 72.1801 68.78C72.0001 68.97 71.7401 69.08 71.4601 69.08Z" fill="currentColor" stroke="currentColor" stroke-miterlimit="10"/>
<path d="M75.81 73.43C75.54 73.43 75.28 73.32 75.09 73.13C74.9 72.94 74.79 72.68 74.79 72.41C74.79 72.14 74.9 71.88 75.09 71.69C75.28 71.5 75.54 71.39 75.81 71.39C76.08 71.39 76.34 71.5 76.54 71.69C76.73 71.88 76.84 72.14 76.84 72.41C76.84 72.68 76.73 72.94 76.54 73.13C76.34 73.32 76.08 73.43 75.81 73.43Z" fill="currentColor" stroke="currentColor" stroke-miterlimit="10"/>
<path d="M80.16 77.78C79.89 77.78 79.63 77.67 79.43 77.48C79.24 77.29 79.13 77.03 79.13 76.76C79.13 76.49 79.24 76.23 79.43 76.03C79.62 75.84 79.88 75.73 80.16 75.73C80.43 75.73 80.69 75.84 80.88 76.03C81.07 76.22 81.18 76.49 81.18 76.76C81.18 77.03 81.07 77.29 80.88 77.48C80.69 77.67 80.43 77.78 80.16 77.78Z" fill="currentColor" stroke="currentColor" stroke-miterlimit="10"/>
</g>
<defs>
<clipPath id="clip0">
<rect width="94.59" height="78.28" fill="white"/>
</clipPath>
</defs>
</svg>
