<svg width="45" height="61" viewBox="0 0 45 61" fill="none" xmlns="http://www.w3.org/2000/svg">
  <g id="lock">
    <path d="M44.28 30.96C44.28 26.45 41.2 22.52 36.83 21.43V15.21C36.83 7.10002 30.26 0.52002 22.14 0.52002C14.03 0.52002 7.45 7.09002 7.45 15.21V21.44C3.07 22.53 0 26.46 0 30.97V50.22C0 55.65 4.39999 60.05 9.82999 60.05H34.44C39.87 60.05 44.27 55.65 44.27 50.22V30.96H44.28ZM22.14 3.54004C28.58 3.55004 33.8 8.77002 33.8 15.21V21.13H10.47V15.21C10.48 8.77002 15.69 3.55004 22.14 3.54004ZM41.25 50.22C41.25 53.98 38.2 57.03 34.44 57.03H9.82999C6.06999 57.03 3.01999 53.98 3.01999 50.22V30.96C3.01999 27.2 6.06999 24.15 9.82999 24.15H34.44C38.2 24.15 41.25 27.2 41.25 30.96V50.22Z" fill="currentColor"/>
    <path d="M22.1401 35.3201C19.1901 35.3201 16.8 37.7101 16.8 40.6601C16.8 43.0301 18.3601 45.1101 20.6301 45.7801V50.9301C20.6301 51.7701 21.3101 52.4401 22.1401 52.4401C22.9801 52.4401 23.6501 51.7601 23.6501 50.9301V45.7801C26.4801 44.9401 28.0901 41.9701 27.2601 39.1401C26.5801 36.8801 24.5001 35.3201 22.1401 35.3201ZM22.1401 42.9701C20.8601 42.9701 19.83 41.9301 19.83 40.6601C19.83 39.3801 20.8701 38.3501 22.1401 38.3501C23.4201 38.3501 24.4501 39.3901 24.4501 40.6601C24.4501 41.9401 23.4101 42.9701 22.1401 42.9701Z" fill="currentColor"/>
  </g>
</svg>
