<svg width="64" height="58" viewBox="0 0 64 58" fill="none" xmlns="http://www.w3.org/2000/svg">
  <g id="">
    <path d="M62.04 5.76999H57.71V1.44C57.71 0.640002 57.06 0 56.27 0H55.55C46.91 0.03 38.53 2.94 31.74 8.28C24.96 2.93 16.5701 0.01 7.93005 0H7.20996C6.40996 0 5.77002 0.650002 5.77002 1.44V5.76999H1.43994C0.639941 5.76999 0 6.41999 0 7.20999V53.38C0 54.18 0.649941 54.82 1.43994 54.82H21.35C23.7 54.82 26.03 55.26 28.22 56.12L31.11 57.56C31.46 57.71 31.86 57.71 32.21 57.56L35.1 56.15C37.34 55.27 39.73 54.82 42.14 54.82H62.05C62.85 54.82 63.49 54.17 63.49 53.38V7.20999C63.48 6.41999 62.84 5.76999 62.04 5.76999ZM33.1801 53.33V10.8C39.3201 5.83999 46.9299 3.05998 54.8199 2.88998V46.18C47.0599 46.35 39.5201 48.84 33.1801 53.33ZM8.65002 2.88C16.54 3.06 24.15 5.83998 30.29 10.79V53.32C23.95 48.83 16.41 46.34 8.65002 46.16V2.88ZM2.88 51.94V8.64999H5.77002V47.61C5.77002 48.41 6.41996 49.05 7.20996 49.05H7.83997C12.67 49.06 17.45 50.04 21.89 51.94H2.88ZM60.6 51.94H41.58C46.02 50.05 50.8 49.06 55.63 49.05H56.26C57.06 49.05 57.7 48.4 57.7 47.61V8.64999H60.59V51.94H60.6Z" fill="currentColor"/>
  </g>
</svg>
