<svg width="84" height="85" viewBox="0 0 84 85" fill="none" xmlns="http://www.w3.org/2000/svg">
  <g id="manage_stress">
    <path d="M83.986 42.0485C83.9787 38.3846 82.9243 34.7992 80.9471 31.7146C78.9699 28.6301 76.1521 26.1749 72.826 24.6385C73.3817 23.1844 73.6038 21.6241 73.476 20.0727C73.3483 18.5213 72.874 17.0183 72.088 15.6747C71.3019 14.331 70.2243 13.181 68.9345 12.3093C67.6448 11.4377 66.1759 10.8667 64.6361 10.6385C64.3036 8.11917 63.1951 5.76584 61.4647 3.90494C59.7342 2.04404 57.4676 0.767834 54.9791 0.253421C52.4906 -0.260991 49.9035 0.0118933 47.5771 1.03418C45.2507 2.05647 43.3002 3.77749 41.9961 5.95847C40.6919 3.77749 38.7413 2.05647 36.4149 1.03418C34.0884 0.0118933 31.5015 -0.260991 29.013 0.253421C26.5245 0.767834 24.2577 2.04404 22.5273 3.90494C20.7969 5.76584 19.6885 8.11917 19.356 10.6385C16.8881 11.0328 14.6412 12.2929 13.0178 14.1931C11.3943 16.0932 10.5004 18.5092 10.4961 21.0085C10.4962 22.2179 10.7024 23.4184 11.106 24.5585C7.77969 26.1062 4.9661 28.5741 2.998 31.6704C1.02991 34.7666 -0.0104393 38.3617 7.8975e-05 42.0305C0.0105973 45.6992 1.07152 49.2883 3.05733 52.3732C5.04314 55.4581 7.87084 57.9098 11.206 59.4385C10.7597 60.577 10.5193 61.7858 10.4961 63.0085C10.5004 65.5077 11.3943 67.9237 13.0178 69.8239C14.6412 71.724 16.8881 72.9841 19.356 73.3785C19.6885 75.8978 20.7969 78.2511 22.5273 80.112C24.2577 81.9729 26.5245 83.2491 29.013 83.7635C31.5015 84.2779 34.0884 84.005 36.4149 82.9828C38.7413 81.9605 40.6919 80.2395 41.9961 78.0585C43.3002 80.2395 45.2507 81.9605 47.5771 82.9828C49.9035 84.005 52.4906 84.2779 54.9791 83.7635C57.4676 83.2491 59.7342 81.9729 61.4647 80.112C63.1951 78.2511 64.3036 75.8978 64.6361 73.3785C67.1048 72.986 69.3528 71.7265 70.9766 69.8259C72.6005 67.9253 73.4937 65.5082 73.496 63.0085C73.4959 61.7991 73.2897 60.5985 72.8861 59.4585C76.1972 57.9084 78.9991 55.4484 80.9646 52.3656C82.93 49.2828 83.978 45.7045 83.986 42.0485V42.0485ZM42.116 47.9485L46.546 59.0285L32.336 47.1785L41.476 38.0385C41.7192 37.7963 41.8857 37.4881 41.955 37.1521C42.0244 36.816 41.9935 36.467 41.866 36.1485L37.436 25.0685L51.646 36.9185L42.5061 46.0585C42.2629 46.3006 42.0963 46.6088 42.0269 46.9449C41.9576 47.2809 41.9886 47.6299 42.116 47.9485V47.9485ZM31.486 80.5485C29.1662 80.5458 26.9421 79.6231 25.3017 77.9827C23.6613 76.3424 22.7387 74.1183 22.736 71.7985C22.736 71.3343 22.5517 70.8892 22.2235 70.561C21.8953 70.2328 21.4502 70.0485 20.986 70.0485C19.1295 70.0485 17.349 69.311 16.0362 67.9982C14.7235 66.6854 13.986 64.905 13.986 63.0485C13.986 61.192 14.7235 59.4115 16.0362 58.0987C17.349 56.786 19.1295 56.0485 20.986 56.0485C22.0066 56.0528 23.0142 56.2766 23.9408 56.7044C24.8673 57.1323 25.691 57.7544 26.356 58.5285C26.5071 58.7018 26.6907 58.8437 26.8966 58.9461C27.1024 59.0484 27.3264 59.1092 27.5557 59.125C27.7851 59.1408 28.0154 59.1113 28.2334 59.0381C28.4513 58.9649 28.6527 58.8495 28.826 58.6985C28.9994 58.5474 29.1413 58.3638 29.2436 58.1579C29.346 57.952 29.4068 57.7281 29.4226 57.4987C29.4383 57.2693 29.4088 57.0391 29.3356 56.8211C29.2625 56.6032 29.1471 56.4018 28.996 56.2285C28.0025 55.0796 26.7745 54.1568 25.3946 53.522C24.0147 52.8873 22.5149 52.5553 20.996 52.5485C19.4603 52.5726 17.9483 52.9324 16.5664 53.6027C15.1844 54.273 13.9659 55.2374 12.9961 56.4285C10.0949 55.1699 7.64103 53.0651 5.95552 50.3893C4.27001 47.7135 3.43126 44.5913 3.54903 41.4311C3.66679 38.2709 4.73557 35.2198 6.61556 32.6769C8.49554 30.134 11.0992 28.2176 14.086 27.1785C14.3321 27.0956 14.5561 26.958 14.7414 26.7762C14.9267 26.5943 15.0684 26.3729 15.156 26.1285C15.2451 25.8837 15.2788 25.6221 15.2546 25.3627C15.2304 25.1033 15.1488 24.8526 15.0159 24.6285C14.3842 23.5669 14.0446 22.3571 14.0317 21.1218C14.0187 19.8866 14.3328 18.6699 14.9422 17.5953C15.5516 16.5208 16.4345 15.6266 17.5013 15.0037C18.5681 14.3807 19.7806 14.0512 21.0159 14.0485C21.4801 14.0485 21.9253 13.8641 22.2535 13.5359C22.5817 13.2077 22.7659 12.7626 22.7659 12.2985C22.7659 9.97782 23.6879 7.75221 25.3288 6.11127C26.9698 4.47033 29.1953 3.54847 31.5159 3.54847C33.8366 3.54847 36.0623 4.47033 37.7032 6.11127C39.3441 7.75221 40.2659 9.97782 40.2659 12.2985V22.8585L34.3861 17.9585C34.0882 17.7058 33.7136 17.5614 33.3232 17.5487C32.9328 17.536 32.5497 17.6557 32.236 17.8885C31.9233 18.1179 31.6956 18.4447 31.5888 18.8176C31.482 19.1905 31.5021 19.5883 31.646 19.9485L38.216 36.3785L28.526 46.0585C28.3542 46.2312 28.2203 46.4377 28.1325 46.665C28.0447 46.8922 28.005 47.1351 28.0159 47.3785C28.0261 47.6211 28.0875 47.8588 28.1961 48.0759C28.3047 48.2931 28.458 48.4848 28.646 48.6385L40.2659 58.3285V71.7985C40.266 72.9501 40.0387 74.0903 39.5971 75.1539C39.1555 76.2175 38.5083 77.1834 37.6926 77.9963C36.8769 78.8092 35.9088 79.4531 34.8437 79.8911C33.7786 80.329 32.6376 80.5524 31.486 80.5485V80.5485ZM69.936 56.9185C69.69 57.0014 69.4659 57.1389 69.2806 57.3208C69.0953 57.5026 68.9536 57.7241 68.866 57.9685C68.7769 58.2133 68.7432 58.4748 68.7674 58.7342C68.7916 58.9936 68.8732 59.2444 69.0061 59.4685C69.6378 60.53 69.9774 61.7398 69.9903 62.9751C70.0033 64.2104 69.6892 65.4271 69.0798 66.5016C68.4704 67.5762 67.5875 68.4703 66.5207 69.0933C65.454 69.7162 64.2414 70.0458 63.0061 70.0485C62.5419 70.0485 62.0967 70.2328 61.7685 70.561C61.4403 70.8892 61.2561 71.3343 61.2561 71.7985C61.2561 74.1191 60.3341 76.3447 58.6932 77.9857C57.0523 79.6266 54.8267 80.5485 52.5061 80.5485C50.1854 80.5485 47.9597 79.6266 46.3188 77.9857C44.6779 76.3447 43.7561 74.1191 43.7561 71.7985V61.2385L49.6361 66.1385C49.9494 66.4028 50.3461 66.548 50.7561 66.5485C51.1168 66.5428 51.4666 66.4239 51.7561 66.2085C52.0705 65.9804 52.3001 65.6542 52.4088 65.2812C52.5174 64.9083 52.4989 64.5097 52.356 64.1485L45.826 47.7085L55.5061 38.0285C55.6768 37.8563 55.8099 37.6507 55.8974 37.4246C55.9849 37.1984 56.0248 36.9567 56.0145 36.7145C56.0042 36.4722 55.9439 36.2347 55.8375 36.0169C55.7311 35.799 55.5807 35.6055 55.396 35.4485L43.7659 25.7585V12.2985C43.7659 9.97782 44.6879 7.75221 46.3288 6.11127C47.9698 4.47033 50.1953 3.54847 52.5159 3.54847C54.8366 3.54847 57.0623 4.47033 58.7032 6.11127C60.3441 7.75221 61.2659 9.97782 61.2659 12.2985C61.2659 12.7626 61.4503 13.2077 61.7785 13.5359C62.1067 13.8641 62.5518 14.0485 63.0159 14.0485C64.3458 14.0496 65.6479 14.4296 66.7696 15.1439C67.8914 15.8582 68.7864 16.8773 69.3501 18.0818C69.9137 19.2863 70.1225 20.6265 69.9521 21.9454C69.7817 23.2643 69.2391 24.5074 68.3879 25.5291C67.5367 26.5509 66.412 27.309 65.1456 27.7147C63.8791 28.1204 62.5233 28.1571 61.2368 27.8202C59.9503 27.4833 58.7863 26.787 57.8812 25.8126C56.9761 24.8383 56.3673 23.6263 56.1261 22.3185C56.0986 22.0814 56.0229 21.8524 55.9036 21.6456C55.7844 21.4389 55.6241 21.2587 55.4327 21.1162C55.2413 20.9736 55.0226 20.8718 54.7904 20.8168C54.5581 20.7619 54.3171 20.7551 54.0821 20.7967C53.8471 20.8384 53.6231 20.9277 53.4239 21.0591C53.2247 21.1906 53.0544 21.3614 52.9237 21.5611C52.7929 21.7607 52.7044 21.9851 52.6635 22.2202C52.6227 22.4554 52.6303 22.6964 52.686 22.9285C53.0362 24.9013 53.9462 26.7318 55.3076 28.2019C56.6689 29.672 58.4242 30.7198 60.3643 31.2204C62.3044 31.7209 64.3476 31.6532 66.2503 31.0252C68.153 30.3973 69.835 29.2355 71.096 27.6785C73.9927 28.9424 76.4408 31.0505 78.1206 33.7276C79.8003 36.4047 80.6337 39.5261 80.5117 42.6842C80.3896 45.8422 79.3178 48.8901 77.4365 51.4295C75.5551 53.9689 72.9516 55.8819 69.966 56.9185H69.936Z" fill="currentColor"/>
    <path d="M13.0459 33.3884C12.8848 33.2242 12.6926 33.0938 12.4806 33.0048C12.2685 32.9157 12.0409 32.8699 11.8109 32.8699C11.5809 32.8699 11.3533 32.9157 11.1412 33.0048C10.9292 33.0938 10.737 33.2242 10.5759 33.3884C9.43784 34.5252 8.53495 35.8751 7.91895 37.3611C7.30294 38.847 6.98584 40.4398 6.98584 42.0484C6.98584 43.657 7.30294 45.2498 7.91895 46.7357C8.53495 48.2217 9.43784 49.5716 10.5759 50.7084C10.7376 50.8726 10.9307 51.0024 11.1438 51.09C11.3569 51.1776 11.5855 51.2213 11.8159 51.2184C12.1649 51.2215 12.5067 51.1201 12.7976 50.9274C13.0885 50.7347 13.3152 50.4595 13.4485 50.137C13.5818 49.8145 13.6157 49.4595 13.5458 49.1176C13.4758 48.7757 13.3052 48.4626 13.0559 48.2184C12.2426 47.4058 11.5973 46.4408 11.1571 45.3787C10.7169 44.3166 10.4902 43.1781 10.4902 42.0284C10.4902 40.8787 10.7169 39.7402 11.1571 38.6781C11.5973 37.616 12.2426 36.651 13.0559 35.8384C13.2164 35.677 13.3435 35.4856 13.4299 35.275C13.5163 35.0645 13.5603 34.8389 13.5593 34.6113C13.5584 34.3837 13.5125 34.1586 13.4244 33.9487C13.3363 33.7388 13.2077 33.5484 13.0459 33.3884V33.3884Z" fill="currentColor"/>
    <path d="M73.3961 33.3884C73.2351 33.2242 73.043 33.0938 72.8309 33.0048C72.6189 32.9157 72.3911 32.8699 72.1611 32.8699C71.9311 32.8699 71.7035 32.9157 71.4915 33.0048C71.2794 33.0938 71.0872 33.2242 70.9261 33.3884C70.5994 33.7164 70.416 34.1605 70.416 34.6234C70.416 35.0863 70.5994 35.5304 70.9261 35.8584C72.5664 37.5009 73.4877 39.7272 73.4877 42.0484C73.4877 44.3696 72.5664 46.5959 70.9261 48.2384C70.5994 48.5664 70.416 49.0105 70.416 49.4734C70.416 49.9364 70.5994 50.3804 70.9261 50.7084C71.0878 50.8726 71.2811 51.0024 71.4941 51.09C71.7072 51.1776 71.9358 51.2213 72.1661 51.2184C72.3962 51.2191 72.6241 51.1744 72.8369 51.0869C73.0497 50.9994 73.2431 50.8707 73.4061 50.7084C75.7022 48.4113 76.9921 45.2963 76.9921 42.0484C76.9921 38.8005 75.7022 35.6856 73.4061 33.3884H73.3961Z" fill="currentColor"/>
    <path d="M34.9858 70.0486C34.5217 70.0486 34.0766 70.233 33.7484 70.5612C33.4202 70.8893 33.2358 71.3345 33.2358 71.7986C33.2358 72.2627 33.0515 72.7078 32.7233 73.036C32.3951 73.3642 31.95 73.5486 31.4858 73.5486C31.0217 73.5486 30.5766 73.733 30.2484 74.0612C29.9202 74.3893 29.7358 74.8345 29.7358 75.2986C29.7358 75.7627 29.9202 76.2078 30.2484 76.536C30.5766 76.8642 31.0217 77.0486 31.4858 77.0486C32.8774 77.0459 34.2112 76.492 35.1952 75.508C36.1792 74.524 36.7332 73.1902 36.7358 71.7986C36.7358 71.3345 36.5515 70.8893 36.2233 70.5612C35.8951 70.233 35.45 70.0486 34.9858 70.0486V70.0486Z" fill="currentColor"/>
    <path d="M54.2358 8.79846C54.2358 8.33433 54.0515 7.88922 53.7233 7.56104C53.3951 7.23285 52.95 7.04846 52.4858 7.04846C51.0943 7.0511 49.7604 7.60509 48.7764 8.58908C47.7924 9.57307 47.2385 10.9069 47.2358 12.2985C47.2358 12.7626 47.4202 13.2077 47.7484 13.5359C48.0766 13.8641 48.5217 14.0485 48.9858 14.0485C49.45 14.0485 49.8951 13.8641 50.2233 13.5359C50.5515 13.2077 50.7358 12.7626 50.7358 12.2985C50.7385 11.8351 50.9236 11.3916 51.2512 11.0639C51.5788 10.7363 52.0225 10.5511 52.4858 10.5485C52.95 10.5485 53.3951 10.3641 53.7233 10.0359C54.0515 9.7077 54.2358 9.26259 54.2358 8.79846V8.79846Z" fill="currentColor"/>
    <path d="M29.7358 64.7986C30.7023 64.7986 31.4858 64.0151 31.4858 63.0486C31.4858 62.0821 30.7023 61.2986 29.7358 61.2986C28.7693 61.2986 27.9858 62.0821 27.9858 63.0486C27.9858 64.0151 28.7693 64.7986 29.7358 64.7986Z" fill="currentColor"/>
    <path d="M62.0459 45.6384C61.8848 45.4742 61.6926 45.3438 61.4806 45.2548C61.2685 45.1657 61.0409 45.1199 60.8109 45.1199C60.5809 45.1199 60.3533 45.1657 60.1412 45.2548C59.9292 45.3438 59.737 45.4742 59.5759 45.6384C58.4378 46.7752 57.535 48.1251 56.9189 49.6111C56.3029 51.097 55.9858 52.6898 55.9858 54.2984C55.9858 55.907 56.3029 57.4998 56.9189 58.9857C57.535 60.4717 58.4378 61.8216 59.5759 62.9584C59.7376 63.1226 59.9307 63.2524 60.1438 63.34C60.3569 63.4276 60.5855 63.4713 60.8159 63.4684C61.1649 63.4715 61.5067 63.3701 61.7976 63.1774C62.0885 62.9847 62.3152 62.7095 62.4485 62.387C62.5818 62.0645 62.6157 61.7095 62.5458 61.3676C62.4758 61.0257 62.3052 60.7126 62.0559 60.4684C61.2426 59.6558 60.5973 58.6908 60.1571 57.6287C59.7169 56.5666 59.4902 55.4281 59.4902 54.2784C59.4902 53.1287 59.7169 51.9902 60.1571 50.9281C60.5973 49.866 61.2426 48.901 62.0559 48.0884C62.2164 47.927 62.3435 47.7356 62.4299 47.525C62.5163 47.3145 62.5603 47.0889 62.5593 46.8613C62.5584 46.6337 62.5125 46.4086 62.4244 46.1987C62.3363 45.9888 62.2077 45.7984 62.0459 45.6384Z" fill="currentColor"/>
    <path d="M21.9261 19.3885C21.5994 19.7165 21.416 20.1606 21.416 20.6235C21.416 21.0864 21.5994 21.5305 21.9261 21.8585C23.5664 23.501 24.4877 25.7273 24.4877 28.0485C24.4877 30.3697 23.5664 32.596 21.9261 34.2385C21.5994 34.5665 21.416 35.0106 21.416 35.4735C21.416 35.9364 21.5994 36.3805 21.9261 36.7085C22.0878 36.8727 22.2811 37.0024 22.4941 37.0901C22.7072 37.1777 22.9358 37.2214 23.1661 37.2185C23.3962 37.2192 23.6241 37.1745 23.8369 37.087C24.0497 36.9995 24.2431 36.8708 24.4061 36.7085C26.7022 34.4113 27.9921 31.2964 27.9921 28.0485C27.9921 24.8006 26.7022 21.6856 24.4061 19.3885C24.2449 19.2228 24.0522 19.0911 23.8392 19.0011C23.6263 18.9112 23.3973 18.8649 23.1661 18.8649C22.9349 18.8649 22.7061 18.9112 22.4932 19.0011C22.2802 19.0911 22.0874 19.2228 21.9261 19.3885Z" fill="currentColor"/>
  </g>
</svg>
