<svg viewBox="0 0 83 73" fill="none" xmlns="http://www.w3.org/2000/svg">
<path d="M59.59 18.49H61.2701C61.8401 18.49 62.31 18.03 62.31 17.45C62.31 16.88 61.8501 16.41 61.2701 16.41H59.59C59.02 16.41 58.55 16.87 58.55 17.45C58.56 18.03 59.02 18.49 59.59 18.49Z" fill="currentColor" stroke="currentColor" stroke-miterlimit="10"/>
<path d="M53.64 24.85H55.32C55.89 24.85 56.36 24.39 56.36 23.81C56.36 23.24 55.9 22.77 55.32 22.77H53.64C53.07 22.77 52.6 23.23 52.6 23.81C52.6 24.38 53.07 24.85 53.64 24.85Z" fill="currentColor" stroke="currentColor" stroke-miterlimit="10"/>
<path d="M59.95 30.91C59.95 31.48 60.41 31.95 60.99 31.95H62.67C63.24 31.95 63.71 31.49 63.71 30.91C63.71 30.34 63.25 29.87 62.67 29.87H60.99C60.41 29.87 59.95 30.33 59.95 30.91Z" fill="currentColor" stroke="currentColor" stroke-miterlimit="10"/>
<path d="M38.43 58.83H36.75C36.18 58.83 35.71 59.29 35.71 59.87C35.71 60.44 36.17 60.91 36.75 60.91H38.43C39 60.91 39.47 60.45 39.47 59.87C39.46 59.29 39 58.83 38.43 58.83Z" fill="currentColor" stroke="currentColor" stroke-miterlimit="10"/>
<path d="M28.07 55.09H26.39C25.82 55.09 25.35 55.55 25.35 56.13C25.35 56.7 25.81 57.17 26.39 57.17H28.07C28.64 57.17 29.11 56.71 29.11 56.13C29.11 55.55 28.65 55.09 28.07 55.09Z" fill="currentColor" stroke="currentColor" stroke-miterlimit="10"/>
<path d="M29.75 47.24H28.07C27.5 47.24 27.03 47.7 27.03 48.28C27.03 48.85 27.49 49.32 28.07 49.32H29.75C30.32 49.32 30.79 48.86 30.79 48.28C30.79 47.71 30.33 47.24 29.75 47.24Z" fill="currentColor" stroke="currentColor" stroke-miterlimit="10"/>
<path d="M35.91 13.96H37.59C38.16 13.96 38.63 13.5 38.63 12.92C38.63 12.35 38.17 11.88 37.59 11.88H35.91C35.34 11.88 34.87 12.34 34.87 12.92C34.87 13.5 35.33 13.96 35.91 13.96Z" fill="currentColor" stroke="currentColor" stroke-miterlimit="10"/>
<path d="M28.91 6.72001H30.59C31.16 6.72001 31.63 6.26001 31.63 5.68001C31.63 5.11001 31.17 4.64001 30.59 4.64001H28.91C28.34 4.64001 27.87 5.10001 27.87 5.68001C27.88 6.26001 28.34 6.72001 28.91 6.72001Z" fill="currentColor" stroke="currentColor" stroke-miterlimit="10"/>
<path d="M30.24 18.58C30.24 19.15 30.7 19.62 31.28 19.62H32.96C33.53 19.62 34 19.16 34 18.58C34 18.01 33.54 17.54 32.96 17.54H31.28C30.71 17.54 30.24 18 30.24 18.58Z" fill="currentColor" stroke="currentColor" stroke-miterlimit="10"/>
<path d="M24.71 13.96H26.39C26.96 13.96 27.4301 13.5 27.4301 12.92C27.4301 12.35 26.97 11.88 26.39 11.88H24.71C24.14 11.88 23.67 12.34 23.67 12.92C23.67 13.5 24.14 13.96 24.71 13.96Z" fill="currentColor" stroke="currentColor" stroke-miterlimit="10"/>
<path d="M64.22 56.8L67.55 61.39L57.98 56.29L56.11 45.61L59.44 50.2C59.64 50.48 59.96 50.63 60.28 50.63C60.49 50.63 60.7 50.56 60.89 50.43C61.35 50.09 61.46 49.45 61.12 48.98L57.79 44.39L67.36 49.49L69.23 60.17L65.9 55.58C65.56 55.12 64.92 55.01 64.45 55.35C63.98 55.69 63.88 56.34 64.22 56.8ZM69.31 48.64C69.25 48.33 69.06 48.05 68.78 47.9L54.8 40.45C54.7 40.4 54.6 40.37 54.5 40.35C54.47 40.35 54.45 40.35 54.42 40.34C54.33 40.33 54.23 40.33 54.14 40.35C54.11 40.36 54.07 40.36 54.04 40.37C53.92 40.4 53.81 40.45 53.71 40.52C53.61 40.59 53.53 40.68 53.47 40.78C53.45 40.81 53.43 40.84 53.42 40.87C53.38 40.95 53.34 41.04 53.32 41.13C53.32 41.16 53.31 41.18 53.3 41.2C53.28 41.31 53.28 41.41 53.3 41.52L56.04 57.12C56.1 57.43 56.29 57.71 56.57 57.86L70.55 65.31C70.56 65.31 70.56 65.31 70.57 65.32C70.58 65.32 70.59 65.33 70.6 65.33C70.74 65.4 70.89 65.44 71.04 65.44C71.15 65.44 71.25 65.42 71.36 65.39C71.46 65.36 71.56 65.31 71.65 65.24C71.75 65.17 71.83 65.07 71.9 64.97C71.92 64.94 71.93 64.91 71.95 64.88C71.99 64.8 72.03 64.71 72.05 64.61C72.05 64.59 72.06 64.56 72.07 64.54C72.08 64.43 72.09 64.33 72.07 64.22L69.31 48.64Z" fill="currentColor" stroke="currentColor" stroke-miterlimit="10"/>
<path d="M62.9199 53.25C62.7899 53.34 62.6599 53.34 62.5999 53.33C62.5299 53.32 62.4099 53.28 62.3199 53.16C62.1799 52.97 62.2199 52.7 62.4099 52.56C62.4899 52.5 62.5799 52.48 62.6599 52.48C62.7999 52.48 62.9299 52.54 63.0099 52.66C63.0999 52.79 63.0999 52.92 63.0899 52.98C63.0799 53.03 63.0499 53.16 62.9199 53.25ZM65.1399 53.29C65.2499 52.63 65.0899 51.97 64.6899 51.42C63.8799 50.3 62.3099 50.05 61.1899 50.86C60.0699 51.67 59.8199 53.24 60.6299 54.36C61.0199 54.9 61.5999 55.26 62.2699 55.36C62.3999 55.38 62.5399 55.39 62.6699 55.39C63.1899 55.39 63.6999 55.23 64.1399 54.91C64.6799 54.53 65.0299 53.95 65.1399 53.29Z" fill="currentColor" stroke="currentColor" stroke-miterlimit="10"/>
<path d="M72.73 66.78C65.08 72.33 54.33 70.62 48.79 62.97C43.24 55.32 44.95 44.58 52.6 39.02C55.63 36.82 59.15 35.76 62.64 35.76C67.95 35.76 73.19 38.22 76.54 42.83C82.09 50.48 80.38 61.23 72.73 66.78ZM50.64 24.91C50.38 23.79 50.09 22.54 49.77 21.15C49.15 18.43 49.55 16.09 51 14.01C54.24 9.35 61.8 7.48 64.71 6.92V33.82C60.25 33.34 55.61 34.4 51.67 37.16C52.79 34.1 52.2 31.55 50.64 24.91ZM43.78 63.01C43.44 57.41 40.34 55.7 37.82 54.32C35.58 53.09 34.41 52.34 34.48 49.98C34.66 43.33 25.51 41.31 22.51 40.83V24.22C23.76 24.51 25.74 24.86 28 24.86C31.84 24.86 36.46 23.84 39.58 19.76C44.3 13.59 40.6 6.31 38.47 3.07H64.72V4.8C61.88 5.3 53.18 7.26 49.31 12.82C47.53 15.37 47.01 18.33 47.76 21.61C48.08 23.01 48.37 24.25 48.64 25.38C50.84 34.77 50.93 35.13 47.59 40.44C47.24 41 46.95 41.6 46.74 42.2C42.64 48.33 42.32 56.49 46.37 63.01H43.78V63.01ZM22.5 63.01V42.95C25.35 43.45 32.53 45.19 32.4 49.94C32.3 53.68 34.7 54.99 36.82 56.15C39.17 57.44 41.4 58.66 41.7 63.02H22.5V63.01ZM19.99 3.07H35.92C37.24 4.83 42.47 12.56 37.92 18.5C33.5 24.28 25.01 22.7 22.5 22.08V6.89C22.5 5.42 21.56 4.1 19.99 3.07ZM11.75 10.71C6.64 10.71 3.07 8.7 3.07 6.89C3.07 5.91 4.12 4.88 5.88 4.13C5.86 4.24 5.85 4.35 5.85 4.46C5.85 6.43 8.38 7.92 11.74 7.92C15.1 7.92 17.63 6.43 17.63 4.46C17.63 4.35 17.62 4.24 17.6 4.13C19.36 4.88 20.41 5.91 20.41 6.89C20.43 8.7 16.86 10.71 11.75 10.71ZM20.43 65.36C20.43 67.17 16.87 69.18 11.75 69.18C6.64 69.18 3.07 67.17 3.07 65.36V10.4C5.01 11.85 8.14 12.78 11.75 12.78C15.36 12.78 18.49 11.85 20.43 10.4V65.36ZM11.75 3.07C14.08 3.07 15.57 3.98 15.57 4.46C15.57 4.94 14.08 5.85 11.75 5.85C9.42 5.85 7.93 4.94 7.93 4.46C7.93 3.99 9.42 3.07 11.75 3.07ZM66.78 34.15V2.04C66.78 1.47 66.32 1 65.74 1H11.75C5.72 1 1 3.59 1 6.89V65.35C1 68.65 5.72 71.24 11.75 71.24C17.78 71.24 22.5 68.65 22.5 65.35V65.08H47.81C51.57 69.67 57.1 72.1 62.69 72.1C66.6 72.1 70.55 70.91 73.95 68.45C82.53 62.23 84.45 50.19 78.23 41.61C75.35 37.65 71.22 35.13 66.78 34.15Z" fill="currentColor" stroke="currentColor" stroke-miterlimit="10"/>
</svg>
