<svg width="65" height="51" viewBox="0 0 65 51" fill="none" xmlns="http://www.w3.org/2000/svg">
    <g id="meditate">
      <path d="M20.0501 38.1299C20.0101 38.1099 19.9701 38.0999 19.9301 38.0899C16.5601 37.0199 12.9701 38.8799 11.9001 42.2499C11.7001 42.8799 11.6001 43.5299 11.6001 44.1899C11.5301 45.9299 12.2201 47.5999 13.4901 48.7899C14.5201 49.6599 15.8401 50.1199 17.1901 50.0899C17.4901 50.0899 17.8001 50.0699 18.1001 50.0299H41.7001C42.1101 50.0299 42.4901 49.8099 42.7001 49.4499L46.1301 49.9099C49.6301 50.3899 52.85 47.9399 53.33 44.4399C53.81 40.9399 51.36 37.7199 47.86 37.2399C46.92 37.1099 45.9601 37.1899 45.0601 37.4799L42.9501 38.1599V33.8399H47.4501C49.4501 33.8399 51.0701 32.2199 51.0701 30.2199C51.0701 29.2999 50.7201 28.4099 50.0901 27.7399L45.2101 20.5699C45.1301 20.4499 45.0201 20.3499 44.9001 20.2599L38.89 16.1699C42.6 12.6299 42.7401 6.74994 39.2001 3.03994C35.6601 -0.670059 29.7801 -0.810056 26.0701 2.72994C22.3601 6.26994 22.2201 12.1499 25.7601 15.8599C25.8601 15.9699 25.9701 16.0699 26.0701 16.1699L20.1101 20.2199C19.9901 20.2999 19.8901 20.4099 19.8001 20.5299L14.8801 27.7499C13.5101 29.2099 13.5901 31.4999 15.0501 32.8699C15.7201 33.4999 16.6001 33.8499 17.5201 33.8499H22.0201V38.9999L20.0501 38.1299ZM18.0301 47.6999C17.9801 47.6999 17.9301 47.6999 17.8701 47.7099C16.8701 47.9099 15.8201 47.6599 15.0201 47.0299C14.2601 46.2899 13.8601 45.2499 13.9301 44.1799C13.9301 41.9299 15.7501 40.1099 17.9901 40.0999C18.3901 40.0999 18.8001 40.1599 19.1801 40.2799L36.1501 47.6999H18.0301ZM45.7601 39.6899C47.9001 39.0099 50.2001 40.1899 50.8801 42.3299C51.5601 44.4699 50.3801 46.7699 48.2401 47.4499C47.6601 47.6299 47.0501 47.6899 46.4501 47.5999L39.6201 46.6699L32.9601 43.7599L45.7601 39.6899ZM25.5301 9.45992C25.5301 5.60992 28.6501 2.49993 32.4901 2.49993C36.3401 2.49993 39.4501 5.61992 39.4501 9.45992C39.4501 13.3099 36.3301 16.4199 32.4901 16.4199C28.6501 16.4199 25.5401 13.2999 25.5301 9.45992ZM16.2501 30.2099C16.2501 29.8599 16.3901 29.5299 16.6301 29.2899C16.6801 29.2399 16.7301 29.1799 16.7701 29.1199L21.6201 21.9999L28.0701 17.6099C30.8301 19.1099 34.1601 19.1099 36.9201 17.6099L43.4201 22.0399L48.2301 29.1099C48.2701 29.1699 48.3201 29.2299 48.3701 29.2799C48.8801 29.7899 48.8801 30.6099 48.3701 31.1199C48.1301 31.3599 47.7901 31.4999 47.4501 31.4999H17.5501C16.8301 31.5099 16.2501 30.9299 16.2501 30.2099ZM24.3701 33.8299H40.6201V38.8899L29.7301 42.3599L24.3701 40.0199V33.8299V33.8299Z" fill="currentColor"/>
      <path d="M35.69 26.73L34.78 23.1C34.65 22.58 34.19 22.22 33.65 22.22H31.33C30.8 22.22 30.33 22.58 30.2 23.1L29.29 26.73L22.2 25.72L21.87 28.02L30 29.18C30.59 29.26 31.15 28.89 31.29 28.31L32.23 24.55H32.74L33.68 28.31C33.82 28.89 34.38 29.26 34.97 29.18L43.1 28.02L42.77 25.72L35.69 26.73Z" fill="currentColor"/>
      <path d="M5.79999 1.32996H3.47998V3.64996H5.79999V1.32996Z" fill="currentColor"/>
      <path d="M58.03 0.169922H55.71V2.4899H58.03V0.169922Z" fill="currentColor"/>
      <path d="M64.9999 15.26H62.6799V17.58H64.9999V15.26Z" fill="currentColor"/>
      <path d="M16.2499 15.26H13.9299V17.58H16.2499V15.26Z" fill="currentColor"/>
      <path d="M2.31999 22.22H0V24.54H2.31999V22.22Z" fill="currentColor"/>
      <path d="M51.07 12.9399H48.75V15.2599H51.07V12.9399Z" fill="currentColor"/>
      <path d="M64.9999 34.99H62.6799V37.31H64.9999V34.99Z" fill="currentColor"/>
      <path d="M3.48003 37.3099H1.16003V39.6299H3.48003V37.3099Z" fill="currentColor"/>
    </g>
</svg>
