<svg viewBox="0 0 58 54" fill="none" xmlns="http://www.w3.org/2000/svg">
  <g id="messages">
      <path d="M42.08 37.01V39.07C42.08 42.15 39.58 44.64 36.51 44.64H14.08L4.32 52.98C3.84 53.39 3.12 53.33 2.71 52.85C2.47 52.57 2.38 52.2 2.46 51.85L4.17 44.46C1.72 43.83 0 41.61 0 39.07V21.4C0 18.32 2.5 15.83 5.57 15.83H5.96C6.59 15.83 7.1 16.35 7.1 16.98C7.1 17.61 6.59 18.12 5.96 18.12H5.57C3.76 18.12 2.29 19.59 2.29 21.4V39.07C2.29 40.88 3.76 42.35 5.57 42.35C6.2 42.35 6.72 42.86 6.72 43.5C6.72 43.59 6.71 43.67 6.69 43.76L5.48 48.99L12.91 42.63C13.12 42.45 13.38 42.36 13.65 42.36H36.5C38.31 42.36 39.78 40.89 39.78 39.08V37.02C39.78 36.39 40.29 35.87 40.92 35.87C41.55 35.87 42.08 36.37 42.08 37.01ZM57.26 5.57V27.18C57.26 29.96 55.21 32.31 52.46 32.7L54.44 41.24C54.58 41.86 54.2 42.47 53.58 42.61C53.23 42.69 52.85 42.6 52.58 42.36L41.33 32.74H14.85C11.77 32.74 9.28 30.24 9.28 27.17V5.57C9.28 2.5 11.77 0 14.85 0H51.69C54.76 0 57.25 2.5 57.26 5.57ZM54.97 5.57C54.97 3.76 53.5 2.29 51.69 2.29H14.85C13.04 2.29 11.57 3.76 11.57 5.57V27.18C11.57 28.99 13.04 30.46 14.85 30.46H41.74C42.01 30.46 42.28 30.56 42.48 30.73L51.41 38.36L49.9 31.85C49.76 31.23 50.14 30.62 50.76 30.48C50.84 30.46 50.93 30.45 51.02 30.45H51.68C53.49 30.45 54.96 28.98 54.96 27.17L54.97 5.57ZM48.95 16.38C48.95 18.73 47.04 20.64 44.69 20.64C42.34 20.64 40.43 18.73 40.43 16.38C40.43 14.03 42.34 12.12 44.69 12.12C47.04 12.12 48.94 14.03 48.95 16.38ZM46.66 16.38C46.66 15.29 45.78 14.41 44.69 14.41C43.6 14.41 42.72 15.29 42.72 16.38C42.72 17.47 43.6 18.35 44.69 18.35C45.78 18.34 46.65 17.46 46.66 16.38ZM37.52 16.38C37.52 18.73 35.61 20.64 33.26 20.64C30.91 20.64 29 18.73 29 16.38C29 14.03 30.91 12.12 33.26 12.12C35.62 12.12 37.52 14.03 37.52 16.38ZM35.23 16.38C35.23 15.29 34.35 14.41 33.26 14.41C32.17 14.41 31.29 15.29 31.29 16.38C31.29 17.47 32.17 18.35 33.26 18.35C34.35 18.34 35.23 17.46 35.23 16.38ZM26.1 16.38C26.1 18.73 24.19 20.64 21.84 20.64C19.49 20.64 17.58 18.73 17.58 16.38C17.58 14.03 19.49 12.12 21.84 12.12C24.19 12.12 26.1 14.03 26.1 16.38ZM23.81 16.38C23.81 15.29 22.93 14.41 21.84 14.41C20.75 14.41 19.87 15.29 19.87 16.38C19.87 17.47 20.75 18.35 21.84 18.35C22.93 18.34 23.81 17.46 23.81 16.38Z" fill="currentColor"/>
  </g>
</svg>
