<svg viewBox="0 0 82 78" fill="none" xmlns="http://www.w3.org/2000/svg">
  <g id="myth_message">
    <path d="M11.63 0C5.23 0.01 0 5.24001 0 11.64V53.23C0 59.63 5.25 64.75 11.63 64.75H28.9L39.21 77.08C39.85 77.84 40.97 77.9299 41.73 77.2999C41.81 77.2299 41.88 77.16 41.95 77.08L52.37 64.74H69.65C76.02 64.74 81.28 59.62 81.28 53.22V11.63C81.28 5.23 76.05 0 69.65 0H11.63ZM11.63 3.58997H69.66C74.12 3.58997 77.71 7.18001 77.71 11.64V53.23C77.71 57.69 74.15 61.17 69.66 61.17H51.55C51.02 61.17 50.52 61.3999 50.18 61.8099L40.6 73.15L31.12 61.8199C30.78 61.4099 30.28 61.1799 29.75 61.1799H11.63C7.14 61.1799 3.58 57.7 3.58 53.24V11.65C3.58 7.17002 7.17 3.58997 11.63 3.58997ZM40.87 11.96C29.13 11.96 19.58 21.5399 19.58 33.2999C19.58 45.0599 29.13 54.65 40.87 54.65C52.61 54.65 62.16 45.0699 62.16 33.2999C62.15 21.5399 52.6 11.96 40.87 11.96ZM40.87 15.54C50.67 15.54 58.58 23.4699 58.58 33.2999C58.58 43.1399 50.67 51.0699 40.87 51.0699C31.07 51.0699 23.16 43.1399 23.16 33.2999C23.16 23.4699 31.07 15.54 40.87 15.54ZM34.67 25.3199C33.68 25.3199 32.88 26.12 32.88 27.11C32.88 27.59 33.08 28.06 33.42 28.4L38.33 33.3199L33.42 38.23C32.71 38.91 32.68 40.05 33.37 40.76C34.05 41.47 35.19 41.4999 35.9 40.8099C35.92 40.7899 35.93 40.78 35.95 40.76L40.86 35.85L45.77 40.76C46.45 41.47 47.59 41.4999 48.3 40.8099C49.01 40.1299 49.04 38.99 48.35 38.28C48.33 38.26 48.32 38.25 48.3 38.23L43.39 33.3199L48.3 28.4C49.01 27.71 49.02 26.58 48.33 25.87C47.98 25.51 47.5 25.32 47 25.33C46.54 25.34 46.09 25.54 45.77 25.87L40.86 30.78L35.95 25.87C35.62 25.51 35.15 25.3199 34.67 25.3199Z" fill="currentColor"/>
  </g>
</svg>
