<svg width="28" height="52" viewBox="0 0 28 52" fill="none" xmlns="http://www.w3.org/2000/svg">
  <g id="negative_stress">
    <path d="M9.22338 8.55281C9.18179 8.45299 9.14851 8.35318 9.11524 8.26169C8.96551 7.78755 8.21687 8.02046 8.36659 8.5029C8.39986 8.61936 8.44147 8.73581 8.49138 8.84395C8.66606 9.28481 9.41469 9.04358 9.22338 8.55281ZM17.3917 30.629H8.70766C8.19194 30.629 8.19194 31.4109 8.70766 31.4109H17.3917C17.9157 31.4109 17.9157 30.629 17.3917 30.629ZM7.06902 20.1399C6.89434 20.1316 6.73622 20.2397 6.678 20.4144C6.678 20.4144 4.96452 25.6881 4.96452 25.7297L5.15582 33.5903C5.16414 34.0977 5.95431 34.081 5.93767 33.5736L5.7547 25.8378L7.14386 21.5124V36.069C7.14386 36.5764 7.92571 36.5764 7.92571 36.069V21.5124C7.93403 20.4061 7.46829 20.1565 7.06902 20.1399ZM7.15218 37.8325V39.9536C7.15218 40.4527 7.93403 40.4527 7.93403 39.9536V37.8325C7.93403 37.3168 7.15218 37.3168 7.15218 37.8325ZM7.15218 41.5922V48.1552C7.15218 48.6793 7.93403 48.6793 7.93403 48.1552V41.5922C7.93403 41.0848 7.15218 41.0848 7.15218 41.5922ZM13.3907 33.5237H12.4923C12.2761 33.5237 12.1014 33.6984 12.1014 33.9147V48.1635C12.1014 49.2948 11.1698 50.2181 10.0219 50.2181C9.51448 50.2181 9.51448 51 10.0219 51C11.6023 51 12.8834 49.7273 12.8834 48.1635V34.3139H13.3907C13.607 34.3139 13.7817 34.1392 13.7817 33.923C13.7817 33.6984 13.607 33.5237 13.3907 33.5237ZM26.1257 13.2775C26.1257 13.2775 18.1154 19.0003 18.0822 19.0502C18.0489 19.1085 18.0738 48.1635 18.0738 48.1635C18.0738 49.2615 17.034 50.2181 15.8529 50.2181C15.3371 50.2181 15.3371 51 15.8529 51C17.4832 51 18.864 49.7024 18.864 48.1635V19.4495L26.5832 13.918C27.0158 13.6019 26.5582 12.9697 26.1257 13.2775ZM26.4834 11.0067L20.7855 3.3956C20.17 2.55547 18.9472 2.56379 18.3733 3.16269C19.7624 4.90949 19.6709 6.39844 19.6043 7.19697L22.6737 11.2978C22.8067 11.4808 22.8068 11.697 22.5905 11.8551L18.6228 14.7165C14.3972 13.8265 11.1199 14.1176 11.1199 14.1176C8.66609 14.2923 4.88133 15.6232 4.11606 18.0354C3.25098 20.7305 1.85357 25.0975 1.75375 25.5716L1.94505 33.6818C1.96169 34.5468 2.68532 35.2539 3.55871 35.2539C4.1493 35.2456 4.10771 36.0358 3.55871 36.0358C2.26941 36.0358 1.19637 34.9877 1.1631 33.6984L0.971802 25.555C0.971802 25.4801 0.963496 25.2638 3.37574 17.7942C4.29905 14.8746 8.5912 13.5104 11.0866 13.3357C11.0949 13.3357 11.1033 13.3357 11.1116 13.3357C11.1116 13.3357 14.8713 13.0196 18.4481 13.8764L21.817 11.4641L19.4297 8.27832C18.7642 10.7238 16.5266 12.5289 13.8732 12.5289C12.9998 12.5289 10.8121 12.296 9.22338 10.1665C8.90729 9.7423 9.53947 9.27649 9.85556 9.70071C11.228 11.5473 13.1245 11.747 13.8815 11.747C16.6265 11.747 18.8557 9.5094 18.8557 6.76443C18.8557 4.01946 16.6265 1.78189 13.8815 1.78189C10.7456 1.78189 8.61619 4.53517 8.94059 7.33005C8.99882 7.84577 8.21687 7.92895 8.15864 7.42155C7.75937 3.89468 10.6291 1 13.8815 1C15.4203 1 16.8261 1.60721 17.8576 2.60538C18.8141 1.66544 20.5609 1.76526 21.4343 2.95474L27.1239 10.5575C27.4483 10.99 26.7662 11.3893 26.4834 11.0067ZM21.4592 13.344L22.707 15.0825C23.0064 15.5067 23.6469 15.0576 23.3391 14.6333L22.0914 12.8949C21.8003 12.4706 21.1681 12.9281 21.4592 13.344ZM2.92653 23.5004L4.99773 24.0411C5.50513 24.1742 5.70486 23.4172 5.19745 23.2841L3.12616 22.7435C2.62707 22.6104 2.42745 23.3673 2.92653 23.5004Z" fill="currentColor" stroke="currentColor" stroke-miterlimit="10"/>
    <path d="M9.22338 8.55281C9.18179 8.45299 9.14851 8.35318 9.11524 8.26169C8.96551 7.78755 8.21687 8.02046 8.36659 8.5029C8.39986 8.61936 8.44147 8.73581 8.49138 8.84395C8.66606 9.28481 9.41469 9.04358 9.22338 8.55281ZM17.3917 30.629H8.70766C8.19194 30.629 8.19194 31.4109 8.70766 31.4109H17.3917C17.9157 31.4109 17.9157 30.629 17.3917 30.629ZM7.06902 20.1399C6.89434 20.1316 6.73622 20.2397 6.678 20.4144C6.678 20.4144 4.96452 25.6881 4.96452 25.7297L5.15582 33.5903C5.16414 34.0977 5.95431 34.081 5.93767 33.5736L5.7547 25.8378L7.14386 21.5124V36.069C7.14386 36.5764 7.92571 36.5764 7.92571 36.069V21.5124C7.93403 20.4061 7.46829 20.1565 7.06902 20.1399ZM7.15218 37.8325V39.9536C7.15218 40.4527 7.93403 40.4527 7.93403 39.9536V37.8325C7.93403 37.3168 7.15218 37.3168 7.15218 37.8325ZM7.15218 41.5922V48.1552C7.15218 48.6793 7.93403 48.6793 7.93403 48.1552V41.5922C7.93403 41.0848 7.15218 41.0848 7.15218 41.5922ZM13.3907 33.5237H12.4923C12.2761 33.5237 12.1014 33.6984 12.1014 33.9147V48.1635C12.1014 49.2948 11.1698 50.2181 10.0219 50.2181C9.51448 50.2181 9.51448 51 10.0219 51C11.6023 51 12.8834 49.7273 12.8834 48.1635V34.3139H13.3907C13.607 34.3139 13.7817 34.1392 13.7817 33.923C13.7817 33.6984 13.607 33.5237 13.3907 33.5237ZM26.1257 13.2775C26.1257 13.2775 18.1154 19.0003 18.0822 19.0502C18.0489 19.1085 18.0738 48.1635 18.0738 48.1635C18.0738 49.2615 17.034 50.2181 15.8529 50.2181C15.3371 50.2181 15.3371 51 15.8529 51C17.4832 51 18.864 49.7024 18.864 48.1635V19.4495L26.5832 13.918C27.0158 13.6019 26.5582 12.9697 26.1257 13.2775ZM26.4834 11.0067L20.7855 3.3956C20.17 2.55547 18.9472 2.56379 18.3733 3.16269C19.7624 4.90949 19.6709 6.39844 19.6043 7.19697L22.6737 11.2978C22.8067 11.4808 22.8068 11.697 22.5905 11.8551L18.6228 14.7165C14.3972 13.8265 11.1199 14.1176 11.1199 14.1176C8.66609 14.2923 4.88133 15.6232 4.11606 18.0354C3.25098 20.7305 1.85357 25.0975 1.75375 25.5716L1.94505 33.6818C1.96169 34.5468 2.68532 35.2539 3.55871 35.2539C4.1493 35.2456 4.10771 36.0358 3.55871 36.0358C2.26941 36.0358 1.19637 34.9877 1.1631 33.6984L0.971802 25.555C0.971802 25.4801 0.963496 25.2638 3.37574 17.7942C4.29905 14.8746 8.5912 13.5104 11.0866 13.3357C11.0949 13.3357 11.1033 13.3357 11.1116 13.3357C11.1116 13.3357 14.8713 13.0196 18.4481 13.8764L21.817 11.4641L19.4297 8.27832C18.7642 10.7238 16.5266 12.5289 13.8732 12.5289C12.9998 12.5289 10.8121 12.296 9.22338 10.1665C8.90729 9.7423 9.53947 9.27649 9.85556 9.70071C11.228 11.5473 13.1245 11.747 13.8815 11.747C16.6265 11.747 18.8557 9.5094 18.8557 6.76443C18.8557 4.01946 16.6265 1.78189 13.8815 1.78189C10.7456 1.78189 8.61619 4.53517 8.94059 7.33005C8.99882 7.84577 8.21687 7.92895 8.15864 7.42155C7.75937 3.89468 10.6291 1 13.8815 1C15.4203 1 16.8261 1.60721 17.8576 2.60538C18.8141 1.66544 20.5609 1.76526 21.4343 2.95474L27.1239 10.5575C27.4483 10.99 26.7662 11.3893 26.4834 11.0067ZM21.4592 13.344L22.707 15.0825C23.0064 15.5067 23.6469 15.0576 23.3391 14.6333L22.0914 12.8949C21.8003 12.4706 21.1681 12.9281 21.4592 13.344ZM2.92653 23.5004L4.99773 24.0411C5.50513 24.1742 5.70486 23.4172 5.19745 23.2841L3.12616 22.7435C2.62707 22.6104 2.42745 23.3673 2.92653 23.5004Z" fill="currentColor" stroke="currentColor" stroke-width="0.75" stroke-miterlimit="10"/>
  </g>
</svg>
