<svg width="63" height="89" viewBox="0 0 63 89" fill="none" xmlns="http://www.w3.org/2000/svg">
  <g id="nosmoking_map">
    <path d="M12.85 12.86V10.22C12.85 8.03 14.6099 6.26999 16.7999 6.26999H23.77C24.04 5.62999 24.43 4.89 24.98 4.16C26.45 2.2 28.5599 1 31.3099 1C34.0599 1 36.17 2.2 37.64 4.16C38.19 4.89 38.58 5.61999 38.85 6.26999H45.8199C48.0099 6.26999 49.77 8.03 49.77 10.22V12.86H57.6699C59.8599 12.86 61.63 14.62 61.63 16.82V84.03C61.63 86.22 59.8599 87.99 57.6699 87.99H4.95996C2.76996 87.99 1 86.23 1 84.03V16.82C1 14.63 2.75996 12.86 4.95996 12.86H12.85ZM12.85 15.49H4.94995C4.20995 15.49 3.62 16.08 3.62 16.82V84.03C3.62 84.77 4.20994 85.36 4.93994 85.36H57.65C58.38 85.36 58.97 84.77 58.97 84.03V16.82C58.97 16.08 58.38 15.49 57.64 15.49H49.74V18.13C49.74 20.31 47.9699 22.08 45.7899 22.08H16.7799C14.5999 22.08 12.83 20.31 12.83 18.13V15.49H12.85ZM15.49 10.22V18.13C15.49 18.85 16.0799 19.45 16.7999 19.45H45.8099C46.5299 19.45 47.12 18.86 47.12 18.13V10.22C47.12 9.49 46.5399 8.89999 45.7999 8.89999H37.89C37.29 8.89999 36.76 8.48999 36.61 7.89999C36.58 7.79999 36.51 7.57001 36.38 7.26001C36.16 6.74001 35.87 6.20998 35.51 5.72998C34.51 4.39998 33.1499 3.62 31.2899 3.62C29.4299 3.62 28.0699 4.38998 27.0699 5.72998C26.7099 6.20998 26.42 6.74001 26.2 7.26001C26.07 7.57001 26 7.78999 25.97 7.89999C25.82 8.48999 25.2999 8.89999 24.6899 8.89999H16.7799C16.0699 8.89999 15.49 9.49 15.49 10.22ZM42.0599 34.7C42.2799 43.1 40.38 50.15 36.34 55.81C31.78 62.19 25.4 66.75 17.23 69.48C16.54 69.71 15.7899 69.34 15.5599 68.65C15.3299 67.96 15.7 67.21 16.39 66.98C24.04 64.43 29.9599 60.2 34.1899 54.28C37.9499 49.02 39.6999 42.37 39.4099 34.31L34.88 38.84C34.37 39.35 33.53 39.35 33.02 38.84C32.51 38.33 32.51 37.49 33.02 36.98L39.61 30.39C40.12 29.88 40.96 29.88 41.47 30.39L48.0599 36.98C48.5699 37.49 48.5699 38.33 48.0599 38.84C47.5499 39.35 46.71 39.35 46.2 38.84L42.0599 34.7ZM18.13 43.18C14.49 43.18 11.5399 40.23 11.5399 36.59C11.5399 32.95 14.49 30 18.13 30C21.77 30 24.72 32.95 24.72 36.59C24.72 40.23 21.77 43.18 18.13 43.18ZM18.13 40.54C20.31 40.54 22.08 38.77 22.08 36.59C22.08 34.41 20.31 32.64 18.13 32.64C15.95 32.64 14.1799 34.41 14.1799 36.59C14.1699 38.77 15.94 40.54 18.13 40.54ZM43.1699 67.68L46.1899 64.66C47.4299 63.42 49.2999 65.28 48.0499 66.52L45.0299 69.54L48.0499 72.56C48.5599 73.07 48.5599 73.91 48.0499 74.42C47.5399 74.93 46.6999 74.93 46.1899 74.42L43.1699 71.4L40.15 74.42C38.91 75.66 37.0399 73.8 38.2899 72.56L41.3099 69.54L38.2899 66.52C37.7799 66.01 37.7799 65.17 38.2899 64.66C38.7999 64.15 39.64 64.15 40.15 64.66L43.1699 67.68Z" fill="currentColor" stroke="currentColor" stroke-width="0.75" stroke-miterlimit="10"/>
  </g>
</svg>
