<svg viewBox="0 0 55 61" fill="none" xmlns="http://www.w3.org/2000/svg">
  <g id="old_clock">
    <path d="M6.07017 13.29C5.59017 13.61 4.93014 13.49 4.67014 12.97C3.85014 11.35 3.62018 9.55999 3.96018 7.71999C4.37018 5.59999 5.61019 3.74999 7.47019 2.51999C9.33019 1.28999 11.4601 0.879979 13.6601 1.28998C15.4601 1.63998 17.0601 2.56999 18.2601 3.95999C18.6301 4.38999 18.5001 5.02999 18.0301 5.34999C17.5501 5.66999 16.9101 5.52999 16.5101 5.10999C15.6501 4.19999 14.5302 3.59999 13.2402 3.32999C11.6602 2.98999 10.0101 3.32999 8.6301 4.21999C7.2601 5.10999 6.36012 6.47998 6.02012 8.11998C5.75012 9.35998 5.91014 10.65 6.42014 11.8C6.66014 12.33 6.54017 12.97 6.07017 13.29Z" fill="currentColor" stroke="currentColor" stroke-width="0.5" stroke-miterlimit="10"/>
    <path d="M50.1104 12.95C49.8604 13.47 49.2004 13.61 48.7204 13.28C48.2504 12.96 48.1403 12.34 48.3703 11.82C48.8903 10.66 49.0503 9.36997 48.7803 8.11997C48.4403 6.54997 47.5403 5.17997 46.1703 4.21997C44.8003 3.32997 43.1503 2.98997 41.5603 3.32997C40.3103 3.59997 39.1903 4.20997 38.3003 5.13997C37.9003 5.54997 37.2603 5.67997 36.7903 5.35997C36.3103 5.03997 36.1803 4.37998 36.5603 3.93998C37.7603 2.54998 39.3603 1.62997 41.1503 1.27997C43.2803 0.869971 45.4804 1.27997 47.3404 2.50997C49.2004 3.73997 50.4304 5.51998 50.8504 7.70998C51.1304 9.54998 50.8804 11.33 50.1104 12.95Z" fill="currentColor" stroke="currentColor" stroke-width="0.5" stroke-miterlimit="10"/>
    <path d="M14.1904 58.63C13.1604 59.94 11.3404 60.36 9.8404 59.62C8.4004 58.91 7.61035 57.33 7.92035 55.75L8.85041 51.04C8.96041 50.5 9.47033 50.1399 10.0203 50.2399C10.5803 50.3399 10.9504 50.87 10.8404 51.43L9.94037 56.16C9.82037 56.81 10.1404 57.46 10.7304 57.75C11.3504 58.06 12.1003 57.89 12.5303 57.35L14.6403 54.71C15.0003 54.26 15.6504 54.19 16.1004 54.56C16.5304 54.92 16.6003 55.5499 16.2503 55.9899L14.1904 58.63Z" fill="currentColor" stroke="currentColor" stroke-width="0.5" stroke-miterlimit="10"/>
    <path d="M44.8802 59.97C43.3802 60.71 41.5702 60.3 40.5202 59L38.3702 56.31C38.0102 55.85 38.0802 55.19 38.5402 54.83C38.9902 54.47 39.6502 54.55 40.0102 55L42.1902 57.71C42.6202 58.25 43.3802 58.42 44.0002 58.11C44.5902 57.82 44.9102 57.17 44.7902 56.52L43.8802 51.65C43.7802 51.09 44.1503 50.56 44.7103 50.46C45.2503 50.37 45.7702 50.72 45.8802 51.27L46.8202 56.1C47.1202 57.67 46.3302 59.26 44.8802 59.97Z" fill="currentColor" stroke="currentColor" stroke-width="0.5" stroke-miterlimit="10"/>
    <path d="M28.2904 41.72V36.05C28.2904 35.48 27.8304 35.02 27.2604 35.02C26.6904 35.02 26.2305 35.48 26.2305 36.05V41.72C26.2305 42.29 26.6904 42.75 27.2604 42.75C27.8304 42.75 28.2904 42.29 28.2904 41.72Z" fill="currentColor" stroke="currentColor" stroke-width="0.5" stroke-miterlimit="10"/>
    <path d="M7.79043 2.37001L6.45047 0.90001C6.07047 0.48001 5.41051 0.450018 4.99051 0.830018C4.57051 1.21002 4.54044 1.86001 4.92044 2.28001L6.2604 3.75002C6.6404 4.17002 7.30049 4.20002 7.72049 3.82002C8.14049 3.44002 8.17043 2.79001 7.79043 2.37001Z" fill="currentColor" stroke="currentColor" stroke-width="0.5" stroke-miterlimit="10"/>
    <path d="M48.7405 0.910028L47.4004 2.38003C47.0204 2.80003 47.0505 3.45003 47.4705 3.83003C47.8905 4.21003 48.5404 4.18002 48.9304 3.76002L50.2704 2.29002C50.6504 1.87002 50.6205 1.22002 50.2005 0.84002C49.7705 0.46002 49.1205 0.490028 48.7405 0.910028Z" fill="currentColor" stroke="currentColor" stroke-width="0.5" stroke-miterlimit="10"/>
    <path d="M27.5403 58.36C12.9003 58.36 1.01025 46.45 1.01025 31.88C1.01025 17.31 12.9003 5.46997 27.5403 5.46997C42.1803 5.46997 54.0703 17.31 54.0703 31.88C54.1403 46.45 42.1803 58.36 27.5403 58.36ZM27.5403 7.50996C14.0703 7.50996 3.07031 18.46 3.07031 31.87C3.07031 45.28 14.0703 56.23 27.5403 56.23C41.0103 56.23 52.0103 45.28 52.0103 31.87C52.0803 18.46 41.0803 7.50996 27.5403 7.50996Z" fill="currentColor" stroke="currentColor" stroke-width="0.5" stroke-miterlimit="10"/>
    <path d="M27.2603 36.05C25.1303 36.05 23.3403 34.27 23.3403 32.15C23.3403 30.03 25.1303 28.25 27.2603 28.25C29.3903 28.25 31.1803 30.03 31.1803 32.15C31.1803 34.27 29.3903 36.05 27.2603 36.05ZM27.2603 30.3C26.2303 30.3 25.4003 31.12 25.4003 32.15C25.4003 33.18 26.2203 34 27.2603 34V35.03V34C28.2903 34 29.1202 33.18 29.1202 32.15C29.1202 31.12 28.2903 30.3 27.2603 30.3Z" fill="currentColor" stroke="currentColor" stroke-width="0.5" stroke-miterlimit="10"/>
    <path d="M26.0603 50.65C26.0403 51.23 25.5403 51.69 24.9603 51.62C24.6803 51.59 24.4004 51.54 24.1104 51.5C23.5704 51.41 23.2303 50.88 23.3403 50.35C23.4503 49.8 24.0103 49.45 24.5703 49.53C24.7503 49.55 24.9302 49.58 25.1202 49.6C25.6602 49.63 26.0803 50.1 26.0603 50.65ZM29.9403 51.55C29.3703 51.62 28.8803 51.19 28.8403 50.62C28.8003 50.06 29.2303 49.57 29.7903 49.49C29.9603 49.47 30.1303 49.44 30.3003 49.41C30.8703 49.31 31.4303 49.65 31.5703 50.21C31.7003 50.75 31.3803 51.3 30.8403 51.41C30.5303 51.46 30.2403 51.51 29.9403 51.55ZM20.7703 49.52C20.5603 50.05 19.9603 50.32 19.4403 50.09C19.1903 49.98 18.9403 49.86 18.7003 49.74C18.1803 49.48 18.0203 48.84 18.3003 48.35C18.5803 47.86 19.2003 47.69 19.7103 47.93C19.8703 48.01 20.0403 48.08 20.2003 48.16C20.7203 48.4 20.9803 48.99 20.7703 49.52ZM35.5002 49.96C34.9802 50.19 34.3803 49.92 34.1703 49.39C33.9603 48.86 34.2204 48.26 34.7404 48.03C34.9104 47.96 35.0703 47.88 35.2303 47.8C35.7403 47.56 36.3603 47.73 36.6403 48.22C36.9303 48.72 36.7604 49.36 36.2404 49.61C36.0004 49.73 35.7502 49.85 35.5002 49.96ZM15.9403 46.88C15.5903 47.32 14.9503 47.39 14.5203 47.03C14.3103 46.86 14.1103 46.68 13.9203 46.5C13.4903 46.11 13.5203 45.44 13.9403 45.04C14.3603 44.64 15.0203 44.65 15.4403 45.05C15.5503 45.16 15.6703 45.26 15.7803 45.36C16.2003 45.75 16.3003 46.42 15.9403 46.88ZM40.3303 46.86C39.9203 47.22 39.2903 47.14 38.9403 46.72C38.5703 46.27 38.6403 45.6 39.0803 45.21C39.2103 45.1 39.3303 44.98 39.4603 44.86C39.8703 44.47 40.5303 44.44 40.9403 44.83C41.3503 45.22 41.3703 45.89 40.9503 46.28C40.7503 46.49 40.5403 46.68 40.3303 46.86ZM12.1503 42.98C11.6903 43.31 11.0503 43.21 10.7303 42.74C10.5803 42.51 10.4303 42.27 10.2903 42.03C10.0003 41.53 10.2103 40.9 10.7303 40.64C11.2503 40.37 11.8803 40.57 12.1803 41.08C12.2603 41.21 12.3303 41.33 12.4103 41.46C12.7203 41.95 12.6303 42.63 12.1503 42.98ZM44.0503 42.44C43.7503 42.92 43.1002 43.04 42.6302 42.72C42.1502 42.4 42.0403 41.75 42.3403 41.27C42.4203 41.14 42.5003 41 42.5803 40.86C42.8703 40.34 43.5203 40.09 44.0503 40.35C44.5403 40.58 44.7703 41.16 44.5103 41.64C44.3803 41.91 44.2203 42.18 44.0503 42.44ZM9.5603 38.15C9.0403 38.32 8.48032 38.05 8.33032 37.52C8.25032 37.24 8.18035 36.97 8.11035 36.68C7.98035 36.11 8.3603 35.55 8.9303 35.46C9.4903 35.37 10.0102 35.74 10.1302 36.29C10.1702 36.47 10.2103 36.64 10.2603 36.82C10.4103 37.38 10.1103 37.97 9.5603 38.15ZM46.3702 37.11C46.2302 37.66 45.6504 37.97 45.1104 37.8C44.5604 37.63 44.2603 37.04 44.4003 36.48C44.4403 36.31 44.4903 36.14 44.5303 35.97C44.6503 35.42 45.1803 35.04 45.7303 35.13C46.3003 35.22 46.6803 35.78 46.5503 36.34C46.5003 36.59 46.4402 36.85 46.3702 37.11ZM8.22034 32.72C7.89034 32.74 7.61035 32.48 7.61035 32.15C7.61035 31.74 7.63028 31.34 7.66028 30.93C7.70028 30.36 8.21027 29.94 8.78027 30C9.35027 30.06 9.76033 30.56 9.71033 31.13C9.68033 31.46 9.67029 31.78 9.67029 32.09C9.67029 32.4 9.43024 32.65 9.12024 32.67L8.22034 32.72ZM46.9904 32.15C46.9904 32.3 46.8703 32.42 46.7203 32.42H45.2103C45.0603 32.42 44.9403 32.3 44.9403 32.15C44.9403 31.73 44.9203 31.29 44.8903 30.86C44.8503 30.28 45.2603 29.77 45.8303 29.69C46.4103 29.61 46.9403 30.01 46.9703 30.59C46.9903 31.1 46.9904 31.62 46.9904 32.15ZM10.5603 26.62C10.3803 27.16 9.82026 27.5 9.27026 27.35C8.73026 27.2 8.41032 26.64 8.58032 26.1C8.67032 25.81 8.77024 25.53 8.87024 25.24C9.06024 24.73 9.64027 24.51 10.1503 24.72C10.7003 24.95 10.9203 25.61 10.7103 26.17C10.6603 26.32 10.6103 26.47 10.5603 26.62ZM45.2103 27.06C44.6703 27.19 44.1303 26.86 43.9503 26.34C43.8903 26.17 43.8303 26.01 43.7603 25.84C43.5503 25.31 43.7703 24.71 44.2903 24.48C44.8003 24.26 45.3903 24.48 45.6003 24.99C45.7103 25.26 45.8103 25.53 45.9103 25.81C46.1003 26.35 45.7703 26.92 45.2103 27.06ZM12.9103 22.05C12.5903 22.49 11.9903 22.62 11.5203 22.34C11.0303 22.05 10.8603 21.41 11.2003 20.95C11.3703 20.72 11.5403 20.49 11.7203 20.26C12.0603 19.83 12.7002 19.77 13.1202 20.12C13.5602 20.48 13.6103 21.14 13.2603 21.59C13.1403 21.75 13.0203 21.9 12.9103 22.05ZM42.9803 22.08C42.5003 22.39 41.8603 22.24 41.5103 21.79C41.4103 21.65 41.3003 21.52 41.1903 21.38C40.8303 20.93 40.8703 20.28 41.3003 19.91C41.7403 19.53 42.4003 19.59 42.7603 20.04C42.9303 20.26 43.1103 20.49 43.2703 20.71C43.6103 21.16 43.4503 21.78 42.9803 22.08ZM16.5002 18.28C16.0602 18.63 15.4103 18.59 15.0303 18.17C14.6503 17.73 14.7003 17.07 15.1603 16.71C15.3803 16.53 15.6103 16.36 15.8403 16.2C16.2903 15.88 16.9103 16.03 17.2103 16.49C17.5203 16.97 17.3803 17.62 16.9203 17.96C16.7803 18.06 16.6402 18.17 16.5002 18.28ZM39.3003 18.01C38.9503 18.42 38.3403 18.47 37.9203 18.14C37.7703 18.02 37.6103 17.91 37.4603 17.8C36.9803 17.46 36.8202 16.81 37.1302 16.32C37.4202 15.87 38.0103 15.73 38.4503 16.03C38.7003 16.2 38.9403 16.39 39.1803 16.57C39.6203 16.93 39.6703 17.58 39.3003 18.01ZM20.9803 15.77C20.4603 15.97 19.8703 15.73 19.6403 15.22C19.4103 14.7 19.6403 14.1 20.1603 13.89C20.4303 13.78 20.7003 13.68 20.9803 13.58C21.5203 13.39 22.1003 13.72 22.2603 14.27C22.4103 14.81 22.1003 15.37 21.5703 15.56C21.3603 15.63 21.1703 15.7 20.9803 15.77ZM26.0603 14.65C25.4703 14.68 24.9303 14.28 24.8503 13.7C24.7803 13.15 25.1503 12.64 25.7103 12.59C26.2303 12.55 26.7603 12.54 27.2703 12.58C27.4603 12.58 27.6104 12.73 27.6104 12.92V14.35C27.6104 14.5 27.4903 14.62 27.3403 14.62C26.9203 14.63 26.4903 14.63 26.0603 14.65Z" fill="currentColor" stroke="currentColor" stroke-width="0.5" stroke-miterlimit="10"/>
    <path d="M32.5401 14.16L27.5401 27.92C27.3501 28.45 27.6201 29.04 28.1601 29.24C28.7001 29.44 29.2902 29.16 29.4802 28.62L34.4802 14.86C34.6702 14.33 34.4002 13.74 33.8602 13.54C33.3202 13.35 32.7301 13.63 32.5401 14.16Z" fill="currentColor" stroke="currentColor" stroke-width="0.5" stroke-miterlimit="10"/>
  </g>
</svg>
