<svg viewBox="0 0 69 71" fill="none" xmlns="http://www.w3.org/2000/svg">
<g clip-path="url(#clip0)">
<path d="M26.04 28.24C25.54 27.76 25.54 26.96 26.04 26.48C26.54 25.99 27.35 25.99 27.85 26.48L39.89 38.17C40.39 38.66 40.39 39.45 39.89 39.93C39.64 40.17 39.31 40.29 38.98 40.29C38.65 40.29 38.32 40.17 38.07 39.93L26.04 28.24ZM25.61 40.53C26.11 41.02 26.11 41.8 25.61 42.29C25.36 42.53 25.03 42.66 24.7 42.66C24.37 42.66 24.04 42.54 23.79 42.29L11.76 30.6C11.26 30.11 11.26 29.32 11.76 28.84C12.26 28.35 13.07 28.35 13.57 28.84L25.61 40.53ZM30.09 15.94C29.59 15.45 29.59 14.66 30.09 14.18C30.59 13.69 31.4 13.69 31.9 14.18L43.94 25.87C44.44 26.36 44.44 27.15 43.94 27.63C43.69 27.88 43.36 28 43.03 28C42.7 28 42.37 27.88 42.12 27.64L30.09 15.94ZM4.98999 11.66L11.16 11.54C11.69 11.53 12.17 11.19 12.35 10.7L14.38 5.03L16.41 10.7C16.59 11.19 17.06 11.53 17.6 11.54L23.77 11.66L18.85 15.28C18.42 15.6 18.24 16.13 18.4 16.63L20.19 22.37L15.12 18.94C14.68 18.64 14.1 18.64 13.65 18.94L8.57999 22.37L10.37 16.63C10.52 16.13 10.35 15.59 9.91999 15.28L4.98999 11.66ZM5.05999 25.09C4.89999 25.6 5.08999 26.15 5.52999 26.46C5.96999 26.77 6.56999 26.78 7.01999 26.48L14.38 21.5L21.74 26.48C21.96 26.63 22.22 26.7 22.47 26.7C22.47 26.7 22.48 26.7 22.49 26.7C23.2 26.7 23.77 26.14 23.77 25.45C23.77 25.25 23.72 25.07 23.64 24.9L21.1 16.75L28.25 11.48C28.69 11.16 28.86 10.61 28.7 10.1C28.53 9.59 28.05 9.25 27.51 9.24L18.54 9.06L15.6 0.83C15.41 0.34 14.93 0 14.38 0C13.83 0 13.35 0.34 13.17 0.84L10.22 9.07L1.25999 9.25C0.709986 9.26 0.229986 9.6 0.0599862 10.11C-0.110014 10.61 0.0699862 11.17 0.509986 11.49L7.65999 16.76L5.05999 25.09ZM56.68 47.87H58.59V65.75H56.68V47.87ZM41.91 61.84C37.57 61.71 23.98 58.6 23.84 58.57C23.8 58.56 23.76 58.55 23.72 58.55C23.68 58.54 19.68 58.01 17.5 57.06C15.48 56.18 6.73999 52.88 3.83999 51.79C3.97999 51.1 4.29999 50.12 5.05999 49.46C5.76999 48.85 6.77999 48.61 8.07999 48.74C8.67999 48.86 13.72 49.85 17.23 50.57L19.49 51.1C20.12 52.54 21.61 53.7 22.62 54.36C25.69 56.33 32.34 56.39 33.09 56.39C33.8 56.39 34.37 55.83 34.37 55.15C34.37 54.46 33.8 53.9 33.09 53.9C31.27 53.9 26.1 53.61 24.05 52.29C22.5 51.27 21.72 50.22 21.76 49.7C21.78 49.44 22.11 49.19 22.39 49.02C23.76 49.12 28.3 49.39 30.73 48.82C34.81 47.85 35.86 47.78 35.99 47.77C36.1 47.77 36.2 47.77 36.3 47.75C36.39 47.73 44.88 46.19 46.8 50.18C46.9 50.38 47.05 50.56 47.24 50.68C49.4 52.1 51.78 51.96 54.11 51.73V62.6L41.91 61.84ZM68.76 45.97V43.48H59.87C59.16 43.48 58.59 44.04 58.59 44.73V45.38H55.4C54.69 45.38 54.12 45.94 54.12 46.63V49.24C52.06 49.45 50.38 49.6 48.96 48.8C46.08 43.66 37.13 45.09 35.92 45.31C34.85 45.35 32.24 45.92 30.13 46.43C28.13 46.91 23.75 46.67 22.24 46.54C22 46.52 21.77 46.56 21.55 46.67C20.38 47.24 19.78 47.93 19.48 48.57L17.82 48.18C14.03 47.4 8.54999 46.33 8.54999 46.33C8.50999 46.32 8.46999 46.32 8.43999 46.31C6.35999 46.09 4.64999 46.54 3.36999 47.65C1.22999 49.51 1.20999 52.51 1.20999 52.64C1.20999 53.15 1.52999 53.62 2.02999 53.8C2.14999 53.85 14.16 58.36 16.48 59.36C18.86 60.39 22.77 60.95 23.33 61.03C24.45 61.29 37.36 64.21 41.81 64.35L54.13 65.12V67.01C54.13 67.7 54.7 68.25 55.41 68.25H58.6V68.9C58.6 69.59 59.17 70.14 59.88 70.14H68.77V67.65H61.16V45.97H68.76Z" fill="currentColor"/>
</g>
<defs>
<clipPath id="clip0">
<rect width="68.76" height="70.13" fill="white"/>
</clipPath>
</defs>
</svg>
