<svg width="61" height="61" viewBox="0 0 61 61" fill="none" xmlns="http://www.w3.org/2000/svg">
<g clip-path="url(#clip0)">
<path d="M31.4001 31.7C31.4001 31.7 31.3001 31.7 31.4001 31.7C31.3001 31.8 31.1001 31.8 31.0001 31.8C30.9001 31.8 30.9001 31.8 30.9001 31.8C30.8001 31.8 30.6001 31.9 30.5001 31.9C30.4001 31.9 30.2001 31.9 30.1001 31.8C30.0001 31.8 30.0001 31.8 30.0001 31.8C29.9001 31.8 29.8001 31.7 29.7001 31.7C29.6001 31.7 29.6001 31.6 29.6001 31.6C29.5001 31.5 29.4001 31.5 29.3001 31.4C29.3001 31.4 29.3001 31.4 29.2001 31.4C29.2001 31.3 29.0001 31.2 29.0001 31C29.0001 31 29.0001 31 29.0001 30.9C29.0001 30.9 29.0001 30.8 28.9001 30.8C28.9001 30.7 28.8001 30.7 28.8001 30.7C28.8001 30.6 28.7001 30.6 28.7001 30.6C28.7001 30.5 28.7001 30.5 28.6001 30.5C28.6001 30.4 28.6001 30.4 28.6001 30.3V30.2V1.8C28.6001 0.8 29.4001 0 30.4001 0C35.7001 0 40.9001 1.4 45.4001 4C49.9001 6.6 53.8001 10.4 56.5001 15.1C57.0001 16 56.7001 17 55.9001 17.5C55.6001 17.6 55.3001 17.7 55.0001 17.7C54.4001 17.7 53.8001 17.4 53.4001 16.8C51.1001 12.8 47.7001 9.4 43.7001 7.1C40.2001 5 36.3001 3.8 32.2001 3.6V27L45.0001 19.8C45.9001 19.3 46.9001 19.6 47.4001 20.4C47.9001 21.3 47.6001 22.3 46.8001 22.8L31.4001 31.7Z" fill="currentColor"/>
<path d="M15.3001 3.8C15.7001 3.6 16.0001 3.5 16.4001 3.5C17.2001 3.5 17.9001 3.9 18.2001 4.6C18.5001 5.1 18.6001 5.7 18.4001 6.2C18.3001 6.8 17.9001 7.2 17.4001 7.5C17.0001 7.7 16.7001 7.8 16.3001 7.8C15.5001 7.8 14.8001 7.4 14.5001 6.7C14.2001 6.2 14.1001 5.6 14.3001 5.1C14.5001 4.5 14.8001 4 15.3001 3.8Z" fill="currentColor"/>
<path d="M6.00007 18.1C5.60007 18.1 5.30007 18 4.90007 17.8C3.90007 17.2 3.60007 15.9 4.10007 14.9C4.50007 14.3 5.20007 13.8 5.90007 13.8C6.30007 13.8 6.60007 13.9 7.00007 14.1C8.00007 14.7 8.40007 16 7.80007 17C7.40007 17.6 6.70007 18.1 6.00007 18.1Z" fill="currentColor"/>
<path d="M30.4999 60.5C31.6597 60.5 32.5999 59.5598 32.5999 58.4001C32.5999 57.2403 31.6597 56.3 30.4999 56.3C29.3401 56.3 28.3999 57.2403 28.3999 58.4001C28.3999 59.5598 29.3401 60.5 30.4999 60.5Z" fill="currentColor"/>
<path d="M2.1 32.2C3.2598 32.2 4.2 31.2598 4.2 30.1C4.2 28.9402 3.2598 28 2.1 28C0.940202 28 0 28.9402 0 30.1C0 31.2598 0.940202 32.2 2.1 32.2Z" fill="currentColor"/>
<path d="M58.7999 32.2C59.9597 32.2 60.9 31.2598 60.9 30.1C60.9 28.9402 59.9597 28 58.7999 28C57.6402 28 56.7 28.9402 56.7 30.1C56.7 31.2598 57.6402 32.2 58.7999 32.2Z" fill="currentColor"/>
<path d="M43.5999 52.8C43.9999 52.6 44.2999 52.5 44.6999 52.5C45.4999 52.5 46.1999 52.9 46.4999 53.6C46.7999 54.1 46.8999 54.7 46.6999 55.2C46.5999 55.8 46.1999 56.2 45.6999 56.5C45.2999 56.7 44.9999 56.8 44.5999 56.8C43.7999 56.8 43.0999 56.4 42.7999 55.7C42.4999 55.2 42.3999 54.6 42.5999 54.1C42.7999 53.6 43.0999 53.1 43.5999 52.8Z" fill="currentColor"/>
<path d="M4.90002 42.4C5.30002 42.2 5.60002 42.1 6.00002 42.1C6.80002 42.1 7.50002 42.5 7.80002 43.2C8.40002 44.2 8.00002 45.5 7.00002 46.1C6.60002 46.3 6.30002 46.4 5.90002 46.4C5.10002 46.4 4.40002 46 4.10002 45.3C3.50002 44.3 3.90002 43 4.90002 42.4Z" fill="currentColor"/>
<path d="M54.9999 42.1C55.3999 42.1 55.6999 42.2 56.0999 42.4C57.0999 43 57.3999 44.3 56.8999 45.3C56.4999 45.9 55.7999 46.4 55.0999 46.4C54.6999 46.4 54.3999 46.3 53.9999 46.1C52.9999 45.5 52.6999 44.2 53.1999 43.2C53.5999 42.6 54.2999 42.1 54.9999 42.1Z" fill="currentColor"/>
<path d="M16.3999 52.5C16.7999 52.5 17.0999 52.6 17.4999 52.8C17.9999 53.1 18.3999 53.5 18.4999 54.1C18.5999 54.7 18.5999 55.2 18.2999 55.7C17.8999 56.3 17.1999 56.8 16.4999 56.8C16.0999 56.8 15.7999 56.7 15.3999 56.5C14.8999 56.2 14.4999 55.8 14.3999 55.2C14.2999 54.6 14.2999 54.1 14.5999 53.6C14.8999 52.9 15.5999 52.5 16.3999 52.5Z" fill="currentColor"/>
</g>
<defs>
<clipPath id="clip0">
<rect width="60.9" height="60.6" fill="currentColor"/>
</clipPath>
</defs>
</svg>
