<svg width="43" height="50" viewBox="0 0 43 50" fill="none" xmlns="http://www.w3.org/2000/svg">
  <g id="panic_attack">
    <path d="M36.0604 15.2843C35.9078 15.1317 35.9078 14.8893 36.0604 14.7367L39.0948 11.6933C39.2294 11.5676 39.4269 11.5407 39.5795 11.6484C39.7322 11.7472 39.795 11.9447 39.7232 12.1153L37.5955 17.1696H39.014C39.2294 17.1696 39.4 17.3401 39.4 17.5556C39.4 17.771 39.2294 17.9416 39.014 17.9416H37.012C36.8863 17.9416 36.7606 17.8788 36.6888 17.7711C36.617 17.6633 36.608 17.5286 36.6529 17.4119L38.2419 13.6324L36.59 15.2843C36.4554 15.4369 36.213 15.4369 36.0604 15.2843ZM29.7852 21.353C29.7223 21.2094 29.7582 21.0478 29.866 20.9311L34.0225 16.7745C34.1751 16.6219 34.4175 16.6219 34.5701 16.7745C34.7227 16.9272 34.7227 17.1696 34.5701 17.3222L31.0779 20.8234H31.8589C32.0744 20.8234 32.245 20.9939 32.245 21.2094C32.245 21.4249 32.0744 21.5954 31.8589 21.5954H30.1532C29.9827 21.5864 29.848 21.4967 29.7852 21.353ZM34.8215 16.5232C34.6689 16.3706 34.6689 16.1282 34.8215 15.9756L34.9292 15.8678C35.0819 15.7152 35.3242 15.7152 35.4769 15.8678C35.6295 16.0204 35.6295 16.2628 35.4769 16.4155L35.3691 16.5232C35.2973 16.595 35.1986 16.6399 35.0998 16.6399C34.9921 16.6399 34.8933 16.595 34.8215 16.5232ZM39.7232 17.5556C39.7232 17.3401 39.8937 17.1696 40.1092 17.1696H41.8778C42.0304 17.1696 42.174 17.2593 42.2369 17.403C42.2997 17.5466 42.2638 17.7082 42.1561 17.8249L33.3313 26.6587C33.2594 26.7305 33.1607 26.7754 33.0619 26.7754C32.9901 26.7754 32.9183 26.7575 32.8555 26.7126C32.7028 26.6138 32.64 26.4253 32.7028 26.2547L34.4534 21.5865H33.7173C33.5018 21.5865 33.3313 21.4159 33.3313 21.2004C33.3313 20.985 33.5018 20.8144 33.7173 20.8144H35.01C35.1357 20.8144 35.2524 20.8772 35.3242 20.976C35.3961 21.0837 35.414 21.2094 35.3691 21.3261L34.0494 24.8452L40.9621 17.9237H40.1182C39.9027 17.9416 39.7232 17.771 39.7232 17.5556Z" fill="currentColor"/>
    <path d="M7.16203 15.5985C7.00942 15.4459 7.00942 15.2035 7.16203 15.0509L10.1964 12.0075C10.3311 11.8818 10.5286 11.8549 10.6812 11.9627C10.8338 12.0614 10.8967 12.2589 10.8248 12.4295L8.69719 17.4838H10.1156C10.3311 17.4838 10.5016 17.6543 10.5016 17.8698C10.5016 18.0852 10.3311 18.2558 10.1156 18.2558H8.11364C7.98795 18.2558 7.86228 18.193 7.79046 18.0852C7.71864 17.9775 7.70966 17.8429 7.75455 17.7261L9.34357 13.9467L7.6917 15.5985C7.55704 15.7511 7.30567 15.7511 7.16203 15.5985ZM0.886819 21.6673C0.823977 21.5236 0.859884 21.362 0.967613 21.2453L5.12417 17.0888C5.27678 16.9361 5.51916 16.9361 5.67178 17.0888C5.82439 17.2414 5.82439 17.4838 5.67178 17.6364L2.17957 21.1376H2.9606C3.17606 21.1376 3.34663 21.3082 3.34663 21.5236C3.34663 21.7391 3.17606 21.9096 2.9606 21.9096H1.2549C1.08433 21.9096 0.949661 21.8109 0.886819 21.6673ZM5.92317 16.8374C5.77055 16.6848 5.77055 16.4424 5.92317 16.2898L6.03089 16.182C6.18351 16.0294 6.42589 16.0294 6.5785 16.182C6.73112 16.3346 6.73112 16.577 6.5785 16.7297L6.47078 16.8374C6.39896 16.9092 6.30022 16.9541 6.20147 16.9541C6.09374 16.9541 5.99499 16.9182 5.92317 16.8374ZM10.8248 17.8788C10.8248 17.6633 10.9954 17.4928 11.2109 17.4928H12.9794C13.132 17.4928 13.2757 17.5825 13.3385 17.7261C13.4013 17.8698 13.3654 18.0314 13.2577 18.1481L4.43291 26.9819C4.36109 27.0537 4.26233 27.0986 4.16357 27.0986C4.09176 27.0986 4.01995 27.0806 3.95711 27.0357C3.80449 26.937 3.74164 26.7485 3.80448 26.5779L5.55509 21.9096H4.81894C4.60348 21.9096 4.43291 21.7391 4.43291 21.5236C4.43291 21.3082 4.60348 21.1376 4.81894 21.1376H6.11169C6.23737 21.1376 6.35408 21.2004 6.4259 21.2992C6.49772 21.4069 6.51567 21.5326 6.47078 21.6493L5.1511 25.1684L12.0637 18.2469H11.2198C11.0044 18.2648 10.8248 18.0853 10.8248 17.8788Z" fill="currentColor"/>
    <path d="M24.8745 4.93331C24.677 4.73581 24.677 4.40365 24.8745 4.20614L28.9234 0.148356C29.0939 -0.0222156 29.3722 -0.0491545 29.5697 0.0855069C29.7762 0.220168 29.848 0.480525 29.7582 0.713938L26.9304 7.45597H28.8246C29.1119 7.45597 29.3363 7.68939 29.3363 7.96769C29.3363 8.25496 29.1029 8.47941 28.8246 8.47941H26.1583C25.9877 8.47941 25.8261 8.38962 25.7274 8.24598C25.6286 8.10235 25.6196 7.92279 25.6825 7.7612L27.8012 2.71589L25.6017 4.92435C25.3952 5.13083 25.072 5.13082 24.8745 4.93331ZM16.5076 13.022C16.4268 12.8335 16.4716 12.609 16.6153 12.4654L22.1544 6.9263C22.3519 6.7288 22.6751 6.7288 22.8815 6.9263C23.079 7.12381 23.079 7.45597 22.8815 7.65347L18.2222 12.3217H19.2636C19.5509 12.3217 19.7753 12.5552 19.7753 12.8335C19.7753 13.1207 19.5419 13.3452 19.2636 13.3452H16.9834C16.7769 13.3452 16.5883 13.2195 16.5076 13.022ZM23.2227 6.58516C23.0252 6.38765 23.0252 6.05549 23.2227 5.85799L23.3573 5.71434C23.5548 5.51684 23.878 5.51684 24.0845 5.71434C24.282 5.91185 24.282 6.23503 24.0845 6.44151L23.9409 6.58516C23.8421 6.68391 23.7075 6.73778 23.5818 6.73778C23.4561 6.73778 23.3214 6.68391 23.2227 6.58516ZM29.7672 7.96769C29.7672 7.68041 30.0006 7.45597 30.2789 7.45597H32.64C32.8465 7.45597 33.035 7.58166 33.1158 7.77018C33.1966 7.95871 33.1517 8.18314 33.0081 8.32678L21.2387 20.1052C21.1399 20.2039 21.0052 20.2578 20.8796 20.2578C20.7808 20.2578 20.691 20.2309 20.6013 20.177C20.3948 20.0423 20.314 19.791 20.3948 19.5665L22.7289 13.3452H21.7504C21.4631 13.3452 21.2387 13.1118 21.2387 12.8335C21.2387 12.5462 21.4721 12.3217 21.7504 12.3217H23.4651C23.6356 12.3217 23.7882 12.4025 23.887 12.5462C23.9858 12.6808 24.0037 12.8604 23.9498 13.022L22.1903 17.7172L31.4101 8.49735H30.2879C29.9917 8.4794 29.7672 8.25496 29.7672 7.96769Z" fill="currentColor"/>
    <path d="M37.3172 48.4648C37.0838 48.6803 36.8683 48.788 36.7606 48.8239C36.0334 48.3212 32.3706 45.8973 29.462 45.224C30.1532 44.9906 30.8984 44.82 31.6614 44.7841C31.9846 44.7661 32.227 44.4968 32.2091 44.1826C32.1911 43.8684 31.9128 43.617 31.6076 43.635C27.9268 43.8145 24.7578 46.5526 24.5962 46.7053C23.887 47.4414 22.298 48.0519 20.8257 48.1596C19.3893 48.2673 18.3659 48.1417 17.7105 47.7826C17.2886 47.5491 16.7051 47.0823 16.6063 45.6998C16.5973 45.5382 16.5165 45.4035 16.4088 45.3048C16.3998 45.2509 16.3998 45.206 16.3819 45.1611C16.3549 43.4913 14.5864 41.9562 12.1355 41.5612C11.8213 41.5163 11.5251 41.7318 11.4712 42.046C11.4174 42.3602 11.6328 42.6564 11.947 42.7103C13.8951 43.0155 15.3854 44.2454 15.2058 45.3946C15.1969 45.4574 15.2058 45.5113 15.2148 45.5741C14.8557 46.8848 13.0692 47.7377 11.0762 47.4953C10.0079 47.3696 9.0473 46.9476 8.36501 46.3192C7.73659 45.7357 7.43138 45.0444 7.51217 44.3711C7.5391 44.1557 7.44034 43.9671 7.27875 43.8415C7.44034 43.7068 7.52115 43.5003 7.48524 43.2849C7.24285 42.0909 8.24831 40.8789 9.72061 40.5826C10.0348 40.5198 10.2323 40.2146 10.1695 39.9004C10.1066 39.5862 9.8014 39.3887 9.48719 39.4515C7.38647 39.8734 5.97702 41.6959 6.34509 43.5183C6.37202 43.6619 6.45282 43.7786 6.56953 43.8594C6.47077 43.9492 6.39898 44.0659 6.37205 44.2095C6.34512 44.2095 6.32715 44.1916 6.30021 44.1916C5.46531 44.1826 4.68428 43.7786 4.09177 43.0425C3.47233 42.2704 3.14015 41.256 3.14913 40.1607C3.15811 39.0745 3.51722 38.051 4.14564 37.2969C4.7561 36.5698 5.57306 36.1837 6.37205 36.1837C6.70421 36.1837 6.95558 35.9324 6.95558 35.6092C6.95558 35.4925 6.91067 35.3847 6.85681 35.2949C6.84783 35.2231 6.83886 35.1513 6.80295 35.0885C6.03089 33.4905 7.36854 31.2282 9.79245 30.0611C10.9954 29.4776 12.2792 29.2532 13.4014 29.4417C14.0388 29.5404 14.5684 29.7648 14.9724 30.097C14.3709 30.1688 13.7964 30.3574 13.3026 30.6716C12.5754 31.1384 12.0817 31.8297 11.9021 32.6197C11.8303 32.9339 12.0278 33.2391 12.342 33.3109C12.3869 33.3199 12.4228 33.3199 12.4677 33.3199C12.728 33.3199 12.9704 33.1404 13.0333 32.871C13.141 32.3683 13.4552 31.9464 13.922 31.6501C14.5415 31.2551 15.3674 31.1294 16.1664 31.309C16.4716 31.3808 16.7679 31.1923 16.8487 30.887C16.9205 30.8152 16.9833 30.7254 17.0103 30.6177C17.2168 29.702 18.1504 28.9748 19.6407 28.5798C21.2566 28.1489 23.2765 28.1669 25.3413 28.6427C27.3972 29.1095 29.2286 29.9803 30.5033 31.0666C31.6704 32.0721 32.2001 33.1314 31.9846 34.0561C31.9487 34.2177 31.9846 34.3793 32.0744 34.5139C31.7512 34.496 31.4191 34.4959 31.0869 34.5229C30.7727 34.5498 30.5303 34.8191 30.5572 35.1423C30.5841 35.4565 30.8535 35.6989 31.1767 35.681C33.3582 35.5194 35.2704 36.462 35.3691 37.7278C35.432 38.5537 35.0549 39.1463 34.238 39.5323C34.1392 39.5772 34.0674 39.658 34.0046 39.7477C33.825 39.8106 33.6814 39.9542 33.6365 40.1517C33.5647 40.466 33.7622 40.7712 34.0674 40.843C34.9202 41.0405 35.4858 41.7587 35.3332 42.441C35.2345 42.8539 35.0549 43.0514 34.9023 43.1412L34.5163 42.7103C34.3008 42.4769 33.9417 42.45 33.6993 42.6654C33.4659 42.8809 33.439 43.24 33.6544 43.4824L37.7122 47.998C37.6584 48.0878 37.5327 48.2673 37.3172 48.4648ZM38.7087 47.3516L35.6744 43.9761C36.0604 43.6799 36.3297 43.24 36.4554 42.6744C36.6708 41.7138 36.213 40.7443 35.3691 40.1607C36.1771 39.5503 36.59 38.6794 36.5092 37.6291C36.4015 36.1029 34.9292 34.9448 32.9273 34.6037C33.017 34.5229 33.0799 34.4241 33.1068 34.3074C33.421 32.9518 32.7567 31.4885 31.2485 30.1868C29.839 28.9748 27.8371 28.0232 25.5927 27.5115C23.3483 26.9998 21.1309 26.9818 19.3354 27.4576C17.7644 27.8796 16.6691 28.6427 16.1485 29.6481C15.5559 28.9479 14.6672 28.4811 13.5809 28.3105C12.2253 28.0951 10.6992 28.3464 9.28073 29.0377C6.5067 30.3843 4.94462 33.0147 5.57304 35.1244C4.69326 35.3039 3.89427 35.7977 3.24789 36.5608C2.43993 37.5214 1.99105 38.7961 1.98207 40.1517C1.9731 41.5073 2.39503 42.7911 3.18505 43.7696C4.00199 44.7751 5.09725 45.3407 6.28227 45.3497H6.29123C6.34509 45.3497 6.38998 45.3317 6.43487 45.3227C6.59646 45.9871 6.98251 46.6155 7.57502 47.1631C8.42788 47.9531 9.62186 48.4828 10.9326 48.6354C11.2019 48.6713 11.4622 48.6803 11.7226 48.6803C13.3834 48.6803 14.8647 48.0429 15.6996 47.0374C15.9779 47.8184 16.4537 48.411 17.145 48.788C17.8272 49.1651 18.707 49.3446 19.8831 49.3446C20.1973 49.3446 20.5384 49.3356 20.8975 49.3087C22.3339 49.2099 24.3538 48.5995 25.3772 47.5401C25.3952 47.5312 26.0775 46.9387 27.1548 46.3013C27.2625 46.3282 27.3792 46.3372 27.4959 46.3013C29.2016 45.6908 33.6814 48.1147 36.1322 49.8025C36.2669 49.9192 36.4464 49.991 36.6439 50C36.6619 50 36.6798 50 36.6978 50C37.1018 50 37.6225 49.7486 38.0893 49.3267C38.583 48.8868 38.8883 48.3751 38.9152 47.9531C38.9242 47.7197 38.8524 47.5132 38.7087 47.3516Z" fill="currentColor"/>
    <path d="M23.2137 36.875C21.4811 37.2251 20.2242 38.5268 20.0447 39.9991C19.1649 39.7567 18.1594 39.7208 17.136 39.9273C16.8218 39.9902 16.6243 40.2954 16.6871 40.6096C16.75 40.9238 17.0552 41.1213 17.3694 41.0585C18.3659 40.861 19.3444 40.9148 20.1165 41.2201C20.8078 41.4894 21.2477 41.9293 21.3464 42.441C21.4003 42.7193 21.6427 42.9078 21.912 42.9078C21.9479 42.9078 21.9838 42.9078 22.0287 42.8988C22.3429 42.836 22.5404 42.5308 22.4775 42.2165C22.3339 41.5073 21.8851 40.9058 21.1848 40.4749C21.113 39.3617 22.0646 38.2844 23.4381 38.0061C23.7523 37.9433 23.9498 37.6381 23.887 37.3239C23.8242 37.0186 23.5279 36.8122 23.2137 36.875Z" fill="currentColor"/>
    <path d="M25.485 31.1025C24.5064 30.7165 23.2945 30.6357 22.0826 30.8781C21.7683 30.9409 21.5708 31.2462 21.6337 31.5604C21.6965 31.8746 22.0017 32.0721 22.3159 32.0093C23.3124 31.8118 24.291 31.8656 25.063 32.1708C25.7543 32.4402 26.1942 32.8801 26.2929 33.3918C26.3468 33.6701 26.5892 33.8586 26.8585 33.8586C26.8944 33.8586 26.9393 33.8586 26.9752 33.8496C27.2894 33.7868 27.4869 33.4816 27.4241 33.1674C27.2446 32.2606 26.5533 31.5245 25.485 31.1025Z" fill="currentColor"/>
  </g>
</svg>
