<svg width="75" height="75" viewBox="0 0 75 75" fill="none" xmlns="http://www.w3.org/2000/svg">
<path d="M17.13 59.73C17.78 59.73 18.3 59.21 18.3 58.56C18.3 58.24 18.17 57.94 17.94 57.72C17.8 57.59 17.67 57.46 17.54 57.32C17.09 56.86 16.34 56.86 15.88 57.31C15.42 57.76 15.42 58.51 15.87 58.97C16.01 59.11 16.16 59.26 16.3 59.4C16.54 59.61 16.83 59.73 17.13 59.73Z" fill="#85AFCA"/>
<path d="M26.25 11.61C26.4 11.61 26.56 11.58 26.7 11.52C26.87 11.45 27.05 11.38 27.22 11.31C27.82 11.07 28.12 10.39 27.88 9.79C27.64 9.19 26.96 8.89 26.36 9.13C26.17 9.2 25.98 9.28 25.8 9.36C25.2 9.61 24.92 10.3 25.17 10.89C25.35 11.33 25.78 11.61 26.25 11.61Z" fill="#85AFCA"/>
<path d="M37.24 66.81C37.27 66.16 36.77 65.61 36.12 65.58C35.93 65.57 35.75 65.56 35.56 65.55C34.91 65.51 34.36 65.99 34.31 66.64C34.27 67.29 34.76 67.84 35.4 67.89C35.6 67.9 35.81 67.91 36.01 67.92C36.03 67.92 36.05 67.92 36.07 67.92C36.7 67.93 37.21 67.44 37.24 66.81Z" fill="#85AFCA"/>
<path d="M21.8801 60.89C21.7201 60.79 21.5701 60.68 21.4101 60.57C20.8801 60.2 20.1501 60.33 19.7801 60.86C19.4101 61.39 19.5401 62.12 20.0701 62.49C20.2401 62.61 20.4001 62.72 20.5701 62.83C21.1001 63.19 21.8301 63.05 22.2001 62.52C22.5701 61.99 22.4301 61.26 21.8801 60.89C21.8901 60.89 21.8901 60.9 21.8801 60.89Z" fill="#85AFCA"/>
<path d="M31.12 64.9C30.94 64.86 30.76 64.81 30.58 64.77C29.95 64.61 29.31 64.99 29.16 65.62C29 66.25 29.38 66.89 30.01 67.04C30.21 67.09 30.4 67.14 30.6 67.18C31.23 67.33 31.86 66.93 32.01 66.3C32.15 65.67 31.75 65.04 31.12 64.9Z" fill="#85AFCA"/>
<path d="M8.07 45.41C8.21 45.92 8.67 46.28 9.2 46.28C9.3 46.28 9.4 46.27 9.5 46.24C10.12 46.07 10.5 45.43 10.33 44.81C10.28 44.63 10.24 44.45 10.19 44.26C10.04 43.63 9.4 43.25 8.77 43.4C8.14 43.55 7.76 44.19 7.91 44.82C7.91 44.82 7.91 44.82 7.91 44.83C7.97 45.01 8.02 45.21 8.07 45.41Z" fill="#85AFCA"/>
<path d="M36.5001 9.39C36.5101 9.39 36.5301 9.39 36.5401 9.39C36.7301 9.38 36.9101 9.38 37.1001 9.38C37.7501 9.37 38.2701 8.84 38.2601 8.19C38.2501 7.55 37.7301 7.03 37.0901 7.03H37.0801C36.8801 7.03 36.6701 7.04 36.4701 7.04C35.8201 7.06 35.3201 7.6 35.3401 8.25C35.3501 8.89 35.8701 9.39 36.5001 9.39Z" fill="#85AFCA"/>
<path d="M31.27 10.04C31.35 10.04 31.44 10.03 31.52 10.01C31.7 9.97 31.89 9.92999 32.07 9.89999C32.71 9.76999 33.12 9.16 32.99 8.52C32.86 7.89 32.25 7.46999 31.62 7.59999C31.42 7.63999 31.22 7.67999 31.02 7.71999C30.39 7.85999 29.98 8.47999 30.12 9.10999C30.25 9.64999 30.72 10.04 31.27 10.04Z" fill="#85AFCA"/>
<path d="M25.86 65.56C26.51 65.56 27.03 65.04 27.03 64.39C27.03 63.92 26.75 63.5 26.32 63.32C26.15 63.25 25.98 63.17 25.81 63.09C25.22 62.82 24.53 63.07 24.25 63.66C23.98 64.25 24.23 64.94 24.82 65.22C24.82 65.22 24.82 65.22 24.83 65.22C25.02 65.31 25.2 65.39 25.39 65.47C25.54 65.53 25.7 65.56 25.86 65.56Z" fill="#85AFCA"/>
<path d="M7.13005 40.01C7.18005 40.62 7.69005 41.08 8.30005 41.08C8.33005 41.08 8.36005 41.08 8.40005 41.08C9.04005 41.03 9.52005 40.46 9.47005 39.82C9.46005 39.64 9.44005 39.45 9.43005 39.26C9.39005 38.61 8.83005 38.12 8.19005 38.16C7.54005 38.2 7.05005 38.76 7.09005 39.4C7.10005 39.61 7.12005 39.81 7.13005 40.01Z" fill="#85AFCA"/>
<path d="M8.23 35.82C8.27 35.82 8.31 35.82 8.34 35.82C8.94 35.82 9.45 35.36 9.51 34.76C9.53 34.57 9.55 34.39 9.57 34.2C9.65 33.56 9.19 32.97 8.55 32.89C7.91 32.81 7.32 33.27 7.24 33.91V33.92C7.22 34.12 7.2 34.32 7.18 34.52C7.11 35.18 7.58 35.76 8.23 35.82Z" fill="#85AFCA"/>
<path d="M10.6 29.26C10.79 28.64 10.44 27.99 9.83 27.79C9.21 27.6 8.56 27.95 8.36 28.56C8.3 28.76 8.24 28.95 8.19 29.15C8.01 29.77 8.38 30.42 9 30.6C9.62 30.78 10.27 30.41 10.45 29.79C10.49 29.62 10.55 29.44 10.6 29.26Z" fill="#85AFCA"/>
<path d="M10.43 23.5C10.34 23.68 10.24 23.86 10.15 24.05C9.85995 24.63 10.1 25.33 10.68 25.62C11.26 25.91 11.96 25.67 12.25 25.09C12.33 24.92 12.42 24.75 12.5 24.59C12.8 24.01 12.57 23.31 12 23.01C11.44 22.7 10.73 22.93 10.43 23.5Z" fill="#85AFCA"/>
<path d="M17.0999 14.87C16.9499 15.01 16.7999 15.14 16.6499 15.28C16.1799 15.72 16.1499 16.47 16.5999 16.94C17.0399 17.41 17.7899 17.44 18.2599 16.99C18.3999 16.86 18.5399 16.73 18.6799 16.61C19.1599 16.18 19.1999 15.43 18.7599 14.96C18.3199 14.47 17.5799 14.43 17.0999 14.87Z" fill="#85AFCA"/>
<path d="M12.08 49.54C12 49.37 11.92 49.2 11.85 49.03C11.58 48.44 10.89 48.18 10.3 48.44C9.7 48.71 9.44 49.4 9.7 49.99C9.78 50.18 9.87 50.36 9.96 50.54C10.24 51.12 10.94 51.37 11.52 51.1C12.1 50.83 12.35 50.13 12.08 49.54Z" fill="#85AFCA"/>
<path d="M14.3199 53.43C13.9499 52.9 13.2199 52.76 12.6899 53.13C12.1599 53.5 12.0199 54.23 12.3899 54.76C12.4999 54.93 12.6199 55.09 12.7399 55.26C13.1199 55.79 13.8499 55.91 14.3799 55.53C14.8999 55.15 15.0299 54.42 14.6499 53.89C14.5299 53.74 14.4299 53.59 14.3199 53.43Z" fill="#85AFCA"/>
<path d="M21.6 14.06C21.82 14.06 22.05 13.99 22.24 13.87C22.4 13.77 22.56 13.67 22.72 13.57C23.27 13.23 23.44 12.51 23.1 11.96C22.76 11.41 22.04 11.24 21.49 11.58C21.32 11.69 21.15 11.79 20.98 11.9C20.44 12.25 20.28 12.98 20.63 13.52C20.83 13.86 21.2 14.06 21.6 14.06Z" fill="#85AFCA"/>
<path d="M13.25 21.01C13.77 21.39 14.5 21.29 14.89 20.77C15 20.62 15.12 20.47 15.23 20.32C15.62 19.81 15.53 19.07 15.02 18.68C14.51 18.29 13.77 18.38 13.38 18.89C13.25 19.05 13.13 19.21 13.01 19.38C12.63 19.89 12.73 20.62 13.25 21.01Z" fill="#85AFCA"/>
<path d="M56.63 59.72C56.23 59.21 55.49 59.13 54.98 59.53C54.83 59.65 54.68 59.76 54.54 59.88C54.02 60.27 53.93 61.01 54.32 61.52C54.71 62.03 55.45 62.13 55.96 61.74C56.12 61.62 56.28 61.49 56.44 61.37C56.95 60.96 57.03 60.22 56.63 59.72Z" fill="#85AFCA"/>
<path d="M58.64 56.04C58.52 56.18 58.39 56.32 58.26 56.46C57.82 56.94 57.86 57.68 58.34 58.11C58.82 58.55 59.56 58.51 60 58.04C60.14 57.89 60.27 57.74 60.41 57.59C60.84 57.1 60.79 56.36 60.3 55.94C59.81 55.51 59.07 55.56 58.64 56.04Z" fill="#85AFCA"/>
<path d="M63.23 51.56C62.68 51.23 61.95 51.41 61.62 51.96C61.52 52.12 61.43 52.28 61.32 52.44C60.98 52.99 61.14 53.71 61.69 54.06C62.24 54.4 62.96 54.24 63.31 53.69C63.42 53.52 63.53 53.34 63.63 53.17C63.97 52.61 63.79 51.89 63.23 51.56Z" fill="#85AFCA"/>
<path d="M59.05 17.62C58.56 18.04 58.5 18.78 58.92 19.27C59.04 19.41 59.16 19.56 59.28 19.7C59.69 20.2 60.43 20.27 60.93 19.86C61.43 19.45 61.51 18.71 61.09 18.21C60.96 18.05 60.83 17.9 60.7 17.74C60.28 17.26 59.54 17.2 59.05 17.62Z" fill="#85AFCA"/>
<path d="M67.56 32.48C67.45 31.84 66.85 31.41 66.21 31.52C65.57 31.63 65.14 32.23 65.25 32.87C65.28 33.05 65.31 33.24 65.34 33.42C65.43 34.06 66.03 34.5 66.67 34.41C67.31 34.32 67.75 33.72 67.66 33.08C67.62 32.88 67.59 32.68 67.56 32.48Z" fill="#85AFCA"/>
<path d="M66.18 27.18C65.96 26.57 65.29 26.25 64.68 26.47C64.07 26.69 63.75 27.36 63.97 27.97C64.03 28.15 64.1 28.33 64.16 28.5C64.37 29.11 65.03 29.44 65.65 29.23C66.26 29.02 66.59 28.36 66.38 27.74C66.31 27.56 66.24 27.37 66.18 27.18Z" fill="#85AFCA"/>
<path d="M41.59 9.67001C41.78 9.70001 41.96 9.73001 42.14 9.76001C42.21 9.77001 42.27 9.78001 42.33 9.78001C42.98 9.78001 43.5 9.25001 43.5 8.61001C43.5 8.04001 43.09 7.55001 42.52 7.46001C42.32 7.43001 42.12 7.39001 41.92 7.37001C41.28 7.28001 40.69 7.72001 40.59 8.36001C40.5 8.98001 40.95 9.58001 41.59 9.67001Z" fill="#85AFCA"/>
<path d="M67.3699 43.55C67.4099 43.35 67.4499 43.15 67.4799 42.95C67.5999 42.31 67.1699 41.7 66.5399 41.59C65.8999 41.47 65.2899 41.9 65.1799 42.53C65.1499 42.72 65.1099 42.9 65.0699 43.09C64.9399 43.72 65.3499 44.34 65.9899 44.47C66.0699 44.48 66.1399 44.49 66.2199 44.49C66.7799 44.49 67.2599 44.1 67.3699 43.55Z" fill="#85AFCA"/>
<path d="M62.11 23.88C62.42 24.45 63.14 24.65 63.7 24.34C64.27 24.03 64.47 23.31 64.16 22.75C64.06 22.57 63.96 22.4 63.86 22.22C63.54 21.66 62.82 21.47 62.26 21.8C61.7 22.13 61.51 22.84 61.84 23.4C61.93 23.56 62.02 23.72 62.11 23.88Z" fill="#85AFCA"/>
<path d="M67.96 38.11C67.96 37.91 67.97 37.7 67.96 37.5C67.96 36.85 67.44 36.33 66.79 36.33C66.14 36.33 65.62 36.85 65.62 37.5C65.62 37.69 65.62 37.88 65.62 38.06C65.61 38.71 66.12 39.24 66.77 39.26H66.79C67.43 39.26 67.95 38.75 67.96 38.11Z" fill="#85AFCA"/>
<path d="M65.34 46.72C64.74 46.49 64.06 46.8 63.83 47.4C63.76 47.58 63.69 47.75 63.63 47.93C63.39 48.53 63.68 49.21 64.28 49.45C64.88 49.69 65.56 49.4 65.8 48.8C65.87 48.61 65.95 48.42 66.02 48.23C66.25 47.63 65.95 46.95 65.34 46.72Z" fill="#85AFCA"/>
<path d="M50.76 62.31C50.6 62.4 50.43 62.48 50.26 62.57C49.68 62.86 49.4501 63.57 49.7501 64.14C50.0401 64.72 50.7501 64.95 51.3301 64.65C51.5101 64.56 51.6901 64.46 51.8701 64.37C52.4401 64.06 52.65 63.35 52.35 62.78C52.04 62.22 51.33 62 50.76 62.31Z" fill="#85AFCA"/>
<path d="M55.74 16.09C56.23 16.51 56.97 16.45 57.39 15.95C57.81 15.46 57.75 14.72 57.26 14.3C57.11 14.17 56.95 14.04 56.79 13.91C56.29 13.5 55.55 13.57 55.14 14.07C54.73 14.57 54.8 15.31 55.3 15.72C55.45 15.85 55.6 15.97 55.74 16.09Z" fill="#85AFCA"/>
<path d="M51.1299 12.89C51.2899 12.98 51.4599 13.07 51.6199 13.17C52.1799 13.49 52.8999 13.3 53.2199 12.74C53.5399 12.18 53.3499 11.46 52.7899 11.14C52.6199 11.04 52.4399 10.94 52.2599 10.84C51.6899 10.53 50.9799 10.73 50.6699 11.3C50.3599 11.86 50.5599 12.57 51.1299 12.89Z" fill="#85AFCA"/>
<path d="M46.5 10.85C46.68 10.91 46.86 10.97 47.03 11.04C47.64 11.26 48.31 10.94 48.53 10.33C48.75 9.71999 48.43 9.04999 47.82 8.82999C47.63 8.75999 47.44 8.68999 47.24 8.62999C46.63 8.41999 45.96 8.74999 45.75 9.35999C45.56 9.96999 45.88 10.64 46.5 10.85Z" fill="#85AFCA"/>
<path d="M41.1801 65.38C40.9901 65.4 40.8101 65.43 40.6201 65.45C39.9801 65.52 39.5101 66.1 39.5901 66.74C39.6601 67.33 40.1601 67.78 40.7501 67.78C40.7901 67.78 40.8401 67.78 40.8801 67.77C41.0801 67.75 41.2801 67.72 41.4801 67.7C42.1201 67.62 42.5801 67.03 42.4901 66.39C42.4101 65.75 41.8201 65.3 41.1801 65.38Z" fill="#85AFCA"/>
<path d="M47.59 65.04C47.39 64.42 46.73 64.08 46.12 64.28C45.94 64.34 45.76 64.39 45.58 64.45C44.96 64.64 44.61 65.29 44.79 65.91C44.98 66.53 45.63 66.88 46.25 66.7C46.44 66.64 46.64 66.58 46.83 66.52C47.44 66.31 47.78 65.65 47.59 65.04Z" fill="#85AFCA"/>
<path d="M28.92 58.59C27.41 58.59 26.02 57.78 25.28 56.47C28 55.18 29.15 51.92 27.86 49.2C27.47 48.37 26.87 47.66 26.13 47.12C25.61 46.74 24.87 46.85 24.49 47.37C24.11 47.89 24.22 48.63 24.74 49.01C25.56 49.59 26.04 50.53 26.04 51.54C26.02 53.3 24.58 54.71 22.82 54.69C22.77 54.69 22.71 54.7 22.66 54.71C21.15 54.3 20.09 52.93 20.07 51.36C20.07 50.75 19.59 50.24 18.98 50.2C17.22 50.08 15.86 48.62 15.85 46.87C15.85 46.36 15.97 45.87 16.19 45.41C16.42 44.93 16.31 44.36 15.9 44.01C14.41 42.74 14.23 40.5 15.5 39C15.62 38.86 15.75 38.73 15.88 38.61C15.99 38.65 16.11 38.67 16.22 38.67C16.77 38.67 17.31 38.82 17.79 39.09L19.03 40.34C19.3 40.83 19.44 41.39 19.44 41.95C19.44 42.6 19.96 43.12 20.61 43.12C21.26 43.12 21.78 42.6 21.78 41.95C21.78 40.96 21.52 39.99 21.03 39.13C20.13 37.58 18.55 36.55 16.76 36.37C16.71 36.31 16.66 36.26 16.6 36.22C15.5 35.43 14.85 34.16 14.86 32.81C14.87 31.43 15.55 30.14 16.69 29.35C17.04 29.26 17.4 29.21 17.77 29.21C19.91 29.21 21.64 30.68 21.64 32.49C21.64 33.14 22.16 33.66 22.81 33.66C23.46 33.66 23.98 33.14 23.98 32.49C23.98 29.48 21.35 27.02 18.05 26.88C17.8 26.45 17.67 25.96 17.67 25.46C17.68 23.84 18.99 22.54 20.61 22.54C20.7 22.54 20.8 22.55 20.89 22.55C21.48 22.6 22.02 22.2 22.13 21.62C22.45 20.1 23.63 18.91 25.15 18.56C25.31 18.62 25.49 18.65 25.66 18.63C26.53 18.59 27.38 18.88 28.06 19.43C28.54 19.87 29.28 19.84 29.72 19.36C30.16 18.88 30.13 18.14 29.65 17.7C29.28 17.36 28.86 17.08 28.41 16.87C28.9 16.56 29.47 16.4 30.06 16.4C31.82 16.4 33.97 17.83 33.97 19.51L33.99 54.43C33.98 56.73 31.21 58.59 28.92 58.59ZM36.33 54.43L36.31 19.51C36.31 16.39 33.01 14.06 30.06 14.06C28.4 14.05 26.82 14.81 25.79 16.11C23.25 16.22 21.02 17.84 20.12 20.22C17.23 20.49 15.1 23.05 15.37 25.94C15.41 26.38 15.51 26.81 15.65 27.22C12.57 29.11 11.61 33.14 13.5 36.22C13.68 36.52 13.89 36.8 14.11 37.06C11.86 39.24 11.7 42.81 13.77 45.17C13.6 45.72 13.51 46.29 13.51 46.86C13.52 49.47 15.3 51.74 17.82 52.37C18.3 54.93 20.4 56.87 22.99 57.14C24.06 59.45 26.38 60.93 28.93 60.92C32.41 60.94 36.33 58.15 36.33 54.43Z" fill="#85AFCA"/>
<path d="M41.04 19.51C41.04 17.84 43.19 16.4 44.95 16.4C45.53 16.4 46.1 16.56 46.6 16.87C46.15 17.08 45.73 17.37 45.35 17.7C44.87 18.14 44.84 18.88 45.28 19.36C45.72 19.84 46.46 19.87 46.93 19.43C47.61 18.88 48.46 18.59 49.33 18.63C49.5 18.64 49.68 18.62 49.84 18.56C51.35 18.9 52.53 20.1 52.85 21.62C52.97 22.2 53.5 22.6 54.09 22.55C54.18 22.54 54.27 22.54 54.37 22.54C55.99 22.54 57.3 23.84 57.31 25.46C57.31 25.96 57.18 26.45 56.93 26.88C53.64 27.02 51 29.48 51 32.49C51 33.14 51.52 33.66 52.17 33.66C52.82 33.66 53.34 33.14 53.34 32.49C53.34 30.68 55.08 29.21 57.22 29.21C57.58 29.21 57.94 29.26 58.29 29.35C59.43 30.14 60.11 31.43 60.12 32.81C60.12 34.16 59.47 35.43 58.38 36.22C58.32 36.27 58.26 36.32 58.22 36.37C56.43 36.55 54.85 37.58 53.95 39.14C53.46 40 53.2 40.97 53.2 41.96C53.2 42.61 53.72 43.13 54.37 43.13C55.02 43.13 55.54 42.61 55.54 41.96C55.54 41.4 55.68 40.84 55.95 40.35L57.18 39.1C57.66 38.82 58.2 38.68 58.75 38.68C58.87 38.68 58.98 38.66 59.09 38.62C60.58 39.9 60.74 42.14 59.46 43.63C59.34 43.77 59.21 43.9 59.07 44.01C58.67 44.36 58.55 44.94 58.78 45.41C59.01 45.86 59.12 46.36 59.12 46.87C59.11 48.63 57.74 50.08 55.99 50.2C55.38 50.24 54.91 50.75 54.9 51.36C54.88 52.93 53.82 54.3 52.31 54.71C52.26 54.7 52.2 54.7 52.15 54.69C50.39 54.71 48.95 53.3 48.93 51.54C48.93 50.54 49.41 49.6 50.23 49.01C50.75 48.63 50.87 47.89 50.48 47.37C50.1 46.85 49.37 46.74 48.85 47.11C46.41 48.87 45.86 52.28 47.62 54.72C48.16 55.46 48.87 56.06 49.7 56.45C48.96 57.77 47.57 58.58 46.06 58.57C43.76 58.57 40.99 56.71 40.99 54.41L41.04 19.51ZM46.08 60.93C48.63 60.94 50.95 59.46 52.02 57.15C54.61 56.88 56.71 54.94 57.19 52.38C59.72 51.74 61.49 49.47 61.5 46.87C61.5 46.3 61.41 45.72 61.24 45.18C63.3 42.81 63.15 39.25 60.9 37.07C63.25 34.33 62.94 30.2 60.2 27.84C59.94 27.61 59.66 27.41 59.36 27.23C60.34 24.49 58.91 21.48 56.17 20.51C55.76 20.36 55.33 20.27 54.89 20.23C53.99 17.85 51.76 16.24 49.22 16.12C48.18 14.82 46.61 14.06 44.95 14.07C42 14.07 38.69 16.4 38.69 19.52L38.67 54.44C38.67 58.15 42.58 60.93 46.08 60.93Z" fill="#85AFCA"/>
<path d="M49.45 44.8C49.7 45.4 50.38 45.68 50.98 45.43C51.16 45.36 51.35 45.33 51.54 45.35L52.63 46.43C52.68 46.67 52.66 46.92 52.59 47.16C52.4 47.78 52.74 48.43 53.36 48.63C53.98 48.82 54.64 48.48 54.83 47.86C55.34 46.25 54.72 44.5 53.32 43.57C52.36 42.94 51.15 42.83 50.09 43.27C49.49 43.52 49.21 44.2 49.45 44.8Z" fill="#85AFCA"/>
<path d="M37.5 4.72C38.15 4.72 38.67 4.2 38.67 3.55V1.17C38.67 0.52 38.15 0 37.5 0C36.85 0 36.33 0.52 36.33 1.17V3.55C36.33 4.2 36.85 4.72 37.5 4.72Z" fill="#85AFCA"/>
<path d="M25.8901 5.58001C26.0901 6.20001 26.7501 6.53001 27.3701 6.33001C27.9801 6.13001 28.3201 5.47001 28.1201 4.85001L27.3801 2.59001C27.1801 1.97001 26.5201 1.64001 25.9001 1.84001C25.2901 2.04001 24.9501 2.70001 25.1501 3.32001L25.8901 5.58001Z" fill="#85AFCA"/>
<path d="M16.6 10.72C16.98 11.24 17.72 11.35 18.24 10.97C18.76 10.59 18.87 9.86001 18.5 9.34001L17.1 7.41001C16.72 6.89001 15.99 6.77001 15.46 7.15001C14.94 7.53001 14.82 8.26001 15.2 8.79001L16.6 10.72Z" fill="#85AFCA"/>
<path d="M7.42005 17.09L9.35005 18.49C9.87005 18.87 10.61 18.75 10.99 18.23C11.37 17.71 11.26 16.97 10.73 16.59L8.80005 15.2C8.28005 14.82 7.54005 14.93 7.16005 15.46C6.78005 15.98 6.90005 16.71 7.42005 17.09Z" fill="#85AFCA"/>
<path d="M5.57999 25.89L3.31999 25.15C2.69999 24.95 2.03999 25.29 1.83999 25.9C1.63999 26.51 1.97999 27.18 2.58999 27.38L4.84999 28.12C5.45999 28.32 6.12999 27.99 6.32999 27.37C6.52999 26.76 6.19999 26.1 5.57999 25.89C5.57999 25.89 5.57999 25.9 5.57999 25.89Z" fill="#85AFCA"/>
<path d="M4.73 37.5C4.73 36.85 4.2 36.33 3.56 36.33H1.17C0.52 36.33 0 36.85 0 37.5C0 38.15 0.52 38.67 1.17 38.67H3.55C4.2 38.67 4.73 38.15 4.73 37.5Z" fill="#85AFCA"/>
<path d="M4.85003 46.87L2.59003 47.61C1.97003 47.81 1.63003 48.46 1.83003 49.08C2.03003 49.7 2.68003 50.04 3.30003 49.84H3.31003L5.57003 49.1C6.18003 48.9 6.52003 48.24 6.32003 47.62C6.13003 47.01 5.47003 46.68 4.85003 46.87Z" fill="#85AFCA"/>
<path d="M9.35005 56.5L7.42005 57.9C6.90005 58.28 6.78005 59.01 7.16005 59.54C7.54005 60.06 8.27005 60.18 8.80005 59.8L10.73 58.4C11.25 58.02 11.37 57.29 10.99 56.76C10.61 56.24 9.87005 56.12 9.35005 56.5Z" fill="#85AFCA"/>
<path d="M18.24 64.01C17.72 63.63 16.98 63.75 16.6 64.27L15.2 66.2C14.82 66.72 14.94 67.46 15.46 67.84C15.98 68.22 16.71 68.1 17.1 67.58L18.5 65.65C18.87 65.13 18.76 64.39 18.24 64.01Z" fill="#85AFCA"/>
<path d="M27.3701 68.67C26.7501 68.47 26.0901 68.81 25.8901 69.42L25.1501 71.68C24.9501 72.3 25.2901 72.96 25.9001 73.16C26.5201 73.36 27.1801 73.02 27.3801 72.41L28.1201 70.15C28.3201 69.53 27.9901 68.87 27.3701 68.67Z" fill="#85AFCA"/>
<path d="M37.5 70.27C36.85 70.27 36.33 70.8 36.33 71.44V73.82C36.33 74.47 36.86 74.99 37.5 74.99C38.15 74.99 38.67 74.47 38.67 73.82V71.44C38.67 70.8 38.15 70.27 37.5 70.27Z" fill="#85AFCA"/>
<path d="M49.1 69.42C48.9 68.8 48.24 68.47 47.62 68.67C47.01 68.87 46.67 69.53 46.87 70.15L47.61 72.41C47.81 73.03 48.47 73.36 49.09 73.16C49.7 72.96 50.04 72.3 49.84 71.68L49.1 69.42Z" fill="#85AFCA"/>
<path d="M58.4 64.27C58.02 63.75 57.29 63.63 56.76 64.01C56.24 64.39 56.12 65.12 56.5 65.65L57.9 67.58C58.28 68.1 59.02 68.22 59.54 67.84C60.06 67.46 60.18 66.73 59.8 66.2L58.4 64.27Z" fill="#85AFCA"/>
<path d="M67.58 57.9L65.65 56.5C65.13 56.12 64.39 56.24 64.01 56.76C63.63 57.28 63.75 58.02 64.27 58.4L66.2 59.8C66.72 60.18 67.46 60.06 67.84 59.54C68.21 59.01 68.1 58.28 67.58 57.9Z" fill="#85AFCA"/>
<path d="M72.41 47.61L70.15 46.87C69.53 46.67 68.87 47.01 68.67 47.62C68.47 48.23 68.81 48.9 69.42 49.1L71.68 49.84C72.29 50.04 72.96 49.71 73.16 49.09C73.36 48.48 73.03 47.81 72.41 47.61C72.41 47.61 72.42 47.61 72.41 47.61Z" fill="#85AFCA"/>
<path d="M73.83 36.33H71.45C70.8 36.33 70.28 36.86 70.28 37.5C70.28 38.15 70.8 38.67 71.45 38.67H73.83C74.48 38.67 75 38.15 75 37.5C75 36.85 74.47 36.33 73.83 36.33Z" fill="#85AFCA"/>
<path d="M69.78 28.18C69.9 28.18 70.02 28.16 70.14 28.12L72.4 27.38C73.02 27.18 73.35 26.52 73.15 25.9C72.95 25.28 72.29 24.95 71.67 25.15L69.41 25.89C68.79 26.09 68.46 26.75 68.66 27.37C68.83 27.85 69.28 28.18 69.78 28.18Z" fill="#85AFCA"/>
<path d="M66.2 15.2L64.27 16.6C63.75 16.98 63.63 17.71 64.01 18.24C64.39 18.76 65.12 18.88 65.64 18.5L67.57 17.1C68.09 16.72 68.21 15.99 67.83 15.46C67.46 14.93 66.72 14.82 66.2 15.2Z" fill="#85AFCA"/>
<path d="M56.76 10.98C57.28 11.36 58.02 11.24 58.4 10.72L59.8 8.79001C60.18 8.27001 60.06 7.53001 59.54 7.15001C59.02 6.77001 58.28 6.89001 57.9 7.41001L56.5 9.34001C56.12 9.87001 56.24 10.6 56.76 10.98Z" fill="#85AFCA"/>
<path d="M47.63 6.33002C48.24 6.53002 48.91 6.19002 49.11 5.58002L49.85 3.31002C50.05 2.70002 49.71 2.03002 49.1 1.83002C48.48 1.63002 47.82 1.97002 47.62 2.58002L46.88 4.84002C46.67 5.47002 47.01 6.13002 47.63 6.33002Z" fill="#85AFCA"/>
<path d="M31.1 23.3C31.25 22.67 30.86 22.04 30.23 21.89C29.6 21.74 28.97 22.13 28.82 22.76C28.42 24.46 26.71 25.52 25.01 25.11C24.29 24.94 23.65 24.52 23.21 23.93C22.82 23.41 22.09 23.31 21.57 23.7C21.05 24.09 20.95 24.82 21.34 25.34C23.17 27.77 26.62 28.26 29.06 26.43C30.07 25.66 30.8 24.55 31.1 23.3Z" fill="#85AFCA"/>
<path d="M24.91 43.27C23.85 42.83 22.64 42.94 21.68 43.57C20.27 44.5 19.65 46.26 20.16 47.86C20.35 48.48 21.01 48.83 21.63 48.63C22.25 48.44 22.6 47.78 22.4 47.16C22.2 46.55 22.43 45.89 22.95 45.53C23.26 45.32 23.66 45.29 24.01 45.43C24.61 45.68 25.29 45.39 25.54 44.8C25.79 44.2 25.51 43.52 24.91 43.27Z" fill="#85AFCA"/>
<path d="M28.31 29.65C27.66 29.65 27.14 30.18 27.14 30.82C27.14 31.47 27.67 31.99 28.31 31.99C28.89 32.01 29.35 32.49 29.34 33.07C29.32 33.63 28.87 34.08 28.31 34.1C27.66 34.1 27.14 34.62 27.14 35.27C27.14 35.92 27.67 36.44 28.31 36.44C30.19 36.42 31.7 34.89 31.68 33.01C31.66 31.16 30.16 29.66 28.31 29.65Z" fill="#85AFCA"/>
<path d="M30.51 40.9C31.16 40.9 31.68 40.38 31.68 39.73C31.68 39.08 31.15 38.56 30.51 38.56C28.63 38.57 27.12 40.11 27.14 41.98C27.15 43.84 28.65 45.34 30.51 45.35C31.16 45.35 31.68 44.83 31.68 44.18C31.68 43.53 31.15 43 30.51 43C29.93 42.99 29.47 42.5 29.48 41.92C29.5 41.36 29.95 40.91 30.51 40.9Z" fill="#85AFCA"/>
<path d="M49.27 27.54C51 27.55 52.64 26.73 53.67 25.34C54.06 24.82 53.96 24.09 53.44 23.7C52.92 23.31 52.19 23.41 51.8 23.93C50.75 25.33 48.76 25.61 47.37 24.56C46.78 24.11 46.36 23.48 46.19 22.76C46.04 22.13 45.41 21.74 44.78 21.89C44.15 22.04 43.76 22.67 43.91 23.3C44.49 25.79 46.71 27.54 49.27 27.54Z" fill="#85AFCA"/>
<path d="M46.69 36.44C47.34 36.44 47.86 35.92 47.86 35.27C47.86 34.62 47.33 34.1 46.69 34.1C46.11 34.08 45.65 33.6 45.66 33.02C45.68 32.46 46.13 32.01 46.69 31.99C47.34 31.99 47.86 31.47 47.86 30.82C47.86 30.17 47.33 29.65 46.69 29.65C44.81 29.67 43.3 31.2 43.32 33.08C43.34 34.93 44.84 36.43 46.69 36.44Z" fill="#85AFCA"/>
<path d="M44.4899 43C43.8399 43 43.3199 43.53 43.3199 44.17C43.3199 44.82 43.8499 45.34 44.4899 45.34C46.3699 45.33 47.8799 43.79 47.8599 41.92C47.8499 40.06 46.3499 38.56 44.4899 38.55C43.8399 38.55 43.3199 39.07 43.3199 39.72C43.3199 40.37 43.8499 40.89 44.4899 40.89C45.0699 40.9 45.5299 41.39 45.5199 41.97C45.4999 42.54 45.0499 42.99 44.4899 43Z" fill="#85AFCA"/>
</svg>
