<svg width="70" height="70" viewBox="0 0 70 70" fill="none" xmlns="http://www.w3.org/2000/svg">
<g clip-path="url(#clip0)">
<path d="M34.69 0.497803C33.93 0.497803 33.32 1.1078 33.32 1.8678V33.3278H1.87C1.11 33.3278 0.5 33.9378 0.5 34.6978C0.5 35.4578 1.11 36.0678 1.87 36.0678H33.33V67.5278C33.33 68.2878 33.94 68.8978 34.7 68.8978C35.46 68.8978 36.07 68.2878 36.07 67.5278V36.0678H67.53C68.29 36.0678 68.9 35.4578 68.9 34.6978C68.9 33.9378 68.29 33.3278 67.53 33.3278H36.06V1.8678C36.06 1.1078 35.45 0.497803 34.69 0.497803Z" fill="#85AFCA" stroke="#85AFCA" stroke-miterlimit="10"/>
</g>
<defs>
<clipPath id="clip0">
<rect width="69.39" height="69.39" fill="white"/>
</clipPath>
</defs>
</svg>
