<svg width="60" height="72" viewBox="0 0 60 72" fill="none" xmlns="http://www.w3.org/2000/svg">
<g clip-path="url(#clip0)">
<path d="M29.2 71.1C29.4 71.2 29.6 71.2 29.9 71.2C30.1 71.2 30.4 71.2 30.6 71.1C50.5 62.3 59.3 43.7 59.7 42.9C59.8 42.7 59.9 42.4 59.9 42.2V10C59.9 9.30002 59.4 8.60002 58.7 8.40002L30.4 0.100024C30.1 2.44156e-05 29.8 2.44156e-05 29.5 0.100024L1.2 8.40002C0.5 8.60002 0 9.30002 0 10V42.2C0 42.4 0.1 42.7 0.2 42.9C0.5 43.7 9.3 62.3 29.2 71.1ZM3.3 11.3L29.9 3.40002L56.5 11.3V41.9C55.3 44.3 46.9 60 29.9 67.8C13 60 4.5 44.3 3.3 41.9V11.3Z" fill="currentColor"/>
<path d="M30.3001 50.6001C39.7001 50.6001 47.4001 42.9001 47.4001 33.5001C47.4001 29.9001 46.3001 26.4001 44.2001 23.5001C44.2001 23.4001 44.1001 23.4001 44.1001 23.4001L47.0001 20.4001C47.6001 19.7001 47.6001 18.7001 46.9001 18.1001C46.2001 17.5001 45.2001 17.5001 44.6001 18.2001L30.3001 33.0001L26.5001 28.9001C25.9001 28.2001 24.8001 28.2001 24.2001 28.8001C23.5001 29.4001 23.5001 30.5001 24.1001 31.1001L29.0001 36.5001C29.3001 36.8001 29.7001 37.0001 30.2001 37.0001C30.7001 37.0001 31.1001 36.8001 31.4001 36.5001L41.7001 25.7001C43.2001 28.0001 44.1001 30.6001 44.1001 33.4001C44.1001 41.0001 37.9001 47.2001 30.3001 47.2001C22.7001 47.2001 16.5001 41.0001 16.5001 33.4001C16.5001 25.8001 22.7001 19.6001 30.3001 19.6001C31.3001 19.6001 33.5001 19.8001 34.8001 20.1001C35.7001 20.3001 36.6001 19.8001 36.8001 18.9001C37.0001 18.0001 36.5001 17.1001 35.6001 16.9001C33.9001 16.4001 31.5001 16.2001 30.3001 16.2001C20.9001 16.2001 13.2001 23.9001 13.2001 33.3001C13.1001 43.0001 20.8001 50.6001 30.3001 50.6001Z" fill="currentColor"/>
</g>
<defs>
<clipPath id="clip0">
<rect width="59.8" height="71.3" fill="white"/>
</clipPath>
</defs>
</svg>
