<svg width="79" height="75" viewBox="0 0 79 75" fill="none" xmlns="http://www.w3.org/2000/svg">
<path d="M29.42 32.53V18.82C30.22 18.69 30.83 18 30.83 17.17C30.83 16.25 30.08 15.5 29.15 15.5H25.91V14.74C28.51 13.41 30.17 10.74 30.17 7.79999C30.17 3.49999 26.67 0 22.37 0C18.07 0 14.57 3.49999 14.57 7.79999C14.57 10.74 16.23 13.42 18.83 14.74V15.5H15.59C14.67 15.5 13.92 16.25 13.92 17.17C13.92 18 14.53 18.7 15.33 18.82V32.53C6.28002 35.53 0 44.19 0 53.77C0 62.29 4.73999 69.96 12.36 73.78C13.45 74.32 14.67 74.61 15.91 74.61H28.85C30.08 74.61 31.31 74.32 32.39 73.78C40.01 69.96 44.75 62.29 44.75 53.77C44.75 44.19 38.48 35.53 29.42 32.53ZM15.98 7.78998C15.98 4.25998 18.85 1.39001 22.38 1.39001C25.91 1.39001 28.78 4.25998 28.78 7.78998C28.78 10.33 27.27 12.63 24.94 13.65C24.69 13.76 24.52 14.01 24.52 14.29V15.5H20.23V14.29C20.23 14.01 20.07 13.76 19.81 13.65C17.49 12.63 15.98 10.33 15.98 7.78998ZM24.52 16.9V23.42C24.52 23.61 24.37 23.76 24.19 23.76H20.57C20.39 23.76 20.24 23.61 20.24 23.42V16.9H24.52ZM43.36 53.77C43.36 61.76 38.92 68.95 31.77 72.53C30.88 72.98 29.87 73.21 28.85 73.21H15.91C14.89 73.21 13.88 72.97 12.99 72.53C5.83999 68.95 1.40002 61.76 1.40002 53.77C1.40002 50.78 2.06 47.89 3.25 45.26C3.49 45.49 4.47002 46.38 6.15002 47.3C5.36002 49.34 4.83002 51.78 4.83002 54.66C4.83002 55.05 5.14003 55.36 5.53003 55.36C5.92003 55.36 6.22998 55.05 6.22998 54.66C6.22998 52.03 6.69997 49.8 7.40997 47.93C10.87 49.49 16.4 50.69 23.8 48.22C34.43 44.67 41.73 48.73 42.89 49.44C43.18 50.85 43.36 52.3 43.36 53.77ZM23.35 46.89C16.35 49.23 11.16 48.08 7.96002 46.64C10.28 41.79 14.13 39.77 14.37 39.66C14.71 39.49 14.85 39.07 14.68 38.72C14.51 38.38 14.09 38.24 13.74 38.41C13.49 38.54 9.25002 40.74 6.71002 46.02C5.14002 45.14 4.28 44.32 4.19 44.22C4.09 44.12 3.97003 44.07 3.84003 44.04C6.40003 39.19 10.81 35.37 16.25 33.71C16.54 33.62 16.74 33.35 16.74 33.04V18.15C16.74 17.76 16.43 17.45 16.04 17.45H15.61C15.45 17.45 15.33 17.33 15.33 17.17C15.33 17.02 15.45 16.89 15.61 16.89H18.85V23.41C18.85 24.36 19.63 25.14 20.58 25.14H24.2C25.15 25.14 25.93 24.36 25.93 23.41V16.89H29.17C29.32 16.89 29.45 17.01 29.45 17.17C29.45 17.32 29.32 17.45 29.17 17.45H28.74C28.35 17.45 28.04 17.76 28.04 18.15V33.04C28.04 33.35 28.24 33.62 28.53 33.71C35.22 35.75 40.36 41.08 42.4 47.57C39.54 46.17 32.71 43.77 23.35 46.89Z" fill="white"/>
<path d="M5.04004 57C4.91004 57.12 4.84009 57.31 4.84009 57.49C4.84009 57.67 4.91004 57.85 5.04004 57.97C5.17004 58.11 5.35009 58.18 5.53009 58.18C5.72009 58.18 5.89008 58.11 6.02008 57.98C6.15008 57.85 6.23004 57.66 6.23004 57.49C6.23004 57.3 6.16008 57.13 6.02008 56.99C5.75008 56.74 5.30004 56.73 5.04004 57Z" fill="white"/>
<path d="M32.23 69.29C31.84 69.16 28.27 68.05 22.49 68.05C16.36 68.05 12.57 69.28 12.53 69.29C12.16 69.41 11.97 69.8 12.09 70.17C12.21 70.54 12.61 70.74 12.97 70.61C13.01 70.6 16.7 69.44 22.49 69.44C28.05 69.44 31.43 70.49 31.8 70.61C31.87 70.63 31.94 70.64 32.02 70.64C32.31 70.64 32.59 70.45 32.68 70.16C32.79 69.8 32.59 69.41 32.23 69.29Z" fill="white"/>
<path d="M78.14 49C78.01 48.8 77.7899 48.68 77.5499 48.68H49.33C49.09 48.68 48.8699 48.8 48.7399 49C48.6099 49.2 48.59 49.45 48.69 49.67C48.72 49.73 51.4099 55.67 52.2899 62.32C53.1899 69.13 53.2 73.35 53.2 73.39C53.2 74.06 53.7399 74.6 54.4099 74.6H72.45C73.12 74.6 73.6599 74.06 73.6599 73.39C73.6599 73.35 73.67 69.13 74.58 62.32C75.46 55.68 78.1499 49.73 78.1799 49.67C78.2899 49.45 78.27 49.2 78.14 49ZM73.21 62.14C72.4 68.27 72.3 72.33 72.28 73.22H54.5999C54.5899 72.57 54.5299 70.21 54.1799 66.58H70.7999C71.1899 66.58 71.5 66.27 71.5 65.88C71.5 65.49 71.1899 65.18 70.7999 65.18H54.0399C53.9399 64.23 53.8199 63.22 53.6699 62.14C52.9699 56.84 51.2 52.08 50.38 50.08H76.4899C75.6799 52.08 73.91 56.83 73.21 62.14Z" fill="white"/>
<path d="M53.52 52.67C53.53 52.7 55.01 55.95 55.63 59.75C55.67 59.99 55.6999 60.22 55.7399 60.46C55.7899 60.81 56.0899 61.06 56.4299 61.06C56.4599 61.06 56.49 61.06 56.52 61.05C56.9 61 57.1699 60.65 57.1199 60.26C57.0899 60.01 57.05 59.77 57.01 59.52C56.36 55.54 54.8599 52.22 54.7899 52.09C54.6299 51.74 54.2199 51.58 53.8699 51.75C53.5199 51.9 53.36 52.32 53.52 52.67Z" fill="white"/>
<path d="M56.1299 61.62C55.9999 61.75 55.9299 61.93 55.9299 62.11C55.9299 62.29 55.9999 62.47 56.1299 62.6C56.2599 62.73 56.4499 62.8 56.6199 62.8C56.8099 62.8 56.9799 62.73 57.1099 62.6C57.2399 62.47 57.3099 62.28 57.3099 62.11C57.3099 61.92 57.2399 61.75 57.1099 61.62C56.8499 61.36 56.3999 61.35 56.1299 61.62Z" fill="white"/>
</svg>
