<svg width="84" height="76" viewBox="0 0 84 76" fill="none" xmlns="http://www.w3.org/2000/svg">
<path d="M27.1427 32.52C26.4427 33.01 25.9227 33.6 25.6427 34.15C25.4227 34.59 25.3627 34.97 25.5227 35.19C25.6827 35.41 26.0526 35.49 26.5426 35.43C27.1426 35.36 27.8526 35.08 28.5326 34.62L28.5627 34.59L28.6126 34.56C29.2926 34.08 29.8027 33.5 30.0727 32.96C30.2927 32.52 30.3527 32.14 30.1927 31.92C30.0327 31.7 29.6626 31.62 29.1726 31.68C28.5726 31.75 27.8427 32.03 27.1427 32.52ZM16.6026 17.15C16.6926 17.39 16.7827 17.62 16.8727 17.85L17.5727 17.58C17.4827 17.35 17.3927 17.11 17.3027 16.88L16.6026 17.15ZM9.64268 0.240002L9.66264 0.299999L9.67265 0.34L9.68266 0.380001L9.69267 0.419998L9.70267 0.459999L9.71268 0.5L9.72263 0.540001L9.73264 0.580002L9.74265 0.619999L9.75266 0.66L9.76267 0.700001L9.77268 0.740002L9.78263 0.779999L9.79264 0.82L9.80265 0.869999L10.5426 0.740002L10.5326 0.669998L10.5227 0.619999L10.5127 0.57L10.5027 0.52L10.4927 0.470001L10.4826 0.419998L10.4726 0.369999L10.4627 0.32L10.4527 0.27L10.4427 0.220001L10.4226 0.169998L10.4027 0.119999L10.3827 0.0699997L10.3626 0.0200005V0L9.64268 0.240002ZM9.70267 2.98C9.69267 3.01 9.68265 3.05 9.67265 3.08C9.61265 3.27 9.54268 3.46 9.46268 3.65L10.1527 3.95C10.2227 3.79 10.2827 3.64 10.3327 3.48C10.3427 3.44 10.3627 3.4 10.3727 3.36L10.4027 3.28L10.4226 3.21L9.70267 2.98ZM8.40269 5.58C8.27269 5.8 8.14266 6.01 8.00266 6.23L8.65269 6.62C8.78269 6.41 8.91264 6.19 9.04264 5.98L8.40269 5.58ZM6.95267 8.31C6.92267 8.38 6.90267 8.45 6.88267 8.52C6.87267 8.56 6.85269 8.6 6.84269 8.65L6.83268 8.69L6.82267 8.73L6.81266 8.77L6.80265 8.81L6.79264 8.85L6.78263 8.89L6.77268 8.93L6.74265 9L6.72263 9.08L7.45267 9.25C7.50267 9.02 7.57269 8.79 7.65269 8.57L6.95267 8.31ZM7.24265 11.52C7.43265 11.73 7.63264 11.91 7.85264 12.07L8.30265 11.47C8.12265 11.33 7.95264 11.18 7.79264 11.01L7.24265 11.52ZM10.1427 12.99C10.3927 12.99 10.6626 12.96 10.9126 12.96L10.8927 12.21C10.6527 12.22 10.3927 12.25 10.1527 12.24L10.1427 12.99ZM13.0727 13.11C13.2927 13.16 13.5227 13.22 13.7427 13.3L14.0127 12.6C13.9727 12.59 13.9327 12.57 13.9027 12.56C13.7427 12.5 13.5826 12.46 13.4126 12.42C13.3526 12.41 13.2926 12.39 13.2326 12.38L13.0727 13.11ZM15.3427 14.53C15.4827 14.72 15.6026 14.92 15.7226 15.13L16.3827 14.77C16.2527 14.53 16.1127 14.31 15.9527 14.09L15.3427 14.53ZM66.4627 16.88C66.3727 17.12 66.2827 17.35 66.1927 17.58L66.8927 17.85C66.9827 17.62 67.0726 17.38 67.1626 17.15L66.4627 16.88ZM73.4027 0L73.3827 0.0600014L73.3626 0.110001L73.3427 0.16L73.3227 0.209999L73.3027 0.259998L73.3127 0.32L73.3027 0.369999L73.2926 0.419998L73.2826 0.470001L73.2727 0.52L73.2627 0.57L73.2527 0.619999L73.2427 0.669998L73.2326 0.720001L73.2226 0.790001L73.9627 0.919998L73.9726 0.869999L73.9826 0.830002L73.9927 0.790001L74.0027 0.75L74.0127 0.709999L74.0227 0.669998L74.0326 0.630001L74.0426 0.59L74.0527 0.549999L74.0627 0.509998L74.0727 0.470001L74.0827 0.43L74.0927 0.389999L74.1026 0.349998L74.1227 0.290001L73.4027 0ZM73.3427 3.2L73.3626 3.27L73.3727 3.31L73.4027 3.39C73.4627 3.58 73.5326 3.76 73.6126 3.95L74.3027 3.65C74.2127 3.43 74.1327 3.21 74.0627 2.98L73.3427 3.2ZM74.7226 5.98C74.8526 6.19 74.9826 6.41 75.1126 6.62L75.7627 6.23C75.6327 6.01 75.5026 5.8 75.3626 5.58L74.7226 5.98ZM76.1026 8.57C76.1826 8.79 76.2527 9.02 76.3027 9.25L77.0326 9.08L77.0227 9L77.0127 8.96L77.0027 8.92L76.9927 8.88L76.9826 8.84L76.9726 8.8L76.9627 8.76L76.9327 8.67C76.9227 8.63 76.9027 8.59 76.8927 8.54C76.8727 8.47 76.8427 8.4 76.8227 8.33L76.1026 8.57ZM75.9627 11.01C75.8127 11.18 75.6427 11.33 75.4527 11.47L75.9027 12.07C76.1227 11.9 76.3327 11.72 76.5127 11.52L75.9627 11.01ZM73.6227 12.24C73.3827 12.24 73.1227 12.21 72.8827 12.21L72.8626 12.96C73.1126 12.97 73.3827 13 73.6327 12.99L73.6227 12.24ZM70.5326 12.38C70.3926 12.41 70.2627 12.44 70.1227 12.48C70.0827 12.49 70.0427 12.5 70.0127 12.51C69.9627 12.53 69.9126 12.54 69.8626 12.56C69.8226 12.57 69.7827 12.59 69.7527 12.6L70.0227 13.3C70.2327 13.22 70.4727 13.15 70.6927 13.11L70.5326 12.38ZM67.8127 14.09C67.6527 14.31 67.5127 14.53 67.3827 14.77L68.0426 15.13C68.1526 14.92 68.2826 14.72 68.4226 14.53L67.8127 14.09ZM57.7926 28.56C57.5826 28.74 57.3927 28.93 57.2127 29.14L57.7926 29.63C57.9426 29.45 58.1026 29.29 58.2826 29.15L57.7926 28.56ZM48.5127 16.86C48.6027 17.1 48.7027 17.34 48.8027 17.58L49.4927 17.27C49.3927 17.05 49.3027 16.82 49.2127 16.59L48.5127 16.86ZM49.1527 18.28C49.1727 18.32 49.2026 18.37 49.2226 18.41C49.2426 18.45 49.2726 18.5 49.2926 18.54C49.3226 18.58 49.3427 18.62 49.3727 18.67C49.4227 18.75 49.4727 18.83 49.5227 18.91L49.5527 18.96L50.1726 18.54C50.0426 18.34 49.9127 18.14 49.8027 17.92L49.1527 18.28ZM50.0426 19.59C50.0626 19.62 50.0926 19.65 50.1126 19.67L50.1427 19.7L50.1726 19.73L50.2027 19.76L50.2326 19.79L50.2627 19.82L50.2926 19.85L50.3227 19.88L50.3526 19.91L50.3827 19.94L50.4126 19.97L50.4427 20L50.4726 20.03L50.5326 20.08L50.5627 20.11L50.5927 20.14L50.6427 20.18L51.1227 19.59C51.0627 19.54 50.9927 19.48 50.9327 19.43C50.8227 19.33 50.7227 19.22 50.6227 19.11L50.0426 19.59ZM51.3227 20.62L51.3727 20.65L51.4027 20.67L51.4327 20.69L51.4627 20.71L51.4927 20.73L51.5227 20.74L51.5527 20.75L51.5827 20.76L51.6126 20.77L51.6427 20.78L51.6726 20.79L51.7027 20.8L51.7326 20.81L51.7627 20.82L51.7926 20.83L51.8227 20.84L51.8526 20.85L51.8827 20.86L51.9126 20.87L51.9427 20.88L51.9726 20.89L52.0027 20.9L52.0326 20.91L52.0627 20.92L52.2427 20.19C52.0227 20.14 51.8227 20.06 51.6227 19.96L51.3227 20.62ZM52.9427 21.01C52.9727 21.01 53.0027 21.01 53.0227 21.01C53.2727 21 53.5127 20.97 53.7627 20.92L53.6026 20.18C53.3826 20.23 53.1627 20.25 52.9327 20.25L52.9427 21.01ZM54.5527 20.69C54.8027 20.59 55.0427 20.48 55.2727 20.35L54.9027 19.69C54.6927 19.8 54.4827 19.91 54.2627 19.99L54.5527 20.69ZM55.9327 19.93C56.1427 19.8 56.3427 19.67 56.5627 19.55L56.1827 18.9C55.9627 19.03 55.7427 19.16 55.5227 19.3L55.9327 19.93ZM57.2127 19.2C57.4327 19.09 57.6527 18.99 57.8727 18.9L57.5927 18.2C57.3527 18.3 57.1127 18.41 56.8827 18.52L57.2127 19.2ZM58.5426 18.66C58.7726 18.59 59.0026 18.54 59.2326 18.5L59.1026 17.76C58.8426 17.81 58.5827 17.87 58.3227 17.95L58.5426 18.66ZM59.9327 18.42C60.1627 18.42 60.3927 18.43 60.6227 18.46L60.7326 17.71C60.4626 17.67 60.1926 17.66 59.9126 17.66L59.9327 18.42ZM61.2826 18.62C61.5026 18.69 61.7126 18.79 61.9126 18.9L62.2727 18.24C62.1827 18.19 62.0826 18.14 61.9826 18.1C61.8326 18.03 61.6727 17.97 61.5127 17.91L61.2826 18.62ZM62.4927 19.28C62.6827 19.42 62.8527 19.58 63.0227 19.75L63.5527 19.22C63.4827 19.15 63.4226 19.09 63.3526 19.03C63.2226 18.91 63.0927 18.8 62.9527 18.7L62.4927 19.28ZM63.4927 20.27L63.5326 20.32L63.5627 20.36L63.5927 20.4L63.6227 20.44L63.6527 20.48L63.6827 20.52L63.7127 20.56L63.7427 20.6L63.7727 20.64L63.8027 20.68L63.8227 20.72L63.8427 20.76L63.8626 20.8L63.8827 20.84L63.9027 20.87L64.5527 20.49L64.5326 20.45L64.5027 20.4L64.4726 20.36L64.4427 20.32L64.4126 20.28L64.3827 20.24L64.3526 20.2L64.3227 20.16L64.2926 20.12L64.2627 20.08L64.2326 20.04L64.2027 20L64.1726 19.96L64.1427 19.92L64.1026 19.87L63.4927 20.27ZM64.2027 21.48L64.2226 21.53L64.2427 21.57L64.2627 21.61L64.2826 21.65L64.2926 21.69L64.3027 21.73L64.3127 21.77L64.3227 21.81L64.3327 21.85L64.3427 21.89L64.3526 21.93L64.3626 21.97L64.3727 22.01L64.3827 22.05L64.3927 22.09L64.4126 22.15L65.1527 21.98L65.1427 21.95L65.1327 21.9L65.1227 21.85L65.1126 21.8L65.1026 21.75L65.0927 21.7L65.0827 21.65L65.0727 21.6L65.0527 21.55L65.0326 21.5L65.0127 21.45L64.9927 21.4L64.9726 21.35L64.9527 21.3L64.9327 21.25L64.9126 21.2L64.8927 21.15L64.1927 21.43L64.2027 21.48ZM64.5127 22.82V22.85V22.89V22.93V22.97V23V23.04V23.08V23.12V23.16V23.2V23.24V23.28V23.32V23.36V23.4V23.44V23.48L64.5027 23.54L65.2527 23.64V23.61L65.2627 23.57V23.53V23.49V23.45V23.41V23.36V23.31V23.26V23.21V23.16V23.11V23.06V23V22.95V22.9V22.85V22.8V22.77L64.5127 22.82ZM64.3327 24.16L64.3127 24.2L64.3027 24.23L64.2926 24.26L64.2826 24.29L64.2727 24.32L64.2627 24.35L64.2527 24.38L64.2427 24.41L64.2226 24.44L64.2027 24.47L64.1827 24.5L64.1626 24.53L64.1427 24.56L64.1227 24.59L64.1026 24.62L64.0827 24.65L64.0627 24.68L64.0426 24.71L64.0227 24.74L64.6527 25.15L64.6827 25.1L64.7027 25.06L64.7226 25.02L64.7427 24.98L64.7627 24.94L64.7826 24.9L64.8027 24.86L64.8227 24.82L64.8427 24.78L64.8626 24.74L64.8827 24.7L64.9027 24.66L64.9226 24.62L64.9427 24.58L64.9627 24.54L64.9826 24.5L65.0027 24.46L65.0227 24.42L65.0426 24.37L64.3327 24.16ZM63.6126 25.27L63.5827 25.3L63.5527 25.32L63.5227 25.34L63.4927 25.36L63.4627 25.38L63.4327 25.4L63.4027 25.42L63.3727 25.44L63.3427 25.46L63.3127 25.48L63.2826 25.5L63.2527 25.52L63.2226 25.54L63.1927 25.56L63.1626 25.58L63.1327 25.6L63.1026 25.62L63.0727 25.64L63.0426 25.66L63.4027 26.32L63.4527 26.29L63.4927 26.27L63.5326 26.25L63.5727 26.23L63.6126 26.21L63.6527 26.19L63.6927 26.16L63.7326 26.13L63.7727 26.1L63.8127 26.07L63.8427 26.04L63.8727 26.01L63.9027 25.98L63.9327 25.95L63.9627 25.92L63.9927 25.89L64.0227 25.86L64.0527 25.83L64.0927 25.8L63.6126 25.27ZM62.3526 25.96L62.3227 25.97L62.2826 25.98L62.2427 25.99L62.2027 26H62.1726L62.1327 26.01L62.0927 26.02L62.0527 26.03L62.0127 26.04L61.9726 26.05L61.9327 26.06L61.8927 26.07H61.8526H61.8127L61.8827 26.82H61.9327L61.9826 26.81L62.0326 26.8L62.0827 26.79L62.1327 26.78L62.1827 26.77L62.2326 26.76L62.2826 26.75L62.3327 26.74L62.3827 26.73L62.4327 26.72L62.4826 26.71L62.5326 26.7L62.5827 26.69L62.6327 26.68L62.6827 26.67L62.7127 26.66L62.6726 26.53L62.9226 26.65C63.0426 26.4 63.1427 26.12 63.1927 25.84L62.4527 25.7C62.4027 25.78 62.3726 25.87 62.3526 25.96ZM61.1126 26.07H61.0727H61.0227H60.9726H60.9226H60.8727L60.8227 26.06L60.7727 26.05L60.7226 26.04L60.6726 26.03L60.6227 26.02L60.5627 26H60.5127L60.4627 25.99L60.4126 25.98L60.2627 26.72L60.3227 26.73L60.3827 26.74L60.4427 26.75L60.5027 26.76L60.5627 26.77L60.6227 26.78L60.6827 26.79L60.7427 26.8L60.8027 26.81L60.8626 26.82L60.9226 26.83H60.9826H61.0426H61.0827L61.1126 26.07ZM59.7226 25.8L59.6427 25.77L59.5827 25.75L59.5227 25.73L59.4627 25.71L59.4027 25.69L59.3427 25.67L59.2826 25.65L59.2226 25.63L59.1626 25.61L59.1227 25.59L59.0827 25.57L59.0426 25.55L58.7427 26.24L58.8027 26.26L58.8526 26.28L58.9027 26.3L58.9627 26.33L59.0227 26.35L59.0827 26.37L59.1427 26.39L59.2027 26.41L59.2627 26.43L59.3227 26.45L59.3827 26.47L59.4726 26.5L59.7226 25.8ZM58.4427 25.24L58.4226 25.22L58.3927 25.2L58.3626 25.18L58.3327 25.16L58.3127 25.14L58.2826 25.12L58.2527 25.1L58.2226 25.08L58.1927 25.06L58.1626 25.04L58.1327 25.02L58.1026 25L58.0827 24.98L58.0627 24.96L58.0426 24.94L58.0227 24.92L58.0027 24.9L57.9826 24.88L57.9627 24.86L57.9327 24.83L57.3827 25.35L57.4027 25.37L57.4327 25.4L57.4627 25.43L57.4927 25.46L57.5227 25.49L57.5527 25.52L57.5827 25.55L57.6126 25.58L57.6427 25.61L57.6726 25.64L57.7027 25.67L57.7326 25.7L57.7627 25.73L57.7926 25.76L57.8227 25.79L57.8526 25.82L57.8827 25.85L57.9126 25.88L57.9427 25.9L57.9826 25.92L58.0027 25.94L58.4427 25.24ZM57.5527 24.28L57.5326 24.25L57.5227 24.23L57.5127 24.21L57.5027 24.19L57.4927 24.17L57.4826 24.15L57.4726 24.13L57.4627 24.11L57.4527 24.09L57.4427 24.07L57.4327 24.05L57.4226 24.03L57.4126 24.01L57.4027 23.99L57.3927 23.97L57.3827 23.95L57.3727 23.93L57.3626 23.91L57.3526 23.89L57.3427 23.87C57.3327 23.85 57.3327 23.82 57.3227 23.8L57.3127 23.75L56.5727 23.89L56.5827 23.92L56.5927 23.95L56.6026 23.98L56.6126 24.01L56.6227 24.04L56.6327 24.07L56.6427 24.1L56.6527 24.13L56.6626 24.16L56.6726 24.19L56.6827 24.22L56.6927 24.25L56.7027 24.28L56.7127 24.31L56.7226 24.34L56.7326 24.37L56.7427 24.4L56.7527 24.43L56.7727 24.46L56.7926 24.49L56.8127 24.52L56.8327 24.55L56.8526 24.58L56.8727 24.61L56.8927 24.64L57.5527 24.28ZM57.3327 23.07V23.05V23.03L57.3427 22.99L57.3526 22.97L57.3626 22.95L57.3727 22.91L57.3827 22.89L57.3927 22.87L57.4027 22.85L57.4126 22.83L57.4226 22.81L57.4327 22.79L57.4427 22.77L57.4527 22.75L57.4627 22.73L57.4726 22.71L57.4826 22.69L57.4927 22.67L57.5027 22.65L57.5127 22.63L57.5227 22.61L57.5326 22.59L57.5426 22.57L57.5527 22.55L57.5627 22.53L57.5827 22.5L56.9826 22.05L56.9627 22.07L56.9427 22.1L56.9226 22.13L56.9027 22.16L56.8827 22.19L56.8626 22.22L56.8427 22.25L56.8227 22.28L56.8027 22.31L56.7826 22.34L56.7627 22.37L56.7527 22.4L56.7427 22.43L56.7326 22.46L56.7226 22.49L56.7127 22.52L56.7027 22.55L56.6927 22.58L56.6827 22.61L56.6726 22.64L56.6626 22.67L56.6527 22.7L56.6427 22.73L56.6327 22.76L56.6227 22.79L56.6126 22.82L56.6026 22.85L56.5927 22.88V22.9L57.3327 23.07ZM57.9927 22.17L58.0227 22.16L58.0426 22.15L58.0627 22.14L58.0827 22.13L58.1026 22.12L58.1227 22.11L58.1427 22.1L58.1626 22.09L58.1827 22.08L58.2027 22.07L58.2226 22.06L58.2427 22.05L58.2627 22.04L58.2826 22.03L58.3027 22.02L58.3327 22.01L58.3626 22H58.3927H58.4226H58.4527H58.4826H58.5127H58.5426H58.5727L58.5027 21.25L58.4527 21.26H58.4126L58.3727 21.27L58.3327 21.28H58.3127L58.2727 21.29L58.2326 21.3L58.1927 21.31L58.1527 21.32L58.1126 21.33L58.0827 21.34L58.0527 21.35L58.0227 21.36L57.9927 21.37L57.9627 21.38L57.9327 21.39L57.9027 21.4L57.8727 21.41L57.8427 21.42L57.8127 21.43L57.7826 21.44L57.7527 21.46L57.7226 21.48L57.6827 21.5L57.9927 22.17ZM59.2427 22.02L59.2926 22.03L59.3327 22.04L59.3727 22.05L59.4126 22.06L59.4527 22.07L59.4927 22.08L59.5326 22.09L59.5727 22.1L59.6126 22.11L59.6527 22.12L59.6927 22.13L59.7326 22.14L59.7727 22.15L59.8127 22.16L59.8526 22.17L59.8927 22.18L59.9226 22.19L60.1626 21.48L60.1327 21.47L60.0827 21.45L60.0326 21.43L59.9826 21.41L59.9327 21.4L59.8827 21.39L59.8327 21.38L59.7826 21.37L59.7326 21.36L59.6827 21.35L59.6327 21.34L59.5827 21.33L59.5326 21.32L59.4826 21.31L59.4327 21.3L59.3827 21.29L59.3227 21.28L59.2427 22.02ZM60.5627 22.45L60.5927 22.47L60.6427 22.49L60.6927 22.51L60.7427 22.53L60.7926 22.56L60.8427 22.59C60.9527 22.65 61.0626 22.72 61.1726 22.79L61.6026 22.17C61.4926 22.09 61.3727 22.02 61.2527 21.96L61.2027 21.93L61.1527 21.9L61.1026 21.87L61.0527 21.84L61.0027 21.81L60.9527 21.78L60.9226 21.76L60.5627 22.45ZM61.6827 23.23C61.8327 23.39 61.9727 23.57 62.0827 23.76L62.7427 23.39C62.6027 23.15 62.4327 22.92 62.2427 22.72L61.6827 23.23ZM62.3427 24.37C62.4027 24.58 62.4427 24.8 62.4627 25.02L63.2127 24.98C63.1927 24.7 63.1527 24.42 63.0727 24.15L62.3427 24.37ZM61.8526 26.83C61.7026 26.99 61.5426 27.11 61.3526 27.22L61.7226 27.88C61.9726 27.74 62.2127 27.56 62.4027 27.35L61.8526 26.83ZM60.7326 27.49C60.5026 27.56 60.2726 27.61 60.0326 27.66L60.1827 28.4C60.4427 28.35 60.6927 28.29 60.9527 28.21L60.7326 27.49ZM59.2826 27.82C59.0126 27.89 58.7527 27.98 58.5027 28.1L58.8327 28.78C59.0427 28.68 59.2526 28.61 59.4726 28.55L59.2826 27.82ZM58.9927 31.02C58.7427 31.13 58.5126 31.26 58.2826 31.42L58.7027 32.05C58.9027 31.92 59.1027 31.81 59.3127 31.71L58.9927 31.02ZM81.1427 4.34C81.1527 4.6 81.1826 4.87 81.2226 5.13L81.9726 5.01C81.9326 4.78 81.9127 4.53 81.9027 4.3L81.1427 4.34ZM81.3727 5.9C81.4327 6.15 81.5027 6.4 81.5727 6.65L82.2926 6.44C82.2226 6.2 82.1626 5.97 82.1026 5.73L81.3727 5.9ZM81.7826 7.38C81.8526 7.62 81.9327 7.86 82.0027 8.1L82.7226 7.89C82.6526 7.65 82.5727 7.41 82.5027 7.16L81.7826 7.38ZM82.2027 8.81C82.2627 9.05 82.3126 9.28 82.3626 9.52L83.1026 9.38C83.0526 9.12 83.0027 8.87 82.9327 8.62L82.2027 8.81ZM82.4627 10.23C82.4827 10.47 82.4927 10.71 82.4927 10.94L83.2427 10.95C83.2427 10.69 83.2327 10.42 83.2127 10.16L82.4627 10.23ZM82.4427 11.66C82.4127 11.89 82.3727 12.12 82.3127 12.35L83.0426 12.54C83.1126 12.28 83.1627 12.02 83.1927 11.75L82.4427 11.66ZM82.0927 13.01C82.0027 13.23 81.9027 13.43 81.7727 13.63L82.4226 14.02C82.5626 13.79 82.6826 13.55 82.7826 13.3L82.0927 13.01ZM81.3727 14.2C81.2227 14.38 81.0627 14.55 80.8827 14.7L81.3827 15.26C81.5827 15.08 81.7727 14.89 81.9427 14.68L81.3727 14.2ZM80.3327 15.14C80.1427 15.27 79.9326 15.39 79.7226 15.5L80.0627 16.17C80.3027 16.05 80.5327 15.91 80.7527 15.76L80.3327 15.14ZM79.0727 15.79C78.8527 15.87 78.6227 15.95 78.3927 16.01L78.5927 16.74C78.8427 16.67 79.1027 16.59 79.3427 16.49L79.0727 15.79ZM77.6827 16.17C77.4427 16.22 77.1927 16.26 76.9527 16.3L77.0627 17.05C77.3127 17.01 77.5727 16.97 77.8227 16.92L77.6827 16.17ZM76.2127 16.41C75.9627 16.44 75.7127 16.48 75.4627 16.51L75.5627 17.26C75.8127 17.23 76.0627 17.19 76.3127 17.16L76.2127 16.41ZM74.7226 16.61C74.4726 16.65 74.2127 16.69 73.9627 16.73L74.0927 17.47C74.3327 17.43 74.5827 17.39 74.8227 17.35L74.7226 16.61ZM73.2027 16.88C72.9527 16.93 72.6927 17 72.4427 17.08L72.6626 17.8C72.8926 17.73 73.1326 17.67 73.3626 17.62L73.2027 16.88ZM71.7027 17.34L71.6427 17.37L71.5927 17.39L71.5426 17.41L71.4927 17.43L71.4427 17.45L71.3927 17.47L71.3526 17.49L71.3127 17.51L71.2727 17.53L71.2326 17.55L71.1927 17.57L71.1527 17.59L71.1126 17.61L71.0727 17.63L71.0326 17.65L70.9927 17.67L71.3626 18.32L71.3927 18.3L71.4327 18.28L71.4726 18.26L71.5127 18.24L71.5527 18.22L71.5927 18.2L71.6327 18.18L71.6726 18.16L71.7127 18.14L71.7527 18.12L71.7926 18.1L71.8327 18.08L71.8727 18.06L71.9126 18.04L71.9527 18.02L72.0127 17.99L71.7027 17.34ZM70.3127 18.15L70.2926 18.17L70.2527 18.2L70.2127 18.23L70.1726 18.26L70.1327 18.29L70.0927 18.32L70.0527 18.35L70.0127 18.38L69.9726 18.41L69.9327 18.44L69.8927 18.48L69.8526 18.52L69.8127 18.56L69.7826 18.6L69.7527 18.64L69.7226 18.68L69.7027 18.7L70.2727 19.2L70.3127 19.15L70.3427 19.12L70.3727 19.09L70.4027 19.06L70.4327 19.03L70.4627 19L70.4927 18.97L70.5227 18.94L70.5527 18.91L70.5827 18.88L70.6126 18.85L70.6427 18.82L70.6726 18.79L70.7027 18.76L70.7326 18.73L70.7527 18.71L70.3127 18.15ZM69.2326 19.36L69.2027 19.41L69.1726 19.46L69.1427 19.51L69.1126 19.56L69.0827 19.61L69.0527 19.66L69.0227 19.71L68.9927 19.76L68.9627 19.81L68.9327 19.86L68.9126 19.91L68.8927 19.96L68.8727 20.01L68.8526 20.06L68.8427 20.08L69.5326 20.38L69.5627 20.32L69.5827 20.27L69.6026 20.22L69.6227 20.17L69.6427 20.13L69.6626 20.09L69.6827 20.05L69.7027 20.01L69.7226 19.97L69.7427 19.93L69.7627 19.89L69.7826 19.85L69.8027 19.81L69.8227 19.77L69.2326 19.36ZM68.5827 20.83L68.5727 20.86L68.5527 20.92L68.5326 20.98L68.5127 21.04L68.4927 21.1L68.4726 21.16L68.4527 21.22L68.4327 21.28L68.4126 21.34L68.4027 21.41L68.3927 21.48L68.3827 21.55L68.3727 21.59L69.1126 21.72L69.1227 21.69L69.1327 21.63L69.1427 21.57L69.1527 21.51L69.1626 21.45L69.1726 21.39L69.1827 21.33L69.1927 21.27L69.2127 21.21L69.2326 21.15L69.2527 21.09L69.2727 21.04L69.2826 21.01L68.5827 20.83ZM68.2926 22.38V22.42L68.2826 22.5L68.2727 22.58L68.2627 22.66L68.2527 22.74V22.82V22.9V22.98V23.06V23.14V23.17L69.0027 23.19V23.08V23V22.93V22.86V22.79L69.0127 22.72L69.0227 22.65L69.0326 22.58L69.0426 22.51V22.47L68.2926 22.38ZM68.2326 23.94C68.2426 24.2 68.2626 24.46 68.2926 24.72L69.0426 24.64C69.0126 24.4 69.0027 24.16 68.9927 23.91L68.2326 23.94ZM68.3927 25.48C68.4327 25.73 68.4627 25.98 68.5027 26.22L69.2527 26.12C69.2127 25.87 69.1827 25.62 69.1427 25.37L68.3927 25.48ZM68.5827 26.95C68.6027 27.18 68.6127 27.42 68.5927 27.65L69.3427 27.71C69.3627 27.44 69.3527 27.17 69.3327 26.9L68.5827 26.95ZM68.4726 28.28C68.4026 28.48 68.3026 28.66 68.1726 28.83L68.7627 29.3L68.7926 29.26L68.8127 29.24L68.8327 29.22L68.8526 29.2L68.8727 29.18L68.8927 29.16L68.9126 29.14L68.9327 29.12L68.9527 29.1L68.9826 29.05L69.0027 29.02L69.0227 28.99L69.0326 28.96L69.0426 28.93L69.0727 28.88L69.0827 28.85L69.0927 28.82L69.1026 28.79L69.1227 28.74L69.1427 28.69L69.1626 28.64L69.1827 28.59L69.2027 28.54L68.4726 28.28ZM67.6927 29.28C67.5027 29.42 67.3126 29.53 67.1026 29.63L67.4327 30.31C67.5227 30.27 67.6027 30.22 67.6827 30.18C67.7327 30.15 67.7927 30.12 67.8427 30.08C67.8727 30.06 67.9027 30.04 67.9327 30.02L67.9927 29.98L68.0527 29.94L68.0827 29.92L68.1327 29.89L67.6927 29.28ZM66.4627 29.9C66.2327 29.97 66.0127 30.03 65.7727 30.08L65.9226 30.82C66.1826 30.77 66.4427 30.7 66.6927 30.62L66.4627 29.9ZM65.0627 30.19C64.8227 30.22 64.5727 30.24 64.3327 30.25L64.3827 31C64.6427 30.98 64.8927 30.96 65.1527 30.93L65.0627 30.19ZM63.5827 30.29C63.3327 30.3 63.0827 30.31 62.8327 30.32L62.8626 31.07C63.1126 31.06 63.3626 31.05 63.6126 31.04L63.5827 30.29ZM62.0627 30.36C61.8027 30.38 61.5526 30.4 61.2926 30.43L61.3827 31.18C61.6227 31.15 61.8726 31.13 62.1126 31.12L62.0627 30.36ZM60.5227 30.54C60.2627 30.59 60.0027 30.65 59.7527 30.73L59.9726 31.45C60.2026 31.38 60.4326 31.32 60.6626 31.28L60.5227 30.54ZM31.9126 64.99C31.9626 64.92 32.0527 64.91 32.1227 64.96C32.1927 65.01 32.2027 65.1 32.1527 65.17L28.9826 69.63C28.9326 69.7 28.8427 69.71 28.7727 69.66C28.7027 69.61 28.6927 69.52 28.7427 69.45L31.9126 64.99ZM32.6327 62.81C32.6827 62.74 32.7727 62.73 32.8427 62.78C32.9127 62.83 32.9227 62.92 32.8727 62.99L29.7027 67.45C29.6527 67.52 29.5627 67.53 29.4927 67.48C29.4227 67.43 29.4127 67.34 29.4627 67.27L32.6327 62.81ZM25.6327 71.03L25.6427 71.04C25.4827 71.26 25.5427 71.64 25.7627 72.08C26.0427 72.63 26.5527 73.21 27.2527 73.7L27.2627 73.71C27.9627 74.2 28.6927 74.49 29.3027 74.56C29.7927 74.62 30.1627 74.54 30.3227 74.32L37.7127 63.77C37.6627 63.77 37.6127 63.76 37.5727 63.76C36.7727 63.66 35.8526 63.3 34.9826 62.7L34.9327 62.66C34.0927 62.06 33.4626 61.33 33.1026 60.63C33.0826 60.58 33.0526 60.53 33.0326 60.49L25.6327 71.03ZM24.5727 70.47C24.5927 70.42 24.6127 70.38 24.6427 70.34L36.6527 53.18L24.5426 35.88C24.1126 35.26 24.1527 34.44 24.5727 33.61C24.9327 32.89 25.5927 32.15 26.4527 31.54L26.4826 31.52C27.3426 30.93 28.2526 30.58 29.0326 30.48C29.8926 30.38 30.6427 30.58 31.0827 31.11C31.1227 31.14 31.1527 31.18 31.1827 31.22L41.6026 46.1L52.0227 31.22C52.0527 31.18 52.0827 31.14 52.1227 31.11C52.5727 30.58 53.3126 30.38 54.1726 30.48C54.9726 30.58 55.8927 30.94 56.7627 31.54C57.6327 32.15 58.2827 32.89 58.6427 33.61C59.0627 34.44 59.1026 35.26 58.6726 35.88L46.5627 53.18L58.5727 70.34C58.6027 70.38 58.6227 70.43 58.6427 70.47C58.9827 71.07 58.9226 71.84 58.5326 72.61C58.1726 73.33 57.5127 74.07 56.6527 74.68C55.7927 75.29 54.8627 75.65 54.0627 75.74C53.1427 75.85 52.3526 75.61 51.9226 74.99L43.5127 62.99L41.6026 60.26L31.3027 75C30.8727 75.62 30.0826 75.86 29.1626 75.75C28.3726 75.66 27.4527 75.3 26.5827 74.69L26.5727 74.68C25.7027 74.07 25.0527 73.33 24.6927 72.61C24.2927 71.84 24.2327 71.07 24.5727 70.47ZM37.3927 54.23L34.0326 59.03L34.0426 59.04C33.8826 59.26 33.9426 59.64 34.1626 60.08C34.4426 60.63 34.9626 61.22 35.6626 61.71C36.3626 62.2 37.0927 62.49 37.7027 62.56C38.1927 62.62 38.5626 62.54 38.7226 62.32L40.8827 59.23L37.3927 54.23ZM52.0127 33.35L42.3526 47.14L45.8427 52.13L56.6927 36.64C56.6427 36.64 56.5927 36.63 56.5527 36.63C55.7727 36.54 54.8527 36.18 54.0027 35.59L53.9126 35.53C53.0726 34.93 52.4427 34.2 52.0827 33.5C52.0527 33.45 52.0327 33.4 52.0127 33.35ZM56.0927 32.52C55.3927 32.03 54.6627 31.74 54.0527 31.67C53.5627 31.61 53.1926 31.69 53.0326 31.91C52.8726 32.13 52.9327 32.51 53.1527 32.95C53.4227 33.49 53.9326 34.07 54.6126 34.55L54.6626 34.58L54.6927 34.61C55.3727 35.08 56.0827 35.35 56.6827 35.42C57.1727 35.48 57.5427 35.4 57.7027 35.18C57.8627 34.96 57.8027 34.58 57.5827 34.14C57.3127 33.6 56.7827 33.01 56.0927 32.52ZM24.9527 29.15C25.1327 29.29 25.2927 29.45 25.4427 29.63L26.0227 29.14C25.8427 28.93 25.6527 28.74 25.4327 28.56L24.9527 29.15ZM34.0727 16.45C33.9927 16.68 33.9027 16.91 33.8027 17.13L34.4927 17.43C34.5927 17.19 34.6926 16.95 34.7826 16.71L34.0727 16.45ZM33.4927 17.79C33.3827 18 33.2627 18.21 33.1327 18.41L33.7627 18.82C33.9027 18.6 34.0327 18.37 34.1527 18.14L33.4927 17.79ZM32.7127 18.99C32.5627 19.17 32.4026 19.34 32.2326 19.49L32.7326 20.06C32.9326 19.88 33.1226 19.68 33.2926 19.47L32.7127 18.99ZM31.6827 19.89C31.4927 20 31.2927 20.09 31.0727 20.15L31.2826 20.88C31.5526 20.8 31.8127 20.69 32.0627 20.55L31.6827 19.89ZM30.4226 20.26C30.3626 20.26 30.3027 20.26 30.2427 20.26H30.2127H30.1827H30.1527H30.1227H30.0927H30.0627H30.0326H30.0027H29.9726H29.9427H29.9126H29.8827H29.8526C29.8226 20.26 29.7927 20.25 29.7627 20.24L29.6227 20.98L29.6527 20.99L29.6927 21L29.7326 21.01L29.7727 21.02L29.8127 21.03H29.8526H29.8927H29.9327H29.9726H30.0127H30.0527H30.0927H30.1327H30.1726H30.2127H30.2527C30.3327 21.03 30.4026 21.03 30.4826 21.03L30.4226 20.26ZM29.0927 20.02C28.8727 19.94 28.6427 19.84 28.4327 19.74L28.1026 20.42C28.3426 20.53 28.5827 20.64 28.8327 20.73L29.0927 20.02ZM27.7826 19.4C27.5626 19.28 27.3427 19.16 27.1327 19.04L26.7627 19.7C26.9827 19.82 27.2026 19.95 27.4226 20.07L27.7826 19.4ZM26.4627 18.67C26.2327 18.55 26.0126 18.43 25.7826 18.32L25.4527 19C25.6727 19.11 25.8926 19.22 26.1026 19.34L26.4627 18.67ZM25.0527 18C24.8527 17.92 24.6427 17.85 24.4427 17.79L24.3626 17.77L24.2926 17.75L24.1126 18.48C24.3426 18.54 24.5626 18.61 24.7826 18.7L25.0527 18ZM23.4927 17.61H23.4527H23.4126H23.3727H23.3327H23.2926H23.2527H23.2127H23.1726H23.1327H23.0927H23.0527H23.0127H22.9726H22.9327H22.8927H22.8526H22.8127H22.7727L22.7127 17.62L22.8027 18.37H22.8427H22.8827H22.9126H22.9427H22.9726H23.0027H23.0326H23.0627H23.0927H23.1227H23.1527H23.1827H23.2127H23.2427H23.2727H23.3027H23.3327H23.3626H23.4027L23.4927 17.61ZM21.8526 17.8L21.8327 17.81L21.7826 17.83L21.7326 17.85L21.6827 17.87L21.6327 17.89L21.5827 17.91L21.5326 17.93L21.4826 17.95L21.4327 17.97L21.3827 17.99L21.3327 18.01L21.2826 18.03L21.2326 18.05L21.1827 18.07L21.1327 18.09L21.0827 18.11L21.0326 18.13L21.0127 18.14L21.3727 18.8L21.4226 18.77L21.4627 18.75L21.5027 18.73L21.5426 18.71L21.5827 18.69L21.6227 18.67L21.6626 18.65L21.7027 18.63L21.7427 18.61L21.7826 18.59L21.8227 18.57L21.8626 18.55L21.9027 18.54L21.9427 18.53L21.9826 18.52L22.0326 18.5L21.8526 17.8ZM20.4226 18.57L20.3626 18.62L20.3127 18.66L20.2627 18.7L20.2127 18.74L20.1626 18.78L20.1126 18.82L20.0627 18.86L20.0127 18.9L19.9627 18.94L19.9126 18.98L19.8626 19.02L19.8127 19.07L20.3327 19.62L20.3727 19.58L20.4126 19.54L20.4527 19.5L20.4927 19.46L20.5326 19.42L20.5827 19.38L20.6327 19.34L20.6827 19.3L20.7326 19.26L20.7826 19.22L20.8327 19.18L20.8927 19.14L20.4226 18.57ZM19.2627 19.66L19.2226 19.71L19.1827 19.76L19.1427 19.81L19.1026 19.86L19.0627 19.91L19.0227 19.96L18.9927 20.01L18.9627 20.06L18.9327 20.11L18.9027 20.16L18.8727 20.21L18.8427 20.26L18.8127 20.31L18.7926 20.34L19.4327 20.74L19.4427 20.72L19.4726 20.68L19.5027 20.64L19.5326 20.6L19.5627 20.56L19.5927 20.52L19.6227 20.48L19.6527 20.44L19.6827 20.4L19.7127 20.36L19.7427 20.32L19.7727 20.28L19.8027 20.24L19.8427 20.19L19.2627 19.66ZM18.4126 21.02L18.3927 21.08L18.3727 21.13L18.3526 21.18L18.3327 21.23L18.3127 21.28L18.2926 21.33L18.2727 21.38L18.2527 21.43L18.2326 21.48L18.2127 21.53L18.1927 21.58L18.1726 21.63L18.1527 21.68L18.1327 21.73L18.1227 21.78L18.8526 21.98L18.8626 21.94L18.8727 21.9L18.8827 21.86L18.8927 21.82L18.9027 21.78L18.9226 21.74L18.9427 21.7L18.9627 21.66L18.9826 21.62L19.0027 21.58L19.0227 21.54L19.0426 21.5L19.0627 21.46L19.0827 21.42L19.1026 21.37L18.4126 21.02ZM17.9826 22.59L17.9726 22.65V22.7V22.75V22.8V22.85V22.9V22.95V23V23.05V23.1V23.15V23.2V23.25V23.3V23.35V23.4V23.42L18.7226 23.35V23.3V23.26V23.22V23.18V23.14V23.1V23.06V23V22.96V22.92V22.88V22.84V22.8V22.76V22.72V22.67L17.9826 22.59ZM18.1327 24.22L18.1427 24.24L18.1527 24.29L18.1726 24.34L18.1927 24.39L18.2127 24.44L18.2326 24.49L18.2527 24.53L18.2727 24.57L18.2926 24.61L18.3127 24.65L18.3327 24.69L18.3526 24.73L18.3727 24.77L18.3927 24.81L18.4126 24.85L18.4327 24.89L18.4527 24.93L18.4726 24.97L18.4826 24.98L19.1327 24.6L19.1126 24.56L19.0927 24.53L19.0727 24.5L19.0527 24.47L19.0326 24.44L19.0127 24.41L18.9927 24.38L18.9726 24.35L18.9527 24.32L18.9327 24.29L18.9226 24.26L18.9126 24.22L18.9027 24.18L18.8927 24.14L18.8827 24.1L18.8727 24.06L18.8626 24.02L18.8526 24L18.1327 24.22ZM18.9627 25.67L18.9927 25.7L19.0227 25.73L19.0527 25.76L19.0827 25.79L19.1126 25.82L19.1427 25.85L19.1827 25.88L19.2226 25.91L19.2627 25.94L19.3027 25.97L19.3427 26L19.3827 26.03L19.4226 26.06L19.4627 26.09L19.5027 26.12L19.5426 26.15L19.5827 26.18L19.6126 26.2L20.0227 25.57L20.0027 25.55L19.9726 25.53L19.9427 25.51L19.9126 25.49L19.8827 25.47L19.8526 25.45L19.8227 25.43L19.7926 25.41L19.7627 25.39L19.7326 25.37L19.7027 25.35L19.6726 25.32L19.6427 25.29L19.6126 25.26L19.5827 25.23L19.5527 25.2L19.5227 25.17L19.4927 25.14L18.9627 25.67ZM20.4427 26.61L20.4826 26.62L20.5326 26.64L20.5827 26.66L20.6327 26.68L20.6827 26.69L20.7326 26.7L20.7826 26.71L20.8327 26.72L20.8827 26.73L20.9327 26.74L20.9826 26.75L21.0326 26.76L21.0827 26.77L21.1427 26.78L21.2427 26.03L21.1927 26.02L21.1427 26.01L21.1026 26H21.0927L21.0527 25.99L21.0127 25.98L20.9726 25.97L20.9327 25.96L20.8927 25.95L20.8526 25.94L20.8127 25.93L20.7727 25.92C20.7427 25.85 20.7227 25.78 20.7027 25.71L19.9726 25.92C20.0526 26.19 20.1627 26.46 20.3127 26.7L20.4427 26.61ZM21.9826 26.82H22.0227H22.0827H22.1427H22.2027H22.2627H22.3227L22.3827 26.81L22.4427 26.8L22.5027 26.79L22.5627 26.78L22.6227 26.77L22.6827 26.76L22.7627 26.75L22.6527 26L22.5927 26.01L22.5326 26.02L22.4726 26.03L22.4126 26.04L22.3626 26.05L22.3127 26.06H22.2627H22.2127H22.1626H22.1126H22.0627H22.0127H21.9726L21.9826 26.82ZM23.5627 26.57L23.6427 26.55L23.7127 26.53L23.7826 26.51L23.8526 26.49L23.9226 26.47L23.9927 26.45L24.0627 26.43L24.1327 26.4L24.2027 26.37L24.2727 26.34L24.3127 26.32L24.0426 25.62L24.0127 25.63L23.9527 25.65L23.8927 25.67L23.8327 25.69L23.7727 25.71L23.7127 25.73L23.6527 25.75L23.5927 25.77L23.5326 25.79L23.4726 25.81L23.4027 25.83L23.5627 26.57ZM25.0426 25.97L25.0827 25.94L25.1227 25.92L25.1626 25.9L25.2027 25.88L25.2427 25.86L25.2826 25.84L25.3127 25.82L25.3427 25.8L25.3727 25.78L25.4027 25.76L25.4327 25.73L25.4627 25.7L25.4927 25.67L25.5227 25.64L25.5527 25.61L25.5827 25.58L25.6126 25.55L25.6427 25.52L25.6726 25.49L25.6927 25.47L25.1827 24.92L25.1427 24.96L25.1227 24.98L25.1126 25L25.0827 25.02L25.0527 25.04L25.0227 25.06L24.9927 25.08L24.9627 25.1L24.9327 25.12L24.9027 25.14L24.8727 25.16L24.8427 25.18L24.8127 25.2L24.7826 25.22L24.7527 25.24L24.7226 25.26L24.6927 25.28L24.6626 25.3L24.6227 25.32L25.0426 25.97ZM26.2627 24.82L26.2727 24.8L26.2926 24.77L26.3127 24.74L26.3327 24.71L26.3526 24.68L26.3727 24.65L26.3927 24.62L26.4126 24.59L26.4327 24.56L26.4527 24.53L26.4726 24.5L26.4927 24.47L26.5027 24.44L26.5127 24.41L26.5227 24.38L26.5326 24.35L26.5426 24.32L26.5527 24.29L26.5627 24.26L26.5727 24.23L26.5827 24.2L26.5927 24.17L26.6026 24.14L26.6126 24.11L26.6227 24.08V24.06L25.8927 23.88L25.8827 23.91L25.8727 23.96L25.8626 23.98L25.8427 24.03L25.8327 24.05L25.8227 24.07L25.8027 24.12L25.7926 24.14L25.7727 24.19L25.7627 24.21L25.7527 24.23L25.7427 24.25L25.7326 24.27L25.7226 24.29L25.7127 24.31L25.6827 24.36L25.6726 24.38L25.6626 24.4L25.6327 24.45L26.2627 24.82ZM26.6527 23.12V23.1L26.6427 23.07L26.6327 23.04L26.6227 23L26.6126 22.97L26.6026 22.94L26.5927 22.91L26.5827 22.88L26.5727 22.85L26.5627 22.82L26.5527 22.79L26.5426 22.76L26.5326 22.73L26.5227 22.7L26.5127 22.67L26.5027 22.64L26.4927 22.61L26.4826 22.58L26.4627 22.55L26.4427 22.52L26.4226 22.49L26.4027 22.46L26.3827 22.43L26.3626 22.4L26.3427 22.37L26.3227 22.34L26.3027 22.31L26.2826 22.28L26.2627 22.25L26.2326 22.22L25.6527 22.71L25.6626 22.73L25.6726 22.75L25.6827 22.77L25.6927 22.79L25.7027 22.81L25.7127 22.83L25.7226 22.85L25.7326 22.87L25.7427 22.89L25.7527 22.91L25.7627 22.93L25.7727 22.95L25.7826 22.97L25.7926 22.99L25.8027 23.01L25.8127 23.03L25.8227 23.06L25.8327 23.09L25.8427 23.11L25.8526 23.13L25.8626 23.15V23.17L25.8727 23.21L25.8827 23.25V23.27V23.29L26.6527 23.12ZM25.5227 21.71L25.5027 21.7L25.4726 21.69L25.4427 21.68L25.4126 21.67L25.3827 21.66L25.3526 21.65L25.3227 21.64L25.2926 21.63L25.2627 21.62L25.2326 21.61L25.1927 21.6L25.1527 21.59L25.1126 21.58L25.0727 21.57L25.0326 21.56L24.9927 21.55L24.9527 21.54L24.9126 21.53L24.8727 21.52L24.8327 21.51H24.7926H24.7527H24.7127H24.6827L24.6227 22.26H24.6427H24.6726H24.7027H24.7326H24.7627H24.7926H24.8227H24.8526H24.8827L24.9126 22.27L24.9427 22.28L24.9726 22.29L25.0027 22.3L25.0326 22.31L25.0527 22.32L25.0727 22.33L25.0927 22.34L25.1126 22.35L25.1327 22.36L25.1527 22.37L25.1726 22.38L25.1927 22.39L25.2127 22.4L25.2326 22.41L25.5227 21.71ZM23.8327 21.54H23.8027L23.7527 21.55L23.7027 21.56L23.6527 21.57L23.6026 21.58L23.5527 21.59L23.5027 21.6L23.4527 21.61L23.4027 21.62L23.3526 21.63L23.3027 21.64L23.2527 21.65L23.2027 21.66L23.1527 21.67L23.1026 21.68L23.0527 21.7L23.0227 21.71L23.2427 22.43L23.2727 22.42L23.3127 22.41L23.3526 22.4L23.3927 22.39L23.4327 22.38L23.4726 22.37L23.5127 22.36L23.5527 22.35L23.5927 22.34L23.6327 22.33L23.6726 22.32L23.7127 22.31L23.7527 22.3L23.7926 22.29L23.8327 22.28L23.8727 22.27H23.9027L23.8327 21.54ZM22.2926 21.98L22.2226 22.01L22.1626 22.03L22.1026 22.06L22.0426 22.09L21.9826 22.12L21.9226 22.15L21.8626 22.18L21.8027 22.21L21.7427 22.24L21.6827 22.27L21.6227 22.3L21.5927 22.32L21.5527 22.34L21.9126 23L21.9627 22.97L22.0127 22.94L22.0627 22.91L22.1126 22.88L22.1626 22.85L22.2127 22.82L22.2627 22.8L22.3127 22.78L22.3626 22.76L22.4126 22.74L22.4627 22.72L22.5326 22.69L22.2926 21.98ZM20.8927 22.8L20.8626 22.83L20.8427 22.85L20.8227 22.87L20.8027 22.89L20.7527 22.94L20.7326 22.96L20.7127 22.98L20.6827 23L20.6626 23.02L20.6427 23.04L20.6227 23.06L20.6026 23.08L20.5827 23.1L20.5627 23.12L20.5426 23.14L20.5227 23.16L20.5027 23.18L20.4826 23.21L20.4627 23.24L20.4427 23.27L20.4226 23.3L20.4027 23.33L20.3827 23.36L20.3626 23.39L20.3327 23.43L20.9627 23.84C21.0827 23.66 21.2327 23.49 21.3927 23.35L20.8927 22.8ZM19.9627 24.22L19.9427 24.27L19.9226 24.33C19.9126 24.37 19.9027 24.41 19.8927 24.44C19.8827 24.47 19.8827 24.5 19.8727 24.53L19.8626 24.59C19.8626 24.62 19.8526 24.65 19.8526 24.68C19.8526 24.72 19.8427 24.76 19.8427 24.79V24.85C19.8427 24.93 19.8327 25 19.8327 25.07H20.5827C20.5827 24.85 20.6126 24.64 20.6726 24.43L19.9627 24.22ZM20.8227 27.36C20.9727 27.51 21.1327 27.63 21.3127 27.75C21.3627 27.78 21.4127 27.81 21.4627 27.85L21.5027 27.87L21.8727 27.21C21.6827 27.1 21.5026 26.97 21.3526 26.82L20.8227 27.36ZM22.2926 28.19C22.5426 28.25 22.7926 28.3 23.0426 28.36L23.2027 27.62C22.9627 27.57 22.7226 27.52 22.4826 27.46L22.2926 28.19ZM23.7427 28.53C23.9627 28.6 24.1827 28.68 24.3827 28.78L24.7226 28.11C24.4826 27.99 24.2227 27.89 23.9627 27.81L23.7427 28.53ZM23.9226 31.7C24.1326 31.8 24.3326 31.91 24.5326 32.04L24.9527 31.41C24.7227 31.26 24.4927 31.13 24.2427 31.01L23.9226 31.7ZM1.34269 4.3C1.33269 4.53 1.31268 4.78 1.27268 5.01L2.02268 5.13C2.06268 4.87 2.09264 4.6 2.10264 4.34L1.34269 4.3ZM1.13267 5.72C1.07267 5.96 1.01267 6.2 0.942665 6.43L1.66264 6.64C1.73264 6.39 1.80265 6.14 1.86265 5.89L1.13267 5.72ZM0.732643 7.15C0.662643 7.39 0.582672 7.63 0.512672 7.88L1.23264 8.09C1.30264 7.85 1.37267 7.61 1.45267 7.37L0.732643 7.15ZM0.30265 8.62C0.24265 8.87 0.182668 9.13 0.132668 9.38L0.872658 9.52C0.912658 9.28 0.972631 9.04 1.03263 8.81L0.30265 8.62ZM0.0326309 10.16C0.0126309 10.42 -0.00733732 10.69 0.00266268 10.95L0.752663 10.94C0.752663 10.7 0.762631 10.46 0.782631 10.23L0.0326309 10.16ZM0.0426407 11.75C0.0726407 12.02 0.122665 12.28 0.192665 12.54L0.922646 12.35C0.862646 12.12 0.822641 11.89 0.792641 11.66L0.0426407 11.75ZM0.452675 13.3C0.552675 13.55 0.67266 13.79 0.81266 14.02L1.46268 13.63C1.34268 13.43 1.24268 13.22 1.14268 13.01L0.452675 13.3ZM1.29264 14.68C1.46264 14.89 1.65264 15.08 1.85264 15.26L2.35264 14.7C2.18264 14.54 2.02265 14.38 1.86265 14.2L1.29264 14.68ZM2.48264 15.76C2.70264 15.91 2.93265 16.05 3.17265 16.17L3.51267 15.5C3.30267 15.39 3.10269 15.27 2.90269 15.14L2.48264 15.76ZM3.89268 16.49C4.14268 16.58 4.39268 16.67 4.64268 16.74L4.84269 16.01C4.61269 15.95 4.38264 15.87 4.16264 15.79L3.89268 16.49ZM5.41264 16.91C5.66264 16.96 5.91265 17 6.17265 17.04L6.28263 16.29C6.04263 16.25 5.79265 16.21 5.55265 16.16L5.41264 16.91ZM6.92265 17.15C7.17265 17.18 7.42265 17.22 7.67265 17.25L7.77268 16.5C7.52268 16.47 7.27268 16.44 7.02268 16.4L6.92265 17.15ZM8.41264 17.35C8.65264 17.38 8.90268 17.42 9.14268 17.47L9.27268 16.73C9.02268 16.69 8.77267 16.65 8.51267 16.61L8.41264 17.35ZM9.86265 17.61C10.0926 17.66 10.3327 17.72 10.5627 17.79L10.7826 17.07C10.5326 17 10.2827 16.93 10.0227 16.87L9.86265 17.61ZM11.2427 18.03L11.3027 18.06L11.3427 18.08L11.3827 18.1L11.4226 18.12L11.4627 18.14L11.5027 18.16L11.5426 18.18L11.5827 18.2L11.6227 18.22L11.6626 18.24L11.7027 18.26L11.7427 18.28L11.7826 18.3L11.8227 18.32L11.8626 18.34L11.8927 18.36L12.2627 17.71L12.2226 17.69L12.1827 17.67L12.1427 17.65L12.1026 17.63L12.0627 17.61L12.0227 17.59L11.9826 17.57L11.9427 17.55L11.9027 17.53L11.8626 17.51L11.8127 17.49L11.7627 17.47L11.7127 17.45L11.6626 17.43L11.6126 17.41L11.5527 17.38L11.2427 18.03ZM12.4527 18.73L12.4726 18.75L12.5027 18.78L12.5326 18.81L12.5627 18.84L12.5927 18.87L12.6227 18.9L12.6527 18.93L12.6827 18.96L12.7127 18.99L12.7427 19.02L12.7727 19.05L12.8027 19.08L12.8327 19.11L12.8626 19.14L12.8927 19.17L12.9327 19.22L13.5027 18.72L13.4826 18.7L13.4527 18.66L13.4226 18.62L13.3927 18.58L13.3526 18.54L13.3127 18.5L13.2727 18.46L13.2326 18.43L13.1927 18.4L13.1527 18.37L13.1126 18.34L13.0727 18.31L13.0326 18.28L12.9927 18.25L12.9527 18.22L12.9126 18.19L12.8927 18.17L12.4527 18.73ZM13.3727 19.76L13.3927 19.8L13.4126 19.84L13.4327 19.88L13.4527 19.92L13.4726 19.96L13.5127 20L13.5326 20.04L13.5527 20.08L13.5727 20.12L13.5927 20.16L13.6126 20.21L13.6327 20.26L13.6527 20.31L13.6827 20.37L14.3727 20.07L14.3626 20.05L14.3526 20L14.3327 19.95L14.3127 19.9L14.2926 19.85L14.2627 19.8L14.2326 19.75L14.2027 19.7L14.1726 19.65L14.1427 19.6L14.1126 19.55L14.0827 19.5L14.0527 19.45L14.0227 19.4L13.9927 19.35L13.3727 19.76ZM13.9327 21.04L13.9427 21.07L13.9627 21.12L13.9826 21.18L14.0027 21.24L14.0227 21.3L14.0326 21.36L14.0426 21.42L14.0527 21.48L14.0627 21.54L14.0727 21.6L14.0827 21.66L14.0927 21.72L14.1026 21.75L14.8427 21.62L14.8327 21.58L14.8227 21.51L14.8127 21.44L14.8027 21.37L14.7826 21.31L14.7627 21.25L14.7427 21.19L14.7226 21.13L14.7027 21.07L14.6827 21.01L14.6626 20.95L14.6427 20.89L14.6327 20.86L13.9327 21.04ZM14.1927 22.45V22.49L14.2027 22.56L14.2127 22.63L14.2226 22.7L14.2326 22.77V22.84V22.91V22.98V23.06V23.17L14.9826 23.15V23.12V23.04V22.96V22.88V22.8V22.72L14.9726 22.64L14.9627 22.56L14.9527 22.48L14.9427 22.4V22.36L14.1927 22.45ZM14.2527 23.91C14.2427 24.15 14.2227 24.39 14.2027 24.64L14.9527 24.72C14.9827 24.46 15.0027 24.2 15.0127 23.94L14.2527 23.91ZM14.1026 25.37C14.0626 25.62 14.0327 25.87 13.9927 26.12L14.7427 26.22C14.7827 25.97 14.8126 25.72 14.8526 25.48L14.1026 25.37ZM13.9027 26.89C13.8827 27.16 13.8727 27.43 13.8927 27.7L14.6427 27.64C14.6227 27.41 14.6327 27.17 14.6527 26.94L13.9027 26.89ZM14.0627 28.53L14.0827 28.58L14.1026 28.63L14.1227 28.68L14.1427 28.73L14.1626 28.78L14.1726 28.81L14.1827 28.84L14.1927 28.87L14.2226 28.92L14.2326 28.95L14.2427 28.98L14.2627 29.01L14.2826 29.04L14.3127 29.09L14.3327 29.11L14.3526 29.13L14.3727 29.15L14.3927 29.17L14.4126 29.19L14.4327 29.21L14.4527 29.23L14.4726 29.25L14.5027 29.29L15.0927 28.82C14.9627 28.65 14.8626 28.47 14.7926 28.27L14.0627 28.53ZM15.1026 29.89L15.1527 29.92L15.1827 29.94L15.2427 29.98L15.3027 30.02C15.3327 30.04 15.3627 30.06 15.3927 30.08C15.4427 30.11 15.5027 30.14 15.5527 30.18C15.6327 30.23 15.7227 30.27 15.8027 30.31L16.1327 29.63C15.9227 29.53 15.7326 29.41 15.5426 29.28L15.1026 29.89ZM16.5426 30.62C16.7926 30.7 17.0527 30.77 17.3127 30.82L17.4627 30.08C17.2327 30.03 17.0027 29.97 16.7727 29.9L16.5426 30.62ZM18.0927 30.94C18.3527 30.97 18.6026 30.99 18.8626 31.01L18.9126 30.26C18.6726 30.24 18.4227 30.23 18.1827 30.2L18.0927 30.94ZM19.6327 31.04C19.8827 31.05 20.1327 31.06 20.3827 31.07L20.4126 30.32C20.1626 30.31 19.9126 30.3 19.6626 30.29L19.6327 31.04ZM21.1227 31.11C21.3627 31.13 21.6226 31.14 21.8526 31.17L21.9427 30.42C21.6927 30.39 21.4326 30.37 21.1726 30.35L21.1227 31.11ZM22.5727 31.28C22.8027 31.32 23.0327 31.38 23.2627 31.45L23.4826 30.73C23.2326 30.65 22.9727 30.59 22.7127 30.54L22.5727 31.28ZM51.0827 65.16C51.0327 65.09 51.0526 65 51.1126 64.95C51.1826 64.9 51.2727 64.92 51.3227 64.98L54.4927 69.44C54.5427 69.51 54.5227 69.6 54.4627 69.65C54.3927 69.7 54.3027 69.68 54.2527 69.62L51.0827 65.16ZM50.3626 62.98C50.3126 62.91 50.3327 62.82 50.3927 62.77C50.4627 62.72 50.5526 62.74 50.6026 62.8L53.7727 67.26C53.8227 67.33 53.8027 67.42 53.7427 67.47C53.6727 67.52 53.5826 67.5 53.5326 67.44L50.3626 62.98ZM57.6126 71.02L50.2226 60.46C50.2026 60.51 50.1727 60.56 50.1527 60.6C49.8027 61.3 49.1627 62.03 48.3227 62.63C48.3027 62.64 48.2526 62.68 48.2326 62.69C47.3726 63.28 46.4627 63.63 45.6827 63.73C45.6327 63.74 45.5826 63.74 45.5426 63.74L52.9327 74.29C53.0927 74.51 53.4627 74.59 53.9527 74.53C54.5627 74.46 55.2927 74.17 55.9927 73.68C56.6927 73.19 57.2127 72.61 57.4927 72.05C57.7027 71.63 57.7626 71.25 57.6126 71.02ZM49.2027 59.02L31.2326 33.35C31.2126 33.4 31.1826 33.45 31.1626 33.49C30.8126 34.19 30.1727 34.92 29.3327 35.52L29.2427 35.58C28.3827 36.17 27.4727 36.52 26.6927 36.62C26.6427 36.63 26.5927 36.63 26.5527 36.63L44.5227 62.29C44.6827 62.51 45.0526 62.59 45.5426 62.53C46.1426 62.46 46.8526 62.18 47.5326 61.72L47.5627 61.69L47.6126 61.66C48.2926 61.18 48.8027 60.6 49.0727 60.06C49.2927 59.62 49.3527 59.24 49.1927 59.02H49.2027Z" fill="white"/>
</svg>
