<svg width="71" height="73" viewBox="0 0 71 73" fill="none" xmlns="http://www.w3.org/2000/svg">
<g clip-path="url(#clip0)">
<path d="M29.4701 27.76C33.5401 27.76 34.5601 31.81 34.6001 31.98C34.6801 32.29 34.9501 32.51 35.2701 32.51C35.5901 32.51 35.8701 32.29 35.9401 31.98C35.9501 31.94 36.9601 27.74 41.0801 27.73C43.8301 27.73 46.6101 29.67 46.6101 34.01C46.6301 39.9 37.2801 46.33 35.3201 47.61C33.3501 46.34 23.9501 39.97 23.9301 34.08C23.9301 29.73 26.7001 27.77 29.4701 27.76ZM22.5601 34.08C22.5801 41.4 34.4601 48.7 34.9701 49.01C35.0801 49.08 35.2001 49.11 35.3301 49.11C35.4601 49.11 35.5801 49.08 35.6901 49.01C36.1901 48.7 48.0201 41.33 47.9901 34.01C47.9801 28.76 44.4001 26.36 41.0601 26.36C38.0201 26.37 36.1901 28.24 35.2701 29.96C34.3401 28.25 32.5001 26.39 29.4601 26.39C26.1301 26.4 22.5501 28.81 22.5601 34.08Z" fill="currentColor"/>
<path d="M29.4701 27.76C33.5401 27.76 34.5601 31.81 34.6001 31.98C34.6801 32.29 34.9501 32.51 35.2701 32.51C35.5901 32.51 35.8701 32.29 35.9401 31.98C35.9501 31.94 36.9601 27.74 41.0801 27.73C43.8301 27.73 46.6101 29.67 46.6101 34.01C46.6301 39.9 37.2801 46.33 35.3201 47.61C33.3501 46.34 23.9501 39.97 23.9301 34.08C23.9301 29.73 26.7001 27.77 29.4701 27.76ZM22.5601 34.08C22.5801 41.4 34.4601 48.7 34.9701 49.01C35.0801 49.08 35.2001 49.11 35.3301 49.11C35.4601 49.11 35.5801 49.08 35.6901 49.01C36.1901 48.7 48.0201 41.33 47.9901 34.01C47.9801 28.76 44.4001 26.36 41.0601 26.36C38.0201 26.37 36.1901 28.24 35.2701 29.96C34.3401 28.25 32.5001 26.39 29.4601 26.39C26.1301 26.4 22.5501 28.81 22.5601 34.08Z" fill="currentColor"/>
<path d="M35.2701 21.28C35.6601 21.28 35.9701 20.97 35.9701 20.59V14.34C35.9701 13.96 35.6501 13.65 35.2701 13.65C34.8801 13.65 34.5701 13.96 34.5701 14.34V20.59C34.5701 20.97 34.8901 21.28 35.2701 21.28Z" fill="currentColor"/>
<path d="M35.2701 21.28C35.6601 21.28 35.9701 20.97 35.9701 20.59V14.34C35.9701 13.96 35.6501 13.65 35.2701 13.65C34.8801 13.65 34.5701 13.96 34.5701 14.34V20.59C34.5701 20.97 34.8901 21.28 35.2701 21.28Z" fill="currentColor"/>
<path d="M35.2701 12.13C35.6601 12.13 35.9701 11.82 35.9701 11.44V8.5C35.9701 8.12 35.6501 7.81 35.2701 7.81C34.8801 7.81 34.5701 8.12 34.5701 8.5V11.44C34.5701 11.82 34.8901 12.13 35.2701 12.13Z" fill="currentColor"/>
<path d="M35.2701 12.13C35.6601 12.13 35.9701 11.82 35.9701 11.44V8.5C35.9701 8.12 35.6501 7.81 35.2701 7.81C34.8801 7.81 34.5701 8.12 34.5701 8.5V11.44C34.5701 11.82 34.8901 12.13 35.2701 12.13Z" fill="currentColor"/>
<path d="M46.95 22.61L45.16 24.4C44.89 24.67 44.89 25.11 45.16 25.38C45.29 25.51 45.47 25.58 45.65 25.58C45.83 25.58 46 25.51 46.14 25.38L47.93 23.59C48.2 23.32 48.2 22.88 47.93 22.61C47.66 22.34 47.22 22.34 46.95 22.61Z" fill="currentColor"/>
<path d="M46.95 22.61L45.16 24.4C44.89 24.67 44.89 25.11 45.16 25.38C45.29 25.51 45.47 25.58 45.65 25.58C45.83 25.58 46 25.51 46.14 25.38L47.93 23.59C48.2 23.32 48.2 22.88 47.93 22.61C47.66 22.34 47.22 22.34 46.95 22.61Z" fill="currentColor"/>
<path d="M48.82 21.73C48.95 21.86 49.13 21.93 49.31 21.93C49.49 21.93 49.66 21.86 49.8 21.73L54.7 16.83C54.97 16.56 54.97 16.12 54.7 15.86C54.43 15.59 53.99 15.59 53.73 15.86L48.83 20.76C48.55 21.02 48.55 21.46 48.82 21.73Z" fill="currentColor"/>
<path d="M48.82 21.73C48.95 21.86 49.13 21.93 49.31 21.93C49.49 21.93 49.66 21.86 49.8 21.73L54.7 16.83C54.97 16.56 54.97 16.12 54.7 15.86C54.43 15.59 53.99 15.59 53.73 15.86L48.83 20.76C48.55 21.02 48.55 21.46 48.82 21.73Z" fill="currentColor"/>
<path d="M24.4 25.38C24.53 25.51 24.71 25.58 24.89 25.58C25.07 25.58 25.24 25.51 25.38 25.38C25.65 25.11 25.65 24.67 25.38 24.4L20.76 19.78C20.49 19.51 20.05 19.51 19.79 19.78C19.52 20.05 19.52 20.49 19.79 20.75L24.4 25.38Z" fill="currentColor"/>
<path d="M24.4 25.38C24.53 25.51 24.71 25.58 24.89 25.58C25.07 25.58 25.24 25.51 25.38 25.38C25.65 25.11 25.65 24.67 25.38 24.4L20.76 19.78C20.49 19.51 20.05 19.51 19.79 19.78C19.52 20.05 19.52 20.49 19.79 20.75L24.4 25.38Z" fill="currentColor"/>
<path d="M18.0901 19.07C18.2201 19.21 18.4001 19.27 18.5801 19.27C18.7601 19.27 18.9301 19.2 19.0701 19.07C19.3401 18.8 19.3401 18.36 19.0701 18.09L16.8301 15.85C16.5601 15.58 16.1201 15.58 15.8501 15.85C15.5801 16.12 15.5801 16.56 15.8501 16.83L18.0901 19.07Z" fill="currentColor"/>
<path d="M18.0901 19.07C18.2201 19.21 18.4001 19.27 18.5801 19.27C18.7601 19.27 18.9301 19.2 19.0701 19.07C19.3401 18.8 19.3401 18.36 19.0701 18.09L16.8301 15.85C16.5601 15.58 16.1201 15.58 15.8501 15.85C15.5801 16.12 15.5801 16.56 15.8501 16.83L18.0901 19.07Z" fill="currentColor"/>
<path d="M42.86 16.94C42.95 16.98 43.03 16.99 43.12 16.99C43.39 16.99 43.65 16.83 43.76 16.56L47.16 8.36999C47.31 8.01999 47.14 7.61999 46.79 7.46999C46.44 7.32999 46.03 7.48999 45.89 7.83999L42.49 16.02C42.34 16.39 42.51 16.79 42.86 16.94Z" fill="currentColor"/>
<path d="M42.86 16.94C42.95 16.98 43.03 16.99 43.12 16.99C43.39 16.99 43.65 16.83 43.76 16.56L47.16 8.36999C47.31 8.01999 47.14 7.61999 46.79 7.46999C46.44 7.32999 46.03 7.48999 45.89 7.83999L42.49 16.02C42.34 16.39 42.51 16.79 42.86 16.94Z" fill="currentColor"/>
<path d="M47.31 6.19998C47.4 6.23998 47.49 6.24998 47.57 6.24998C47.84 6.24998 48.1 6.08998 48.21 5.81998L50.24 0.939982C50.38 0.589982 50.22 0.189982 49.86 0.0399821C49.51 -0.110018 49.1 0.0599822 48.96 0.409982L46.93 5.29998C46.79 5.65998 46.96 6.05998 47.31 6.19998Z" fill="currentColor"/>
<path d="M47.31 6.19998C47.4 6.23998 47.49 6.24998 47.57 6.24998C47.84 6.24998 48.1 6.08998 48.21 5.81998L50.24 0.939982C50.38 0.589982 50.22 0.189982 49.86 0.0399821C49.51 -0.110018 49.1 0.0599822 48.96 0.409982L46.93 5.29998C46.79 5.65998 46.96 6.05998 47.31 6.19998Z" fill="currentColor"/>
<path d="M16.3001 28.11C16.5701 28.11 16.8301 27.95 16.9301 27.68C17.0801 27.33 16.9101 26.92 16.5601 26.78L6.16009 22.46C5.81009 22.31 5.41009 22.48 5.26009 22.83C5.12009 23.18 5.28009 23.59 5.63009 23.73L16.0301 28.05C16.1201 28.1 16.2101 28.11 16.3001 28.11Z" fill="currentColor"/>
<path d="M16.3001 28.11C16.5701 28.11 16.8301 27.95 16.9301 27.68C17.0801 27.33 16.9101 26.92 16.5601 26.78L6.16009 22.46C5.81009 22.31 5.41009 22.48 5.26009 22.83C5.12009 23.18 5.28009 23.59 5.63009 23.73L16.0301 28.05C16.1201 28.1 16.2101 28.11 16.3001 28.11Z" fill="currentColor"/>
<path d="M3.05005 21.18L0.960053 20.3C0.610053 20.15 0.200053 20.32 0.0500529 20.68C-0.0999471 21.04 0.0700529 21.44 0.420053 21.59L2.51005 22.46C2.60005 22.5 2.69005 22.51 2.77005 22.51C3.04005 22.51 3.30005 22.35 3.41005 22.08C3.57005 21.73 3.41005 21.32 3.05005 21.18Z" fill="currentColor"/>
<path d="M3.05005 21.18L0.960053 20.3C0.610053 20.15 0.200053 20.32 0.0500529 20.68C-0.0999471 21.04 0.0700529 21.44 0.420053 21.59L2.51005 22.46C2.60005 22.5 2.69005 22.51 2.77005 22.51C3.04005 22.51 3.30005 22.35 3.41005 22.08C3.57005 21.73 3.41005 21.32 3.05005 21.18Z" fill="currentColor"/>
<path d="M53.61 27.68C53.72 27.95 53.98 28.11 54.25 28.11C54.34 28.11 54.43 28.09 54.52 28.06L56.06 27.42C56.42 27.27 56.58 26.86 56.44 26.51C56.29 26.15 55.88 25.99 55.53 26.13L53.99 26.77C53.63 26.92 53.47 27.33 53.61 27.68Z" fill="currentColor"/>
<path d="M53.61 27.68C53.72 27.95 53.98 28.11 54.25 28.11C54.34 28.11 54.43 28.09 54.52 28.06L56.06 27.42C56.42 27.27 56.58 26.86 56.44 26.51C56.29 26.15 55.88 25.99 55.53 26.13L53.99 26.77C53.63 26.92 53.47 27.33 53.61 27.68Z" fill="currentColor"/>
<path d="M58.15 26.49C58.24 26.49 58.33 26.47 58.41 26.44L62.04 24.93C62.39 24.78 62.56 24.38 62.41 24.02C62.26 23.67 61.86 23.5 61.51 23.64L57.88 25.15C57.53 25.3 57.36 25.7 57.51 26.06C57.63 26.33 57.88 26.49 58.15 26.49Z" fill="currentColor"/>
<path d="M58.15 26.49C58.24 26.49 58.33 26.47 58.41 26.44L62.04 24.93C62.39 24.78 62.56 24.38 62.41 24.02C62.26 23.67 61.86 23.5 61.51 23.64L57.88 25.15C57.53 25.3 57.36 25.7 57.51 26.06C57.63 26.33 57.88 26.49 58.15 26.49Z" fill="currentColor"/>
<path d="M69.5901 20.3L64.3501 22.48C64.0001 22.63 63.8301 23.03 63.9801 23.39C64.0901 23.66 64.3501 23.82 64.6201 23.82C64.7101 23.82 64.8001 23.8 64.8801 23.77L70.1201 21.59C70.4701 21.44 70.6401 21.04 70.4901 20.68C70.3501 20.32 69.9401 20.16 69.5901 20.3Z" fill="currentColor"/>
<path d="M69.5901 20.3L64.3501 22.48C64.0001 22.63 63.8301 23.03 63.9801 23.39C64.0901 23.66 64.3501 23.82 64.6201 23.82C64.7101 23.82 64.8001 23.8 64.8801 23.77L70.1201 21.59C70.4701 21.44 70.6401 21.04 70.4901 20.68C70.3501 20.32 69.9401 20.16 69.5901 20.3Z" fill="currentColor"/>
<path d="M24.1401 10.22L26.7801 16.57C26.8901 16.83 27.1501 17 27.4201 17C27.5101 17 27.6001 16.98 27.6801 16.95C28.0301 16.8 28.2001 16.4 28.0601 16.05L25.4201 9.69999C25.2701 9.34999 24.8701 9.17999 24.5201 9.32999C24.1601 9.45999 24.0001 9.86999 24.1401 10.22Z" fill="currentColor"/>
<path d="M24.1401 10.22L26.7801 16.57C26.8901 16.83 27.1501 17 27.4201 17C27.5101 17 27.6001 16.98 27.6801 16.95C28.0301 16.8 28.2001 16.4 28.0601 16.05L25.4201 9.69999C25.2701 9.34999 24.8701 9.17999 24.5201 9.32999C24.1601 9.45999 24.0001 9.86999 24.1401 10.22Z" fill="currentColor"/>
<path d="M23.0301 7.5C23.1401 7.76 23.4001 7.93 23.6701 7.93C23.7601 7.93 23.8501 7.91 23.9301 7.88C24.2801 7.74 24.4501 7.33 24.3101 6.98L21.5901 0.430002C21.4401 0.0800017 21.0401 -0.0899983 20.6901 0.0600017C20.3401 0.210002 20.1701 0.610002 20.3201 0.960002L23.0301 7.5Z" fill="currentColor"/>
<path d="M23.0301 7.5C23.1401 7.76 23.4001 7.93 23.6701 7.93C23.7601 7.93 23.8501 7.91 23.9301 7.88C24.2801 7.74 24.4501 7.33 24.3101 6.98L21.5901 0.430002C21.4401 0.0800017 21.0401 -0.0899983 20.6901 0.0600017C20.3401 0.210002 20.1701 0.610002 20.3201 0.960002L23.0301 7.5Z" fill="currentColor"/>
<path d="M56.4401 42.88C56.3601 38.44 56.8901 34.27 57.5801 33.97C57.6301 33.97 57.7001 33.97 57.7801 34.06C58.3901 34.71 58.4701 37.2 58.3301 38.77C58.1701 39.5 58.0201 40.16 57.8901 40.75C57.6901 41.67 57.5201 42.45 57.3401 43.2C57.0701 43.07 56.7701 42.96 56.4401 42.88ZM54.1601 43.43C53.8301 40.97 53.7101 38.05 54.3601 37.28C54.4401 37.19 54.4901 37.18 54.5401 37.18C54.7601 37.18 55.0401 37.76 55.1701 38.3C55.0501 39.86 55.0401 41.5 55.0701 42.9C54.7301 43.01 54.4401 43.19 54.1601 43.43ZM51.8301 41.09C52.0001 41.06 52.3501 41.35 52.5801 41.62C52.6801 42.97 52.8701 44.21 52.9901 44.86C52.7801 45.17 52.5801 45.5 52.3601 45.85C52.2901 45.97 52.2101 46.09 52.1301 46.21C51.6501 43.67 51.5101 41.44 51.8301 41.09ZM15.4801 42.9C15.5101 41.5 15.5001 39.86 15.3801 38.3C15.5101 37.76 15.7901 37.19 16.0101 37.18C16.0401 37.17 16.1101 37.19 16.1901 37.28C16.8301 38.05 16.7201 40.97 16.3901 43.43C16.1101 43.19 15.8201 43.01 15.4801 42.9ZM12.6601 40.75C12.5301 40.15 12.3901 39.5 12.2201 38.77C12.0801 37.19 12.1601 34.71 12.7701 34.07C12.8601 33.98 12.9101 33.97 12.9501 33.97C13.6501 34.27 14.1801 38.44 14.1101 42.88C13.7701 42.96 13.4701 43.07 13.2201 43.2C13.0301 42.45 12.8601 41.67 12.6601 40.75ZM18.6501 41.06C19.0201 41.44 18.8901 43.67 18.4101 46.2C18.3401 46.08 18.2601 45.96 18.1901 45.84C17.9701 45.49 17.7701 45.16 17.5601 44.85C17.6701 44.2 17.8701 42.96 17.9701 41.6C18.1801 41.35 18.5101 41.06 18.6501 41.06ZM63.4301 31.98C62.1801 31.7 60.6301 33.31 59.6001 35.14C59.4601 34.33 59.2101 33.58 58.7801 33.12C58.4401 32.76 57.9901 32.56 57.5401 32.6C56.4201 32.64 55.7901 34.13 55.4401 36.12C55.1901 35.94 54.9101 35.82 54.5501 35.81H54.5401C54.0601 35.81 53.6301 36.01 53.3101 36.4C52.7301 37.09 52.5401 38.43 52.5301 39.85C52.2501 39.73 51.9301 39.67 51.5901 39.73C51.3501 39.78 51.0101 39.92 50.7401 40.32C49.8001 41.77 50.7401 46.31 51.0801 47.8C50.6201 48.44 50.1101 49.08 49.4901 49.7C48.1701 51.01 46.0201 52.06 43.7501 53.16C40.9901 54.49 38.1401 55.88 36.0001 58.02C35.7501 58.27 35.5001 58.61 35.2801 59C35.0601 58.61 34.8101 58.27 34.5701 58.02C32.4301 55.88 29.5801 54.49 26.8201 53.16C24.5401 52.06 22.3901 51.02 21.0801 49.7C20.4601 49.08 19.9501 48.44 19.4901 47.8C19.8301 46.31 20.7701 41.77 19.8301 40.32C19.5701 39.91 19.2201 39.77 18.9801 39.73C18.6401 39.66 18.3201 39.72 18.0401 39.84C18.0301 38.41 17.8401 37.08 17.2601 36.39C16.9401 36 16.5101 35.8 16.0301 35.8H16.0201C15.6601 35.8 15.3801 35.93 15.1301 36.11C14.7801 34.12 14.1501 32.63 13.0301 32.59C12.5601 32.56 12.1201 32.75 11.7901 33.11C11.3601 33.57 11.1101 34.32 10.9701 35.13C9.94006 33.3 8.39006 31.7 7.14006 31.97C5.39006 32.35 5.80006 35.34 6.25006 37.55C6.47006 38.61 6.68006 39.72 6.90006 40.86C8.10006 47.15 9.47006 54.27 12.7401 57.54C15.6101 60.41 17.5401 61.63 19.2501 62.71C20.6401 63.59 21.8301 64.34 23.3301 65.83C23.9801 66.47 24.3301 67.33 24.3301 68.23V71.83C24.3301 72.21 24.6401 72.52 25.0201 72.52C25.4001 72.52 25.7101 72.21 25.7101 71.83V68.23C25.7101 66.96 25.2101 65.76 24.3001 64.85C22.7001 63.25 21.3801 62.42 19.9901 61.54C18.3401 60.5 16.4801 59.32 13.7201 56.56C10.7401 53.58 9.42006 46.68 8.26006 40.59C8.04006 39.44 7.83006 38.32 7.61006 37.26C6.91006 33.85 7.46006 33.3 7.45006 33.3C8.02006 33.23 10.0901 35.42 10.6601 37.91C10.9401 39.13 11.1601 40.13 11.3501 41.02C12.1301 44.58 12.4801 46.2 14.6001 51.34C16.0801 54.95 20.1201 57.16 20.2901 57.25C20.6201 57.43 21.0401 57.3 21.2201 56.97C21.4001 56.64 21.2801 56.22 20.9401 56.04C20.9001 56.02 17.1701 53.97 15.8701 50.81C14.6901 47.93 14.0701 46.18 13.6101 44.55C13.9101 44.36 14.3901 44.11 14.9201 44.14C15.5901 44.18 16.2301 45.22 17.0501 46.53C17.3801 47.06 17.7501 47.65 18.1701 48.26C18.1801 48.28 18.1901 48.29 18.2001 48.31C18.7401 49.08 19.3601 49.88 20.1201 50.65C21.6001 52.13 23.8501 53.22 26.2301 54.37C28.8901 55.66 31.6301 56.99 33.6101 58.96C34.0101 59.36 34.6101 60.41 34.6101 61.37V69.79C34.6101 70.17 34.9201 70.48 35.3001 70.48C35.6801 70.48 35.9901 70.17 35.9901 69.79V61.4C35.9901 60.44 36.5901 59.4 36.9901 58.99C38.9601 57.01 41.7101 55.68 44.3601 54.4C46.7401 53.25 49.0001 52.15 50.4701 50.68C51.2301 49.92 51.8601 49.11 52.3901 48.34C52.4001 48.32 52.4101 48.31 52.4201 48.29C52.8401 47.68 53.2101 47.09 53.5401 46.56C54.3601 45.24 55.0001 44.2 55.6701 44.17C56.2001 44.14 56.6801 44.39 56.9801 44.58C56.5201 46.2 55.9101 47.95 54.7201 50.83C53.4301 53.98 49.6901 56.04 49.6501 56.06C49.3201 56.24 49.1901 56.66 49.3701 56.99C49.5501 57.32 49.9701 57.45 50.3001 57.27C50.4701 57.18 54.5101 54.97 55.9901 51.36C58.1001 46.22 58.4601 44.6 59.2301 41.05C59.4201 40.16 59.6401 39.15 59.9301 37.93C60.5101 35.44 62.6501 33.25 63.1201 33.31C63.1301 33.31 63.6801 33.86 62.9701 37.28C62.7501 38.35 62.5401 39.47 62.3201 40.61C61.1501 46.7 59.8301 53.61 56.8601 56.58C54.1001 59.34 52.2301 60.52 50.5901 61.56C49.2001 62.44 47.8801 63.27 46.2701 64.87C45.3601 65.78 44.8701 66.97 44.8701 68.25V71.85C44.8701 72.23 45.1801 72.54 45.5601 72.54C45.9401 72.54 46.2501 72.23 46.2501 71.85V68.25C46.2501 67.34 46.6101 66.49 47.2501 65.85C48.7501 64.36 49.9401 63.61 51.3301 62.73C53.0401 61.65 54.9701 60.43 57.8401 57.56C61.1101 54.29 62.4801 47.16 63.6801 40.87C63.9001 39.73 64.1101 38.62 64.3301 37.56C64.7701 35.35 65.1701 32.37 63.4301 31.98Z" fill="currentColor"/>
<path d="M56.4401 42.88C56.3601 38.44 56.8901 34.27 57.5801 33.97C57.6301 33.97 57.7001 33.97 57.7801 34.06C58.3901 34.71 58.4701 37.2 58.3301 38.77C58.1701 39.5 58.0201 40.16 57.8901 40.75C57.6901 41.67 57.5201 42.45 57.3401 43.2C57.0701 43.07 56.7701 42.96 56.4401 42.88ZM54.1601 43.43C53.8301 40.97 53.7101 38.05 54.3601 37.28C54.4401 37.19 54.4901 37.18 54.5401 37.18C54.7601 37.18 55.0401 37.76 55.1701 38.3C55.0501 39.86 55.0401 41.5 55.0701 42.9C54.7301 43.01 54.4401 43.19 54.1601 43.43ZM51.8301 41.09C52.0001 41.06 52.3501 41.35 52.5801 41.62C52.6801 42.97 52.8701 44.21 52.9901 44.86C52.7801 45.17 52.5801 45.5 52.3601 45.85C52.2901 45.97 52.2101 46.09 52.1301 46.21C51.6501 43.67 51.5101 41.44 51.8301 41.09ZM15.4801 42.9C15.5101 41.5 15.5001 39.86 15.3801 38.3C15.5101 37.76 15.7901 37.19 16.0101 37.18C16.0401 37.17 16.1101 37.19 16.1901 37.28C16.8301 38.05 16.7201 40.97 16.3901 43.43C16.1101 43.19 15.8201 43.01 15.4801 42.9ZM12.6601 40.75C12.5301 40.15 12.3901 39.5 12.2201 38.77C12.0801 37.19 12.1601 34.71 12.7701 34.07C12.8601 33.98 12.9101 33.97 12.9501 33.97C13.6501 34.27 14.1801 38.44 14.1101 42.88C13.7701 42.96 13.4701 43.07 13.2201 43.2C13.0301 42.45 12.8601 41.67 12.6601 40.75ZM18.6501 41.06C19.0201 41.44 18.8901 43.67 18.4101 46.2C18.3401 46.08 18.2601 45.96 18.1901 45.84C17.9701 45.49 17.7701 45.16 17.5601 44.85C17.6701 44.2 17.8701 42.96 17.9701 41.6C18.1801 41.35 18.5101 41.06 18.6501 41.06ZM63.4301 31.98C62.1801 31.7 60.6301 33.31 59.6001 35.14C59.4601 34.33 59.2101 33.58 58.7801 33.12C58.4401 32.76 57.9901 32.56 57.5401 32.6C56.4201 32.64 55.7901 34.13 55.4401 36.12C55.1901 35.94 54.9101 35.82 54.5501 35.81H54.5401C54.0601 35.81 53.6301 36.01 53.3101 36.4C52.7301 37.09 52.5401 38.43 52.5301 39.85C52.2501 39.73 51.9301 39.67 51.5901 39.73C51.3501 39.78 51.0101 39.92 50.7401 40.32C49.8001 41.77 50.7401 46.31 51.0801 47.8C50.6201 48.44 50.1101 49.08 49.4901 49.7C48.1701 51.01 46.0201 52.06 43.7501 53.16C40.9901 54.49 38.1401 55.88 36.0001 58.02C35.7501 58.27 35.5001 58.61 35.2801 59C35.0601 58.61 34.8101 58.27 34.5701 58.02C32.4301 55.88 29.5801 54.49 26.8201 53.16C24.5401 52.06 22.3901 51.02 21.0801 49.7C20.4601 49.08 19.9501 48.44 19.4901 47.8C19.8301 46.31 20.7701 41.77 19.8301 40.32C19.5701 39.91 19.2201 39.77 18.9801 39.73C18.6401 39.66 18.3201 39.72 18.0401 39.84C18.0301 38.41 17.8401 37.08 17.2601 36.39C16.9401 36 16.5101 35.8 16.0301 35.8H16.0201C15.6601 35.8 15.3801 35.93 15.1301 36.11C14.7801 34.12 14.1501 32.63 13.0301 32.59C12.5601 32.56 12.1201 32.75 11.7901 33.11C11.3601 33.57 11.1101 34.32 10.9701 35.13C9.94006 33.3 8.39006 31.7 7.14006 31.97C5.39006 32.35 5.80006 35.34 6.25006 37.55C6.47006 38.61 6.68006 39.72 6.90006 40.86C8.10006 47.15 9.47006 54.27 12.7401 57.54C15.6101 60.41 17.5401 61.63 19.2501 62.71C20.6401 63.59 21.8301 64.34 23.3301 65.83C23.9801 66.47 24.3301 67.33 24.3301 68.23V71.83C24.3301 72.21 24.6401 72.52 25.0201 72.52C25.4001 72.52 25.7101 72.21 25.7101 71.83V68.23C25.7101 66.96 25.2101 65.76 24.3001 64.85C22.7001 63.25 21.3801 62.42 19.9901 61.54C18.3401 60.5 16.4801 59.32 13.7201 56.56C10.7401 53.58 9.42006 46.68 8.26006 40.59C8.04006 39.44 7.83006 38.32 7.61006 37.26C6.91006 33.85 7.46006 33.3 7.45006 33.3C8.02006 33.23 10.0901 35.42 10.6601 37.91C10.9401 39.13 11.1601 40.13 11.3501 41.02C12.1301 44.58 12.4801 46.2 14.6001 51.34C16.0801 54.95 20.1201 57.16 20.2901 57.25C20.6201 57.43 21.0401 57.3 21.2201 56.97C21.4001 56.64 21.2801 56.22 20.9401 56.04C20.9001 56.02 17.1701 53.97 15.8701 50.81C14.6901 47.93 14.0701 46.18 13.6101 44.55C13.9101 44.36 14.3901 44.11 14.9201 44.14C15.5901 44.18 16.2301 45.22 17.0501 46.53C17.3801 47.06 17.7501 47.65 18.1701 48.26C18.1801 48.28 18.1901 48.29 18.2001 48.31C18.7401 49.08 19.3601 49.88 20.1201 50.65C21.6001 52.13 23.8501 53.22 26.2301 54.37C28.8901 55.66 31.6301 56.99 33.6101 58.96C34.0101 59.36 34.6101 60.41 34.6101 61.37V69.79C34.6101 70.17 34.9201 70.48 35.3001 70.48C35.6801 70.48 35.9901 70.17 35.9901 69.79V61.4C35.9901 60.44 36.5901 59.4 36.9901 58.99C38.9601 57.01 41.7101 55.68 44.3601 54.4C46.7401 53.25 49.0001 52.15 50.4701 50.68C51.2301 49.92 51.8601 49.11 52.3901 48.34C52.4001 48.32 52.4101 48.31 52.4201 48.29C52.8401 47.68 53.2101 47.09 53.5401 46.56C54.3601 45.24 55.0001 44.2 55.6701 44.17C56.2001 44.14 56.6801 44.39 56.9801 44.58C56.5201 46.2 55.9101 47.95 54.7201 50.83C53.4301 53.98 49.6901 56.04 49.6501 56.06C49.3201 56.24 49.1901 56.66 49.3701 56.99C49.5501 57.32 49.9701 57.45 50.3001 57.27C50.4701 57.18 54.5101 54.97 55.9901 51.36C58.1001 46.22 58.4601 44.6 59.2301 41.05C59.4201 40.16 59.6401 39.15 59.9301 37.93C60.5101 35.44 62.6501 33.25 63.1201 33.31C63.1301 33.31 63.6801 33.86 62.9701 37.28C62.7501 38.35 62.5401 39.47 62.3201 40.61C61.1501 46.7 59.8301 53.61 56.8601 56.58C54.1001 59.34 52.2301 60.52 50.5901 61.56C49.2001 62.44 47.8801 63.27 46.2701 64.87C45.3601 65.78 44.8701 66.97 44.8701 68.25V71.85C44.8701 72.23 45.1801 72.54 45.5601 72.54C45.9401 72.54 46.2501 72.23 46.2501 71.85V68.25C46.2501 67.34 46.6101 66.49 47.2501 65.85C48.7501 64.36 49.9401 63.61 51.3301 62.73C53.0401 61.65 54.9701 60.43 57.8401 57.56C61.1101 54.29 62.4801 47.16 63.6801 40.87C63.9001 39.73 64.1101 38.62 64.3301 37.56C64.7701 35.35 65.1701 32.37 63.4301 31.98Z" fill="currentColor"/>
</g>
<defs>
<clipPath id="clip0">
<rect width="70.55" height="72.54" fill="currentColor"/>
</clipPath>
</defs>
</svg>
