<svg width="75" height="77" viewBox="0 0 75 77" fill="none" xmlns="http://www.w3.org/2000/svg">
<g clip-path="url(#clip0)">
<path d="M24 35.9C24 43.5 36.3 51 36.8 51.3C36.9 51.4 37 51.4 37.2 51.4C37.3 51.4 37.5 51.4 37.6 51.3C38 51 50.3 43.3 50.2 35.8C50.2 30.4 46.5 27.9 43 27.9C39.9 27.9 38 29.8 37 31.6C36 29.8 34.1 27.9 31 27.9C27.6 27.9 24 30.4 24 35.9ZM31.1 29.3C35.3 29.3 36.4 33.5 36.4 33.7C36.5 34 36.8 34.2 37.1 34.2C37.4 34.2 37.7 34 37.8 33.7C37.8 33.7 38.9 29.3 43.1 29.3C45.9 29.3 48.8 31.3 48.8 35.8C48.8 41.9 39.2 48.5 37.1 49.8C35.1 48.5 25.4 41.9 25.3 35.8C25.4 31.4 28.2 29.3 31.1 29.3Z" fill="currentColor" stroke="currentColor" stroke-width="0.75" stroke-miterlimit="10"/>
<path d="M37.0999 51.6C36.8999 51.6 36.7999 51.6 36.5999 51.5C36.0999 51.2 23.7 43.6 23.7 35.9C23.7 30.3 27.5 27.7 31.1 27.7C34.4 27.7 36.1999 29.7 37.0999 31.1C37.9999 29.7 39.7999 27.6 43.0999 27.6C46.6999 27.6 50.5 30.1 50.5 35.7C50.5 43.4 38.2 51.1 37.7 51.4C37.5 51.6 37.2999 51.6 37.0999 51.6ZM24.2 35.9C24.2 43.3 36.4 50.8 36.9 51.1C37 51.2 37.2 51.2 37.4 51.1C37.9 50.8 50 43.2 50 35.8C50 30.5 46.3999 28.1 43.0999 28.1C39.7999 28.1 38.0999 30.4 37.2999 31.7L37.0999 32.1L36.9 31.7C36.2 30.4 34.5 28.1 31.1 28.1C27.8 28.2 24.2 30.6 24.2 35.9ZM37.0999 50.1L37 50C35 48.7 25.1 42 25.1 35.8C25.1 31.1 28.1 29 31.1 29C35.5 29 36.5999 33.4 36.5999 33.6C36.5999 33.8 36.8 34 37 34C37.2 34 37.4 33.9 37.4 33.6C37.4 33.6 38.5 29 43 29C46 29 49 31.1 49 35.7C49 41.9 39.2 48.7 37.2 50L37.0999 50.1ZM31.1 29.6C28.4 29.6 25.6 31.6 25.6 35.9C25.6 41.7 34.8999 48.1 37.0999 49.6C39.2999 48.1 48.5 41.7 48.5 35.9C48.5 31.6 45.7 29.7 43 29.7C39 29.7 37.9 33.9 37.9 33.9C37.8 34.3 37.4 34.6 37 34.6C36.6 34.6 36.1999 34.3 36.0999 33.9C36.0999 33.6 35.1 29.6 31.1 29.6Z" fill="currentColor" stroke="currentColor" stroke-width="0.75" stroke-miterlimit="10"/>
<path d="M37.1 22.6C37.5 22.6 37.8 22.3 37.8 21.9V15.5C37.8 15.1 37.5 14.8 37.1 14.8C36.7 14.8 36.4 15.1 36.4 15.5V21.9C36.4 22.3 36.7 22.6 37.1 22.6Z" fill="currentColor" stroke="currentColor" stroke-width="0.75" stroke-miterlimit="10"/>
<path d="M37.1 22.9C36.6 22.9 36.1 22.5 36.1 21.9V15.5C36.1 15 36.5 14.5 37.1 14.5C37.7 14.5 38.1 14.9 38.1 15.5V21.9C38.1 22.4 37.6 22.9 37.1 22.9ZM37.1 15C36.8 15 36.6 15.2 36.6 15.5V21.9C36.6 22.2 36.8 22.4 37.1 22.4C37.4 22.4 37.6 22.2 37.6 21.9V15.5C37.6 15.2 37.3 15 37.1 15Z" fill="currentColor" stroke="currentColor" stroke-width="0.75" stroke-miterlimit="10"/>
<path d="M37.1 13.1001C37.5 13.1001 37.8 12.8001 37.8 12.4001V9.40007C37.8 9.00007 37.5 8.70007 37.1 8.70007C36.7 8.70007 36.4 9.00007 36.4 9.40007V12.4001C36.4 12.8001 36.7 13.1001 37.1 13.1001Z" fill="currentColor" stroke="currentColor" stroke-width="0.75" stroke-miterlimit="10"/>
<path d="M37.1 13.4C36.6 13.4 36.1 13 36.1 12.4V9.40002C36.1 8.90002 36.5 8.40002 37.1 8.40002C37.7 8.40002 38.1 8.80002 38.1 9.40002V12.4C38.1 13 37.6 13.4 37.1 13.4ZM37.1 9.00002C36.8 9.00002 36.6 9.20002 36.6 9.50002V12.5C36.6 12.8 36.8 13 37.1 13C37.4 13 37.6 12.8 37.6 12.5V9.50002C37.6 9.20002 37.3 9.00002 37.1 9.00002Z" fill="currentColor" stroke="currentColor" stroke-width="0.75" stroke-miterlimit="10"/>
<path d="M49.2 24L47.4 25.8C47.1 26.1 47.1 26.5 47.4 26.8C47.5 26.9 47.7 27 47.9 27C48.1 27 48.3 26.9 48.4 26.8L50.2 25C50.5 24.7 50.5 24.3 50.2 24C49.9 23.7 49.4 23.7 49.2 24Z" fill="currentColor" stroke="currentColor" stroke-width="0.75" stroke-miterlimit="10"/>
<path d="M47.8 27.3C47.5 27.3 47.3 27.2 47.1 27C46.9 26.8 46.8 26.6 46.8 26.3C46.8 26 46.9 25.8 47.1 25.6L48.9001 23.8C49.1001 23.6 49.3 23.5 49.6 23.5C49.9 23.5 50.1 23.6 50.3 23.8C50.5 24 50.6 24.2 50.6 24.5C50.6 24.8 50.5 25 50.3 25.2L48.5 27C48.3 27.2 48.1 27.3 47.8 27.3ZM49.3 24.2L47.5 26C47.4 26.1 47.4001 26.2 47.4001 26.3C47.4001 26.4 47.4 26.5 47.5 26.6C47.7 26.8 48 26.8 48.1 26.6L49.9001 24.8C50.0001 24.7 50 24.6 50 24.5C50 24.4 50.0001 24.3 49.9001 24.2C49.8001 24.1 49.7 24.1 49.6 24.1C49.6 24.1 49.4 24.1 49.3 24.2Z" fill="currentColor" stroke="currentColor" stroke-width="0.75" stroke-miterlimit="10"/>
<path d="M51.1 23.1C51.2 23.2 51.4 23.3 51.6 23.3C51.8 23.3 52 23.2 52.1 23.1L57.1 18.1C57.4 17.8 57.4 17.4 57.1 17.1C56.8 16.8 56.4 16.8 56.1 17.1L51.1 22.1C50.8 22.3 50.8 22.8 51.1 23.1Z" fill="currentColor" stroke="currentColor" stroke-width="0.75" stroke-miterlimit="10"/>
<path d="M51.6 23.5C51.3 23.5 51.1 23.4 50.9 23.2C50.7 23 50.6 22.8 50.6 22.5C50.6 22.2 50.7 22 50.9 21.8L55.9 16.8C56.3 16.4 56.9 16.4 57.3 16.8C57.5 17 57.6 17.2 57.6 17.5C57.6 17.8 57.5 18 57.3 18.2L52.3 23.2C52.1 23.4 51.9 23.5 51.6 23.5ZM51.3 22.9C51.5 23.1 51.8 23.1 51.9 22.9L56.9 17.9C57 17.8 57 17.7 57 17.6C57 17.5 57 17.4 56.9 17.3C56.7 17.1 56.4 17.1 56.3 17.3L51.3 22.3C51.2 22.4 51.2 22.5 51.2 22.6C51.2 22.7 51.2 22.8 51.3 22.9Z" fill="currentColor" stroke="currentColor" stroke-width="0.75" stroke-miterlimit="10"/>
<path d="M25.8 26.8C25.9 26.9 26.1 27 26.3 27C26.5 27 26.7 26.9 26.8 26.8C27.1 26.5 27.1 26.1 26.8 25.8L22 21C21.7 20.7 21.3 20.7 21 21C20.7 21.3 20.7 21.7 21 22L25.8 26.8Z" fill="currentColor" stroke="currentColor" stroke-width="0.75" stroke-miterlimit="10"/>
<path d="M26.3 27.3C26 27.3 25.8 27.2 25.6 27L20.8 22.2C20.6 22 20.5 21.8 20.5 21.5C20.5 21.2 20.6 21 20.8 20.8C21 20.6 21.2 20.5 21.5 20.5C21.8 20.5 22 20.6 22.2 20.8L27 25.6C27.2 25.8 27.3 26 27.3 26.3C27.3 26.6 27.2 26.8 27 27C26.8 27.2 26.6 27.3 26.3 27.3ZM26 26.7C26.2 26.9 26.5 26.9 26.6 26.7C26.7 26.6 26.7 26.5 26.7 26.4C26.7 26.3 26.7 26.2 26.6 26.1L21.8 21.3C21.7 21.2 21.6 21.2 21.5 21.2C21.4 21.2 21.3 21.2 21.2 21.3C21.1 21.4 21.1 21.5 21.1 21.6C21.1 21.7 21.1 21.8 21.2 21.9L26 26.7Z" fill="currentColor" stroke="currentColor" stroke-width="0.75" stroke-miterlimit="10"/>
<path d="M19.3 20.3C19.4 20.4 19.6 20.5 19.8 20.5C20 20.5 20.2 20.4 20.3 20.3C20.6 20 20.6 19.6 20.3 19.3L18 17C17.7 16.7 17.3 16.7 17 17C16.7 17.3 16.7 17.7 17 18L19.3 20.3Z" fill="currentColor" stroke="currentColor" stroke-width="0.75" stroke-miterlimit="10"/>
<path d="M19.8 20.8C19.5 20.8 19.3 20.7 19.1 20.5L16.8 18.2C16.6 18 16.5 17.8 16.5 17.5C16.5 17.2 16.6 17 16.8 16.8C17 16.6 17.2 16.5 17.5 16.5C17.8 16.5 18 16.6 18.2 16.8L20.5 19.1C20.7 19.3 20.8 19.5 20.8 19.8C20.8 20.1 20.7 20.3 20.5 20.5C20.3 20.7 20.1 20.8 19.8 20.8ZM17.5 17.1C17.4 17.1 17.3 17.1 17.2 17.2C17.1 17.3 17.1 17.4 17.1 17.5C17.1 17.6 17.1 17.7 17.2 17.8L19.5 20.1C19.7 20.3 20 20.3 20.1 20.1C20.2 20 20.2 19.9 20.2 19.8C20.2 19.7 20.2 19.6 20.1 19.5L17.8 17.2C17.8 17.1 17.6 17.1 17.5 17.1Z" fill="currentColor" stroke="currentColor" stroke-width="0.75" stroke-miterlimit="10"/>
<path d="M45 18.1001C45.1 18.1001 45.2 18.2001 45.3 18.2001C45.6 18.2001 45.8 18.0001 46 17.8001L49.5 9.40006C49.7 9.00006 49.5 8.60006 49.1 8.50006C48.7 8.40006 48.3 8.50006 48.2 8.90006L44.7 17.3001C44.4 17.5001 44.6 18.0001 45 18.1001Z" fill="currentColor" stroke="currentColor" stroke-width="0.75" stroke-miterlimit="10"/>
<path d="M45.2 18.4C45.1 18.4 44.9 18.4 44.8 18.3C44.6 18.2 44.4 18 44.3 17.8C44.2 17.6 44.2 17.3 44.3 17.1L47.8 8.7C47.9 8.5 48.1 8.3 48.3 8.2C48.5 8.1 48.8 8.1 49 8.2C49.2 8.3 49.4 8.5 49.5 8.7C49.6 8.9 49.6 9.2 49.5 9.4L46 17.8C46 18.2 45.6 18.4 45.2 18.4ZM48.7 8.6C48.6 8.6 48.6 8.6 48.5 8.6C48.4 8.6 48.3 8.7 48.2 8.8L44.7 17.2C44.7 17.3 44.7 17.4 44.7 17.6C44.7 17.8 44.8 17.8 44.9 17.8C45.1 17.9 45.4 17.8 45.5 17.6L49 9.2C49 9.1 49 9 49 8.8C49 8.7 48.9 8.6 48.8 8.6C48.8 8.6 48.8 8.6 48.7 8.6Z" fill="currentColor" stroke="currentColor" stroke-width="0.75" stroke-miterlimit="10"/>
<path d="M17.4999 29.7C17.7999 29.7 17.9999 29.5 18.1999 29.3C18.2999 28.9 18.1999 28.5 17.7999 28.4L6.99991 23.9C6.59991 23.7 6.19991 23.9 6.09991 24.3C5.99991 24.7 6.09991 25.1 6.49991 25.2L17.1999 29.6C17.2999 29.7 17.3999 29.7 17.4999 29.7Z" fill="currentColor" stroke="currentColor" stroke-width="0.75" stroke-miterlimit="10"/>
<path d="M17.5 29.9C17.4 29.9 17.2 29.9 17.1 29.8L6.39995 25.4C6.19995 25.3 5.99995 25.1 5.89995 24.9C5.79995 24.7 5.79995 24.4 5.89995 24.2C5.99995 24 6.19995 23.8 6.39995 23.7C6.59995 23.6 6.89995 23.6 7.09995 23.7L17.8 28.1C18.3 28.3 18.5 28.9 18.3 29.4C18.2 29.7 17.8 29.9 17.5 29.9ZM6.69995 24.1C6.59995 24.1 6.59995 24.1 6.49995 24.1C6.39995 24.1 6.29995 24.2 6.19995 24.4C6.19995 24.5 6.19995 24.6 6.19995 24.8C6.19995 24.9 6.29995 25 6.39995 25L17.1 29.4C17.3 29.5 17.6 29.4 17.7 29.2C17.8 29 17.7 28.7 17.4 28.6L6.89995 24.1C6.79995 24.1 6.79995 24.1 6.69995 24.1Z" fill="currentColor" stroke="currentColor" stroke-width="0.75" stroke-miterlimit="10"/>
<path d="M3.79998 22.4999L1.69998 21.5999C1.29998 21.3999 0.899984 21.5999 0.799984 21.9999C0.699984 22.3999 0.799984 22.7999 1.19998 22.8999L3.29998 23.7999C3.39998 23.7999 3.49998 23.8999 3.59998 23.8999C3.89998 23.8999 4.09998 23.6999 4.29998 23.4999C4.29998 23.0999 4.09998 22.6999 3.79998 22.4999Z" fill="currentColor" stroke="currentColor" stroke-width="0.75" stroke-miterlimit="10"/>
<path d="M3.49998 24.1C3.39998 24.1 3.19998 24.1 3.09998 24L0.999981 23.2C0.499981 23 0.299981 22.4 0.499981 21.9C0.699981 21.4 1.29998 21.2 1.79998 21.4L3.89998 22.3C4.09998 22.4 4.29998 22.6 4.39998 22.8C4.49998 23 4.49998 23.3 4.39998 23.5C4.19998 23.9 3.89998 24.1 3.49998 24.1ZM1.29998 21.8C1.09998 21.8 0.899981 21.9 0.899981 22.1C0.799981 22.3 0.899981 22.6 1.09998 22.7L3.19998 23.6C3.39998 23.7 3.69998 23.6 3.79998 23.4C3.79998 23.3 3.79998 23.2 3.79998 23C3.79998 22.8 3.69998 22.8 3.59998 22.8L1.49998 21.9C1.49998 21.8 1.39998 21.8 1.29998 21.8Z" fill="currentColor" stroke="currentColor" stroke-width="0.75" stroke-miterlimit="10"/>
<path d="M56.1001 29.1999C56.2001 29.4999 56.5001 29.5999 56.8001 29.5999C56.9001 29.5999 57.0001 29.5999 57.1001 29.4999L58.7001 28.7999C59.1001 28.5999 59.2001 28.1999 59.1001 27.8999C58.9001 27.4999 58.5001 27.3999 58.2001 27.4999L56.6001 28.1999C56.1001 28.4999 55.9001 28.8999 56.1001 29.1999Z" fill="currentColor" stroke="currentColor" stroke-width="0.75" stroke-miterlimit="10"/>
<path d="M56.7 29.9C56.3 29.9 56 29.7 55.8 29.3C55.6 28.8 55.8 28.2 56.3 28L57.9 27.3C58.1 27.2 58.4 27.2 58.6 27.3C58.8 27.4 59 27.6 59.1 27.8C59.2 28 59.2 28.3 59.1 28.5C59 28.7 58.8 28.9 58.6 29L57 29.7C57 29.9 56.9 29.9 56.7 29.9ZM56.3 29.1C56.4 29.3 56.7 29.4 56.9 29.3L58.5 28.6C58.6 28.6 58.7 28.5 58.7 28.4C58.7 28.3 58.7 28.2 58.7 28C58.7 27.8 58.6 27.8 58.5 27.8C58.4 27.8 58.3 27.8 58.1 27.8L56.5 28.5C56.3 28.6 56.2 28.9 56.3 29.1Z" fill="currentColor" stroke="currentColor" stroke-width="0.75" stroke-miterlimit="10"/>
<path d="M60.8 28C60.9 28 61 28 61.1 27.9L64.8 26.4C65.2 26.2 65.3 25.8 65.2 25.5C65 25.1 64.6 25 64.3 25.1L60.6 26.6C60.2 26.8 60.1 27.2 60.2 27.5C60.2 27.8 60.5 28 60.8 28Z" fill="currentColor" stroke="currentColor" stroke-width="0.75" stroke-miterlimit="10"/>
<path d="M60.7999 28.2C60.3999 28.2 60.1 28 59.9 27.6C59.8 27.4 59.8 27.1 59.9 26.9C60 26.7 60.2 26.5 60.4 26.4L64.0999 24.9C64.5999 24.7 65.1 24.9 65.4 25.4C65.6 25.9 65.4 26.5 64.9 26.7L61.2 28.2C61 28.2 60.8999 28.2 60.7999 28.2ZM64.4999 25.3C64.3999 25.3 64.4 25.3 64.3 25.3L60.5999 26.8C60.4999 26.8 60.4 26.9 60.4 27C60.4 27.1 60.4 27.2 60.4 27.4C60.5 27.6 60.7999 27.7 60.9999 27.6L64.6999 26.1C64.8999 26 65 25.7 64.9 25.5C64.9 25.4 64.6999 25.3 64.4999 25.3Z" fill="currentColor" stroke="currentColor" stroke-width="0.75" stroke-miterlimit="10"/>
<path d="M72.6 21.6L67.2 23.8C66.8 24 66.7 24.4 66.8 24.7C66.9 25 67.2 25.1 67.5 25.1C67.6 25.1 67.7 25.1 67.8 25L73.2 22.8C73.6 22.6 73.7 22.2 73.6 21.9C73.4 21.6 72.9 21.5 72.6 21.6Z" fill="currentColor" stroke="currentColor" stroke-width="0.75" stroke-miterlimit="10"/>
<path d="M67.5 25.5C67.1 25.5 66.8 25.3 66.6 24.9C66.4 24.4 66.6 23.8 67.1 23.6L72.5 21.4C72.7 21.3 73 21.3 73.2 21.4C73.4 21.5 73.6 21.7 73.7 21.9C73.8 22.1 73.8 22.4 73.7 22.6C73.6 22.8 73.4 23 73.2 23.1L67.8 25.3C67.7 25.5 67.6 25.5 67.5 25.5ZM72.7 21.9L67.3 24.1C67.1 24.2 67 24.5 67 24.7C67.1 24.9 67.4 25 67.6 24.9L73 22.7C73.1 22.7 73.2 22.6 73.2 22.5C73.2 22.4 73.2 22.3 73.2 22.1C73.2 22 73.1 21.9 73 21.9C72.9 21.8 72.8 21.8 72.7 21.9Z" fill="currentColor" stroke="currentColor" stroke-width="0.75" stroke-miterlimit="10"/>
<path d="M25.6 11.2L28.3 17.7C28.4 18 28.7 18.1 29 18.1C29.1 18.1 29.2 18.1 29.3 18C29.7 17.9 29.8 17.4 29.7 17.1L27 10.6C26.8 10.2 26.4 10.1 26.1 10.2C25.6 10.4 25.4 10.8 25.6 11.2Z" fill="currentColor" stroke="currentColor" stroke-width="0.75" stroke-miterlimit="10"/>
<path d="M29 18.4C28.6 18.4 28.3 18.2 28.1 17.8L25.4 11.3C25.2 10.8 25.4 10.2 25.9 10C26.1 9.90005 26.4 9.90005 26.6 10C26.8 10.1 27 10.3 27.1 10.5L29.8 17C30 17.5 29.8 18.1 29.3 18.3C29.2 18.4 29.1 18.4 29 18.4ZM25.8 11.1L28.5 17.6C28.6 17.8 28.9 17.9 29.1 17.8C29.3 17.7 29.4 17.4 29.4 17.2L26.7 10.7C26.7 10.6 26.6 10.5 26.4 10.4C26.3 10.4 26.2 10.4 26.1 10.4C25.8 10.6 25.7 10.9 25.8 11.1Z" fill="currentColor" stroke="currentColor" stroke-width="0.75" stroke-miterlimit="10"/>
<path d="M24.4 8.40001C24.5 8.70001 24.8 8.80001 25.1 8.80001C25.2 8.80001 25.3 8.80001 25.4 8.70001C25.8 8.60001 25.9 8.10001 25.8 7.80001L23 1.10001C22.8 0.700008 22.4 0.600008 22.1 0.700008C21.7 0.800008 21.6 1.30001 21.7 1.60001L24.4 8.40001Z" fill="currentColor" stroke="currentColor" stroke-width="0.75" stroke-miterlimit="10"/>
<path d="M25.1 8.99995C24.7 8.99995 24.4 8.79995 24.2 8.39995L21.4 1.69995C21.2 1.19995 21.4 0.599951 21.9 0.399951C22.1 0.299951 22.4 0.299951 22.6 0.399951C22.8 0.499951 23 0.699951 23.1 0.899951L26 7.69995C26.2 8.19995 26 8.79995 25.5 8.99995C25.3 8.99995 25.2 8.99995 25.1 8.99995ZM24.7 8.29995C24.8 8.49995 25.1 8.59995 25.3 8.49995C25.5 8.39995 25.6 8.09995 25.6 7.89995L22.8 1.19995C22.8 1.09995 22.7 0.999951 22.5 0.899951C22.4 0.899951 22.3 0.899951 22.2 0.899951C22 0.999951 21.9 1.29995 22 1.49995L24.7 8.29995Z" fill="currentColor" stroke="currentColor" stroke-width="0.75" stroke-miterlimit="10"/>
<path d="M66.1999 33.7C64.8999 33.4 63.2999 35.1 62.1999 37C62.0999 36.2 61.7999 35.4 61.3999 34.9C61.0999 34.5 60.5999 34.3 60.0999 34.4C58.8999 34.4 58.2999 36 57.8999 38C57.5999 37.8 57.2999 37.7 56.9999 37.7C56.4999 37.7 56.0999 37.9 55.6999 38.3C55.0999 39 54.8999 40.4 54.8999 41.9C54.5999 41.8 54.2999 41.7 53.8999 41.8C53.5999 41.8 53.2999 42 52.9999 42.4C51.9999 43.9 52.9999 48.6 53.3999 50.1C52.8999 50.8 52.3999 51.4 51.7999 52.1C50.3999 53.5 48.1999 54.5 45.8999 55.7C42.9999 57.1 40.0999 58.5 37.8999 60.7C37.5999 61 37.3999 61.3 37.1999 61.7C36.9999 61.3 36.6999 60.9 36.4999 60.7C34.2999 58.5 31.2999 57.1 28.4999 55.7C26.0999 54.6 23.8999 53.5 22.5999 52.1C21.9999 51.5 21.3999 50.8 20.9999 50.1C21.3999 48.6 22.2999 43.9 21.3999 42.4C21.0999 42 20.7999 41.8 20.4999 41.8C20.0999 41.7 19.7999 41.8 19.4999 41.9C19.4999 40.4 19.2999 39.1 18.6999 38.3C18.3999 37.9 17.8999 37.7 17.3999 37.7C16.9999 37.7 16.6999 37.8 16.4999 38C16.0999 35.9 15.4999 34.4 14.2999 34.4C13.7999 34.4 13.3999 34.6 12.9999 34.9C12.5999 35.4 12.2999 36.1 12.0999 37C10.9999 35.1 9.39991 33.5 8.09991 33.7C6.29991 34.1 6.69991 37.2 7.19991 39.5C7.39991 40.6 7.59991 41.7 7.89991 42.9C9.09991 49.4 10.5999 56.8 13.8999 60.1C16.8999 63.1 18.8999 64.3 20.5999 65.4C21.9999 66.3 23.2999 67.1 24.7999 68.6C25.4999 69.3 25.7999 70.2 25.7999 71.1V74.8C25.7999 75.2 26.0999 75.5 26.4999 75.5C26.8999 75.5 27.1999 75.2 27.1999 74.8V71.1C27.1999 69.8 26.6999 68.5 25.6999 67.6C23.9999 66 22.6999 65.1 21.1999 64.2C19.4999 63.1 17.5999 61.9 14.6999 59.1C11.5999 56 10.2999 48.9 9.09991 42.6C8.89991 41.4 8.69991 40.3 8.39991 39.2C7.69991 35.7 8.19991 35.1 8.19991 35.1C8.79991 35 10.8999 37.3 11.4999 39.9C11.7999 41.2 11.9999 42.2 12.1999 43.1C12.9999 46.8 13.3999 48.5 15.5999 53.8C17.0999 57.5 21.2999 59.8 21.4999 59.9C21.7999 60.1 22.2999 60 22.4999 59.6C22.6999 59.3 22.5999 58.8 22.1999 58.6C22.1999 58.6 18.2999 56.5 16.9999 53.2C15.7999 50.2 15.0999 48.4 14.6999 46.7C14.9999 46.5 15.4999 46.2 16.0999 46.3C16.7999 46.3 17.4999 47.4 18.2999 48.8C18.5999 49.3 18.9999 50 19.4999 50.6C19.4999 50.6 19.4999 50.6 19.4999 50.7C20.0999 51.5 20.6999 52.3 21.4999 53.1C22.9999 54.6 25.3999 55.8 27.7999 56.9C30.4999 58.2 33.3999 59.6 35.3999 61.6C35.7999 62 36.3999 63.1 36.3999 64.1V72.8C36.3999 73.2 36.6999 73.5 37.0999 73.5C37.4999 73.5 37.7999 73.2 37.7999 72.8V64.1C37.7999 63.1 38.3999 62 38.7999 61.6C40.7999 59.6 43.6999 58.2 46.3999 56.9C48.8999 55.7 51.1999 54.6 52.6999 53.1C53.4999 52.3 54.0999 51.5 54.6999 50.7C55.0999 50.1 55.4999 49.5 55.8999 48.9C56.6999 47.5 57.3999 46.5 58.0999 46.4C58.5999 46.4 59.1999 46.6 59.4999 46.8C58.9999 48.5 58.3999 50.3 57.1999 53.3C55.8999 56.6 51.9999 58.7 51.9999 58.7C51.6999 58.9 51.4999 59.3 51.6999 59.7C51.8999 60.1 52.2999 60.2 52.6999 60C52.8999 59.9 56.9999 57.6 58.5999 53.9C60.7999 48.6 61.1999 46.9 61.9999 43.2C62.1999 42.3 62.3999 41.2 62.6999 40C63.2999 37.4 65.4999 35.2 65.9999 35.2C65.9999 35.2 66.5999 35.8 65.7999 39.3C65.5999 40.4 65.3999 41.6 65.0999 42.7C63.8999 49 62.4999 56.1 59.4999 59.2C56.5999 62.1 54.6999 63.3 52.9999 64.3C51.5999 65.2 50.1999 66.1 48.4999 67.7C47.5999 68.6 46.9999 69.9 46.9999 71.2V74.9C46.9999 75.3 47.2999 75.6 47.6999 75.6C48.0999 75.6 48.3999 75.3 48.3999 74.9V71.2C48.3999 70.3 48.7999 69.4 49.3999 68.7C50.8999 67.2 52.1999 66.4 53.5999 65.5C55.3999 64.4 57.3999 63.1 60.2999 60.2C63.6999 56.8 65.0999 49.5 66.2999 43C66.4999 41.8 66.6999 40.7 66.9999 39.6C67.5999 37.2 67.9999 34.1 66.1999 33.7ZM19.8999 43.1C20.2999 43.5 20.1999 45.8 19.6999 48.4C19.5999 48.3 19.4999 48.2 19.4999 48C19.2999 47.6 19.0999 47.3 18.8999 47C18.9999 46.3 19.1999 45 19.2999 43.6C19.3999 43.4 19.7999 43.1 19.8999 43.1ZM13.6999 42.8C13.5999 42.2 13.3999 41.5 13.1999 40.8C13.0999 39.2 13.0999 36.6 13.7999 35.9C13.8999 35.8 13.8999 35.8 13.9999 35.8C14.6999 36.1 15.2999 40.4 15.1999 45C14.7999 45.1 14.4999 45.2 14.2999 45.3C14.0999 44.5 13.8999 43.7 13.6999 42.8ZM16.5999 45C16.5999 43.6 16.5999 41.9 16.4999 40.2C16.5999 39.6 16.8999 39 17.1999 39C17.1999 39 17.2999 39 17.3999 39.1C18.0999 39.9 17.8999 42.9 17.5999 45.5C17.2999 45.3 16.9999 45.1 16.5999 45ZM54.1999 43.1C54.3999 43.1 54.6999 43.4 54.9999 43.6C55.0999 45 55.2999 46.3 55.3999 46.9C55.1999 47.2 54.9999 47.6 54.7999 47.9C54.6999 48 54.5999 48.1 54.5999 48.3C53.9999 45.8 53.8999 43.5 54.1999 43.1ZM56.5999 45.5C56.2999 43 56.0999 39.9 56.7999 39.1C56.8999 39 56.8999 39 56.9999 39C57.1999 39 57.4999 39.6 57.6999 40.2C57.5999 41.8 57.5999 43.5 57.5999 45C57.1999 45.1 56.8999 45.3 56.5999 45.5ZM58.9999 45C58.8999 40.4 59.4999 36.1 60.1999 35.8C60.2999 35.8 60.2999 35.8 60.3999 35.9C60.9999 36.6 61.0999 39.1 60.9999 40.8C60.7999 41.6 60.6999 42.2 60.4999 42.8C60.2999 43.7 60.0999 44.6 59.8999 45.3C59.5999 45.2 59.2999 45.1 58.9999 45Z" fill="currentColor" stroke="currentColor" stroke-width="0.75" stroke-miterlimit="10"/>
<path d="M26.5 75.9C26 75.9 25.5 75.5 25.5 74.9V71.2C25.5 70.3 25.2 69.5 24.5 68.9C23 67.4 21.7 66.6 20.3 65.7C18.5 64.6 16.5 63.3 13.5 60.3C10.1 56.9 8.59996 49.5 7.39996 42.9C7.19996 41.7 6.99996 40.6 6.69996 39.5C6.19996 37.1 5.79996 33.9 7.79996 33.4C9.19996 33.1 10.7 34.6 11.7 36.2C11.9 35.5 12.1 35 12.5 34.6C12.9 34.2 13.4 33.9 14 34C15.1 34 15.9 35.2 16.3 37.5C16.5 37.4 16.8 37.3 17 37.3C17.6 37.3 18.1 37.5 18.5 38C19 38.6 19.3 39.8 19.4 41.4C19.7 41.3 19.9 41.3 20.2 41.4C20.5 41.5 20.9 41.6 21.2 42.1C22.2 43.6 21.3 48 20.9 49.9C21.4 50.6 21.9 51.2 22.5 51.7C23.8 53 26 54.1 28.4 55.2C31.3 56.6 34.2 58 36.5 60.3C36.7 60.5 36.9 60.7 37.1 61C37.3 60.7 37.5 60.5 37.7 60.3C39.9 58.1 42.9 56.6 45.8 55.2C48.1 54.1 50.3 53 51.7 51.7C52.2 51.2 52.7 50.6 53.3 49.9C52.9 48 52 43.6 53 42.1C53.3 41.6 53.7 41.4 54 41.4C54.3 41.4 54.5 41.4 54.8 41.4C54.8 39.8 55.1 38.6 55.7 38C56.1 37.5 56.6 37.3 57.2 37.3C57.5 37.3 57.7 37.4 58 37.5C58.5 35.2 59.2 34.1 60.3 34C60.8 34 61.4 34.2 61.8 34.6C62.1 35 62.4 35.5 62.6 36.2C63.6 34.6 65.1 33.1 66.5 33.4C68.5 33.8 68.1 37.1 67.6 39.5C67.4 40.6 67.2 41.7 66.9 42.9C65.6 49.4 64.2 56.8 60.8 60.3C57.8 63.3 55.8 64.6 54 65.7C52.6 66.6 51.4 67.4 49.8 68.9C49.2 69.5 48.8 70.3 48.8 71.2V74.9C48.8 75.4 48.4 75.9 47.8 75.9C47.3 75.9 46.8 75.5 46.8 74.9V71.2C46.8 69.8 47.3 68.5 48.3 67.5C50 65.8 51.3 65 52.8 64.1C54.5 63 56.4 61.8 59.3 59C62.3 56 63.7 48.9 64.9 42.6L65 42.2C65.2 41.2 65.4 40.1 65.6 39.1C66.1 36.6 66 35.6 65.9 35.3C65.3 35.6 63.5 37.6 63 39.8C62.7 41.1 62.5 42.1 62.3 43C61.5 46.7 61.1 48.4 58.9 53.7C57.3 57.5 53.1 59.8 52.9 59.9C52.7 60 52.4 60 52.2 60C52 59.9 51.8 59.8 51.6 59.5C51.3 59 51.5 58.5 52 58.2C52.2 58.1 55.9 56 57.1 52.9C58.2 50.2 58.9 48.3 59.4 46.6C59.1 46.4 58.7 46.3 58.3 46.3C57.7 46.3 57.1 47.4 56.3 48.7C56 49.3 55.6 49.9 55.1 50.5C54.4 51.5 53.7 52.3 53.1 53C51.5 54.6 49.2 55.7 46.7 56.9C44 58.2 41.2 59.6 39.1 61.6C38.7 62 38.1 63 38.1 63.9V72.6C38.1 73.1 37.7 73.6 37.1 73.6C36.5 73.6 36.1 73.2 36.1 72.6V63.9C36.1 63 35.5 62 35.1 61.6C33.1 59.6 30.3 58.2 27.6 56.9C25.1 55.7 22.8 54.6 21.2 53C20.5 52.3 19.9 51.5 19.2 50.6V50.5C18.8 49.9 18.4 49.2 18 48.7C17.2 47.4 16.6 46.4 16 46.3C15.6 46.3 15.2 46.4 14.9 46.6C15.4 48.3 16.1 50.1 17.2 52.9C18.5 56 22.2 58.1 22.3 58.2C22.5 58.3 22.7 58.5 22.8 58.8C22.9 59.1 22.8 59.3 22.7 59.5C22.6 59.7 22.4 59.9 22.1 60C21.9 60.1 21.6 60 21.4 59.9C20.9 59.7 16.9 57.4 15.4 53.7C13.2 48.4 12.8 46.7 12 43V42.7C11.8 41.9 11.6 41 11.4 39.9C10.9 37.6 8.99996 35.6 8.49996 35.4C8.39996 35.7 8.29996 36.7 8.79996 39.2C8.99996 40.2 9.19996 41.3 9.39996 42.5V42.7C10.6 49 12 56.1 15 59.1C17.8 61.9 19.8 63.1 21.4 64.2C22.9 65.1 24.2 66 25.9 67.7C26.9 68.7 27.4 70 27.4 71.4V75.1C27.4 75.4 27 75.9 26.5 75.9ZM8.29996 33.9C8.19996 33.9 8.09996 33.9 7.99996 33.9C6.79996 34.2 6.59996 36 7.29996 39.4C7.49996 40.5 7.69996 41.7 7.99996 42.8C9.19996 49.3 10.6 56.6 14 59.9C16.9 62.8 18.9 64.1 20.7 65.2C22.1 66.1 23.4 66.9 25 68.5C25.7 69.2 26.1 70.2 26.1 71.2V74.9C26.1 75.2 26.3 75.4 26.6 75.4C26.9 75.4 27.1 75.2 27.1 74.9V71.2C27.1 70 26.6 68.8 25.7 67.9C24.1 66.3 22.7 65.4 21.3 64.5C19.6 63.4 17.6 62.2 14.8 59.3C11.7 56.2 10.3 49 9.09997 42.7V42.5C8.89997 41.4 8.69996 40.3 8.49996 39.2C7.89996 36.5 8.09996 35.4 8.29996 35.1L8.19996 34.9H8.59997C9.39997 34.8 11.6 37.3 12.2 39.9C12.4 41 12.6 41.9 12.8 42.7L12.9 43.1C13.7 46.8 14.1 48.4 16.2 53.7C17.7 57.2 21.5 59.4 22 59.7C22.1 59.8 22.2 59.8 22.3 59.7C22.4 59.7 22.5 59.6 22.6 59.5C22.7 59.4 22.7 59.3 22.6 59.2C22.5 59.1 22.5 59 22.4 58.9C22.2 58.8 18.4 56.7 17 53.4C15.8 50.5 15.1 48.7 14.7 46.9V46.7L14.9 46.6C15.3 46.4 15.8 46.1 16.4 46.1C17.2 46.1 17.9 47.2 18.8 48.7C19.1 49.2 19.5 49.8 20 50.5C20.7 51.5 21.3 52.3 22 52.9C23.5 54.4 25.8 55.5 28.3 56.7C31.1 58 33.9 59.4 36 61.5C36.5 62 37.1 63.1 37.1 64.2V72.9C37.1 73.2 37.3 73.4 37.6 73.4C37.9 73.4 38.1 73.2 38.1 72.9V64.2C38.1 63.1 38.7 62 39.2 61.5C41.3 59.4 44.1 58 46.9 56.7C49.4 55.5 51.7 54.4 53.2 52.9C53.9 52.2 54.5 51.5 55.2 50.5C55.7 49.8 56 49.2 56.4 48.7C57.3 47.2 58 46.2 58.8 46.1C59.4 46.1 60 46.3 60.3 46.6L60.5 46.7V46.9C60 48.7 59.3 50.5 58.2 53.4C56.9 56.7 53 58.8 52.8 58.9C52.6 59 52.5 59.3 52.6 59.5C52.7 59.6 52.8 59.7 52.9 59.7C53 59.7 53.1 59.7 53.2 59.7C53.4 59.6 57.5 57.4 59 53.7C61.2 48.4 61.5 46.8 62.3 43.1C62.5 42.2 62.7 41.1 63 39.9C63.6 37.4 65.8 34.9 66.5 34.9H66.6C66.7 34.9 67.4 35.5 66.6 39.3C66.4 40.3 66.2 41.3 66 42.4L65.9 42.8C64.7 49.1 63.3 56.3 60.2 59.4C57.3 62.3 55.4 63.5 53.7 64.6C52.3 65.5 50.9 66.4 49.3 68C48.4 68.9 47.9 70.1 47.9 71.3V75C47.9 75.3 48.1 75.5 48.4 75.5C48.7 75.5 48.9 75.3 48.9 75V71.3C48.9 70.3 49.3 69.4 50 68.6C51.6 67 52.8 66.3 54.3 65.3C56.1 64.2 58 62.9 61 60C64.3 56.7 65.7 49.4 67 42.9C67.2 41.7 67.4 40.6 67.7 39.5C68.4 36.1 68.2 34.3 67 34C65.8 33.7 64.3 35.4 63.3 37.1L63 37.7L62 37C61.8 36.1 61.6 35.4 61.2 35C60.9 34.7 60.5 34.5 60.1 34.5C59 34.5 58.4 36.4 58.2 37.9L58.1 38.3L57.8 38.1C57.6 37.9 57.3 37.8 57 37.8C56.6 37.8 56.2 38 55.9 38.3C55.4 38.9 55.2 40 55.1 41.7V42.1L54.8 42C54.5 42 54.3 41.9 54 42C53.8 42 53.5 42.2 53.3 42.5C52.4 43.9 53.4 48.6 53.7 50V50.1L53.6 50.2C53.1 51 52.5 51.6 51.9 52.2C50.5 53.6 48.3 54.7 45.9 55.8C43.1 57.2 40.1 58.6 38 60.8C37.8 61 37.5 61.4 37.3 61.8L37.1 62.2L36.9 61.8C36.7 61.4 36.4 61.1 36.2 60.8C34 58.6 31.1 57.2 28.3 55.8C25.9 54.6 23.7 53.6 22.3 52.2C21.7 51.6 21.2 51 20.6 50.2L20.5 50.1V50C21.2 47.1 21.6 43.6 20.9 42.5C20.7 42.2 20.4 42 20.2 42C19.9 41.9 19.7 42 19.4 42.1L19 42.2V41.8C19 40.1 18.7 39 18.2 38.4C17.9 38.1 17.5 37.9 17.1 37.9C16.8 37.9 16.6 38 16.3 38.2L16 38.4V38C15.7 36.5 15.2 34.6 14.1 34.6C13.7 34.6 13.3 34.7 13 35.1C12.6 35.5 12.4 36.1 12.2 37.1L12.1 37.8L11.8 37.2C10.8 35.5 9.39996 33.9 8.29996 33.9ZM54.4 49.1L54.3 48.5C54 46.7 53.5 43.6 54 43L54.1 42.9H54.2C54.6 42.8 55.2 43.5 55.2 43.5V43.6V43.7C55.3 45.1 55.5 46.4 55.6 47V47.1L55.5 47.2C55.3 47.5 55.1 47.9 54.9 48.2L54.4 49.1ZM54.3 43.4C54.2 43.9 54.2 45.5 54.6 47.7C54.8 47.4 54.9 47.2 55.1 46.9C55 46.2 54.8 45 54.7 43.7C54.6 43.6 54.4 43.5 54.3 43.4ZM19.8 49.1L19.2 48.2C19 47.8 18.8 47.5 18.6 47.2L18.5 47.1V47C18.6 46.4 18.8 45.1 18.9 43.7V43.6V43.5C18.9 43.5 19.4 42.8 19.8 42.8H19.9L20 42.9C20.7 43.6 19.9 47.9 19.8 48.4V49.1ZM19 47C19.2 47.2 19.3 47.5 19.5 47.8C19.9 45.5 19.9 44 19.8 43.5C19.7 43.6 19.6 43.7 19.4 43.8C19.3 45.1 19.2 46.3 19 47ZM56.4 46L56.3 45.5C56.1 44.2 55.6 40 56.6 39C56.7 38.9 56.9 38.8 57 38.8C57.6 38.8 57.9 40.1 57.9 40.1C57.8 41.5 57.8 43.1 57.8 44.8V45L57.6 45.1C57.3 45.2 57 45.4 56.8 45.6L56.4 46ZM57 39.4C56.5 40.1 56.5 42.3 56.8 45.1C57 45 57.1 44.9 57.3 44.8C57.3 43.1 57.3 41.6 57.4 40.2C57.3 39.8 57.1 39.5 57 39.4ZM17.8 46L17.5 45.7C17.2 45.5 16.9 45.3 16.6 45.2L16.4 45.1V44.9C16.4 43.1 16.4 41.5 16.3 40.2C16.3 40.1 16.6 38.9 17.2 38.9C17.3 38.9 17.5 38.9 17.6 39.1C18.5 40.2 18 44.4 17.9 45.6L17.8 46ZM16.9 44.8C17.1 44.9 17.2 45 17.4 45.1C17.8 42.2 17.7 40 17.2 39.4C17.1 39.5 16.9 39.8 16.8 40.3C16.9 41.6 16.9 43.1 16.9 44.8ZM60.1 45.7L59.8 45.6C59.5 45.5 59.2 45.4 58.9 45.3H58.7V45.1C58.6 41.4 59 36.1 60 35.7H60.1C60.2 35.7 60.3 35.7 60.5 35.9C61.3 36.8 61.2 39.8 61.1 41C60.9 41.8 60.8 42.5 60.6 43.1C60.4 44 60.2 44.9 60 45.6L60.1 45.7ZM59.2 44.8C59.4 44.8 59.5 44.9 59.7 45C59.9 44.3 60 43.6 60.2 42.8C60.3 42.2 60.5 41.5 60.7 40.8C60.9 39 60.7 36.7 60.2 36.2C59.7 36.5 59.2 40 59.2 44.8ZM14.1 45.7L14 45.4C13.8 44.7 13.6 43.9 13.5 43V42.9C13.4 42.3 13.2 41.6 13 40.9C12.9 39.8 12.8 36.7 13.6 35.8C13.7 35.6 13.9 35.6 14 35.6H14.1C15.1 36 15.5 41.4 15.4 45V45.2H15.2C14.9 45.3 14.6 45.4 14.3 45.5L14.1 45.7ZM14 42.7V42.8C14.2 43.6 14.3 44.3 14.5 44.9C14.7 44.8 14.8 44.8 15 44.7C15.1 40 14.5 36.5 14 36C13.5 36.6 13.4 38.9 13.5 40.7C13.7 41.4 13.8 42.1 14 42.7Z" fill="currentColor" stroke="currentColor" stroke-width="0.75" stroke-miterlimit="10"/>
</g>
<defs>
<clipPath id="clip0">
<rect width="74.2" height="76.2" fill="white"/>
</clipPath>
</defs>
</svg>
