<svg width="38" height="34" viewBox="0 0 38 34" xmlns="http://www.w3.org/2000/svg">
  <g id="quote_icon">
    <path d="M13.7123 2.93C12.3223 4.68 10.9523 7.13 9.60231 10.28C8.25231 13.43 7.59231 16.33 7.62231 18.99C8.24231 18.79 8.95232 18.7 9.77232 18.72C11.7423 18.75 13.4023 19.34 14.7523 20.49C16.0923 21.64 16.7523 23.33 16.7123 25.58C16.6723 27.76 15.9523 29.57 14.5323 31.02C13.1123 32.46 11.2723 33.17 9.02232 33.13C6.10231 33.08 3.85231 32.04 2.28231 30C0.712315 27.96 -0.0476852 25.38 0.00231482 22.24C0.0523148 18.9 0.912315 15.3 2.58231 11.44C4.24231 7.58 6.64231 3.77 9.77232 0L13.7123 2.93ZM34.1623 3.26C32.7723 5.01 31.4023 7.46 30.0523 10.61C28.7023 13.76 28.0423 16.66 28.0723 19.32C28.6923 19.12 29.4023 19.03 30.2223 19.05C32.1923 19.08 33.8523 19.67 35.2023 20.82C36.5423 21.97 37.2023 23.66 37.1623 25.91C37.1223 28.09 36.4023 29.9 34.9823 31.35C33.5623 32.79 31.7223 33.5 29.4723 33.46C26.5423 33.41 24.2923 32.37 22.7223 30.33C21.1523 28.3 20.3923 25.71 20.4423 22.57C20.4923 19.23 21.3523 15.63 23.0223 11.77C24.6823 7.91 27.0823 4.1 30.2123 0.33L34.1623 3.26Z" fill="currentColor"/>
  </g>

</svg>
