<svg width="91" height="84" viewBox="0 0 91 84" fill="none" xmlns="http://www.w3.org/2000/svg">
  <g id="reconnect_yourself">
    <path d="M25.5938 8.47999C25.5938 6.8028 25.0965 5.1633 24.1647 3.76878C23.2329 2.37425 21.9084 1.28735 20.3589 0.645516C18.8094 0.00368446 17.1044 -0.164262 15.4595 0.162941C13.8145 0.490144 12.3035 1.29779 11.1175 2.48374C9.93159 3.66969 9.12394 5.18067 8.79674 6.82563C8.46954 8.47059 8.63745 10.1756 9.27928 11.7252C9.92111 13.2747 11.008 14.5991 12.4026 15.5309C13.7971 16.4627 15.4366 16.96 17.1138 16.96C19.3629 16.96 21.5197 16.0666 23.11 14.4763C24.7003 12.886 25.5938 10.729 25.5938 8.47999V8.47999ZM17.1138 4.47999C17.9049 4.47999 18.6783 4.7146 19.3361 5.15412C19.9939 5.59365 20.5066 6.21835 20.8093 6.94926C21.1121 7.68016 21.1913 8.48443 21.0369 9.26035C20.8826 10.0363 20.5017 10.749 19.9422 11.3084C19.3828 11.8678 18.6701 12.2488 17.8941 12.4031C17.1182 12.5575 16.314 12.4783 15.5831 12.1755C14.8521 11.8728 14.2274 11.3601 13.7879 10.7023C13.3484 10.0445 13.1138 9.27111 13.1138 8.47999C13.1071 7.94797 13.2067 7.41999 13.4066 6.92692C13.6065 6.43385 13.9028 5.98562 14.2781 5.60847C14.6533 5.23132 15.1001 4.93283 15.5922 4.73048C16.0843 4.52812 16.6117 4.42597 17.1438 4.43L17.1138 4.47999Z" fill="currentColor"/>
    <path d="M13.8039 26.1699H23.5939C23.9414 26.1688 24.2793 26.2846 24.5531 26.4986C24.827 26.7126 25.0209 27.0124 25.1039 27.3499L29.9039 46.4299L29.9939 46.6599C30.1815 47.2051 30.5739 47.6559 31.088 47.917C31.6021 48.178 32.1975 48.2288 32.7484 48.0586C33.2992 47.8884 33.7623 47.5106 34.0396 47.005C34.3168 46.4995 34.3865 45.906 34.2339 45.3499L29.4439 26.2299C29.1219 24.9274 28.3726 23.7705 27.3158 22.9439C26.259 22.1173 24.9556 21.6687 23.6139 21.6699H13.8039C11.5716 21.6683 9.40287 22.4137 7.64321 23.7874C5.88355 25.161 4.63412 27.084 4.09389 29.2499L0.023886 56.6999C-0.0621636 57.2832 0.0862937 57.8768 0.436728 58.3509C0.787162 58.825 1.31105 59.1411 1.89388 59.2299C2.00366 59.2399 2.11412 59.2399 2.2239 59.2299C2.75778 59.2307 3.27407 59.0391 3.67812 58.6901C4.08218 58.3411 4.34695 57.8582 4.42391 57.3299L4.6039 56.1199L8.43392 30.2199C8.76526 29.0518 9.46916 28.024 10.4386 27.2929C11.408 26.5618 12.5897 26.1674 13.8039 26.1699V26.1699Z" fill="currentColor"/>
    <path d="M10.9937 53.7899C10.7527 53.9987 10.5592 54.2566 10.4264 54.5464C10.2936 54.8363 10.2244 55.1512 10.2236 55.47V80.65C10.2236 81.2414 10.4586 81.8086 10.8768 82.2268C11.295 82.645 11.8622 82.88 12.4536 82.88C13.045 82.88 13.6123 82.645 14.0305 82.2268C14.4487 81.8086 14.6837 81.2414 14.6837 80.65V55.43C14.6837 54.842 14.4514 54.2778 14.0375 53.8601C13.6236 53.4425 13.0616 53.2052 12.4736 53.2V53.2C11.9247 53.2086 11.398 53.4185 10.9937 53.7899Z" fill="currentColor"/>
    <path d="M21.8439 82.88C22.1362 82.88 22.4257 82.8223 22.6957 82.7101C22.9657 82.5979 23.2109 82.4335 23.4172 82.2263C23.6235 82.0191 23.7868 81.7732 23.8978 81.5027C24.0087 81.2322 24.0652 80.9424 24.0638 80.65V55.43C24.0843 55.1253 24.042 54.8196 23.9394 54.5319C23.8368 54.2442 23.6763 53.9807 23.4676 53.7576C23.259 53.5345 23.0068 53.3567 22.7266 53.2351C22.4464 53.1135 22.1443 53.0508 21.8389 53.0508C21.5334 53.0508 21.2313 53.1135 20.9511 53.2351C20.6709 53.3567 20.4187 53.5345 20.2101 53.7576C20.0015 53.9807 19.8409 54.2442 19.7383 54.5319C19.6358 54.8196 19.5934 55.1253 19.6139 55.43V80.61C19.6086 80.9062 19.6623 81.2005 19.772 81.4757C19.8817 81.7509 20.0451 82.0015 20.2527 82.2128C20.4603 82.4241 20.7079 82.592 20.9811 82.7065C21.2543 82.8211 21.5476 82.8801 21.8439 82.88V82.88Z" fill="currentColor"/>
    <path d="M72.8438 4.42993C71.1666 4.42993 69.5271 4.92728 68.1325 5.85907C66.738 6.79086 65.6511 8.11525 65.0093 9.66476C64.3675 11.2143 64.1995 12.9193 64.5267 14.5643C64.8539 16.2093 65.6616 17.7202 66.8475 18.9062C68.0335 20.0921 69.5445 20.8998 71.1894 21.227C72.8344 21.5542 74.5394 21.3862 76.089 20.7444C77.6385 20.1026 78.9628 19.0157 79.8946 17.6212C80.8264 16.2266 81.3238 14.5871 81.3238 12.9099C81.3238 10.6609 80.4304 8.50397 78.8401 6.91367C77.2497 5.32336 75.0928 4.42993 72.8438 4.42993V4.42993ZM72.8438 16.9399C72.0527 16.9399 71.2793 16.7053 70.6215 16.2658C69.9637 15.8263 69.451 15.2016 69.1483 14.4707C68.8455 13.7398 68.7663 12.9355 68.9206 12.1596C69.075 11.3837 69.4559 10.6709 70.0154 10.1115C70.5748 9.5521 71.2875 9.17113 72.0634 9.01678C72.8394 8.86244 73.6436 8.94166 74.3745 9.24442C75.1054 9.54717 75.7301 10.0599 76.1696 10.7177C76.6092 11.3754 76.8438 12.1488 76.8438 12.9399C76.8464 13.4669 76.7449 13.9892 76.5451 14.4768C76.3452 14.9644 76.051 15.4078 75.6793 15.7813C75.3076 16.1549 74.8657 16.4513 74.3791 16.6535C73.8925 16.8558 73.3708 16.9599 72.8438 16.9599V16.9399Z" fill="currentColor"/>
    <path d="M85.9439 31.7099V31.5199C85.4037 29.3539 84.1542 27.431 82.3946 26.0573C80.6349 24.6837 78.4663 23.9383 76.2339 23.9399H69.5339C67.3157 23.9383 65.1598 24.6742 63.4056 26.0319C61.6514 27.3897 60.3985 29.2921 59.8439 31.4399L55.8439 45.3099C55.6596 45.8695 55.7052 46.4795 55.9705 47.0055C56.2359 47.5315 56.6993 47.9306 57.2589 48.1149C57.8185 48.2993 58.4284 48.2537 58.9545 47.9884C59.4805 47.723 59.8796 47.2595 60.0639 46.6999L60.124 46.5499L64.124 32.5999C64.4231 31.3998 65.1153 30.3342 66.0903 29.5731C67.0653 28.8119 68.267 28.3989 69.5039 28.3999H76.2039C77.4272 28.3971 78.617 28.8 79.5869 29.5455C80.5567 30.291 81.252 31.3371 81.5639 32.5199L85.374 56.1699L85.5939 57.4299C85.6793 57.9519 85.9474 58.4265 86.3504 58.769C86.7534 59.1116 87.265 59.2998 87.7939 59.2999C87.9137 59.3099 88.0341 59.3099 88.1539 59.2999C88.7373 59.2043 89.2588 58.8809 89.6039 58.4008C89.9489 57.9208 90.0892 57.3234 89.994 56.7399L85.9439 31.7099Z" fill="currentColor"/>
    <path d="M77.5136 53.24C76.9266 53.2452 76.3655 53.4828 75.9532 53.9008C75.5409 54.3187 75.3109 54.8829 75.3136 55.47V80.65C75.2932 80.9547 75.3355 81.2604 75.4381 81.5481C75.5407 81.8357 75.7012 82.0993 75.9098 82.3224C76.1185 82.5455 76.3707 82.7233 76.6509 82.8449C76.931 82.9665 77.2332 83.0292 77.5386 83.0292C77.844 83.0292 78.1462 82.9665 78.4264 82.8449C78.7066 82.7233 78.9587 82.5455 79.1674 82.3224C79.376 82.0993 79.5366 81.8357 79.6392 81.5481C79.7417 81.2604 79.784 80.9547 79.7636 80.65V55.43C79.761 54.8411 79.5266 54.2769 79.1111 53.8595C78.6957 53.4422 78.1325 53.2052 77.5436 53.2L77.5136 53.24Z" fill="currentColor"/>
    <path d="M70.374 80.65V55.43C70.3944 55.1253 70.352 54.8196 70.2494 54.5319C70.1469 54.2442 69.9863 53.9807 69.7777 53.7576C69.5691 53.5345 69.3169 53.3567 69.0367 53.2351C68.7565 53.1135 68.4543 53.0508 68.1489 53.0508C67.8435 53.0508 67.5413 53.1135 67.2612 53.2351C66.981 53.3567 66.7288 53.5345 66.5202 53.7576C66.3116 53.9807 66.151 54.2442 66.0484 54.5319C65.9458 54.8196 65.9035 55.1253 65.9239 55.43V80.61C65.9035 80.9148 65.9458 81.2204 66.0484 81.5081C66.151 81.7958 66.3116 82.0594 66.5202 82.2824C66.7288 82.5055 66.981 82.6833 67.2612 82.8049C67.5413 82.9265 67.8435 82.9893 68.1489 82.9893C68.4543 82.9893 68.7565 82.9265 69.0367 82.8049C69.3169 82.6833 69.5691 82.5055 69.7777 82.2824C69.9863 82.0594 70.1469 81.7958 70.2494 81.5081C70.352 81.2204 70.3944 80.9148 70.374 80.61V80.65Z" fill="currentColor"/>
    <path d="M52.7237 46.09C52.7237 44.5077 52.2544 42.961 51.3754 41.6454C50.4963 40.3298 49.2469 39.3044 47.7851 38.6989C46.3233 38.0934 44.7148 37.935 43.1629 38.2437C41.6111 38.5524 40.1856 39.3143 39.0668 40.4331C37.948 41.5519 37.186 42.9774 36.8774 44.5292C36.5687 46.0811 36.7271 47.6896 37.3326 49.1514C37.9381 50.6132 38.9635 51.8627 40.2791 52.7417C41.5947 53.6208 43.1414 54.09 44.7237 54.09C46.8454 54.09 48.8802 53.2471 50.3805 51.7468C51.8808 50.2465 52.7237 48.2117 52.7237 46.09ZM44.7237 42.53C45.4278 42.53 46.1161 42.7388 46.7015 43.13C47.2869 43.5211 47.7432 44.0771 48.0127 44.7276C48.2821 45.3781 48.3526 46.0939 48.2152 46.7845C48.0779 47.4751 47.7388 48.1094 47.2409 48.6073C46.7431 49.1052 46.1088 49.4442 45.4182 49.5816C44.7276 49.7189 44.0118 49.6484 43.3613 49.379C42.7108 49.1095 42.1548 48.6532 41.7636 48.0678C41.3725 47.4823 41.1637 46.7941 41.1637 46.09C41.1637 45.1475 41.5374 44.2436 42.2029 43.5762C42.8683 42.9089 43.7712 42.5326 44.7137 42.53H44.7237Z" fill="currentColor"/>
    <path d="M54.1637 61.8L56.9137 55.8C57.0352 55.5334 57.103 55.2455 57.1132 54.9527C57.1234 54.6599 57.0758 54.368 56.9732 54.0936C56.8706 53.8192 56.715 53.5677 56.5152 53.3535C56.3154 53.1392 56.0753 52.9665 55.8087 52.845C55.5422 52.7235 55.2542 52.6557 54.9614 52.6455C54.6687 52.6353 54.3768 52.6829 54.1024 52.7855C53.828 52.8881 53.5764 53.0437 53.3622 53.2435C53.148 53.4433 52.9752 53.6834 52.8537 53.95L50.1237 59.95C49.2331 60.6391 48.1156 60.9676 46.9937 60.87H42.4337C41.3185 60.963 40.208 60.6427 39.3137 59.97L36.5637 53.97C36.2977 53.4669 35.8494 53.0845 35.3106 52.9012C34.7719 52.7179 34.1834 52.7475 33.6658 52.984C33.1481 53.2204 32.7404 53.6458 32.5263 54.1731C32.3121 54.7003 32.3076 55.2895 32.5137 55.82L35.2537 61.82C36.2537 63.95 39.0437 65.33 42.4337 65.33H46.9937C50.3837 65.31 53.1937 63.94 54.1637 61.8Z" fill="currentColor"/>
    <path d="M43.7442 81.31V69.43C43.7442 68.8385 43.5092 68.2713 43.091 67.8531C42.6728 67.4349 42.1056 67.2 41.5142 67.2C40.9227 67.2 40.3555 67.4349 39.9373 67.8531C39.5191 68.2713 39.2842 68.8385 39.2842 69.43V81.28C39.2842 81.8714 39.5191 82.4386 39.9373 82.8568C40.3555 83.275 40.9227 83.5099 41.5142 83.5099C42.1056 83.5099 42.6728 83.275 43.091 82.8568C43.5092 82.4386 43.7442 81.8714 43.7442 81.28V81.31Z" fill="currentColor"/>
    <path d="M47.9136 67.23C47.3221 67.23 46.7549 67.4649 46.3367 67.8831C45.9185 68.3014 45.6836 68.8686 45.6836 69.46V81.31C45.6836 81.9014 45.9185 82.4686 46.3367 82.8868C46.7549 83.305 47.3221 83.54 47.9136 83.54C48.505 83.54 49.0722 83.305 49.4904 82.8868C49.9086 82.4686 50.1436 81.9014 50.1436 81.31V69.43C50.1357 68.8438 49.8973 68.2842 49.4799 67.8725C49.0626 67.4608 48.4998 67.2299 47.9136 67.23V67.23Z" fill="currentColor"/>
  </g>
</svg>
