<svg width="82" height="80" viewBox="0 0 82 80" fill="none" xmlns="http://www.w3.org/2000/svg">
  <g id="redirect_life">
    <path d="M41.2 28.3999C41.3565 28.4077 41.5123 28.3751 41.6525 28.305C41.7926 28.2349 41.9123 28.1298 41.9999 27.9999C42.6999 27.0999 48.4999 19.4 48.4999 15.7C48.4999 13.7639 47.7308 11.907 46.3618 10.538C44.9928 9.16901 43.136 8.3999 41.2 8.3999C39.2639 8.3999 37.407 9.16901 36.038 10.538C34.669 11.907 33.8999 13.7639 33.8999 15.7C33.8999 19.4 39.6999 27.0999 40.3999 27.9999C40.4875 28.1298 40.6072 28.2349 40.7474 28.305C40.8875 28.3751 41.0434 28.4077 41.2 28.3999V28.3999ZM41.2 10.4999C42.6024 10.5104 43.9444 11.0722 44.936 12.0638C45.9277 13.0555 46.4895 14.3975 46.4999 15.7999C46.4999 17.7999 43.5 22.5999 41.2 25.7999C38.9 22.5999 35.8999 17.7999 35.8999 15.7999C35.8959 15.1028 36.0303 14.4119 36.2953 13.767C36.5602 13.1222 36.9505 12.5363 37.4434 12.0434C37.9364 11.5505 38.5222 11.1602 39.167 10.8953C39.8118 10.6303 40.5028 10.496 41.2 10.4999Z" fill="currentColor"/>
    <path d="M44.49 50C44.3654 49.9523 44.2325 49.9301 44.0991 49.9345C43.9658 49.939 43.8346 49.9701 43.7135 50.026C43.5924 50.0819 43.4837 50.1615 43.3937 50.2601C43.3038 50.3587 43.2346 50.4742 43.19 50.6C42.8763 51.5207 42.509 52.4222 42.09 53.3C41.9879 53.5392 41.9831 53.8087 42.0764 54.0513C42.1698 54.294 42.354 54.4908 42.59 54.6C42.7073 54.6795 42.849 54.715 42.99 54.7C43.1857 54.7163 43.3812 54.6658 43.5446 54.5568C43.708 54.4479 43.8297 54.2869 43.89 54.1C44.19 53.3 44.59 52.4 44.99 51.3C45.0524 51.1835 45.0889 51.0549 45.0971 50.923C45.1053 50.7911 45.085 50.6589 45.0376 50.5355C44.9902 50.4122 44.9166 50.3005 44.8221 50.2081C44.7277 50.1157 44.6144 50.0447 44.49 50V50Z" fill="currentColor"/>
    <path d="M47.4901 41.7C47.6075 41.7795 47.7492 41.8149 47.8902 41.8C48.0819 41.7968 48.2687 41.7386 48.4283 41.6322C48.5878 41.5258 48.7134 41.3758 48.7901 41.2C49.1676 40.3512 49.6371 39.5464 50.1902 38.8C50.3493 38.5878 50.4176 38.3211 50.3801 38.0586C50.3426 37.796 50.2023 37.5591 49.9901 37.3999C49.778 37.2408 49.5113 37.1725 49.2487 37.21C48.9862 37.2475 48.7492 37.3878 48.5901 37.6C48.0901 38.4 47.5901 39.2 46.9901 40.3C46.8943 40.5548 46.8919 40.8352 46.9835 41.0916C47.075 41.348 47.2546 41.5636 47.4901 41.7V41.7Z" fill="currentColor"/>
    <path d="M35.7998 60.8001C34.9607 61.1048 34.0876 61.3063 33.1998 61.4C32.9499 61.4592 32.7263 61.5989 32.5637 61.7977C32.401 61.9965 32.3083 62.2434 32.2998 62.5001C32.3366 62.7426 32.4564 62.9649 32.6387 63.129C32.8211 63.2932 33.0547 63.3889 33.2998 63.4H33.3998C34.4691 63.3 35.5156 63.03 36.4998 62.6C36.6256 62.5555 36.7411 62.4862 36.8397 62.3963C36.9383 62.3064 37.0179 62.1977 37.0738 62.0765C37.1297 61.9554 37.1608 61.8243 37.1653 61.6909C37.1697 61.5576 37.1475 61.4247 37.0998 61.3001C37.0551 61.1757 36.9841 61.0624 36.8917 60.9679C36.7993 60.8734 36.6876 60.7999 36.5643 60.7525C36.4409 60.705 36.3087 60.6847 36.1768 60.6929C36.0449 60.7012 35.9163 60.7377 35.7998 60.8001Z" fill="currentColor"/>
    <path d="M41.9 56.3999C41.7889 56.3261 41.6641 56.2752 41.533 56.2503C41.4019 56.2254 41.2672 56.2269 41.1368 56.2548C41.0063 56.2828 40.8827 56.3366 40.7734 56.4131C40.664 56.4895 40.5711 56.5871 40.5 56.7C40.4 56.9 40.2 57.1 40.1 57.3C39.7474 57.8646 39.3088 58.3707 38.8 58.8C38.6168 58.9869 38.5142 59.2382 38.5142 59.5C38.5142 59.7617 38.6168 60.013 38.8 60.2C38.9869 60.3832 39.2382 60.4858 39.5 60.4858C39.7618 60.4858 40.0131 60.3832 40.2 60.2C40.8041 59.695 41.3123 59.0852 41.7 58.3999C41.89 58.1842 42.0576 57.9497 42.2 57.7C42.3188 57.4844 42.3538 57.2324 42.2985 56.9926C42.2431 56.7527 42.1012 56.5417 41.9 56.3999Z" fill="currentColor"/>
    <path d="M79.9 4L53.9 1H53.7L27.9 4L2.09998 1C1.82179 1.00664 1.54857 1.07496 1.29999 1.20001C1.11831 1.38918 1.01168 1.63794 1 1.89996V75.4C1.01111 75.645 1.10687 75.8787 1.271 76.0611C1.43512 76.2435 1.6574 76.3632 1.89996 76.4L27.9 79.4H28.1L53.9 76.4L79.7 79.4H79.8C80.0652 79.4 80.3195 79.2947 80.5071 79.1071C80.6946 78.9196 80.8 78.6652 80.8 78.4V5C80.8012 4.75123 80.7097 4.5109 80.5433 4.32599C80.3769 4.14108 80.1475 4.02487 79.9 4ZM78.8 18.5H78.3C78.0348 18.5 77.7804 18.6054 77.5929 18.7929C77.4054 18.9804 77.3 19.2348 77.3 19.5C77.3186 19.7591 77.4299 20.0027 77.6135 20.1864C77.7972 20.3701 78.0409 20.4814 78.3 20.5H78.8V72.1C77.5427 72.4233 76.2164 72.3535 75 71.9C72.6 71 70.6 68.5 69.1 64.7C67.9047 61.7734 65.9658 59.2097 63.4752 57.2628C60.9845 55.3159 58.0286 54.0533 54.9 53.6V36.1C55.1602 35.9835 55.4274 35.8833 55.7 35.8C55.952 35.7072 56.1567 35.518 56.2692 35.2742C56.3817 35.0304 56.3928 34.752 56.3 34.5C56.2072 34.248 56.018 34.0432 55.7742 33.9307C55.5304 33.8182 55.252 33.8071 55 33.9H54.9V3.09998L78.9 5.89996V18.5H78.8ZM52.9 34.5C52.6 34.6 52.4 34.6 52.1 34.7C51.9742 34.7446 51.8587 34.8138 51.7601 34.9037C51.6615 34.9937 51.5819 35.1024 51.526 35.2235C51.4701 35.3447 51.439 35.4758 51.4345 35.6091C51.43 35.7425 51.4523 35.8754 51.5 36C51.5608 36.1945 51.6796 36.3657 51.8405 36.4908C52.0013 36.6159 52.1965 36.6889 52.4 36.7C52.4543 36.7065 52.5093 36.7009 52.5612 36.6837C52.6131 36.6664 52.6605 36.6378 52.7 36.6H52.8V53.3C51.3 52.9 48.6 51.6 46 48.1C46.1558 47.9739 46.2621 47.7968 46.3 47.6C46.6 46.7 46.9 45.7 47.3 44.8C47.3928 44.548 47.3817 44.2695 47.2692 44.0257C47.1567 43.7819 46.952 43.5928 46.7 43.5C46.4481 43.4072 46.1695 43.4182 45.9257 43.5308C45.6819 43.6433 45.4928 43.848 45.4 44.1C45.2 44.7 44.9 45.4 44.7 46.1C44.0359 44.9138 43.4674 43.6765 43 42.4C39.4 32.8 31.6 31.6 28.8 31.5V5.85999L52.8 3.06V34.46L52.9 34.5ZM26.9 5.89996V31.5C24 31.6 16.3 32.8 12.7 42.4C12.2326 43.6765 11.6641 44.9138 11 46.1C10.8 45.4 10.5 44.8 10.3 44.1C10.2072 43.848 10.018 43.6433 9.77423 43.5308C9.53043 43.4182 9.25196 43.4072 9 43.5C8.74804 43.5928 8.54325 43.7819 8.43073 44.0257C8.3182 44.2695 8.30714 44.548 8.39996 44.8C8.69996 45.7 8.99996 46.6 9.39996 47.6C9.47723 47.7793 9.57817 47.9474 9.70001 48.1C7.10001 51.7 4.39996 52.9 2.89996 53.3V36.6H3C3.1 36.6 3.19999 36.7 3.29999 36.7C3.50345 36.6889 3.69865 36.6159 3.8595 36.4908C4.02034 36.3657 4.13918 36.1945 4.20001 36C4.2477 35.8754 4.26997 35.7425 4.2655 35.6091C4.26104 35.4758 4.22992 35.3447 4.17401 35.2235C4.1181 35.1024 4.03852 34.9937 3.93994 34.9037C3.84136 34.8138 3.72574 34.7446 3.59998 34.7C3.34718 34.5867 3.07636 34.519 2.79999 34.5V3.09998L26.9 5.89996ZM2.89996 55.3C5.19996 54.8 10.9 52.5 14.5 43.1C17.7 34.5 24.4 33.5 26.8 33.5V61.1C26.6 61.1 26.4 61.2 26.2 61.2C26.0674 61.2238 25.941 61.2741 25.8284 61.3479C25.7157 61.4217 25.6191 61.5175 25.5444 61.6296C25.4697 61.7416 25.4184 61.8677 25.3936 62.0001C25.3687 62.1324 25.3709 62.2684 25.4 62.4C25.4467 62.6292 25.5724 62.8349 25.7551 62.9811C25.9378 63.1273 26.166 63.2047 26.4 63.2H26.6C26.6543 63.2065 26.7094 63.2009 26.7612 63.1837C26.8131 63.1664 26.8605 63.1378 26.9 63.1V77.3L2.89996 74.5V55.3ZM28.9 63.1C28.9543 63.0934 29.0093 63.099 29.0612 63.1163C29.1131 63.1336 29.1605 63.1622 29.2 63.2H29.4C29.6339 63.2047 29.8621 63.1273 30.0449 62.9811C30.2276 62.8349 30.3532 62.6292 30.4 62.4C30.429 62.2684 30.4312 62.1324 30.4064 62.0001C30.3816 61.8677 30.3303 61.7416 30.2556 61.6296C30.1808 61.5175 30.0843 61.4217 29.9716 61.3479C29.859 61.2741 29.7326 61.2238 29.6 61.2C29.4 61.2 29.1 61.1 29 61.1V33.5C31.4 33.6 38.1 34.6 41.3 43.1C44.9 52.6 50.7 54.8 52.9 55.3V74.6L28.9 77.4V63.1ZM54.9 74.6V55.6C57.6227 56.0685 60.181 57.2234 62.3332 58.9557C64.4854 60.6879 66.1604 62.9403 67.2 65.5C68.9 69.9 71.3 72.7 74.3 73.8C75.2577 74.1722 76.2728 74.3752 77.3 74.4C77.8388 74.389 78.375 74.322 78.9 74.2V77.4L54.9 74.6Z" fill="currentColor" stroke="currentColor" stroke-width="0.75" stroke-miterlimit="10"/>
    <path d="M71.9001 21.2001H72.2002C73.0162 20.9563 73.8531 20.7889 74.7002 20.7001C74.8315 20.6869 74.9589 20.648 75.0752 20.5856C75.1915 20.5232 75.2944 20.4386 75.3779 20.3364C75.4615 20.2343 75.5241 20.1167 75.5623 19.9903C75.6004 19.864 75.6132 19.7313 75.6001 19.6C75.587 19.4687 75.5481 19.3413 75.4857 19.225C75.4233 19.1087 75.3387 19.0058 75.2365 18.9222C75.1344 18.8387 75.0167 18.776 74.8904 18.7379C74.764 18.6998 74.6315 18.6869 74.5001 18.7001C73.5115 18.773 72.5365 18.9747 71.6001 19.3C71.3494 19.4001 71.1419 19.5852 71.0139 19.8229C70.886 20.0605 70.8457 20.3356 70.9001 20.6C71.0103 20.7694 71.1576 20.9115 71.3309 21.0155C71.5042 21.1195 71.6988 21.1826 71.9001 21.2001V21.2001Z" fill="currentColor"/>
    <path d="M66.6001 25.1C66.7536 25.1808 66.9273 25.2156 67.1001 25.2C67.278 25.1894 67.4512 25.1389 67.607 25.0524C67.7628 24.9658 67.8971 24.8454 68.0001 24.7C68.4513 23.9981 68.9527 23.3297 69.5001 22.7C69.6446 22.5075 69.7146 22.2692 69.6976 22.0291C69.6805 21.789 69.5774 21.5631 69.4072 21.3929C69.237 21.2227 69.0111 21.1196 68.771 21.1025C68.5309 21.0854 68.2927 21.1556 68.1001 21.3C67.3683 21.9921 66.7597 22.8037 66.3001 23.7C66.2262 23.8111 66.1753 23.9359 66.1504 24.067C66.1255 24.198 66.1271 24.3327 66.155 24.4632C66.183 24.5937 66.2368 24.7173 66.3132 24.8266C66.3897 24.936 66.4872 25.0289 66.6001 25.1V25.1Z" fill="currentColor"/>
    <path d="M64 30.8C64.1314 30.8036 64.262 30.7786 64.3829 30.7268C64.5037 30.675 64.6119 30.5977 64.7 30.5001C65.4284 29.7671 66.036 28.9233 66.5 28.0001C66.5568 27.7718 66.5314 27.5309 66.4282 27.3196C66.325 27.1082 66.1507 26.94 65.9358 26.8445C65.7209 26.749 65.4792 26.7323 65.2532 26.7973C65.0272 26.8623 64.8313 27.0049 64.7 27.2001C64.3369 27.9336 63.8649 28.6079 63.3 29.2001C63.1168 29.387 63.0142 29.6383 63.0142 29.9C63.0142 30.1618 63.1168 30.4131 63.3 30.6C63.5125 30.7251 63.7535 30.794 64 30.8V30.8Z" fill="currentColor"/>
    <path d="M58.7003 34.4C58.8413 34.4149 58.9829 34.3795 59.1003 34.3C59.9658 33.8933 60.8013 33.4254 61.6003 32.9C61.8257 32.7541 61.984 32.5247 62.0402 32.2622C62.0965 31.9996 62.0461 31.7254 61.9003 31.5C61.7544 31.2746 61.525 31.1163 61.2625 31.0601C60.9999 31.0038 60.7257 31.0542 60.5003 31.2C59.8003 31.6 59.0003 32.1 58.2003 32.5C57.9643 32.6092 57.7801 32.806 57.6868 33.0487C57.5934 33.2914 57.5983 33.5608 57.7003 33.8C57.794 33.9837 57.9374 34.1373 58.1143 34.2434C58.2911 34.3495 58.4942 34.4037 58.7003 34.4V34.4Z" fill="currentColor"/>
    <path d="M22.6001 61.3999C21.7123 61.3062 20.8392 61.1047 20.0001 60.8C19.7482 60.7071 19.4696 60.7182 19.2258 60.8307C18.982 60.9433 18.7929 61.148 18.7001 61.3999C18.6073 61.6519 18.6184 61.9304 18.7309 62.1742C18.8434 62.418 19.0481 62.6072 19.3001 62.7C20.3034 63.0718 21.3421 63.3399 22.4001 63.5H22.5001C22.7452 63.4889 22.9788 63.393 23.1612 63.2289C23.3435 63.0648 23.4633 62.8425 23.5001 62.6C23.5289 62.461 23.5278 62.3176 23.4969 62.1791C23.466 62.0406 23.4061 61.9104 23.321 61.7969C23.2358 61.6834 23.1275 61.5892 23.0032 61.5208C22.8789 61.4524 22.7415 61.4112 22.6001 61.3999Z" fill="currentColor"/>
    <path d="M15.7 57.3C15.6 57.1 15.3999 56.9 15.2999 56.7C15.1541 56.4746 14.9246 56.3163 14.6621 56.26C14.3995 56.2038 14.1254 56.2541 13.8999 56.4C13.6745 56.5458 13.5162 56.7753 13.46 57.0379C13.4037 57.3004 13.4541 57.5746 13.5999 57.8C13.7321 58.0561 13.9005 58.2919 14.0999 58.5C14.5498 59.1401 15.0515 59.7421 15.5999 60.3C15.7869 60.4832 16.0382 60.5858 16.2999 60.5858C16.5617 60.5858 16.813 60.4832 17 60.3C17.1832 60.1131 17.2858 59.8617 17.2858 59.6C17.2858 59.3382 17.1832 59.0869 17 58.9C16.6 58.4 16.1 57.86 15.7 57.3Z" fill="currentColor"/>
    <path d="M6.99992 41.2001C7.0766 41.3758 7.20222 41.5259 7.36179 41.6322C7.52137 41.7386 7.70812 41.7968 7.89988 41.8C8.04084 41.815 8.18257 41.7796 8.29991 41.7001C8.5359 41.5909 8.72011 41.3941 8.81345 41.1514C8.9068 40.9087 8.90193 40.6392 8.79991 40.4C8.39453 39.4301 7.85604 38.5214 7.19993 37.7001C7.12114 37.595 7.0224 37.5065 6.9094 37.4396C6.7964 37.3726 6.6713 37.3287 6.5413 37.3101C6.4113 37.2915 6.27893 37.2987 6.15171 37.3313C6.0245 37.3639 5.90496 37.4212 5.79991 37.5C5.69485 37.5788 5.60631 37.6775 5.53941 37.7905C5.4725 37.9035 5.42852 38.0286 5.40995 38.1586C5.39138 38.2886 5.3986 38.421 5.43119 38.5482C5.46378 38.6754 5.5211 38.7949 5.59989 38.9C6.17671 39.5939 6.64844 40.3689 6.99992 41.2001V41.2001Z" fill="currentColor"/>
    <path d="M13.6 53.2999C13.3 52.4999 12.9 51.5999 12.5 50.5999C12.454 50.4752 12.384 50.3607 12.2938 50.263C12.2036 50.1653 12.095 50.0864 11.9742 50.0307C11.8535 49.975 11.7231 49.9436 11.5902 49.9383C11.4574 49.933 11.3248 49.954 11.2 49.9999C11.0753 50.0459 10.9608 50.116 10.8631 50.2062C10.7654 50.2964 10.6865 50.4049 10.6307 50.5256C10.575 50.6464 10.5437 50.7769 10.5384 50.9097C10.5331 51.0426 10.554 51.1752 10.6 51.2999C10.9151 52.2527 11.2823 53.1874 11.7 54.0999C11.7767 54.2757 11.9023 54.4257 12.0619 54.5321C12.2215 54.6385 12.4082 54.6968 12.6 54.7C12.7409 54.7149 12.8827 54.6795 13 54.5999C13.1258 54.5554 13.2413 54.4861 13.3399 54.3962C13.4385 54.3063 13.5181 54.1976 13.574 54.0764C13.6299 53.9553 13.661 53.8242 13.6655 53.6908C13.6699 53.5574 13.6477 53.4245 13.6 53.2999Z" fill="currentColor"/>
    <path d="M42.8999 15.3C42.8178 15.0696 42.6855 14.8604 42.5125 14.6874C42.3396 14.5145 42.1303 14.3821 41.8999 14.3C41.6799 14.2006 41.4413 14.1492 41.2 14.1492C40.9586 14.1492 40.7199 14.2006 40.4999 14.3C40.2696 14.3821 40.0603 14.5145 39.8874 14.6874C39.7144 14.8604 39.5821 15.0696 39.4999 15.3C39.4005 15.52 39.3491 15.7586 39.3491 16C39.3491 16.2414 39.4005 16.48 39.4999 16.7C39.5821 16.9304 39.7144 17.1396 39.8874 17.3126C40.0603 17.4855 40.2696 17.6179 40.4999 17.7C40.9571 17.8333 41.4428 17.8333 41.8999 17.7C42.1303 17.6179 42.3396 17.4855 42.5125 17.3126C42.6855 17.1396 42.8178 16.9304 42.8999 16.7C42.9993 16.48 43.0507 16.2414 43.0507 16C43.0507 15.7586 42.9993 15.52 42.8999 15.3Z" fill="currentColor"/>
  </g>
</svg>
