<svg width="70" height="70" viewBox="0 0 70 70" fill="none" xmlns="http://www.w3.org/2000/svg">
<g>
<path d="M56.5 20.2001C56.9 18.4001 56.1 16.5 54.5 15.6C51.9 14.1 48 11.3 46 7.40005C46.3 5.70005 46.1 4.00005 45.5 2.50005C49.8 2.80005 52.9 4.30005 54.9 7.10005C59.2 13 57.4 23.0001 56.8 25.6C56 26.2 55.2 26.8 54.3 27.3C55.3 25 56.1 22.6001 56.5 20.2001ZM57 31C56 30.8 55 30.4 54.2 29.8C55.8 29 57.3 28 58.7 26.9C58.7 26.9 65.8 1.20005 44.8 0.300049C44.8 0.300049 44.7 0.300049 44.5 0.300049C42.6 0.300049 33.2 0.800049 30.6 11.5C31.1 11.7 31.8 11.9 32.6 12.2C33 10.2 33.9 8.30005 35.2 6.70005C37.6 3.70005 41 2.80005 43 2.60005C43.4 3.00005 44.4 4.40005 43.9 7.70005H44C42.8 10.2 41 12.4 38.7 14H38.8C39.6 14 40.4 14.4 40.7 15.2C42.5 13.8 44 12.1 45.1 10.1C47.4 13.5 50.8 16 53.5 17.5C54.3 18 54.7 18.9 54.5 19.8C51.9 32.2 45.6 32.5 45.2 32.5H45.1C45 32.5 45 32.5 44.9 32.5C42.7 32.5 40.7 31.5 39.4 29.9C39.2 30.7 38.9 31.4001 38.6 32.2001C40.3 33.9001 42.6 34.8001 45 34.7001C45.1 34.7001 45.2 34.7001 45.2 34.7001C45.5 34.7001 48.9 34.6 52.1 30.8C52.8 31.6 53.7 32.2 54.7 32.6L45 43.7001C45.6 44.1001 46.2 44.5001 46.8 44.9001L56.9 33.2001C58.6 33.6001 66.9 35.6001 67.5 42.2001C67.4 43.1001 67.1 48 66.7 52.6C66.6 53.5 65.8 54.1001 65 54.2001H52C52 54.5001 52.1 55.2001 52.1 56.4001H64.8C66.8 56.4001 68.4 54.9001 68.7 52.9001C69.2 47.7001 69.5 42.3 69.5 42.3C69 32.9 57 31 57 31Z" fill="currentColor"/>
<path d="M52.2 56.5H52V56.3C51.9 55.2 51.9 54.4 51.9 54.2V53.9H65.0999C65.8999 53.9 66.4999 53.3 66.5999 52.6C66.9999 48 67.4 43.1 67.4 42.2C66.9 36 59.1 33.9 57.2 33.5L46.9 45.2L46.7 45C46.1 44.6 45.5 44.2 44.9 43.8L44.5999 43.6L54.2 32.4C53.4 32 52.7 31.5 52 30.9C48.8 34.6 45.4999 34.7 45.0999 34.7H44.7999H44.7C42.3 34.7 39.9999 33.8 38.2999 32.1L38.2 32L38.2999 31.8C38.5999 31.1 38.8999 30.3 39.0999 29.6L39.2 29.2L39.5 29.6C40.8 31.2 42.7999 32.1 44.7999 32.1H45.0999C45.3999 32.1 51.5999 31.8 54.0999 19.6C54.2999 18.8 53.9 18 53.2 17.6C50.7 16.2 47.3 13.8 44.9 10.4C43.8 12.2 42.2999 13.9 40.5999 15.2L40.4 15.4L40.2999 15.1C39.9999 14.5 39.2999 14 38.5999 14.1H38.5H37.7L38.4 13.6C40.5 12 42.3 10 43.5 7.6V7.4C44 4.4 43.1999 3.1 42.7999 2.7C40.8999 3 37.5999 3.8 35.2999 6.7C34.0999 8.3 33.1999 10.1 32.7999 12.1L32.7 12.4L32.4 12.3C31.4 12 30.6 11.7 30.4 11.6L30.2 11.5L30.2999 11.3C32.8999 0.5 42.5 0 44.4 0C44.6 0 44.7 0 44.7 0C50.1 0.2 54.1999 2.1 56.7999 5.7C62.4999 13.5 58.9 26.8 58.9 26.9V27H58.7999C57.4999 28 56.0999 29 54.5999 29.7C55.2999 30.2 56.1 30.5 56.9 30.7C57 30.7 59.9999 31.2 63.0999 32.9C67.1999 35.1 69.5 38.3 69.8 42.2C69.8 42.3 69.4 47.7 69 52.8C68.8 54.9 67 56.5 64.9 56.5H52.2V56.5ZM52.4 56H64.9C66.8 56 68.3 54.6 68.5 52.7C69 47.6 69.3 42.2 69.3 42.1C69.1 38.4 66.9 35.4 62.9 33.3C59.9 31.7 56.9 31.2 56.9 31.2C55.8 31 54.8 30.6 54 29.9L53.7 29.7L54 29.5C55.5 28.7 57 27.8 58.4 26.7C58.7 25.6 61.7 13.3 56.4 6C53.9 2.6 50 0.7 44.7 0.5C44.7 0.5 44.6 0.5 44.4 0.5C42.6 0.5 33.3999 1 30.7999 11.3C31.0999 11.4 31.7 11.6 32.4 11.8C32.9 9.9 33.7 8 35 6.5C37.5 3.4 41.1 2.5 43 2.3H43.0999L43.2 2.4C43.7 2.8 44.7 4.2 44.2 7.4H44.4L44.2999 7.7C43.1999 10 41.5 12.1 39.5 13.7C40.1 13.8 40.6 14.2 40.9 14.7C42.5 13.3 43.9 11.7 45 9.9V9.5L45.2 9.8C47.5 13.2 51 15.7 53.5 17.2C54.4 17.7 54.8999 18.7 54.5999 19.8C51.9999 32.4 45.3999 32.7 45.0999 32.7H44.7999C42.6999 32.7 40.8 31.8 39.4 30.3C39.2 30.9 38.9999 31.4 38.7999 32C40.3999 33.5 42.4999 34.4 44.7999 34.4H44.9H45.0999C45.2999 34.4 48.5999 34.4 51.7999 30.6L51.9 30.5L52.0999 30.4L52.2999 30.5C52.9999 31.3 53.8999 31.8 54.7999 32.3L55.0999 32.4L45.5 43.6C46 43.9 46.4 44.2 46.9 44.5L56.9 32.9H57C58.7 33.3 67.2 35.4 67.8 42.1C67.7 43.1 67.4 47.9 67 52.5C66.9 53.5 66 54.2 65 54.3H52.2999C52.2999 54.7 52.4 55.3 52.4 56ZM53.5999 27.9L53.9 27.2C55 25 55.7 22.6 56.2 20.2C56.6 18.5 55.7999 16.8 54.2999 15.9C51.4999 14.3 47.7 11.5 45.7 7.6V7.5V7.4C46 5.8 45.8 4.1 45.2 2.6L45 2.2H45.4C49.8 2.5 53 4.1 55 6.9C59.4 12.9 57.6 22.7 56.9 25.6V25.7L56.7999 25.8C55.9999 26.4 55.0999 27 54.2999 27.5L53.5999 27.9ZM56.7999 20.2C56.3999 22.4 55.6999 24.6 54.7999 26.6C55.3999 26.2 56 25.8 56.5 25.4C57.2 22.5 58.7999 12.9 54.5999 7.2C52.6999 4.6 49.7999 3.1 45.7999 2.7C46.2999 4.2 46.5 5.8 46.2 7.3C48.2 11 51.7999 13.7 54.5999 15.3C56.2999 16.3 57.1999 18.3 56.7999 20.2Z" fill="currentColor"/>
<path d="M35.9 37.2001L39.6 41.4001C41.1 41.8001 42.5 42.3001 43.9 43.0001L37 35.2001C36.7 35.9001 36.3 36.6001 35.9 37.2001Z" fill="currentColor"/>
<path d="M44.8 43.8L43.7 43.3C42.4 42.6 40.9 42.1 39.5 41.7H39.4L35.5 37.3L35.6 37.1C36 36.5 36.4 35.8 36.8 35.2L37 34.9L44.8 43.8ZM39.7 41.2C40.8 41.5 41.8 41.9 42.9 42.3L37.1 35.7C36.8 36.2 36.5 36.7 36.2 37.2L39.7 41.2Z" fill="currentColor"/>
<path d="M2.7 55.1V54.9C3.2 47.6 13.4 45.8 13.5 45.8C14.2 45.7 14.8 45.5 15.5 45.2C17.1 46.6 20.3 48.9 24.6 49.1C24.8 49.1 25 49.1 25.3 49.1C28.6 49.1 31.9 47.8 35 45.3C35.6 45.6 36.2 45.7 36.8 45.8C36.9 45.8 47.2 47.6 47.6 54.9C47.9 58.2 47.9 61.5 47.6 64.8C47.5 65.6 46.7 66.6 45.9 66.6H4.4C3.5 66.6 2.7 65.6 2.6 64.8C2.3 61.6 2.3 58.3 2.7 55.1ZM19.7 40.8C21.3 41.9 23.2 42.5 25.1 42.5C26.8 42.5 28.5 42 30 41C30.3 40.9 30.6 40.8 30.9 40.7C31.4 42 32.2 43.1 33.3 44C30.6 46 27.8 47 25 46.9C22.3 46.7 19.7 45.7 17.7 43.9C18.4 43 19.2 42 19.7 40.8ZM15.2 29.3C15.4 28.3 15.9 27.3 16.7 26.6L19.1 28.3C19.2 28.4 19.3 28.4 19.5 28.5C19.7 28.5 19.8 28.3 19.8 28L20.2 24.9C23.1 27.6 26.7 28.3 29.3 28.3C30.5 28.3 31.8 28.2 33 27.9C34 27.5 34.9 26.9 35.8 26.2C35.7 27 35.6 27.9 35.4 28.7C34.2 32.9 32 36.6 29.3 38.8C29.2 38.9 29.1 39 29 39C28.8 39.1 28.5 39.3 28.3 39.4C27.4 39.8 26.4 40.1 25.4 40.1C24.3 40.1 23.3 39.9 22.3 39.6C21.5 39.3 20.8 38.9 20.1 38.3C19.8 38.1 19.6 37.8 19.4 37.6C17.2 35.2 15.9 32.4 15.2 29.3ZM14.8 25.5C14.5 22.6 14.8 19.5 16.3 19C16.7 18.9 17.1 18.6 17.4 18.2C19 16.1 21.4 14.9 24 14.9C25.6 14.9 27.1 15.3 28.6 15.9C29.1 16.1 33.4 17.8 36.4 17.9C36.6 19.8 36.6 24 32.2 25.8C31.2 26 30.2 26.1 29.2 26.1C27 26.1 23.9 25.6 21.6 23.3C20.7 22.5 19.4 22.5 18.6 23.4C18.3 23.7 18.1 24.2 18 24.6V24.8C17.2 24.2 16.2 24.3 15.4 24.9C15.1 25.2 14.9 25.3 14.8 25.5ZM4.4 68.8H46C47.9 68.8 49.7 67 49.9 65.1C50.2 61.7 50.2 58.2 49.9 54.8C49.3 45.6 37.3 43.7 37.3 43.7C34.2 43.2 33 40.5 32.5 38.8C34.8 36.1 36.5 32.9 37.4 29.4C37.8 28.1 37.9 26.8 37.9 25.5C37.9 24.9 37.9 24.3 37.8 23.7C38.8 21.4 39 18.9 38.4 16.5C38.3 16.1 37.9 15.8 37.4 15.9H37.3C37.1 15.9 37 15.9 36.8 15.9C34 15.9 29.5 14.1 29.5 14.1C27.8 13.4 26 13 24.1 12.9H23.6C20.4 13.1 17.5 14.6 15.6 17.1C12.8 18 12.4 21.6 12.5 24.7C12.5 25 12.5 25.2 12.5 25.5C12.6 30.5 14.4 35.3 17.6 39.2C17.7 39.3 17.8 39.4 17.9 39.5C17.3 41.2 16 43.3 13.3 43.8C13.3 43.8 1.2 45.7 0.600001 54.9C0.200001 58.3 0.100001 61.8 0.500001 65.2C0.700001 67 2.5 68.8 4.4 68.8Z" fill="currentColor"/>
<path d="M46.0999 69.1H4.39995C2.39995 69.1 0.399952 67.3 0.199952 65.1C-0.200048 61.7 -0.100048 58.2 0.299952 54.7C0.499952 50.9 2.89995 47.7 6.99995 45.5C10.1 43.9 13.1 43.4 13.2 43.4C15.7 42.9 17 41 17.6 39.4C17.5 39.3 17.5 39.3 17.4 39.2C14.2 35.3 12.3 30.4 12.2 25.4C12.2 25.1 12.2 24.9 12.2 24.6C12 20.3 13.1 17.6 15.4 16.8C17.4 14.3 20.3 12.7 23.5 12.5H24C25.9 12.6 27.7 13 29.5 13.7C29.5 13.7 34 15.5 36.7 15.5C36.9 15.5 37 15.5 37.2 15.5C37.3 15.5 37.3 15.5 37.4 15.5C37.9 15.5 38.3999 15.8 38.5999 16.3C39.1999 18.8 39 21.4 38 23.7C38.1 24.3 38.0999 24.9 38.0999 25.5C38.0999 26.8 37.8999 28.2 37.5999 29.5C36.6999 32.9 35 36.2 32.7 38.9C33.3 40.8 34.4999 43 37.2999 43.5C37.3999 43.5 40.4 44 43.5 45.6C47.6 47.8 49.9 51 50.2 54.8C50.5 58.2 50.5 61.7 50.2 65.2C50 67.2 48.0999 69.1 46.0999 69.1ZM24.1 13H23.6C20.5 13.2 17.7 14.7 15.8 17.1V17.2H15.7C13 18.1 12.6 21.7 12.8 24.6C12.8 24.9 12.8 25.1 12.8 25.4C12.9 30.3 14.7 35.1 17.9 38.9C17.9 39 18 39 18.1 39.1L18.3 39.3L18.2 39.4C17.6 41.2 16.2 43.4 13.4 43.9C13.4 43.9 10.4 44.4 7.39995 46C3.39995 48.1 1.19995 51.1 0.999952 54.8C0.399952 58.2 0.399952 61.6 0.699952 65C0.899952 66.9 2.59995 68.5 4.39995 68.5H46C47.8 68.5 49.3999 66.9 49.5999 65C49.8999 61.6 49.8999 58.1 49.5999 54.7C49.3999 51 47.2 48 43.2 45.9C40.2 44.3 37.2 43.8 37.2 43.8C33.9 43.2 32.6 40.4 32.2 38.7V38.6L32.2999 38.5C34.5999 35.8 36.3 32.6 37.2 29.2C37.5 27.9 37.7 26.6 37.7 25.3C37.7 24.7 37.6999 24.1 37.5999 23.5V23.4V23.3C38.5999 21.1 38.8 18.6 38.2 16.2C38.1 15.9 37.8 15.7 37.5 15.8C37.4 15.8 37.4 15.8 37.4 15.8C37.2 15.8 37 15.8 36.9 15.8C34.1 15.8 29.7 14 29.5 14C27.7 13.5 25.9 13.1 24.1 13ZM46.0999 66.9H4.39995C3.39995 66.9 2.49995 65.8 2.39995 64.9C1.99995 61.6 2.09995 58.3 2.49995 55V54.8C2.99995 47.3 13.4 45.5 13.5 45.5C14.2 45.4 14.8 45.2 15.4 44.9L15.5 44.8L15.6 44.9C17.1 46.2 20.3 48.5 24.5 48.7C28 48.9 31.4 47.6 34.7 45L34.7999 44.9L34.9 45C35.5 45.2 35.9999 45.4 36.5999 45.5C36.6999 45.5 47.2 47.4 47.7 54.9L47.5 55H47.7C48 58.3 48 61.7 47.7 65C48 65.8 47.0999 66.9 46.0999 66.9ZM15.6 45.4C15 45.7 14.4 45.9 13.7 46C13.5 46 3.49995 47.8 2.99995 54.9V55.1C2.59995 58.3 2.59995 61.6 2.89995 64.8C2.99995 65.5 3.69995 66.4 4.39995 66.4H46C46.7 66.4 47.4 65.5 47.5 64.8C47.8 61.5 47.7 58.2 47.5 54.9V54.8C47 47.8 37 46 36.9 46C36.3 45.9 35.6999 45.7 35.0999 45.5C31.9999 48 28.7 49.3 25.4 49.3C25.2 49.3 25 49.3 24.7 49.3C20.4 49 17.2 46.8 15.6 45.4ZM25.4 47.1C25.2 47.1 25 47.1 24.9 47.1C22.1 46.9 19.5 45.8 17.4 44.1L17.2 43.9L17.4 43.7C18.3 42.9 19 41.8 19.5 40.7L19.6 40.4L19.9 40.6C21.4 41.7 23.3 42.2 25.1 42.2C26.8 42.2 28.4 41.7 29.8 40.7H29.9C30.2 40.6 30.5 40.5 30.7 40.4L30.9 40.3L31 40.5C31.5 41.7 32.2999 42.9 33.2999 43.7L33.5 43.9L33.2999 44.1C30.6999 46.1 28 47.1 25.4 47.1ZM17.9 43.9C19.9 45.5 22.3 46.4 24.9 46.6C27.5 46.7 30.1999 45.8 32.7999 44C31.8999 43.2 31.2 42.1 30.7 41C30.5 41.1 30.3 41.2 30.1 41.2C28.6 42.2 26.9 42.7 25.1 42.7C23.2 42.7 21.4 42.1 19.8 41.1C19.3 42.2 18.7 43.1 17.9 43.9ZM25.3 40.4C24.2 40.4 23.1 40.2 22.1 39.9C21.3 39.6 20.5 39.2 19.9 38.6C19.6 38.4 19.4 38.1 19.1 37.9C17.1 35.5 15.7 32.6 15 29.5V29.4V29.3C15.2 28.2 15.8 27.2 16.6 26.5L16.7 26.4L19.2 28.2C19.3 28.3 19.4 28.3 19.4 28.3C19.4 28.3 19.5 28.2 19.5 28.1L19.9 24.5L20.3 24.8C23.1 27.5 26.7 28.1 29.3 28.1C30.5 28.1 31.7 28 32.9 27.7C33.8 27.3 34.7999 26.8 35.5999 26.1L36.0999 25.7V26.3C35.9999 27.2 35.9 28 35.7 28.8C34.5 33 32.3 36.8 29.5 39C29.4 39.1 29.3 39.1 29.3 39.2L29 39.3C28.9 39.3 28.8 39.4 28.7 39.5C28.6 39.6 28.4 39.7 28.3 39.7C27.4 40.1 26.3 40.4 25.3 40.4ZM15.4 29.3C16.1 32.3 17.5 35.1 19.4 37.4C19.6 37.6 19.9 37.9 20.1 38.1C20.7 38.7 21.4 39.1 22.2 39.3C23.2 39.6 24.2 39.8 25.2 39.8C26.2 39.8 27.1 39.6 28 39.1C28.1 39.1 28.2 39 28.3 38.9C28.4 38.8 28.5 38.7 28.7 38.7C28.8 38.6 28.8 38.6 28.9 38.5C31.6 36.3 33.7 32.7 34.9 28.5C35.1 27.9 35.1999 27.3 35.2999 26.6C34.5999 27.1 33.8 27.6 32.9 27.9C31.6 28.2 30.4 28.3 29.1 28.3C26.6 28.3 23.1 27.8 20.2 25.2L20 28C20 28.5 19.7 28.7 19.4 28.7C19.2 28.7 19 28.6 18.9 28.5L16.7 27C16.1 27.6 15.6 28.5 15.4 29.3ZM29.3 26.4C29.2 26.4 29.2 26.4 29.3 26.4C27 26.4 23.9 25.9 21.4 23.6C21 23.2 20.5 23 20.1 23C19.6 23 19.1 23.2 18.8 23.6C18.5 23.9 18.3 24.3 18.3 24.7L18.2 25.4L17.8 25C17.1 24.5 16.2 24.6 15.5 25.1C15.3 25.3 15.1 25.4 15 25.6L14.6 26L14.5 25.4C14.3 23.2 14.2 19.3 16.2 18.6C16.6 18.5 16.9 18.2 17.2 17.9C18.9 15.8 21.4 14.5 24 14.5C25.6 14.5 27.2 14.9 28.7 15.5C29.2 15.7 33.4 17.4 36.5 17.5H36.7V17.7C36.9 19.5 36.8999 24 32.2999 25.9C31.2999 26.3 30.3 26.4 29.3 26.4ZM20.1 22.5C20.7 22.5 21.3 22.7 21.8 23.2C24.1 25.4 27.1 25.9 29.3 25.9C30.3 25.9 31.3 25.8 32.2 25.6C36.2 23.9 36.4999 20.3 36.2999 18.1C33.1999 17.9 29.1 16.3 28.6 16.1C27.1 15.5 25.6 15.1 24 15.1C21.5 15.1 19.1 16.3 17.6 18.3C17.3 18.7 16.9 19 16.4 19.2C15.3 19.6 14.8 21.7 15 24.9C15.1 24.8 15.1 24.8 15.2 24.7C15.9 24.1 16.9 24 17.8 24.4C17.9 23.9 18.1 23.5 18.4 23.2C18.8 22.8 19.4 22.6 20.1 22.5Z" fill="currentColor"/>
</g>
</svg>
