<svg viewBox="0 0 70 69" fill="none" xmlns="http://www.w3.org/2000/svg">
<g>
<path d="M56.3 19.92C56.68 18.11 55.85 16.26 54.25 15.33C51.64 13.82 47.73 11.05 45.71 7.13999C46.01 5.47999 45.82 3.75999 45.16 2.20999C49.46 2.53999 52.55 4.04999 54.58 6.81999C58.92 12.74 57.08 22.68 56.48 25.34C55.67 25.94 54.83 26.5 53.96 27C55.04 24.74 55.82 22.37 56.3 19.92ZM56.7 30.7C55.68 30.53 54.73 30.11 53.92 29.46C55.51 28.65 57 27.68 58.39 26.57C58.39 26.57 65.44 0.86999 44.45 -9.76585e-06C44.45 -9.76585e-06 44.33 -0.0100098 44.12 -0.0100098C42.24 -0.0100098 32.82 0.52999 30.21 11.2C30.69 11.39 31.42 11.65 32.24 11.91C32.67 9.89999 33.55 8.00999 34.81 6.39999C37.24 3.39999 40.63 2.51999 42.63 2.25999C43.05 2.65999 44.07 4.01999 43.5 7.30999L43.59 7.32999C42.39 9.84999 40.57 12.03 38.31 13.68C38.35 13.68 38.39 13.67 38.43 13.67C39.24 13.64 39.99 14.1 40.34 14.84C42.1 13.42 43.59 11.7 44.75 9.75999C47.03 13.16 50.44 15.62 53.17 17.2C53.97 17.66 54.38 18.58 54.19 19.48C51.62 31.83 45.3 32.16 44.92 32.16H44.9H44.85C44.79 32.16 44.72 32.16 44.66 32.16C42.51 32.16 40.47 31.18 39.12 29.52C38.88 30.29 38.61 31.04 38.3 31.78C40 33.43 42.29 34.34 44.66 34.32C44.74 34.32 44.82 34.32 44.9 34.32H44.92C45.22 34.32 48.6 34.23 51.77 30.42C51.78 30.42 51.79 30.41 51.8 30.41C52.53 31.18 53.41 31.8 54.38 32.23L44.77 43.4C45.4 43.76 46.01 44.16 46.59 44.59L56.66 32.89C58.35 33.24 66.7 35.32 67.23 41.9C67.17 42.8 66.83 47.68 66.41 52.29C66.29 53.16 65.56 53.81 64.68 53.84H51.79C51.81 54.11 51.88 54.88 51.94 55.99H64.67C66.66 55.96 68.32 54.46 68.54 52.48C69.01 47.31 69.38 41.89 69.38 41.89C68.79 32.65 56.7 30.7 56.7 30.7Z" fill="currentColor"/>
<path d="M35.62 36.93L39.31 41.16C40.77 41.56 42.2 42.1 43.56 42.76L36.79 34.99C36.43 35.67 36.04 36.31 35.62 36.93Z" fill="currentColor"/>
<path d="M2.50005 54.81L2.52005 54.63C2.99005 47.3 13.2601 45.53 13.3601 45.51H13.3801H13.4001C14.0801 45.39 14.7501 45.18 15.3701 44.88C16.9401 46.25 20.1701 48.54 24.4601 48.75C24.6801 48.76 24.9001 48.77 25.1201 48.77C28.4401 48.77 31.6901 47.49 34.8101 44.96C35.3901 45.21 35.9901 45.4 36.6101 45.51H36.6301H36.64C36.74 45.53 47.0201 47.3 47.4901 54.63V54.66V54.69C47.7801 57.99 47.7901 61.31 47.5401 64.62C47.4701 65.43 46.66 66.4 45.82 66.4H4.19005C3.34005 66.4 2.48005 65.41 2.39005 64.6C2.05005 61.34 2.08005 58.06 2.50005 54.81ZM19.4001 40.55C20.9801 41.63 22.8501 42.21 24.7701 42.23C26.5101 42.23 28.2101 41.71 29.6501 40.74C29.9501 40.63 30.2401 40.52 30.5201 40.39C31.0501 41.67 31.8501 42.8 32.8801 43.73C30.1701 45.77 27.3901 46.74 24.5901 46.6C21.8901 46.39 19.3301 45.35 17.2401 43.62C18.1601 42.76 18.9001 41.71 19.4001 40.55ZM14.9201 29.1C15.1201 28.07 15.6501 27.13 16.4401 26.42L18.7901 28.08C18.8901 28.17 19.0201 28.23 19.1501 28.24C19.3401 28.24 19.4701 28.07 19.4701 27.76L19.8501 24.7C22.7101 27.45 26.3201 28.06 28.9801 28.06C30.2301 28.07 31.47 27.93 32.68 27.65C33.69 27.26 34.6301 26.7 35.4501 26C35.3901 26.84 35.2501 27.68 35.0201 28.49C33.8701 32.68 31.6601 36.36 28.9501 38.59C28.8501 38.67 28.7501 38.74 28.6501 38.82C28.4401 38.89 28.1501 39.15 27.9401 39.2C27.0301 39.65 26.0201 39.88 25.0001 39.88C23.9401 39.87 22.8901 39.69 21.8801 39.37C21.0801 39.12 20.3401 38.69 19.7301 38.11C19.4701 37.88 19.2201 37.64 18.9901 37.38C17.0001 34.97 15.6001 32.14 14.9201 29.1ZM14.5201 25.28C14.2401 22.37 14.4701 19.29 16.0501 18.76C16.4901 18.62 16.8701 18.33 17.1301 17.95C18.7301 15.9 21.1701 14.68 23.7701 14.64C25.3501 14.69 26.9101 15.03 28.3701 15.66C28.3901 15.67 28.4001 15.67 28.4201 15.68C28.9101 15.88 33.1801 17.56 36.2401 17.66C36.4701 19.59 36.41 23.75 32.01 25.6C31.01 25.81 29.9901 25.91 28.9701 25.91C26.8001 25.91 23.7201 25.43 21.3301 23.15C20.4701 22.33 19.1101 22.35 18.2801 23.21C17.9601 23.54 17.7501 23.97 17.7001 24.44L17.6701 24.68C16.8801 24.13 15.8201 24.16 15.0701 24.77C14.8801 24.91 14.6901 25.09 14.5201 25.28ZM4.19005 68.55H45.82C47.76 68.55 49.51 66.74 49.69 64.81C49.96 61.37 49.95 57.92 49.64 54.48C49.05 45.3 36.9901 43.37 36.9901 43.37C33.9101 42.82 32.6501 40.18 32.1501 38.46C34.4901 35.73 36.18 32.51 37.09 29.04C37.44 27.76 37.6201 26.44 37.6301 25.12C37.6301 24.52 37.59 23.92 37.5 23.33C38.52 21.06 38.7501 18.51 38.1501 16.09C38.0101 15.69 37.62 15.43 37.19 15.46C37.14 15.46 37.1 15.46 37.05 15.47C36.88 15.49 36.7 15.49 36.53 15.49C33.78 15.49 29.2201 13.66 29.2201 13.66C27.5201 12.96 25.7001 12.56 23.8601 12.48L23.3701 12.49C20.2101 12.66 17.2901 14.2 15.3601 16.71C12.5801 17.64 12.1101 21.21 12.2801 24.34C12.2601 24.6 12.2501 24.86 12.2501 25.11C12.3501 30.11 14.1501 34.93 17.3601 38.77C17.4501 38.87 17.5501 38.96 17.6501 39.06C17.0401 40.73 15.7501 42.88 13.0101 43.36C13.0101 43.36 0.950051 45.29 0.360051 54.47C-0.0899491 57.9 -0.129949 61.37 0.240051 64.81C0.450051 66.75 2.24005 68.55 4.19005 68.55Z" fill="currentColor"/>
</g>
</svg>
