<svg width="74" height="72" viewBox="0 0 74 72" fill="none" xmlns="http://www.w3.org/2000/svg">
  <g id="right_choice">
    <path d="M64.4 0H8.70001C3.90001 0 0 3.9 0 8.7V63.27C0 68.07 3.90001 71.97 8.70001 71.97H64.4C69.2 71.97 73.1 68.07 73.1 63.27V8.7C73.1 3.9 69.2 0 64.4 0ZM70.55 63.27C70.55 66.66 67.79 69.42 64.4 69.42H37.83V36.24H35.28V69.42H8.71002C5.32002 69.42 2.56 66.66 2.56 63.27V8.7C2.56 5.31 5.32002 2.55 8.71002 2.55H64.41C67.8 2.55 70.56 5.31 70.56 8.7V63.27H70.55Z" fill="#EDC06D"/>
    <path d="M36.5496 7.01001C26.6796 7.01001 17.3697 9.83002 10.3497 14.94C10.0297 15.17 9.83964 15.54 9.82964 15.93C9.80964 16.32 9.98959 16.7 10.2796 16.95L24.7796 29.09C25.2296 29.46 25.8797 29.49 26.3497 29.14C29.0597 27.16 32.6796 26.07 36.5496 26.07C40.4196 26.07 44.0396 27.16 46.7496 29.14C46.9696 29.3 47.2396 29.38 47.4996 29.38C47.7896 29.38 48.0796 29.28 48.3196 29.08L62.8196 16.94C63.1196 16.69 63.2896 16.31 63.2796 15.92C63.2696 15.53 63.0696 15.16 62.7596 14.93C55.7296 9.83002 46.4296 7.01001 36.5496 7.01001ZM47.4196 26.52C44.7196 24.79 41.3696 23.81 37.8196 23.61V15.96H35.2696V23.61C31.7196 23.81 28.3796 24.79 25.6696 26.52L13.1996 16.08C14.2096 15.42 15.2696 14.82 16.3696 14.26L19.0696 16.89C19.3196 17.13 19.6396 17.25 19.9596 17.25C20.2896 17.25 20.6196 17.12 20.8696 16.86C21.3596 16.35 21.3497 15.55 20.8497 15.05L18.8296 13.08C20.8396 12.22 22.9696 11.51 25.1696 10.96L27.4396 13.8C27.6896 14.12 28.0596 14.28 28.4396 14.28C28.7196 14.28 28.9995 14.19 29.2395 14C29.7895 13.56 29.8796 12.76 29.4396 12.21L27.9596 10.36C30.3296 9.93002 32.7796 9.68002 35.2696 9.61002V12.1C35.2696 12.8 35.8396 13.38 36.5496 13.38C37.2496 13.38 37.8296 12.81 37.8296 12.1V9.61002C40.3296 9.67002 42.7796 9.93002 45.1396 10.36L43.6596 12.21C43.2196 12.76 43.3097 13.56 43.8597 14C44.0897 14.19 44.3696 14.28 44.6496 14.28C45.0296 14.28 45.3996 14.12 45.6496 13.8L47.9196 10.96C50.1196 11.51 52.2496 12.21 54.2596 13.08L52.2395 15.05C51.7295 15.54 51.7197 16.35 52.2197 16.86C52.4697 17.12 52.7996 17.25 53.1296 17.25C53.4496 17.25 53.7696 17.13 54.0196 16.89L56.7197 14.26C57.8097 14.83 58.8796 15.42 59.8896 16.08L47.4196 26.52Z" fill="#EDC06D"/>
  </g>
</svg>
