<svg width="37" height="63" viewBox="0 0 37 63" fill="none" xmlns="http://www.w3.org/2000/svg">
  <g id="satisfaction">
    <path d="M34.2199 34.1234C34.3999 33.8934 34.4799 33.6034 34.4499 33.3134C34.3699 32.5034 33.5298 32.2135 33.2998 32.1435C32.1898 31.7235 31.1199 31.2334 30.0699 30.6734C29.5799 30.3734 29.1399 30.0035 28.7599 29.5735C28.3599 29.0635 27.8199 28.6934 27.1999 28.5034C27.0699 28.4634 26.2898 28.1035 22.4098 25.2735C21.1298 24.3435 19.4399 24.2034 18.0299 24.9334L15.7699 26.0935L17.3799 20.7835V20.7235L18.6598 10.6934C18.7898 9.98344 19.7298 4.54343 18.1798 2.30343C17.7398 1.59343 17.0098 1.11344 16.1798 1.00344C15.3298 0.963442 14.4999 1.27343 13.8799 1.86343L13.6698 2.05343L13.2398 5.90347L12.6798 8.02346C12.4398 7.29346 12.1598 6.49346 11.8698 5.71346C10.9498 3.13346 8.95986 3.42347 8.00986 3.59347H7.84982C6.90982 3.77347 6.19982 4.54344 6.09982 5.50344V5.66348L7.20987 9.23342V18.7635C6.99987 18.0835 6.81984 17.5735 6.73984 17.4035C6.73984 17.4035 4.86986 13.7634 2.56986 14.6034C1.33986 15.0634 0.709853 16.4135 1.12985 17.6535V17.7334L1.16983 17.8034C1.45983 18.3134 1.80986 18.9535 1.88986 19.1635V19.2235C1.94986 20.1635 2.13988 21.0935 2.46988 21.9735C2.63988 22.4135 2.77985 22.7834 2.87985 22.9934C2.97985 23.1834 3.04988 23.3735 3.08988 23.5835C3.08988 23.9835 3.30983 26.4135 3.35983 26.8935V27.0434L4.84982 29.7035L3.65982 32.3634C3.61982 32.4434 3.59982 32.5334 3.59982 32.6234C3.53982 32.7434 3.50985 32.8634 3.49985 32.9934V33.0335L4.77988 57.9535C4.89988 60.4035 6.91984 62.3235 9.36984 62.3335H17.3899C18.1799 62.3335 18.9598 62.1035 19.6198 61.6635C21.4798 60.4335 25.9199 57.0035 27.1499 51.5235C27.5099 49.9135 28.8099 48.6934 30.1999 47.3834C32.1299 45.5534 34.3199 43.4735 34.3199 40.0235C34.3199 39.7435 34.4699 39.5135 34.7799 39.0835C35.2099 38.5135 35.5598 37.8935 35.8098 37.2235C36.4998 35.3435 34.9799 34.4934 34.2199 34.1234ZM14.6899 6.19344L15.0699 2.78347C15.3499 2.56347 15.6998 2.45346 16.0498 2.46346C16.4598 2.54346 16.8199 2.80342 17.0199 3.17342C18.0499 4.67342 17.5399 8.97344 17.2599 10.5034L15.9699 20.5034L14.0699 26.8534L5.79984 31.2735L8.21988 25.8435L11.3999 18.6635V18.6034L13.5199 10.5335L14.6899 6.19344ZM8.02988 5.06344H8.20987C9.21987 4.91344 10.0098 4.79346 10.5498 6.27346C11.1998 8.03346 11.8299 10.0134 12.0299 10.6334L11.9298 10.9934L10.0398 18.1635L8.63986 21.2934V9.02346L7.53983 5.59347C7.58983 5.34347 7.77988 5.13344 8.02988 5.06344ZM4.79984 26.6535C4.67984 25.3235 4.55985 23.8434 4.55985 23.6234C4.53985 23.2234 4.42984 22.8335 4.23984 22.4735C4.13984 22.2335 4.00982 21.9334 3.84982 21.5034C3.58982 20.7534 3.43982 19.9635 3.40982 19.1635C3.40982 19.0935 3.40982 19.0334 3.40982 18.9934C3.40982 18.9534 3.40984 18.6134 2.54984 17.1834C2.37984 16.6834 2.63985 16.1435 3.12985 15.9635C3.93985 15.6735 5.15984 17.3534 5.54984 18.0634C5.71984 18.4234 6.65983 21.6034 7.28983 23.8034V23.8634L7.38986 24.0534V24.1234L5.60983 28.1034L4.79984 26.6535ZM34.4798 36.7735C34.2898 37.3135 34.0198 37.8235 33.6698 38.2835C33.2398 38.7735 32.9798 39.4034 32.9398 40.0634C32.9398 42.9034 31.1599 44.5934 29.2699 46.3834C27.7799 47.7834 26.2598 49.2435 25.8098 51.2235C24.6998 56.1935 20.5999 59.3634 18.8899 60.4834C18.4599 60.7634 17.9598 60.9135 17.4398 60.9135H9.37985C7.68985 60.9135 6.29988 59.5835 6.21988 57.9035L4.96988 33.3234L18.6898 26.2635C19.6098 25.7835 20.7299 25.8634 21.5699 26.4834C26.0999 29.7734 26.6399 29.8834 26.8999 29.9434C27.2199 30.0934 27.4899 30.3234 27.7099 30.6034C28.1799 31.1234 28.7199 31.5734 29.3199 31.9434C30.4299 32.5334 31.5698 33.0635 32.7398 33.5135L32.6598 33.5634L32.1798 33.8435L31.6999 34.1234C31.4499 34.2334 31.1698 34.3635 30.8498 34.5235C30.6998 34.5835 30.5499 34.6235 30.3999 34.6635C28.9299 35.0035 27.1698 34.3334 25.1098 32.6234L24.8799 32.4334H24.5799C24.5799 32.4334 21.8798 32.7035 21.3498 31.2835L20.4599 28.7735L19.9798 31.3834C19.9798 31.4434 20.1798 32.7635 17.5598 33.1535L17.1198 33.2135L16.9798 33.6435C16.5898 34.4435 16.1199 35.2135 15.5699 35.9135L13.0199 35.3335L15.2799 37.2035C15.7699 37.7835 15.9699 38.5534 15.8199 39.3034L15.2998 39.8435L15.9399 40.0034C16.0599 40.1534 18.9399 43.6535 22.0299 43.6535C24.2499 43.7535 26.3399 42.5634 27.3999 40.6134C27.5899 40.3034 27.7498 39.9634 27.9198 39.6034C28.3898 38.2534 29.3198 37.1134 30.5498 36.3734L31.5299 35.8634C31.8299 35.7434 32.1199 35.6034 32.3999 35.4434C32.8899 35.2334 33.0899 35.2135 33.2599 35.2835L33.4798 35.3834C34.4898 35.8134 34.7098 36.1135 34.4798 36.7735ZM16.7599 36.8435C16.9699 36.4935 17.1498 36.1234 17.2998 35.7434C17.4498 35.3834 17.5698 35.0235 17.6598 34.7635C18.8998 34.5835 20.0299 33.9434 20.8299 32.9834C21.8899 33.7434 23.1799 34.0935 24.4699 33.9635C25.6399 34.9635 27.0199 35.6935 28.5099 36.0935C27.6899 36.9235 27.0399 37.9035 26.5899 38.9735C26.4399 39.3035 26.2799 39.6234 26.1399 39.8734C25.3399 41.3934 23.7299 42.3035 22.0099 42.2035C20.0299 42.2035 17.9699 40.1234 17.2699 39.3534C17.4099 38.4734 17.2199 37.5935 16.7599 36.8435Z" fill="currentColor" stroke="currentColor" stroke-width="0.5" stroke-miterlimit="10"/>
  </g>
</svg>
