<svg width="63" height="50" viewBox="0 0 63 50" fill="none" xmlns="http://www.w3.org/2000/svg">
    <g id="screen_tools">
      <path d="M58.52 0H4.15002C1.88002 0 0 1.89002 0 4.15002V38.89C0 41.16 1.89002 43.04 4.15002 43.04H26.35C26.12 44.78 25.44 46.82 23.03 46.82H20.01C19.41 46.82 18.88 47.35 18.88 47.95C18.88 48.55 19.41 49.08 20.01 49.08H42.66C43.26 49.08 43.79 48.55 43.79 47.95C43.79 47.35 43.26 46.82 42.66 46.82H39.64C37.22 46.82 36.47 44.78 36.32 43.04H58.52C60.79 43.04 62.67 41.15 62.67 38.89V4.15002C62.67 1.89002 60.78 0 58.52 0ZM4.15002 2.27002H58.52C59.58 2.27002 60.41 3.1 60.41 4.16V35.5H2.26001V4.16C2.26001 3.1 3.09002 2.27002 4.15002 2.27002ZM35.26 46.82H27.41C28.09 45.84 28.47 44.55 28.62 43.04H34.06C34.2 44.55 34.58 45.84 35.26 46.82ZM58.52 40.78H4.15002C3.09002 40.78 2.26001 39.95 2.26001 38.89V37.76H60.41V38.89C60.4 39.95 59.57 40.78 58.52 40.78Z" fill="#85AFCA"/>
      <path d="M37.22 15.03C35.26 15.03 33.67 16.62 33.67 18.58C33.67 20.54 35.26 22.13 37.22 22.13C39.18 22.13 40.77 20.54 40.77 18.58C40.77 16.62 39.18 15.03 37.22 15.03ZM37.22 20.72C36.04 20.72 35.09 19.76 35.09 18.59C35.09 17.42 36.05 16.46 37.22 16.46C38.39 16.46 39.35 17.42 39.35 18.59C39.35 19.76 38.4 20.72 37.22 20.72Z" fill="#85AFCA"/>
      <path d="M43.8 15.49L45.64 13.65L42.16 10.17L40.32 12.01C40.01 11.86 39.69 11.72 39.36 11.61V8.64001H35.1V11.61C34.77 11.72 34.44 11.85 34.14 12.01L32.3 10.17L31.69 10.78H27.27V12.2H30.25L28.79 13.66L29.47 14.34H24.43V15.76H30.54C30.43 15.99 30.33 16.23 30.24 16.47H27.27V17.89H23.01V19.31H27.27V20.73H30.24C30.32 20.98 30.43 21.21 30.53 21.44H27.98V22.86H29.47L28.79 23.54L30.25 25H25.85V26.42H31.67L32.28 27.03L34.13 25.18C34.44 25.34 34.76 25.47 35.09 25.58V28.55H39.35V25.58C39.68 25.47 40.01 25.34 40.31 25.18L42.15 27.02L45.63 23.54L43.78 21.69C43.94 21.38 44.07 21.06 44.18 20.73H47.15V16.47H44.18C44.08 16.12 43.95 15.8 43.8 15.49ZM45.75 19.29H43.12L42.98 19.82C42.84 20.38 42.61 20.92 42.31 21.44L42.03 21.91L43.64 23.52L42.17 24.99L40.57 23.39L40.1 23.67C39.61 23.96 39.06 24.19 38.48 24.34L37.95 24.48V27.11H36.53V24.48L36 24.34C35.44 24.2 34.9 23.97 34.38 23.67L33.91 23.39L32.3 25L30.83 23.53L32.43 21.93L32.15 21.46C31.86 20.97 31.63 20.42 31.48 19.84L31.34 19.31H28.71V17.89H31.34L31.48 17.36C31.62 16.8 31.85 16.26 32.15 15.74L32.43 15.27L31.55 14.39V14.34H31.5L30.82 13.66L32.29 12.19L33.89 13.79L34.36 13.51C34.85 13.22 35.4 12.99 35.98 12.84L36.51 12.7V10.07H37.93V12.7L38.46 12.84C39.04 12.99 39.59 13.22 40.08 13.51L40.55 13.79L42.15 12.19L43.62 13.66L42.02 15.26L42.3 15.73C42.59 16.23 42.82 16.77 42.97 17.35L43.11 17.88H45.74V19.29H45.75Z" fill="#85AFCA"/>
      <path d="M25.14 10.77H20.88V12.19H25.14V10.77Z" fill="#85AFCA"/>
      <path d="M22.3 14.3199H15.91V15.74H22.3V14.3199Z" fill="#85AFCA"/>
      <path d="M21.59 17.87H18.75V19.29H21.59V17.87Z" fill="#85AFCA"/>
      <path d="M26.5599 21.4301H23.72V22.85H26.5599V21.4301Z" fill="#85AFCA"/>
      <path d="M22.3 21.4301H14.48V22.85H22.3V21.4301Z" fill="#85AFCA"/>
      <path d="M24.4299 24.98H19.46V26.4H24.4299V24.98Z" fill="#85AFCA"/>
      <path d="M49.3 5.07996H47.88V6.49994H49.3V5.07996Z" fill="#85AFCA"/>
      <path d="M49.3 27.8199H47.88V29.24H49.3V27.8199Z" fill="#85AFCA"/>
      <path d="M43.61 27.8199H42.1899V29.24H43.61V27.8199Z" fill="#85AFCA"/>
      <path d="M49.3 7.93005H47.88V9.35004H49.3V7.93005Z" fill="#85AFCA"/>
      <path d="M49.3 30.66H47.88V32.08H49.3V30.66Z" fill="#85AFCA"/>
      <path d="M46.46 5.07996H45.04V6.49994H46.46V5.07996Z" fill="#85AFCA"/>
      <path d="M16.61 5.07996H15.1899V6.49994H16.61V5.07996Z" fill="#85AFCA"/>
      <path d="M19.46 10.77H18.04V12.19H19.46V10.77Z" fill="#85AFCA"/>
      <path d="M13.7701 5.07996H12.3501V6.49994H13.7701V5.07996Z" fill="#85AFCA"/>
      <path d="M16.61 30.66H15.1899V32.08H16.61V30.66Z" fill="#85AFCA"/>
      <path d="M16.61 27.8199H15.1899V29.24H16.61V27.8199Z" fill="#85AFCA"/>
      <path d="M13.7701 30.66H12.3501V32.08H13.7701V30.66Z" fill="#85AFCA"/>
    </g>
</svg>
