<svg width="71" height="76" viewBox="0 0 71 76" fill="none" xmlns="http://www.w3.org/2000/svg">
<g clip-path="url(#clip0)">
<path d="M15.51 16.6C15.68 16.6 15.85 16.6 15.93 16.52C16.43 16.35 16.85 16.18 17.27 16.02C17.94 15.77 18.28 14.93 18.02 14.26C17.77 13.59 16.93 13.25 16.26 13.51C15.84 13.68 15.42 13.85 15 14.01C14.33 14.26 13.91 15.02 14.16 15.77C14.51 16.27 15.01 16.6 15.51 16.6Z" fill="#85AFCA"/>
<path d="M13.41 15.93C13.24 15.18 12.49 14.76 11.73 15.01C10.39 15.43 9.38 15.6 7.54 15.85C7.21 15.93 6.87 16.1 6.62 16.44C6.37 16.77 6.37 17.11 6.37 17.45C7.46 22.82 17.68 70.02 34.95 70.02C52.21 70.02 62.44 22.81 63.53 17.45C63.61 17.11 63.53 16.7 63.28 16.44C63.03 16.1 62.78 15.94 62.36 15.85C54.81 14.76 49.61 11.82 45 9.22C41.23 7.12 38.21 5.36 34.94 5.36C31.67 5.36 28.65 7.04 24.88 9.22L24.04 9.72C22.61 10.56 21.36 11.23 19.6 12.07C18.93 12.41 18.68 13.16 18.93 13.83C19.27 14.5 20.02 14.75 20.69 14.5C22.53 13.58 23.87 12.82 25.3 12.07L26.14 11.57C29.58 9.64 32.34 8.13 34.94 8.13C37.54 8.13 40.22 9.64 43.74 11.57C48.01 14 53.29 17.02 60.67 18.28C55.56 42.18 45.5 67.41 35.03 67.41C24.55 67.41 14.5 42.26 9.39 18.36C10.4 18.19 11.32 18.03 12.49 17.69C13.16 17.44 13.58 16.69 13.41 15.93Z" fill="#85AFCA"/>
<path d="M12.58 60.45C10.15 56.17 7.87998 51.14 5.86998 45.44C5.61998 44.77 4.85998 44.35 4.10998 44.6C3.43998 44.85 3.01998 45.61 3.26998 46.36C5.36998 52.15 7.70998 57.34 10.23 61.7C10.48 62.12 10.9 62.37 11.4 62.37C11.65 62.37 11.82 62.29 12.07 62.2C12.74 61.88 12.91 61.12 12.58 60.45Z" fill="#85AFCA"/>
<path d="M14.76 63.98C14.34 63.31 13.5 63.14 12.92 63.56C12.33 63.98 12.08 64.82 12.5 65.4C13.25 66.57 13.76 67.33 14.51 68.33C14.76 68.67 15.18 68.92 15.6 68.92C15.85 68.92 16.19 68.84 16.44 68.67C17.03 68.25 17.19 67.41 16.69 66.83C15.93 65.82 15.43 65.07 14.76 63.98Z" fill="#85AFCA"/>
<path d="M69.76 11.4C69.51 11.06 69.09 10.9 68.75 10.9C59.11 10.9 53.15 7.46 47.79 4.53C43.68 2.18 39.74 0 35.05 0C30.35 0 26.41 2.18 22.3 4.53C17.02 7.55 10.98 10.9 1.34 10.9C0.92 10.9 0.59 11.07 0.33 11.4C0.08 11.74 0 12.07 0 12.49C0.42 15.09 10.56 75.46 35.05 75.46C49.3 75.46 58.61 54.92 63.98 37.65C64.23 36.98 63.81 36.22 63.06 35.97C62.39 35.72 61.64 36.14 61.38 36.89C56.35 53.24 47.63 72.78 35.05 72.78C14.84 72.78 4.7 23.06 2.94 13.58C12.33 13.24 18.54 9.72 23.65 6.87C27.59 4.61 31.03 2.68 35.05 2.68C39.07 2.68 42.51 4.61 46.45 6.87C51.48 9.72 57.69 13.24 67.16 13.58C66.74 15.84 65.82 20.46 64.48 26.07C64.31 26.82 64.73 27.5 65.49 27.66C66.24 27.83 66.92 27.41 67.08 26.65C69.09 18.52 70.1 12.48 70.1 12.4C70.1 12.07 70.01 11.65 69.76 11.4Z" fill="#85AFCA"/>
<path d="M64.73 30.35C63.98 30.18 63.3 30.6 63.05 31.27L62.88 31.86C62.8 32.19 62.71 32.45 62.54 33.03C62.37 33.78 62.71 34.45 63.46 34.71C63.63 34.71 63.71 34.79 63.88 34.79C64.47 34.79 64.97 34.37 65.14 33.78C65.31 33.11 65.39 32.94 65.48 32.52L65.65 31.93C65.82 31.36 65.4 30.6 64.73 30.35Z" fill="#85AFCA"/>
<path d="M32.95 46.2C33.03 46.2 33.03 46.2 32.95 46.2C33.37 46.2 33.7 46.03 33.96 45.78L49.05 30.77C49.55 30.27 49.55 29.43 49.05 28.84C48.55 28.34 47.71 28.34 47.12 28.84L33.12 42.84L25.74 34.12C25.24 33.53 24.4 33.45 23.81 33.95C23.22 34.45 23.14 35.29 23.64 35.88L31.94 45.77C32.28 45.95 32.62 46.12 32.95 46.2Z" fill="#85AFCA"/>
</g>
<defs>
<clipPath id="clip0">
<rect width="70.1" height="75.46" fill="white"/>
</clipPath>
</defs>
</svg>
