<svg width="64" height="39" viewBox="0 0 64 39" fill="none" xmlns="http://www.w3.org/2000/svg">
  <g id="side_effect">
    <path d="M52.3 7.50002H16.8L20.9 3.39999C21.7 2.59999 21.7 1.4 20.9 0.6C20.1 -0.2 18.9 -0.2 18.1 0.6L10.6 8.1C10.5 8.2 10.4 8.29999 10.3 8.39999C10.3 8.39999 10.1999 8.5 10.1999 8.6C10.1999 8.7 10.1 8.70001 10.1 8.80001C10.1 8.90001 10.1 8.90002 9.99999 9.00002C9.99999 9.10002 9.99995 9.10004 9.89995 9.20004C9.79995 9.50004 9.79995 9.70002 9.89995 10C9.89995 10.1 9.89999 10.1 9.99999 10.2C9.99999 10.3 9.99996 10.3 10.1 10.4C10.1 10.5 10.1999 10.5 10.1999 10.6C10.1999 10.7 10.3 10.7 10.3 10.8C10.4 10.9 10.5 11 10.6 11.1L18.1 18.6C18.5 19 19 19.2 19.5 19.2C20 19.2 20.5 19 20.9 18.6C21.7 17.8 21.7 16.6 20.9 15.8L16.8 11.5H52.1999C56.4999 11.5 60 15 60 19.3V29.5C60 30.6 60.9 31.5 62 31.5C63.1 31.5 64 30.6 64 29.5V19.3C64 12.8 58.7 7.50002 52.3 7.50002Z" fill="currentColor"/>
    <path d="M11.8 31.5H47.2L43.1 35.6C42.3 36.4 42.3 37.6 43.1 38.4C43.5 38.8 44 39 44.5 39C45 39 45.5 38.8 45.9 38.4L53.4 30.9C53.5 30.8 53.6 30.7 53.7 30.6L53.8 30.5C53.8 30.4 53.9 30.4 53.9 30.3C53.9 30.2 53.9 30.2 54 30.1C54 30 54 30 54.1 29.9C54.2 29.6 54.2 29.4 54.1 29.1C54.1 29 54.1 29 54 28.9C54 28.8 54 28.8 53.9 28.7C53.9 28.6 53.8 28.6 53.8 28.5C53.8 28.5 53.8 28.4 53.7 28.4C53.6 28.3 53.5 28.2 53.4 28.1L45.9 20.6C45.1 19.8 43.9 19.8 43.1 20.6C42.3 21.4 42.3 22.6 43.1 23.4L47.2 27.5H11.8C7.49999 27.5 4 24 4 19.7V9.5C4 8.4 3.1 7.5 2 7.5C0.9 7.5 0 8.4 0 9.5V19.8C0 26.2 5.29999 31.5 11.8 31.5Z" fill="currentColor"/>
  </g>
</svg>
