<svg width="512" height="200" viewBox="0 0 512 200" fill="none" xmlns="http://www.w3.org/2000/svg">
<path d="M87.4585 66.7318C87.7005 66.7519 87.882 66.8528 88.0232 67.0343C88.1644 67.2158 88.2249 67.4175 88.2047 67.6595C88.1845 67.9015 88.0837 68.0831 87.9223 68.2242C86.1475 69.7369 83.7474 71.6933 80.6818 74.1135C76.5472 77.4212 73.3 80.1641 70.9403 82.3222C70.3151 85.2466 69.5285 88.0097 68.5806 90.6317C67.6326 93.2334 66.6242 95.3713 65.5553 97.0251C63.9418 99.5059 62.3081 100.797 60.6543 100.938C60.2509 100.978 59.8475 100.938 59.4441 100.817C58.3349 100.494 57.6491 99.8286 57.3466 98.8C57.1449 98.0537 57.1852 97.1663 57.4676 96.1579C57.75 95.1494 58.234 94.0603 58.9601 92.8905C59.6862 91.7208 60.6139 90.5308 61.7434 89.3005C64.3855 86.3761 66.9671 83.7541 69.468 81.4146C70.0125 78.7321 70.3554 76.1707 70.4966 73.7303C70.6378 71.2899 70.5369 69.0512 70.2142 67.0141C69.8915 64.9771 69.3066 63.4644 68.4394 62.4963C67.2091 61.0442 65.3939 60.8223 62.9535 61.8913C62.3081 62.1736 61.6022 62.577 60.8156 63.0812C60.029 63.5854 59.1214 64.251 58.0928 65.0578C57.0642 65.8847 56.1163 66.6511 55.2692 67.357C54.4221 68.0629 53.2927 69.0512 51.9212 70.3218C50.5497 71.5924 49.4405 72.6008 48.5934 73.3471C47.7665 74.1135 46.5563 75.2429 44.963 76.7354C42.4016 79.1355 40.4251 80.9709 39.0334 82.2415C37.662 83.5121 35.6854 85.287 33.1442 87.5257C30.6029 89.7846 28.5255 91.4989 26.9322 92.6687C25.3389 93.8385 23.4027 95.2301 21.1438 96.8638C18.8849 98.4773 16.9487 99.6067 15.3755 100.232C13.7822 100.877 12.1284 101.422 10.3737 101.906C8.6392 102.39 7.06605 102.451 5.69457 102.067C4.3231 101.704 3.09281 100.978 2.02387 99.9093C0.309533 98.1344 -0.315696 95.573 0.148184 92.225C0.612064 88.877 1.88269 85.0853 3.98024 80.87C6.07778 76.6548 8.74005 72.2782 12.0074 67.7805C15.2747 63.2829 18.8446 58.987 22.7371 54.8927C29.4533 47.8337 35.4636 43.0134 40.8083 40.4721C46.1328 37.9107 50.1665 37.8905 52.8893 40.3713C53.3935 40.8352 53.7566 41.3595 53.9986 41.9243C54.2406 42.489 54.3213 43.1142 54.2406 43.8C54.1599 44.4857 54.0389 45.1109 53.8978 45.6958C53.7566 46.2807 53.4742 46.9664 53.0507 47.7732C52.6271 48.5799 52.2843 49.2052 52.0422 49.6287C51.78 50.0522 51.417 50.6573 50.933 51.4237C50.5901 51.9884 50.3279 52.4322 50.1262 52.7548C50.0052 52.9364 49.8438 53.0574 49.622 53.1179C49.4001 53.1784 49.1984 53.1381 48.9968 53.0372C48.8152 52.9162 48.6741 52.7549 48.6136 52.533C48.5329 52.3111 48.5732 52.0893 48.7144 51.8674C48.8757 51.6254 49.1379 51.1817 49.5211 50.5363C50.0254 49.7497 50.4086 49.1245 50.6708 48.6606C50.933 48.1967 51.2758 47.5715 51.659 46.7446C52.0422 45.9378 52.3044 45.2521 52.4254 44.7075C52.5464 44.1832 52.5666 43.5983 52.4859 43.0134C52.4053 42.4083 52.1632 41.9444 51.7599 41.6016C49.4808 39.504 45.8101 39.7864 40.7881 42.3881C35.7459 45.0101 30.139 49.5682 23.9674 56.0423C20.3169 59.8946 16.9084 64.009 13.7217 68.3654C10.5351 72.7219 7.91313 76.9169 5.85592 80.9103C3.79872 84.9037 2.46758 88.4938 1.88269 91.6804C1.2978 94.8671 1.76168 97.2066 3.27433 98.7193C4.20209 99.6471 5.2912 100.232 6.52149 100.514C7.77195 100.797 9.20393 100.676 10.8174 100.131C12.4309 99.5866 14.0041 99.0017 15.4966 98.3563C16.989 97.7109 18.8244 96.6016 20.9623 95.0284C23.1203 93.4553 24.9557 92.104 26.4683 90.9342C27.981 89.7846 29.9777 88.1106 32.4383 85.9122C34.8988 83.7138 36.7947 81.9995 38.1258 80.7893C39.457 79.5792 41.3528 77.8044 43.8336 75.485C46.3547 73.1454 48.2505 71.3907 49.5413 70.2008C50.8321 69.031 52.3851 67.6393 54.2205 66.0259C56.0558 64.4124 57.6088 63.1821 58.8794 62.2745C60.15 61.3871 61.2795 60.7215 62.2678 60.3181C65.4342 58.9265 67.915 59.2693 69.71 61.3871C70.5974 62.4358 71.2428 63.9485 71.6462 65.9048C72.0496 67.8612 72.2311 69.9789 72.1706 72.2781C72.1101 74.5572 71.8681 76.9976 71.4445 79.5792C73.3605 77.8447 76.0631 75.5858 79.6128 72.8025C82.6381 70.3823 85.0382 68.4461 86.8131 66.9536C87.0147 66.7923 87.2164 66.7116 87.4585 66.7318ZM64.1636 96.1377C66.0393 93.2334 67.5923 89.3005 68.8226 84.3592C66.9469 86.2147 65.0107 88.2316 63.0342 90.43C61.4812 92.1241 60.3719 93.6771 59.7063 95.1091C59.0408 96.5209 58.7987 97.5899 59.0004 98.3361C59.1416 98.7798 59.4643 99.0823 59.9685 99.2235C61.1786 99.5664 62.5905 98.558 64.1636 96.1377Z" fill="currentColor"/>
<path d="M111.681 64.6947C111.903 64.6544 112.024 64.6342 112.024 64.6342C112.024 64.6342 112.125 64.6947 112.306 64.8359C112.488 64.9771 112.609 65.1586 112.669 65.3805C112.71 65.6023 112.669 65.8242 112.528 66.0057C111.136 68.0831 108.857 69.9789 105.691 71.7134C102.524 73.4479 99.4588 74.4564 96.4738 74.7186C95.2839 74.8194 94.1746 74.7791 93.1863 74.6177C91.3913 74.2749 89.8988 73.5488 88.7089 72.3992C87.5189 71.2495 86.6718 69.7369 86.1878 67.8612V67.8209C85.9054 66.6914 85.9458 65.3805 86.2483 63.888C86.571 62.3955 87.0954 61.0039 87.8013 59.7131C88.5072 58.4223 89.3543 57.2726 90.3022 56.2642C91.2501 55.2558 92.1779 54.6305 93.0855 54.3684C93.4687 54.2675 93.8317 54.2272 94.1947 54.2877C94.5578 54.3482 94.9006 54.4692 95.183 54.6709C95.4855 54.8726 95.7477 55.1348 95.9898 55.4978C96.2318 55.8608 96.4133 56.2642 96.5545 56.7483C96.8368 57.6558 96.857 58.5836 96.5948 59.5315C96.3326 60.4795 95.9091 61.3669 95.3242 62.1736C94.7191 62.9804 93.9931 63.767 93.1258 64.5535C92.2586 65.3401 91.3913 66.0057 90.5644 66.5704C89.7173 67.1351 88.8702 67.6394 88.0231 68.1032C88.8904 70.8462 90.7056 72.4597 93.4687 72.9437C94.9208 73.2261 96.5343 73.1656 98.289 72.7622C100.044 72.3588 101.738 71.7739 103.392 71.0075C105.046 70.2411 106.558 69.3335 107.95 68.2646C109.341 67.2158 110.39 66.1469 111.116 65.0578C111.278 64.8561 111.459 64.7351 111.681 64.6947ZM93.5494 56.002C92.7426 56.2239 91.8753 56.9096 90.9476 58.0391C90.0198 59.1685 89.2332 60.5198 88.5677 62.093C87.9223 63.6661 87.6198 65.0779 87.6803 66.3687C88.6685 65.8242 89.6165 65.2191 90.524 64.5334C91.4316 63.8476 92.2787 63.1014 93.0653 62.2946C93.8519 61.4879 94.4166 60.6408 94.7796 59.7534C95.1427 58.866 95.2032 58.0391 94.9612 57.2525C94.699 56.3449 94.3158 55.9213 93.8115 55.9617C93.7309 55.9415 93.6502 55.9617 93.5494 56.002Z" fill="currentColor"/>
<path d="M143.588 61.9719C143.81 61.9719 144.012 62.0526 144.193 62.214C144.354 62.3753 144.435 62.577 144.435 62.7989C144.435 63.0207 144.334 63.2224 144.173 63.4039C142.64 64.8964 140.643 66.1267 138.223 67.1351C135.783 68.1234 133.221 68.6881 130.519 68.8293C127.816 68.9705 125.497 68.5671 123.56 67.6192C123.258 67.4578 122.935 67.236 122.532 66.9334C121.886 67.6797 121.16 68.3654 120.394 69.0108C118.377 70.6647 116.562 71.5722 114.928 71.7134C114.162 71.7739 113.516 71.6529 112.972 71.3504C111.419 70.5235 110.814 68.5671 111.157 65.4611C111.157 65.2191 111.258 65.0376 111.459 64.8964C111.661 64.7552 111.863 64.6947 112.084 64.7149C112.306 64.7351 112.488 64.8359 112.629 65.0174C112.77 65.1989 112.831 65.4006 112.831 65.6426C112.569 68.0024 112.871 69.4344 113.738 69.9184C114.283 70.2008 115.069 70.1604 116.098 69.7571C117.127 69.3537 118.216 68.6881 119.325 67.7402C120.011 67.1755 120.656 66.5502 121.241 65.8847C120.233 64.9166 119.426 63.9081 118.801 62.819C118.175 61.7501 117.974 60.8022 118.196 59.9752C118.518 58.7248 119.728 58.1601 121.826 58.3214C123.661 58.4828 124.771 59.1887 125.174 60.4593C125.618 61.8509 125.093 63.6056 123.581 65.683C123.823 65.8645 124.065 66.0057 124.307 66.1267C126.021 66.9738 128.098 67.3368 130.559 67.1956C133.02 67.0545 135.359 66.5301 137.598 65.6023C139.837 64.6746 141.632 63.5653 142.983 62.2341C143.164 62.0526 143.366 61.9719 143.588 61.9719ZM122.29 64.5535C123.419 62.9602 123.843 61.7703 123.601 60.9433C123.419 60.3585 122.794 60.0358 121.705 59.9551C121.342 59.9349 121.039 59.9349 120.777 59.9551C120.192 59.9954 119.87 60.1568 119.809 60.3786C119.728 60.6408 119.789 61.024 120.011 61.5081C120.233 62.0123 120.535 62.5165 120.959 63.0207C121.382 63.5451 121.826 64.0695 122.29 64.5535Z" fill="currentColor"/>
<path d="M165.874 60.0963C166.096 60.0559 166.318 60.0963 166.499 60.2374C166.681 60.3786 166.802 60.5601 166.842 60.7618C166.883 60.9837 166.842 61.1854 166.742 61.3669C166.036 62.4358 164.745 63.5653 162.889 64.7552C161.034 65.9452 158.956 66.9536 156.677 67.7805C154.398 68.6075 152.442 68.9907 150.788 68.91C150.445 70.705 150.082 72.5202 149.699 74.3555C149.296 76.1909 148.812 78.3086 148.227 80.7087C147.642 83.1087 147.017 85.1256 146.391 86.7794C145.766 88.4333 145.161 89.4014 144.596 89.7039C144.435 89.8249 144.253 89.8854 144.052 89.9056C143.87 89.9258 143.689 89.8854 143.527 89.8047C143.023 89.6232 142.64 89.2199 142.398 88.635C142.136 88.0501 142.015 87.203 142.035 86.134C142.055 85.0449 142.116 83.9962 142.237 82.9877C142.358 81.9591 142.539 80.6482 142.781 79.075L142.922 78.0262C143.406 75.0413 144.516 70.9269 146.25 65.683C147.964 60.4391 149.86 55.3566 151.877 50.4153C153.914 45.474 155.931 41.1175 157.968 37.3661C160.005 33.6148 161.518 31.6181 162.526 31.376C162.909 31.2954 163.192 31.3962 163.394 31.6786C163.535 31.9408 163.595 32.203 163.535 32.4652C163.474 32.7072 163.232 33.3727 162.788 34.482C162.506 35.1678 162.345 35.551 162.304 35.6316C162.244 36.0552 161.982 36.277 161.558 36.3174C161.356 36.3375 161.175 36.277 161.014 36.1762C160.852 36.0552 160.751 35.914 160.711 35.7325C159.198 38.2737 157.363 42.0049 155.185 46.9664C153.007 51.9078 151.01 56.9096 149.235 61.972C149.84 62.2543 150.344 62.8997 150.748 63.9485C151.151 64.9771 151.312 65.9855 151.232 66.9738C151.212 66.994 151.191 67.1351 151.151 67.3973C153.289 67.4175 155.951 66.6309 159.158 65.0376C162.365 63.4443 164.442 61.9316 165.39 60.5198C165.471 60.2576 165.652 60.1366 165.874 60.0963ZM143.951 88.0501C144.616 87.1828 145.504 84.5811 146.593 80.3053C147.682 76.0094 148.549 72.137 149.215 68.668C149.154 68.668 149.114 68.668 149.054 68.6478C148.307 68.3856 147.743 67.9419 147.359 67.3368C145.968 71.7336 145.04 75.364 144.596 78.2279L144.415 79.317C143.628 84.2987 143.487 87.2232 143.951 88.0501ZM149.538 66.6713C149.598 66.1065 149.538 65.5216 149.356 64.9367C149.175 64.3519 148.973 63.9081 148.751 63.6258C148.65 63.888 148.57 64.2712 148.509 64.7552C148.368 65.925 148.711 66.6713 149.497 66.9738C149.497 66.8931 149.517 66.7721 149.538 66.6713Z" fill="currentColor"/>
<path d="M183.945 58.5634C184.167 58.5231 184.389 58.5634 184.571 58.7046C184.752 58.8458 184.873 59.0273 184.913 59.229C184.954 59.4508 184.913 59.6525 184.813 59.8341C184.107 60.903 182.816 62.0324 180.96 63.2224C179.105 64.4123 177.027 65.4208 174.748 66.2477C172.469 67.0746 170.513 67.4578 168.859 67.3771C168.516 69.1722 168.153 70.9873 167.77 72.8227C167.367 74.658 166.883 76.7758 166.298 79.1758C165.713 81.5759 165.088 83.5928 164.462 85.2466C163.837 86.9004 163.232 87.8685 162.667 88.1711C162.506 88.2921 162.324 88.3526 162.123 88.3728C161.941 88.3929 161.76 88.3526 161.598 88.2719C161.094 88.0904 160.711 87.687 160.469 87.1021C160.207 86.5172 160.086 85.6701 160.106 84.6012C160.126 83.5121 160.187 82.4633 160.308 81.4549C160.429 80.4263 160.61 79.1153 160.852 77.5422L160.993 76.4934C161.477 73.5084 162.587 69.394 164.321 64.1502C166.036 58.9063 167.931 53.8238 169.948 48.8824C171.985 43.9411 174.002 39.5847 176.039 35.8333C178.076 32.0819 179.589 30.0852 180.597 29.8432C180.981 29.7625 181.263 29.8634 181.465 30.1457C181.606 30.4079 181.666 30.6701 181.606 30.9323C181.545 31.1743 181.303 31.8399 180.86 32.9492C180.577 33.6349 180.416 34.0181 180.375 34.0988C180.315 34.5223 180.053 34.7442 179.629 34.7845C179.428 34.8047 179.246 34.7442 179.085 34.6434C178.923 34.5223 178.822 34.3812 178.782 34.1996C177.269 36.7409 175.434 40.4721 173.256 45.4336C171.078 50.3749 169.081 55.3768 167.306 60.4391C167.911 60.7215 168.415 61.3669 168.819 62.4156C169.222 63.4443 169.384 64.4527 169.303 65.4409C169.283 65.4611 169.263 65.6023 169.222 65.8645C171.36 65.8847 174.022 65.0981 177.229 63.5048C180.436 61.9114 182.513 60.3988 183.461 58.987C183.562 58.7248 183.723 58.6038 183.945 58.5634ZM162.042 86.5172C162.708 85.65 163.595 83.0482 164.684 78.7725C165.773 74.4765 166.641 70.6041 167.306 67.1351C167.246 67.1351 167.205 67.1351 167.145 67.115C166.399 66.8528 165.834 66.409 165.451 65.804C164.059 70.2008 163.131 73.8311 162.688 76.6951L162.506 77.7842C161.699 82.7659 161.558 85.6903 162.042 86.5172ZM167.609 65.1384C167.669 64.5737 167.609 63.9888 167.427 63.4039C167.246 62.819 167.044 62.3753 166.822 62.0929C166.721 62.3551 166.641 62.7383 166.58 63.2224C166.439 64.3922 166.782 65.1384 167.568 65.4409C167.588 65.3603 167.589 65.2393 167.609 65.1384Z" fill="currentColor"/>
<path d="M218.817 55.6188C219.039 55.6188 219.261 55.6793 219.442 55.8406C219.624 56.002 219.705 56.1835 219.725 56.4054C219.725 56.6272 219.644 56.8289 219.483 57.0104C214.017 62.819 209.197 65.8846 205.022 66.2477C204.719 66.2679 204.417 66.288 204.134 66.288C201.815 66.2477 199.818 65.2998 198.164 63.4039C197.822 63.0409 197.559 62.5971 197.358 62.0324C197.156 61.4677 197.035 61.0038 196.995 60.6206C196.954 60.2374 196.894 59.713 196.833 59.0475C196.773 58.4424 196.753 57.9785 196.712 57.6962C196.692 57.4138 196.611 57.0709 196.47 56.6877C196.329 56.3045 196.148 56.002 195.885 55.8003C195.603 55.5381 195.24 55.3364 194.816 55.1952C194.373 55.0541 194.01 54.9532 193.687 54.933C193.384 54.8927 192.921 54.8725 192.295 54.8322C190.984 54.7717 190.016 54.6305 189.371 54.4288C188.302 56.0423 186.83 57.8777 184.954 59.9551C184.793 60.1164 184.591 60.2172 184.369 60.2172C184.147 60.2172 183.945 60.1567 183.764 59.9954C183.603 59.834 183.502 59.6525 183.482 59.4307C183.461 59.2088 183.542 59.0071 183.703 58.8256C185.438 56.8894 186.809 55.1549 187.838 53.6624C187.778 53.6221 187.717 53.5616 187.636 53.4809C186.325 52.3515 185.902 51.1413 186.366 49.8505C186.567 49.2455 186.951 48.7211 187.495 48.2774C188.04 47.8337 188.645 47.5916 189.27 47.5311H189.31C190.198 47.4908 190.823 47.8337 191.166 48.5597C191.63 49.5278 191.327 50.98 190.258 52.9162C190.682 53.0372 191.388 53.1179 192.356 53.1582C193.082 53.1985 193.647 53.2389 194.05 53.2792C194.453 53.3196 194.937 53.4406 195.502 53.6624C196.067 53.8641 196.571 54.1666 196.974 54.5297C197.257 54.7919 197.499 55.0742 197.7 55.4171C197.902 55.7398 198.064 56.123 198.144 56.5667C198.225 57.0104 198.306 57.3735 198.326 57.676C198.366 57.9785 198.406 58.3819 198.447 58.9264C198.467 59.5113 198.507 59.9551 198.548 60.2576C198.588 60.5601 198.669 60.9231 198.81 61.3265C198.951 61.7299 199.132 62.0728 199.354 62.2946C200.685 63.8073 202.259 64.5737 204.094 64.5939C205.97 64.6342 208.128 63.9081 210.548 62.4156C212.968 60.903 215.53 58.7449 218.212 55.9011C218.394 55.7196 218.575 55.6188 218.817 55.6188ZM189.673 49.2656C189.673 49.2051 189.593 49.2051 189.431 49.2051C189.149 49.2253 188.867 49.3665 188.564 49.5883C188.262 49.8304 188.06 50.0724 187.959 50.3749C187.757 50.98 188.02 51.585 188.725 52.1901V52.2304C189.552 50.7783 189.875 49.79 189.673 49.2656Z" fill="currentColor"/>
<path d="M243.423 53.5213C243.645 53.4809 243.766 53.4608 243.766 53.4608C243.766 53.4608 243.867 53.5213 244.048 53.6624C244.23 53.8036 244.351 53.9851 244.411 54.207C244.452 54.4289 244.411 54.6507 244.27 54.8322C242.879 56.9096 240.6 58.8055 237.433 60.54C234.267 62.2745 231.201 63.2829 228.216 63.5451C227.026 63.6459 225.917 63.6056 224.929 63.4443C223.133 63.1014 221.641 62.3753 220.451 61.2257C219.261 60.0761 218.414 58.5634 217.93 56.6877V56.6474C217.648 55.518 217.688 54.207 217.99 52.7145C218.313 51.222 218.838 49.8304 219.543 48.5396C220.249 47.2488 221.096 46.0992 222.044 45.0907C222.992 44.0823 223.92 43.4571 224.828 43.1949C225.211 43.094 225.574 43.0537 225.937 43.1142C226.3 43.1747 226.643 43.2957 226.925 43.4974C227.228 43.6991 227.49 43.9613 227.732 44.3243C227.974 44.6874 228.155 45.0907 228.297 45.5748C228.579 46.4824 228.599 47.4101 228.337 48.3581C228.075 49.306 227.651 50.1934 227.066 51.0002C226.461 51.8069 225.735 52.5935 224.868 53.3801C224.001 54.1667 223.133 54.8322 222.307 55.3969C221.459 55.9617 220.612 56.4659 219.765 56.9298C220.633 59.6727 222.448 61.2862 225.211 61.7703C226.663 62.0526 228.277 61.9921 230.031 61.5887C231.786 61.1854 233.48 60.6005 235.134 59.8341C236.788 59.0676 238.3 58.1601 239.692 57.0911C241.084 56.0423 242.132 54.9734 242.858 53.8843C243.02 53.6826 243.201 53.5616 243.423 53.5213ZM225.292 44.8084C224.485 45.0302 223.618 45.716 222.69 46.8454C221.762 47.9749 220.975 49.3262 220.31 50.8993C219.664 52.4725 219.362 53.8843 219.422 55.1751C220.411 54.6305 221.359 54.0255 222.266 53.3397C223.174 52.654 224.021 51.9078 224.807 51.101C225.594 50.2943 226.159 49.4472 226.522 48.5598C226.885 47.6723 226.945 46.8454 226.703 46.0588C226.441 45.1513 226.058 44.7277 225.554 44.768C225.473 44.7479 225.392 44.7882 225.292 44.8084Z" fill="currentColor"/>
<path d="M280.775 50.0926C280.997 50.0321 281.219 50.0724 281.4 50.1934C281.582 50.3145 281.723 50.496 281.763 50.7178C281.824 50.9397 281.804 51.1615 281.683 51.3431C281.299 51.9683 280.654 52.8355 279.746 53.9448C278.839 55.0541 277.992 56.0827 277.205 56.9903C276.419 57.8979 275.249 59.2694 273.676 61.0644C270.267 64.9368 267.706 67.9016 266.032 69.9588C264.68 76.8968 263.148 81.2532 261.433 83.0079C260.848 83.5928 260.223 83.9155 259.558 83.976C259.094 84.0163 258.67 83.9357 258.267 83.734C257.601 83.4113 257.178 82.8869 257.016 82.181C256.794 81.0112 257.319 79.3775 258.59 77.2598C259.86 75.1421 261.837 72.4395 264.499 69.1923C265.528 63.7065 266.213 57.8979 266.596 51.7464C266.98 45.595 266.899 41.6822 266.375 40.0082C265.951 40.5125 265.043 41.7629 263.611 43.7798C262.381 45.5546 261.292 47.0673 260.344 48.3581C259.396 49.6287 258.347 51.0204 257.198 52.4927C256.048 53.9852 254.979 55.1953 254.052 56.1634C253.104 57.1315 252.136 58.0189 251.167 58.8458C250.199 59.6727 249.272 60.2374 248.404 60.54C247.537 60.8425 246.75 60.903 246.004 60.7013C245.056 60.4795 244.31 59.8341 243.745 58.7853C243.181 57.7365 242.797 56.2844 242.576 54.4087C242.555 54.1868 242.616 53.9852 242.757 53.8036C242.898 53.6221 243.08 53.5213 243.302 53.5011H243.342C243.503 53.4809 243.644 53.5213 243.766 53.5818C243.907 53.6423 244.008 53.7431 244.068 53.844C244.149 53.9448 244.189 54.086 244.229 54.2272C244.552 57.1718 245.278 58.7853 246.408 59.0878C246.851 59.2088 247.376 59.1483 247.961 58.9265C248.545 58.7046 249.191 58.2811 249.897 57.6962C250.603 57.1113 251.288 56.5062 251.974 55.8608C252.66 55.2154 253.406 54.3885 254.253 53.3801C255.08 52.3515 255.826 51.4641 256.452 50.7178C257.077 49.9514 257.823 49.0035 258.65 47.8337C259.497 46.6639 260.122 45.7967 260.566 45.1916C261.01 44.5865 261.574 43.8 262.26 42.8117C263.773 40.6536 264.761 39.3023 265.205 38.778C265.649 38.2536 266.052 37.951 266.375 37.9309C266.939 37.8905 267.363 38.1729 267.686 38.778C268.391 40.1696 268.634 43.7193 268.412 49.4069C268.19 55.0944 267.585 60.8223 266.617 66.6309C268.089 64.8964 270.005 62.6779 272.365 59.9753C276.862 54.8524 279.484 51.6658 280.21 50.4556C280.372 50.2741 280.553 50.1531 280.775 50.0926ZM260.506 81.5558C261.675 80.1238 262.764 77.2195 263.773 72.8429C260.142 77.522 258.448 80.507 258.731 81.8583C258.771 82.0398 258.872 82.1608 259.033 82.2213C259.477 82.423 259.961 82.2012 260.506 81.5558Z" fill="currentColor"/>
<path d="M367.844 6.54837C368.328 6.70972 368.711 7.09293 369.014 7.69799C369.316 8.30305 369.538 9.27114 369.679 10.5821C369.82 11.9132 369.881 13.3654 369.901 14.9789C369.901 16.5924 369.84 18.7504 369.699 21.4732C369.558 24.196 369.377 26.9591 369.175 29.7424C368.973 32.5256 368.671 36.0552 368.328 40.3511C368.025 44.1428 367.803 47.0471 367.642 49.0438C367.481 51.0405 367.279 53.7835 367.057 57.2525C366.835 60.7215 366.674 63.5249 366.613 65.683C366.553 67.841 366.513 70.1604 366.472 72.7017C366.452 75.2228 366.513 77.3808 366.714 79.1355C366.896 80.8902 367.158 82.3423 367.481 83.4919C367.561 83.7138 367.521 83.9356 367.42 84.1373C367.319 84.339 367.138 84.4802 366.916 84.5407C366.855 84.5407 366.795 84.5407 366.734 84.5609C366.291 84.6012 366.008 84.3995 365.867 83.976C365.504 82.7457 365.242 81.2532 365.04 79.4985C364.859 77.7439 364.758 75.606 364.778 73.0849C364.798 70.5638 364.839 68.2444 364.879 66.1065C364.939 63.9686 365.081 61.145 365.323 57.6357C365.565 54.1263 365.766 51.3229 365.928 49.2455C366.089 47.1681 366.331 44.1428 366.654 40.1898C366.936 37.0636 367.138 34.6635 367.259 32.9895C367.38 31.3155 367.561 29.0163 367.763 26.1322C367.965 23.2481 368.086 20.969 368.146 19.295C368.207 17.6412 368.227 15.8663 368.247 14.0108C368.267 12.1553 368.187 10.7435 368.025 9.8157C367.864 8.88794 367.622 8.30305 367.319 8.10136C365.343 7.4963 362.862 9.25098 359.877 13.3654C356.892 17.4798 353.524 23.7321 349.813 32.1424C346.082 40.5528 342.189 50.6976 338.115 62.577C338.014 62.8594 337.792 63.0409 337.49 63.1216C337.167 63.1821 336.925 63.1014 336.723 62.8997C336.502 62.819 336.441 62.2745 336.502 61.3064C336.562 60.3181 336.905 57.3533 337.47 52.3716L337.591 51.5447C337.752 50.3749 338.075 48.1362 338.599 44.8286C338.922 42.8319 339.164 41.2385 339.345 40.0889C339.527 38.9393 339.789 37.225 340.132 34.9661C340.475 32.7072 340.717 30.8315 340.898 29.339C341.08 27.8465 341.282 26.0717 341.524 24.0145C341.766 21.9573 341.927 20.2227 342.008 18.8109C342.088 17.3991 342.149 15.9873 342.189 14.5755C342.23 13.1637 342.169 12.0141 342.028 11.1267C341.887 10.2392 341.665 9.59384 341.382 9.21064C341.302 9.08963 341.221 9.02912 341.181 9.02912C340.878 8.98878 340.535 9.00895 340.172 9.1098C339.809 9.21064 339.305 9.493 338.64 9.95688C337.994 10.4208 337.268 11.046 336.502 11.8326C335.735 12.6393 334.807 13.7688 333.698 15.2209C332.589 16.6932 331.419 18.4076 330.169 20.3841C328.918 22.3606 327.466 24.8615 325.792 27.8667C324.118 30.892 322.384 34.24 320.568 37.9309C316.716 45.6958 312.945 53.9448 309.294 62.6375C305.623 71.3504 302.739 78.712 300.642 84.7424C300.521 85.0853 300.279 85.2668 299.916 85.3071C299.593 85.3273 299.311 85.2264 299.069 84.9642C298.948 84.8029 298.867 84.6415 298.806 84.4802C298.746 84.339 298.746 83.8953 298.786 83.1692C298.826 82.4432 298.968 81.4952 299.19 80.3053C299.432 79.1153 299.815 77.3606 300.38 75.0211C300.944 72.6815 301.65 69.8982 302.538 66.6309C302.719 65.9653 302.8 65.6426 302.8 65.6023C303.405 63.4241 304.433 59.4912 305.845 53.844C306.934 49.4068 307.802 45.9177 308.467 43.3361C309.133 40.7746 310.04 37.4266 311.17 33.3324C312.299 29.2382 313.469 25.4868 314.619 22.1186C315.788 18.7504 316.978 15.6445 318.209 12.8208C318.108 12.6595 318.168 12.357 318.35 11.9334C318.531 11.5099 318.955 10.7636 319.641 9.71486C321.476 5.92314 323.331 2.91801 325.227 0.69945C325.792 0.0137147 326.296 -0.167804 326.76 0.154896C327.123 0.437257 327.164 0.840631 326.922 1.34485C326.679 1.84907 325.611 3.5634 323.755 6.44753C322.464 8.42406 321.557 9.8157 321.073 10.6023C320.851 11.0662 320.629 11.5502 320.387 12.0746C320.367 12.2561 320.306 12.4376 320.165 12.599C320.145 12.599 320.125 12.6191 320.125 12.6393C318.874 15.4428 317.664 18.5487 316.474 21.9371C315.284 25.3456 314.114 29.1171 312.945 33.3122C311.775 37.4871 310.847 40.8957 310.181 43.5378C309.516 46.1799 308.608 49.7497 307.479 54.2675C306.067 59.9551 305.059 63.888 304.433 66.0662C304.413 66.1267 304.333 66.4696 304.171 67.0948C303.102 71.1285 302.255 74.5169 301.61 77.2396C302.78 74.1942 304.07 70.9873 305.442 67.6192C306.813 64.251 308.366 60.5601 310.101 56.5466C311.835 52.533 313.61 48.5799 315.425 44.7479C317.241 40.9158 319.096 37.0636 321.012 33.2719C322.928 29.46 324.824 25.991 326.7 22.8447C328.596 19.6984 330.411 16.9151 332.145 14.5352C333.9 12.1351 335.574 10.2997 337.167 9.02912C338.761 7.75849 340.172 7.19377 341.362 7.37529C341.887 7.45596 342.33 7.73832 342.714 8.22237C343.198 8.86777 343.52 10.0577 343.682 11.7721C343.843 13.4864 343.863 15.4024 343.762 17.5403C343.662 19.658 343.419 22.3606 343.036 25.6481C342.653 28.9356 342.25 31.9609 341.826 34.7845C341.403 37.588 340.878 41.0167 340.253 45.0706C339.729 48.2774 339.386 50.496 339.204 51.7464L339.124 52.5532C339.083 52.9969 338.982 53.965 338.801 55.4575C340.737 50.0522 342.613 45.0504 344.468 40.4116C346.324 35.7728 348.32 31.1945 350.479 26.6566C352.637 22.1186 354.674 18.3269 356.59 15.2814C358.506 12.2359 360.462 9.87621 362.439 8.22237C364.455 6.60888 366.23 6.04415 367.844 6.54837Z" fill="currentColor"/>
<path d="M404.309 39.8469C404.531 39.8469 404.732 39.9276 404.914 40.0889C405.075 40.2503 405.156 40.4519 405.156 40.6738C405.156 40.8957 405.055 41.0973 404.894 41.2789C403.361 42.7713 401.364 44.0016 398.944 45.0101C396.503 45.9983 393.942 46.5631 391.239 46.7042C388.537 46.8454 386.217 46.442 384.281 45.4941C383.979 45.3328 383.656 45.1109 383.253 44.8084C382.607 45.5546 381.881 46.2404 381.115 46.8858C379.098 48.5396 377.283 49.4472 375.649 49.5884C374.883 49.6489 374.237 49.5279 373.693 49.2253C372.14 48.3984 371.535 46.442 371.877 43.3361C371.877 43.094 371.978 42.9125 372.18 42.7713C372.382 42.6302 372.583 42.5697 372.805 42.5898C373.027 42.61 373.209 42.7108 373.35 42.8924C373.491 43.0739 373.551 43.2756 373.551 43.5176C373.289 45.8773 373.592 47.3093 374.459 47.7933C375.004 48.0757 375.79 48.0354 376.819 47.632C377.847 47.2286 378.936 46.5631 380.046 45.6151C380.731 45.0504 381.377 44.4252 381.962 43.7596C380.953 42.7915 380.147 41.7831 379.521 40.694C378.896 39.625 378.694 38.6771 378.916 37.8502C379.239 36.5997 380.449 36.035 382.547 36.1964C384.382 36.3577 385.491 37.0636 385.895 38.3342C386.338 39.7259 385.814 41.4805 384.301 43.5579C384.543 43.7394 384.785 43.8806 385.027 44.0016C386.742 44.8487 388.819 45.2118 391.28 45.0706C393.74 44.9294 396.08 44.405 398.319 43.4772C400.557 42.5495 402.352 41.4402 403.704 40.1091C403.885 39.9276 404.087 39.8469 404.309 39.8469ZM383.011 42.4285C384.14 40.8352 384.564 39.6452 384.322 38.8183C384.14 38.2334 383.515 37.9107 382.426 37.83C382.063 37.8098 381.76 37.8098 381.498 37.83C380.913 37.8704 380.59 38.0317 380.53 38.2536C380.449 38.5158 380.51 38.899 380.731 39.383C380.953 39.8872 381.256 40.3914 381.679 40.8957C382.103 41.4402 382.547 41.9444 383.011 42.4285Z" fill="currentColor"/>
<path d="M422.581 38.3141C422.803 38.2737 423.025 38.3141 423.206 38.4553C423.388 38.5964 423.509 38.7779 423.57 38.9796C423.61 39.2015 423.57 39.4032 423.428 39.625C422.158 41.5612 420.746 43.3361 419.193 44.9899C417.64 46.6437 416.026 48.0152 414.373 49.1245C412.719 50.2338 411.206 50.859 409.895 50.9598C409.23 51.0203 408.645 50.9598 408.1 50.7582C405.498 49.7901 404.45 46.321 404.954 40.3309C404.792 40.5931 404.631 40.8755 404.45 41.178C404.329 41.3595 404.167 41.5007 403.945 41.5411C403.724 41.6016 403.502 41.5612 403.32 41.4402C403.139 41.3192 402.997 41.1377 402.957 40.9158C402.897 40.694 402.937 40.4923 403.038 40.2906C404.53 37.8905 406.003 34.8854 407.475 31.3357C409.512 25.3456 411.589 19.6177 413.747 14.1923C415.885 8.76693 417.337 5.88281 418.084 5.56011C418.427 5.39876 418.749 5.4391 419.011 5.68112C419.253 5.88281 419.395 6.18534 419.395 6.56855C419.395 6.95175 419.314 7.61732 419.132 8.54508C419.112 8.62575 419.092 8.68626 419.072 8.74677C418.669 9.67453 418.063 11.1468 417.297 13.1234C415.966 16.4915 414.877 19.0126 414.01 20.6463C412.638 23.3086 411.105 26.7776 409.391 31.0533C409.088 31.8198 408.806 32.566 408.504 33.2921C407.435 36.4182 406.87 38.3544 406.809 39.1007C406.466 42.0049 406.466 44.3243 406.789 46.0588C407.112 47.7934 407.757 48.822 408.705 49.185C409.693 49.5279 410.984 49.2455 412.618 48.2976C414.252 47.3496 415.885 46.0185 417.579 44.3042C419.253 42.5898 420.766 40.7141 422.097 38.6569C422.178 38.4754 422.359 38.3544 422.581 38.3141Z" fill="currentColor"/>
<path d="M441.661 36.7006C441.883 36.6602 442.105 36.7006 442.286 36.8417C442.468 36.9829 442.589 37.1644 442.649 37.3661C442.689 37.588 442.649 37.7897 442.508 38.0115C441.237 39.9477 439.826 41.7226 438.273 43.3764C436.72 45.0302 435.106 46.4017 433.452 47.511C431.798 48.6203 430.286 49.2455 428.975 49.3463C428.309 49.4068 427.724 49.3463 427.18 49.1446C424.578 48.1765 423.529 44.7075 424.033 38.7174C423.872 38.9796 423.711 39.262 423.529 39.5645C423.408 39.746 423.247 39.8872 423.025 39.9276C422.803 39.9881 422.581 39.9477 422.4 39.8267C422.218 39.7057 422.077 39.5242 422.037 39.3023C421.976 39.0805 422.017 38.8788 422.117 38.6771C423.61 36.277 425.082 33.2719 426.555 29.7222C428.592 23.7321 430.669 18.0042 432.827 12.5788C434.965 7.15342 436.417 4.2693 437.163 3.9466C437.506 3.78525 437.829 3.82559 438.091 4.06761C438.333 4.2693 438.474 4.57183 438.474 4.95504C438.474 5.33824 438.394 6.00381 438.212 6.93157C438.192 7.01224 438.172 7.07275 438.152 7.13326C437.748 8.06102 437.143 9.53333 436.377 11.5099C435.046 14.878 433.956 17.3991 433.089 19.0328C431.718 21.6951 430.185 25.1641 428.471 29.4398C428.168 30.2062 427.886 30.9525 427.583 31.6786C426.514 34.8047 425.949 36.7409 425.889 37.4871C425.546 40.3914 425.546 42.7108 425.869 44.4453C426.191 46.1798 426.837 47.2084 427.785 47.5715C428.773 47.9144 430.064 47.632 431.698 46.6841C433.331 45.7361 434.965 44.405 436.659 42.6907C438.333 40.9763 439.846 39.1006 441.177 37.0434C441.258 36.8619 441.439 36.7409 441.661 36.7006Z" fill="currentColor"/>
<path d="M473.689 33.9576C473.911 33.9576 474.112 34.0383 474.294 34.1997C474.455 34.361 474.536 34.5627 474.536 34.7845C474.536 35.0064 474.435 35.2081 474.274 35.3896C472.741 36.8821 470.744 38.1124 468.324 39.1208C465.884 40.1091 463.322 40.6738 460.62 40.815C457.917 40.9562 455.598 40.5528 453.661 39.6049C453.359 39.4435 453.036 39.2217 452.633 38.9191C451.987 39.6654 451.261 40.3511 450.495 40.9965C448.478 42.6503 446.663 43.5579 445.029 43.6991C444.263 43.7596 443.617 43.6386 443.073 43.3361C441.52 42.5092 440.915 40.5528 441.258 37.4468C441.258 37.2048 441.358 37.0233 441.56 36.8821C441.762 36.7409 441.963 36.6804 442.185 36.7006C442.407 36.7207 442.589 36.8216 442.73 37.0031C442.871 37.1846 442.932 37.3863 442.932 37.6283C442.669 39.9881 442.972 41.42 443.839 41.9041C444.384 42.1865 445.17 42.1461 446.199 41.7427C447.228 41.3394 448.317 40.6738 449.426 39.7259C450.112 39.1612 450.757 38.5359 451.342 37.8704C450.333 36.9023 449.527 35.8938 448.902 34.8047C448.276 33.7358 448.075 32.7878 448.296 31.9609C448.619 30.7105 449.829 30.1457 451.927 30.3071C453.762 30.4684 454.871 31.1744 455.275 32.445C455.719 33.8366 455.194 35.5913 453.681 37.6687C453.924 37.8502 454.166 37.9914 454.408 38.1124C456.122 38.9595 458.199 39.3225 460.66 39.1813C463.12 39.0401 465.46 38.5158 467.699 37.588C469.937 36.6602 471.732 35.551 473.084 34.2198C473.245 34.0383 473.447 33.9576 473.689 33.9576ZM452.391 36.5594C453.52 34.9661 453.944 33.7761 453.702 32.9492C453.52 32.3643 452.895 32.0416 451.806 31.9609C451.443 31.9408 451.14 31.9408 450.878 31.9609C450.293 32.0013 449.97 32.1626 449.91 32.3845C449.829 32.6467 449.89 33.0299 450.112 33.5139C450.333 34.0181 450.636 34.5224 451.06 35.0266C451.463 35.551 451.907 36.0552 452.391 36.5594Z" fill="currentColor"/>
<path d="M510.82 30.5693C511.041 30.5088 511.263 30.5491 511.445 30.6701C511.626 30.7911 511.767 30.9727 511.808 31.1945C511.868 31.4164 511.848 31.6382 511.727 31.8197C511.344 32.445 510.699 33.3122 509.791 34.4215C508.883 35.5308 508.036 36.5594 507.25 37.467C506.463 38.3746 505.293 39.746 503.72 41.541C500.312 45.4134 497.75 48.3782 496.076 50.4354C494.725 57.3735 493.192 61.7299 491.478 63.4846C490.893 64.0695 490.268 64.3922 489.602 64.4527C489.138 64.493 488.715 64.4123 488.311 64.2107C487.646 63.888 487.222 63.3636 487.061 62.6577C486.839 61.4879 487.363 59.8542 488.634 57.7365C489.905 55.6188 491.881 52.9162 494.543 49.669C495.572 44.1831 496.258 38.3746 496.641 32.2231C497.024 26.0717 496.943 22.1589 496.419 20.4849C495.996 20.9892 495.088 22.2396 493.656 24.2565C492.426 26.0313 491.337 27.544 490.389 28.8348C489.441 30.1054 488.392 31.497 487.242 32.9694C486.093 34.4618 485.024 35.672 484.096 36.6401C483.148 37.6082 482.18 38.4956 481.212 39.3225C480.224 40.1494 479.316 40.7141 478.449 41.0167C477.581 41.3192 476.795 41.3797 476.049 41.178C475.101 40.9562 474.355 40.3108 473.79 39.262C473.225 38.2132 472.842 36.7611 472.62 34.8854C472.6 34.6635 472.66 34.4618 472.802 34.2803C472.943 34.0988 473.124 33.998 473.346 33.9778H473.386C473.548 33.9576 473.689 33.998 473.81 34.0585C473.951 34.119 474.052 34.2198 474.112 34.3207C474.193 34.4215 474.234 34.5627 474.274 34.7039C474.597 37.6485 475.323 39.262 476.452 39.5645C476.896 39.6855 477.42 39.625 478.005 39.4032C478.59 39.1813 479.235 38.7578 479.941 38.1729C480.647 37.588 481.333 36.9829 482.019 36.3375C482.704 35.6921 483.451 34.8652 484.298 33.8568C485.125 32.8282 485.871 31.9408 486.496 31.1945C487.121 30.4281 487.868 29.4802 488.694 28.3104C489.542 27.1406 490.167 26.2733 490.61 25.6683C491.054 25.0632 491.619 24.2766 492.305 23.2884C493.817 21.1303 494.806 19.779 495.249 19.2546C495.693 18.7303 496.096 18.4277 496.419 18.4076C496.984 18.3672 497.407 18.6496 497.73 19.2546C498.436 20.6463 498.678 24.196 498.456 29.8835C498.234 35.5711 497.629 41.299 496.661 47.1076C498.133 45.3731 500.049 43.1545 502.409 40.4519C506.907 35.3291 509.529 32.1424 510.255 30.9323C510.416 30.7508 510.577 30.6298 510.82 30.5693ZM490.53 62.0324C491.7 60.6005 492.789 57.6962 493.797 53.3196C490.167 57.9987 488.473 60.9837 488.755 62.335C488.795 62.5165 488.896 62.6375 489.057 62.698C489.501 62.9199 490.005 62.698 490.53 62.0324Z" fill="currentColor"/>
<path d="M171.582 163.703C171.804 163.642 172.026 163.662 172.227 163.783C172.429 163.884 172.55 164.066 172.611 164.268C172.671 164.489 172.631 164.691 172.53 164.913C171.864 166.103 170.614 167.01 168.779 167.656C166.943 168.301 165.027 168.644 163.031 168.705C161.034 168.765 159.118 168.624 157.262 168.321C156.577 170.197 155.508 172.153 154.056 174.17C152.603 176.187 151.091 177.76 149.497 178.91C148.065 179.939 146.674 180.503 145.322 180.604C143.427 180.766 141.793 180.039 140.361 178.406C138.989 176.873 138.647 174.957 139.292 172.638C139.796 170.742 140.885 168.805 142.58 166.789C144.274 164.772 146.069 163.078 147.985 161.646C144.233 161.888 141.652 161.242 140.24 159.689C138.989 158.358 138.707 156.462 139.373 153.981C140.058 151.481 141.208 149.605 142.801 148.334C144.395 147.064 146.311 146.539 148.529 146.761C150.546 146.943 152.381 147.649 154.056 148.838C154.136 148.657 154.237 148.395 154.338 148.072C154.479 147.346 154.822 146.257 155.366 144.825C155.709 143.978 155.951 143.353 156.093 142.949C156.153 142.707 156.274 142.546 156.496 142.425C156.698 142.324 156.919 142.304 157.121 142.364C157.323 142.445 157.484 142.566 157.605 142.768C157.706 142.969 157.746 143.191 157.686 143.413C157.545 143.857 157.303 144.543 156.98 145.43C156.456 146.761 156.113 147.77 155.972 148.475C155.951 148.556 155.931 148.617 155.911 148.677C155.729 149.161 155.548 149.605 155.407 150.028C155.871 150.553 156.093 151.057 156.113 151.541C156.113 151.622 156.113 151.702 156.113 151.763C156.113 151.844 156.093 151.944 156.072 152.065C156.052 152.186 156.012 152.328 155.931 152.449C155.851 152.57 155.75 152.691 155.649 152.812C155.548 152.933 155.387 153.054 155.205 153.155C155.003 153.255 154.782 153.336 154.54 153.376C154.116 153.497 153.753 153.397 153.471 153.074C153.108 152.65 153.108 151.763 153.511 150.412C152.301 149.403 150.849 148.758 149.195 148.435C148.65 148.354 148.106 148.314 147.581 148.294C147.057 148.294 146.452 148.375 145.766 148.556C145.08 148.738 144.475 149.04 143.89 149.444C143.326 149.847 142.781 150.472 142.237 151.319C141.712 152.166 141.289 153.155 140.966 154.304C140.462 156.18 140.603 157.551 141.43 158.459C142.922 160.072 146.371 160.375 151.736 159.346C152.543 159.205 153.027 159.387 153.168 159.871C153.249 160.214 153.188 160.476 152.987 160.637C152.785 160.799 152.462 160.94 152.039 161.081C151.01 161.424 149.719 162.21 148.186 163.42C146.633 164.651 145.141 166.143 143.689 167.938C142.237 169.733 141.309 171.387 140.906 172.9C140.442 174.634 140.663 176.046 141.611 177.115C143.467 179.213 145.766 179.293 148.529 177.377C150.062 176.268 151.454 174.816 152.745 173.001C154.035 171.185 154.983 169.451 155.608 167.777C153.491 167.212 152.382 166.426 152.281 165.397C152.18 164.51 152.845 163.763 154.277 163.138C154.822 162.936 155.286 162.815 155.649 162.775C156.012 162.735 156.335 162.775 156.617 162.916C156.899 163.057 157.101 163.199 157.222 163.299C157.343 163.42 157.464 163.562 157.545 163.743C157.888 164.348 157.928 165.276 157.666 166.506C158.835 166.688 160.066 166.789 161.357 166.809C162.708 166.789 164.039 166.728 165.31 166.587C166.58 166.446 167.75 166.143 168.839 165.679C169.908 165.195 170.654 164.59 171.058 163.864C171.179 163.884 171.36 163.763 171.582 163.703ZM156.113 166.385C156.274 165.599 156.274 165.054 156.133 164.731C156.072 164.671 155.951 164.631 155.77 164.651C155.568 164.671 155.306 164.752 154.983 164.873C154.479 165.094 154.156 165.316 153.955 165.538C154.136 165.78 154.842 166.063 156.113 166.385Z" fill="currentColor"/>
<path d="M269.985 194.319C270.146 194.359 270.288 194.42 270.409 194.5C270.53 194.581 270.61 194.682 270.671 194.823C270.711 194.964 270.731 195.105 270.731 195.267C270.671 195.731 270.429 195.993 269.985 196.013C269.925 196.013 269.864 196.013 269.783 195.993C269.319 195.932 268.755 195.751 268.089 195.469C267.424 195.186 266.819 194.884 266.274 194.581C265.729 194.279 264.862 193.774 263.692 193.089C262.099 192.181 260.808 191.435 259.82 190.89C258.832 190.346 257.259 189.539 255.08 188.45C252.902 187.361 250.865 186.453 248.989 185.727C247.114 185.001 244.714 184.174 241.789 183.226C238.865 182.278 235.94 181.492 233.036 180.866C230.132 180.241 226.764 179.656 222.911 179.092C219.059 178.527 215.086 178.144 210.992 177.922C209.459 188.026 209.499 194.843 211.113 198.353C211.213 198.554 211.213 198.756 211.153 198.978C211.072 199.2 210.931 199.361 210.709 199.462C210.608 199.502 210.528 199.522 210.447 199.522C210.044 199.563 209.761 199.401 209.6 199.059C207.906 195.347 207.825 188.268 209.378 177.821C206.595 177.68 203.872 177.599 201.19 177.599C197.66 179.818 195.139 180.443 193.606 179.434C193.425 179.354 193.283 179.192 193.223 178.95C193.142 178.708 193.142 178.507 193.203 178.305C193.404 177.74 194.413 177.196 196.188 176.651C197.963 176.107 199.092 175.865 199.556 175.925C200.121 175.925 200.484 175.925 200.665 175.945C201.694 175.3 203.005 174.372 204.598 173.182C205.667 172.396 206.353 171.911 206.696 171.69C207.986 170.843 209.418 169.834 210.992 168.705C211.94 163.905 213.19 158.419 214.743 152.247C216.296 146.075 217.567 141.195 218.575 137.645C219.563 134.075 220.854 129.598 222.427 124.213C223.335 121.006 223.98 118.727 224.343 117.396C226.199 110.336 227.832 106.867 229.204 107.009C229.95 107.069 230.394 107.815 230.515 109.247C230.535 109.469 230.475 109.691 230.313 109.852C230.152 110.034 229.97 110.135 229.748 110.155C229.547 110.175 229.345 110.115 229.184 109.994C229.002 109.873 228.901 109.691 228.841 109.469C228.579 110.034 228.256 110.821 227.893 111.829C227.51 112.837 227.167 113.866 226.844 114.915C226.521 115.964 226.239 116.952 225.977 117.839C225.634 119.13 224.989 121.409 224.061 124.656C218.757 142.969 215.066 157.168 212.968 167.293C215.247 165.639 217.526 163.884 219.846 162.029C222.165 160.173 224.585 158.177 227.127 155.998C229.668 153.84 232.108 151.622 234.448 149.383C236.808 147.144 239.087 144.845 241.305 142.506C243.524 140.166 245.561 137.806 247.376 135.467C249.191 133.127 250.784 130.848 252.156 128.629C253.527 126.431 254.576 124.253 255.302 122.135C256.028 119.997 256.371 118.041 256.331 116.246C256.27 114.31 255.806 112.515 254.959 110.861C254.112 109.207 252.922 107.795 251.369 106.605C249.816 105.415 247.981 104.508 245.843 103.862C243.967 103.298 241.971 102.995 239.813 102.975C237.675 102.935 235.355 103.177 232.875 103.681C230.394 104.185 227.792 105.093 225.09 106.383C222.387 107.674 219.664 109.308 216.941 111.244C214.198 113.2 211.395 115.681 208.511 118.706C205.627 121.732 202.864 125.16 200.242 129.013C200.403 129.416 201.996 130.102 205.042 131.11C206.091 131.453 206.776 131.695 207.099 131.856C207.321 131.937 207.462 132.098 207.543 132.3C207.623 132.502 207.623 132.724 207.543 132.925C207.462 133.127 207.301 133.288 207.079 133.369C206.857 133.45 206.635 133.45 206.433 133.369C206.171 133.248 205.526 133.006 204.538 132.683C202.682 132.078 201.311 131.534 200.383 131.07C199.455 130.606 198.89 130.061 198.689 129.436C198.527 128.952 198.588 128.488 198.87 128.024C202.117 123.305 205.546 119.191 209.176 115.661C212.807 112.131 216.276 109.368 219.604 107.392C222.931 105.395 226.239 103.882 229.567 102.854C232.895 101.825 235.92 101.281 238.663 101.24C241.406 101.2 243.967 101.523 246.327 102.229C249.836 103.298 252.64 105.072 254.737 107.553C256.835 110.054 257.924 112.938 257.985 116.206C258.045 118.505 257.541 121.046 256.432 123.829C255.343 126.613 253.85 129.356 251.974 132.098C250.099 134.841 247.86 137.705 245.238 140.67C242.616 143.655 239.934 146.459 237.191 149.081C234.448 151.723 231.543 154.345 228.478 157.007C225.412 159.669 222.589 161.988 220.027 164.005C217.466 166.022 214.945 167.918 212.484 169.693C212.04 171.972 211.637 174.13 211.314 176.228C215.449 176.47 219.442 176.873 223.315 177.418C227.187 177.982 230.596 178.567 233.54 179.213C236.485 179.838 239.429 180.645 242.414 181.613C245.379 182.581 247.799 183.428 249.695 184.174C251.571 184.92 253.628 185.828 255.847 186.917C258.065 188.006 259.679 188.833 260.667 189.398C261.655 189.962 262.966 190.709 264.56 191.657C265.366 192.121 265.971 192.463 266.375 192.705C266.778 192.927 267.242 193.189 267.787 193.472C268.331 193.754 268.755 193.956 269.118 194.097C269.42 194.218 269.723 194.299 269.985 194.319ZM203.65 175.965C205.647 176.006 207.644 176.066 209.64 176.147C209.923 174.533 210.225 172.859 210.568 171.105C209.499 171.831 208.511 172.517 207.623 173.122C207.301 173.303 206.635 173.767 205.627 174.513C204.759 175.159 204.114 175.643 203.65 175.965Z" fill="currentColor"/>
<path d="M278.113 154.042C278.335 154.062 278.537 154.163 278.698 154.324C278.859 154.486 278.92 154.687 278.9 154.929C278.879 155.171 278.779 155.353 278.617 155.494C276.076 157.713 273.978 159.286 272.284 160.234C270.59 161.162 269.158 161.585 267.968 161.444C267.585 161.424 267.202 161.343 266.859 161.202C266.496 161.061 266.193 160.879 265.931 160.698C265.669 160.516 265.387 160.254 265.064 159.931C264.741 159.609 264.479 159.326 264.298 159.104C264.116 158.882 263.854 158.56 263.551 158.136C262.321 156.624 261.272 155.514 260.385 154.829C260.304 154.768 260.203 154.728 260.062 154.748C259.881 154.788 259.699 154.869 259.497 155.01C259.296 155.151 259.074 155.333 258.832 155.595C258.59 155.837 258.368 156.099 258.166 156.321C257.965 156.563 257.702 156.886 257.4 157.289C257.097 157.693 256.875 158.015 256.694 158.257C256.512 158.499 256.291 158.822 255.988 159.266C255.343 160.173 254.859 160.839 254.516 161.323C254.173 161.787 253.749 162.331 253.205 162.936C252.66 163.541 252.156 164.005 251.692 164.288C251.208 164.59 250.744 164.772 250.3 164.832C250.24 164.832 250.22 164.832 250.179 164.832C249.514 164.893 248.909 164.691 248.364 164.247C247.235 163.32 246.872 160.778 247.255 156.644C246.993 157.188 246.731 157.672 246.489 158.096C246.347 158.298 246.166 158.419 245.944 158.479C245.722 158.54 245.5 158.499 245.319 158.378C245.137 158.257 244.996 158.076 244.956 157.874C244.915 157.672 244.936 157.451 245.036 157.229C246.045 155.534 247.094 153.296 248.203 150.533C248.909 146.781 249.937 142.526 251.289 137.766C252.64 133.006 253.83 129.093 254.879 126.028C255.907 122.962 256.573 121.187 256.875 120.703C257.218 120.179 257.622 120.017 258.106 120.219C258.348 120.36 258.509 120.501 258.57 120.683C258.63 120.865 258.61 121.369 258.469 122.236C258.328 123.103 258.025 124.394 257.541 126.149C257.057 127.903 256.351 130.384 255.383 133.631C254.838 135.648 253.87 138.875 252.479 143.312L251.712 145.733C251.087 147.628 250.462 149.383 249.857 150.976C248.425 158.056 248.304 162.069 249.453 163.017C249.675 163.199 249.877 163.279 250.079 163.239C250.462 163.178 250.946 162.856 251.531 162.271C252.116 161.686 252.62 161.121 253.003 160.597C253.386 160.072 253.931 159.326 254.617 158.338C255.201 157.471 255.665 156.825 255.988 156.402C256.311 155.978 256.714 155.474 257.198 154.909C257.682 154.345 258.126 153.921 258.529 153.659C258.933 153.397 259.356 153.235 259.76 153.175C260.365 153.074 260.909 153.215 261.373 153.578C262.382 154.345 263.531 155.534 264.842 157.168C265.326 157.814 265.709 158.298 265.972 158.58C266.234 158.862 266.556 159.145 266.94 159.427C267.343 159.709 267.746 159.851 268.15 159.911C269.945 160.093 273.071 158.237 277.528 154.345C277.69 154.082 277.891 154.022 278.113 154.042Z" fill="currentColor"/>
<path d="M302.8 151.924C303.022 151.884 303.143 151.864 303.143 151.864C303.143 151.864 303.243 151.924 303.425 152.066C303.606 152.207 303.727 152.388 303.788 152.61C303.828 152.832 303.788 153.054 303.647 153.235C302.255 155.313 299.976 157.209 296.81 158.943C293.643 160.678 290.577 161.686 287.592 161.948C286.403 162.049 285.293 162.009 284.305 161.847C282.51 161.504 281.017 160.778 279.828 159.629C278.638 158.479 277.79 156.966 277.306 155.091V155.05C277.024 153.921 277.064 152.61 277.367 151.118C277.69 149.625 278.214 148.233 278.92 146.943C279.626 145.652 280.473 144.502 281.421 143.494C282.369 142.485 283.297 141.86 284.204 141.598C284.587 141.497 284.95 141.457 285.313 141.517C285.676 141.578 286.019 141.699 286.302 141.9C286.604 142.102 286.866 142.364 287.108 142.727C287.35 143.07 287.532 143.494 287.673 143.978C287.955 144.885 287.976 145.813 287.713 146.761C287.451 147.709 287.028 148.596 286.443 149.403C285.838 150.21 285.112 150.997 284.244 151.783C283.377 152.57 282.51 153.235 281.683 153.8C280.836 154.365 279.989 154.869 279.142 155.333C280.009 158.076 281.824 159.689 284.587 160.173C286.039 160.456 287.653 160.395 289.408 159.992C291.162 159.588 292.856 159.004 294.51 158.237C296.164 157.471 297.677 156.563 299.068 155.494C300.46 154.445 301.509 153.376 302.235 152.287C302.396 152.086 302.578 151.965 302.8 151.924ZM284.668 143.232C283.861 143.453 282.994 144.139 282.066 145.269C281.138 146.398 280.352 147.749 279.686 149.323C279.041 150.896 278.738 152.308 278.799 153.598C279.787 153.054 280.735 152.449 281.643 151.763C282.55 151.077 283.397 150.331 284.184 149.524C284.971 148.717 285.535 147.87 285.898 146.983C286.261 146.096 286.322 145.269 286.08 144.482C285.818 143.574 285.434 143.151 284.93 143.191C284.87 143.171 284.769 143.191 284.668 143.232Z" fill="currentColor"/>
<path d="M341.221 148.677C341.443 148.637 341.564 148.637 341.564 148.637C341.564 148.637 341.645 148.697 341.826 148.838C342.008 148.98 342.108 149.161 342.149 149.383C342.189 149.605 342.129 149.827 341.987 150.008C337.147 156.24 332.77 159.185 328.837 158.822C327.99 158.741 327.163 158.499 326.377 158.116C325.59 157.713 324.925 157.289 324.421 156.845C323.896 156.382 323.392 155.817 322.888 155.131C322.383 154.445 322.02 153.921 321.819 153.538C321.617 153.175 321.355 152.711 321.093 152.166L321.052 152.126C320.588 152.388 319.54 153.094 317.926 154.244C316.514 155.212 315.405 155.958 314.558 156.503C313.711 157.047 312.622 157.733 311.25 158.54C309.879 159.346 308.628 159.972 307.459 160.415C306.309 160.859 305.24 161.121 304.272 161.202C303.243 161.283 302.376 161.141 301.65 160.778C300.44 160.133 299.916 159.024 300.097 157.41C300.258 155.958 300.964 154.264 302.255 152.348C303.526 150.412 305.139 148.637 307.075 146.983C309.012 145.349 310.887 144.28 312.702 143.796C315.345 143.07 317.382 143.635 318.854 145.551C318.995 145.753 319.056 145.954 319.015 146.196C318.975 146.438 318.874 146.62 318.672 146.741C318.471 146.882 318.269 146.922 318.047 146.882C317.825 146.842 317.644 146.741 317.503 146.58C316.494 145.248 315.042 144.845 313.126 145.369C311.573 145.813 309.919 146.781 308.144 148.254C306.39 149.746 304.917 151.36 303.748 153.114C302.578 154.869 301.912 156.361 301.771 157.612C301.69 158.459 301.912 159.024 302.457 159.286C302.86 159.508 303.385 159.609 304.03 159.548C304.675 159.508 305.301 159.387 305.926 159.185C306.551 158.983 307.317 158.681 308.185 158.237C309.072 157.793 309.839 157.41 310.484 157.047C311.129 156.684 311.936 156.2 312.884 155.595C313.832 154.99 314.538 154.526 315.022 154.183C315.486 153.84 316.151 153.397 316.958 152.852C318.733 151.622 319.903 150.876 320.467 150.573C321.032 150.291 321.496 150.23 321.879 150.432C322.061 150.513 322.303 150.835 322.585 151.38C324.481 155.01 326.619 156.946 328.999 157.148C332.367 157.43 336.26 154.708 340.697 148.96C340.818 148.818 340.999 148.717 341.221 148.677Z" fill="currentColor"/>
<path d="M400.295 98.1142C403.764 100.635 404.167 105.899 401.525 113.866C401.444 114.108 401.303 114.269 401.081 114.37C400.88 114.471 400.658 114.471 400.456 114.411C400.255 114.33 400.093 114.209 399.972 113.987C399.871 113.785 399.831 113.563 399.892 113.362C401.081 109.832 401.626 106.888 401.525 104.528C401.424 102.168 400.678 100.494 399.286 99.4857C397.229 97.9932 393.982 97.9327 389.505 99.3042C385.047 100.676 380.388 103.136 375.528 106.706C373.41 108.299 371.393 109.994 369.517 111.809C367.622 113.624 365.907 115.54 364.334 117.577C362.761 119.614 361.49 121.651 360.542 123.708C359.594 125.766 358.969 127.823 358.667 129.9C358.364 131.957 358.546 133.914 359.231 135.769C359.514 136.616 359.836 137.423 360.2 138.21C360.583 138.996 361.006 139.722 361.49 140.428C361.974 141.134 362.438 141.779 362.882 142.344C363.326 142.929 363.89 143.534 364.576 144.159C365.262 144.785 365.827 145.329 366.29 145.753C366.754 146.176 367.4 146.701 368.227 147.326C369.054 147.951 369.699 148.435 370.163 148.758C370.607 149.101 371.312 149.585 372.24 150.21C373.571 151.158 374.62 151.904 375.346 152.449C376.092 152.993 377.04 153.739 378.19 154.647C379.34 155.555 380.409 156.503 381.356 157.451C382.304 158.419 383.212 159.427 384.079 160.516C385.209 159.225 386.822 157.39 388.92 155.03C390.614 153.134 391.885 151.702 392.732 150.734C393.579 149.766 394.527 148.637 395.555 147.366C396.584 146.075 397.37 145.006 397.915 144.099C398.036 143.917 398.197 143.796 398.419 143.756C398.641 143.716 398.863 143.756 399.065 143.877C399.266 143.998 399.387 144.18 399.428 144.381C399.468 144.603 399.448 144.805 399.327 145.027C398.742 145.914 397.915 147.023 396.866 148.354C395.817 149.665 394.849 150.815 394.002 151.783C393.155 152.751 391.864 154.203 390.15 156.119C387.931 158.62 386.217 160.536 385.047 161.867C388.395 166.526 390.634 172.254 391.784 179.051C392.147 181.169 392.066 183.347 391.562 185.566C391.058 187.784 390.251 189.781 389.142 191.556C388.032 193.351 386.721 194.924 385.189 196.295C383.656 197.667 382.083 198.675 380.449 199.301C379.481 199.664 378.533 199.885 377.625 199.966C376.052 200.107 374.6 199.805 373.269 199.099C371.958 198.393 370.828 197.284 369.901 195.811C369.275 194.763 368.812 193.653 368.529 192.463C368.227 191.273 368.085 190.104 368.085 188.934C368.085 187.764 368.247 186.534 368.57 185.223C368.872 183.912 369.275 182.641 369.759 181.391C370.244 180.14 370.869 178.829 371.615 177.438C372.361 176.046 373.148 174.735 373.975 173.485C374.802 172.234 375.729 170.903 376.758 169.511C377.787 168.12 378.795 166.809 379.763 165.619C380.731 164.429 381.78 163.138 382.93 161.787C382.123 160.758 381.256 159.77 380.328 158.822C379.4 157.894 378.371 156.966 377.222 156.039C376.072 155.111 375.145 154.385 374.398 153.84C373.652 153.296 372.603 152.529 371.232 151.561C370.143 150.815 369.316 150.23 368.771 149.827C368.227 149.423 367.46 148.838 366.492 148.092C365.524 147.346 364.758 146.701 364.213 146.196C363.669 145.672 363.023 145.006 362.257 144.2C361.49 143.393 360.865 142.606 360.361 141.86C359.857 141.114 359.352 140.247 358.848 139.299C358.344 138.331 357.92 137.342 357.578 136.334C357.154 134.962 356.892 133.591 356.831 132.199C356.751 130.828 356.892 129.416 357.215 127.964C357.557 126.532 358.021 125.12 358.626 123.728C359.231 122.337 359.978 120.965 360.845 119.574C361.732 118.182 362.68 116.871 363.709 115.6C364.737 114.33 365.847 113.079 367.057 111.849C368.267 110.619 369.477 109.469 370.707 108.4C371.938 107.331 373.208 106.323 374.519 105.355C376.334 104.024 378.17 102.814 380.066 101.704C381.941 100.615 383.857 99.6672 385.814 98.8605C387.75 98.0537 389.605 97.4487 391.36 97.0654C393.115 96.6822 394.769 96.5612 396.322 96.7226C397.875 96.8638 399.206 97.3276 400.295 98.1142ZM390.13 179.273C389.081 172.859 387.024 167.495 383.978 163.118C382.567 164.812 381.256 166.385 380.106 167.837C378.956 169.29 377.766 170.883 376.556 172.597C375.346 174.312 374.338 175.925 373.491 177.438C372.644 178.95 371.897 180.524 371.252 182.157C370.607 183.791 370.183 185.324 369.961 186.735C369.739 188.147 369.739 189.559 369.961 190.971C370.163 192.383 370.647 193.673 371.393 194.863C371.998 195.872 372.684 196.638 373.471 197.203C374.257 197.768 375.064 198.09 375.871 198.171C376.677 198.252 377.383 198.252 378.008 198.171C378.634 198.09 379.259 197.909 379.864 197.687C381.356 197.122 382.788 196.215 384.18 194.964C385.572 193.714 386.762 192.282 387.75 190.648C388.758 189.015 389.484 187.199 389.948 185.182C390.412 183.206 390.473 181.229 390.13 179.273Z" fill="currentColor"/>
<path d="M421.432 141.86C421.654 141.84 421.876 141.921 422.057 142.082C422.239 142.243 422.339 142.445 422.339 142.667C422.339 142.889 422.259 143.09 422.097 143.272C420.423 145.127 417.983 146.963 414.776 148.778C411.549 150.593 408.584 151.622 405.902 151.844C404.551 151.965 403.381 151.844 402.372 151.481C399.811 150.533 398.419 148.254 398.258 144.623C398.258 144.401 398.339 144.2 398.5 144.018C398.661 143.857 398.843 143.756 399.065 143.736C399.287 143.716 399.488 143.796 399.67 143.958C399.831 144.119 399.932 144.321 399.952 144.543C400.073 147.427 401.062 149.202 402.937 149.867C404.652 150.392 406.689 150.25 409.028 149.464C411.368 148.677 413.647 147.588 415.825 146.196C418.023 144.805 419.718 143.433 420.908 142.102C421.029 141.981 421.21 141.88 421.432 141.86ZM398.944 138.835C398.722 138.855 398.52 138.774 398.339 138.613C398.117 138.492 398.016 138.331 398.036 138.109C398.036 137.867 398.177 137.322 398.44 136.455C398.419 136.273 398.46 136.112 398.561 135.991C398.621 135.789 398.682 135.588 398.742 135.447C398.803 135.204 398.924 135.043 399.125 134.942C399.327 134.841 399.529 134.821 399.751 134.862C399.972 134.922 400.154 135.043 400.275 135.265C400.396 135.467 400.416 135.689 400.335 135.89C400.275 136.132 400.174 136.475 400.033 136.919C399.872 137.968 399.609 138.573 399.267 138.754C399.145 138.795 399.045 138.835 398.944 138.835Z" fill="currentColor"/>
<path d="M451.141 139.359C451.383 139.4 451.564 139.521 451.685 139.722C451.826 139.924 451.867 140.126 451.806 140.368C451.766 140.61 451.645 140.771 451.443 140.892C450.576 141.497 449.729 142.021 448.902 142.445C448.075 142.869 447.349 143.191 446.704 143.413C446.058 143.655 445.433 143.796 444.808 143.857C444.203 143.917 443.658 143.938 443.214 143.938C442.771 143.917 442.307 143.837 441.843 143.655C441.379 143.474 440.996 143.312 440.713 143.171C440.431 143.03 440.108 142.808 439.745 142.506C439.382 142.203 439.12 141.961 438.959 141.8C438.797 141.638 438.555 141.396 438.273 141.094C437.648 140.408 437.285 140.085 437.164 140.146C436.841 140.307 435.812 141.537 434.058 143.877C431.839 146.801 430.024 149.02 428.572 150.472C427.14 151.944 425.809 152.731 424.619 152.832C424.236 152.872 423.873 152.832 423.53 152.731C421.573 152.025 420.666 148.657 420.827 142.647C420.827 142.425 420.928 142.223 421.109 142.062C421.291 141.9 421.493 141.82 421.735 141.84C421.957 141.84 422.158 141.941 422.32 142.102C422.481 142.264 422.541 142.465 422.541 142.707C422.501 144.038 422.521 145.228 422.582 146.257C422.642 147.286 422.723 148.092 422.844 148.677C422.965 149.262 423.106 149.746 423.268 150.129C423.449 150.513 423.59 150.775 423.711 150.896C423.832 151.017 423.973 151.118 424.094 151.158C424.538 151.299 425.123 151.138 425.829 150.654C426.535 150.19 427.362 149.423 428.31 148.354C429.258 147.286 430.024 146.398 430.589 145.672C431.153 144.966 431.859 144.018 432.727 142.869C433.816 141.416 434.602 140.388 435.127 139.783C435.631 139.178 436.075 138.795 436.458 138.633C436.66 138.532 436.861 138.472 437.063 138.452C437.265 138.431 437.466 138.431 437.668 138.492C437.87 138.552 438.031 138.613 438.192 138.694C438.334 138.774 438.495 138.895 438.676 139.057C438.858 139.218 438.999 139.359 439.12 139.46C439.241 139.561 439.382 139.722 439.544 139.944C439.887 140.307 440.149 140.569 440.35 140.771C440.552 140.953 440.855 141.195 441.258 141.477C441.661 141.759 442.045 141.961 442.408 142.042C442.771 142.143 443.235 142.203 443.819 142.223C444.404 142.243 445.009 142.183 445.635 142.001C446.26 141.82 447.006 141.517 447.853 141.094C448.7 140.67 449.608 140.146 450.576 139.5C450.697 139.359 450.899 139.319 451.141 139.359Z" fill="currentColor"/>
<path d="M474.072 137.403C474.294 137.383 474.516 137.463 474.697 137.625C474.879 137.786 474.98 137.988 474.98 138.21C474.98 138.431 474.899 138.633 474.738 138.815C473.064 140.67 470.623 142.506 467.416 144.321C464.189 146.136 461.224 147.164 458.542 147.386C457.191 147.507 456.021 147.386 455.013 147.023C452.451 146.075 451.059 143.796 450.898 140.166C450.898 139.944 450.979 139.742 451.14 139.561C451.301 139.4 451.483 139.299 451.705 139.279C451.927 139.258 452.128 139.339 452.31 139.5C452.471 139.662 452.572 139.863 452.592 140.085C452.713 142.969 453.702 144.744 455.577 145.41C457.292 145.934 459.329 145.793 461.668 145.006C464.008 144.22 466.287 143.131 468.465 141.739C470.663 140.347 472.358 138.976 473.548 137.645C473.648 137.504 473.83 137.423 474.072 137.403ZM451.564 134.378C451.342 134.398 451.14 134.317 450.959 134.156C450.737 134.035 450.636 133.873 450.656 133.651C450.656 133.409 450.797 132.865 451.059 131.998C451.039 131.816 451.08 131.655 451.18 131.534C451.241 131.332 451.301 131.13 451.362 130.989C451.423 130.747 451.544 130.586 451.745 130.485C451.947 130.384 452.149 130.364 452.37 130.404C452.592 130.465 452.774 130.586 452.895 130.808C453.016 131.009 453.036 131.231 452.955 131.433C452.895 131.675 452.794 132.018 452.653 132.462C452.491 133.51 452.229 134.115 451.886 134.297C451.765 134.337 451.665 134.378 451.564 134.378Z" fill="currentColor"/>
</svg>
