<svg viewBox="0 0 59 62" fill="none" xmlns="http://www.w3.org/2000/svg">
<g>
<path d="M31.71 59.46C15.15 59.46 1.68 45.99 1.68 29.43C1.68 17.82 8.27 7.4 18.62 2.4C16.01 7.05 14.63 12.29 14.63 17.65C14.63 34.86 28.63 48.86 45.84 48.86C49.3 48.86 52.68 48.3 55.91 47.19C50.26 54.91 41.35 59.46 31.71 59.46ZM57.92 45.6C57.75 45.4 57.48 45.33 57.24 45.43C53.61 46.92 49.78 47.68 45.84 47.68C29.28 47.68 15.81 34.21 15.81 17.65C15.81 11.88 17.46 6.26 20.58 1.41C20.72 1.19 20.7 0.909999 20.54 0.719999C20.37 0.519999 20.1 0.449999 19.86 0.549999C8.1 5.38 0.5 16.71 0.5 29.42C0.5 46.63 14.5 60.63 31.71 60.63C42.37 60.63 52.18 55.27 57.96 46.29C58.1 46.08 58.09 45.8 57.92 45.6Z" fill="currentColor" stroke="currentColor" stroke-miterlimit="10"/>
<path d="M27.16 3.68H34.68L26.56 14.51C26.39 14.74 26.36 15.04 26.49 15.3C26.62 15.56 26.88 15.72 27.16 15.72H36.18C36.6 15.72 36.93 15.38 36.93 14.97C36.93 14.56 36.59 14.22 36.18 14.22H28.66L36.78 3.39C36.95 3.16 36.98 2.86 36.85 2.61C36.72 2.36 36.46 2.19 36.18 2.19H27.16C26.75 2.19 26.41 2.53 26.41 2.94C26.41 3.35 26.75 3.68 27.16 3.68Z" fill="currentColor" stroke="currentColor" stroke-miterlimit="10"/>
<path d="M32.54 30.4C32.68 30.62 32.92 30.76 33.18 30.76H36.19C36.6 30.76 36.94 30.42 36.94 30.01C36.94 29.6 36.6 29.26 36.19 29.26H34.4L36.86 24.33C36.98 24.1 36.96 23.82 36.83 23.6C36.69 23.38 36.45 23.24 36.19 23.24H33.18C32.76 23.24 32.43 23.58 32.43 23.99C32.43 24.41 32.77 24.74 33.18 24.74H34.97L32.51 29.67C32.39 29.9 32.4 30.17 32.54 30.4Z" fill="currentColor" stroke="currentColor" stroke-miterlimit="10"/>
</g>
</svg>
