<svg width="72" height="72" viewBox="0 0 72 72" fill="none" xmlns="http://www.w3.org/2000/svg">
<g clip-path="url(#clip0)">
<path d="M35.6 70.8C16.2 70.8 0.400024 55 0.400024 35.6C0.400024 16.2 16.2 0.400024 35.6 0.400024C55 0.400024 70.8 16.2 70.8 35.6C70.8 55 55 70.8 35.6 70.8ZM35.6 1.80002C17 1.80002 1.80002 17 1.80002 35.6C1.80002 54.2 17 69.3 35.6 69.3C54.2 69.3 69.3 54.2 69.3 35.6C69.3 17 54.2 1.80002 35.6 1.80002Z" fill="currentColor"/>
<path d="M35.6 71.2C16 71.2 0 55.2 0 35.6C0 16 16 0 35.6 0C55.2 0 71.2 16 71.2 35.6C71.2 55.2 55.2 71.2 35.6 71.2ZM35.6 0.8C16.4 0.8 0.8 16.4 0.8 35.6C0.8 54.8 16.4 70.4 35.6 70.4C54.8 70.4 70.4 54.8 70.4 35.6C70.4 16.4 54.8 0.8 35.6 0.8ZM35.6 69.7C16.8 69.7 1.5 54.4 1.5 35.6C1.5 16.8 16.8 1.5 35.6 1.5C54.4 1.5 69.7 16.8 69.7 35.6C69.7 54.4 54.4 69.7 35.6 69.7ZM35.6 2.2C17.2 2.2 2.2 17.2 2.2 35.6C2.2 54 17.2 69 35.6 69C54 69 69 54 69 35.6C68.9 17.2 54 2.2 35.6 2.2Z" fill="currentColor"/>
<path d="M50.1 32.1999C49.9 32.1999 49.7 32.0999 49.6 31.9999L40.3 22.6999C40 22.3999 40 21.8999 40.3 21.6999L48.1 13.8999C48.4 13.5999 48.9 13.5999 49.1 13.8999C49.4 14.1999 49.4 14.6999 49.1 14.8999L41.8 22.1999L50.1 30.4999L57.4 23.1999C57.7 22.8999 58.2 22.8999 58.4 23.1999C58.7 23.4999 58.7 23.9999 58.4 24.1999L50.6 31.9999C50.5 32.0999 50.3 32.1999 50.1 32.1999Z" fill="currentColor"/>
<path d="M50.0999 32.5C49.7999 32.5 49.4999 32.4 49.2999 32.2L40 22.9C39.8 22.7 39.7 22.4 39.7 22.1C39.7 21.8 39.8 21.5 40 21.3L47.7999 13.5C48.1999 13.1 48.9 13.1 49.4 13.5C49.6 13.7 49.7 14 49.7 14.3C49.7 14.6 49.6 14.9 49.4 15.1L42.4 22.1L50.2 29.9L57.2 22.9C57.6 22.5 58.2999 22.5 58.7999 22.9C59.1999 23.3 59.1999 24 58.7999 24.5L51 32.2999C50.7 32.3999 50.3999 32.5 50.0999 32.5ZM48.5 14C48.4 14 48.3 14 48.2 14.1L40.4 21.9C40.3 22 40.3 22.3 40.4 22.4L49.7 31.7C49.8 31.8 50.1 31.8 50.2 31.7L58 23.9C58.1 23.8 58.1 23.5 58 23.4C57.9 23.3 57.6 23.3 57.5 23.4L50 30.9L41.2 22.1L48.7 14.6C48.8 14.5 48.7999 14.4 48.7999 14.3C48.7999 14.2 48.8 14.1 48.7 14C48.7 14 48.6 14 48.5 14Z" fill="currentColor"/>
<path d="M54.1999 27.9999C53.9999 27.9999 53.7999 27.8999 53.6999 27.7999L44.3999 18.4999C44.0999 18.1999 44.0999 17.6999 44.3999 17.4999L48.4999 13.3999C48.7999 13.0999 49.2999 13.0999 49.4999 13.3999C49.7999 13.6999 49.7999 14.1999 49.4999 14.3999L45.8999 17.9999L54.1999 26.2999L57.7999 22.6999C58.0999 22.3999 58.5999 22.3999 58.7999 22.6999C59.0999 22.9999 59.0999 23.4999 58.7999 23.6999L54.6999 27.7999C54.5999 27.8999 54.3999 27.9999 54.1999 27.9999Z" fill="currentColor"/>
<path d="M54.1999 28.3999C53.8999 28.3999 53.5999 28.2999 53.3999 28.0999L44.0999 18.7999C43.8999 18.5999 43.7999 18.2999 43.7999 17.9999C43.7999 17.6999 43.8999 17.3999 44.0999 17.1999L48.1999 13.0999C48.5999 12.6999 49.2999 12.6999 49.7999 13.0999C50.1999 13.4999 50.1999 14.1999 49.7999 14.6999L46.3999 18.0999L54.1999 25.8999L57.5999 22.4999C57.9999 22.0999 58.6999 22.0999 59.1999 22.4999C59.5999 22.8999 59.5999 23.5999 59.1999 24.0999L54.9999 28.0999C54.7999 28.2999 54.4999 28.3999 54.1999 28.3999ZM49.0999 13.3999C48.9999 13.3999 48.8999 13.3999 48.7999 13.4999L44.6999 17.5999C44.5999 17.6999 44.5999 17.7999 44.5999 17.8999C44.5999 17.9999 44.5999 18.0999 44.6999 18.1999L53.9999 27.4999C54.0999 27.5999 54.3999 27.5999 54.4999 27.4999L58.5999 23.3999C58.6999 23.2999 58.6999 22.9999 58.5999 22.8999C58.4999 22.7999 58.1999 22.7999 58.0999 22.8999L54.1999 26.7999L45.3999 17.9999L49.2999 14.0999C49.3999 13.9999 49.3999 13.6999 49.2999 13.5999C49.1999 13.4999 49.1999 13.3999 49.0999 13.3999Z" fill="currentColor"/>
<path d="M39.7 25.9C39.5 25.9 39.3 25.8 39.2 25.7C38.9 25.4 38.9 24.9 39.2 24.7L40.8 23.1C41.1 22.8 41.6 22.8 41.8 23.1C42 23.4 42.1 23.9 41.8 24.1L40.2 25.7C40.1 25.9 39.9 25.9 39.7 25.9Z" fill="currentColor"/>
<path d="M39.7 26.3C39.4 26.3 39.1 26.2 38.9 26C38.5 25.6 38.5 24.9 38.9 24.4L40.5 22.8C40.9 22.4 41.6 22.4 42.1 22.8C42.5 23.2 42.5 23.9 42.1 24.4L40.5 26C40.3 26.2 40 26.3 39.7 26.3ZM41.3 23.3C41.2 23.3 41.1 23.3 41 23.4L39.5 25C39.4 25.1 39.4 25.4 39.5 25.5C39.6 25.6 39.9 25.6 40 25.5L41.6 23.9C41.7 23.8 41.7 23.5 41.6 23.4C41.5 23.3 41.4 23.3 41.3 23.3Z" fill="currentColor"/>
<path d="M50.1 28C50.4866 28 50.8 27.6866 50.8 27.3C50.8 26.9134 50.4866 26.6 50.1 26.6C49.7134 26.6 49.4 26.9134 49.4 27.3C49.4 27.6866 49.7134 28 50.1 28Z" fill="currentColor"/>
<path d="M50.1 28.4C49.8 28.4 49.5 28.3 49.3 28.1C48.9 27.7 48.9 27 49.3 26.5C49.7 26.1 50.4 26.1 50.9 26.5C51.1 26.7 51.2 27 51.2 27.3C51.2 27.6 51.1 27.9 50.9 28.1C50.7 28.3 50.4 28.4 50.1 28.4ZM49.8 27C49.7 27.1 49.7 27.4 49.8 27.5C49.9 27.6 50.2 27.6 50.3 27.5C50.4 27.4 50.4 27.3 50.4 27.2C50.4 27.1 50.4 27 50.3 26.9C50.2 26.9 50 26.9 49.8 27Z" fill="currentColor"/>
<path d="M41.8 40.5C41.6 40.5 41.4 40.4 41.3 40.3C41 40 41 39.5 41.3 39.3L46.5 34.1C46.8 33.8 46.8 33.3 46.5 33.1C46.2 32.8 46.2 32.3 46.5 32.1L48.1 30.5L41.9 24.3L40.3 25.9C40 26.2 39.5 26.2 39.3 25.9C39 25.6 39 25.1 39.3 24.9L41.4 22.8C41.7 22.5 42.2 22.5 42.4 22.8L49.7 30.1C50 30.4 50 30.9 49.7 31.1L48.1 32.7C48.5 33.5 48.3 34.5 47.7 35.2L42.5 40.4C42.2 40.4 42 40.5 41.8 40.5Z" fill="currentColor"/>
<path d="M41.8 40.8C41.5 40.8 41.2 40.7 41 40.5C40.6 40.1 40.6 39.4 41 38.9L46.2 33.7C46.3 33.6 46.3 33.3 46.2 33.2C45.8 32.8 45.8 32.1 46.2 31.6L47.5 30.3L41.8 24.6L40.5 26C40.1 26.4 39.4 26.4 38.9 26C38.5 25.6 38.5 24.9 38.9 24.4L41 22.3C41.2 22.1 41.5 22 41.8 22C42.1 22 42.4 22.1 42.6 22.3L49.9 29.6C50.3 30 50.3 30.7 49.9 31.2L48.4 32.7C48.7 33.6 48.5 34.7 47.8 35.4L42.6 40.6C42.4 40.7 42.1 40.8 41.8 40.8ZM41.8 23.6L48.6 30.4L46.8 32.2C46.7 32.3 46.7 32.6 46.8 32.7C47.2 33.1 47.2 33.8 46.8 34.3L41.6 39.5C41.5 39.6 41.5 39.9 41.6 40C41.7 40.1 42 40.1 42.1 40L47.3 34.8C47.8 34.3 48 33.4 47.7 32.7L47.6 32.5L49.4 30.7C49.5 30.6 49.5 30.3 49.4 30.2L42.1 22.9C42 22.8 41.9 22.8 41.8 22.8C41.7 22.8 41.6 22.8 41.5 22.9L39.5 25C39.4 25.1 39.4 25.4 39.5 25.5C39.6 25.6 39.9 25.6 40 25.5L41.8 23.6Z" fill="currentColor"/>
<path d="M33.5 28C33.3 28 33.1 27.9 33 27.8C32.7 27.5 32.7 27 33 26.8L35.6 24.2C35.8 24 36.1 23.9 36.4 24L39.1 24.9L39.8 24.2C40.1 23.9 40.6 23.9 40.8 24.2C41.1 24.5 41.1 25 40.8 25.2L39.8 26.2C39.6 26.4 39.3 26.5 39 26.4L36.3 25.5L34 27.8C33.9 27.9 33.7 28 33.5 28Z" fill="currentColor"/>
<path d="M33.5 28.4C33.2 28.4 32.9 28.3 32.7 28.1C32.3 27.7 32.3 27 32.7 26.5L35.3 23.9C35.6 23.6 36 23.5 36.4 23.6L38.9 24.4L39.4 23.9C39.8 23.5 40.5 23.5 41 23.9C41.4 24.3 41.4 25 41 25.5L40 26.5C39.7 26.8 39.3 26.9 38.9 26.8L36.4 26L34.3 28.1C34.1 28.3 33.8 28.4 33.5 28.4ZM36.1 24.3C36 24.3 35.9 24.3 35.8 24.4L33.2 27C33.1 27.1 33.1 27.2 33.1 27.3C33.1 27.4 33.1 27.5 33.2 27.6C33.3 27.7 33.6 27.7 33.7 27.6L36.1 25.2L39 26.2C39.1 26.2 39.3 26.2 39.4 26.1L40.4 25.1C40.5 25 40.5 24.7 40.4 24.6C40.3 24.5 40 24.5 39.9 24.6L39.1 25.4L36.2 24.4C36.2 24.3 36.1 24.3 36.1 24.3Z" fill="currentColor"/>
<path d="M22.6 57.6C22.4 57.6 22.2 57.5 22.1 57.4C21.8 57.1 21.8 56.6 22.1 56.4L29.4 49.1L21.1 40.8L13.8 48C13.5 48.3 13 48.3 12.8 48C12.5 47.7 12.5 47.2 12.8 47L20.6 39.2C20.9 38.9 21.4 38.9 21.6 39.2L30.9 48.5C31.2 48.8 31.2 49.3 30.9 49.5L23.1 57.3C23 57.5 22.8 57.6 22.6 57.6Z" fill="currentColor"/>
<path d="M22.6 57.9C22.3 57.9 22 57.8 21.8 57.6C21.6 57.4 21.5 57.1 21.5 56.8C21.5 56.5 21.6 56.2 21.8 56L28.8 49L21 41.2L14 48.2C13.6 48.6 12.8 48.6 12.4 48.2C12.2 48 12.1 47.7 12.1 47.4C12.1 47.1 12.2 46.8 12.4 46.6L20.2 38.8C20.4 38.6 20.7 38.5 21 38.5C21.3 38.5 21.6 38.6 21.8 38.8L31.1 48.1C31.3 48.3 31.4 48.6 31.4 48.9C31.4 49.2 31.3 49.5 31.1 49.7L23.3 57.5C23.2 57.8 22.9 57.9 22.6 57.9ZM21.1 40.2L29.9 49L22.4 56.5C22.3 56.6 22.3 56.7 22.3 56.8C22.3 56.9 22.3 57 22.4 57.1C22.5 57.2 22.8 57.2 22.9 57.1L30.7 49.3C30.8 49.2 30.8 48.9 30.7 48.8L21.4 39.5C21.3 39.4 21.2 39.4 21.1 39.4C21 39.4 20.9 39.4 20.8 39.5L13 47.3C12.9 47.4 12.9 47.7 13 47.8C13.1 47.9 13.4 47.9 13.5 47.8L21.1 40.2Z" fill="currentColor"/>
<path d="M22.1 58.0999C21.9 58.0999 21.7 57.9999 21.6 57.8999C21.3 57.5999 21.3 57.0999 21.6 56.8999L25.2 53.2999L16.9 44.9999L13.3 48.5999C13 48.8999 12.5 48.8999 12.3 48.5999C12 48.2999 12 47.7999 12.3 47.5999L16.4 43.4999C16.7 43.1999 17.2 43.1999 17.4 43.4999L26.7 52.7999C27 53.0999 27 53.5999 26.7 53.7999L22.6 57.8999C22.5 57.9999 22.3 58.0999 22.1 58.0999Z" fill="currentColor"/>
<path d="M22.1 58.4999C21.8 58.4999 21.5 58.3999 21.3 58.1999C20.9 57.7999 20.9 57.0999 21.3 56.5999L24.7 53.1999L16.9 45.3999L13.5 48.7999C13.1 49.1999 12.4 49.1999 11.9 48.7999C11.5 48.3999 11.5 47.6999 11.9 47.1999L16 43.0999C16.4 42.6999 17.1 42.6999 17.6 43.0999L26.9 52.3999C27.1 52.5999 27.2 52.8999 27.2 53.1999C27.2 53.4999 27.1 53.7999 26.9 53.9999L22.8 58.0999C22.7 58.2999 22.4 58.4999 22.1 58.4999ZM16.9 44.3999L25.7 53.1999L21.8 57.0999C21.7 57.1999 21.7 57.4999 21.8 57.5999C21.9 57.6999 22.2 57.6999 22.3 57.5999L26.4 53.4999C26.5 53.3999 26.5 53.2999 26.5 53.1999C26.5 53.0999 26.5 52.9999 26.4 52.8999L17.1 43.5999C17 43.4999 16.7 43.4999 16.6 43.5999L12.5 47.6999C12.4 47.7999 12.4 48.0999 12.5 48.1999C12.6 48.2999 12.9 48.2999 13 48.1999L16.9 44.3999Z" fill="currentColor"/>
<path d="M29.8999 48.1999C29.6999 48.1999 29.4999 48.0999 29.3999 47.9999C29.0999 47.6999 29.0999 47.1999 29.3999 46.9999L30.9999 45.3999C31.2999 45.0999 31.7999 45.0999 31.9999 45.3999C32.2999 45.6999 32.2999 46.1999 31.9999 46.3999L30.3999 47.9999C30.1999 48.1999 30.0999 48.1999 29.8999 48.1999Z" fill="currentColor"/>
<path d="M29.8999 48.5999C29.5999 48.5999 29.2999 48.4999 29.0999 48.2999C28.6999 47.8999 28.6999 47.1999 29.0999 46.6999L30.6999 45.0999C30.8999 44.8999 31.1999 44.7999 31.4999 44.7999C31.7999 44.7999 32.0999 44.8999 32.2999 45.0999C32.6999 45.4999 32.6999 46.1999 32.2999 46.6999L30.6999 48.2999C30.3999 48.4999 30.1999 48.5999 29.8999 48.5999ZM31.3999 45.5999C31.2999 45.5999 31.1999 45.5999 31.0999 45.6999L29.4999 47.2999C29.3999 47.3999 29.3999 47.6999 29.4999 47.7999C29.5999 47.8999 29.8999 47.8999 29.9999 47.7999L31.5999 46.1999C31.6999 46.0999 31.6999 45.7999 31.5999 45.6999C31.5999 45.5999 31.4999 45.5999 31.3999 45.5999Z" fill="currentColor"/>
<path d="M21.1 44.5999C21.4866 44.5999 21.8 44.2866 21.8 43.9C21.8 43.5134 21.4866 43.2 21.1 43.2C20.7134 43.2 20.4 43.5134 20.4 43.9C20.4 44.2866 20.7134 44.5999 21.1 44.5999Z" fill="currentColor"/>
<path d="M21.1 44.9999C20.8 44.9999 20.5 44.8999 20.3 44.6999C19.9 44.2999 19.9 43.5999 20.3 43.0999C20.7 42.6999 21.4 42.6999 21.9 43.0999C22.3 43.4999 22.3 44.1999 21.9 44.6999C21.6 44.8999 21.3 44.9999 21.1 44.9999ZM21.1 43.4999C21 43.4999 20.9 43.4999 20.8 43.5999C20.7 43.6999 20.7 43.9999 20.8 44.0999C20.9 44.1999 21.2 44.1999 21.3 44.0999C21.4 43.9999 21.4 43.6999 21.3 43.5999C21.2 43.4999 21.1 43.4999 21.1 43.4999Z" fill="currentColor"/>
<path d="M35.1 43.1C34.9 43.1 34.7 43 34.6 42.9C34.3 42.6 34.3 42.1 34.6 41.9L41.3 35.2C41.6 34.9 41.6 34.4 41.3 34.2C41 33.9 40.5 33.9 40.3 34.2L38.2 36.3C37.9 36.6 37.4 36.6 37.2 36.3C37 36 36.9 35.5 37.2 35.3L39.3 33.2C40.1 32.4 41.6 32.4 42.4 33.2C43.3 34.1 43.3 35.5 42.4 36.3L35.7 43C35.4 43 35.2 43.1 35.1 43.1Z" fill="currentColor"/>
<path d="M35.1 43.4C34.8 43.4 34.5 43.2999 34.3 43.0999C33.9 42.6999 33.9 42 34.3 41.5L41 34.7999C41.1 34.6999 41.1 34.3999 41 34.2999C40.9 34.1999 40.6 34.1999 40.5 34.2999L38.4 36.4C38 36.8 37.3 36.8 36.8 36.4C36.4 36 36.4 35.2999 36.8 34.7999L38.9 32.7C39.9 31.7 41.6 31.7 42.5 32.7C43.5 33.7 43.5 35.2999 42.5 36.2999L35.8 43C35.6 43.3 35.4 43.4 35.1 43.4ZM40.8 33.4C41.1 33.4 41.4 33.5 41.6 33.7C42 34.1 42 34.7999 41.6 35.2999L34.9 42C34.8 42.1 34.8 42.4 34.9 42.5C35 42.6 35.3 42.6 35.4 42.5L42.1 35.7999C42.4 35.4999 42.6 35 42.6 34.5C42.6 34 42.4 33.6 42.1 33.2C41.4 32.5 40.2 32.5 39.5 33.2L37.4 35.2999C37.3 35.3999 37.3 35.6999 37.4 35.7999C37.5 35.8999 37.8 35.8999 37.9 35.7999L40 33.7C40.2 33.6 40.5 33.4 40.8 33.4Z" fill="currentColor"/>
<path d="M37.5999 36.3C37.3999 36.3 37.1999 36.2 37.0999 36.1C36.7999 35.8 36.7999 35.3 37.0999 35.1L39.1999 33C39.4999 32.7 39.4999 32.2 39.1999 32C38.8999 31.7 38.3999 31.7 38.1999 32L36.0999 34C35.7999 34.3 35.2999 34.3 35.0999 34C34.7999 33.7 34.7999 33.2 35.0999 33L37.1999 30.9C38.0999 30 39.4999 30 40.2999 30.9C41.1999 31.8 41.1999 33.2 40.2999 34L38.1999 36.1C37.9999 36.2 37.7999 36.3 37.5999 36.3Z" fill="currentColor"/>
<path d="M37.5999 36.6999C37.2999 36.6999 36.9999 36.5999 36.7999 36.3999C36.5999 36.1999 36.4999 35.8999 36.4999 35.5999C36.4999 35.2999 36.5999 34.9999 36.7999 34.7999L38.8999 32.6999C38.9999 32.5999 38.9999 32.2999 38.8999 32.1999C38.7999 32.0999 38.6999 32.0999 38.5999 32.0999C38.4999 32.0999 38.3999 32.0999 38.2999 32.1999L36.1999 34.2999C35.7999 34.6999 35.0999 34.6999 34.5999 34.2999C34.3999 34.0999 34.2999 33.7999 34.2999 33.4999C34.2999 33.1999 34.3999 32.8999 34.5999 32.6999L36.6999 30.5999C37.1999 30.0999 37.7999 29.7999 38.4999 29.7999C39.1999 29.7999 39.7999 30.0999 40.2999 30.5999C41.2999 31.5999 41.2999 33.1999 40.2999 34.1999L38.1999 36.2999C38.1999 36.5999 37.8999 36.6999 37.5999 36.6999ZM38.6999 31.3999C38.9999 31.3999 39.2999 31.4999 39.4999 31.6999C39.8999 32.0999 39.8999 32.7999 39.4999 33.2999L37.3999 35.3999C37.2999 35.4999 37.2999 35.7999 37.3999 35.8999C37.4999 35.9999 37.7999 35.9999 37.8999 35.8999L39.9999 33.7999C40.6999 33.0999 40.6999 31.8999 39.9999 31.1999C39.6999 30.8999 39.1999 30.6999 38.6999 30.6999C38.1999 30.6999 37.7999 30.8999 37.3999 31.1999L35.2999 33.2999C35.1999 33.3999 35.1999 33.6999 35.2999 33.7999C35.3999 33.8999 35.6999 33.8999 35.7999 33.7999L37.8999 31.6999C38.0999 31.4999 38.3999 31.3999 38.6999 31.3999Z" fill="currentColor"/>
<path d="M35.6 34.2001C35.4 34.2001 35.2 34.1001 35.1 34.0001C34.8 33.7001 34.8 33.2001 35.1 33.0001L37.2 30.9001C37.3 30.8001 37.4 30.6001 37.4 30.4001C37.4 30.2001 37.3 30.0001 37.2 29.9001C36.9 29.6001 36.4 29.6001 36.2 29.9001L34 31.9001C33.7 32.2001 33.2 32.2001 33 31.9001C32.7 31.6001 32.7 31.1001 33 30.9001L35.1 28.8001C35.9 28.0001 37.4 28.0001 38.2 28.8001C38.6 29.2001 38.8 29.8001 38.8 30.4001C38.8 31.0001 38.6 31.5001 38.2 32.0001L36.1 34.0001C36 34.2001 35.8 34.2001 35.6 34.2001Z" fill="currentColor"/>
<path d="M35.6 34.6C35.3 34.6 35 34.5 34.8 34.3C34.6 34.1 34.5 33.8 34.5 33.5C34.5 33.2 34.6 32.9 34.8 32.7L36.9 30.6C37 30.5 37 30.4 37 30.3C37 30.2 37 30.1 36.9 30C36.8 29.9 36.5 29.9 36.4 30L34.3 32.1C33.9 32.5 33.2 32.5 32.7 32.1C32.3 31.7 32.3 31 32.7 30.5L34.8 28.4C35.8 27.4 37.5 27.4 38.4 28.4C38.9 28.9 39.2 29.5 39.2 30.2C39.2 30.9 38.9 31.5 38.4 32L36.3 34.1C36.1 34.5 35.9 34.6 35.6 34.6ZM36.6 29.3C36.9 29.3 37.2 29.4 37.4 29.6C37.6 29.8 37.7 30.1 37.7 30.4C37.7 30.7 37.6 31 37.4 31.2L35.3 33.3C35.2 33.4 35.2 33.5 35.2 33.6C35.2 33.7 35.2 33.8 35.3 33.9C35.4 34 35.7 34 35.8 33.9L37.9 31.8C38.2 31.5 38.4 31 38.4 30.5C38.4 30 38.2 29.6 37.9 29.2C37.2 28.5 36 28.5 35.3 29.2L33.2 31.3C33.1 31.4 33.1 31.7 33.2 31.8C33.3 31.9 33.6 31.9 33.7 31.8L35.8 29.7C36 29.4 36.3 29.3 36.6 29.3Z" fill="currentColor"/>
<path d="M29.4 48.7999C29.2 48.7999 29 48.6999 28.9 48.5999L21.6 41.2999C21.3 40.9999 21.3 40.4999 21.6 40.2999L23.2 38.6999C22.8 37.8999 23 36.8999 23.6 36.1999L32.9 26.8999C33.7 26.0999 35.2 26.0999 36 26.8999C36.9 27.7999 36.9 29.1999 36 29.9999L34 31.8999C33.7 32.1999 33.2 32.1999 33 31.8999C32.7 31.5999 32.7 31.0999 33 30.8999L35.1 28.7999C35.4 28.4999 35.4 27.9999 35.1 27.7999C34.8 27.4999 34.3 27.4999 34.1 27.7999L24.8 37.0999C24.5 37.3999 24.5 37.8999 24.8 38.0999C25.1 38.3999 25.1 38.8999 24.8 39.0999L23.2 40.6999L29.4 46.8999L31 45.2999C31.3 44.9999 31.8 44.9999 32 45.2999C32.3 45.5999 32.3 46.0999 32 46.2999L29.9 48.3999C29.7 48.6999 29.5 48.7999 29.4 48.7999Z" fill="currentColor"/>
<path d="M29.4 49.1C29.1 49.1 28.8 49 28.6 48.8L21.3 41.5C20.9 41.1 20.9 40.4 21.3 39.9L22.8 38.4C22.5 37.5 22.7 36.4 23.4 35.7L32.7 26.4C33.6 25.5 35.4 25.5 36.3 26.4C37.3 27.4 37.3 29 36.3 30L34.2 32.1C33.8 32.5 33.1 32.5 32.6 32.1C32.4 31.9 32.3 31.6 32.3 31.3C32.3 31 32.4 30.7 32.6 30.5L34.7 28.4C34.8 28.3 34.8 28 34.7 27.9C34.7 28 34.6 28 34.5 28C34.4 28 34.3 28 34.2 28.1L24.9 37.4C24.8 37.5 24.8 37.8 24.9 37.9C25.3 38.3 25.3 39 24.9 39.5L23.6 40.8L29.3 46.5L30.6 45.2C30.8 45 31.1 44.9 31.4 44.9C31.7 44.9 32 45 32.2 45.2C32.6 45.6 32.6 46.3 32.2 46.8L30.1 48.9C29.9 49 29.6 49.1 29.4 49.1ZM34.5 26.5C34 26.5 33.5 26.7 33.2 27L23.9 36.3C23.4 36.8 23.2 37.7 23.5 38.4L23.6 38.6L21.8 40.4C21.7 40.5 21.7 40.8 21.8 40.9L29.1 48.2C29.2 48.3 29.5 48.3 29.6 48.2L31.7 46.1C31.8 46 31.8 45.9 31.8 45.8C31.8 45.7 31.8 45.6 31.7 45.5C31.6 45.4 31.5 45.4 31.4 45.4C31.3 45.4 31.2 45.4 31.1 45.5L29.3 47.3L22.5 40.5L24.3 38.7C24.4 38.6 24.4 38.3 24.3 38.2C23.9 37.8 23.9 37.1 24.3 36.6L33.6 27.3C33.8 27.1 34.1 27 34.4 27C34.7 27 35 27.1 35.2 27.3C35.6 27.7 35.6 28.4 35.2 28.9L33.1 31C33 31.1 33 31.4 33.1 31.5C33.2 31.6 33.5 31.6 33.6 31.5L35.7 29.4C36 29.1 36.2 28.6 36.2 28.1C36.2 27.6 36 27.2 35.7 26.8C35.5 26.7 35 26.5 34.5 26.5Z" fill="currentColor"/>
<path d="M35.1 47.1999C35 47.1999 34.9 47.1999 34.9 47.1999L32.2 46.2999L31.5 46.9999C31.2 47.2999 30.7 47.2999 30.5 46.9999C30.2 46.6999 30.2 46.1999 30.5 45.9999L31.5 44.9999C31.7 44.7999 32 44.6999 32.3 44.7999L35 45.6999L40.4 40.2999C39.7 39.7999 38.7 39.8999 38.1 40.4999L35.3 43.2999C35 43.5999 34.5 43.5999 34.3 43.2999C34 42.9999 34 42.4999 34.3 42.2999L37.1 39.4999C38.4 38.1999 40.5 38.1999 41.7 39.4999L42 39.7999C42.3 40.0999 42.3 40.5999 42 40.7999L35.6 46.9999C35.4 47.0999 35.2 47.1999 35.1 47.1999Z" fill="currentColor"/>
<path d="M35.1 47.5999C35 47.5999 34.9 47.6 34.8 47.5L32.3 46.7L31.8 47.2C31.4 47.6 30.7 47.6 30.2 47.2C29.8 46.8 29.8 46.0999 30.2 45.5999L31.2 44.5999C31.5 44.2999 31.9 44.2 32.3 44.3L34.8 45.0999L39.7 40.2C39.2 40.1 38.7 40.1999 38.3 40.5999L35.5 43.4C35.1 43.8 34.4 43.8 33.9 43.4C33.5 43 33.5 42.3 33.9 41.8L36.7 39C38.1 37.6 40.4 37.6 41.9 39L42.2 39.3C42.6 39.7 42.6 40.4 42.2 40.9L35.9 47.2C35.6 47.5 35.4 47.5999 35.1 47.5999ZM32 45.8L34.9 46.8C35 46.8 35.2 46.8 35.3 46.7L41.6 40.4C41.7 40.3 41.7 40 41.6 39.9L41.3 39.5999C40.2 38.4999 38.3 38.4999 37.2 39.5999L34.4 42.4C34.3 42.5 34.3 42.8 34.4 42.9C34.5 43 34.8 43 34.9 42.9L37.7 40.0999C38.4 39.3999 39.6 39.3 40.5 39.8L40.9 40.0999L35 46.0999L32.1 45.0999C32 45.0999 31.8 45.1 31.7 45.2L30.7 46.2C30.6 46.3 30.6 46.6 30.7 46.7C30.8 46.8 31.1 46.8 31.2 46.7L32 45.8Z" fill="currentColor"/>
<path d="M47.5 58.6C47.3 58.6 47.1 58.5 47 58.4L39.2 50.6C38.9 50.3 38.9 49.8 39.2 49.6L48.5 40.3C48.8 40 49.3 40 49.5 40.3L57.3 48.1C57.6 48.4 57.6 48.9 57.3 49.1C57 49.4 56.5 49.4 56.3 49.1L49 41.8L40.7 50.1L48 57.4C48.3 57.7 48.3 58.2 48 58.4C47.9 58.5 47.7 58.6 47.5 58.6Z" fill="currentColor"/>
<path d="M47.5 59C47.2 59 46.9 58.9 46.7 58.7L38.9 50.9C38.7 50.7 38.6 50.3999 38.6 50.0999C38.6 49.7999 38.7 49.4999 38.9 49.2999L48.2 40C48.4 39.8 48.7 39.7 49 39.7C49.3 39.7 49.6 39.8 49.8 40L57.6 47.7999C57.8 47.9999 57.9 48.2999 57.9 48.5999C57.9 48.8999 57.8 49.2 57.6 49.4C57.2 49.8 56.5 49.8 56 49.4L49 42.4L41.2 50.2L48.2 57.2C48.4 57.4 48.5 57.7 48.5 58C48.5 58.3 48.4 58.5999 48.2 58.7999C48.1 58.8999 47.8 59 47.5 59ZM49.1 40.4C49 40.4 48.9 40.4 48.8 40.5L39.5 49.7999C39.4 49.8999 39.4 49.9999 39.4 50.0999C39.4 50.1999 39.4 50.3 39.5 50.4L47.3 58.2C47.4 58.3 47.7 58.3 47.8 58.2C47.9 58.1 47.9 58 47.9 57.9C47.9 57.8 47.9 57.6999 47.8 57.5999L40.3 50.0999L49.1 41.2999L56.6 48.7999C56.7 48.8999 57 48.8999 57.1 48.7999C57.2 48.6999 57.2 48.6 57.2 48.5C57.2 48.4 57.2 48.3 57.1 48.2L49.3 40.4C49.3 40.4 49.2 40.4 49.1 40.4Z" fill="currentColor"/>
<path d="M47.9999 59.0999C47.7999 59.0999 47.5999 58.9999 47.4999 58.8999L43.3999 54.7999C43.0999 54.4999 43.0999 53.9999 43.3999 53.7999L52.6999 44.4999C52.9999 44.1999 53.4999 44.1999 53.6999 44.4999L57.7999 48.5999C58.0999 48.8999 58.0999 49.3999 57.7999 49.5999C57.4999 49.8999 56.9999 49.8999 56.7999 49.5999L53.1999 45.9999L44.8999 54.2999L48.4999 57.8999C48.7999 58.1999 48.7999 58.6999 48.4999 58.8999C48.3999 59.0999 48.1999 59.0999 47.9999 59.0999Z" fill="currentColor"/>
<path d="M47.9999 59.4999C47.6999 59.4999 47.3999 59.3999 47.1999 59.1999L43.0999 54.9999C42.6999 54.5999 42.6999 53.8999 43.0999 53.3999L52.3999 44.0999C52.5999 43.8999 52.8999 43.7999 53.1999 43.7999C53.4999 43.7999 53.7999 43.8999 53.9999 44.0999L58.0999 48.1999C58.2999 48.3999 58.3999 48.6999 58.3999 48.9999C58.3999 49.2999 58.2999 49.5999 58.0999 49.7999C57.6999 50.1999 56.9999 50.1999 56.4999 49.7999L53.0999 46.3999L45.2999 54.1999L48.6999 57.5999C49.0999 57.9999 49.0999 58.6999 48.6999 59.1999C48.5999 59.3999 48.2999 59.4999 47.9999 59.4999ZM53.1999 44.5999C53.0999 44.5999 52.9999 44.5999 52.8999 44.6999L43.5999 53.9999C43.4999 54.0999 43.4999 54.1999 43.4999 54.2999C43.4999 54.3999 43.4999 54.4999 43.5999 54.5999L47.6999 58.6999C47.7999 58.7999 48.0999 58.7999 48.1999 58.6999C48.2999 58.5999 48.2999 58.4999 48.2999 58.3999C48.2999 58.2999 48.2999 58.1999 48.1999 58.0999L44.2999 54.1999L53.0999 45.3999L56.9999 49.2999C57.0999 49.3999 57.3999 49.3999 57.4999 49.2999C57.5999 49.1999 57.5999 48.8999 57.4999 48.7999L53.3999 44.6999C53.3999 44.5999 53.2999 44.5999 53.1999 44.5999Z" fill="currentColor"/>
<path d="M47.4999 42C47.2999 42 47.0999 41.9 46.9999 41.8L45.3999 40.2C45.0999 39.9 45.0999 39.4 45.3999 39.2C45.6999 38.9 46.1999 38.9 46.3999 39.2L47.9999 40.8C48.2999 41.1 48.2999 41.6 47.9999 41.8C47.8999 41.9 47.6999 42 47.4999 42Z" fill="currentColor"/>
<path d="M47.4999 42.4C47.1999 42.4 46.8999 42.3 46.6999 42.1L45.0999 40.5C44.8999 40.3 44.7999 40 44.7999 39.7C44.7999 39.4 44.8999 39.1 45.0999 38.9C45.4999 38.5 46.1999 38.5 46.6999 38.9L48.2999 40.5C48.6999 40.9 48.6999 41.6 48.2999 42.1C48.0999 42.3 47.7999 42.4 47.4999 42.4ZM45.8999 39.4C45.7999 39.4 45.6999 39.4 45.5999 39.5C45.4999 39.6 45.4999 39.7 45.4999 39.8C45.4999 39.9 45.4999 40 45.5999 40.1L47.1999 41.7C47.2999 41.8 47.5999 41.8 47.6999 41.7C47.7999 41.6 47.7999 41.3 47.6999 41.2L46.0999 39.6C46.0999 39.4 45.9999 39.4 45.8999 39.4Z" fill="currentColor"/>
<path d="M43.9 50.8C44.2866 50.8 44.5999 50.4866 44.5999 50.1C44.5999 49.7134 44.2866 49.4 43.9 49.4C43.5134 49.4 43.2 49.7134 43.2 50.1C43.2 50.4866 43.5134 50.8 43.9 50.8Z" fill="currentColor"/>
<path d="M43.8999 51.2C43.5999 51.2 43.2999 51.1 43.0999 50.9C42.6999 50.5 42.6999 49.8 43.0999 49.3C43.2999 49.1 43.5999 49 43.8999 49C44.1999 49 44.4999 49.1 44.6999 49.3C44.8999 49.5 44.9999 49.8 44.9999 50.1C44.9999 50.4 44.8999 50.7 44.6999 50.9C44.3999 51.1 44.1999 51.2 43.8999 51.2ZM43.8999 49.7C43.7999 49.7 43.6999 49.7 43.5999 49.8C43.4999 49.9 43.4999 50.2 43.5999 50.3C43.6999 50.4 43.9999 50.4 44.0999 50.3C44.1999 50.2 44.1999 50.1 44.1999 50C44.1999 49.9 44.1999 49.8 44.0999 49.7C44.0999 49.8 43.9999 49.7 43.8999 49.7Z" fill="currentColor"/>
<path d="M40.8 49.7999C40.6 49.7999 40.4 49.6999 40.3 49.5999L38.7 47.9999C37.9 48.3999 36.8 48.1999 36.2 47.5999L35.2 46.5999C34.9 46.2999 34.9 45.7999 35.2 45.5999C35.5 45.2999 36 45.2999 36.2 45.5999L37.2 46.5999C37.5 46.8999 38 46.8999 38.2 46.5999C38.5 46.2999 39 46.2999 39.2 46.5999L40.8 48.1999L47 41.9999L45.4 40.3999C45.1 40.0999 45.1 39.5999 45.4 39.3999C45.7 39.0999 46.2 39.0999 46.4 39.3999L48.5 41.4999C48.8 41.7999 48.8 42.2999 48.5 42.4999L41.2 49.7999C41.1 49.6999 40.9 49.7999 40.8 49.7999Z" fill="currentColor"/>
<path d="M40.8 50.2C40.5 50.2 40.2 50.1 40 49.9L38.5 48.4C37.6 48.7 36.5 48.5 35.8 47.8L34.8 46.8C34.4 46.4 34.4 45.7 34.8 45.2C35.2 44.8 35.9 44.8 36.4 45.2L37.4 46.2C37.5 46.3 37.6 46.3 37.7 46.3C37.8 46.3 37.9 46.3 37.9 46.2C38.3 45.8 39 45.8 39.5 46.2L40.8 47.5L46.5 41.8L45.2 40.5C45 40.3 44.9 40 44.9 39.7C44.9 39.4 45 39.1 45.2 38.9C45.6 38.5 46.3 38.5 46.8 38.9L48.9 41C49.1 41.2 49.2 41.5 49.2 41.8C49.2 42.1 49.1 42.4 48.9 42.6L41.6 49.9C41.3 50.1 41.1 50.2 40.8 50.2ZM38.7 47.5L40.5 49.3C40.6 49.4 40.9 49.4 41 49.3L48.3 42C48.4 41.9 48.4 41.6 48.3 41.5L46.2 39.4C46.1 39.3 45.8 39.3 45.7 39.4C45.6 39.5 45.6 39.6 45.6 39.7C45.6 39.8 45.6 39.9 45.7 40L47.5 41.8L40.7 48.6L38.9 46.8C38.8 46.7 38.5 46.7 38.4 46.8C38.2 46.9 38 47 37.7 47C37.4 47 37.1 46.9 36.9 46.7L35.9 45.7C35.8 45.6 35.5 45.6 35.4 45.7C35.3 45.8 35.3 46.1 35.4 46.2L36.4 47.2C36.9 47.7 37.8 47.9 38.5 47.6L38.7 47.5Z" fill="currentColor"/>
<path d="M46.4 40.9C46.2 40.9 46 40.8 45.9 40.7L44.9 39.7C44.7 39.5 44.6 39.2 44.7 38.9L45.6 36.2L45.4 36C45.1 35.7 45.1 35.2 45.4 35C45.7 34.7 46.2 34.7 46.4 35L46.9 35.5C47.1 35.7 47.2 36 47.1 36.3L46.3 39L47 39.7C47.3 40 47.3 40.5 47 40.7C46.8 40.9 46.6 40.9 46.4 40.9Z" fill="currentColor"/>
<path d="M46.4 41.3C46.1 41.3 45.8 41.2 45.6 41L44.6 40C44.3 39.7 44.2 39.3 44.3 38.9L45.1 36.4C44.9 36.2 44.8 35.9 44.8 35.6C44.8 35.3 44.9 35 45.1 34.8C45.5 34.4 46.2 34.4 46.7 34.8L47.2 35.3C47.5 35.6 47.6 36 47.5 36.4L46.7 38.9L47.2 39.4C47.6 39.8 47.6 40.5 47.2 41C47 41.2 46.7 41.3 46.4 41.3ZM45.9 35.2C45.8 35.2 45.7 35.2 45.6 35.3C45.5 35.4 45.5 35.5 45.5 35.6C45.5 35.7 45.5 35.8 45.6 35.9L46 36.3L45 39.2C45 39.3 45 39.5 45.1 39.6L46.1 40.6C46.2 40.7 46.5 40.7 46.6 40.6C46.7 40.5 46.7 40.2 46.6 40.1L45.8 39.3L46.8 36.4C46.8 36.3 46.8 36.1 46.7 36L46.2 35.5C46.1 35.3 46 35.2 45.9 35.2Z" fill="currentColor"/>
<path d="M22.1 31.0999C21.9 31.0999 21.7 30.9999 21.6 30.8999L13.8 23.0999C13.5 22.7999 13.5 22.2999 13.8 22.0999C14.1 21.7999 14.6 21.7999 14.8 22.0999L22.1 29.3999L30.4 21.0999L23.1 13.7999C22.8 13.4999 22.8 12.9999 23.1 12.7999C23.4 12.5999 23.9 12.4999 24.1 12.7999L31.9 20.5999C32.2 20.8999 32.2 21.3999 31.9 21.5999L22.6 30.8999C22.5 30.9999 22.3 31.0999 22.1 31.0999Z" fill="currentColor"/>
<path d="M22.1 31.5C21.8 31.5 21.5 31.4 21.3 31.2L13.5 23.4C13.3 23.2 13.2 22.9 13.2 22.6C13.2 22.3 13.3 22 13.5 21.8C13.9 21.4 14.6 21.4 15.1 21.8L22.1 28.8L29.9 21L22.9 14C22.7 13.8 22.6 13.5 22.6 13.2C22.6 12.9 22.7 12.6 22.9 12.4C23.3 12 24 12 24.5 12.4L32.2999 20.2C32.4999 20.4 32.5999 20.7 32.5999 21C32.5999 21.3 32.4999 21.6 32.2999 21.8L23 31.1C22.7 31.4 22.4 31.5 22.1 31.5ZM14.3 22.3C14.2 22.3 14.1 22.3 14 22.4C13.9 22.5 13.9 22.8 14 22.9L21.8 30.7C21.9 30.8 22.2 30.8 22.3 30.7L31.6 21.4C31.7 21.3 31.7 21 31.6 20.9L23.9 13C23.8 12.9 23.5 12.9 23.4 13C23.3 13.1 23.3 13.2 23.3 13.3C23.3 13.4 23.3 13.5 23.4 13.6L30.9 21.1L22.1 29.9L14.6 22.4C14.5 22.3 14.4 22.3 14.3 22.3Z" fill="currentColor"/>
<path d="M17.9 26.9999C17.7 26.9999 17.5 26.8999 17.4 26.7999L13.3 22.6999C13 22.3999 13 21.8999 13.3 21.6999C13.6 21.3999 14.1 21.3999 14.3 21.6999L17.9 25.2999L26.2 16.9999L22.6 13.3999C22.3 13.0999 22.3 12.5999 22.6 12.3999C22.9 12.0999 23.4 12.0999 23.6 12.3999L27.7 16.4999C28 16.7999 28 17.2999 27.7 17.4999L18.4 26.7999C18.3 26.8999 18.1 26.9999 17.9 26.9999Z" fill="currentColor"/>
<path d="M17.9 27.3C17.6 27.3 17.3 27.2 17.1 27L13 22.9C12.8 22.7 12.7 22.4 12.7 22.1C12.7 21.8 12.8 21.5 13 21.3C13.4 20.9 14.1 20.9 14.6 21.3L18 24.7L25.8 16.9L22.4 13.5C22 13.1 22 12.4 22.4 11.9C22.8 11.5 23.5 11.5 24 11.9L28.1 16C28.5 16.4 28.5 17.1 28.1 17.6L18.7 27C18.5 27.2 18.2 27.3 17.9 27.3ZM13.8 21.7C13.7 21.7 13.6 21.7 13.5 21.8C13.4 21.9 13.4 22 13.4 22.1C13.4 22.2 13.4 22.3 13.5 22.4L17.6 26.5C17.7 26.6 18 26.6 18.1 26.5L27.4 17.2C27.5 17.1 27.5 16.8 27.4 16.7L23.3 12.6C23.2 12.5 22.9 12.5 22.8 12.6C22.7 12.7 22.7 12.8 22.7 12.9C22.7 13 22.7 13.1 22.8 13.2L26.7 17.1L17.9 25.9L14 21.8C14 21.8 13.9 21.7 13.8 21.7Z" fill="currentColor"/>
<path d="M25.2 32.1999C25 32.1999 24.8 32.0999 24.7 31.9999L23.1 30.3999C22.8 30.0999 22.8 29.5999 23.1 29.3999C23.4 29.1999 23.9 29.0999 24.1 29.3999L25.7 30.9999C26 31.2999 26 31.7999 25.7 31.9999C25.6 32.0999 25.4 32.1999 25.2 32.1999Z" fill="currentColor"/>
<path d="M25.2 32.5C24.9 32.5 24.6 32.4 24.4 32.2L22.8 30.6C22.4 30.2 22.4 29.5 22.8 29C23.2 28.6 23.9 28.6 24.4 29L26 30.6C26.4 31 26.4 31.7 26 32.2C25.8 32.4 25.5 32.5 25.2 32.5ZM23.6 29.5C23.5 29.5 23.4 29.5 23.3 29.6C23.2 29.7 23.2 30 23.3 30.1L24.9 31.7C25 31.8 25.3 31.8 25.4 31.7C25.5 31.6 25.5 31.3 25.4 31.2L23.8 29.6C23.8 29.5 23.7 29.5 23.6 29.5Z" fill="currentColor"/>
<path d="M27.3 21.8C27.6866 21.8 28 21.4866 28 21.1C28 20.7134 27.6866 20.4 27.3 20.4C26.9134 20.4 26.6 20.7134 26.6 21.1C26.6 21.4866 26.9134 21.8 27.3 21.8Z" fill="currentColor"/>
<path d="M27.2999 22.2C26.9999 22.2 26.7 22.1 26.5 21.9C26.3 21.7 26.2 21.4 26.2 21.1C26.2 20.8 26.3 20.5 26.5 20.3C26.9 19.9 27.6 19.9 28.1 20.3C28.6 20.7 28.5 21.4 28.1 21.9C27.8 22.1 27.5999 22.2 27.2999 22.2ZM27.2999 20.7C27.1999 20.7 27.1 20.7 27 20.8C26.9 20.9 26.9 21 26.9 21.1C26.9 21.2 26.9 21.3 27 21.4C27.1 21.5 27.4 21.5 27.5 21.4C27.6 21.3 27.6 21 27.5 20.9C27.5 20.7 27.3999 20.7 27.2999 20.7Z" fill="currentColor"/>
<path d="M25.2 32.2C25 32.2 24.8 32.1 24.7 32L22.6 29.9C22.3 29.6 22.3 29.1 22.6 28.9L29.9 21.6C30.2 21.3 30.7 21.3 30.9 21.6L32.5 23.2C33.3 22.8 34.4 23 35 23.6L36 24.6C36.3 24.9 36.3 25.4 36 25.6C35.7 25.9 35.2 25.9 35 25.6L34 24.6C33.7 24.3 33.2 24.3 33 24.6C32.7 24.9 32.2 24.9 32 24.6L30.4 23L24.2 29.2L25.8 30.8C26.1 31.1 26.1 31.6 25.8 31.8C25.6 32.1 25.4 32.2 25.2 32.2Z" fill="currentColor"/>
<path d="M25.2 32.5C24.9 32.5 24.6 32.4 24.4 32.2L22.3 30.1C22.1 29.9 22 29.6 22 29.3C22 29 22.1 28.7 22.3 28.5L29.6 21.2C30 20.8 30.7 20.8 31.2 21.2L32.7 22.7C33.6 22.4 34.7 22.6 35.4 23.3L36.4 24.3C36.6 24.5 36.7 24.8 36.7 25.1C36.7 25.4 36.6 25.7 36.4 25.9C36 26.3 35.3 26.3 34.8 25.9L33.8 24.9C33.7 24.8 33.4 24.8 33.3 24.9C33.1 25.1 32.8 25.2 32.5 25.2C32.2 25.2 31.9 25.1 31.7 24.9L30.4 23.6L24.7 29.3L26 30.6C26.4 31 26.4 31.7 26 32.2C25.8 32.4 25.5 32.5 25.2 32.5ZM30.4 21.7C30.3 21.7 30.2 21.7 30.1 21.8L22.8 29.1C22.7 29.2 22.7 29.5 22.8 29.6L24.9 31.7C25 31.8 25.3 31.8 25.4 31.7C25.5 31.6 25.5 31.3 25.4 31.2L23.6 29.4L30.4 22.6L32.2 24.4C32.3 24.5 32.4 24.5 32.5 24.5C32.6 24.5 32.7 24.5 32.8 24.4C33.2 24 34 24 34.4 24.4L35.4 25.4C35.5 25.5 35.8 25.5 35.9 25.4C36 25.3 36 25 35.9 24.9L34.9 23.9C34.4 23.4 33.5 23.2 32.8 23.5L32.6 23.6L30.8 21.8C30.6 21.8 30.5 21.7 30.4 21.7Z" fill="currentColor"/>
<path d="M25.2 36.3C25 36.3 24.8 36.2 24.7 36.1L24.2 35.6C24 35.4 23.9 35.1 24 34.8L24.9 32.1L24.2 31.4C23.9 31.1 23.9 30.6 24.2 30.4C24.5 30.1 25 30.1 25.2 30.4L26.2 31.4C26.4 31.6 26.5 31.9 26.4 32.2L25.5 34.9001L25.7 35.1C26 35.4 26 35.9 25.7 36.1C25.6 36.2 25.4 36.3 25.2 36.3Z" fill="currentColor"/>
<path d="M25.2 36.7C24.9 36.7 24.6 36.6 24.4 36.4L23.9 35.9C23.6 35.6 23.5 35.2 23.6 34.8L24.4 32.3L23.9 31.8C23.5 31.4 23.5 30.7 23.9 30.2C24.3 29.8 25 29.8 25.5 30.2L26.5 31.2C26.8 31.5 26.9 31.9 26.8 32.3L26 34.8C26.4 35.2 26.4 35.9 26 36.4C25.8 36.6 25.5 36.7 25.2 36.7ZM24.7 30.6C24.6 30.6 24.5 30.6 24.4 30.7C24.3 30.8 24.3 31.1 24.4 31.2L25.2 32L24.2 34.9C24.2 35 24.2 35.2 24.3 35.3L24.8 35.8C24.9 35.9 25.2 35.9 25.3 35.8C25.4 35.7 25.4 35.4 25.3 35.3L25.1 35L26.1 32.1C26.1 32 26.1 31.8 26 31.7L25 30.7C24.9 30.6 24.8 30.6 24.7 30.6Z" fill="currentColor"/>
</g>
<defs>
<clipPath id="clip0">
<rect width="71.2" height="71.2" fill="white"/>
</clipPath>
</defs>
</svg>
