<svg width="47" height="47" viewBox="0 0 47 47" fill="none" xmlns="http://www.w3.org/2000/svg">
  <g id="stats_up">
    <path d="M46.36 44.17H1.45996V45.64H46.36V44.17Z" fill="currentColor" stroke="currentColor" stroke-miterlimit="10"/>
    <path d="M43.55 45.64H34.5701V22.56C34.5701 21.16 35.7901 19.99 37.2301 19.99H40.8101C42.2601 19.99 43.4701 21.17 43.4701 22.56V45.64H43.55ZM36.0901 44.17H41.9501V22.56C41.9501 21.97 41.4201 21.46 40.8101 21.46H37.2301C36.6201 21.46 36.0901 21.97 36.0901 22.56C36.0901 22.56 36.0901 44.17 36.0901 44.17Z" fill="currentColor" stroke="currentColor" stroke-miterlimit="10"/>
    <path d="M28.3999 45.64H19.4199V32.56C19.4199 31.16 20.6399 29.99 22.0799 29.99H25.6599C27.1099 29.99 28.3199 31.17 28.3199 32.56V45.64H28.3999ZM20.9399 44.17H26.7999V32.56C26.7999 31.97 26.2699 31.46 25.6599 31.46H22.0799C21.4699 31.46 20.9399 31.97 20.9399 32.56V44.17V44.17Z" fill="currentColor" stroke="currentColor" stroke-miterlimit="10"/>
    <path d="M4.43004 27.7C4.05004 27.7 3.75006 27.41 3.67006 27.04C3.59006 26.67 3.90006 26.3 4.35006 26.23C22.2401 24.17 33.58 16.82 41.11 2.41003C41.26 2.04003 41.7901 1.90002 42.1001 2.12002C42.4801 2.27002 42.63 2.78001 42.4 3.08001C34.72 17.78 22.62 25.65 4.43004 27.7Z" fill="currentColor" stroke="currentColor" stroke-miterlimit="10"/>
    <path d="M43.39 6.17004C43.09 6.17004 42.78 5.95003 42.71 5.66003L41.64 2.87003L38.75 3.83002C38.37 3.98002 37.91 3.76005 37.76 3.39005C37.61 3.02005 37.84 2.58002 38.22 2.43002L42.56 1.03003L44.08 5.15002C44.23 5.52002 44 5.96002 43.62 6.11002C43.62 6.17002 43.47 6.17004 43.39 6.17004Z" fill="currentColor" stroke="currentColor" stroke-miterlimit="10"/>
  </g>
</svg>
