<svg width="68" height="67" viewBox="0 0 68 67" fill="none" xmlns="http://www.w3.org/2000/svg">
<g>
<path d="M64.3 3.4H34.6V1.1C34.6 0.5 34.1 0 33.5 0C32.9 0 32.4 0.5 32.4 1.1V3.3H2.8C1.3 3.4 0 4.6 0 6.1C0 7.6 1.3 8.9 2.8 8.9H3.4V52.5C3.4 53.1 3.9 53.6 4.5 53.6H32.4V60L28.2 65.3C27.8 65.8 27.9 66.5 28.4 66.9C28.9 67.3 29.5 67.2 29.9 66.7L33.5 62.2L37.1 66.7C37.5 67.2 38.2 67.2 38.7 66.8C39.1 66.4 39.2 65.8 38.9 65.3L34.6 60V53.7H62.5C63.1 53.7 63.6 53.2 63.6 52.6V8.9H64.2C65.7 8.9 67 7.6 67 6.1C67 4.6 65.8 3.4 64.3 3.4ZM61.5 51.4H5.6V8.9H61.5V51.4ZM64.3 6.7H2.8C2.5 6.7 2.2 6.4 2.2 6.1C2.2 5.8 2.5 5.5 2.8 5.5H64.3C64.6 5.5 64.9 5.8 64.9 6.1C64.8 6.5 64.6 6.7 64.3 6.7Z" fill="currentColor"/>
<path d="M14.5 48.1C17 48.1 19 46.1 19 43.6C19 41.1 17 39.1 14.5 39.1C12 39.1 10 41.1 10 43.6C10 46.1 12.1 48.1 14.5 48.1ZM14.5 41.3C15.7 41.3 16.7 42.3 16.7 43.5C16.7 44.7 15.7 45.7 14.5 45.7C13.3 45.7 12.3 44.7 12.3 43.5C12.3 42.3 13.3 41.3 14.5 41.3Z" fill="currentColor"/>
<path d="M38 20.1C40.5 20.1 42.5 18.1 42.5 15.6C42.5 13.1 40.5 11.1 38 11.1C35.5 11.1 33.5 13.1 33.5 15.6C33.5 18.1 35.5 20.1 38 20.1ZM38 13.4C39.2 13.4 40.2 14.4 40.2 15.6C40.2 16.8 39.2 17.8 38 17.8C36.8 17.8 35.8 16.8 35.8 15.6C35.8 14.4 36.8 13.4 38 13.4Z" fill="currentColor"/>
<path d="M20.1001 40.2001C20.1001 40.8001 20.6001 41.3 21.2001 41.3C21.4001 41.3 36.1001 41.1 38.7001 26.2001L39.0001 26.6C39.4001 27.1 40.1001 27.2 40.6001 26.8C41.1001 26.4 41.2001 25.7001 40.8001 25.2001L38.8001 22.7001C38.7001 22.6001 38.7001 22.6 38.6001 22.5C38.6001 22.5 38.5001 22.4 38.4001 22.4H38.2001C38.1001 22.4 38.0001 22.3 37.9001 22.3C37.8001 22.3 37.8001 22.3 37.7001 22.3C37.5001 22.3 37.4001 22.3 37.3001 22.4C37.2001 22.4 37.2001 22.4 37.2001 22.5L34.7001 24.4C34.2001 24.8 34.1001 25.5 34.5001 26C34.9001 26.5 35.6001 26.6001 36.1001 26.2001L36.4001 25.9C34.1001 38.7 21.6001 38.9001 21.1001 38.9001C20.6001 39.1001 20.1001 39.6001 20.1001 40.2001Z" fill="currentColor"/>
<path d="M41.5001 38.2C41.1001 38.6 41.1001 39.3 41.5001 39.8L43.1001 41.4L41.5001 43C41.0001 43.4 41.0001 44.1 41.4001 44.6C41.8001 45.1 42.5001 45.1 43.0001 44.7L43.1001 44.6L44.7001 43L46.3001 44.6C46.8001 45 47.5001 44.9 47.9001 44.5C48.3001 44.1 48.3001 43.5 47.9001 43L46.3001 41.4L47.9001 39.8C48.3001 39.3 48.2001 38.6 47.8001 38.2C47.4001 37.8 46.8001 37.8 46.3001 38.2L44.7001 39.8L43.1001 38.2C42.7001 37.8 42.0001 37.7 41.5001 38.2Z" fill="currentColor"/>
<path d="M17 26.6C17.4 27 18.1 27 18.6 26.6L20.2 25L21.8 26.6C22.3 27 23 26.9 23.4 26.5C23.8 26.1 23.8 25.5 23.4 25L21.8 23.4L23.4 21.8C23.8 21.3 23.7 20.6 23.3 20.2C22.9 19.8 22.3 19.8 21.8 20.2L20.2 21.8L18.6 20.2C18.1 19.8 17.4 19.9 17 20.3C16.6 20.7 16.6 21.3 17 21.8L18.6 23.4L17 25C16.5 25.5 16.5 26.2 17 26.6C17 26.6 16.9 26.6 17 26.6Z" fill="currentColor"/>
<path d="M49.3999 26.6C49.7999 27 50.4999 27 50.9999 26.6L52.5999 25L54.1999 26.6C54.6999 27 55.3999 26.9 55.7999 26.5C56.1999 26.1 56.1999 25.5 55.7999 25L54.1999 23.4L55.7999 21.8C56.1999 21.3 56.0999 20.6 55.6999 20.2C55.2999 19.8 54.6999 19.8 54.1999 20.2L52.5999 21.8L50.9999 20.2C50.4999 19.8 49.7999 19.9 49.3999 20.3C48.9999 20.7 48.9999 21.3 49.3999 21.8L50.9999 23.4L49.3999 25C48.8999 25.5 48.8999 26.2 49.3999 26.6Z" fill="currentColor"/>
</g>
</svg>
