<svg width="84" height="57" viewBox="0 0 84 57" fill="none" xmlns="http://www.w3.org/2000/svg">
  <g id="stretch">
    <path d="M8.04004 14.2747C8.22004 14.3647 8.41003 14.4147 8.59003 14.4147C9.03003 14.4147 9.45003 14.1747 9.66003 13.7647C9.97003 13.1747 9.74001 12.4447 9.14001 12.1347C7.85001 11.4647 6.93004 10.3347 6.54004 8.94466C5.78004 6.21466 7.38005 3.36466 10.11 2.60466C11.67 2.16466 13.3 2.47467 14.59 3.45467C15.12 3.85467 15.88 3.74468 16.28 3.21468C16.68 2.68468 16.57 1.92467 16.04 1.52467C14.14 0.0946742 11.74 -0.355316 9.46002 0.284684C5.45002 1.40468 3.09003 5.58466 4.22003 9.60466C4.80003 11.6047 6.18004 13.3147 8.04004 14.2747ZM82.74 52.0647H73.75L46.26 44.7047C42.41 43.7847 39.01 42.0447 35.71 40.3647C29.88 37.3947 24.37 34.5847 17.7 37.0247C17.07 37.2547 16.75 37.9447 16.98 38.5747C17.21 39.2047 17.9 39.5247 18.53 39.2947C24.22 37.2247 29.04 39.6747 34.62 42.5247C38.04 44.2647 41.58 46.0747 45.67 47.0547L64.42 52.0747H29.35C24.18 52.0747 18.76 50.2647 14.24 47.0947V21.5947C14.24 20.9247 13.7 20.3847 13.03 20.3847C12.36 20.3847 11.82 20.9247 11.82 21.5947V45.1747C7.06001 40.9547 3.79004 35.0247 3.79004 28.0547C3.79004 22.7947 5.62003 20.1247 9.22003 20.1247C9.89003 20.1247 10.43 19.5847 10.43 18.9147C10.43 18.2447 9.89003 17.7047 9.22003 17.7047C6.29003 17.7047 1.38 19.0447 1.38 28.0447C1.38 36.5047 5.73002 43.5647 11.83 48.2547V53.7047H1.73999C1.06999 53.7047 0.530029 54.2447 0.530029 54.9147C0.530029 55.5847 1.06999 56.1247 1.73999 56.1247H14.25V49.9447C18.88 52.8447 24.23 54.4847 29.36 54.4847H73.6C73.67 54.4847 73.73 54.4547 73.79 54.4447L82.75 54.4847C83.42 54.4847 83.96 53.9447 83.96 53.2747C83.95 52.6047 83.4 52.0647 82.74 52.0647Z" fill="currentColor"/>
  </g>

</svg>
