<svg viewBox="0 0 51 51" fill="none" xmlns="http://www.w3.org/2000/svg">
  <g id="trauma">
    <path d="M25.9436 26.7214C23.8966 26.0158 22.1631 24.6221 21.0394 22.7754L18.8879 19.2475C18.4959 18.6029 18.6962 17.7667 19.3408 17.366C19.4192 17.3224 19.4976 17.2789 19.576 17.2527C19.7328 17.1917 19.8983 17.1656 20.0638 17.1656C20.5603 17.1656 21.022 17.4357 21.2746 17.8712C21.8582 18.8729 22.6074 20.1447 23.1823 21.1203C23.6614 21.9217 24.698 22.1917 25.5081 21.7126C25.8304 21.521 26.0743 21.2336 26.2136 20.8938L30.4645 10.406C30.6474 9.96178 31.1526 9.74401 31.5969 9.91823C31.7014 9.96178 31.7885 10.0228 31.8669 10.0924C32.1108 10.3276 32.2067 10.6848 32.0934 11.0071L26.7972 26.9566L25.9436 26.7214ZM33.5481 35.3625L34.0098 44.1952C34.0708 45.5889 34.9941 46.7998 36.3181 47.2353L39.0882 48.1586C39.1579 48.1848 39.2014 48.2632 39.1753 48.3328C39.1579 48.3938 39.1056 48.4287 39.0446 48.4287H32.9906C32.5812 48.4287 32.2241 48.1325 32.1544 47.7231L30.0812 35.2928C29.8809 34.0646 28.8182 33.1674 27.5725 33.1674H14.0098C11.6579 33.1674 9.7502 31.2597 9.7502 28.8991C9.7502 28.6464 9.77635 28.3938 9.8199 28.1499C10.2206 26.8433 10.5168 25.5193 10.7955 24.2475C11.2049 21.8782 11.9453 19.5785 12.9906 17.4182C12.9906 17.4182 13.0342 17.3485 13.0342 17.3398C15.1248 13.5855 19.2624 11.4687 23.5307 11.9653L24.1579 12.0262C24.5325 13.4461 25.3687 14.7005 26.5185 15.6064L24.637 20.2579C24.0621 19.291 23.3217 18.028 22.738 17.0262C21.9889 15.7109 20.3948 15.136 18.9837 15.6673C17.3983 16.251 16.5882 18.0106 17.1805 19.5959C17.2502 19.7789 17.3373 19.9618 17.4418 20.1273L19.5934 23.6552C20.0116 24.3346 20.5081 24.9705 21.0656 25.5367L18.1474 25.5977L18.1822 27.2963L21.1875 27.2353C21.2659 27.2353 21.3443 27.244 21.4227 27.2614L25.4471 28.3329L25.5081 28.359L26.2659 28.6116C26.4401 28.6639 26.623 28.6987 26.806 28.6987H26.8147L28.5394 29.1604C31.3704 29.9182 33.4 32.4182 33.5481 35.3625ZM24.785 37.4008H1.9192V34.8573H24.785V37.4008ZM23.0952 48.42H22.2502V39.0994H23.0952V48.42ZM4.46274 48.42H3.61781V39.0994H4.46274V48.42ZM3.61781 30.6238H4.46274V33.1674H3.61781V30.6238ZM1.9192 8.58548H6.15263V28.9252H1.9192V8.58548ZM30.7171 5.19698C33.5133 5.18827 35.7955 7.45307 35.7955 10.2579C35.8042 12.3573 34.515 14.2388 32.5638 14.9966L33.7136 11.5297C34.1753 10.1883 33.461 8.72484 32.1195 8.26317C30.8216 7.81892 29.4018 8.47224 28.8966 9.74402L27.2067 13.9252C25.1858 11.9914 25.1074 8.77711 27.0412 6.7562C27.9994 5.76317 29.3234 5.19698 30.7171 5.19698ZM37.4854 10.2841C37.4854 6.53844 34.454 3.50708 30.7084 3.50708C26.9627 3.50708 23.9314 6.54715 23.9314 10.2841V10.2928L23.7049 10.2667C18.7659 9.70916 13.9662 12.1743 11.5533 16.521L11.5098 16.6081C10.3861 18.9078 9.5934 21.3555 9.14915 23.8729C8.87041 25.136 8.58297 26.4339 8.19098 27.6883C8.18227 27.7144 8.17354 27.7492 8.16483 27.7754C7.79026 29.7353 8.42615 31.7649 9.85472 33.1586H6.14397V30.6151H6.98889C7.45927 30.6151 7.83386 30.2318 7.83386 29.7701V7.73181C7.83386 7.26143 7.45056 6.88687 6.98889 6.88687H1.05684C0.586453 6.88687 0.211914 7.27014 0.211914 7.73181V29.7701C0.211914 30.2405 0.595164 30.6151 1.05684 30.6151H1.90181V33.1586H1.05684C0.586453 33.1586 0.211914 33.5419 0.211914 34.0036V38.237C0.211914 38.7074 0.595164 39.082 1.05684 39.082H1.90181V49.2475C1.90181 49.7179 2.28506 50.0924 2.74673 50.0924H5.29027C5.76066 50.0924 6.13525 49.7092 6.13525 49.2475V39.082H20.5342V49.2475C20.5342 49.7179 20.9175 50.0924 21.3791 50.0924H23.9227C24.3931 50.0924 24.7677 49.7092 24.7677 49.2475V39.082H25.6126C26.083 39.082 26.4575 38.6987 26.4575 38.237V34.8485H27.5638C27.9732 34.8485 28.3304 35.1447 28.4001 35.5541L30.4732 47.9757C30.6736 49.2039 31.7363 50.1012 32.9819 50.1012H39.0359C40.0464 50.1012 40.8652 49.2823 40.8652 48.2719C40.8652 47.4879 40.36 46.7823 39.6108 46.5384L36.8495 45.6151C36.1875 45.3973 35.7258 44.7963 35.691 44.0994L35.2293 35.2666C35.0464 31.5994 32.5029 28.4635 28.9576 27.5227L28.4436 27.3834L31.9105 16.9478C35.1509 16.3816 37.5028 13.5681 37.4854 10.2841Z" fill="currentColor"/>
    <path d="M37.4854 20.4496H48.4959V24.683H37.4854V20.4496ZM48.4959 18.7597H36.6405C36.1701 18.7597 35.7955 19.143 35.7955 19.6046V25.5367C35.7955 26.0071 36.1788 26.3816 36.6405 26.3816H41.7189V50.1099H43.4088V26.3816H48.4872V50.1099H50.1771V0.109863H48.4872V18.7597H48.4959Z" fill="currentColor"/>
  </g>
</svg>
