<svg width="79" height="64" viewBox="0 0 79 64" fill="none" xmlns="http://www.w3.org/2000/svg">
  <g id="videoconference">
    <path d="M75.7901 19.02C77.2601 18.62 78.2701 17.3 78.2801 15.78V3.37C78.2801 1.51 76.7801 0.01 74.9201 0H37.6601C35.8001 0 34.2901 1.51 34.2901 3.37V7.78H5.76007C4.33007 7.78 3.17007 8.94 3.17007 10.37V53.16H0.580078V60.94C0.580078 62.37 1.74007 63.53 3.17007 63.53H75.7901C77.2201 63.53 78.3801 62.37 78.3801 60.94V53.16H75.7901V19.02V19.02ZM36.8801 3.37C36.8801 2.94 37.2301 2.59 37.6601 2.59H74.9201C75.3401 2.59 75.6901 2.93 75.6901 3.36V3.37V15.78C75.7001 16.2 75.3601 16.55 74.9401 16.56H74.9301H50.1601C49.8201 16.56 49.4901 16.67 49.2301 16.88L43.0601 23.1L42.9801 18.02C42.9501 17.21 42.2901 16.56 41.4801 16.55H37.6801C37.2501 16.55 36.9001 16.2 36.9001 15.77V3.37H36.8801ZM40.7701 47.98C40.2701 42.58 36.7501 37.93 31.6901 35.98C35.8001 33.12 36.8201 27.46 33.9501 23.34C31.0801 19.22 25.4301 18.21 21.3101 21.08C17.2001 23.94 16.1801 29.6 19.0501 33.72C19.6601 34.6 20.4301 35.37 21.3101 35.98C16.2501 37.93 12.7301 42.58 12.2301 47.98H9.64008V15.56H34.2801V15.78C34.2801 17.64 35.7901 19.15 37.6501 19.15H40.3701L40.4701 25.76C40.4901 26.32 40.8201 26.82 41.3301 27.06C41.5301 27.16 41.7501 27.22 41.9801 27.22C42.3101 27.22 42.6201 27.11 42.8901 26.92L50.5901 19.14H69.2901V47.98H40.7701ZM20.0201 28.52C20.0201 24.94 22.9201 22.04 26.5001 22.04C30.0801 22.04 32.9801 24.94 32.9801 28.52C32.9801 32.1 30.0801 35 26.5001 35C22.9301 35.01 20.0201 32.11 20.0201 28.52ZM38.1001 47.98H14.9101C15.6501 41.58 21.4501 36.99 27.8501 37.73C33.2301 38.35 37.4801 42.6 38.1001 47.98ZM5.76007 10.37H34.2901V12.96H7.06009V50.57H71.9001V19.15H73.2001V53.17H5.77008V10.37H5.76007ZM47.2601 57.05H31.7001V55.75H47.2601V57.05ZM75.7901 55.76V60.95H3.17007V55.76H29.1101V57.06C29.1101 58.49 30.2701 59.65 31.7001 59.65H47.2601C48.6901 59.65 49.8501 58.49 49.8501 57.06V55.76H75.7901Z" fill="currentColor"/>
    <path d="M73.1901 57.05H70.6001V59.6401H73.1901V57.05Z" fill="currentColor"/>
    <path d="M68.0002 57.05H65.4102V59.6401H68.0002V57.05Z" fill="currentColor"/>
    <path d="M62.8102 57.05H60.2202V59.6401H62.8102V57.05Z" fill="currentColor"/>
    <path d="M12.24 57.05H7.04999C6.32999 57.05 5.75 57.6301 5.75 58.3501C5.75 59.0701 6.32999 59.6501 7.04999 59.6501H12.24C12.96 59.6501 13.54 59.0701 13.54 58.3501C13.54 57.6301 12.96 57.05 12.24 57.05Z" fill="currentColor"/>
    <path d="M64.1201 24.63H51.1501V27.22H64.1201V24.63Z" fill="currentColor"/>
    <path d="M66.7101 32.42H48.55V35.01H66.7101V32.42Z" fill="currentColor"/>
    <path d="M66.7101 40.2H48.55V42.7899H66.7101V40.2Z" fill="currentColor"/>
    <path d="M45.9601 12.9599C48.1101 12.9599 49.8501 11.2199 49.8501 9.06995C49.8501 6.91995 48.1101 5.17993 45.9601 5.17993C43.8101 5.17993 42.0701 6.91995 42.0701 9.06995C42.0701 11.2199 43.8101 12.9599 45.9601 12.9599ZM45.9601 7.77994C46.6801 7.77994 47.26 8.35994 47.26 9.07994C47.26 9.79994 46.6801 10.3799 45.9601 10.3799C45.2401 10.3799 44.6601 9.79994 44.6601 9.07994C44.6601 8.35994 45.2401 7.77994 45.9601 7.77994Z" fill="currentColor"/>
    <path d="M56.3302 12.9599C58.4802 12.9599 60.2202 11.2199 60.2202 9.06995C60.2202 6.91995 58.4802 5.17993 56.3302 5.17993C54.1802 5.17993 52.4402 6.91995 52.4402 9.06995C52.4402 11.2199 54.1902 12.9599 56.3302 12.9599ZM56.3302 7.77994C57.0502 7.77994 57.6302 8.35994 57.6302 9.07994C57.6302 9.79994 57.0502 10.3799 56.3302 10.3799C55.6102 10.3799 55.0302 9.79994 55.0302 9.07994C55.0402 8.35994 55.6202 7.77994 56.3302 7.77994Z" fill="currentColor"/>
    <path d="M66.7101 12.9599C68.8601 12.9599 70.6001 11.2199 70.6001 9.06995C70.6001 6.91995 68.8601 5.17993 66.7101 5.17993C64.5601 5.17993 62.8201 6.91995 62.8201 9.06995C62.8201 11.2199 64.5601 12.9599 66.7101 12.9599ZM66.7101 7.77994C67.4301 7.77994 68.01 8.35994 68.01 9.07994C68.01 9.79994 67.4301 10.3799 66.7101 10.3799C65.9901 10.3799 65.4101 9.79994 65.4101 9.07994C65.4101 8.35994 65.9901 7.77994 66.7101 7.77994Z" fill="currentColor"/>
  </g>
</svg>
