<svg width="56" height="56" viewBox="0 0 56 56" fill="none" xmlns="http://www.w3.org/2000/svg">
<path d="M51.0199 0H4.97998C2.23998 0 0 2.23998 0 4.97998V51.02C0 53.76 2.23998 56 4.97998 56H51.0199C53.7599 56 56 53.76 56 51.02V4.97998C56 2.23998 53.7599 0 51.0199 0ZM2.48999 8.71002H53.51V41.07H2.48999V8.71002ZM4.97998 2.48999H51.0199C52.3899 2.48999 53.51 3.60998 53.51 4.97998V6.22003H2.48999V4.97998C2.48999 3.60998 3.60998 2.48999 4.97998 2.48999ZM51.0199 53.51H4.97998C3.60998 53.51 2.48999 52.39 2.48999 51.02V43.55H53.51V51.02C53.51 52.39 52.3899 53.51 51.0199 53.51ZM37.33 48.53C37.33 49.21 36.77 49.77 36.09 49.77H7.46997C6.78997 49.77 6.22998 49.21 6.22998 48.53C6.22998 47.85 6.78997 47.29 7.46997 47.29H36.09C36.77 47.29 37.33 47.85 37.33 48.53ZM49.7799 48.28C49.7799 48.34 49.7799 48.47 49.7799 48.53C49.7799 48.72 49.7799 48.84 49.6599 49.03C49.5999 49.15 49.5399 49.34 49.4099 49.4C49.3499 49.46 49.29 49.52 49.22 49.59C49.16 49.65 49.0999 49.65 49.0299 49.71C48.9699 49.71 48.9099 49.77 48.7799 49.77C48.7199 49.77 48.5899 49.77 48.5299 49.77C48.2199 49.77 47.9099 49.65 47.6599 49.4C47.5399 49.28 47.4699 49.15 47.4099 49.03C47.2899 48.84 47.2899 48.72 47.2899 48.53C47.2899 48.47 47.2899 48.34 47.2899 48.28C47.2899 48.22 47.35 48.09 47.35 48.03C47.41 47.97 47.41 47.91 47.47 47.84C47.53 47.78 47.59 47.72 47.59 47.65C47.65 47.59 47.7099 47.53 47.7799 47.53C47.8399 47.47 47.9 47.47 47.97 47.41C48.03 47.41 48.09 47.35 48.22 47.35C48.66 47.29 49.03 47.41 49.34 47.66C49.4 47.72 49.46 47.78 49.46 47.85C49.52 47.91 49.52 47.97 49.58 48.04C49.65 48.1 49.7199 48.22 49.7799 48.28ZM43.1799 47.66C43.4299 47.91 43.5499 48.22 43.5499 48.53C43.5499 48.72 43.5499 48.84 43.4299 49.03C43.3699 49.15 43.3099 49.34 43.1799 49.4C42.9299 49.65 42.6199 49.77 42.3099 49.77C42.2499 49.77 42.1199 49.77 42.0599 49.77C41.9999 49.77 41.8699 49.71 41.8099 49.71C41.7499 49.71 41.69 49.65 41.62 49.59C41.56 49.53 41.4999 49.47 41.4299 49.4C41.3099 49.28 41.2399 49.15 41.1799 49.03C41.0599 48.84 41.0599 48.72 41.0599 48.53C41.0599 48.47 41.0599 48.34 41.0599 48.28C41.0599 48.22 41.12 48.09 41.12 48.03C41.18 47.97 41.18 47.91 41.24 47.84C41.3 47.78 41.36 47.72 41.36 47.65C41.88 47.16 42.7499 47.16 43.1799 47.66ZM36.7699 23.83L21.84 14.5C21.47 14.25 20.97 14.25 20.6 14.44C20.23 14.69 19.98 15.06 19.98 15.5V34.17C19.98 34.61 20.23 35.04 20.6 35.23C20.79 35.35 20.97 35.42 21.22 35.42C21.47 35.42 21.6599 35.36 21.8999 35.23L36.83 25.9C37.2 25.65 37.3899 25.28 37.3899 24.84C37.3899 24.4 37.0799 24.08 36.7699 23.83ZM22.3999 31.98V17.79L33.72 24.88L22.3999 31.98Z" fill="#EDC06D"/>
</svg>
