<svg viewBox="0 0 59 59" fill="none" xmlns="http://www.w3.org/2000/svg">
  <g id="warranty">
    <path d="M27.0325 27.8225C26.4025 27.8225 25.8525 27.2725 25.8525 26.6425V22.7025C25.8525 22.0725 26.4025 21.5225 27.0325 21.5225C27.6625 21.5225 28.2125 22.0725 28.2125 22.7025V26.6425C28.2125 27.2725 27.6625 27.8225 27.0325 27.8225Z" fill="currentColor" stroke="currentColor" stroke-width="0.5" stroke-miterlimit="10"/>
    <path d="M32.5425 27.8225C31.9125 27.8225 31.3625 27.2725 31.3625 26.6425V22.7025C31.3625 22.0725 31.9125 21.5225 32.5425 21.5225C33.1725 21.5225 33.7225 22.0725 33.7225 22.7025V26.6425C33.7325 27.2725 33.1725 27.8225 32.5425 27.8225Z" fill="currentColor" stroke="currentColor" stroke-width="0.5" stroke-miterlimit="10"/>
    <path d="M29.7923 38.0625C26.9523 38.0625 24.2824 36.9625 22.2324 34.9125C21.7624 34.4425 21.7624 33.7325 22.2324 33.2625C22.7024 32.7925 23.4124 32.7925 23.8824 33.2625C25.4624 34.8425 27.5023 35.7025 29.7923 35.7025C32.7023 35.7025 35.3824 34.1225 36.8824 31.6825C37.3524 30.8125 37.7523 30.1025 37.9023 29.1625C38.0623 28.5325 38.6124 28.0625 39.2424 28.2125C39.8724 28.3625 40.3423 28.9225 40.1923 29.5525C39.9523 30.8125 39.4824 31.7625 38.8524 32.7825C37.0324 36.0925 33.4923 38.0625 29.7923 38.0625Z" fill="currentColor" stroke="currentColor" stroke-width="0.5" stroke-miterlimit="10"/>
    <path d="M58.2225 29.0025L54.3625 24.9025L56.4124 19.6225C56.6524 19.0725 56.3324 18.3625 55.7824 18.1225L50.6624 15.8425L50.5025 10.2525C50.5025 9.62252 49.9525 9.15253 49.3225 9.07253L43.7325 8.9125L41.4525 3.7925C41.2125 3.2425 40.5025 2.9225 39.9525 3.1625L34.6724 5.21249L30.5725 1.3525C30.1025 0.8825 29.3924 0.8825 28.9224 1.3525L24.8225 5.21249L19.5424 3.1625C18.9924 2.9225 18.2824 3.2425 18.0424 3.7925L15.7625 8.9125L10.1724 9.07253C9.54245 9.07253 9.07251 9.62252 8.99251 10.2525L8.83248 15.8425L3.71249 18.1225C3.16249 18.3625 2.84248 19.0725 3.08248 19.6225L5.13253 24.9025L1.3525 29.0025C0.8825 29.4725 0.8825 30.1825 1.3525 30.6525L5.21249 34.7525L3.16244 40.0325C2.92244 40.5825 3.24244 41.2925 3.79244 41.5325L8.91244 43.8125L9.07247 49.4025C9.07247 50.0325 9.62252 50.5025 10.2525 50.5825L15.8425 50.7425L18.1225 55.8625C18.3625 56.4125 19.0725 56.7325 19.6225 56.4925L24.9024 54.4425L29.0025 58.3025C29.2425 58.5425 29.5524 58.6225 29.7924 58.6225C30.0324 58.6225 30.3425 58.5425 30.5825 58.3025L34.6825 54.4425L39.9625 56.4925C40.5125 56.7325 41.0625 56.4925 41.3825 56.0225L58.4024 30.5825C58.6224 29.9525 58.6225 29.4025 58.2225 29.0025ZM42.0825 50.5925L41.2125 47.8325L44.2824 44.9925C44.6024 44.7525 44.7524 44.2825 44.6724 43.8925L43.8025 38.6925L48.9224 37.5125C49.3124 37.4325 49.6324 37.1225 49.7924 36.7225L51.2125 32.7825L54.1225 32.5425L42.0825 50.5925ZM39.8725 53.8225L34.8325 51.8525C34.4425 51.6925 33.8825 51.7725 33.5725 52.0925L29.7924 55.7125L26.0125 52.0925C25.7725 51.8525 25.4625 51.7725 25.2225 51.7725C25.0625 51.7725 24.9025 51.7725 24.8325 51.8525L19.9525 53.7425L17.8225 48.9325C17.6625 48.5425 17.1925 48.2225 16.8025 48.2225L11.5224 48.0625L11.3625 42.7825C11.3625 42.3125 11.0424 41.9125 10.6524 41.7625L5.84249 39.6325L7.7325 34.7525C7.8925 34.3625 7.81251 33.8025 7.49251 33.4925L3.87252 29.7925L7.49251 26.0125C7.81251 25.6925 7.8825 25.2225 7.7325 24.7525L5.84249 19.8725L10.6524 17.7425C11.0424 17.5825 11.3625 17.1125 11.3625 16.7225L11.5224 11.4425L16.8025 11.2825C17.2725 11.2825 17.6725 10.9625 17.8225 10.5725L19.9525 5.76253L24.8325 7.65249C25.2225 7.81249 25.7825 7.7325 26.0925 7.4125L29.8725 3.7925L33.6524 7.4125C33.9724 7.7325 34.4424 7.80249 34.9124 7.65249L39.7924 5.76253L41.9224 10.5725C42.0824 10.9625 42.5525 11.2825 42.9425 11.2825L48.2225 11.4425L48.3825 16.7225C48.3825 17.1925 48.7025 17.5925 49.0925 17.7425L53.9024 19.8725L51.8525 24.7525C51.6925 25.1425 51.7725 25.7025 52.0925 26.0125L55.7924 29.9525L55.7125 30.1125L50.2025 30.5825C49.7325 30.6625 49.3325 30.9025 49.1825 31.3725L47.6825 35.4725L42.0925 36.7325C41.4625 36.8925 41.0725 37.4425 41.2225 38.0725L42.1724 43.7425L39.0224 46.6525C38.7024 46.9725 38.5525 47.4425 38.7025 47.9125L40.4325 53.1925L39.8725 53.8225Z" fill="currentColor" stroke="currentColor" stroke-width="0.5" stroke-miterlimit="10"/>
  </g>
</svg>
