<svg viewBox="0 0 61 67" fill="none" xmlns="http://www.w3.org/2000/svg">
  <g id="weekly_news">
    <path d="M25.0001 12.1H5.6001V23.8H25.0001V12.1ZM23.5001 22.3H7.1001V13.6H23.5001V22.3Z" fill="currentColor" stroke="currentColor" stroke-width="0.5" stroke-miterlimit="10"/>
    <path d="M16.6998 30.1H5.7998V31.6H16.6998V30.1Z" fill="currentColor" stroke="currentColor" stroke-width="0.5" stroke-miterlimit="10"/>
    <path d="M20.6998 36.4H5.7998V37.9H20.6998V36.4Z" fill="currentColor" stroke="currentColor" stroke-width="0.5" stroke-miterlimit="10"/>
    <path d="M24.2998 42.7H5.7998V44.2H24.2998V42.7Z" fill="currentColor" stroke="currentColor" stroke-width="0.5" stroke-miterlimit="10"/>
    <path d="M21.1001 49H19.6001V50.5H21.1001V49Z" fill="currentColor" stroke="currentColor" stroke-width="0.5" stroke-miterlimit="10"/>
    <path d="M17.6001 49H16.1001V50.5H17.6001V49Z" fill="currentColor" stroke="currentColor" stroke-width="0.5" stroke-miterlimit="10"/>
    <path d="M24.5 49H23V50.5H24.5V49Z" fill="currentColor" stroke="currentColor" stroke-width="0.5" stroke-miterlimit="10"/>
    <path d="M7.2998 49H5.7998V50.5H7.2998V49Z" fill="currentColor" stroke="currentColor" stroke-width="0.5" stroke-miterlimit="10"/>
    <path d="M10.7002 49H9.2002V50.5H10.7002V49Z" fill="currentColor" stroke="currentColor" stroke-width="0.5" stroke-miterlimit="10"/>
    <path d="M31.5 49H30V50.5H31.5V49Z" fill="currentColor" stroke="currentColor" stroke-width="0.5" stroke-miterlimit="10"/>
    <path d="M14.2002 49H12.7002V50.5H14.2002V49Z" fill="currentColor" stroke="currentColor" stroke-width="0.5" stroke-miterlimit="10"/>
    <path d="M28 49H26.5V50.5H28V49Z" fill="currentColor" stroke="currentColor" stroke-width="0.5" stroke-miterlimit="10"/>
    <path d="M60.2001 56.9V56.2H51.8V45.3H57.3C57.7 45.3 58 45 58 44.6V25.7C58 25.5 57.9001 25.3 57.7001 25.1L51.7001 19.9V5.70001L46.9 1L42.8 5L38.7001 1L34.6 5L30.5 1L26.4 5L22.3 1L18.1 5L14 1L9.90002 5L5.80005 1L1 5.70001V58.6C1 62.6 4.30005 65.9 8.30005 65.9C8.30005 65.9 8.30002 65.9 8.40002 65.9H9.20007H51H53.9C57.5 65.9 60.2001 63 60.2001 59.2C60.2001 58.6 60.2001 56.9 60.2001 56.9ZM56.5 42.9L47.1 34.5L56.5 27.2V42.9ZM30.2001 26.4H55.1L45.7001 33.7H39.5L30.2001 26.4ZM30 24.9L42.6 13.9L55.2001 24.9H30ZM28.8 27.2L38.2001 34.5L28.8 42.9V27.2ZM39.5 35.2H45.6L55.2001 43.8H30L39.5 35.2ZM8.30005 64.5C5.10005 64.5 2.5 61.9 2.5 58.7V6.39999L5.90002 3.10001L10 7.10001L14.1 3.10001L18.2001 7.10001L22.3 3.10001L26.4 7.10001L30.5 3.10001L34.6 7.10001L38.7001 3.10001L42.8 7.10001L46.9 3.10001L50.3 6.39999V18.7L43.1 12.4C42.8 12.2 42.4 12.2 42.1 12.4L27.5 25.1C27.3 25.2 27.2001 25.4 27.2001 25.7V44.6C27.2001 45 27.5 45.3 27.9 45.3H50.1V56.2H14.9L13.8 56.4L14 57.2C14.1 57.6 14.2001 58.3 14.2001 58.7C14.1001 61.9 11.5 64.5 8.30005 64.5ZM53.9 64.5H12.7001C14.5001 63.2 15.6 61 15.6 58.6C15.6 58.3 15.6 58 15.5 57.6H58.7001C58.7001 58.1 58.7001 58.8 58.7001 59.2C58.7001 62.3 56.7 64.5 53.9 64.5Z" fill="currentColor" stroke="currentColor" stroke-width="0.5" stroke-miterlimit="10"/>
    <path d="M41.7002 40.6H40.2002V42.1H41.7002V40.6Z" fill="currentColor" stroke="currentColor" stroke-width="0.5" stroke-miterlimit="10"/>
    <path d="M44.8999 40.6H43.3999V42.1H44.8999V40.6Z" fill="currentColor" stroke="currentColor" stroke-width="0.5" stroke-miterlimit="10"/>
  </g>
</svg>
