<svg width="66" height="66" viewBox="0 0 66 66" fill="none" xmlns="http://www.w3.org/2000/svg">
  <g id="workshops">
    <path d="M42.6403 1C32.2903 1 23.6003 8.18997 21.3203 17.84C14.6203 17.84 7.90033 17.84 1.21033 17.84C0.820326 17.91 0.520272 18.2899 0.530272 18.6799V25.4199C0.520272 25.8599 0.93036 26.27 1.37036 26.27C1.81036 26.27 2.22033 25.8599 2.21033 25.4199V19.53H21.0004C20.8304 20.62 20.7404 21.76 20.7404 22.9C20.7404 34.98 30.5504 44.7899 42.6304 44.7899C43.7704 44.7899 44.9004 44.7 46.0004 44.53V63.3199H2.21033V30.47C2.22033 30.03 1.81036 29.62 1.37036 29.62C0.93036 29.62 0.520272 30.03 0.530272 30.47V64.15C0.530272 64.59 0.93036 64.99 1.37036 64.99H46.8403C47.2803 64.99 47.6803 64.59 47.6803 64.15V44.2C57.3303 41.92 64.5203 33.23 64.5203 22.88C64.5403 10.81 54.7303 1 42.6403 1ZM42.6403 2.67993C53.8103 2.67993 62.8503 11.72 62.8503 22.89C62.8503 32.32 56.4203 40.23 47.6903 42.47V18.6799C47.6903 18.2399 47.2903 17.84 46.8503 17.84H23.0603C25.3103 9.11997 33.2203 2.67993 42.6403 2.67993ZM22.7203 19.53H46.0103V42.8199C44.9103 42.9999 43.7903 43.11 42.6403 43.11C31.4703 43.11 22.4303 34.07 22.4303 22.9C22.4303 21.75 22.5403 20.62 22.7203 19.53Z" fill="#85AFCA" stroke="#85AFCA" stroke-miterlimit="10"/>
  </g>
</svg>
